<svg width="35" height="15" viewBox="0 0 35 15" fill="none" xmlns="http://www.w3.org/2000/svg">
<path d="M7.13126 2.43975C6.73168 2.92422 6.09236 3.30526 5.45304 3.25082C5.37312 2.59761 5.68746 1.90084 6.05507 1.47625C6.45464 0.980897 7.15257 0.627071 7.72263 0.599854C7.78657 1.27484 7.52551 1.94439 7.13126 2.43975ZM7.71198 3.37602C6.78496 3.32159 5.99114 3.91493 5.55427 3.91493C5.10674 3.91493 4.43545 3.40324 3.70023 3.41957C2.74657 3.4359 1.86218 3.98569 1.37736 4.86209C0.375754 6.62033 1.1163 9.21687 2.08594 10.6485C2.56011 11.3562 3.12484 12.1346 3.87072 12.1074C4.5793 12.0801 4.85634 11.6392 5.70877 11.6392C6.56653 11.6392 6.81693 12.1074 7.5628 12.0965C8.33532 12.0801 8.82014 11.3888 9.2943 10.6812C9.8324 9.87553 10.0562 9.09711 10.0668 9.05357C10.0508 9.03723 8.57506 8.46023 8.55908 6.71832C8.5431 5.25947 9.72584 4.56814 9.77912 4.5246C9.11316 3.51211 8.07426 3.40324 7.71198 3.37602ZM13.061 1.40549V12.0148H14.6753V8.38946H16.9076C18.9481 8.38946 20.3759 6.95783 20.3759 4.88931C20.3759 2.82079 18.9694 1.40549 16.9608 1.40549H13.061ZM14.6753 2.79357H16.5346C17.9358 2.79357 18.735 3.55566 18.735 4.89475C18.735 6.23385 17.9358 7.00682 16.5293 7.00682H14.6753V2.79357ZM23.3168 12.0965C24.329 12.0965 25.2667 11.5739 25.6929 10.741H25.7249V12.0148H27.2166V6.73465C27.2166 5.20503 26.0179 4.21432 24.1745 4.21432C22.4643 4.21432 21.1964 5.21592 21.1484 6.58767H22.6029C22.7254 5.93446 23.3168 5.50442 24.1266 5.50442C25.1122 5.50442 25.6663 5.97256 25.6663 6.83807V7.42597L23.6524 7.55117C21.7824 7.66548 20.7701 8.44934 20.7701 9.81021C20.7755 11.182 21.8197 12.0965 23.3168 12.0965ZM23.7536 10.839C22.8959 10.839 22.3471 10.4144 22.3471 9.7721C22.3471 9.10256 22.8746 8.71607 23.8815 8.65619L25.6716 8.54188V9.14066C25.6716 10.1314 24.8458 10.839 23.7536 10.839ZM29.2145 14.8999C30.7862 14.8999 31.5267 14.2847 32.1714 12.4285L35.0004 4.31774H33.3595L31.4628 10.5832H31.4308L29.5342 4.31774H27.8506L30.5784 12.042L30.4292 12.5102C30.1842 13.3049 29.7846 13.6152 29.0707 13.6152C28.9428 13.6152 28.6977 13.5989 28.5965 13.588V14.8617C28.6924 14.8835 29.092 14.8999 29.2145 14.8999Z" fill="#0F898C"/>
</svg>
