<svg width="21" height="11" viewBox="0 0 21 11" fill="none" xmlns="http://www.w3.org/2000/svg">
<path d="M15.3329 10.7067C15.5041 10.8945 15.7363 11 15.9784 11C16.2205 11 16.4527 10.8945 16.6239 10.7067L20.7327 6.19914C20.9038 6.0113 21 5.75656 21 5.49095C21 5.22534 20.9038 4.9706 20.7327 4.78276L16.6239 0.275179C16.4517 0.0927143 16.2211 -0.00825024 15.9817 -0.00596809C15.7423 -0.003685 15.5133 0.101661 15.344 0.287381C15.1747 0.473102 15.0787 0.724337 15.0766 0.986975C15.0745 1.24961 15.1666 1.50264 15.3329 1.69156L17.8045 4.48927H0.913052C0.670896 4.48927 0.438657 4.5948 0.267427 4.78265C0.0961963 4.9705 0 5.22529 0 5.49095C0 5.75661 0.0961963 6.01139 0.267427 6.19925C0.438657 6.3871 0.670896 6.49263 0.913052 6.49263H17.8045L15.3329 9.29034C15.1617 9.47818 15.0656 9.73292 15.0656 9.99853C15.0656 10.2641 15.1617 10.5189 15.3329 10.7067Z" fill="white"/>
</svg>
