<svg width="48" height="42" viewBox="0 0 48 42" fill="none" xmlns="http://www.w3.org/2000/svg">
<path d="M0.294999 23.9695C1.66592 14.8755 5.67064 6.4842 11.7344 0L14.9365 2.59253C11.0883 7.00439 9.10804 10.9462 8.99568 14.4181C8.99568 16.3739 10.4493 17.7839 13.0195 18.5798C13.7568 18.8072 14.5784 19.1028 15.4211 19.444C17.3676 20.277 19.0238 21.7469 20.1573 23.6474C21.2907 25.548 21.8446 27.7839 21.7412 30.0415C21.7497 31.8476 21.3674 33.6309 20.6246 35.2493C19.8887 37.2549 18.5976 38.9665 16.9274 40.1508C15.2573 41.3352 13.2893 41.9345 11.292 41.8671C9.84601 41.8868 8.41176 41.5849 7.07858 40.9802C2.35957 39.1305 3.03359e-05 34.7945 3.03359e-05 27.972C-0.00198767 26.6315 0.0966788 25.2929 0.294999 23.9695ZM26.2074 23.9695C27.5794 14.8808 31.5756 6.49196 37.6257 0L40.849 2.59253C36.9867 7.00439 35.0064 10.9462 34.9081 14.4181C35.0134 16.3739 36.3406 17.7839 38.9319 18.5798C39.6692 18.8072 40.4697 19.1028 41.3335 19.444C43.28 20.277 44.9362 21.7469 46.0696 23.6474C47.2031 25.548 47.757 27.7839 47.6536 30.0415C47.6635 31.8504 47.2736 33.6358 46.516 35.2493C45.7827 37.2568 44.4922 38.9703 42.8214 40.1551C41.1506 41.3398 39.1812 41.9378 37.1833 41.8671C35.7373 41.8868 34.3031 41.5849 32.9699 40.9802C28.2509 39.1305 25.8914 34.7945 25.8914 27.972C25.8963 26.6308 26.002 25.2923 26.2074 23.9695Z" fill="#EEEEEE"/>
</svg>
