
<svg width="54" height="39" viewBox="0 0 54 39" fill="none" xmlns="http://www.w3.org/2000/svg">
<path d="M39.9035 6.02045V10.2544C38.371 10.4605 36.9653 11.2153 35.947 12.3789C34.9287 13.5424 34.367 15.0358 34.3659 16.582V34.045C34.3646 35.4548 34.8323 36.825 35.6953 37.9399C35.109 38.1246 34.4978 38.2183 33.883 38.2175H20.122C19.5061 38.2165 18.8941 38.1208 18.3073 37.9337C19.1699 36.8209 19.6384 35.453 19.6391 34.045V16.582C19.6381 15.0358 19.0763 13.5424 18.058 12.3789C17.0397 11.2153 15.634 10.4605 14.1016 10.2544V6.02045C14.1016 4.42372 14.7359 2.8924 15.8649 1.76335C16.994 0.634294 18.5253 0 20.122 0H33.883C35.4797 0 37.0111 0.634294 38.1401 1.76335C39.2692 2.8924 39.9035 4.42372 39.9035 6.02045Z" fill="#80C343"/>
<path d="M17.4274 16.5822V34.0452C17.4282 35.0929 17.0332 36.1023 16.3216 36.8711C15.9313 37.2972 15.4567 37.6374 14.9279 37.87C14.3991 38.1027 13.8276 38.2228 13.2499 38.2227H4.17745C3.06952 38.2227 2.00697 37.7825 1.22355 36.9991C0.440124 36.2157 0 35.1531 0 34.0452V16.5822C0 15.4743 0.440124 14.4118 1.22355 13.6283C2.00697 12.8449 3.06952 12.4048 4.17745 12.4048H13.2548C13.5392 12.4046 13.8228 12.4334 14.1014 12.4908C15.0416 12.6865 15.8856 13.2003 16.4914 13.9455C17.0972 14.6907 17.4277 15.6219 17.4274 16.5822Z" fill="#575757"/>
<path d="M54.0006 16.5817V34.0447C54.0006 35.1526 53.5605 36.2152 52.7771 36.9986C51.9937 37.782 50.9311 38.2222 49.8232 38.2222H40.7458C40.1681 38.2223 39.5966 38.1022 39.0678 37.8695C38.539 37.6368 38.0644 37.2967 37.6742 36.8706C36.9625 36.1017 36.5675 35.0924 36.5684 34.0447V16.5817C36.5691 15.6222 36.9001 14.6922 37.5058 13.948C38.1115 13.2038 38.955 12.6908 39.8944 12.4952C40.1729 12.4378 40.4565 12.409 40.7409 12.4092H49.8183C50.3668 12.4085 50.9102 12.5159 51.4173 12.7253C51.9243 12.9346 52.3852 13.2418 52.7736 13.6293C53.162 14.0167 53.4702 14.4769 53.6808 14.9835C53.8913 15.49 54 16.0331 54.0006 16.5817Z" fill="#575757"/>
<path d="M31.373 22.167C31.373 22.7489 31.2219 23.2972 30.9198 23.8119C30.6289 24.3154 30.1925 24.735 29.6107 25.0706C29.04 25.3951 28.3631 25.5853 27.5798 25.6413V27.0008H26.5057V25.6245C25.3867 25.5238 24.486 25.1881 23.8035 24.6175C23.1209 24.0356 22.7685 23.2524 22.7461 22.2677H25.2637C25.3308 23.0734 25.7448 23.5601 26.5057 23.7279V20.5222C25.7 20.3208 25.0511 20.1194 24.5587 19.918C24.0664 19.7166 23.6412 19.3921 23.2832 18.9445C22.9251 18.497 22.7461 17.8872 22.7461 17.1151C22.7461 16.1417 23.093 15.3472 23.7867 14.7318C24.4916 14.1164 25.3979 13.7639 26.5057 13.6744V12.3149H27.5798V13.6744C28.654 13.7639 29.51 14.0884 30.1478 14.6479C30.7967 15.2074 31.1604 15.9794 31.2387 16.9641H28.7043C28.6708 16.6396 28.5533 16.3598 28.3519 16.1249C28.1617 15.8787 27.9043 15.7053 27.5798 15.6046V18.7767C28.419 18.9893 29.0792 19.1963 29.5603 19.3977C30.0526 19.5879 30.4778 19.9068 30.8359 20.3544C31.1939 20.7908 31.373 21.395 31.373 22.167ZM25.1965 16.9976C25.1965 17.3669 25.3084 17.669 25.5322 17.904C25.756 18.1277 26.0805 18.3124 26.5057 18.4578V15.5542C26.1029 15.6102 25.784 15.7612 25.549 16.0074C25.314 16.2535 25.1965 16.5836 25.1965 16.9976ZM27.5798 23.7615C28.005 23.6832 28.3351 23.5097 28.5701 23.2412C28.8162 22.9727 28.9393 22.6482 28.9393 22.2677C28.9393 21.8985 28.8218 21.602 28.5869 21.3782C28.3519 21.1544 28.0162 20.9698 27.5798 20.8243V23.7615Z" fill="white"/>
</svg>
