<svg width="45" height="38" viewBox="0 0 45 38" fill="none" xmlns="http://www.w3.org/2000/svg">
<path d="M22.5219 0.00200248C28.0179 0.00200248 33.5135 0.00200248 39.0087 0.00200248C41.7384 0.00200248 43.9069 1.47082 44.6936 3.89577C44.889 4.52257 44.9866 5.17457 44.9833 5.82983C45.0025 13.2303 45.0052 20.6312 44.9912 28.0325C44.9912 31.4328 42.5263 33.8219 39.0467 33.8347C36.0365 33.8449 33.0271 33.8449 30.0186 33.8347C29.8754 33.8251 29.7321 33.8534 29.6039 33.9165C29.4757 33.9797 29.3671 34.0753 29.2897 34.1935C26.9912 34.708 25.7519 34.7699 23.9706 37.083C23.0332 38.3057 21.9634 38.3057 21.0246 37.083C19.2477 34.7657 17.2989 34.708 15.7043 34.1935C15.6267 34.0755 15.5182 33.98 15.3899 33.9171C15.2617 33.8542 15.1185 33.8261 14.9753 33.836C11.9506 33.8475 8.92467 33.8539 5.8987 33.836C2.87272 33.818 0.573088 31.9365 0.0709443 29.0937C0.0169443 28.7451 -0.0063035 28.3926 0.00145726 28.0402C0.00145726 20.6397 0.00145726 13.2388 0.00145726 5.83752C0.00145726 2.94091 1.8173 0.710776 4.62301 0.137862C5.12124 0.0457034 5.62768 0.00276444 6.13469 0.00969326C11.5967 0.000294231 17.059 -0.00226981 22.5219 0.00200248ZM10.5688 17.638C10.5221 17.6548 10.478 17.6776 10.4377 17.7059C8.97711 19.044 8.02002 20.6769 7.68963 22.6186C7.41168 24.2477 8.58117 25.6319 10.2279 25.637C14.363 25.6498 18.4986 25.6434 22.6346 25.6178C24.4138 25.6062 25.5623 24.181 25.2188 22.4712C24.8833 20.7291 24.0066 19.1305 22.7081 17.8931C22.6084 17.7969 22.493 17.7162 22.3842 17.6265C19.3674 21.4369 13.6459 21.5049 10.5688 17.638ZM16.4594 8.22402C15.4247 8.22731 14.4142 8.53038 13.5555 9.09493C12.6969 9.65948 12.0287 10.4602 11.6354 11.3958C11.2422 12.3315 11.1414 13.3601 11.3459 14.3517C11.5504 15.3433 12.051 16.2534 12.7844 16.967C13.5179 17.6806 14.4512 18.1656 15.4665 18.3608C16.4818 18.556 17.5335 18.4526 18.4888 18.0637C19.444 17.6748 20.2599 17.0178 20.8333 16.1757C21.4067 15.3337 21.7119 14.3444 21.7103 13.3328C21.7055 11.9751 21.1499 10.6748 20.1655 9.717C19.1811 8.75924 17.8483 8.22231 16.4594 8.22402ZM33.219 18.4532C34.1734 18.4532 35.0545 18.4724 35.9316 18.4532C36.3099 18.4352 36.6684 18.2829 36.9399 18.0247C37.2113 17.7665 37.3769 17.4203 37.4056 17.0511C37.4342 16.6819 37.324 16.3152 37.0955 16.02C36.8671 15.7247 36.5362 15.5211 36.165 15.4476C35.7774 15.3979 35.3862 15.3791 34.9955 15.3912C34.416 15.3835 33.8352 15.3912 33.2111 15.3912C33.2111 14.4492 33.2334 13.5866 33.2046 12.7266C33.1892 12.3633 33.0371 12.0185 32.7774 11.7582C32.5177 11.498 32.1688 11.3408 31.7978 11.3167C30.9797 11.2501 30.2717 11.7179 30.1471 12.4869C30.058 13.0508 30.0921 13.6404 30.0803 14.2082C30.0724 14.5863 30.0803 14.9631 30.0803 15.3797C29.1966 15.3797 28.3824 15.3681 27.5682 15.3797C26.6269 15.3951 25.9608 15.9833 25.9163 16.8139C25.8971 17.0217 25.9225 17.2311 25.991 17.4288C26.0595 17.6264 26.1695 17.8079 26.3139 17.9615C26.4584 18.1151 26.6341 18.2375 26.8298 18.3209C27.0254 18.4042 27.2368 18.4467 27.4502 18.4455C28.3103 18.466 29.1717 18.4455 30.0803 18.4455C30.0803 19.2914 30.0803 20.0732 30.0803 20.8538C30.0894 21.8663 30.7489 22.5648 31.6719 22.5571C32.5949 22.5494 33.2098 21.8637 33.2177 20.8717C33.2242 20.1001 33.219 19.3183 33.219 18.4532Z" fill="#6CA6D1"/>
</svg>
