<svg width="43" height="44" viewBox="0 0 43 44" fill="none" xmlns="http://www.w3.org/2000/svg">
<path d="M16.8411 43.5007C16.3704 43.4272 15.9247 43.2401 15.5426 42.9555C15.1604 42.671 14.8534 42.2976 14.6481 41.8677C14.4436 41.3737 14.3303 40.8468 14.3137 40.3124C14.2593 39.3014 14.3137 38.2827 14.3137 37.2018H11.2031C9.80112 37.2215 8.40966 36.9569 7.11269 36.4241C5.60266 35.8471 4.271 34.883 3.25137 33.6286C2.23174 32.3742 1.56003 30.8736 1.30367 29.2776C0.678077 26.2617 0.948394 23.1287 2.08131 20.2646C2.85188 18.246 4.34215 16.584 6.26506 15.5987C8.93239 14.1912 11.522 12.6437 14.1271 11.1428C14.1969 11.0844 14.2537 11.012 14.2939 10.9303C14.334 10.8486 14.3567 10.7594 14.3604 10.6684C14.3604 8.22144 14.3604 5.77185 14.3604 3.31966C14.3604 1.20446 15.558 0.0068826 17.6809 0.0068826H36.5C37.1856 -0.0402953 37.8659 0.156193 38.4208 0.561685C38.9757 0.967176 39.3695 1.55561 39.5328 2.22318C39.6117 2.58056 39.6482 2.94597 39.6417 3.31189C39.6417 6.75946 39.6417 10.2018 39.6417 13.6391V14.1912H40.5127C40.8254 14.1734 41.1386 14.2187 41.4335 14.3245C41.7283 14.4304 41.9989 14.5945 42.2289 14.8071C42.459 15.0198 42.6439 15.2766 42.7725 15.5622C42.9012 15.8479 42.971 16.1565 42.9778 16.4697C43.0229 16.7881 43.0001 17.1124 42.9109 17.4213C42.8217 17.7303 42.6681 18.0168 42.4602 18.2621C42.2523 18.5075 41.9949 18.706 41.7048 18.8448C41.4147 18.9835 41.0985 19.0592 40.7771 19.067C39.0118 19.1448 37.2388 19.1292 35.4735 19.067C35.1744 19.0437 34.883 18.9608 34.6165 18.8231C34.3499 18.6853 34.1137 18.4956 33.9216 18.2652C33.7295 18.0347 33.5856 17.7681 33.4982 17.4811C33.4108 17.1941 33.3817 16.8925 33.4127 16.5941C33.4123 15.9912 33.6452 15.4115 34.0627 14.9766C34.4803 14.5417 35.05 14.2853 35.6524 14.2612C36.2745 14.2612 36.8966 14.2612 37.5498 14.2612V4.68832H16.3745V9.81302L16.7866 9.61084C18.132 8.83319 19.4695 8.05554 20.846 7.39454C21.416 7.09258 22.0345 6.89257 22.6734 6.80353C22.9829 6.75167 23.3003 6.77342 23.5998 6.86702C23.8993 6.96061 24.1726 7.12341 24.3975 7.34225C24.6224 7.56109 24.7926 7.82981 24.8943 8.12666C24.996 8.42351 25.0264 8.74014 24.983 9.05093C24.9404 9.57734 24.7782 10.0871 24.5086 10.5412C24.2391 10.9954 23.8694 11.382 23.4277 11.6716C21.2737 13.3669 19.0651 14.9999 16.8566 16.6252C16.6917 16.7218 16.557 16.8625 16.4677 17.0315C16.3783 17.2005 16.338 17.391 16.3512 17.5817C16.3512 24.2228 16.3512 30.864 16.3512 37.5051V38.0028H37.5032V36.4475C36.9044 36.4475 36.3289 36.4475 35.7535 36.4475C35.2603 36.4608 34.7755 36.3175 34.3689 36.038C33.9623 35.7586 33.6548 35.3574 33.4905 34.8922C33.3531 34.5451 33.2991 34.1706 33.3327 33.7988C33.3663 33.427 33.4866 33.0682 33.684 32.7514C33.8813 32.4345 34.1503 32.1683 34.4692 31.9742C34.7881 31.7802 35.148 31.6636 35.5202 31.6338C37.2543 31.5794 39.004 31.5872 40.7382 31.6338C41.3402 31.6879 41.9006 31.9641 42.3103 32.4086C42.7199 32.8531 42.9495 33.4341 42.9544 34.0386C42.9592 34.643 42.739 35.2277 42.3365 35.6787C41.9341 36.1297 41.3782 36.4148 40.7771 36.4786C40.396 36.4786 39.9994 36.4786 39.5873 36.4786V37.2562C39.5873 38.4227 39.5873 39.5892 39.5406 40.7401C39.5181 41.3771 39.2794 41.9875 38.8639 42.4708C38.4484 42.9542 37.8807 43.2817 37.2543 43.3996L37.0599 43.4774L16.8411 43.5007ZM25.4807 40.5846C25.4869 40.872 25.5776 41.1512 25.7416 41.3873C25.9055 41.6235 26.1355 41.806 26.4027 41.9121C26.6698 42.0183 26.9624 42.0433 27.2437 41.984C27.525 41.9248 27.7826 41.7839 27.9843 41.579C28.1859 41.3742 28.3227 41.1144 28.3775 40.8322C28.4324 40.55 28.4027 40.2578 28.2924 39.9924C28.1821 39.7269 27.996 39.4999 27.7573 39.3396C27.5186 39.1794 27.238 39.0931 26.9505 39.0915C26.7558 39.0925 26.5632 39.132 26.3838 39.2076C26.2045 39.2833 26.0418 39.3937 25.9052 39.5325C25.7686 39.6712 25.6608 39.8356 25.588 40.0161C25.5151 40.1967 25.4787 40.3899 25.4807 40.5846ZM26.9272 2.81419H29.8511C30.1 2.81419 30.3721 2.81419 30.3799 2.4798C30.3877 2.14541 30.1 2.11431 29.8356 2.11431H24.0654C23.801 2.11431 23.5055 2.11431 23.4977 2.45648C23.49 2.79864 23.8166 2.81419 24.0888 2.81419H26.9272Z" fill="#37A592"/>
<path d="M38.1318 24.8913C37.3541 24.8913 36.5765 24.8913 35.8377 24.8913C35.2079 24.8742 34.6088 24.6158 34.164 24.1695C33.7193 23.7232 33.4629 23.1231 33.448 22.4933C33.433 21.8634 33.6605 21.2518 34.0835 20.7849C34.5066 20.318 35.0928 20.0314 35.7211 19.9844C37.3308 19.9844 38.9405 19.9844 40.558 19.9844C41.1856 20.0296 41.772 20.3139 42.1962 20.7786C42.6204 21.2433 42.8502 21.853 42.8383 22.4821C42.8263 23.1112 42.5735 23.7118 42.1319 24.16C41.6903 24.6082 41.0936 24.87 40.4647 24.8913C39.6871 24.8991 38.9094 24.8913 38.1318 24.8913Z" fill="#37A592"/>
<path d="M38.1497 30.6775C37.3021 30.6775 36.4467 30.6775 35.5991 30.6775C35.0521 30.6644 34.5282 30.4541 34.1239 30.0855C33.7195 29.7169 33.4619 29.2147 33.3983 28.6712C33.2684 28.0847 33.3643 27.4708 33.667 26.9519C33.9697 26.433 34.4569 26.0473 35.0314 25.8717C35.1926 25.8207 35.3601 25.7919 35.5291 25.7861C37.2555 25.7861 38.9818 25.7861 40.7082 25.7861C41.1864 25.7901 41.6504 25.9492 42.0304 26.2395C42.4105 26.5298 42.686 26.9356 42.8156 27.3959C42.9836 27.8742 42.999 28.3929 42.8597 28.8804C42.7205 29.3679 42.4333 29.8002 42.038 30.1176C41.6481 30.3915 41.1967 30.5651 40.7238 30.6231C39.8684 30.7009 39.0052 30.6231 38.142 30.6231L38.1497 30.6775Z" fill="#37A592"/>
</svg>
