<svg width="21" height="24" viewBox="0 0 21 24" fill="none" xmlns="http://www.w3.org/2000/svg">
<path d="M13.0689 20.8183C12.6942 21.6502 12.4465 22.5531 12.3516 23.4999L20.2818 21.812C20.6566 20.9802 20.9041 20.0772 20.9992 19.1304L13.0689 20.8183Z" fill="#02015A"/>
<path d="M20.2827 16.7554C20.6574 15.9236 20.9051 15.0206 21 14.0737L14.8226 15.3892V12.8604L20.2825 11.6987C20.6572 10.8669 20.9049 9.96382 20.9998 9.01701L14.8224 10.3314V1.23692C13.8758 1.76906 13.0352 2.4774 12.3518 3.31292V10.8573L9.88129 11.3831V0C8.93472 0.531953 8.09408 1.24047 7.41073 2.076V11.9087L1.88285 13.0848C1.50811 13.9166 1.26022 14.8197 1.16513 15.7665L7.41073 14.4375V17.6221L0.717348 19.0463C0.342609 19.8781 0.0948992 20.7811 0 21.7279L7.0061 20.2372C7.57643 20.1184 8.06662 19.7808 8.38532 19.3162L9.67019 17.4089V17.4085C9.80357 17.2112 9.88129 16.9733 9.88129 16.717V13.9118L12.3518 13.386V18.4436L20.2825 16.755L20.2827 16.7554Z" fill="#02015A"/>
</svg>
