<svg width="303" height="286" viewBox="0 0 303 286" fill="none" xmlns="http://www.w3.org/2000/svg">
<g filter="url(#filter0_d_224_6762)">
<line x1="18.5488" y1="72.2739" x2="284.323" y2="72.2739" stroke="white" stroke-width="0.922828"/>
</g>
<rect x="18.5488" y="72.7354" width="265.775" height="42.4501" fill="white"/>
<path d="M210.543 73.4914H207.595C207.595 41.9321 181.918 16.2583 150.362 16.2583C118.806 16.2583 93.1079 41.9286 93.1079 73.4914H90.1426C90.1426 40.2955 117.148 13.2861 150.348 13.2861C183.547 13.2861 210.543 40.2955 210.543 73.4914Z" fill="#E2A52F"/>
<g filter="url(#filter1_d_224_6762)">
<path d="M96.2615 74.8544C96.6116 88.7322 102.283 101.944 112.103 111.757C121.923 121.57 135.139 127.232 149.017 127.572C179.708 128.309 205.039 103.085 204.427 72.3908C204.229 62.5413 201.345 52.9328 196.086 44.6021C190.827 36.2715 183.394 29.5349 174.587 25.1193C170.835 23.2285 166.874 21.7861 162.785 20.8219C159.066 19.9481 155.265 19.4703 151.446 19.3964C120.724 18.7909 95.4865 44.1393 96.2615 74.8544Z" fill="url(#paint0_linear_224_6762)"/>
</g>
<path d="M186.959 109.782C207.084 89.6565 207.15 57.0925 187.106 37.0482C167.061 17.0038 134.497 17.0696 114.372 37.195C94.2465 57.3204 94.1808 89.8844 114.225 109.929C134.269 129.973 166.833 129.907 186.959 109.782Z" fill="#F9F9F9"/>
<path d="M141.709 59.9856C144.419 59.9856 146.615 61.2824 148.298 63.8758C149.699 66.0252 150.4 68.5836 150.4 71.5508C150.4 75.1022 149.512 77.9526 147.737 80.1021C146.148 82.0413 144.139 83.0109 141.709 83.0109C138.882 83.0109 136.686 81.7726 135.12 79.296C133.788 77.2166 133.123 74.6349 133.123 71.5508C133.123 68.093 133.999 65.2542 135.751 63.0347C137.316 61.002 139.302 59.9856 141.709 59.9856ZM141.779 64.1912C139.419 64.1912 138.239 66.5743 138.239 71.3406C138.239 73.7471 138.578 75.6395 139.256 77.018C139.863 78.2563 140.669 78.8755 141.674 78.8755C142.795 78.8755 143.671 78.2096 144.302 76.8778C144.956 75.5461 145.284 73.7003 145.284 71.3406C145.284 66.5743 144.115 64.1912 141.779 64.1912ZM155.953 72.8125V68.8172H159.388H159.668C160.486 68.8172 161.047 68.6537 161.351 68.3266C161.678 67.9995 161.841 67.4037 161.841 66.5393C161.841 65.7916 161.631 65.1958 161.21 64.7519C160.79 64.308 160.229 64.086 159.528 64.086C158.08 64.086 156.596 64.7636 155.077 66.1187L153.29 62.9295C155.253 60.9669 157.484 59.9856 159.984 59.9856C162.04 59.9856 163.734 60.5698 165.065 61.738C166.35 62.8361 166.993 64.2963 166.993 66.1187C166.993 67.2869 166.806 68.1864 166.432 68.8172C166.058 69.4481 165.392 69.9854 164.435 70.4294C166.678 71.3639 167.799 73.0929 167.799 75.6162C167.799 78.4199 166.853 80.4408 164.96 81.6791C163.652 82.5436 162.005 82.9758 160.019 82.9758C158.944 82.9758 157.694 82.6721 156.269 82.0646C154.844 81.4572 153.71 80.7446 152.869 79.9268L154.867 76.9479C156.082 78.1161 157.694 78.7002 159.703 78.7002C160.615 78.7002 161.339 78.4315 161.876 77.8942C162.414 77.3568 162.682 76.6325 162.682 75.7213C162.682 73.7821 161.584 72.8125 159.388 72.8125H155.953Z" fill="#E2A52F"/>
<path d="M51.4439 248.956C50.6732 248.571 49.8969 248.378 49.1149 248.378C48.5595 248.378 48.1062 248.508 47.7549 248.769C47.4035 249.018 47.2279 249.341 47.2279 249.738C47.2279 250.452 47.6982 250.985 48.6389 251.336C50.0442 251.857 51.0415 252.407 51.6309 252.985C52.2202 253.552 52.5149 254.254 52.5149 255.093C52.5149 256.113 52.1239 256.912 51.3419 257.49C50.7072 257.966 49.9195 258.204 48.9789 258.204C47.8569 258.204 46.6895 257.819 45.4769 257.048L46.1569 256.079C46.9162 256.544 47.8002 256.776 48.8089 256.776C50.1915 256.776 50.8829 256.192 50.8829 255.025C50.8829 254.118 50.2992 253.467 49.1319 253.07C47.9079 252.651 47.0182 252.186 46.4629 251.676C45.9189 251.166 45.6469 250.548 45.6469 249.823C45.6469 248.962 45.9812 248.27 46.6499 247.749C47.2619 247.273 48.0665 247.035 49.0639 247.035C50.1859 247.035 51.2059 247.352 52.1239 247.987L51.4439 248.956ZM56.4299 250.282V258H54.9679V250.282H56.4299ZM54.8489 247.902C54.8489 247.664 54.9339 247.46 55.1039 247.29C55.2739 247.12 55.4779 247.035 55.7159 247.035C55.9539 247.035 56.1579 247.12 56.3279 247.29C56.5092 247.46 56.5999 247.664 56.5999 247.902C56.5999 248.151 56.5149 248.361 56.3449 248.531C56.1749 248.701 55.9652 248.786 55.7159 248.786C55.4666 248.786 55.2569 248.701 55.0869 248.531C54.9282 248.361 54.8489 248.151 54.8489 247.902ZM64.3365 257.269V257.184C63.8265 257.864 63.0955 258.204 62.1435 258.204C60.9988 258.204 60.0978 257.785 59.4405 256.946C58.8852 256.243 58.6075 255.359 58.6075 254.294C58.6075 252.889 59.0155 251.801 59.8315 251.03C60.4888 250.395 61.2878 250.078 62.2285 250.078C62.6818 250.078 63.1295 250.18 63.5715 250.384C64.0135 250.577 64.3195 250.809 64.4895 251.081L64.6595 250.282H65.7985V257.269C65.7985 259.921 64.6368 261.247 62.3135 261.247C61.3048 261.247 60.3245 260.873 59.3725 260.125L59.8145 259.343C60.5058 259.819 61.2765 260.057 62.1265 260.057C63.5998 260.057 64.3365 259.128 64.3365 257.269ZM64.3365 255.569V252.509C64.2572 252.158 64.0305 251.852 63.6565 251.591C63.2938 251.33 62.9028 251.2 62.4835 251.2C61.7922 251.2 61.2312 251.472 60.8005 252.016C60.3698 252.56 60.1545 253.263 60.1545 254.124C60.1545 255.11 60.3812 255.864 60.8345 256.385C61.2312 256.838 61.7412 257.065 62.3645 257.065C62.7952 257.065 63.1975 256.923 63.5715 256.64C63.9568 256.345 64.2118 255.988 64.3365 255.569ZM69.8076 251.047H69.8926C70.4706 250.401 71.2752 250.078 72.3066 250.078C74.1992 250.078 75.1456 251.189 75.1456 253.41V258H73.6836V253.495C73.6836 252.056 73.0489 251.336 71.7796 251.336C71.4282 251.336 71.0712 251.421 70.7086 251.591C70.3459 251.761 70.0796 251.965 69.9096 252.203V258H68.4476V250.282H69.6716L69.8076 251.047ZM87.527 258H86.388L86.218 257.201C85.606 257.87 84.7787 258.204 83.736 258.204C82.9427 258.204 82.3137 257.989 81.849 257.558C81.3957 257.116 81.169 256.521 81.169 255.773C81.169 254.923 81.5147 254.271 82.206 253.818C82.9087 253.353 83.9004 253.121 85.181 253.121H86.082V253.036C86.082 251.857 85.487 251.268 84.297 251.268C83.5377 251.268 82.8294 251.512 82.172 251.999L81.73 251.217C82.614 250.458 83.6284 250.078 84.773 250.078C86.609 250.078 87.527 251.172 87.527 253.359V258ZM86.065 254.107H85.317C83.5717 254.107 82.699 254.628 82.699 255.671C82.699 256.102 82.8237 256.442 83.073 256.691C83.3337 256.94 83.6794 257.065 84.11 257.065C84.5407 257.065 84.943 256.957 85.317 256.742C85.691 256.515 85.9404 256.232 86.065 255.892V254.107ZM91.456 251.047H91.541C92.119 250.401 92.9237 250.078 93.955 250.078C95.8477 250.078 96.794 251.189 96.794 253.41V258H95.332V253.495C95.332 252.056 94.6974 251.336 93.428 251.336C93.0767 251.336 92.7197 251.421 92.357 251.591C91.9944 251.761 91.728 251.965 91.558 252.203V258H90.096V250.282H91.32L91.456 251.047ZM104.902 258L104.681 257.184C104.171 257.864 103.406 258.204 102.386 258.204C101.241 258.204 100.34 257.785 99.6827 256.946C99.1274 256.243 98.8497 255.359 98.8497 254.294C98.8497 252.889 99.2577 251.801 100.074 251.03C100.731 250.395 101.53 250.078 102.471 250.078C103.332 250.078 104.035 250.35 104.579 250.894V247.885L106.041 247.069V258H104.902ZM104.579 255.569V252.509C104.499 252.158 104.273 251.852 103.899 251.591C103.536 251.33 103.145 251.2 102.726 251.2C102.034 251.2 101.473 251.472 101.043 252.016C100.612 252.56 100.397 253.263 100.397 254.124C100.397 255.11 100.623 255.864 101.077 256.385C101.473 256.838 101.983 257.065 102.607 257.065C103.037 257.065 103.44 256.923 103.814 256.64C104.199 256.345 104.454 255.988 104.579 255.569ZM116.857 251.676C116.29 251.359 115.667 251.2 114.987 251.2C114.613 251.2 114.312 251.291 114.086 251.472C113.859 251.642 113.746 251.874 113.746 252.169C113.746 252.498 113.848 252.753 114.052 252.934C114.267 253.104 114.664 253.268 115.242 253.427C116.114 253.676 116.721 253.943 117.061 254.226C117.525 254.623 117.758 255.184 117.758 255.909C117.758 256.6 117.503 257.156 116.993 257.575C116.494 257.994 115.831 258.204 115.004 258.204C113.904 258.204 112.952 257.898 112.148 257.286L112.658 256.47C113.292 256.867 114.001 257.065 114.783 257.065C115.825 257.065 116.347 256.668 116.347 255.875C116.347 255.535 116.233 255.28 116.007 255.11C115.791 254.929 115.372 254.759 114.749 254.6C113.094 254.192 112.267 253.393 112.267 252.203C112.267 251.591 112.51 251.087 112.998 250.69C113.496 250.282 114.12 250.078 114.868 250.078C115.82 250.078 116.653 250.344 117.367 250.877L116.857 251.676ZM121.358 247.035V251.132C121.992 250.429 122.791 250.078 123.755 250.078C125.647 250.078 126.594 251.189 126.594 253.41V258H125.132V253.495C125.132 252.056 124.497 251.336 123.228 251.336C122.876 251.336 122.519 251.421 122.157 251.591C121.794 251.761 121.528 251.965 121.358 252.203V258H119.896V247.817L121.358 247.035ZM135.007 258H133.868L133.698 257.201C133.086 257.87 132.259 258.204 131.216 258.204C130.423 258.204 129.794 257.989 129.329 257.558C128.876 257.116 128.649 256.521 128.649 255.773C128.649 254.923 128.995 254.271 129.686 253.818C130.389 253.353 131.381 253.121 132.661 253.121H133.562V253.036C133.562 251.857 132.967 251.268 131.777 251.268C131.018 251.268 130.31 251.512 129.652 251.999L129.21 251.217C130.094 250.458 131.109 250.078 132.253 250.078C134.089 250.078 135.007 251.172 135.007 253.359V258ZM133.545 254.107H132.797C131.052 254.107 130.179 254.628 130.179 255.671C130.179 256.102 130.304 256.442 130.553 256.691C130.814 256.94 131.16 257.065 131.59 257.065C132.021 257.065 132.423 256.957 132.797 256.742C133.171 256.515 133.421 256.232 133.545 255.892V254.107ZM138.97 251.047H139.038C139.571 250.401 140.194 250.078 140.908 250.078C141.815 250.078 142.484 250.429 142.914 251.132L141.69 251.897C141.316 251.523 140.908 251.336 140.466 251.336C139.9 251.336 139.424 251.625 139.038 252.203V258H137.576V250.282H138.834L138.97 251.047ZM150.63 254.634H145.19C145.269 255.382 145.541 255.977 146.006 256.419C146.47 256.85 147.065 257.065 147.791 257.065C148.493 257.065 149.207 256.85 149.933 256.419L150.375 257.252C149.581 257.887 148.641 258.204 147.553 258.204C146.306 258.204 145.314 257.813 144.578 257.031C143.898 256.306 143.558 255.354 143.558 254.175C143.558 252.974 143.926 251.971 144.663 251.166C145.331 250.441 146.153 250.078 147.128 250.078C148.318 250.078 149.23 250.526 149.865 251.421C150.375 252.135 150.63 253.036 150.63 254.124V254.634ZM145.139 253.495H149.134C149.111 252.758 148.924 252.192 148.573 251.795C148.233 251.387 147.768 251.183 147.179 251.183C146.612 251.183 146.142 251.393 145.768 251.812C145.405 252.231 145.195 252.792 145.139 253.495ZM158.741 251.472L158.724 255.96C158.724 256.708 159.007 257.082 159.574 257.082C159.97 257.082 160.361 256.969 160.747 256.742L161.257 257.524C160.633 257.989 159.959 258.221 159.234 258.221C157.919 258.221 157.262 257.501 157.262 256.062V251.472H156.123V250.282H157.279V248.701L158.741 247.936V250.282H161.053V251.472H158.741ZM164.754 247.035V251.132C165.389 250.429 166.188 250.078 167.151 250.078C169.044 250.078 169.99 251.189 169.99 253.41V258H168.528V253.495C168.528 252.056 167.894 251.336 166.624 251.336C166.273 251.336 165.916 251.421 165.553 251.591C165.191 251.761 164.924 251.965 164.754 252.203V258H163.292V247.817L164.754 247.035ZM179.118 254.634H173.678C173.757 255.382 174.029 255.977 174.494 256.419C174.959 256.85 175.554 257.065 176.279 257.065C176.982 257.065 177.696 256.85 178.421 256.419L178.863 257.252C178.07 257.887 177.129 258.204 176.041 258.204C174.794 258.204 173.803 257.813 173.066 257.031C172.386 256.306 172.046 255.354 172.046 254.175C172.046 252.974 172.414 251.971 173.151 251.166C173.82 250.441 174.641 250.078 175.616 250.078C176.806 250.078 177.718 250.526 178.353 251.421C178.863 252.135 179.118 253.036 179.118 254.124V254.634ZM173.627 253.495H177.622C177.599 252.758 177.412 252.192 177.061 251.795C176.721 251.387 176.256 251.183 175.667 251.183C175.1 251.183 174.63 251.393 174.256 251.812C173.893 252.231 173.684 252.792 173.627 253.495ZM190.765 258L190.544 257.184C190.034 257.864 189.269 258.204 188.249 258.204C187.104 258.204 186.203 257.785 185.546 256.946C184.991 256.243 184.713 255.359 184.713 254.294C184.713 252.889 185.121 251.801 185.937 251.03C186.594 250.395 187.393 250.078 188.334 250.078C189.195 250.078 189.898 250.35 190.442 250.894V247.885L191.904 247.069V258H190.765ZM190.442 255.569V252.509C190.363 252.158 190.136 251.852 189.762 251.591C189.399 251.33 189.008 251.2 188.589 251.2C187.898 251.2 187.337 251.472 186.906 252.016C186.475 252.56 186.26 253.263 186.26 254.124C186.26 255.11 186.487 255.864 186.94 256.385C187.337 256.838 187.847 257.065 188.47 257.065C188.901 257.065 189.303 256.923 189.677 256.64C190.062 256.345 190.317 255.988 190.442 255.569ZM197.817 258.204C196.65 258.204 195.703 257.768 194.978 256.895C194.355 256.147 194.043 255.235 194.043 254.158C194.043 252.911 194.423 251.903 195.182 251.132C195.862 250.429 196.735 250.078 197.8 250.078C199.024 250.078 199.987 250.526 200.69 251.421C201.268 252.169 201.557 253.081 201.557 254.158C201.557 255.393 201.16 256.402 200.367 257.184C199.664 257.864 198.814 258.204 197.817 258.204ZM197.783 257.048C198.463 257.048 199.001 256.787 199.398 256.266C199.806 255.745 200.01 255.042 200.01 254.158C200.01 253.24 199.795 252.509 199.364 251.965C198.967 251.455 198.446 251.2 197.8 251.2C197.143 251.2 196.61 251.472 196.202 252.016C195.794 252.56 195.59 253.274 195.59 254.158C195.59 255.11 195.817 255.847 196.27 256.368C196.667 256.821 197.171 257.048 197.783 257.048ZM209.838 257.218C209.18 257.875 208.296 258.204 207.186 258.204C205.916 258.204 204.908 257.785 204.16 256.946C203.514 256.209 203.191 255.286 203.191 254.175C203.191 252.928 203.61 251.908 204.449 251.115C205.174 250.424 206.052 250.078 207.084 250.078C208.081 250.078 208.959 250.384 209.719 250.996L209.311 251.812C208.71 251.404 208.053 251.2 207.339 251.2C206.579 251.2 205.956 251.483 205.469 252.05C204.981 252.617 204.738 253.342 204.738 254.226C204.738 255.087 205.01 255.79 205.554 256.334C206.052 256.821 206.676 257.065 207.424 257.065C208.194 257.065 208.846 256.833 209.379 256.368L209.838 257.218ZM216.849 250.282H218.311V258H217.189L217.07 257.116H216.968C216.707 257.433 216.35 257.694 215.897 257.898C215.455 258.102 215.019 258.204 214.588 258.204C212.786 258.204 211.885 257.105 211.885 254.906V250.282H213.347V254.583C213.347 256.158 213.914 256.946 215.047 256.946C215.376 256.946 215.716 256.861 216.067 256.691C216.418 256.521 216.679 256.317 216.849 256.079V250.282ZM222.326 251.047H222.411C222.989 250.401 223.788 250.078 224.808 250.078C226.089 250.078 226.922 250.537 227.307 251.455C227.964 250.537 228.899 250.078 230.112 250.078C231.971 250.078 232.9 251.177 232.9 253.376V258H231.438V253.699C231.438 252.849 231.285 252.243 230.979 251.88C230.684 251.517 230.186 251.336 229.483 251.336C228.78 251.336 228.14 251.648 227.562 252.271C227.63 252.588 227.664 252.957 227.664 253.376V258H226.202V253.58C226.202 252.798 226.043 252.231 225.726 251.88C225.42 251.517 224.921 251.336 224.23 251.336C223.901 251.336 223.561 251.421 223.21 251.591C222.859 251.761 222.598 251.965 222.428 252.203V258H220.966V250.282H222.19L222.326 251.047ZM242.021 254.634H236.581C236.661 255.382 236.933 255.977 237.397 256.419C237.862 256.85 238.457 257.065 239.182 257.065C239.885 257.065 240.599 256.85 241.324 256.419L241.766 257.252C240.973 257.887 240.032 258.204 238.944 258.204C237.698 258.204 236.706 257.813 235.969 257.031C235.289 256.306 234.949 255.354 234.949 254.175C234.949 252.974 235.318 251.971 236.054 251.166C236.723 250.441 237.545 250.078 238.519 250.078C239.709 250.078 240.622 250.526 241.256 251.421C241.766 252.135 242.021 253.036 242.021 254.124V254.634ZM236.53 253.495H240.525C240.503 252.758 240.316 252.192 239.964 251.795C239.624 251.387 239.16 251.183 238.57 251.183C238.004 251.183 237.533 251.393 237.159 251.812C236.797 252.231 236.587 252.792 236.53 253.495ZM245.519 251.047H245.604C246.182 250.401 246.986 250.078 248.018 250.078C249.91 250.078 250.857 251.189 250.857 253.41V258H249.395V253.495C249.395 252.056 248.76 251.336 247.491 251.336C247.139 251.336 246.782 251.421 246.42 251.591C246.057 251.761 245.791 251.965 245.621 252.203V258H244.159V250.282H245.383L245.519 251.047ZM255.262 251.472L255.245 255.96C255.245 256.708 255.529 257.082 256.095 257.082C256.492 257.082 256.883 256.969 257.268 256.742L257.778 257.524C257.155 257.989 256.481 258.221 255.755 258.221C254.441 258.221 253.783 257.501 253.783 256.062V251.472H252.644V250.282H253.8V248.701L255.262 247.936V250.282H257.574V251.472H255.262ZM126.9 271.676C126.334 271.359 125.71 271.2 125.03 271.2C124.656 271.2 124.356 271.291 124.129 271.472C123.903 271.642 123.789 271.874 123.789 272.169C123.789 272.498 123.891 272.753 124.095 272.934C124.311 273.104 124.707 273.268 125.285 273.427C126.158 273.676 126.764 273.943 127.104 274.226C127.569 274.623 127.801 275.184 127.801 275.909C127.801 276.6 127.546 277.156 127.036 277.575C126.538 277.994 125.875 278.204 125.047 278.204C123.948 278.204 122.996 277.898 122.191 277.286L122.701 276.47C123.336 276.867 124.044 277.065 124.826 277.065C125.869 277.065 126.39 276.668 126.39 275.875C126.39 275.535 126.277 275.28 126.05 275.11C125.835 274.929 125.416 274.759 124.792 274.6C123.138 274.192 122.31 273.393 122.31 272.203C122.31 271.591 122.554 271.087 123.041 270.69C123.54 270.282 124.163 270.078 124.911 270.078C125.863 270.078 126.696 270.344 127.41 270.877L126.9 271.676ZM136.336 274.634H130.896C130.975 275.382 131.247 275.977 131.712 276.419C132.176 276.85 132.771 277.065 133.497 277.065C134.199 277.065 134.913 276.85 135.639 276.419L136.081 277.252C135.287 277.887 134.347 278.204 133.259 278.204C132.012 278.204 131.02 277.813 130.284 277.031C129.604 276.306 129.264 275.354 129.264 274.175C129.264 272.974 129.632 271.971 130.369 271.166C131.037 270.441 131.859 270.078 132.834 270.078C134.024 270.078 134.936 270.526 135.571 271.421C136.081 272.135 136.336 273.036 136.336 274.124V274.634ZM130.845 273.495H134.84C134.817 272.758 134.63 272.192 134.279 271.795C133.939 271.387 133.474 271.183 132.885 271.183C132.318 271.183 131.848 271.393 131.474 271.812C131.111 272.231 130.901 272.792 130.845 273.495ZM144.61 277.218C143.953 277.875 143.069 278.204 141.958 278.204C140.689 278.204 139.68 277.785 138.932 276.946C138.286 276.209 137.963 275.286 137.963 274.175C137.963 272.928 138.382 271.908 139.221 271.115C139.946 270.424 140.825 270.078 141.856 270.078C142.853 270.078 143.732 270.384 144.491 270.996L144.083 271.812C143.482 271.404 142.825 271.2 142.111 271.2C141.352 271.2 140.728 271.483 140.241 272.05C139.754 272.617 139.51 273.342 139.51 274.226C139.51 275.087 139.782 275.79 140.326 276.334C140.825 276.821 141.448 277.065 142.196 277.065C142.967 277.065 143.618 276.833 144.151 276.368L144.61 277.218ZM151.622 270.282H153.084V278H151.962L151.843 277.116H151.741C151.48 277.433 151.123 277.694 150.67 277.898C150.228 278.102 149.791 278.204 149.361 278.204C147.559 278.204 146.658 277.105 146.658 274.906V270.282H148.12V274.583C148.12 276.158 148.686 276.946 149.82 276.946C150.148 276.946 150.488 276.861 150.84 276.691C151.191 276.521 151.452 276.317 151.622 276.079V270.282ZM157.133 271.047H157.201C157.733 270.401 158.357 270.078 159.071 270.078C159.977 270.078 160.646 270.429 161.077 271.132L159.853 271.897C159.479 271.523 159.071 271.336 158.629 271.336C158.062 271.336 157.586 271.625 157.201 272.203V278H155.739V270.282H156.997L157.133 271.047ZM168.792 274.634H163.352C163.431 275.382 163.703 275.977 164.168 276.419C164.632 276.85 165.227 277.065 165.953 277.065C166.655 277.065 167.369 276.85 168.095 276.419L168.537 277.252C167.743 277.887 166.803 278.204 165.715 278.204C164.468 278.204 163.476 277.813 162.74 277.031C162.06 276.306 161.72 275.354 161.72 274.175C161.72 272.974 162.088 271.971 162.825 271.166C163.493 270.441 164.315 270.078 165.29 270.078C166.48 270.078 167.392 270.526 168.027 271.421C168.537 272.135 168.792 273.036 168.792 274.124V274.634ZM163.301 273.495H167.296C167.273 272.758 167.086 272.192 166.735 271.795C166.395 271.387 165.93 271.183 165.341 271.183C164.774 271.183 164.304 271.393 163.93 271.812C163.567 272.231 163.357 272.792 163.301 273.495ZM172.391 267.035V278H170.929V267.817L172.391 267.035ZM181.472 270.282L178.157 279.156C177.625 280.55 176.905 281.247 175.998 281.247C175.386 281.247 174.752 281.003 174.094 280.516L174.536 279.768C174.922 279.995 175.256 280.108 175.539 280.108C176.061 280.108 176.474 279.734 176.78 278.986L177.171 278H176.865L173.975 270.282H175.488L177.681 276.402L179.942 270.282H181.472Z" fill="#585858"/>
<path d="M88.6623 210.218C88.3983 210.614 87.9877 211.208 87.4303 212C86.257 211.487 85.2083 211.23 84.2843 211.23C83.067 211.23 82.4583 211.685 82.4583 212.594C82.4583 213.005 82.5977 213.327 82.8763 213.562C83.155 213.797 83.7343 214.083 84.6143 214.42C86.1983 215.036 87.335 215.703 88.0243 216.422C88.7283 217.141 89.0803 218.006 89.0803 219.018C89.0803 220.441 88.545 221.541 87.4743 222.318C86.5943 222.949 85.5017 223.264 84.1963 223.264C82.6563 223.264 81.0137 222.707 79.2683 221.592L80.5443 219.81C81.395 220.382 82.4877 220.668 83.8223 220.668C85.333 220.668 86.0883 220.059 86.0883 218.842C86.0883 218.05 85.2743 217.375 83.6463 216.818C81.021 215.938 79.7083 214.53 79.7083 212.594C79.7083 211.421 80.1483 210.489 81.0283 209.8C81.8497 209.14 82.9423 208.81 84.3063 208.81C85.861 208.81 87.313 209.279 88.6623 210.218ZM94.2532 213.012V223H91.4592V213.012H94.2532ZM91.1292 210.46C91.1292 209.991 91.2906 209.587 91.6132 209.25C91.9506 208.898 92.3466 208.722 92.8012 208.722C93.2852 208.722 93.6959 208.891 94.0332 209.228C94.3852 209.565 94.5612 209.976 94.5612 210.46C94.5612 210.973 94.3926 211.391 94.0552 211.714C93.7326 212.037 93.3146 212.198 92.8012 212.198C92.3172 212.198 91.9139 212.037 91.5912 211.714C91.2832 211.377 91.1292 210.959 91.1292 210.46ZM103.448 221.79C102.788 222.773 101.857 223.264 100.654 223.264C99.1875 223.264 98.0509 222.743 97.2442 221.702C96.5549 220.822 96.2102 219.707 96.2102 218.358C96.2102 216.437 96.7675 214.955 97.8822 213.914C98.7329 213.137 99.7375 212.748 100.896 212.748C101.82 212.748 102.605 212.975 103.25 213.43C103.676 213.723 103.888 213.943 103.888 214.09L104.108 213.012H106.242V221.966C106.242 223.653 105.824 224.951 104.988 225.86C104.167 226.755 102.994 227.202 101.468 227.202C99.8842 227.202 98.5129 226.674 97.3542 225.618L98.0582 224.21C98.9529 224.797 99.9575 225.09 101.072 225.09C102.656 225.09 103.448 223.99 103.448 221.79ZM103.448 216.4C103.39 215.945 103.162 215.557 102.766 215.234C102.385 214.897 101.96 214.728 101.49 214.728C100.757 214.728 100.17 215.021 99.7302 215.608C99.2902 216.195 99.0702 216.987 99.0702 217.984C99.0702 220.169 99.7889 221.262 101.226 221.262C101.828 221.262 102.348 221.035 102.788 220.58C103.228 220.111 103.448 219.561 103.448 218.93V216.4ZM111.913 213.98C112.207 213.643 112.647 213.357 113.233 213.122C113.82 212.873 114.377 212.748 114.905 212.748C116.167 212.748 117.076 213.093 117.633 213.782C118.205 214.471 118.491 215.586 118.491 217.126V223H115.697V217.236C115.697 215.799 115.059 215.08 113.783 215.08C113.461 215.08 113.116 215.153 112.749 215.3C112.383 215.432 112.133 215.586 112.001 215.762V223H109.229V213.012H111.583C111.657 213.393 111.73 213.716 111.803 213.98H111.913ZM134.705 223H132.483L132.263 222.054C131.295 222.861 130.313 223.264 129.315 223.264C127.101 223.264 125.993 222.186 125.993 220.03C125.993 218.959 126.455 218.123 127.379 217.522C128.318 216.906 129.704 216.598 131.537 216.598H131.999V216.554C131.999 215.923 131.867 215.491 131.603 215.256C131.339 215.021 130.863 214.904 130.173 214.904C129.205 214.904 128.318 215.212 127.511 215.828C127.247 215.344 126.998 214.867 126.763 214.398C127.599 213.753 128.325 213.32 128.941 213.1C129.572 212.865 130.32 212.748 131.185 212.748C133.532 212.748 134.705 214.215 134.705 217.148V223ZM131.911 218.292H131.581C130.745 218.292 130.071 218.439 129.557 218.732C129.044 219.025 128.787 219.414 128.787 219.898C128.787 220.807 129.183 221.262 129.975 221.262C130.459 221.262 130.885 221.123 131.251 220.844C131.618 220.565 131.838 220.213 131.911 219.788V218.292ZM140.38 213.98C140.674 213.643 141.114 213.357 141.7 213.122C142.287 212.873 142.844 212.748 143.372 212.748C144.634 212.748 145.543 213.093 146.1 213.782C146.672 214.471 146.958 215.586 146.958 217.126V223H144.164V217.236C144.164 215.799 143.526 215.08 142.25 215.08C141.928 215.08 141.583 215.153 141.216 215.3C140.85 215.432 140.6 215.586 140.468 215.762V223H137.696V213.012H140.05C140.124 213.393 140.197 213.716 140.27 213.98H140.38ZM156.963 223L156.567 221.944C156.332 222.325 155.951 222.641 155.423 222.89C154.895 223.139 154.352 223.264 153.795 223.264C152.226 223.264 151.03 222.743 150.209 221.702C149.52 220.837 149.175 219.722 149.175 218.358C149.175 216.437 149.732 214.955 150.847 213.914C151.683 213.137 152.688 212.748 153.861 212.748C154.873 212.748 155.724 213.027 156.413 213.584V210.394L159.185 208.854V223H156.963ZM156.413 219.194V216.4C156.31 215.916 156.076 215.52 155.709 215.212C155.357 214.889 154.939 214.728 154.455 214.728C153.707 214.728 153.113 215.021 152.673 215.608C152.233 216.195 152.013 216.987 152.013 217.984C152.013 220.169 152.724 221.262 154.147 221.262C154.675 221.262 155.166 221.057 155.621 220.646C156.076 220.221 156.34 219.737 156.413 219.194ZM173.282 215.432C172.563 214.963 171.742 214.728 170.818 214.728C170.114 214.728 169.762 215.029 169.762 215.63C169.762 216.187 170.239 216.583 171.192 216.818C172.38 217.111 173.187 217.441 173.612 217.808C174.228 218.336 174.536 219.128 174.536 220.184C174.536 221.123 174.199 221.871 173.524 222.428C172.864 222.985 171.969 223.264 170.84 223.264C169.241 223.264 167.892 222.809 166.792 221.9L167.804 220.36C168.567 220.961 169.483 221.262 170.554 221.262C170.979 221.262 171.324 221.159 171.588 220.954C171.852 220.749 171.984 220.477 171.984 220.14C171.984 219.524 171.463 219.121 170.422 218.93C168.193 218.505 167.078 217.419 167.078 215.674C167.078 214.838 167.415 214.141 168.09 213.584C168.779 213.027 169.637 212.748 170.664 212.748C172.057 212.748 173.267 213.151 174.294 213.958L173.282 215.432ZM176.862 210.328L179.634 208.81V214.2C179.869 213.745 180.353 213.357 181.086 213.034C181.57 212.829 182.025 212.726 182.45 212.726C183.726 212.726 184.65 213.078 185.222 213.782C185.809 214.471 186.102 215.586 186.102 217.126V223H183.33V217.236C183.33 215.799 182.714 215.08 181.482 215.08C180.588 215.08 179.972 215.329 179.634 215.828V223H176.862V210.328ZM197.031 223H194.809L194.589 222.054C193.621 222.861 192.639 223.264 191.641 223.264C189.427 223.264 188.319 222.186 188.319 220.03C188.319 218.959 188.781 218.123 189.705 217.522C190.644 216.906 192.03 216.598 193.863 216.598H194.325V216.554C194.325 215.923 194.193 215.491 193.929 215.256C193.665 215.021 193.189 214.904 192.499 214.904C191.531 214.904 190.644 215.212 189.837 215.828C189.573 215.344 189.324 214.867 189.089 214.398C189.925 213.753 190.651 213.32 191.267 213.1C191.898 212.865 192.646 212.748 193.511 212.748C195.858 212.748 197.031 214.215 197.031 217.148V223ZM194.237 218.292H193.907C193.071 218.292 192.397 218.439 191.883 218.732C191.37 219.025 191.113 219.414 191.113 219.898C191.113 220.807 191.509 221.262 192.301 221.262C192.785 221.262 193.211 221.123 193.577 220.844C193.944 220.565 194.164 220.213 194.237 219.788V218.292ZM202.376 213.012L202.64 213.892C202.787 213.584 203.066 213.32 203.476 213.1C203.902 212.865 204.334 212.748 204.774 212.748C206.094 212.748 207.077 213.371 207.722 214.618L205.39 215.894C204.906 215.337 204.393 215.058 203.85 215.058C203.352 215.058 202.985 215.315 202.75 215.828V223H200.022V213.012H202.376ZM217.878 218.908H211.014C211.072 219.583 211.344 220.147 211.828 220.602C212.326 221.042 212.913 221.262 213.588 221.262C214.541 221.262 215.538 220.969 216.58 220.382L217.284 221.856C216.228 222.795 214.908 223.264 213.324 223.264C211.622 223.264 210.295 222.78 209.342 221.812C208.432 220.903 207.978 219.649 207.978 218.05C207.978 216.481 208.491 215.183 209.518 214.156C210.442 213.217 211.615 212.748 213.038 212.748C214.622 212.748 215.854 213.283 216.734 214.354C217.496 215.263 217.878 216.444 217.878 217.896V218.908ZM210.86 216.862H215.106C215.032 215.425 214.336 214.706 213.016 214.706C211.74 214.706 211.021 215.425 210.86 216.862Z" fill="#3B3B3B"/>
<path d="M158.061 165.202C157.291 164.433 156.247 164 155.158 164C154.069 164 153.024 164.433 152.254 165.202L141.509 175.946C141.182 176.273 140.953 176.686 140.85 177.137L139.57 182.708C139.539 182.843 139.542 182.985 139.581 183.119C139.619 183.252 139.691 183.374 139.789 183.473C139.888 183.571 140.01 183.643 140.144 183.682C140.277 183.72 140.419 183.724 140.555 183.692L146.126 182.414C146.577 182.311 146.99 182.082 147.317 181.755L156.246 172.826L156.408 172.987C156.639 173.218 156.769 173.531 156.769 173.858C156.769 174.184 156.639 174.498 156.408 174.729L153.753 177.382C153.599 177.536 153.513 177.745 153.513 177.963C153.512 178.181 153.599 178.39 153.753 178.544C153.907 178.698 154.116 178.784 154.334 178.784C154.552 178.785 154.761 178.698 154.915 178.544L157.569 175.891C157.836 175.624 158.048 175.307 158.193 174.958C158.337 174.61 158.412 174.236 158.412 173.858C158.412 173.481 158.337 173.107 158.193 172.758C158.048 172.409 157.836 172.092 157.569 171.825L157.408 171.663L158.061 171.011C158.442 170.63 158.745 170.177 158.951 169.679C159.158 169.18 159.264 168.646 159.264 168.107C159.264 167.567 159.158 167.033 158.951 166.535C158.745 166.037 158.442 165.584 158.061 165.202M144.936 186.914C143.236 186.626 141.86 185.668 141.07 184.838L143.055 184.382C143.638 184.792 144.381 185.154 145.212 185.294C146.473 185.509 148.023 185.231 149.651 183.623C150.563 182.722 151.333 182.021 151.987 181.513C152.628 181.016 153.224 180.652 153.785 180.502C154.406 180.336 155.008 180.432 155.497 180.865C155.916 181.236 156.164 181.785 156.346 182.322L156.373 182.402C156.711 183.407 156.884 183.918 157.057 184.234C157.098 184.319 157.154 184.395 157.224 184.459C157.297 184.512 157.379 184.552 157.467 184.575C157.47 184.577 157.56 184.606 157.831 184.468C158.1 184.33 158.414 184.097 158.802 183.786C158.875 183.728 158.951 183.667 159.029 183.603C159.34 183.352 159.686 183.072 160.032 182.831C160.467 182.529 160.975 182.231 161.53 182.094C161.742 182.042 161.965 182.076 162.152 182.188C162.338 182.301 162.473 182.483 162.525 182.694C162.577 182.906 162.543 183.13 162.431 183.316C162.318 183.503 162.136 183.637 161.924 183.689C161.658 183.755 161.345 183.918 160.972 184.179C160.678 184.384 160.392 184.614 160.086 184.86L159.827 185.069C159.445 185.375 159.014 185.707 158.578 185.931C158.145 186.152 157.566 186.338 156.953 186.136C156.673 186.049 156.412 185.911 156.182 185.729C155.951 185.532 155.759 185.293 155.617 185.025C155.371 184.575 155.153 183.929 154.865 183.071L154.789 182.846C154.627 182.368 154.49 182.167 154.407 182.094L154.403 182.09C154.391 182.076 154.366 182.047 154.208 182.09C153.972 182.152 153.587 182.351 152.994 182.811C152.415 183.26 151.7 183.908 150.805 184.791C148.818 186.755 146.74 187.22 144.936 186.914Z" fill="#E2A52F"/>
<defs>
<filter id="filter0_d_224_6762" x="0.276827" y="47.0807" width="302.319" height="37.4669" filterUnits="userSpaceOnUse" color-interpolation-filters="sRGB">
<feFlood flood-opacity="0" result="BackgroundImageFix"/>
<feColorMatrix in="SourceAlpha" type="matrix" values="0 0 0 0 0 0 0 0 0 0 0 0 0 0 0 0 0 0 127 0" result="hardAlpha"/>
<feOffset dy="-6.4598"/>
<feGaussianBlur stdDeviation="9.136"/>
<feComposite in2="hardAlpha" operator="out"/>
<feColorMatrix type="matrix" values="0 0 0 0 0 0 0 0 0 0 0 0 0 0 0 0 0 0 0.88 0"/>
<feBlend mode="normal" in2="BackgroundImageFix" result="effect1_dropShadow_224_6762"/>
<feBlend mode="normal" in="SourceGraphic" in2="effect1_dropShadow_224_6762" result="shape"/>
</filter>
<filter id="filter1_d_224_6762" x="96.2441" y="19.3857" width="163.563" height="158.958" filterUnits="userSpaceOnUse" color-interpolation-filters="sRGB">
<feFlood flood-opacity="0" result="BackgroundImageFix"/>
<feColorMatrix in="SourceAlpha" type="matrix" values="0 0 0 0 0 0 0 0 0 0 0 0 0 0 0 0 0 0 127 0" result="hardAlpha"/>
<feOffset dx="32.299" dy="27.6849"/>
<feGaussianBlur stdDeviation="11.5354"/>
<feComposite in2="hardAlpha" operator="out"/>
<feColorMatrix type="matrix" values="0 0 0 0 0 0 0 0 0 0 0 0 0 0 0 0 0 0 0.1 0"/>
<feBlend mode="normal" in2="BackgroundImageFix" result="effect1_dropShadow_224_6762"/>
<feBlend mode="normal" in="SourceGraphic" in2="effect1_dropShadow_224_6762" result="shape"/>
</filter>
<linearGradient id="paint0_linear_224_6762" x1="188.538" y1="111.69" x2="112.14" y2="35.2885" gradientUnits="userSpaceOnUse">
<stop stop-color="#EBEAEA"/>
<stop offset="1" stop-color="white"/>
</linearGradient>
</defs>
</svg>
