<svg width="303" height="286" viewBox="0 0 303 286" fill="none" xmlns="http://www.w3.org/2000/svg">
<g filter="url(#filter0_d_224_6777)">
<line x1="18.3242" y1="72.2739" x2="284.099" y2="72.2739" stroke="white" stroke-width="0.922828"/>
</g>
<rect x="18.3242" y="72.7354" width="265.775" height="42.4501" fill="white"/>
<path d="M210.318 73.4914H207.37C207.37 41.9321 181.693 16.2583 150.137 16.2583C118.581 16.2583 92.8833 41.9286 92.8833 73.4914H89.918C89.918 40.2955 116.924 13.2861 150.123 13.2861C183.323 13.2861 210.318 40.2955 210.318 73.4914Z" fill="#75B2CB"/>
<g filter="url(#filter1_d_224_6777)">
<path d="M96.0369 74.8549C96.387 88.7327 102.059 101.945 111.879 111.758C121.698 121.57 134.915 127.232 148.793 127.573C179.484 128.31 204.815 103.086 204.202 72.3913C204.004 62.5418 201.12 52.9333 195.861 44.6026C190.603 36.272 183.169 29.5354 174.363 25.1198C170.611 23.229 166.649 21.7866 162.56 20.8224C158.842 19.9486 155.041 19.4708 151.222 19.3969C120.5 18.7913 95.2619 44.1398 96.0369 74.8549Z" fill="url(#paint0_linear_224_6777)"/>
</g>
<path d="M187.711 109.782C207.836 89.6565 207.902 57.0925 187.858 37.0482C167.813 17.0038 135.249 17.0696 115.124 37.195C94.9985 57.3204 94.9327 89.8844 114.977 109.929C135.021 129.973 167.585 129.907 187.711 109.782Z" fill="#F9F9F9"/>
<path d="M140.037 59.9856C142.747 59.9856 144.943 61.2824 146.626 63.8758C148.027 66.0252 148.728 68.5836 148.728 71.5508C148.728 75.1022 147.841 77.9526 146.065 80.1021C144.476 82.0413 142.467 83.0109 140.037 83.0109C137.21 83.0109 135.014 81.7726 133.448 79.296C132.117 77.2166 131.451 74.6349 131.451 71.5508C131.451 68.093 132.327 65.2542 134.079 63.0347C135.645 61.002 137.63 59.9856 140.037 59.9856ZM140.107 64.1912C137.747 64.1912 136.567 66.5743 136.567 71.3406C136.567 73.7471 136.906 75.6395 137.584 77.018C138.191 78.2563 138.997 78.8755 140.002 78.8755C141.123 78.8755 142 78.2096 142.63 76.8778C143.285 75.5461 143.612 73.7003 143.612 71.3406C143.612 66.5743 142.443 64.1912 140.107 64.1912ZM150.777 74.4246C153.721 69.9154 156.793 65.2426 159.994 60.4062H164.83V74.4246H168.405V78.3498H164.83V82.5903H159.924V78.3498H150.777V74.4246ZM154.982 74.4246H159.924V66.6794C159.363 67.5439 158.662 68.642 157.821 69.9738C156.583 71.913 155.637 73.3966 154.982 74.4246Z" fill="#75B2CB"/>
<path d="M36.9651 258V247.256C37.9624 247.109 38.8804 247.035 39.7191 247.035C42.3257 247.035 43.6291 248.134 43.6291 250.333C43.6291 251.761 43.0397 252.77 41.8611 253.359L44.0031 258H42.4051L40.4671 253.75C40.3197 253.773 40.1044 253.784 39.8211 253.784C39.4244 253.784 38.9994 253.744 38.5461 253.665V258H36.9651ZM38.5461 248.412V252.39C38.9994 252.469 39.4244 252.509 39.8211 252.509C41.2491 252.509 41.9631 251.784 41.9631 250.333C41.9631 248.973 41.2434 248.293 39.8041 248.293C39.2827 248.293 38.8634 248.333 38.5461 248.412ZM52.0721 254.634H46.6321C46.7114 255.382 46.9834 255.977 47.4481 256.419C47.9127 256.85 48.5077 257.065 49.2331 257.065C49.9357 257.065 50.6497 256.85 51.3751 256.419L51.8171 257.252C51.0237 257.887 50.0831 258.204 48.9951 258.204C47.7484 258.204 46.7567 257.813 46.0201 257.031C45.3401 256.306 45.0001 255.354 45.0001 254.175C45.0001 252.974 45.3684 251.971 46.1051 251.166C46.7737 250.441 47.5954 250.078 48.5701 250.078C49.7601 250.078 50.6724 250.526 51.3071 251.421C51.8171 252.135 52.0721 253.036 52.0721 254.124V254.634ZM46.5811 253.495H50.5761C50.5534 252.758 50.3664 252.192 50.0151 251.795C49.6751 251.387 49.2104 251.183 48.6211 251.183C48.0544 251.183 47.5841 251.393 47.2101 251.812C46.8474 252.231 46.6377 252.792 46.5811 253.495ZM59.7513 250.282H60.8903V261.043H59.4283V257.184C58.9183 257.864 58.1873 258.204 57.2353 258.204C56.0906 258.204 55.1896 257.785 54.5323 256.946C53.977 256.243 53.6993 255.359 53.6993 254.294C53.6993 252.889 54.1073 251.801 54.9233 251.03C55.5806 250.395 56.3796 250.078 57.3203 250.078C57.7736 250.078 58.2213 250.18 58.6633 250.384C59.1053 250.577 59.4113 250.809 59.5813 251.081L59.7513 250.282ZM59.4283 255.569V252.509C59.349 252.158 59.1223 251.852 58.7483 251.591C58.3856 251.33 57.9946 251.2 57.5753 251.2C56.884 251.2 56.323 251.472 55.8923 252.016C55.4616 252.56 55.2463 253.263 55.2463 254.124C55.2463 255.11 55.473 255.864 55.9263 256.385C56.323 256.838 56.833 257.065 57.4563 257.065C57.887 257.065 58.2893 256.923 58.6633 256.64C59.0486 256.345 59.3036 255.988 59.4283 255.569ZM68.5034 250.282H69.9654V258H68.8434L68.7244 257.116H68.6224C68.3617 257.433 68.0047 257.694 67.5514 257.898C67.1094 258.102 66.673 258.204 66.2424 258.204C64.4404 258.204 63.5394 257.105 63.5394 254.906V250.282H65.0014V254.583C65.0014 256.158 65.568 256.946 66.7014 256.946C67.03 256.946 67.37 256.861 67.7214 256.691C68.0727 256.521 68.3334 256.317 68.5034 256.079V250.282ZM79.1824 254.634H73.7424C73.8218 255.382 74.0938 255.977 74.5584 256.419C75.0231 256.85 75.6181 257.065 76.3434 257.065C77.0461 257.065 77.7601 256.85 78.4854 256.419L78.9274 257.252C78.1341 257.887 77.1934 258.204 76.1054 258.204C74.8588 258.204 73.8671 257.813 73.1304 257.031C72.4504 256.306 72.1104 255.354 72.1104 254.175C72.1104 252.974 72.4788 251.971 73.2154 251.166C73.8841 250.441 74.7058 250.078 75.6804 250.078C76.8704 250.078 77.7828 250.526 78.4174 251.421C78.9274 252.135 79.1824 253.036 79.1824 254.124V254.634ZM73.6914 253.495H77.6864C77.6638 252.758 77.4768 252.192 77.1254 251.795C76.7854 251.387 76.3208 251.183 75.7314 251.183C75.1648 251.183 74.6944 251.393 74.3204 251.812C73.9578 252.231 73.7481 252.792 73.6914 253.495ZM85.5187 251.676C84.952 251.359 84.3287 251.2 83.6487 251.2C83.2747 251.2 82.9743 251.291 82.7477 251.472C82.521 251.642 82.4077 251.874 82.4077 252.169C82.4077 252.498 82.5097 252.753 82.7137 252.934C82.929 253.104 83.3257 253.268 83.9037 253.427C84.7763 253.676 85.3827 253.943 85.7227 254.226C86.1873 254.623 86.4197 255.184 86.4197 255.909C86.4197 256.6 86.1647 257.156 85.6547 257.575C85.156 257.994 84.493 258.204 83.6657 258.204C82.5663 258.204 81.6143 257.898 80.8097 257.286L81.3197 256.47C81.9543 256.867 82.6627 257.065 83.4447 257.065C84.4873 257.065 85.0087 256.668 85.0087 255.875C85.0087 255.535 84.8953 255.28 84.6687 255.11C84.4533 254.929 84.034 254.759 83.4107 254.6C81.756 254.192 80.9287 253.393 80.9287 252.203C80.9287 251.591 81.1723 251.087 81.6597 250.69C82.1583 250.282 82.7817 250.078 83.5297 250.078C84.4817 250.078 85.3147 250.344 86.0287 250.877L85.5187 251.676ZM90.5639 251.472L90.5469 255.96C90.5469 256.708 90.8303 257.082 91.3969 257.082C91.7936 257.082 92.1846 256.969 92.5699 256.742L93.0799 257.524C92.4566 257.989 91.7823 258.221 91.0569 258.221C89.7423 258.221 89.0849 257.501 89.0849 256.062V251.472H87.9459V250.282H89.1019V248.701L90.5639 247.936V250.282H92.8759V251.472H90.5639ZM104.931 258H103.792L103.622 257.201C103.01 257.87 102.183 258.204 101.14 258.204C100.347 258.204 99.718 257.989 99.2533 257.558C98.8 257.116 98.5733 256.521 98.5733 255.773C98.5733 254.923 98.919 254.271 99.6103 253.818C100.313 253.353 101.305 253.121 102.585 253.121H103.486V253.036C103.486 251.857 102.891 251.268 101.701 251.268C100.942 251.268 100.234 251.512 99.5763 251.999L99.1343 251.217C100.018 250.458 101.033 250.078 102.177 250.078C104.013 250.078 104.931 251.172 104.931 253.359V258ZM103.469 254.107H102.721C100.976 254.107 100.103 254.628 100.103 255.671C100.103 256.102 100.228 256.442 100.477 256.691C100.738 256.94 101.084 257.065 101.514 257.065C101.945 257.065 102.347 256.957 102.721 256.742C103.095 256.515 103.345 256.232 103.469 255.892V254.107ZM112.93 247.035V258H111.468V247.817L112.93 247.035ZM121.433 258H120.294L120.124 257.201C119.512 257.87 118.685 258.204 117.642 258.204C116.849 258.204 116.22 257.989 115.755 257.558C115.302 257.116 115.075 256.521 115.075 255.773C115.075 254.923 115.421 254.271 116.112 253.818C116.815 253.353 117.807 253.121 119.087 253.121H119.988V253.036C119.988 251.857 119.393 251.268 118.203 251.268C117.444 251.268 116.736 251.512 116.078 251.999L115.636 251.217C116.52 250.458 117.535 250.078 118.679 250.078C120.515 250.078 121.433 251.172 121.433 253.359V258ZM119.971 254.107H119.223C117.478 254.107 116.605 254.628 116.605 255.671C116.605 256.102 116.73 256.442 116.979 256.691C117.24 256.94 117.586 257.065 118.016 257.065C118.447 257.065 118.849 256.957 119.223 256.742C119.597 256.515 119.847 256.232 119.971 255.892V254.107ZM126.794 258H125.349L122.765 250.282H124.295L126.063 256.249L127.678 250.282H129.276L130.823 256.249L132.608 250.282H134.155L131.52 258H130.075L128.46 252.135L126.794 258ZM142.332 250.282L139.017 259.156C138.484 260.55 137.764 261.247 136.858 261.247C136.246 261.247 135.611 261.003 134.954 260.516L135.396 259.768C135.781 259.995 136.115 260.108 136.399 260.108C136.92 260.108 137.334 259.734 137.64 258.986L138.031 258H137.725L134.835 250.282H136.348L138.541 256.402L140.802 250.282H142.332ZM150.304 254.634H144.864C144.943 255.382 145.215 255.977 145.68 256.419C146.144 256.85 146.739 257.065 147.465 257.065C148.167 257.065 148.881 256.85 149.607 256.419L150.049 257.252C149.255 257.887 148.315 258.204 147.227 258.204C145.98 258.204 144.988 257.813 144.252 257.031C143.572 256.306 143.232 255.354 143.232 254.175C143.232 252.974 143.6 251.971 144.337 251.166C145.005 250.441 145.827 250.078 146.802 250.078C147.992 250.078 148.904 250.526 149.539 251.421C150.049 252.135 150.304 253.036 150.304 254.124V254.634ZM144.813 253.495H148.808C148.785 252.758 148.598 252.192 148.247 251.795C147.907 251.387 147.442 251.183 146.853 251.183C146.286 251.183 145.816 251.393 145.442 251.812C145.079 252.231 144.869 252.792 144.813 253.495ZM153.835 251.047H153.903C154.435 250.401 155.059 250.078 155.773 250.078C156.679 250.078 157.348 250.429 157.779 251.132L156.555 251.897C156.181 251.523 155.773 251.336 155.331 251.336C154.764 251.336 154.288 251.625 153.903 252.203V258H152.441V250.282H153.699L153.835 251.047ZM165.337 251.472L165.32 255.96C165.32 256.708 165.604 257.082 166.17 257.082C166.567 257.082 166.958 256.969 167.343 256.742L167.853 257.524C167.23 257.989 166.556 258.221 165.83 258.221C164.516 258.221 163.858 257.501 163.858 256.062V251.472H162.719V250.282H163.875V248.701L165.337 247.936V250.282H167.649V251.472H165.337ZM172.987 258.204C171.82 258.204 170.873 257.768 170.148 256.895C169.525 256.147 169.213 255.235 169.213 254.158C169.213 252.911 169.593 251.903 170.352 251.132C171.032 250.429 171.905 250.078 172.97 250.078C174.194 250.078 175.157 250.526 175.86 251.421C176.438 252.169 176.727 253.081 176.727 254.158C176.727 255.393 176.33 256.402 175.537 257.184C174.834 257.864 173.984 258.204 172.987 258.204ZM172.953 257.048C173.633 257.048 174.171 256.787 174.568 256.266C174.976 255.745 175.18 255.042 175.18 254.158C175.18 253.24 174.965 252.509 174.534 251.965C174.137 251.455 173.616 251.2 172.97 251.2C172.313 251.2 171.78 251.472 171.372 252.016C170.964 252.56 170.76 253.274 170.76 254.158C170.76 255.11 170.987 255.847 171.44 256.368C171.837 256.821 172.341 257.048 172.953 257.048ZM184.232 251.047H184.3C184.833 250.401 185.456 250.078 186.17 250.078C187.077 250.078 187.746 250.429 188.176 251.132L186.952 251.897C186.578 251.523 186.17 251.336 185.728 251.336C185.162 251.336 184.686 251.625 184.3 252.203V258H182.838V250.282H184.096L184.232 251.047ZM195.891 254.634H190.451C190.531 255.382 190.803 255.977 191.267 256.419C191.732 256.85 192.327 257.065 193.052 257.065C193.755 257.065 194.469 256.85 195.194 256.419L195.636 257.252C194.843 257.887 193.902 258.204 192.814 258.204C191.568 258.204 190.576 257.813 189.839 257.031C189.159 256.306 188.819 255.354 188.819 254.175C188.819 252.974 189.188 251.971 189.924 251.166C190.593 250.441 191.415 250.078 192.389 250.078C193.579 250.078 194.492 250.526 195.126 251.421C195.636 252.135 195.891 253.036 195.891 254.124V254.634ZM190.4 253.495H194.395C194.373 252.758 194.186 252.192 193.834 251.795C193.494 251.387 193.03 251.183 192.44 251.183C191.874 251.183 191.403 251.393 191.029 251.812C190.667 252.231 190.457 252.792 190.4 253.495ZM201.225 258H199.899L196.958 250.282H198.488L200.562 256.232L202.653 250.282H204.217L201.225 258ZM207.294 250.282V258H205.832V250.282H207.294ZM205.713 247.902C205.713 247.664 205.798 247.46 205.968 247.29C206.138 247.12 206.342 247.035 206.58 247.035C206.818 247.035 207.022 247.12 207.192 247.29C207.374 247.46 207.464 247.664 207.464 247.902C207.464 248.151 207.379 248.361 207.209 248.531C207.039 248.701 206.83 248.786 206.58 248.786C206.331 248.786 206.121 248.701 205.951 248.531C205.793 248.361 205.713 248.151 205.713 247.902ZM216.544 254.634H211.104C211.183 255.382 211.455 255.977 211.92 256.419C212.384 256.85 212.979 257.065 213.705 257.065C214.407 257.065 215.121 256.85 215.847 256.419L216.289 257.252C215.495 257.887 214.555 258.204 213.467 258.204C212.22 258.204 211.228 257.813 210.492 257.031C209.812 256.306 209.472 255.354 209.472 254.175C209.472 252.974 209.84 251.971 210.577 251.166C211.245 250.441 212.067 250.078 213.042 250.078C214.232 250.078 215.144 250.526 215.779 251.421C216.289 252.135 216.544 253.036 216.544 254.124V254.634ZM211.053 253.495H215.048C215.025 252.758 214.838 252.192 214.487 251.795C214.147 251.387 213.682 251.183 213.093 251.183C212.526 251.183 212.056 251.393 211.682 251.812C211.319 252.231 211.109 252.792 211.053 253.495ZM221.639 258H220.194L217.61 250.282H219.14L220.908 256.249L222.523 250.282H224.121L225.668 256.249L227.453 250.282H229L226.365 258H224.92L223.305 252.135L221.639 258ZM240.978 250.282L237.663 259.156C237.13 260.55 236.411 261.247 235.504 261.247C234.892 261.247 234.257 261.003 233.6 260.516L234.042 259.768C234.427 259.995 234.762 260.108 235.045 260.108C235.566 260.108 235.98 259.734 236.286 258.986L236.677 258H236.371L233.481 250.282H234.994L237.187 256.402L239.448 250.282H240.978ZM245.652 258.204C244.485 258.204 243.538 257.768 242.813 256.895C242.19 256.147 241.878 255.235 241.878 254.158C241.878 252.911 242.258 251.903 243.017 251.132C243.697 250.429 244.57 250.078 245.635 250.078C246.859 250.078 247.822 250.526 248.525 251.421C249.103 252.169 249.392 253.081 249.392 254.158C249.392 255.393 248.995 256.402 248.202 257.184C247.499 257.864 246.649 258.204 245.652 258.204ZM245.618 257.048C246.298 257.048 246.836 256.787 247.233 256.266C247.641 255.745 247.845 255.042 247.845 254.158C247.845 253.24 247.63 252.509 247.199 251.965C246.802 251.455 246.281 251.2 245.635 251.2C244.978 251.2 244.445 251.472 244.037 252.016C243.629 252.56 243.425 253.274 243.425 254.158C243.425 255.11 243.652 255.847 244.105 256.368C244.502 256.821 245.006 257.048 245.618 257.048ZM256.499 250.282H257.961V258H256.839L256.72 257.116H256.618C256.358 257.433 256.001 257.694 255.547 257.898C255.105 258.102 254.669 258.204 254.238 258.204C252.436 258.204 251.535 257.105 251.535 254.906V250.282H252.997V254.583C252.997 256.158 253.564 256.946 254.697 256.946C255.026 256.946 255.366 256.861 255.717 256.691C256.069 256.521 256.329 256.317 256.499 256.079V250.282ZM262.011 251.047H262.079C262.611 250.401 263.235 250.078 263.949 250.078C264.855 250.078 265.524 250.429 265.955 251.132L264.731 251.897C264.357 251.523 263.949 251.336 263.507 251.336C262.94 251.336 262.464 251.625 262.079 252.203V258H260.617V250.282H261.875L262.011 251.047ZM126.919 277.218C126.261 277.875 125.377 278.204 124.267 278.204C122.997 278.204 121.989 277.785 121.241 276.946C120.595 276.209 120.272 275.286 120.272 274.175C120.272 272.928 120.691 271.908 121.53 271.115C122.255 270.424 123.133 270.078 124.165 270.078C125.162 270.078 126.04 270.384 126.8 270.996L126.392 271.812C125.791 271.404 125.134 271.2 124.42 271.2C123.66 271.2 123.037 271.483 122.55 272.05C122.062 272.617 121.819 273.342 121.819 274.226C121.819 275.087 122.091 275.79 122.635 276.334C123.133 276.821 123.757 277.065 124.505 277.065C125.275 277.065 125.927 276.833 126.46 276.368L126.919 277.218ZM132.23 278.204C131.063 278.204 130.116 277.768 129.391 276.895C128.768 276.147 128.456 275.235 128.456 274.158C128.456 272.911 128.836 271.903 129.595 271.132C130.275 270.429 131.148 270.078 132.213 270.078C133.437 270.078 134.4 270.526 135.103 271.421C135.681 272.169 135.97 273.081 135.97 274.158C135.97 275.393 135.573 276.402 134.78 277.184C134.077 277.864 133.227 278.204 132.23 278.204ZM132.196 277.048C132.876 277.048 133.414 276.787 133.811 276.266C134.219 275.745 134.423 275.042 134.423 274.158C134.423 273.24 134.208 272.509 133.777 271.965C133.38 271.455 132.859 271.2 132.213 271.2C131.556 271.2 131.023 271.472 130.615 272.016C130.207 272.56 130.003 273.274 130.003 274.158C130.003 275.11 130.23 275.847 130.683 276.368C131.08 276.821 131.584 277.048 132.196 277.048ZM139.474 271.047H139.559C140.137 270.401 140.941 270.078 141.973 270.078C143.865 270.078 144.812 271.189 144.812 273.41V278H143.35V273.495C143.35 272.056 142.715 271.336 141.446 271.336C141.094 271.336 140.737 271.421 140.375 271.591C140.012 271.761 139.746 271.965 139.576 272.203V278H138.114V270.282H139.338L139.474 271.047ZM149.217 271.472L149.2 275.96C149.2 276.708 149.484 277.082 150.05 277.082C150.447 277.082 150.838 276.969 151.223 276.742L151.733 277.524C151.11 277.989 150.436 278.221 149.71 278.221C148.396 278.221 147.738 277.501 147.738 276.062V271.472H146.599V270.282H147.755V268.701L149.217 267.936V270.282H151.529V271.472H149.217ZM155.163 271.047H155.231C155.764 270.401 156.387 270.078 157.101 270.078C158.008 270.078 158.676 270.429 159.107 271.132L157.883 271.897C157.509 271.523 157.101 271.336 156.659 271.336C156.092 271.336 155.616 271.625 155.231 272.203V278H153.769V270.282H155.027L155.163 271.047ZM166.208 278H165.069L164.899 277.201C164.287 277.87 163.459 278.204 162.417 278.204C161.623 278.204 160.994 277.989 160.53 277.558C160.076 277.116 159.85 276.521 159.85 275.773C159.85 274.923 160.195 274.271 160.887 273.818C161.589 273.353 162.581 273.121 163.862 273.121H164.763V273.036C164.763 271.857 164.168 271.268 162.978 271.268C162.218 271.268 161.51 271.512 160.853 271.999L160.411 271.217C161.295 270.458 162.309 270.078 163.454 270.078C165.29 270.078 166.208 271.172 166.208 273.359V278ZM164.746 274.107H163.998C162.252 274.107 161.38 274.628 161.38 275.671C161.38 276.102 161.504 276.442 161.754 276.691C162.014 276.94 162.36 277.065 162.791 277.065C163.221 277.065 163.624 276.957 163.998 276.742C164.372 276.515 164.621 276.232 164.746 275.892V274.107ZM174.914 277.218C174.256 277.875 173.372 278.204 172.262 278.204C170.992 278.204 169.984 277.785 169.236 276.946C168.59 276.209 168.267 275.286 168.267 274.175C168.267 272.928 168.686 271.908 169.525 271.115C170.25 270.424 171.128 270.078 172.16 270.078C173.157 270.078 174.035 270.384 174.795 270.996L174.387 271.812C173.786 271.404 173.129 271.2 172.415 271.2C171.655 271.2 171.032 271.483 170.545 272.05C170.057 272.617 169.814 273.342 169.814 274.226C169.814 275.087 170.086 275.79 170.63 276.334C171.128 276.821 171.752 277.065 172.5 277.065C173.27 277.065 173.922 276.833 174.455 276.368L174.914 277.218ZM178.967 271.472L178.95 275.96C178.95 276.708 179.234 277.082 179.8 277.082C180.197 277.082 180.588 276.969 180.973 276.742L181.483 277.524C180.86 277.989 180.186 278.221 179.46 278.221C178.146 278.221 177.488 277.501 177.488 276.062V271.472H176.349V270.282H177.505V268.701L178.967 267.936V270.282H181.279V271.472H178.967Z" fill="#585858"/>
<path d="M53.8991 212.81C56.0404 212.81 57.6904 213.661 58.8491 215.362C59.7584 216.697 60.2131 218.31 60.2131 220.202C60.2131 222.373 59.6191 224.111 58.4311 225.416C57.3017 226.648 55.7911 227.264 53.8991 227.264C51.7284 227.264 50.0784 226.472 48.9491 224.888C48.0397 223.641 47.5851 222.079 47.5851 220.202C47.5851 218.002 48.1791 216.205 49.3671 214.812C50.4964 213.477 52.0071 212.81 53.8991 212.81ZM53.8991 224.844C54.9551 224.844 55.7691 224.448 56.3411 223.656C56.9131 222.849 57.1991 221.698 57.1991 220.202C57.1991 218.603 56.8837 217.357 56.2531 216.462C55.6664 215.67 54.8817 215.274 53.8991 215.274C52.8431 215.274 52.0217 215.707 51.4351 216.572C50.8631 217.437 50.5771 218.647 50.5771 220.202C50.5771 223.297 51.6844 224.844 53.8991 224.844ZM64.6856 217.012L64.9496 217.958C65.5656 217.151 66.4309 216.748 67.5456 216.748C69.1149 216.748 70.3396 217.276 71.2196 218.332C71.9676 219.241 72.3416 220.4 72.3416 221.808C72.3416 223.656 71.7843 225.079 70.6696 226.076C69.7896 226.868 68.7116 227.264 67.4356 227.264C67.0543 227.264 66.6509 227.183 66.2256 227.022C65.8003 226.861 65.4996 226.677 65.3236 226.472V230.916H62.5956V217.012H64.6856ZM65.3236 220.906V223.458C65.3236 223.971 65.4996 224.411 65.8516 224.778C66.2183 225.145 66.6436 225.328 67.1276 225.328C67.7876 225.328 68.3376 225.013 68.7776 224.382C69.2176 223.751 69.4376 222.967 69.4376 222.028C69.4376 221.031 69.2396 220.239 68.8436 219.652C68.4623 219.051 67.9416 218.75 67.2816 218.75C66.7683 218.75 66.3136 218.97 65.9176 219.41C65.5216 219.835 65.3236 220.334 65.3236 220.906ZM80.9178 219.234H78.0578V224.184C78.0578 224.917 78.2998 225.284 78.7838 225.284C79.2238 225.284 79.7738 225.093 80.4338 224.712L81.3578 226.12C80.3165 226.941 79.1652 227.352 77.9038 227.352C76.1438 227.352 75.2638 226.384 75.2638 224.448V219.234H73.8778V217.012H75.2858V215.23C76.0192 214.834 76.9505 214.343 78.0798 213.756V217.012H80.9178V219.234ZM86.098 217.012V227H83.304V217.012H86.098ZM82.974 214.46C82.974 213.991 83.1353 213.587 83.458 213.25C83.7953 212.898 84.1913 212.722 84.646 212.722C85.13 212.722 85.5406 212.891 85.878 213.228C86.23 213.565 86.406 213.976 86.406 214.46C86.406 214.973 86.2373 215.391 85.9 215.714C85.5773 216.037 85.1593 216.198 84.646 216.198C84.162 216.198 83.7586 216.037 83.436 215.714C83.128 215.377 82.974 214.959 82.974 214.46ZM93.2689 216.748C94.9116 216.748 96.1876 217.327 97.0969 218.486C97.8596 219.454 98.2409 220.635 98.2409 222.028C98.2409 223.656 97.6763 224.976 96.5469 225.988C95.6083 226.839 94.5156 227.264 93.2689 227.264C91.8169 227.264 90.5996 226.721 89.6169 225.636C88.7369 224.653 88.2969 223.451 88.2969 222.028C88.2969 220.415 88.7883 219.109 89.7709 218.112C90.6656 217.203 91.8316 216.748 93.2689 216.748ZM93.2689 225.196C94.6916 225.196 95.4029 224.14 95.4029 222.028C95.4029 219.828 94.6916 218.728 93.2689 218.728C91.8463 218.728 91.1349 219.828 91.1349 222.028C91.1349 224.14 91.8463 225.196 93.2689 225.196ZM103.264 217.98C103.557 217.643 103.997 217.357 104.584 217.122C105.171 216.873 105.728 216.748 106.256 216.748C107.517 216.748 108.427 217.093 108.984 217.782C109.556 218.471 109.842 219.586 109.842 221.126V227H107.048V221.236C107.048 219.799 106.41 219.08 105.134 219.08C104.811 219.08 104.467 219.153 104.1 219.3C103.733 219.432 103.484 219.586 103.352 219.762V227H100.58V217.012H102.934C103.007 217.393 103.081 217.716 103.154 217.98H103.264ZM120.771 227H118.549L118.329 226.054C117.361 226.861 116.378 227.264 115.381 227.264C113.166 227.264 112.059 226.186 112.059 224.03C112.059 222.959 112.521 222.123 113.445 221.522C114.383 220.906 115.769 220.598 117.603 220.598H118.065V220.554C118.065 219.923 117.933 219.491 117.669 219.256C117.405 219.021 116.928 218.904 116.239 218.904C115.271 218.904 114.383 219.212 113.577 219.828C113.313 219.344 113.063 218.867 112.829 218.398C113.665 217.753 114.391 217.32 115.007 217.1C115.637 216.865 116.385 216.748 117.251 216.748C119.597 216.748 120.771 218.215 120.771 221.148V227ZM117.977 222.292H117.647C116.811 222.292 116.136 222.439 115.623 222.732C115.109 223.025 114.853 223.414 114.853 223.898C114.853 224.807 115.249 225.262 116.041 225.262C116.525 225.262 116.95 225.123 117.317 224.844C117.683 224.565 117.903 224.213 117.977 223.788V222.292ZM126.534 212.81V227H123.762V214.262L126.534 212.81ZM145.013 225.438C143.795 226.655 142.365 227.264 140.723 227.264C138.361 227.264 136.601 226.384 135.443 224.624C134.607 223.363 134.189 221.881 134.189 220.18C134.189 217.965 134.761 216.183 135.905 214.834C137.034 213.485 138.603 212.81 140.613 212.81C142.021 212.81 143.429 213.404 144.837 214.592L143.715 216.418C142.659 215.655 141.698 215.274 140.833 215.274C139.63 215.274 138.699 215.78 138.039 216.792C137.467 217.657 137.181 218.787 137.181 220.18C137.181 221.412 137.518 222.468 138.193 223.348C138.911 224.272 139.872 224.734 141.075 224.734C141.867 224.734 142.805 224.389 143.891 223.7L145.013 225.438ZM151.148 216.748C152.791 216.748 154.067 217.327 154.976 218.486C155.739 219.454 156.12 220.635 156.12 222.028C156.12 223.656 155.555 224.976 154.426 225.988C153.487 226.839 152.395 227.264 151.148 227.264C149.696 227.264 148.479 226.721 147.496 225.636C146.616 224.653 146.176 223.451 146.176 222.028C146.176 220.415 146.667 219.109 147.65 218.112C148.545 217.203 149.711 216.748 151.148 216.748ZM151.148 225.196C152.571 225.196 153.282 224.14 153.282 222.028C153.282 219.828 152.571 218.728 151.148 218.728C149.725 218.728 149.014 219.828 149.014 222.028C149.014 224.14 149.725 225.196 151.148 225.196ZM161.143 217.98C161.436 217.643 161.876 217.357 162.463 217.122C163.05 216.873 163.607 216.748 164.135 216.748C165.396 216.748 166.306 217.093 166.863 217.782C167.435 218.471 167.721 219.586 167.721 221.126V227H164.927V221.236C164.927 219.799 164.289 219.08 163.013 219.08C162.69 219.08 162.346 219.153 161.979 219.3C161.612 219.432 161.363 219.586 161.231 219.762V227H158.459V217.012H160.813C160.886 217.393 160.96 217.716 161.033 217.98H161.143ZM176.428 219.432C175.709 218.963 174.888 218.728 173.964 218.728C173.26 218.728 172.908 219.029 172.908 219.63C172.908 220.187 173.384 220.583 174.338 220.818C175.526 221.111 176.332 221.441 176.758 221.808C177.374 222.336 177.682 223.128 177.682 224.184C177.682 225.123 177.344 225.871 176.67 226.428C176.01 226.985 175.115 227.264 173.986 227.264C172.387 227.264 171.038 226.809 169.938 225.9L170.95 224.36C171.712 224.961 172.629 225.262 173.7 225.262C174.125 225.262 174.47 225.159 174.734 224.954C174.998 224.749 175.13 224.477 175.13 224.14C175.13 223.524 174.609 223.121 173.568 222.93C171.338 222.505 170.224 221.419 170.224 219.674C170.224 218.838 170.561 218.141 171.236 217.584C171.925 217.027 172.783 216.748 173.81 216.748C175.203 216.748 176.413 217.151 177.44 217.958L176.428 219.432ZM186.52 225.856C185.786 226.795 184.782 227.264 183.506 227.264C182.244 227.264 181.342 226.941 180.8 226.296C180.272 225.636 180.008 224.536 180.008 222.996V217.012H182.736V222.27C182.736 223.267 182.868 223.971 183.132 224.382C183.396 224.778 183.85 224.976 184.496 224.976C184.774 224.976 185.09 224.903 185.442 224.756C185.794 224.609 186.006 224.455 186.08 224.294V217.012H188.852V227H186.784L186.542 225.856H186.52ZM194.618 212.81V227H191.846V214.262L194.618 212.81ZM203.851 219.234H200.991V224.184C200.991 224.917 201.233 225.284 201.717 225.284C202.157 225.284 202.707 225.093 203.367 224.712L204.291 226.12C203.25 226.941 202.099 227.352 200.837 227.352C199.077 227.352 198.197 226.384 198.197 224.448V219.234H196.811V217.012H198.219V215.23C198.953 214.834 199.884 214.343 201.013 213.756V217.012H203.851V219.234ZM214.4 227H212.178L211.958 226.054C210.99 226.861 210.007 227.264 209.01 227.264C206.795 227.264 205.688 226.186 205.688 224.03C205.688 222.959 206.15 222.123 207.074 221.522C208.012 220.906 209.398 220.598 211.232 220.598H211.694V220.554C211.694 219.923 211.562 219.491 211.298 219.256C211.034 219.021 210.557 218.904 209.868 218.904C208.9 218.904 208.012 219.212 207.206 219.828C206.942 219.344 206.692 218.867 206.458 218.398C207.294 217.753 208.02 217.32 208.636 217.1C209.266 216.865 210.014 216.748 210.88 216.748C213.226 216.748 214.4 218.215 214.4 221.148V227ZM211.606 222.292H211.276C210.44 222.292 209.765 222.439 209.252 222.732C208.738 223.025 208.482 223.414 208.482 223.898C208.482 224.807 208.878 225.262 209.67 225.262C210.154 225.262 210.579 225.123 210.946 224.844C211.312 224.565 211.532 224.213 211.606 223.788V222.292ZM223.639 219.234H220.779V224.184C220.779 224.917 221.021 225.284 221.505 225.284C221.945 225.284 222.495 225.093 223.155 224.712L224.079 226.12C223.037 226.941 221.886 227.352 220.625 227.352C218.865 227.352 217.985 226.384 217.985 224.448V219.234H216.599V217.012H218.007V215.23C218.74 214.834 219.671 214.343 220.801 213.756V217.012H223.639V219.234ZM228.819 217.012V227H226.025V217.012H228.819ZM225.695 214.46C225.695 213.991 225.856 213.587 226.179 213.25C226.516 212.898 226.912 212.722 227.367 212.722C227.851 212.722 228.261 212.891 228.599 213.228C228.951 213.565 229.127 213.976 229.127 214.46C229.127 214.973 228.958 215.391 228.621 215.714C228.298 216.037 227.88 216.198 227.367 216.198C226.883 216.198 226.479 216.037 226.157 215.714C225.849 215.377 225.695 214.959 225.695 214.46ZM235.99 216.748C237.632 216.748 238.908 217.327 239.818 218.486C240.58 219.454 240.962 220.635 240.962 222.028C240.962 223.656 240.397 224.976 239.268 225.988C238.329 226.839 237.236 227.264 235.99 227.264C234.538 227.264 233.32 226.721 232.338 225.636C231.458 224.653 231.018 223.451 231.018 222.028C231.018 220.415 231.509 219.109 232.492 218.112C233.386 217.203 234.552 216.748 235.99 216.748ZM235.99 225.196C237.412 225.196 238.124 224.14 238.124 222.028C238.124 219.828 237.412 218.728 235.99 218.728C234.567 218.728 233.856 219.828 233.856 222.028C233.856 224.14 234.567 225.196 235.99 225.196ZM245.985 217.98C246.278 217.643 246.718 217.357 247.305 217.122C247.891 216.873 248.449 216.748 248.977 216.748C250.238 216.748 251.147 217.093 251.705 217.782C252.277 218.471 252.563 219.586 252.563 221.126V227H249.769V221.236C249.769 219.799 249.131 219.08 247.855 219.08C247.532 219.08 247.187 219.153 246.821 219.3C246.454 219.432 246.205 219.586 246.073 219.762V227H243.301V217.012H245.655C245.728 217.393 245.801 217.716 245.875 217.98H245.985Z" fill="#3B3B3B"/>
<path d="M163.324 182.219V182.583C163.324 183.898 162.152 184.941 160.795 184.721C159.729 184.547 158.991 183.547 158.991 182.468V182.219L159.916 179.598L157.908 179.221V185.834H160.074C160.672 185.834 161.158 186.319 161.158 186.918C161.158 187.517 160.672 188.001 160.074 188.001H153.574C152.976 188.001 152.491 187.517 152.491 186.918C152.491 186.319 152.976 185.834 153.574 185.834H155.741V178.814L153.843 178.459L154.776 181.066V181.688H154.762C154.622 182.947 153.433 183.89 152.09 183.62C151.039 183.41 150.324 182.415 150.324 181.344V181.08L151.473 177.419C151.744 176.551 152.622 176.024 153.516 176.189L155.741 176.602V176.082C155.741 175.483 156.226 174.999 156.824 174.999C157.422 174.999 157.908 175.483 157.908 176.082V177.004L160.518 177.488C161.25 177.624 161.854 178.137 162.105 178.837L163.323 182.218L163.324 182.219ZM147.074 175C150.659 175 153.574 172.085 153.574 168.5C153.574 164.915 150.659 162 147.074 162C143.489 162 140.574 164.915 140.574 168.5C140.574 172.085 143.489 175 147.074 175ZM148.158 181.343V180.747L149.202 177.418C148.515 177.263 147.807 177.167 147.074 177.167C141.704 177.167 137.334 181.53 137.324 186.898C137.323 187.502 137.804 188 138.408 188H150.524C150.402 187.66 150.324 187.298 150.324 186.917C150.324 186.372 150.472 185.866 150.71 185.414C149.191 184.701 148.158 183.13 148.158 181.343Z" fill="#75B2CB"/>
<defs>
<filter id="filter0_d_224_6777" x="0.0522175" y="47.0807" width="302.319" height="37.4669" filterUnits="userSpaceOnUse" color-interpolation-filters="sRGB">
<feFlood flood-opacity="0" result="BackgroundImageFix"/>
<feColorMatrix in="SourceAlpha" type="matrix" values="0 0 0 0 0 0 0 0 0 0 0 0 0 0 0 0 0 0 127 0" result="hardAlpha"/>
<feOffset dy="-6.4598"/>
<feGaussianBlur stdDeviation="9.136"/>
<feComposite in2="hardAlpha" operator="out"/>
<feColorMatrix type="matrix" values="0 0 0 0 0 0 0 0 0 0 0 0 0 0 0 0 0 0 0.88 0"/>
<feBlend mode="normal" in2="BackgroundImageFix" result="effect1_dropShadow_224_6777"/>
<feBlend mode="normal" in="SourceGraphic" in2="effect1_dropShadow_224_6777" result="shape"/>
</filter>
<filter id="filter1_d_224_6777" x="96.0195" y="19.3862" width="163.563" height="158.958" filterUnits="userSpaceOnUse" color-interpolation-filters="sRGB">
<feFlood flood-opacity="0" result="BackgroundImageFix"/>
<feColorMatrix in="SourceAlpha" type="matrix" values="0 0 0 0 0 0 0 0 0 0 0 0 0 0 0 0 0 0 127 0" result="hardAlpha"/>
<feOffset dx="32.299" dy="27.6849"/>
<feGaussianBlur stdDeviation="11.5354"/>
<feComposite in2="hardAlpha" operator="out"/>
<feColorMatrix type="matrix" values="0 0 0 0 0 0 0 0 0 0 0 0 0 0 0 0 0 0 0.1 0"/>
<feBlend mode="normal" in2="BackgroundImageFix" result="effect1_dropShadow_224_6777"/>
<feBlend mode="normal" in="SourceGraphic" in2="effect1_dropShadow_224_6777" result="shape"/>
</filter>
<linearGradient id="paint0_linear_224_6777" x1="188.314" y1="111.691" x2="111.915" y2="35.289" gradientUnits="userSpaceOnUse">
<stop stop-color="#EBEAEA"/>
<stop offset="1" stop-color="white"/>
</linearGradient>
</defs>
</svg>
