<svg width="304" height="266" viewBox="0 0 304 266" fill="none" xmlns="http://www.w3.org/2000/svg">
<g filter="url(#filter0_d_224_3390)">
<line x1="19" y1="72.2743" x2="284.775" y2="72.2743" stroke="white" stroke-width="0.922828"/>
</g>
<rect x="19" y="72.7357" width="265.775" height="42.4501" fill="white"/>
<path d="M210.994 73.4915H208.046C208.046 41.9321 182.369 16.2584 150.813 16.2584C119.257 16.2584 93.559 41.9287 93.559 73.4915H90.5938C90.5938 40.2955 117.6 13.2862 150.799 13.2862C183.998 13.2862 210.994 40.2955 210.994 73.4915Z" fill="#E2A52F"/>
<g filter="url(#filter1_d_224_3390)">
<path d="M96.7127 74.8548C97.0628 88.7327 102.735 101.945 112.554 111.758C122.374 121.57 135.59 127.232 149.468 127.573C180.159 128.31 205.49 103.086 204.878 72.3913C204.68 62.5417 201.796 52.9332 196.537 44.6026C191.279 36.2719 183.845 29.5354 175.038 25.1198C171.287 23.2289 167.325 21.7865 163.236 20.8223C159.517 19.9486 155.717 19.4707 151.897 19.3968C121.175 18.7913 95.9376 44.1398 96.7127 74.8548Z" fill="url(#paint0_linear_224_3390)"/>
</g>
<path d="M187.41 109.782C207.535 89.6569 207.601 57.0929 187.557 37.0485C167.512 17.0042 134.948 17.0699 114.823 37.1954C94.6977 57.3208 94.6319 89.8848 114.676 109.929C134.721 129.973 167.285 129.908 187.41 109.782Z" fill="#F9F9F9"/>
<path d="M142.16 59.9859C144.87 59.9859 147.066 61.2826 148.749 63.876C150.151 66.0255 150.851 68.5839 150.851 71.5511C150.851 75.1024 149.964 77.9528 148.188 80.1023C146.599 82.0415 144.59 83.0111 142.16 83.0111C139.333 83.0111 137.137 81.7728 135.571 79.2963C134.24 77.2169 133.574 74.6351 133.574 71.5511C133.574 68.0932 134.45 65.2545 136.202 63.0349C137.768 61.0022 139.754 59.9859 142.16 59.9859ZM142.23 64.1914C139.87 64.1914 138.69 66.5745 138.69 71.3408C138.69 73.7473 139.029 75.6398 139.707 77.0183C140.314 78.2566 141.12 78.8757 142.125 78.8757C143.246 78.8757 144.123 78.2098 144.753 76.8781C145.408 75.5463 145.735 73.7006 145.735 71.3408C145.735 66.5745 144.567 64.1914 142.23 64.1914ZM156.405 72.8127V68.8175H159.839H160.119C160.937 68.8175 161.498 68.6539 161.802 68.3268C162.129 67.9998 162.292 67.404 162.292 66.5395C162.292 65.7919 162.082 65.1961 161.661 64.7522C161.241 64.3082 160.68 64.0863 159.979 64.0863C158.531 64.0863 157.047 64.7638 155.528 66.1189L153.741 62.9298C155.704 60.9672 157.935 59.9859 160.435 59.9859C162.491 59.9859 164.185 60.57 165.517 61.7382C166.802 62.8363 167.444 64.2966 167.444 66.1189C167.444 67.2871 167.257 68.1867 166.883 68.8175C166.51 69.4483 165.844 69.9857 164.886 70.4296C167.129 71.3642 168.25 73.0931 168.25 75.6164C168.25 78.4201 167.304 80.4411 165.411 81.6794C164.103 82.5438 162.456 82.9761 160.47 82.9761C159.395 82.9761 158.145 82.6724 156.72 82.0649C155.295 81.4574 154.162 80.7448 153.321 79.9271L155.318 76.9482C156.533 78.1164 158.145 78.7005 160.155 78.7005C161.066 78.7005 161.79 78.4318 162.327 77.8944C162.865 77.357 163.133 76.6328 163.133 75.7216C163.133 73.7823 162.035 72.8127 159.839 72.8127H156.405Z" fill="#E2A52F"/>
<path d="M63.1044 250.469C62.5491 250.469 62.2714 250.186 62.2714 249.619C62.2714 249.064 62.5491 248.786 63.1044 248.786C63.6484 248.786 63.9204 249.064 63.9204 249.619C63.9204 250.186 63.6484 250.469 63.1044 250.469ZM67.5584 257.082C67.5584 258.385 67.1051 259.422 66.1984 260.193C65.3937 260.884 64.3624 261.23 63.1044 261.23C61.6311 261.23 60.4864 260.709 59.6704 259.666C59.0471 258.861 58.7354 257.909 58.7354 256.81C58.7354 255.858 58.9734 255.042 59.4494 254.362L60.8604 254.056C60.3504 254.861 60.0954 255.728 60.0954 256.657C60.0954 257.609 60.3901 258.391 60.9794 259.003C61.5347 259.57 62.2431 259.853 63.1044 259.853C64.1017 259.853 64.8724 259.564 65.4164 258.986C65.8697 258.499 66.0964 257.864 66.0964 257.082V251.404L67.5584 250.622V257.082ZM73.5715 258C72.5855 258 71.8262 257.683 71.2935 257.048C70.8402 256.504 70.6135 255.813 70.6135 254.974V247.817L72.0755 247.035V254.923C72.0755 256.056 72.6308 256.623 73.7415 256.623H74.8635V258H73.5715ZM76.6242 253.393C76.6242 252.407 76.9189 251.642 77.5082 251.098C78.0295 250.633 78.7095 250.401 79.5482 250.401C80.6249 250.401 81.4522 250.798 82.0302 251.591C82.5289 252.26 82.7782 253.132 82.7782 254.209C82.7782 255.433 82.4609 256.391 81.8262 257.082C81.2709 257.694 80.5455 258 79.6502 258C78.6302 258 77.8539 257.717 77.3212 257.15C76.7772 257.717 76.0462 258 75.1282 258H73.8362V256.623H74.9582C76.0689 256.623 76.6242 256.056 76.6242 254.923V253.393ZM78.0862 255.042C78.0862 256.096 78.6019 256.623 79.6332 256.623C80.1659 256.623 80.5795 256.408 80.8742 255.977C81.1802 255.546 81.3332 254.946 81.3332 254.175C81.3332 253.416 81.1745 252.826 80.8572 252.407C80.5399 251.976 80.1035 251.761 79.5482 251.761C78.5735 251.761 78.0862 252.328 78.0862 253.461V255.042ZM84.6871 246.797L85.0781 246.066H85.5371C85.4238 245.862 85.3671 245.647 85.3671 245.42C85.3671 245.091 85.4918 244.808 85.7411 244.57C85.9904 244.321 86.2794 244.196 86.6081 244.196C86.8914 244.196 87.1634 244.287 87.4241 244.468V245.216C87.1861 245.023 86.9481 244.927 86.7101 244.927C86.2908 244.927 86.0811 245.12 86.0811 245.505C86.0811 245.686 86.1661 245.873 86.3361 246.066H87.8831L87.4921 246.797H84.6871ZM88.5461 258C87.5601 258 86.8008 257.683 86.2681 257.048C85.8148 256.504 85.5881 255.813 85.5881 254.974V248.497L87.0501 247.715V254.923C87.0501 256.056 87.6054 256.623 88.7161 256.623H89.8381V258H88.5461ZM88.8108 258V256.623H89.9328C91.0435 256.623 91.5988 256.056 91.5988 254.923V251.404L93.0608 250.622V254.974C93.0608 255.937 92.7718 256.697 92.1938 257.252C91.6611 257.751 90.9641 258 90.1028 258H88.8108ZM91.5478 261.383C90.9925 261.383 90.7148 261.1 90.7148 260.533C90.7148 259.978 90.9925 259.7 91.5478 259.7C92.0918 259.7 92.3638 259.978 92.3638 260.533C92.3638 261.1 92.0918 261.383 91.5478 261.383ZM98.7213 258L99.4353 256.623H102.461C102.915 256.623 103.232 256.51 103.413 256.283C103.606 256.056 103.702 255.665 103.702 255.11C103.702 253.603 103.005 252.469 101.611 251.71L102.359 250.452C104.139 251.495 105.068 252.934 105.147 254.77C105.17 255.427 105.317 255.903 105.589 256.198C105.873 256.481 106.32 256.623 106.932 256.623H107.935V258H106.813C105.873 258 105.136 257.7 104.603 257.099C104.229 257.7 103.6 258 102.716 258H98.7213ZM110.153 248.565C109.598 248.565 109.32 248.282 109.32 247.715C109.32 247.16 109.598 246.882 110.153 246.882C110.697 246.882 110.969 247.16 110.969 247.715C110.969 248.282 110.697 248.565 110.153 248.565ZM112.839 256.623H113.961V258H112.669C111.728 258 110.986 257.7 110.442 257.099C109.898 257.7 109.156 258 108.215 258H106.923V256.623H108.045C109.156 256.623 109.711 256.056 109.711 254.923V251.404L111.173 250.622V254.923C111.173 256.056 111.728 256.623 112.839 256.623ZM114.837 248.684C114.282 248.684 114.004 248.401 114.004 247.834C114.004 247.279 114.282 247.001 114.837 247.001C115.381 247.001 115.653 247.279 115.653 247.834C115.653 248.401 115.381 248.684 114.837 248.684ZM117.013 248.684C116.458 248.684 116.18 248.401 116.18 247.834C116.18 247.279 116.458 247.001 117.013 247.001C117.557 247.001 117.829 247.279 117.829 247.834C117.829 248.401 117.557 248.684 117.013 248.684ZM118.849 256.623H119.971V258H118.679C117.738 258 116.996 257.7 116.452 257.099C115.908 257.7 115.166 258 114.225 258H112.933V256.623H114.055C115.166 256.623 115.721 256.056 115.721 254.923V251.404L117.183 250.622V254.923C117.183 256.056 117.738 256.623 118.849 256.623ZM118.943 258V256.623H120.473C121.572 256.623 122.122 256.056 122.122 254.923V252.543L123.584 251.761V254.923C123.584 256.056 124.139 256.623 125.25 256.623H126.032C127.142 256.623 127.698 256.056 127.698 254.923V251.965L129.16 251.2V254.923C129.16 256.056 129.709 256.623 130.809 256.623H131.608C132.718 256.623 133.274 256.056 133.274 254.923V251.404L134.736 250.622V254.77C134.736 256.005 135.325 256.623 136.504 256.623H137.915V258H136.385C135.365 258 134.588 257.654 134.056 256.963C133.58 257.643 132.837 257.989 131.829 258H130.656C129.658 258 128.916 257.666 128.429 256.997C127.941 257.654 127.216 257.989 126.253 258H125.08C124.105 258 123.363 257.666 122.853 256.997C122.365 257.666 121.623 258 120.626 258H118.943ZM147.837 256.623H148.976V258H147.684C146.743 258 146.001 257.7 145.457 257.099C144.879 257.926 144.035 258.34 142.924 258.34C141.813 258.34 140.975 257.932 140.408 257.116C139.875 257.705 139.133 258 138.181 258H136.889V256.623H138.011C139.122 256.623 139.677 256.056 139.677 254.923V254.362C139.677 253.047 140 252.039 140.646 251.336C141.213 250.713 141.972 250.401 142.924 250.401C144.012 250.401 144.851 250.803 145.44 251.608C145.939 252.299 146.188 253.217 146.188 254.362V254.923C146.188 256.056 146.738 256.623 147.837 256.623ZM142.924 256.963C143.479 256.963 143.916 256.731 144.233 256.266C144.562 255.801 144.726 255.161 144.726 254.345C144.726 252.622 144.125 251.761 142.924 251.761C141.734 251.761 141.139 252.622 141.139 254.345C141.139 256.09 141.734 256.963 142.924 256.963ZM147.962 258V256.623H148.863C150.042 256.623 150.631 256.005 150.631 254.77V247.817L152.11 247.035V254.787C152.11 255.796 151.81 256.595 151.209 257.184C150.643 257.728 149.9 258 148.982 258H147.962ZM155.165 258V247.817L156.627 247.035V258H155.165ZM174.036 247.817L175.515 247.035V254.991C175.515 255.977 175.214 256.742 174.614 257.286C174.081 257.762 173.395 258 172.557 258H166.488C165.57 258 164.85 257.694 164.329 257.082C163.875 256.549 163.649 255.852 163.649 254.991V252.934L165.111 252.152V254.855C165.111 256.034 165.66 256.623 166.76 256.623H172.404C173.492 256.623 174.036 256.034 174.036 254.855V247.817ZM169.667 249.721C170.641 249.766 171.129 250.248 171.129 251.166C171.129 251.563 171.01 251.88 170.772 252.118C170.545 252.356 170.239 252.475 169.854 252.475H167.61L168.001 251.744H169.786C170.194 251.744 170.398 251.54 170.398 251.132C170.398 250.633 170.08 250.384 169.446 250.384C169.117 250.384 168.817 250.463 168.545 250.622V249.942L169.973 248.361H170.874L169.667 249.721ZM181.089 257.099C181.089 258.368 180.755 259.388 180.086 260.159C179.452 260.896 178.607 261.264 177.553 261.264C176.873 261.264 176.21 261.094 175.564 260.754V259.479C176.142 259.796 176.72 259.955 177.298 259.955C178.024 259.955 178.59 259.711 178.998 259.224C179.406 258.737 179.61 258.062 179.61 257.201V251.404L181.089 250.622V257.099ZM187.11 258C186.124 258 185.364 257.683 184.832 257.048C184.378 256.504 184.152 255.813 184.152 254.974V247.817L185.614 247.035V254.923C185.614 256.056 186.169 256.623 187.28 256.623H188.402V258H187.11ZM196.724 247.001C196.226 247.001 195.976 246.746 195.976 246.236C195.976 245.737 196.226 245.488 196.724 245.488C197.223 245.488 197.472 245.737 197.472 246.236C197.472 246.746 197.223 247.001 196.724 247.001ZM195.653 249.024C195.098 249.024 194.82 248.741 194.82 248.174C194.82 247.619 195.098 247.341 195.653 247.341C196.197 247.341 196.469 247.619 196.469 248.174C196.469 248.741 196.197 249.024 195.653 249.024ZM197.812 249.024C197.257 249.024 196.979 248.741 196.979 248.174C196.979 247.619 197.257 247.341 197.812 247.341C198.356 247.341 198.628 247.619 198.628 248.174C198.628 248.741 198.356 249.024 197.812 249.024ZM187.374 258V256.623H188.904C190.004 256.623 190.553 256.056 190.553 254.923V252.543L192.015 251.761V254.923C192.015 256.056 192.571 256.623 193.681 256.623H194.463C195.574 256.623 196.129 256.056 196.129 254.923V251.965L197.591 251.2V254.923C197.591 256.056 198.141 256.623 199.24 256.623H200.039C201.15 256.623 201.705 256.056 201.705 254.923V251.404L203.167 250.622V254.974C203.167 255.937 202.878 256.691 202.3 257.235C201.79 257.734 201.11 257.989 200.26 258H199.087C198.09 258 197.348 257.666 196.86 256.997C196.373 257.654 195.648 257.989 194.684 258H193.511C192.537 258 191.794 257.666 191.284 256.997C190.797 257.666 190.055 258 189.057 258H187.374ZM210.414 257.456C209.983 257.626 209.456 257.711 208.833 257.711C207.824 257.711 207.031 257.331 206.453 256.572C205.965 255.926 205.722 255.116 205.722 254.141C205.722 252.94 206.045 251.999 206.691 251.319C207.269 250.707 208.028 250.401 208.969 250.401C209.932 250.401 210.674 250.701 211.196 251.302C211.66 251.835 211.893 252.532 211.893 253.393V257.099C211.893 258.38 211.558 259.394 210.89 260.142C210.255 260.845 209.411 261.196 208.357 261.196C207.654 261.196 206.991 261.032 206.368 260.703V259.411C206.968 259.728 207.563 259.887 208.153 259.887C208.821 259.887 209.354 259.672 209.751 259.241C210.147 258.822 210.368 258.227 210.414 257.456ZM210.414 253.461C210.414 252.328 209.932 251.761 208.969 251.761C208.402 251.761 207.954 251.971 207.626 252.39C207.308 252.809 207.15 253.382 207.15 254.107C207.15 254.821 207.303 255.393 207.609 255.824C207.926 256.243 208.351 256.453 208.884 256.453C209.632 256.453 210.142 256.243 210.414 255.824V253.461ZM222.557 257.592C221.481 258.238 220.829 258.68 220.602 258.918C220.149 259.36 219.922 259.91 219.922 260.567C219.922 261.292 220.172 261.876 220.67 262.318C221.169 262.771 221.815 262.998 222.608 262.998C223.855 262.987 224.898 262.686 225.736 262.097V263.474C224.762 264.075 223.696 264.375 222.54 264.375C221.282 264.375 220.274 263.961 219.514 263.134C218.857 262.431 218.528 261.564 218.528 260.533C218.528 259.762 218.732 259.105 219.14 258.561C219.548 258.028 220.268 257.467 221.299 256.878C220.37 256.198 219.418 255.133 218.443 253.682V252.934C218.999 252.141 219.65 251.523 220.398 251.081C221.146 250.628 221.906 250.401 222.676 250.401C223.436 250.401 224.195 250.633 224.954 251.098C225.714 251.551 226.365 252.175 226.909 252.968V253.682C226.331 254.555 225.374 255.524 224.036 256.589C224.286 256.612 224.484 256.623 224.631 256.623H229.119L229.136 258H224.512C223.844 258 223.192 257.864 222.557 257.592ZM219.803 253.325C220.823 254.719 221.753 255.643 222.591 256.096C223.691 255.348 224.677 254.413 225.549 253.291C224.711 252.271 223.753 251.755 222.676 251.744C221.588 251.744 220.631 252.271 219.803 253.325ZM234.606 243.389L235.422 242.93V244.307C235.422 244.624 235.314 244.885 235.099 245.089C234.884 245.293 234.606 245.395 234.266 245.395C233.971 245.395 233.716 245.316 233.501 245.157C233.286 245.316 233.031 245.395 232.736 245.395C232.396 245.395 232.113 245.293 231.886 245.089C231.671 244.885 231.563 244.624 231.563 244.307V243.78L232.396 243.321V244.256C232.396 244.483 232.509 244.596 232.736 244.596C232.963 244.596 233.076 244.5 233.076 244.307V243.559L233.909 243.1V244.307C233.909 244.5 234.028 244.596 234.266 244.596C234.493 244.596 234.606 244.483 234.606 244.256V243.389ZM232.552 248.684C231.996 248.684 231.719 248.401 231.719 247.834C231.719 247.279 231.996 247.001 232.552 247.001C233.096 247.001 233.368 247.279 233.368 247.834C233.368 248.401 233.096 248.684 232.552 248.684ZM234.711 248.684C234.155 248.684 233.878 248.401 233.878 247.834C233.878 247.279 234.155 247.001 234.711 247.001C235.255 247.001 235.527 247.279 235.527 247.834C235.527 248.401 235.255 248.684 234.711 248.684ZM228.115 258V256.623H231.175C230.653 256.045 230.393 255.24 230.393 254.209C230.393 252.974 230.716 252.01 231.362 251.319C231.928 250.707 232.682 250.401 233.623 250.401C234.586 250.401 235.334 250.701 235.867 251.302C236.32 251.835 236.547 252.532 236.547 253.393V255.008C236.535 255.949 236.258 256.691 235.714 257.235C235.181 257.745 234.473 258 233.589 258H228.115ZM235.085 253.461C235.085 252.328 234.597 251.761 233.623 251.761C233.067 251.761 232.631 251.976 232.314 252.407C231.996 252.826 231.838 253.416 231.838 254.175C231.838 254.923 231.991 255.518 232.297 255.96C232.603 256.402 233.011 256.623 233.521 256.623C234.563 256.623 235.085 256.079 235.085 254.991V253.461ZM243.617 257.456C243.186 257.626 242.659 257.711 242.036 257.711C241.027 257.711 240.234 257.331 239.656 256.572C239.168 255.926 238.925 255.116 238.925 254.141C238.925 252.94 239.248 251.999 239.894 251.319C240.472 250.707 241.231 250.401 242.172 250.401C243.135 250.401 243.877 250.701 244.399 251.302C244.863 251.835 245.096 252.532 245.096 253.393V257.099C245.096 258.38 244.761 259.394 244.093 260.142C243.458 260.845 242.614 261.196 241.56 261.196C240.857 261.196 240.194 261.032 239.571 260.703V259.411C240.171 259.728 240.766 259.887 241.356 259.887C242.024 259.887 242.557 259.672 242.954 259.241C243.35 258.822 243.571 258.227 243.617 257.456ZM243.617 253.461C243.617 252.328 243.135 251.761 242.172 251.761C241.605 251.761 241.157 251.971 240.829 252.39C240.511 252.809 240.353 253.382 240.353 254.107C240.353 254.821 240.506 255.393 240.812 255.824C241.129 256.243 241.554 256.453 242.087 256.453C242.835 256.453 243.345 256.243 243.617 255.824V253.461Z" fill="#585858"/>
<path d="M107.238 210.262L109.988 208.81V218.908C109.988 220.243 109.57 221.284 108.734 222.032C108.015 222.677 107.084 223 105.94 223H98.0856C96.839 223 95.8636 222.582 95.1596 221.746C94.529 221.013 94.2136 220.067 94.2136 218.908V216.664L96.9636 215.212V218.732C96.9636 219.319 97.081 219.737 97.3156 219.986C97.565 220.221 97.9683 220.338 98.5256 220.338H105.698C106.255 220.338 106.651 220.213 106.886 219.964C107.12 219.715 107.238 219.304 107.238 218.732V210.262ZM102.684 212C103.74 212.176 104.268 212.799 104.268 213.87C104.268 215.073 103.688 215.674 102.53 215.674H99.2736L99.9556 214.398H102.398C102.794 214.398 102.992 214.2 102.992 213.804C102.992 213.305 102.662 213.056 102.002 213.056C101.562 213.056 101.151 213.173 100.77 213.408V212.308L102.662 210.218H104.268L102.684 212ZM117.918 221.636C117.918 223.337 117.448 224.716 116.51 225.772C115.644 226.755 114.5 227.246 113.078 227.246C112.154 227.246 111.252 227.011 110.372 226.542V224.122C111.134 224.547 111.882 224.76 112.616 224.76C113.422 224.76 114.046 224.496 114.486 223.968C114.94 223.455 115.168 222.736 115.168 221.812V214.706L117.918 213.232V221.636ZM125.934 223C124.599 223 123.565 222.575 122.832 221.724C122.201 220.991 121.886 220.045 121.886 218.886V210.262L124.658 208.81V218.754C124.658 219.326 124.775 219.737 125.01 219.986C125.244 220.221 125.64 220.338 126.198 220.338H128.178V223H125.934ZM139.347 208.062C138.467 208.062 138.027 207.615 138.027 206.72C138.027 205.855 138.467 205.422 139.347 205.422C140.212 205.422 140.645 205.855 140.645 206.72C140.645 207.615 140.212 208.062 139.347 208.062ZM137.675 211.296C137.235 211.296 136.883 211.164 136.619 210.9C136.355 210.636 136.223 210.277 136.223 209.822C136.223 209.397 136.355 209.052 136.619 208.788C136.883 208.524 137.235 208.392 137.675 208.392C138.115 208.392 138.46 208.524 138.709 208.788C138.973 209.037 139.105 209.382 139.105 209.822C139.105 210.805 138.628 211.296 137.675 211.296ZM141.063 211.296C140.623 211.296 140.271 211.164 140.007 210.9C139.743 210.636 139.611 210.277 139.611 209.822C139.611 209.397 139.743 209.052 140.007 208.788C140.271 208.524 140.623 208.392 141.063 208.392C141.503 208.392 141.848 208.524 142.097 208.788C142.361 209.037 142.493 209.382 142.493 209.822C142.493 210.805 142.016 211.296 141.063 211.296ZM126.851 223V220.338H129.183C129.74 220.338 130.136 220.221 130.371 219.986C130.62 219.737 130.745 219.326 130.745 218.754V215.85L133.517 214.398V218.754C133.517 219.326 133.634 219.737 133.869 219.986C134.104 220.221 134.5 220.338 135.057 220.338H136.553C137.11 220.338 137.506 220.221 137.741 219.986C137.976 219.737 138.093 219.326 138.093 218.754V215.278L140.865 213.804V218.754C140.865 219.326 140.982 219.737 141.217 219.986C141.466 220.221 141.87 220.338 142.427 220.338H143.923C144.48 220.338 144.876 220.221 145.111 219.986C145.346 219.737 145.463 219.326 145.463 218.754V214.684L148.235 213.232V218.886C148.235 220.191 147.839 221.218 147.047 221.966C146.358 222.626 145.448 222.971 144.319 223H142.141C141.056 223 140.168 222.677 139.479 222.032C138.848 222.663 138.012 222.985 136.971 223H134.793C133.708 223 132.82 222.677 132.131 222.032C131.442 222.677 130.554 223 129.469 223H126.851ZM157.172 222.362C156.717 222.45 156.248 222.494 155.764 222.494C154.415 222.494 153.337 221.988 152.53 220.976C151.87 220.125 151.54 219.099 151.54 217.896C151.54 216.283 151.98 215.014 152.86 214.09C153.637 213.269 154.664 212.858 155.94 212.858C157.245 212.858 158.265 213.276 158.998 214.112C159.629 214.831 159.944 215.769 159.944 216.928V221.636C159.944 223.367 159.489 224.731 158.58 225.728C157.729 226.667 156.571 227.136 155.104 227.136C154.18 227.136 153.278 226.887 152.398 226.388V223.99C153.19 224.445 153.982 224.672 154.774 224.672C156.197 224.672 156.996 223.902 157.172 222.362ZM157.194 216.884C157.194 215.916 156.776 215.432 155.94 215.432C155.412 215.432 154.994 215.645 154.686 216.07C154.393 216.495 154.246 217.075 154.246 217.808C154.246 219.363 154.803 220.14 155.918 220.14C156.505 220.14 156.93 219.993 157.194 219.7V216.884ZM178.505 230.018C177.244 230.839 175.829 231.25 174.259 231.25C172.529 231.25 171.128 230.707 170.057 229.622C169.075 228.625 168.583 227.356 168.583 225.816C168.583 224.745 168.855 223.814 169.397 223.022C169.955 222.23 170.857 221.475 172.103 220.756C171.253 220.243 170.219 219.26 169.001 217.808C168.84 217.617 168.715 217.463 168.627 217.346V216.092C169.287 215.109 170.123 214.325 171.135 213.738C172.162 213.151 173.203 212.858 174.259 212.858C175.315 212.858 176.357 213.159 177.383 213.76C178.41 214.347 179.261 215.139 179.935 216.136V217.346C179.026 218.431 177.904 219.392 176.569 220.228C177.068 220.301 177.523 220.338 177.933 220.338H182.707L182.729 223H176.371C175.565 223 174.831 222.809 174.171 222.428C173.115 222.912 172.36 223.418 171.905 223.946C171.465 224.474 171.245 225.105 171.245 225.838C171.245 226.674 171.531 227.341 172.103 227.84C172.69 228.339 173.475 228.588 174.457 228.588C175.895 228.588 177.244 228.192 178.505 227.4V230.018ZM174.237 219.282C175.337 218.417 176.151 217.544 176.679 216.664C175.799 215.843 174.978 215.432 174.215 215.432C173.467 215.432 172.683 215.843 171.861 216.664C172.448 217.676 173.24 218.549 174.237 219.282ZM187.01 211.296C186.57 211.296 186.218 211.164 185.954 210.9C185.69 210.636 185.558 210.277 185.558 209.822C185.558 208.869 186.042 208.392 187.01 208.392C187.45 208.392 187.794 208.524 188.044 208.788C188.308 209.037 188.44 209.382 188.44 209.822C188.44 210.805 187.963 211.296 187.01 211.296ZM190.398 211.296C189.958 211.296 189.606 211.164 189.342 210.9C189.078 210.636 188.946 210.277 188.946 209.822C188.946 208.869 189.43 208.392 190.398 208.392C190.838 208.392 191.182 208.524 191.432 208.788C191.696 209.037 191.828 209.382 191.828 209.822C191.828 210.805 191.351 211.296 190.398 211.296ZM181.4 223V220.338H184.92C184.48 219.693 184.26 218.886 184.26 217.918C184.26 216.305 184.7 215.029 185.58 214.09C186.372 213.269 187.406 212.858 188.682 212.858C189.987 212.858 190.999 213.276 191.718 214.112C192.363 214.831 192.686 215.769 192.686 216.928V218.908C192.671 220.169 192.297 221.167 191.564 221.9C190.845 222.633 189.87 223 188.638 223H181.4ZM189.914 216.884C189.914 215.916 189.503 215.432 188.682 215.432C187.552 215.432 186.988 216.231 186.988 217.83C186.988 219.502 187.53 220.338 188.616 220.338C189.481 220.338 189.914 219.869 189.914 218.93V216.884ZM201.408 222.362C200.954 222.45 200.484 222.494 200 222.494C198.651 222.494 197.573 221.988 196.766 220.976C196.106 220.125 195.776 219.099 195.776 217.896C195.776 216.283 196.216 215.014 197.096 214.09C197.874 213.269 198.9 212.858 200.176 212.858C201.482 212.858 202.501 213.276 203.234 214.112C203.865 214.831 204.18 215.769 204.18 216.928V221.636C204.18 223.367 203.726 224.731 202.816 225.728C201.966 226.667 200.807 227.136 199.34 227.136C198.416 227.136 197.514 226.887 196.634 226.388V223.99C197.426 224.445 198.218 224.672 199.01 224.672C200.433 224.672 201.232 223.902 201.408 222.362ZM201.43 216.884C201.43 215.916 201.012 215.432 200.176 215.432C199.648 215.432 199.23 215.645 198.922 216.07C198.629 216.495 198.482 217.075 198.482 217.808C198.482 219.363 199.04 220.14 200.154 220.14C200.741 220.14 201.166 219.993 201.43 219.7V216.884Z" fill="#3B3B3B"/>
<path d="M158.513 165.202C157.742 164.433 156.698 164 155.609 164C154.52 164 153.476 164.433 152.705 165.202L141.96 175.946C141.633 176.273 141.404 176.686 141.301 177.137L140.021 182.708C139.99 182.843 139.993 182.985 140.032 183.119C140.07 183.252 140.142 183.374 140.241 183.473C140.339 183.571 140.461 183.643 140.595 183.682C140.729 183.72 140.87 183.724 141.006 183.692L146.577 182.414C147.028 182.311 147.441 182.082 147.768 181.755L156.697 172.826L156.859 172.987C157.09 173.218 157.22 173.531 157.22 173.858C157.22 174.184 157.09 174.498 156.859 174.729L154.205 177.382C154.05 177.536 153.964 177.745 153.964 177.963C153.964 178.181 154.05 178.39 154.204 178.544C154.358 178.698 154.567 178.784 154.785 178.784C155.003 178.785 155.212 178.698 155.366 178.544L158.021 175.891C158.288 175.624 158.499 175.307 158.644 174.958C158.788 174.61 158.863 174.236 158.863 173.858C158.863 173.481 158.788 173.107 158.644 172.758C158.499 172.409 158.288 172.092 158.021 171.825L157.86 171.663L158.512 171.011C158.893 170.63 159.196 170.177 159.402 169.679C159.609 169.18 159.715 168.646 159.715 168.107C159.715 167.567 159.609 167.033 159.402 166.535C159.196 166.037 158.893 165.584 158.512 165.202M145.387 186.914C143.687 186.626 142.311 185.668 141.521 184.838L143.506 184.382C144.089 184.792 144.833 185.154 145.663 185.294C146.924 185.509 148.475 185.231 150.102 183.623C151.014 182.722 151.784 182.021 152.439 181.513C153.079 181.016 153.675 180.652 154.236 180.502C154.857 180.336 155.46 180.432 155.948 180.865C156.367 181.236 156.615 181.785 156.797 182.322L156.824 182.402C157.162 183.407 157.335 183.918 157.508 184.234C157.549 184.319 157.605 184.395 157.675 184.459C157.748 184.512 157.83 184.552 157.918 184.575C157.921 184.577 158.011 184.606 158.282 184.468C158.551 184.33 158.865 184.097 159.253 183.786C159.327 183.728 159.402 183.667 159.48 183.603C159.791 183.352 160.137 183.072 160.483 182.831C160.918 182.529 161.426 182.231 161.981 182.094C162.193 182.042 162.416 182.076 162.603 182.188C162.79 182.301 162.924 182.483 162.976 182.694C163.028 182.906 162.994 183.13 162.882 183.316C162.769 183.503 162.587 183.637 162.376 183.689C162.109 183.755 161.796 183.918 161.423 184.179C161.129 184.384 160.843 184.614 160.537 184.86L160.279 185.069C159.897 185.375 159.465 185.707 159.029 185.931C158.596 186.152 158.017 186.338 157.404 186.136C157.124 186.049 156.863 185.911 156.633 185.729C156.402 185.532 156.21 185.293 156.068 185.025C155.822 184.575 155.604 183.929 155.316 183.071L155.24 182.846C155.078 182.368 154.941 182.167 154.858 182.094L154.854 182.09C154.842 182.076 154.817 182.047 154.66 182.09C154.423 182.152 154.038 182.351 153.446 182.811C152.866 183.26 152.151 183.908 151.257 184.791C149.269 186.755 147.192 187.22 145.387 186.914Z" fill="#E2A52F"/>
<defs>
<filter id="filter0_d_224_3390" x="0.727999" y="47.0811" width="302.319" height="37.4668" filterUnits="userSpaceOnUse" color-interpolation-filters="sRGB">
<feFlood flood-opacity="0" result="BackgroundImageFix"/>
<feColorMatrix in="SourceAlpha" type="matrix" values="0 0 0 0 0 0 0 0 0 0 0 0 0 0 0 0 0 0 127 0" result="hardAlpha"/>
<feOffset dy="-6.4598"/>
<feGaussianBlur stdDeviation="9.136"/>
<feComposite in2="hardAlpha" operator="out"/>
<feColorMatrix type="matrix" values="0 0 0 0 0 0 0 0 0 0 0 0 0 0 0 0 0 0 0.88 0"/>
<feBlend mode="normal" in2="BackgroundImageFix" result="effect1_dropShadow_224_3390"/>
<feBlend mode="normal" in="SourceGraphic" in2="effect1_dropShadow_224_3390" result="shape"/>
</filter>
<filter id="filter1_d_224_3390" x="96.6953" y="19.3862" width="163.563" height="158.958" filterUnits="userSpaceOnUse" color-interpolation-filters="sRGB">
<feFlood flood-opacity="0" result="BackgroundImageFix"/>
<feColorMatrix in="SourceAlpha" type="matrix" values="0 0 0 0 0 0 0 0 0 0 0 0 0 0 0 0 0 0 127 0" result="hardAlpha"/>
<feOffset dx="32.299" dy="27.6849"/>
<feGaussianBlur stdDeviation="11.5354"/>
<feComposite in2="hardAlpha" operator="out"/>
<feColorMatrix type="matrix" values="0 0 0 0 0 0 0 0 0 0 0 0 0 0 0 0 0 0 0.1 0"/>
<feBlend mode="normal" in2="BackgroundImageFix" result="effect1_dropShadow_224_3390"/>
<feBlend mode="normal" in="SourceGraphic" in2="effect1_dropShadow_224_3390" result="shape"/>
</filter>
<linearGradient id="paint0_linear_224_3390" x1="188.989" y1="111.691" x2="112.591" y2="35.2889" gradientUnits="userSpaceOnUse">
<stop stop-color="#EBEAEA"/>
<stop offset="1" stop-color="white"/>
</linearGradient>
</defs>
</svg>
