<svg width="304" height="286" viewBox="0 0 304 286" fill="none" xmlns="http://www.w3.org/2000/svg">
<g filter="url(#filter0_d_224_6731)">
<line x1="19" y1="72.2744" x2="284.775" y2="72.2744" stroke="white" stroke-width="0.922828"/>
</g>
<rect x="19" y="72.7358" width="265.775" height="42.4501" fill="white"/>
<path d="M210.99 73.4914H208.042C208.042 41.9321 182.365 16.2583 150.809 16.2583C119.253 16.2583 93.5551 41.9286 93.5551 73.4914H90.5898C90.5898 40.2955 117.596 13.2861 150.795 13.2861C183.995 13.2861 210.99 40.2955 210.99 73.4914Z" fill="#0F898C"/>
<g filter="url(#filter1_d_224_6731)">
<path d="M96.7127 74.8549C97.0628 88.7327 102.735 101.945 112.554 111.758C122.374 121.57 135.59 127.232 149.468 127.573C180.159 128.31 205.49 103.086 204.878 72.3913C204.68 62.5418 201.796 52.9333 196.537 44.6026C191.279 36.272 183.845 29.5354 175.038 25.1198C171.287 23.229 167.325 21.7866 163.236 20.8224C159.517 19.9486 155.717 19.4708 151.897 19.3969C121.175 18.7913 95.9376 44.1398 96.7127 74.8549Z" fill="url(#paint0_linear_224_6731)"/>
</g>
<path d="M187.086 109.782C207.211 89.6565 207.277 57.0925 187.233 37.0482C167.188 17.0038 134.624 17.0696 114.499 37.195C94.3735 57.3204 94.3077 89.8844 114.352 109.929C134.396 129.973 166.96 129.907 187.086 109.782Z" fill="#F9F9F9"/>
<path d="M142.651 59.9856C145.361 59.9856 147.557 61.2824 149.24 63.8758C150.641 66.0252 151.342 68.5836 151.342 71.5508C151.342 75.1022 150.455 77.9526 148.679 80.1021C147.09 82.0413 145.081 83.0109 142.651 83.0109C139.824 83.0109 137.628 81.7726 136.062 79.296C134.731 77.2166 134.065 74.6349 134.065 71.5508C134.065 68.093 134.941 65.2542 136.693 63.0347C138.259 61.002 140.244 59.9856 142.651 59.9856ZM142.721 64.1912C140.361 64.1912 139.181 66.5743 139.181 71.3406C139.181 73.7471 139.52 75.6395 140.198 77.018C140.805 78.2563 141.611 78.8755 142.616 78.8755C143.737 78.8755 144.614 78.2096 145.244 76.8778C145.899 75.5461 146.226 73.7003 146.226 71.3406C146.226 66.5743 145.057 64.1912 142.721 64.1912ZM163.659 60.4062V82.5903H158.718V66.0486C158.414 66.2589 157.959 66.5393 157.351 66.8897C156.51 67.3804 155.891 67.7775 155.494 68.0813C155.19 67.5439 154.688 66.6911 153.987 65.5229L153.846 65.3126C153.636 64.9622 153.426 64.6117 153.216 64.2613C154.01 63.6538 155.202 62.8127 156.79 61.738L157.176 61.4926C157.83 61.0253 158.344 60.6632 158.718 60.4062H163.659Z" fill="#0F898C"/>
<path d="M58.5546 221.438C57.3373 222.655 55.9073 223.264 54.2646 223.264C51.9033 223.264 50.1433 222.384 48.9846 220.624C48.1486 219.363 47.7306 217.881 47.7306 216.18C47.7306 213.965 48.3026 212.183 49.4466 210.834C50.5759 209.485 52.1453 208.81 54.1546 208.81C55.5626 208.81 56.9706 209.404 58.3786 210.592L57.2566 212.418C56.2006 211.655 55.2399 211.274 54.3746 211.274C53.1719 211.274 52.2406 211.78 51.5806 212.792C51.0086 213.657 50.7226 214.787 50.7226 216.18C50.7226 217.412 51.0599 218.468 51.7346 219.348C52.4533 220.272 53.4139 220.734 54.6166 220.734C55.4086 220.734 56.3473 220.389 57.4326 219.7L58.5546 221.438ZM60.9364 210.328L63.7084 208.81V214.2C63.9431 213.745 64.4271 213.357 65.1604 213.034C65.6444 212.829 66.0991 212.726 66.5244 212.726C67.8004 212.726 68.7244 213.078 69.2964 213.782C69.8831 214.471 70.1764 215.586 70.1764 217.126V223H67.4044V217.236C67.4044 215.799 66.7884 215.08 65.5564 215.08C64.6618 215.08 64.0458 215.329 63.7084 215.828V223H60.9364V210.328ZM77.3656 212.748C79.0083 212.748 80.2843 213.327 81.1936 214.486C81.9563 215.454 82.3376 216.635 82.3376 218.028C82.3376 219.656 81.773 220.976 80.6436 221.988C79.705 222.839 78.6123 223.264 77.3656 223.264C75.9136 223.264 74.6963 222.721 73.7136 221.636C72.8336 220.653 72.3936 219.451 72.3936 218.028C72.3936 216.415 72.885 215.109 73.8676 214.112C74.7623 213.203 75.9283 212.748 77.3656 212.748ZM77.3656 221.196C78.7883 221.196 79.4996 220.14 79.4996 218.028C79.4996 215.828 78.7883 214.728 77.3656 214.728C75.943 214.728 75.2316 215.828 75.2316 218.028C75.2316 220.14 75.943 221.196 77.3656 221.196ZM88.9887 212.748C90.6313 212.748 91.9073 213.327 92.8167 214.486C93.5793 215.454 93.9607 216.635 93.9607 218.028C93.9607 219.656 93.396 220.976 92.2667 221.988C91.328 222.839 90.2353 223.264 88.9887 223.264C87.5367 223.264 86.3193 222.721 85.3367 221.636C84.4567 220.653 84.0167 219.451 84.0167 218.028C84.0167 216.415 84.508 215.109 85.4907 214.112C86.3853 213.203 87.5513 212.748 88.9887 212.748ZM88.9887 221.196C90.4113 221.196 91.1227 220.14 91.1227 218.028C91.1227 215.828 90.4113 214.728 88.9887 214.728C87.566 214.728 86.8547 215.828 86.8547 218.028C86.8547 220.14 87.566 221.196 88.9887 221.196ZM102.13 215.432C101.411 214.963 100.59 214.728 99.6657 214.728C98.9617 214.728 98.6097 215.029 98.6097 215.63C98.6097 216.187 99.0864 216.583 100.04 216.818C101.228 217.111 102.034 217.441 102.46 217.808C103.076 218.336 103.384 219.128 103.384 220.184C103.384 221.123 103.046 221.871 102.372 222.428C101.712 222.985 100.817 223.264 99.6877 223.264C98.089 223.264 96.7397 222.809 95.6397 221.9L96.6517 220.36C97.4144 220.961 98.331 221.262 99.4017 221.262C99.827 221.262 100.172 221.159 100.436 220.954C100.7 220.749 100.832 220.477 100.832 220.14C100.832 219.524 100.311 219.121 99.2697 218.93C97.0404 218.505 95.9257 217.419 95.9257 215.674C95.9257 214.838 96.263 214.141 96.9377 213.584C97.627 213.027 98.485 212.748 99.5117 212.748C100.905 212.748 102.115 213.151 103.142 213.958L102.13 215.432ZM114.735 218.908H107.871C107.93 219.583 108.201 220.147 108.685 220.602C109.184 221.042 109.77 221.262 110.445 221.262C111.398 221.262 112.396 220.969 113.437 220.382L114.141 221.856C113.085 222.795 111.765 223.264 110.181 223.264C108.48 223.264 107.152 222.78 106.199 221.812C105.29 220.903 104.835 219.649 104.835 218.05C104.835 216.481 105.348 215.183 106.375 214.156C107.299 213.217 108.472 212.748 109.895 212.748C111.479 212.748 112.711 213.283 113.591 214.354C114.354 215.263 114.735 216.444 114.735 217.896V218.908ZM107.717 216.862H111.963C111.89 215.425 111.193 214.706 109.873 214.706C108.597 214.706 107.878 215.425 107.717 216.862ZM128.608 215.234H125.748V220.184C125.748 220.917 125.99 221.284 126.474 221.284C126.914 221.284 127.464 221.093 128.124 220.712L129.048 222.12C128.007 222.941 126.856 223.352 125.594 223.352C123.834 223.352 122.954 222.384 122.954 220.448V215.234H121.568V213.012H122.976V211.23C123.71 210.834 124.641 210.343 125.77 209.756V213.012H128.608V215.234ZM131.104 210.328L133.876 208.81V214.2C134.111 213.745 134.595 213.357 135.328 213.034C135.812 212.829 136.267 212.726 136.692 212.726C137.968 212.726 138.892 213.078 139.464 213.782C140.051 214.471 140.344 215.586 140.344 217.126V223H137.572V217.236C137.572 215.799 136.956 215.08 135.724 215.08C134.83 215.08 134.214 215.329 133.876 215.828V223H131.104V210.328ZM152.462 218.908H145.598C145.656 219.583 145.928 220.147 146.412 220.602C146.91 221.042 147.497 221.262 148.172 221.262C149.125 221.262 150.122 220.969 151.164 220.382L151.868 221.856C150.812 222.795 149.492 223.264 147.908 223.264C146.206 223.264 144.879 222.78 143.926 221.812C143.016 220.903 142.562 219.649 142.562 218.05C142.562 216.481 143.075 215.183 144.102 214.156C145.026 213.217 146.199 212.748 147.622 212.748C149.206 212.748 150.438 213.283 151.318 214.354C152.08 215.263 152.462 216.444 152.462 217.896V218.908ZM145.444 216.862H149.69C149.616 215.425 148.92 214.706 147.6 214.706C146.324 214.706 145.605 215.425 145.444 216.862ZM160.351 209.096C161.069 208.905 162.338 208.81 164.157 208.81C166.665 208.81 168.579 209.543 169.899 211.01C171.028 212.257 171.593 213.885 171.593 215.894C171.593 218.402 170.874 220.287 169.437 221.548C168.131 222.692 166.313 223.264 163.981 223.264C162.514 223.264 161.304 223.169 160.351 222.978V209.096ZM163.233 220.888C163.526 220.961 163.893 220.998 164.333 220.998C167.163 220.998 168.579 219.326 168.579 215.982C168.579 214.325 168.109 213.056 167.171 212.176C166.408 211.472 165.44 211.12 164.267 211.12C163.929 211.12 163.585 211.157 163.233 211.23V220.888ZM178.278 212.748C179.92 212.748 181.196 213.327 182.106 214.486C182.868 215.454 183.25 216.635 183.25 218.028C183.25 219.656 182.685 220.976 181.556 221.988C180.617 222.839 179.524 223.264 178.278 223.264C176.826 223.264 175.608 222.721 174.626 221.636C173.746 220.653 173.306 219.451 173.306 218.028C173.306 216.415 173.797 215.109 174.78 214.112C175.674 213.203 176.84 212.748 178.278 212.748ZM178.278 221.196C179.7 221.196 180.412 220.14 180.412 218.028C180.412 215.828 179.7 214.728 178.278 214.728C176.855 214.728 176.144 215.828 176.144 218.028C176.144 220.14 176.855 221.196 178.278 221.196ZM193.971 221.724C192.929 222.751 191.697 223.264 190.275 223.264C188.573 223.264 187.224 222.721 186.227 221.636C185.361 220.683 184.929 219.487 184.929 218.05C184.929 216.437 185.486 215.117 186.601 214.09C187.569 213.195 188.749 212.748 190.143 212.748C191.683 212.748 192.922 213.232 193.861 214.2L193.025 215.696C192.277 215.036 191.463 214.706 190.583 214.706C189.761 214.706 189.087 215.029 188.559 215.674C188.031 216.305 187.767 217.119 187.767 218.116C187.767 219.04 188.023 219.803 188.537 220.404C189.065 220.991 189.732 221.284 190.539 221.284C191.507 221.284 192.335 220.925 193.025 220.206L193.971 221.724ZM202.585 221.856C201.852 222.795 200.847 223.264 199.571 223.264C198.31 223.264 197.408 222.941 196.865 222.296C196.337 221.636 196.073 220.536 196.073 218.996V213.012H198.801V218.27C198.801 219.267 198.933 219.971 199.197 220.382C199.461 220.778 199.916 220.976 200.561 220.976C200.84 220.976 201.155 220.903 201.507 220.756C201.859 220.609 202.072 220.455 202.145 220.294V213.012H204.917V223H202.849L202.607 221.856H202.585ZM210.573 213.98C211.394 213.159 212.421 212.748 213.653 212.748C214.504 212.748 215.252 212.931 215.897 213.298C216.557 213.65 217.012 214.127 217.261 214.728C217.584 214.141 218.082 213.665 218.757 213.298C219.446 212.931 220.194 212.748 221.001 212.748C223.348 212.748 224.521 214.171 224.521 217.016V223H221.727V217.764C221.727 216.781 221.58 216.092 221.287 215.696C221.008 215.285 220.532 215.08 219.857 215.08C218.889 215.08 218.104 215.461 217.503 216.224V223H214.731V217.456C214.731 216.591 214.577 215.982 214.269 215.63C213.961 215.263 213.433 215.08 212.685 215.08C212.245 215.08 211.827 215.146 211.431 215.278C211.05 215.41 210.8 215.571 210.683 215.762V223H207.911V213.012H210.265L210.463 213.98H210.573ZM236.637 218.908H229.773C229.832 219.583 230.103 220.147 230.587 220.602C231.086 221.042 231.673 221.262 232.347 221.262C233.301 221.262 234.298 220.969 235.339 220.382L236.043 221.856C234.987 222.795 233.667 223.264 232.083 223.264C230.382 223.264 229.055 222.78 228.101 221.812C227.192 220.903 226.737 219.649 226.737 218.05C226.737 216.481 227.251 215.183 228.277 214.156C229.201 213.217 230.375 212.748 231.797 212.748C233.381 212.748 234.613 213.283 235.493 214.354C236.256 215.263 236.637 216.444 236.637 217.896V218.908ZM229.619 216.862H233.865C233.792 215.425 233.095 214.706 231.775 214.706C230.499 214.706 229.781 215.425 229.619 216.862ZM241.661 213.98C241.955 213.643 242.395 213.357 242.981 213.122C243.568 212.873 244.125 212.748 244.653 212.748C245.915 212.748 246.824 213.093 247.381 213.782C247.953 214.471 248.239 215.586 248.239 217.126V223H245.445V217.236C245.445 215.799 244.807 215.08 243.531 215.08C243.209 215.08 242.864 215.153 242.497 215.3C242.131 215.432 241.881 215.586 241.749 215.762V223H238.977V213.012H241.331C241.405 213.393 241.478 213.716 241.551 213.98H241.661ZM257.149 215.234H254.289V220.184C254.289 220.917 254.531 221.284 255.015 221.284C255.455 221.284 256.005 221.093 256.665 220.712L257.589 222.12C256.548 222.941 255.397 223.352 254.135 223.352C252.375 223.352 251.495 222.384 251.495 220.448V215.234H250.109V213.012H251.517V211.23C252.251 210.834 253.182 210.343 254.311 209.756V213.012H257.149V215.234Z" fill="#3B3B3B"/>
<path d="M61.8365 247.239H63.3325L67.2255 258H65.6105L64.7945 255.569H60.3915L59.5585 258H57.9435L61.8365 247.239ZM62.5845 249.143L60.8335 254.26H64.3355L62.5845 249.143ZM70.1694 251.047H70.2544C70.8324 250.401 71.6371 250.078 72.6684 250.078C74.5611 250.078 75.5074 251.189 75.5074 253.41V258H74.0454V253.495C74.0454 252.056 73.4107 251.336 72.1414 251.336C71.7901 251.336 71.4331 251.421 71.0704 251.591C70.7077 251.761 70.4414 251.965 70.2714 252.203V258H68.8094V250.282H70.0334L70.1694 251.047ZM82.2721 251.676C81.7054 251.359 81.0821 251.2 80.4021 251.2C80.0281 251.2 79.7277 251.291 79.5011 251.472C79.2744 251.642 79.1611 251.874 79.1611 252.169C79.1611 252.498 79.2631 252.753 79.4671 252.934C79.6824 253.104 80.0791 253.268 80.6571 253.427C81.5297 253.676 82.1361 253.943 82.4761 254.226C82.9407 254.623 83.1731 255.184 83.1731 255.909C83.1731 256.6 82.9181 257.156 82.4081 257.575C81.9094 257.994 81.2464 258.204 80.4191 258.204C79.3197 258.204 78.3677 257.898 77.5631 257.286L78.0731 256.47C78.7077 256.867 79.4161 257.065 80.1981 257.065C81.2407 257.065 81.7621 256.668 81.7621 255.875C81.7621 255.535 81.6487 255.28 81.4221 255.11C81.2067 254.929 80.7874 254.759 80.1641 254.6C78.5094 254.192 77.6821 253.393 77.6821 252.203C77.6821 251.591 77.9257 251.087 78.4131 250.69C78.9117 250.282 79.5351 250.078 80.2831 250.078C81.2351 250.078 82.0681 250.344 82.7821 250.877L82.2721 251.676ZM88.2694 258H86.8244L84.2404 250.282H85.7704L87.5384 256.249L89.1534 250.282H90.7514L92.2984 256.249L94.0834 250.282H95.6304L92.9954 258H91.5504L89.9354 252.135L88.2694 258ZM103.611 254.634H98.1707C98.25 255.382 98.522 255.977 98.9867 256.419C99.4513 256.85 100.046 257.065 100.772 257.065C101.474 257.065 102.188 256.85 102.914 256.419L103.356 257.252C102.562 257.887 101.622 258.204 100.534 258.204C99.287 258.204 98.2953 257.813 97.5587 257.031C96.8787 256.306 96.5387 255.354 96.5387 254.175C96.5387 252.974 96.907 251.971 97.6437 251.166C98.3123 250.441 99.134 250.078 100.109 250.078C101.299 250.078 102.211 250.526 102.846 251.421C103.356 252.135 103.611 253.036 103.611 254.124V254.634ZM98.1197 253.495H102.115C102.092 252.758 101.905 252.192 101.554 251.795C101.214 251.387 100.749 251.183 100.16 251.183C99.593 251.183 99.1227 251.393 98.7487 251.812C98.386 252.231 98.1763 252.792 98.1197 253.495ZM107.142 251.047H107.21C107.743 250.401 108.366 250.078 109.08 250.078C109.987 250.078 110.655 250.429 111.086 251.132L109.862 251.897C109.488 251.523 109.08 251.336 108.638 251.336C108.071 251.336 107.595 251.625 107.21 252.203V258H105.748V250.282H107.006L107.142 251.047ZM118.645 251.472L118.628 255.96C118.628 256.708 118.911 257.082 119.478 257.082C119.874 257.082 120.265 256.969 120.651 256.742L121.161 257.524C120.537 257.989 119.863 258.221 119.138 258.221C117.823 258.221 117.166 257.501 117.166 256.062V251.472H116.027V250.282H117.183V248.701L118.645 247.936V250.282H120.957V251.472H118.645ZM124.658 247.035V251.132C125.293 250.429 126.092 250.078 127.055 250.078C128.948 250.078 129.894 251.189 129.894 253.41V258H128.432V253.495C128.432 252.056 127.797 251.336 126.528 251.336C126.177 251.336 125.82 251.421 125.457 251.591C125.094 251.761 124.828 251.965 124.658 252.203V258H123.196V247.817L124.658 247.035ZM139.022 254.634H133.582C133.661 255.382 133.933 255.977 134.398 256.419C134.862 256.85 135.457 257.065 136.183 257.065C136.885 257.065 137.599 256.85 138.325 256.419L138.767 257.252C137.973 257.887 137.033 258.204 135.945 258.204C134.698 258.204 133.706 257.813 132.97 257.031C132.29 256.306 131.95 255.354 131.95 254.175C131.95 252.974 132.318 251.971 133.055 251.166C133.723 250.441 134.545 250.078 135.52 250.078C136.71 250.078 137.622 250.526 138.257 251.421C138.767 252.135 139.022 253.036 139.022 254.124V254.634ZM133.531 253.495H137.526C137.503 252.758 137.316 252.192 136.965 251.795C136.625 251.387 136.16 251.183 135.571 251.183C135.004 251.183 134.534 251.393 134.16 251.812C133.797 252.231 133.587 252.792 133.531 253.495ZM150.414 258.085C150.04 258.164 149.688 258.204 149.36 258.204C147.762 258.204 146.532 257.581 145.671 256.334C144.991 255.337 144.651 254.124 144.651 252.696C144.651 250.996 145.104 249.613 146.011 248.548C146.872 247.539 147.988 247.035 149.36 247.035C150.946 247.035 152.176 247.687 153.049 248.99C153.729 250.021 154.069 251.257 154.069 252.696C154.069 253.784 153.859 254.764 153.44 255.637C153.032 256.498 152.465 257.15 151.74 257.592L153.848 259.819H152.012L150.414 258.085ZM146.317 252.696C146.317 254.056 146.606 255.104 147.184 255.841C147.716 256.51 148.442 256.844 149.36 256.844C150.414 256.844 151.207 256.413 151.74 255.552C152.182 254.827 152.403 253.875 152.403 252.696C152.403 251.325 152.114 250.248 151.536 249.466C151.003 248.752 150.278 248.395 149.36 248.395C148.317 248.395 147.524 248.854 146.98 249.772C146.538 250.531 146.317 251.506 146.317 252.696ZM161.214 250.282H162.676V258H161.554L161.435 257.116H161.333C161.072 257.433 160.715 257.694 160.262 257.898C159.82 258.102 159.383 258.204 158.953 258.204C157.151 258.204 156.25 257.105 156.25 254.906V250.282H157.712V254.583C157.712 256.158 158.278 256.946 159.412 256.946C159.74 256.946 160.08 256.861 160.432 256.691C160.783 256.521 161.044 256.317 161.214 256.079V250.282ZM171.893 254.634H166.453C166.532 255.382 166.804 255.977 167.269 256.419C167.734 256.85 168.329 257.065 169.054 257.065C169.757 257.065 170.471 256.85 171.196 256.419L171.638 257.252C170.845 257.887 169.904 258.204 168.816 258.204C167.569 258.204 166.578 257.813 165.841 257.031C165.161 256.306 164.821 255.354 164.821 254.175C164.821 252.974 165.189 251.971 165.926 251.166C166.595 250.441 167.416 250.078 168.391 250.078C169.581 250.078 170.493 250.526 171.128 251.421C171.638 252.135 171.893 253.036 171.893 254.124V254.634ZM166.402 253.495H170.397C170.374 252.758 170.187 252.192 169.836 251.795C169.496 251.387 169.031 251.183 168.442 251.183C167.875 251.183 167.405 251.393 167.031 251.812C166.668 252.231 166.459 252.792 166.402 253.495ZM178.229 251.676C177.662 251.359 177.039 251.2 176.359 251.2C175.985 251.2 175.685 251.291 175.458 251.472C175.231 251.642 175.118 251.874 175.118 252.169C175.118 252.498 175.22 252.753 175.424 252.934C175.639 253.104 176.036 253.268 176.614 253.427C177.487 253.676 178.093 253.943 178.433 254.226C178.898 254.623 179.13 255.184 179.13 255.909C179.13 256.6 178.875 257.156 178.365 257.575C177.866 257.994 177.203 258.204 176.376 258.204C175.277 258.204 174.325 257.898 173.52 257.286L174.03 256.47C174.665 256.867 175.373 257.065 176.155 257.065C177.198 257.065 177.719 256.668 177.719 255.875C177.719 255.535 177.606 255.28 177.379 255.11C177.164 254.929 176.744 254.759 176.121 254.6C174.466 254.192 173.639 253.393 173.639 252.203C173.639 251.591 173.883 251.087 174.37 250.69C174.869 250.282 175.492 250.078 176.24 250.078C177.192 250.078 178.025 250.344 178.739 250.877L178.229 251.676ZM183.274 251.472L183.257 255.96C183.257 256.708 183.541 257.082 184.107 257.082C184.504 257.082 184.895 256.969 185.28 256.742L185.79 257.524C185.167 257.989 184.493 258.221 183.767 258.221C182.453 258.221 181.795 257.501 181.795 256.062V251.472H180.656V250.282H181.812V248.701L183.274 247.936V250.282H185.586V251.472H183.274ZM189.322 250.282V258H187.86V250.282H189.322ZM187.741 247.902C187.741 247.664 187.826 247.46 187.996 247.29C188.166 247.12 188.37 247.035 188.608 247.035C188.846 247.035 189.05 247.12 189.22 247.29C189.401 247.46 189.492 247.664 189.492 247.902C189.492 248.151 189.407 248.361 189.237 248.531C189.067 248.701 188.857 248.786 188.608 248.786C188.359 248.786 188.149 248.701 187.979 248.531C187.82 248.361 187.741 248.151 187.741 247.902ZM195.274 258.204C194.106 258.204 193.16 257.768 192.435 256.895C191.811 256.147 191.5 255.235 191.5 254.158C191.5 252.911 191.879 251.903 192.639 251.132C193.319 250.429 194.191 250.078 195.257 250.078C196.481 250.078 197.444 250.526 198.147 251.421C198.725 252.169 199.014 253.081 199.014 254.158C199.014 255.393 198.617 256.402 197.824 257.184C197.121 257.864 196.271 258.204 195.274 258.204ZM195.24 257.048C195.92 257.048 196.458 256.787 196.855 256.266C197.263 255.745 197.467 255.042 197.467 254.158C197.467 253.24 197.251 252.509 196.821 251.965C196.424 251.455 195.903 251.2 195.257 251.2C194.599 251.2 194.067 251.472 193.659 252.016C193.251 252.56 193.047 253.274 193.047 254.158C193.047 255.11 193.273 255.847 193.727 256.368C194.123 256.821 194.628 257.048 195.24 257.048ZM202.517 251.047H202.602C203.18 250.401 203.985 250.078 205.016 250.078C206.909 250.078 207.855 251.189 207.855 253.41V258H206.393V253.495C206.393 252.056 205.758 251.336 204.489 251.336C204.138 251.336 203.781 251.421 203.418 251.591C203.055 251.761 202.789 251.965 202.619 252.203V258H201.157V250.282H202.381L202.517 251.047ZM214.62 251.676C214.053 251.359 213.43 251.2 212.75 251.2C212.376 251.2 212.075 251.291 211.849 251.472C211.622 251.642 211.509 251.874 211.509 252.169C211.509 252.498 211.611 252.753 211.815 252.934C212.03 253.104 212.427 253.268 213.005 253.427C213.877 253.676 214.484 253.943 214.824 254.226C215.288 254.623 215.521 255.184 215.521 255.909C215.521 256.6 215.266 257.156 214.756 257.575C214.257 257.994 213.594 258.204 212.767 258.204C211.667 258.204 210.715 257.898 209.911 257.286L210.421 256.47C211.055 256.867 211.764 257.065 212.546 257.065C213.588 257.065 214.11 256.668 214.11 255.875C214.11 255.535 213.996 255.28 213.77 255.11C213.554 254.929 213.135 254.759 212.512 254.6C210.857 254.192 210.03 253.393 210.03 252.203C210.03 251.591 210.273 251.087 210.761 250.69C211.259 250.282 211.883 250.078 212.631 250.078C213.583 250.078 214.416 250.344 215.13 250.877L214.62 251.676ZM227.475 258H226.336L226.166 257.201C225.554 257.87 224.726 258.204 223.684 258.204C222.89 258.204 222.261 257.989 221.797 257.558C221.343 257.116 221.117 256.521 221.117 255.773C221.117 254.923 221.462 254.271 222.154 253.818C222.856 253.353 223.848 253.121 225.129 253.121H226.03V253.036C226.03 251.857 225.435 251.268 224.245 251.268C223.485 251.268 222.777 251.512 222.12 251.999L221.678 251.217C222.562 250.458 223.576 250.078 224.721 250.078C226.557 250.078 227.475 251.172 227.475 253.359V258ZM226.013 254.107H225.265C223.519 254.107 222.647 254.628 222.647 255.671C222.647 256.102 222.771 256.442 223.021 256.691C223.281 256.94 223.627 257.065 224.058 257.065C224.488 257.065 224.891 256.957 225.265 256.742C225.639 256.515 225.888 256.232 226.013 255.892V254.107ZM231.404 251.047H231.489C232.067 250.401 232.871 250.078 233.903 250.078C235.795 250.078 236.742 251.189 236.742 253.41V258H235.28V253.495C235.28 252.056 234.645 251.336 233.376 251.336C233.024 251.336 232.667 251.421 232.305 251.591C231.942 251.761 231.676 251.965 231.506 252.203V258H230.044V250.282H231.268L231.404 251.047ZM244.849 258L244.628 257.184C244.118 257.864 243.353 258.204 242.333 258.204C241.189 258.204 240.288 257.785 239.63 256.946C239.075 256.243 238.797 255.359 238.797 254.294C238.797 252.889 239.205 251.801 240.021 251.03C240.679 250.395 241.478 250.078 242.418 250.078C243.28 250.078 243.982 250.35 244.526 250.894V247.885L245.988 247.069V258H244.849ZM244.526 255.569V252.509C244.447 252.158 244.22 251.852 243.846 251.591C243.484 251.33 243.093 251.2 242.673 251.2C241.982 251.2 241.421 251.472 240.99 252.016C240.56 252.56 240.344 253.263 240.344 254.124C240.344 255.11 240.571 255.864 241.024 256.385C241.421 256.838 241.931 257.065 242.554 257.065C242.985 257.065 243.387 256.923 243.761 256.64C244.147 256.345 244.402 255.988 244.526 255.569ZM35.631 277.184C34.475 277.864 33.2567 278.204 31.976 278.204C30.3894 278.204 29.1767 277.558 28.338 276.266C27.692 275.269 27.369 274.062 27.369 272.645C27.369 271.104 27.8167 269.778 28.712 268.667C29.5847 267.579 30.6954 267.035 32.044 267.035C33.166 267.035 34.2144 267.426 35.189 268.208L34.56 269.16C33.7894 268.65 32.996 268.395 32.18 268.395C31.2394 268.395 30.4744 268.803 29.885 269.619C29.3184 270.401 29.035 271.432 29.035 272.713C29.035 274.084 29.358 275.138 30.004 275.875C30.5594 276.521 31.3074 276.844 32.248 276.844C32.8827 276.844 33.5004 276.725 34.101 276.487V273.546H32.18V272.169H35.631V277.184ZM44.5008 274.634H39.0608C39.1401 275.382 39.4121 275.977 39.8768 276.419C40.3415 276.85 40.9365 277.065 41.6618 277.065C42.3645 277.065 43.0785 276.85 43.8038 276.419L44.2458 277.252C43.4525 277.887 42.5118 278.204 41.4238 278.204C40.1771 278.204 39.1855 277.813 38.4488 277.031C37.7688 276.306 37.4288 275.354 37.4288 274.175C37.4288 272.974 37.7971 271.971 38.5338 271.166C39.2025 270.441 40.0241 270.078 40.9988 270.078C42.1888 270.078 43.1011 270.526 43.7358 271.421C44.2458 272.135 44.5008 273.036 44.5008 274.124V274.634ZM39.0098 273.495H43.0048C42.9821 272.758 42.7951 272.192 42.4438 271.795C42.1038 271.387 41.6391 271.183 41.0498 271.183C40.4831 271.183 40.0128 271.393 39.6388 271.812C39.2761 272.231 39.0665 272.792 39.0098 273.495ZM47.998 271.047H48.083C48.661 270.401 49.4657 270.078 50.497 270.078C52.3897 270.078 53.336 271.189 53.336 273.41V278H51.874V273.495C51.874 272.056 51.2393 271.336 49.97 271.336C49.6187 271.336 49.2617 271.421 48.899 271.591C48.5363 271.761 48.27 271.965 48.1 272.203V278H46.638V270.282H47.862L47.998 271.047ZM62.4637 274.634H57.0237C57.103 275.382 57.375 275.977 57.8397 276.419C58.3044 276.85 58.8994 277.065 59.6247 277.065C60.3274 277.065 61.0414 276.85 61.7667 276.419L62.2087 277.252C61.4154 277.887 60.4747 278.204 59.3867 278.204C58.14 278.204 57.1484 277.813 56.4117 277.031C55.7317 276.306 55.3917 275.354 55.3917 274.175C55.3917 272.974 55.76 271.971 56.4967 271.166C57.1654 270.441 57.987 270.078 58.9617 270.078C60.1517 270.078 61.064 270.526 61.6987 271.421C62.2087 272.135 62.4637 273.036 62.4637 274.124V274.634ZM56.9727 273.495H60.9677C60.945 272.758 60.758 272.192 60.4067 271.795C60.0667 271.387 59.602 271.183 59.0127 271.183C58.446 271.183 57.9757 271.393 57.6017 271.812C57.239 272.231 57.0294 272.792 56.9727 273.495ZM65.9949 271.047H66.0629C66.5956 270.401 67.2189 270.078 67.9329 270.078C68.8396 270.078 69.5082 270.429 69.9389 271.132L68.7149 271.897C68.3409 271.523 67.9329 271.336 67.4909 271.336C66.9242 271.336 66.4482 271.625 66.0629 272.203V278H64.6009V270.282H65.8589L65.9949 271.047ZM77.0397 278H75.9007L75.7307 277.201C75.1187 277.87 74.2914 278.204 73.2487 278.204C72.4554 278.204 71.8264 277.989 71.3617 277.558C70.9084 277.116 70.6817 276.521 70.6817 275.773C70.6817 274.923 71.0274 274.271 71.7187 273.818C72.4214 273.353 73.4131 273.121 74.6937 273.121H75.5947V273.036C75.5947 271.857 74.9997 271.268 73.8097 271.268C73.0504 271.268 72.3421 271.512 71.6847 271.999L71.2427 271.217C72.1267 270.458 73.1411 270.078 74.2857 270.078C76.1217 270.078 77.0397 271.172 77.0397 273.359V278ZM75.5777 274.107H74.8297C73.0844 274.107 72.2117 274.628 72.2117 275.671C72.2117 276.102 72.3364 276.442 72.5857 276.691C72.8464 276.94 73.1921 277.065 73.6227 277.065C74.0534 277.065 74.4557 276.957 74.8297 276.742C75.2037 276.515 75.4531 276.232 75.5777 275.892V274.107ZM81.6147 271.472L81.5977 275.96C81.5977 276.708 81.881 277.082 82.4477 277.082C82.8444 277.082 83.2354 276.969 83.6207 276.742L84.1307 277.524C83.5074 277.989 82.833 278.221 82.1077 278.221C80.793 278.221 80.1357 277.501 80.1357 276.062V271.472H78.9967V270.282H80.1527V268.701L81.6147 267.936V270.282H83.9267V271.472H81.6147ZM92.5623 274.634H87.1223C87.2016 275.382 87.4736 275.977 87.9383 276.419C88.403 276.85 88.998 277.065 89.7233 277.065C90.426 277.065 91.14 276.85 91.8653 276.419L92.3073 277.252C91.514 277.887 90.5733 278.204 89.4853 278.204C88.2386 278.204 87.247 277.813 86.5103 277.031C85.8303 276.306 85.4903 275.354 85.4903 274.175C85.4903 272.974 85.8586 271.971 86.5953 271.166C87.264 270.441 88.0856 270.078 89.0603 270.078C90.2503 270.078 91.1626 270.526 91.7973 271.421C92.3073 272.135 92.5623 273.036 92.5623 274.124V274.634ZM87.0713 273.495H91.0663C91.0436 272.758 90.8567 272.192 90.5053 271.795C90.1653 271.387 89.7007 271.183 89.1113 271.183C88.5446 271.183 88.0743 271.393 87.7003 271.812C87.3376 272.231 87.128 272.792 87.0713 273.495ZM97.5963 267.239H99.2793L102.033 272.475L104.77 267.239H106.453L102.815 273.767V278H101.251V273.767L97.5963 267.239ZM110.182 278.204C109.015 278.204 108.069 277.768 107.343 276.895C106.72 276.147 106.408 275.235 106.408 274.158C106.408 272.911 106.788 271.903 107.547 271.132C108.227 270.429 109.1 270.078 110.165 270.078C111.389 270.078 112.353 270.526 113.055 271.421C113.633 272.169 113.922 273.081 113.922 274.158C113.922 275.393 113.526 276.402 112.732 277.184C112.03 277.864 111.18 278.204 110.182 278.204ZM110.148 277.048C110.828 277.048 111.367 276.787 111.763 276.266C112.171 275.745 112.375 275.042 112.375 274.158C112.375 273.24 112.16 272.509 111.729 271.965C111.333 271.455 110.811 271.2 110.165 271.2C109.508 271.2 108.975 271.472 108.567 272.016C108.159 272.56 107.955 273.274 107.955 274.158C107.955 275.11 108.182 275.847 108.635 276.368C109.032 276.821 109.536 277.048 110.148 277.048ZM121.03 270.282H122.492V278H121.37L121.251 277.116H121.149C120.888 277.433 120.531 277.694 120.078 277.898C119.636 278.102 119.199 278.204 118.769 278.204C116.967 278.204 116.066 277.105 116.066 274.906V270.282H117.528V274.583C117.528 276.158 118.094 276.946 119.228 276.946C119.556 276.946 119.896 276.861 120.248 276.691C120.599 276.521 120.86 276.317 121.03 276.079V270.282ZM126.541 271.047H126.609C127.141 270.401 127.765 270.078 128.479 270.078C129.385 270.078 130.054 270.429 130.485 271.132L129.261 271.897C128.887 271.523 128.479 271.336 128.037 271.336C127.47 271.336 126.994 271.625 126.609 272.203V278H125.147V270.282H126.405L126.541 271.047ZM136.241 267.256C137.091 267.109 137.992 267.035 138.944 267.035C140.814 267.035 142.248 267.596 143.245 268.718C144.095 269.67 144.52 270.934 144.52 272.509C144.52 274.424 143.988 275.881 142.922 276.878C141.982 277.762 140.69 278.204 139.046 278.204C138.026 278.204 137.091 278.13 136.241 277.983V267.256ZM137.822 276.827C138.185 276.906 138.593 276.946 139.046 276.946C140.327 276.946 141.296 276.538 141.953 275.722C142.554 274.974 142.854 273.926 142.854 272.577C142.854 271.126 142.435 270.016 141.596 269.245C140.916 268.61 140.049 268.293 138.995 268.293C138.531 268.293 138.14 268.333 137.822 268.412V276.827ZM149.96 278.204C148.792 278.204 147.846 277.768 147.121 276.895C146.497 276.147 146.186 275.235 146.186 274.158C146.186 272.911 146.565 271.903 147.325 271.132C148.005 270.429 148.877 270.078 149.943 270.078C151.167 270.078 152.13 270.526 152.833 271.421C153.411 272.169 153.7 273.081 153.7 274.158C153.7 275.393 153.303 276.402 152.51 277.184C151.807 277.864 150.957 278.204 149.96 278.204ZM149.926 277.048C150.606 277.048 151.144 276.787 151.541 276.266C151.949 275.745 152.153 275.042 152.153 274.158C152.153 273.24 151.937 272.509 151.507 271.965C151.11 271.455 150.589 271.2 149.943 271.2C149.285 271.2 148.753 271.472 148.345 272.016C147.937 272.56 147.733 273.274 147.733 274.158C147.733 275.11 147.959 275.847 148.413 276.368C148.809 276.821 149.314 277.048 149.926 277.048ZM161.98 277.218C161.323 277.875 160.439 278.204 159.328 278.204C158.059 278.204 157.05 277.785 156.302 276.946C155.656 276.209 155.333 275.286 155.333 274.175C155.333 272.928 155.752 271.908 156.591 271.115C157.316 270.424 158.195 270.078 159.226 270.078C160.223 270.078 161.102 270.384 161.861 270.996L161.453 271.812C160.852 271.404 160.195 271.2 159.481 271.2C158.722 271.2 158.098 271.483 157.611 272.05C157.124 272.617 156.88 273.342 156.88 274.226C156.88 275.087 157.152 275.79 157.696 276.334C158.195 276.821 158.818 277.065 159.566 277.065C160.337 277.065 160.988 276.833 161.521 276.368L161.98 277.218ZM168.992 270.282H170.454V278H169.332L169.213 277.116H169.111C168.85 277.433 168.493 277.694 168.04 277.898C167.598 278.102 167.161 278.204 166.731 278.204C164.929 278.204 164.028 277.105 164.028 274.906V270.282H165.49V274.583C165.49 276.158 166.056 276.946 167.19 276.946C167.518 276.946 167.858 276.861 168.21 276.691C168.561 276.521 168.822 276.317 168.992 276.079V270.282ZM174.469 271.047H174.554C175.132 270.401 175.931 270.078 176.951 270.078C178.231 270.078 179.064 270.537 179.45 271.455C180.107 270.537 181.042 270.078 182.255 270.078C184.113 270.078 185.043 271.177 185.043 273.376V278H183.581V273.699C183.581 272.849 183.428 272.243 183.122 271.88C182.827 271.517 182.328 271.336 181.626 271.336C180.923 271.336 180.283 271.648 179.705 272.271C179.773 272.588 179.807 272.957 179.807 273.376V278H178.345V273.58C178.345 272.798 178.186 272.231 177.869 271.88C177.563 271.517 177.064 271.336 176.373 271.336C176.044 271.336 175.704 271.421 175.353 271.591C175.001 271.761 174.741 271.965 174.571 272.203V278H173.109V270.282H174.333L174.469 271.047ZM194.164 274.634H188.724C188.803 275.382 189.075 275.977 189.54 276.419C190.005 276.85 190.6 277.065 191.325 277.065C192.028 277.065 192.742 276.85 193.467 276.419L193.909 277.252C193.116 277.887 192.175 278.204 191.087 278.204C189.84 278.204 188.849 277.813 188.112 277.031C187.432 276.306 187.092 275.354 187.092 274.175C187.092 272.974 187.46 271.971 188.197 271.166C188.866 270.441 189.687 270.078 190.662 270.078C191.852 270.078 192.764 270.526 193.399 271.421C193.909 272.135 194.164 273.036 194.164 274.124V274.634ZM188.673 273.495H192.668C192.645 272.758 192.458 272.192 192.107 271.795C191.767 271.387 191.302 271.183 190.713 271.183C190.146 271.183 189.676 271.393 189.302 271.812C188.939 272.231 188.73 272.792 188.673 273.495ZM197.661 271.047H197.746C198.324 270.401 199.129 270.078 200.16 270.078C202.053 270.078 202.999 271.189 202.999 273.41V278H201.537V273.495C201.537 272.056 200.902 271.336 199.633 271.336C199.282 271.336 198.925 271.421 198.562 271.591C198.199 271.761 197.933 271.965 197.763 272.203V278H196.301V270.282H197.525L197.661 271.047ZM207.405 271.472L207.388 275.96C207.388 276.708 207.671 277.082 208.238 277.082C208.634 277.082 209.025 276.969 209.411 276.742L209.921 277.524C209.297 277.989 208.623 278.221 207.898 278.221C206.583 278.221 205.926 277.501 205.926 276.062V271.472H204.787V270.282H205.943V268.701L207.405 267.936V270.282H209.717V271.472H207.405ZM217.692 267.239V278H216.128V267.239H217.692ZM221.916 271.047H222.001C222.579 270.401 223.384 270.078 224.415 270.078C226.308 270.078 227.254 271.189 227.254 273.41V278H225.792V273.495C225.792 272.056 225.157 271.336 223.888 271.336C223.537 271.336 223.18 271.421 222.817 271.591C222.454 271.761 222.188 271.965 222.018 272.203V278H220.556V270.282H221.78L221.916 271.047ZM234.019 271.676C233.452 271.359 232.829 271.2 232.149 271.2C231.775 271.2 231.474 271.291 231.248 271.472C231.021 271.642 230.908 271.874 230.908 272.169C230.908 272.498 231.01 272.753 231.214 272.934C231.429 273.104 231.826 273.268 232.404 273.427C233.276 273.676 233.883 273.943 234.223 274.226C234.687 274.623 234.92 275.184 234.92 275.909C234.92 276.6 234.665 277.156 234.155 277.575C233.656 277.994 232.993 278.204 232.166 278.204C231.066 278.204 230.114 277.898 229.31 277.286L229.82 276.47C230.454 276.867 231.163 277.065 231.945 277.065C232.987 277.065 233.509 276.668 233.509 275.875C233.509 275.535 233.395 275.28 233.169 275.11C232.953 274.929 232.534 274.759 231.911 274.6C230.256 274.192 229.429 273.393 229.429 272.203C229.429 271.591 229.672 271.087 230.16 270.69C230.658 270.282 231.282 270.078 232.03 270.078C232.982 270.078 233.815 270.344 234.529 270.877L234.019 271.676ZM239.064 271.472L239.047 275.96C239.047 276.708 239.33 277.082 239.897 277.082C240.294 277.082 240.685 276.969 241.07 276.742L241.58 277.524C240.957 277.989 240.282 278.221 239.557 278.221C238.242 278.221 237.585 277.501 237.585 276.062V271.472H236.446V270.282H237.602V268.701L239.064 267.936V270.282H241.376V271.472H239.064ZM249.464 278H248.325L248.155 277.201C247.543 277.87 246.715 278.204 245.673 278.204C244.879 278.204 244.25 277.989 243.786 277.558C243.332 277.116 243.106 276.521 243.106 275.773C243.106 274.923 243.451 274.271 244.143 273.818C244.845 273.353 245.837 273.121 247.118 273.121H248.019V273.036C248.019 271.857 247.424 271.268 246.234 271.268C245.474 271.268 244.766 271.512 244.109 271.999L243.667 271.217C244.551 270.458 245.565 270.078 246.71 270.078C248.546 270.078 249.464 271.172 249.464 273.359V278ZM248.002 274.107H247.254C245.508 274.107 244.636 274.628 244.636 275.671C244.636 276.102 244.76 276.442 245.01 276.691C245.27 276.94 245.616 277.065 246.047 277.065C246.477 277.065 246.88 276.957 247.254 276.742C247.628 276.515 247.877 276.232 248.002 275.892V274.107ZM253.393 271.047H253.478C254.056 270.401 254.86 270.078 255.892 270.078C257.784 270.078 258.731 271.189 258.731 273.41V278H257.269V273.495C257.269 272.056 256.634 271.336 255.365 271.336C255.013 271.336 254.656 271.421 254.294 271.591C253.931 271.761 253.665 271.965 253.495 272.203V278H252.033V270.282H253.257L253.393 271.047ZM263.136 271.472L263.119 275.96C263.119 276.708 263.403 277.082 263.969 277.082C264.366 277.082 264.757 276.969 265.142 276.742L265.652 277.524C265.029 277.989 264.355 278.221 263.629 278.221C262.315 278.221 261.657 277.501 261.657 276.062V271.472H260.518V270.282H261.674V268.701L263.136 267.936V270.282H265.448V271.472H263.136ZM269.15 267.035V278H267.688V267.817L269.15 267.035ZM278.231 270.282L274.916 279.156C274.383 280.55 273.664 281.247 272.757 281.247C272.145 281.247 271.51 281.003 270.853 280.516L271.295 279.768C271.68 279.995 272.015 280.108 272.298 280.108C272.819 280.108 273.233 279.734 273.539 278.986L273.93 278H273.624L270.734 270.282H272.247L274.44 276.402L276.701 270.282H278.231Z" fill="#585858"/>
<path fill-rule="evenodd" clip-rule="evenodd" d="M155 188H150C145.286 188 142.929 188 141.465 186.535C140.001 185.07 140 182.714 140 178V173C140 168.286 140 165.929 141.465 164.465C142.93 163.001 145.299 163 150.037 163C150.795 163 151.401 163 151.912 163.021C151.896 163.121 151.888 163.223 151.888 163.326L151.875 166.869C151.875 168.24 151.875 169.452 152.006 170.429C152.149 171.488 152.475 172.546 153.34 173.411C154.203 174.274 155.262 174.601 156.321 174.744C157.298 174.875 158.51 174.875 159.881 174.875H164.946C165 175.542 165 176.362 165 177.454V178C165 182.714 165 185.071 163.535 186.535C162.07 187.999 159.714 188 155 188Z" fill="#0F898C"/>
<path d="M161.69 170.021L156.74 165.568C155.331 164.299 154.627 163.664 153.761 163.333L153.75 166.75C153.75 169.696 153.75 171.17 154.665 172.085C155.58 173 157.054 173 160 173H164.475C164.023 172.12 163.21 171.39 161.69 170.021Z" fill="#0F898C"/>
<defs>
<filter id="filter0_d_224_6731" x="0.727999" y="47.0812" width="302.319" height="37.4669" filterUnits="userSpaceOnUse" color-interpolation-filters="sRGB">
<feFlood flood-opacity="0" result="BackgroundImageFix"/>
<feColorMatrix in="SourceAlpha" type="matrix" values="0 0 0 0 0 0 0 0 0 0 0 0 0 0 0 0 0 0 127 0" result="hardAlpha"/>
<feOffset dy="-6.4598"/>
<feGaussianBlur stdDeviation="9.136"/>
<feComposite in2="hardAlpha" operator="out"/>
<feColorMatrix type="matrix" values="0 0 0 0 0 0 0 0 0 0 0 0 0 0 0 0 0 0 0.88 0"/>
<feBlend mode="normal" in2="BackgroundImageFix" result="effect1_dropShadow_224_6731"/>
<feBlend mode="normal" in="SourceGraphic" in2="effect1_dropShadow_224_6731" result="shape"/>
</filter>
<filter id="filter1_d_224_6731" x="96.6953" y="19.3862" width="163.563" height="158.958" filterUnits="userSpaceOnUse" color-interpolation-filters="sRGB">
<feFlood flood-opacity="0" result="BackgroundImageFix"/>
<feColorMatrix in="SourceAlpha" type="matrix" values="0 0 0 0 0 0 0 0 0 0 0 0 0 0 0 0 0 0 127 0" result="hardAlpha"/>
<feOffset dx="32.299" dy="27.6849"/>
<feGaussianBlur stdDeviation="11.5354"/>
<feComposite in2="hardAlpha" operator="out"/>
<feColorMatrix type="matrix" values="0 0 0 0 0 0 0 0 0 0 0 0 0 0 0 0 0 0 0.1 0"/>
<feBlend mode="normal" in2="BackgroundImageFix" result="effect1_dropShadow_224_6731"/>
<feBlend mode="normal" in="SourceGraphic" in2="effect1_dropShadow_224_6731" result="shape"/>
</filter>
<linearGradient id="paint0_linear_224_6731" x1="188.989" y1="111.691" x2="112.591" y2="35.289" gradientUnits="userSpaceOnUse">
<stop stop-color="#EBEAEA"/>
<stop offset="1" stop-color="white"/>
</linearGradient>
</defs>
</svg>
