<svg width="303" height="286" viewBox="0 0 303 286" fill="none" xmlns="http://www.w3.org/2000/svg">
<g filter="url(#filter0_d_224_6747)">
<line x1="18.7754" y1="72.2739" x2="284.55" y2="72.2739" stroke="white" stroke-width="0.922828"/>
</g>
<rect x="18.7754" y="72.7354" width="265.775" height="42.4501" fill="white"/>
<path d="M210.765 73.4914H207.817C207.817 41.9321 182.14 16.2583 150.584 16.2583C119.028 16.2583 93.3305 41.9286 93.3305 73.4914H90.3652C90.3652 40.2955 117.371 13.2861 150.571 13.2861C183.77 13.2861 210.765 40.2955 210.765 73.4914Z" fill="#2E4272"/>
<g filter="url(#filter1_d_224_6747)">
<path d="M96.4842 74.8544C96.8343 88.7322 102.506 101.944 112.326 111.757C122.146 121.57 135.362 127.232 149.24 127.572C179.931 128.309 205.262 103.085 204.65 72.3908C204.451 62.5413 201.567 52.9328 196.309 44.6021C191.05 36.2715 183.616 29.5349 174.81 25.1193C171.058 23.2285 167.097 21.7861 163.008 20.8219C159.289 19.9481 155.488 19.4703 151.669 19.3964C120.947 18.7909 95.7091 44.1393 96.4842 74.8544Z" fill="url(#paint0_linear_224_6747)"/>
</g>
<path d="M187.185 109.782C207.311 89.6565 207.377 57.0925 187.332 37.0482C167.288 17.0038 134.724 17.0696 114.598 37.195C94.4731 57.3204 94.4073 89.8844 114.452 109.929C134.496 129.973 167.06 129.907 187.185 109.782Z" fill="#F9F9F9"/>
<path d="M141.688 59.9856C144.399 59.9856 146.595 61.2824 148.277 63.8758C149.679 66.0252 150.38 68.5836 150.38 71.5508C150.38 75.1022 149.492 77.9526 147.716 80.1021C146.128 82.0413 144.118 83.0109 141.688 83.0109C138.861 83.0109 136.665 81.7726 135.1 79.296C133.768 77.2166 133.102 74.6349 133.102 71.5508C133.102 68.093 133.978 65.2542 135.731 63.0347C137.296 61.002 139.282 59.9856 141.688 59.9856ZM141.758 64.1912C139.399 64.1912 138.219 66.5743 138.219 71.3406C138.219 73.7471 138.558 75.6395 139.235 77.018C139.843 78.2563 140.649 78.8755 141.653 78.8755C142.775 78.8755 143.651 78.2096 144.282 76.8778C144.936 75.5461 145.263 73.7003 145.263 71.3406C145.263 66.5743 144.095 64.1912 141.758 64.1912ZM153.234 82.5903V78.4199L158.631 72.0765C160.22 70.2308 161.19 69.0158 161.54 68.4317C161.891 67.8476 162.066 67.1584 162.066 66.364C162.066 65.7098 161.832 65.1725 161.365 64.7519C160.898 64.3314 160.314 64.1211 159.613 64.1211C158.234 64.1211 156.704 64.6935 155.022 65.8383L152.954 62.8244C155.361 60.9085 157.884 59.9506 160.524 59.9506C162.557 59.9506 164.169 60.488 165.36 61.5627C166.552 62.6141 167.148 64.1094 167.148 66.0486C167.148 68.0579 166.26 70.2658 164.484 72.6723C163.807 73.5835 162.066 75.5811 159.262 78.6652H166.972V82.5903H153.234Z" fill="#2E4272"/>
<path d="M63.2898 246.322C64.1398 246.175 65.0408 246.101 65.9928 246.101C67.8628 246.101 69.2964 246.662 70.2938 247.784C71.1438 248.736 71.5688 250 71.5688 251.575C71.5688 253.491 71.0361 254.947 69.9708 255.944C69.0301 256.828 67.7381 257.27 66.0948 257.27C65.0748 257.27 64.1398 257.197 63.2898 257.049V246.322ZM64.8708 255.893C65.2334 255.973 65.6414 256.012 66.0948 256.012C67.3754 256.012 68.3444 255.604 69.0018 254.788C69.6024 254.04 69.9028 252.992 69.9028 251.643C69.9028 250.193 69.4834 249.082 68.6448 248.311C67.9648 247.677 67.0978 247.359 66.0438 247.359C65.5791 247.359 65.1881 247.399 64.8708 247.478V255.893ZM77.008 257.27C75.8406 257.27 74.8943 256.834 74.169 255.961C73.5456 255.213 73.234 254.301 73.234 253.224C73.234 251.978 73.6136 250.969 74.373 250.198C75.053 249.496 75.9256 249.144 76.991 249.144C78.215 249.144 79.1783 249.592 79.881 250.487C80.459 251.235 80.748 252.148 80.748 253.224C80.748 254.46 80.3513 255.468 79.558 256.25C78.8553 256.93 78.0053 257.27 77.008 257.27ZM76.974 256.114C77.654 256.114 78.1923 255.854 78.589 255.332C78.997 254.811 79.201 254.108 79.201 253.224C79.201 252.306 78.9856 251.575 78.555 251.031C78.1583 250.521 77.637 250.266 76.991 250.266C76.3336 250.266 75.801 250.538 75.393 251.082C74.985 251.626 74.781 252.34 74.781 253.224C74.781 254.176 75.0076 254.913 75.461 255.434C75.8576 255.888 76.362 256.114 76.974 256.114ZM85.8494 257.066H84.4044L81.8204 249.348H83.3504L85.1184 255.315L86.7334 249.348H88.3314L89.8784 255.315L91.6634 249.348H93.2104L90.5754 257.066H89.1304L87.5154 251.201L85.8494 257.066ZM96.1548 250.113H96.2398C96.8178 249.467 97.6224 249.144 98.6538 249.144C100.546 249.144 101.493 250.255 101.493 252.476V257.066H100.031V252.561C100.031 251.122 99.3961 250.402 98.1268 250.402C97.7754 250.402 97.4184 250.487 97.0558 250.657C96.6931 250.827 96.4268 251.031 96.2568 251.269V257.066H94.7948V249.348H96.0188L96.1548 250.113ZM105.52 246.101V257.066H104.058V246.883L105.52 246.101ZM111.44 257.27C110.272 257.27 109.326 256.834 108.601 255.961C107.977 255.213 107.666 254.301 107.666 253.224C107.666 251.978 108.045 250.969 108.805 250.198C109.485 249.496 110.357 249.144 111.423 249.144C112.647 249.144 113.61 249.592 114.313 250.487C114.891 251.235 115.18 252.148 115.18 253.224C115.18 254.46 114.783 255.468 113.99 256.25C113.287 256.93 112.437 257.27 111.44 257.27ZM111.406 256.114C112.086 256.114 112.624 255.854 113.021 255.332C113.429 254.811 113.633 254.108 113.633 253.224C113.633 252.306 113.417 251.575 112.987 251.031C112.59 250.521 112.069 250.266 111.423 250.266C110.765 250.266 110.233 250.538 109.825 251.082C109.417 251.626 109.213 252.34 109.213 253.224C109.213 254.176 109.439 254.913 109.893 255.434C110.289 255.888 110.794 256.114 111.406 256.114ZM123.171 257.066H122.032L121.862 256.267C121.25 256.936 120.423 257.27 119.38 257.27C118.587 257.27 117.958 257.055 117.493 256.624C117.04 256.182 116.813 255.587 116.813 254.839C116.813 253.989 117.159 253.338 117.85 252.884C118.553 252.42 119.544 252.187 120.825 252.187H121.726V252.102C121.726 250.924 121.131 250.334 119.941 250.334C119.182 250.334 118.473 250.578 117.816 251.065L117.374 250.283C118.258 249.524 119.272 249.144 120.417 249.144C122.253 249.144 123.171 250.238 123.171 252.425V257.066ZM121.709 253.173H120.961C119.216 253.173 118.343 253.695 118.343 254.737C118.343 255.168 118.468 255.508 118.717 255.757C118.978 256.007 119.323 256.131 119.754 256.131C120.185 256.131 120.587 256.024 120.961 255.808C121.335 255.582 121.584 255.298 121.709 254.958V253.173ZM131.282 257.066L131.061 256.25C130.551 256.93 129.786 257.27 128.766 257.27C127.621 257.27 126.72 256.851 126.063 256.012C125.508 255.31 125.23 254.426 125.23 253.36C125.23 251.955 125.638 250.867 126.454 250.096C127.111 249.462 127.91 249.144 128.851 249.144C129.712 249.144 130.415 249.416 130.959 249.96V246.951L132.421 246.135V257.066H131.282ZM130.959 254.635V251.575C130.88 251.224 130.653 250.918 130.279 250.657C129.916 250.397 129.525 250.266 129.106 250.266C128.415 250.266 127.854 250.538 127.423 251.082C126.992 251.626 126.777 252.329 126.777 253.19C126.777 254.176 127.004 254.93 127.457 255.451C127.854 255.905 128.364 256.131 128.987 256.131C129.418 256.131 129.82 255.99 130.194 255.706C130.579 255.412 130.834 255.055 130.959 254.635ZM141.044 250.538L141.027 255.026C141.027 255.774 141.31 256.148 141.877 256.148C142.274 256.148 142.665 256.035 143.05 255.808L143.56 256.59C142.937 257.055 142.262 257.287 141.537 257.287C140.222 257.287 139.565 256.568 139.565 255.128V250.538H138.426V249.348H139.582V247.767L141.044 247.002V249.348H143.356V250.538H141.044ZM147.058 246.101V250.198C147.692 249.496 148.491 249.144 149.455 249.144C151.347 249.144 152.294 250.255 152.294 252.476V257.066H150.832V252.561C150.832 251.122 150.197 250.402 148.928 250.402C148.576 250.402 148.219 250.487 147.857 250.657C147.494 250.827 147.228 251.031 147.058 251.269V257.066H145.596V246.883L147.058 246.101ZM161.421 253.7H155.981C156.061 254.448 156.333 255.043 156.797 255.485C157.262 255.916 157.857 256.131 158.582 256.131C159.285 256.131 159.999 255.916 160.724 255.485L161.166 256.318C160.373 256.953 159.432 257.27 158.344 257.27C157.098 257.27 156.106 256.879 155.369 256.097C154.689 255.372 154.349 254.42 154.349 253.241C154.349 252.04 154.718 251.037 155.454 250.232C156.123 249.507 156.945 249.144 157.919 249.144C159.109 249.144 160.022 249.592 160.656 250.487C161.166 251.201 161.421 252.102 161.421 253.19V253.7ZM155.93 252.561H159.925C159.903 251.825 159.716 251.258 159.364 250.861C159.024 250.453 158.56 250.249 157.97 250.249C157.404 250.249 156.933 250.459 156.559 250.878C156.197 251.298 155.987 251.859 155.93 252.561ZM173.068 257.066L172.847 256.25C172.337 256.93 171.572 257.27 170.552 257.27C169.408 257.27 168.507 256.851 167.849 256.012C167.294 255.31 167.016 254.426 167.016 253.36C167.016 251.955 167.424 250.867 168.24 250.096C168.898 249.462 169.697 249.144 170.637 249.144C171.499 249.144 172.201 249.416 172.745 249.96V246.951L174.207 246.135V257.066H173.068ZM172.745 254.635V251.575C172.666 251.224 172.439 250.918 172.065 250.657C171.703 250.397 171.312 250.266 170.892 250.266C170.201 250.266 169.64 250.538 169.209 251.082C168.779 251.626 168.563 252.329 168.563 253.19C168.563 254.176 168.79 254.93 169.243 255.451C169.64 255.905 170.15 256.131 170.773 256.131C171.204 256.131 171.606 255.99 171.98 255.706C172.366 255.412 172.621 255.055 172.745 254.635ZM180.12 257.27C178.953 257.27 178.007 256.834 177.281 255.961C176.658 255.213 176.346 254.301 176.346 253.224C176.346 251.978 176.726 250.969 177.485 250.198C178.165 249.496 179.038 249.144 180.103 249.144C181.327 249.144 182.291 249.592 182.993 250.487C183.571 251.235 183.86 252.148 183.86 253.224C183.86 254.46 183.464 255.468 182.67 256.25C181.968 256.93 181.118 257.27 180.12 257.27ZM180.086 256.114C180.766 256.114 181.305 255.854 181.701 255.332C182.109 254.811 182.313 254.108 182.313 253.224C182.313 252.306 182.098 251.575 181.667 251.031C181.271 250.521 180.749 250.266 180.103 250.266C179.446 250.266 178.913 250.538 178.505 251.082C178.097 251.626 177.893 252.34 177.893 253.224C177.893 254.176 178.12 254.913 178.573 255.434C178.97 255.888 179.474 256.114 180.086 256.114ZM192.141 256.284C191.483 256.942 190.599 257.27 189.489 257.27C188.219 257.27 187.211 256.851 186.463 256.012C185.817 255.276 185.494 254.352 185.494 253.241C185.494 251.995 185.913 250.975 186.752 250.181C187.477 249.49 188.355 249.144 189.387 249.144C190.384 249.144 191.262 249.45 192.022 250.062L191.614 250.878C191.013 250.47 190.356 250.266 189.642 250.266C188.882 250.266 188.259 250.55 187.772 251.116C187.284 251.683 187.041 252.408 187.041 253.292C187.041 254.154 187.313 254.856 187.857 255.4C188.355 255.888 188.979 256.131 189.727 256.131C190.497 256.131 191.149 255.899 191.682 255.434L192.141 256.284ZM199.152 249.348H200.614V257.066H199.492L199.373 256.182H199.271C199.011 256.5 198.654 256.76 198.2 256.964C197.758 257.168 197.322 257.27 196.891 257.27C195.089 257.27 194.188 256.171 194.188 253.972V249.348H195.65V253.649C195.65 255.225 196.217 256.012 197.35 256.012C197.679 256.012 198.019 255.927 198.37 255.757C198.722 255.587 198.982 255.383 199.152 255.145V249.348ZM204.629 250.113H204.714C205.292 249.467 206.091 249.144 207.111 249.144C208.392 249.144 209.225 249.603 209.61 250.521C210.268 249.603 211.203 249.144 212.415 249.144C214.274 249.144 215.203 250.244 215.203 252.442V257.066H213.741V252.765C213.741 251.915 213.588 251.309 213.282 250.946C212.988 250.584 212.489 250.402 211.786 250.402C211.084 250.402 210.443 250.714 209.865 251.337C209.933 251.655 209.967 252.023 209.967 252.442V257.066H208.505V252.646C208.505 251.864 208.347 251.298 208.029 250.946C207.723 250.584 207.225 250.402 206.533 250.402C206.205 250.402 205.865 250.487 205.513 250.657C205.162 250.827 204.901 251.031 204.731 251.269V257.066H203.269V249.348H204.493L204.629 250.113ZM224.325 253.7H218.885C218.964 254.448 219.236 255.043 219.701 255.485C220.165 255.916 220.76 256.131 221.486 256.131C222.188 256.131 222.902 255.916 223.628 255.485L224.07 256.318C223.276 256.953 222.336 257.27 221.248 257.27C220.001 257.27 219.009 256.879 218.273 256.097C217.593 255.372 217.253 254.42 217.253 253.241C217.253 252.04 217.621 251.037 218.358 250.232C219.026 249.507 219.848 249.144 220.823 249.144C222.013 249.144 222.925 249.592 223.56 250.487C224.07 251.201 224.325 252.102 224.325 253.19V253.7ZM218.834 252.561H222.829C222.806 251.825 222.619 251.258 222.268 250.861C221.928 250.453 221.463 250.249 220.874 250.249C220.307 250.249 219.837 250.459 219.463 250.878C219.1 251.298 218.89 251.859 218.834 252.561ZM227.822 250.113H227.907C228.485 249.467 229.289 249.144 230.321 249.144C232.213 249.144 233.16 250.255 233.16 252.476V257.066H231.698V252.561C231.698 251.122 231.063 250.402 229.794 250.402C229.442 250.402 229.085 250.487 228.723 250.657C228.36 250.827 228.094 251.031 227.924 251.269V257.066H226.462V249.348H227.686L227.822 250.113ZM237.565 250.538L237.548 255.026C237.548 255.774 237.832 256.148 238.398 256.148C238.795 256.148 239.186 256.035 239.571 255.808L240.081 256.59C239.458 257.055 238.784 257.287 238.058 257.287C236.744 257.287 236.086 256.568 236.086 255.128V250.538H234.947V249.348H236.103V247.767L237.565 247.002V249.348H239.877V250.538H237.565ZM128.641 277.066H127.502L127.332 276.267C126.72 276.936 125.893 277.27 124.85 277.27C124.057 277.27 123.428 277.055 122.963 276.624C122.51 276.182 122.283 275.587 122.283 274.839C122.283 273.989 122.629 273.338 123.32 272.884C124.023 272.42 125.015 272.187 126.295 272.187H127.196V272.102C127.196 270.924 126.601 270.334 125.411 270.334C124.652 270.334 123.944 270.578 123.286 271.065L122.844 270.283C123.728 269.524 124.743 269.144 125.887 269.144C127.723 269.144 128.641 270.238 128.641 272.425V277.066ZM127.179 273.173H126.431C124.686 273.173 123.813 273.695 123.813 274.737C123.813 275.168 123.938 275.508 124.187 275.757C124.448 276.007 124.794 276.131 125.224 276.131C125.655 276.131 126.057 276.024 126.431 275.808C126.805 275.582 127.055 275.298 127.179 274.958V273.173ZM132.57 270.113H132.655C133.233 269.467 134.038 269.144 135.069 269.144C136.962 269.144 137.908 270.255 137.908 272.476V277.066H136.446V272.561C136.446 271.122 135.812 270.402 134.542 270.402C134.191 270.402 133.834 270.487 133.471 270.657C133.109 270.827 132.842 271.031 132.672 271.269V277.066H131.21V269.348H132.434L132.57 270.113ZM146.9 269.348L143.585 278.222C143.052 279.616 142.333 280.313 141.426 280.313C140.814 280.313 140.179 280.07 139.522 279.582L139.964 278.834C140.349 279.061 140.684 279.174 140.967 279.174C141.488 279.174 141.902 278.8 142.208 278.052L142.599 277.066H142.293L139.403 269.348H140.916L143.109 275.468L145.37 269.348H146.9ZM150.482 270.538L150.465 275.026C150.465 275.774 150.748 276.148 151.315 276.148C151.712 276.148 152.103 276.035 152.488 275.808L152.998 276.59C152.375 277.055 151.7 277.287 150.975 277.287C149.66 277.287 149.003 276.568 149.003 275.128V270.538H147.864V269.348H149.02V267.767L150.482 267.002V269.348H152.794V270.538H150.482ZM156.53 269.348V277.066H155.068V269.348H156.53ZM154.949 266.968C154.949 266.73 155.034 266.526 155.204 266.356C155.374 266.186 155.578 266.101 155.816 266.101C156.054 266.101 156.258 266.186 156.428 266.356C156.609 266.526 156.7 266.73 156.7 266.968C156.7 267.218 156.615 267.427 156.445 267.597C156.275 267.767 156.065 267.852 155.816 267.852C155.566 267.852 155.357 267.767 155.187 267.597C155.028 267.427 154.949 267.218 154.949 266.968ZM160.577 270.113H160.662C161.24 269.467 162.039 269.144 163.059 269.144C164.34 269.144 165.173 269.603 165.558 270.521C166.215 269.603 167.15 269.144 168.363 269.144C170.222 269.144 171.151 270.244 171.151 272.442V277.066H169.689V272.765C169.689 271.915 169.536 271.309 169.23 270.946C168.935 270.584 168.437 270.402 167.734 270.402C167.031 270.402 166.391 270.714 165.813 271.337C165.881 271.655 165.915 272.023 165.915 272.442V277.066H164.453V272.646C164.453 271.864 164.294 271.298 163.977 270.946C163.671 270.584 163.172 270.402 162.481 270.402C162.152 270.402 161.812 270.487 161.461 270.657C161.11 270.827 160.849 271.031 160.679 271.269V277.066H159.217V269.348H160.441L160.577 270.113ZM180.272 273.7H174.832C174.912 274.448 175.184 275.043 175.648 275.485C176.113 275.916 176.708 276.131 177.433 276.131C178.136 276.131 178.85 275.916 179.575 275.485L180.017 276.318C179.224 276.953 178.283 277.27 177.195 277.27C175.949 277.27 174.957 276.879 174.22 276.097C173.54 275.372 173.2 274.42 173.2 273.241C173.2 272.04 173.569 271.037 174.305 270.232C174.974 269.507 175.796 269.144 176.77 269.144C177.96 269.144 178.873 269.592 179.507 270.487C180.017 271.201 180.272 272.102 180.272 273.19V273.7ZM174.781 272.561H178.776C178.754 271.825 178.567 271.258 178.215 270.861C177.875 270.453 177.411 270.249 176.821 270.249C176.255 270.249 175.784 270.459 175.41 270.878C175.048 271.298 174.838 271.859 174.781 272.561Z" fill="#585858"/>
<path d="M93.2007 209.218C92.9367 209.614 92.526 210.208 91.9687 211C90.7953 210.487 89.7467 210.23 88.8227 210.23C87.6053 210.23 86.9967 210.685 86.9967 211.594C86.9967 212.005 87.136 212.327 87.4147 212.562C87.6933 212.797 88.2727 213.083 89.1527 213.42C90.7367 214.036 91.8733 214.703 92.5627 215.422C93.2667 216.141 93.6187 217.006 93.6187 218.018C93.6187 219.441 93.0833 220.541 92.0127 221.318C91.1327 221.949 90.04 222.264 88.7347 222.264C87.1947 222.264 85.552 221.707 83.8067 220.592L85.0827 218.81C85.9333 219.382 87.026 219.668 88.3607 219.668C89.8713 219.668 90.6267 219.059 90.6267 217.842C90.6267 217.05 89.8127 216.375 88.1847 215.818C85.5593 214.938 84.2467 213.53 84.2467 211.594C84.2467 210.421 84.6867 209.489 85.5667 208.8C86.388 208.14 87.4807 207.81 88.8447 207.81C90.3993 207.81 91.8513 208.279 93.2007 209.218ZM104.16 222H101.938L101.718 221.054C100.75 221.861 99.7669 222.264 98.7696 222.264C96.5549 222.264 95.4476 221.186 95.4476 219.03C95.4476 217.959 95.9096 217.123 96.8336 216.522C97.7722 215.906 99.1582 215.598 100.992 215.598H101.454V215.554C101.454 214.923 101.322 214.491 101.058 214.256C100.794 214.021 100.317 213.904 99.6276 213.904C98.6596 213.904 97.7722 214.212 96.9656 214.828C96.7016 214.344 96.4522 213.867 96.2176 213.398C97.0536 212.753 97.7796 212.32 98.3956 212.1C99.0262 211.865 99.7742 211.748 100.64 211.748C102.986 211.748 104.16 213.215 104.16 216.148V222ZM101.366 217.292H101.036C100.2 217.292 99.5249 217.439 99.0116 217.732C98.4982 218.025 98.2416 218.414 98.2416 218.898C98.2416 219.807 98.6376 220.262 99.4296 220.262C99.9136 220.262 100.339 220.123 100.706 219.844C101.072 219.565 101.292 219.213 101.366 218.788V217.292ZM112.035 222H109.879L105.985 212.012H108.779L110.913 218.612L113.179 212.012H116.083L115.665 213.046L115.181 214.234C113.817 217.607 112.768 220.196 112.035 222ZM126.939 217.908H120.075C120.134 218.583 120.405 219.147 120.889 219.602C121.388 220.042 121.975 220.262 122.649 220.262C123.603 220.262 124.6 219.969 125.641 219.382L126.345 220.856C125.289 221.795 123.969 222.264 122.385 222.264C120.684 222.264 119.357 221.78 118.403 220.812C117.494 219.903 117.039 218.649 117.039 217.05C117.039 215.481 117.553 214.183 118.579 213.156C119.503 212.217 120.677 211.748 122.099 211.748C123.683 211.748 124.915 212.283 125.795 213.354C126.558 214.263 126.939 215.444 126.939 216.896V217.908ZM119.921 215.862H124.167C124.094 214.425 123.397 213.706 122.077 213.706C120.801 213.706 120.083 214.425 119.921 215.862ZM142.617 222H140.395L140.175 221.054C139.207 221.861 138.224 222.264 137.227 222.264C135.012 222.264 133.905 221.186 133.905 219.03C133.905 217.959 134.367 217.123 135.291 216.522C136.229 215.906 137.615 215.598 139.449 215.598H139.911V215.554C139.911 214.923 139.779 214.491 139.515 214.256C139.251 214.021 138.774 213.904 138.085 213.904C137.117 213.904 136.229 214.212 135.423 214.828C135.159 214.344 134.909 213.867 134.675 213.398C135.511 212.753 136.237 212.32 136.853 212.1C137.483 211.865 138.231 211.748 139.097 211.748C141.443 211.748 142.617 213.215 142.617 216.148V222ZM139.823 217.292H139.493C138.657 217.292 137.982 217.439 137.469 217.732C136.955 218.025 136.699 218.414 136.699 218.898C136.699 219.807 137.095 220.262 137.887 220.262C138.371 220.262 138.796 220.123 139.163 219.844C139.529 219.565 139.749 219.213 139.823 218.788V217.292ZM148.292 212.98C148.585 212.643 149.025 212.357 149.612 212.122C150.198 211.873 150.756 211.748 151.284 211.748C152.545 211.748 153.454 212.093 154.012 212.782C154.584 213.471 154.87 214.586 154.87 216.126V222H152.076V216.236C152.076 214.799 151.438 214.08 150.162 214.08C149.839 214.08 149.494 214.153 149.128 214.3C148.761 214.432 148.512 214.586 148.38 214.762V222H145.608V212.012H147.962C148.035 212.393 148.108 212.716 148.182 212.98H148.292ZM164.874 222L164.478 220.944C164.244 221.325 163.862 221.641 163.334 221.89C162.806 222.139 162.264 222.264 161.706 222.264C160.137 222.264 158.942 221.743 158.12 220.702C157.431 219.837 157.086 218.722 157.086 217.358C157.086 215.437 157.644 213.955 158.758 212.914C159.594 212.137 160.599 211.748 161.772 211.748C162.784 211.748 163.635 212.027 164.324 212.584V209.394L167.096 207.854V222H164.874ZM164.324 218.194V215.4C164.222 214.916 163.987 214.52 163.62 214.212C163.268 213.889 162.85 213.728 162.366 213.728C161.618 213.728 161.024 214.021 160.584 214.608C160.144 215.195 159.924 215.987 159.924 216.984C159.924 219.169 160.636 220.262 162.058 220.262C162.586 220.262 163.078 220.057 163.532 219.646C163.987 219.221 164.251 218.737 164.324 218.194ZM175.627 222V208.096C175.833 208.052 176.412 207.993 177.365 207.92C178.319 207.847 179.045 207.81 179.543 207.81C183.093 207.81 184.867 209.262 184.867 212.166C184.867 213.97 184.251 215.29 183.019 216.126C182.198 216.698 181.23 216.984 180.115 216.984C179.235 216.984 178.7 216.925 178.509 216.808V222H175.627ZM178.509 210.274V214.476C178.891 214.623 179.367 214.696 179.939 214.696C180.526 214.696 180.988 214.491 181.325 214.08C181.663 213.655 181.831 213.075 181.831 212.342C181.831 210.861 181.179 210.12 179.873 210.12C179.125 210.12 178.671 210.171 178.509 210.274ZM189.598 212.012L189.862 212.892C190.009 212.584 190.288 212.32 190.698 212.1C191.124 211.865 191.556 211.748 191.996 211.748C193.316 211.748 194.299 212.371 194.944 213.618L192.612 214.894C192.128 214.337 191.615 214.058 191.072 214.058C190.574 214.058 190.207 214.315 189.972 214.828V222H187.244V212.012H189.598ZM198.887 212.012V222H196.093V212.012H198.887ZM195.763 209.46C195.763 208.991 195.925 208.587 196.247 208.25C196.585 207.898 196.981 207.722 197.435 207.722C197.919 207.722 198.33 207.891 198.667 208.228C199.019 208.565 199.195 208.976 199.195 209.46C199.195 209.973 199.027 210.391 198.689 210.714C198.367 211.037 197.949 211.198 197.435 211.198C196.951 211.198 196.548 211.037 196.225 210.714C195.917 210.377 195.763 209.959 195.763 209.46ZM204.43 212.98C204.724 212.643 205.164 212.357 205.75 212.122C206.337 211.873 206.894 211.748 207.422 211.748C208.684 211.748 209.593 212.093 210.15 212.782C210.722 213.471 211.008 214.586 211.008 216.126V222H208.214V216.236C208.214 214.799 207.576 214.08 206.3 214.08C205.978 214.08 205.633 214.153 205.266 214.3C204.9 214.432 204.65 214.586 204.518 214.762V222H201.746V212.012H204.1C204.174 212.393 204.247 212.716 204.32 212.98H204.43ZM219.918 214.234H217.058V219.184C217.058 219.917 217.3 220.284 217.784 220.284C218.224 220.284 218.774 220.093 219.434 219.712L220.358 221.12C219.317 221.941 218.165 222.352 216.904 222.352C215.144 222.352 214.264 221.384 214.264 219.448V214.234H212.878V212.012H214.286V210.23C215.019 209.834 215.951 209.343 217.08 208.756V212.012H219.918V214.234Z" fill="#3B3B3B"/>
<path d="M142.822 165.339V166.831H141.609C140.327 166.831 139.097 167.34 138.191 168.247C137.285 169.153 136.775 170.382 136.775 171.664V180.123C136.775 181.084 137.157 182.006 137.837 182.686C138.517 183.366 139.439 183.748 140.4 183.748H142.817V184.956C142.817 185.917 143.199 186.839 143.879 187.519C144.559 188.199 145.481 188.581 146.442 188.581H156.109C157.07 188.581 157.992 188.199 158.672 187.519C159.352 186.839 159.734 185.917 159.734 184.956V183.748H162.15C163.112 183.748 164.034 183.366 164.714 182.686C165.393 182.006 165.775 181.084 165.775 180.123V171.664C165.775 170.382 165.266 169.153 164.36 168.247C163.453 167.34 162.224 166.831 160.942 166.831H159.734V165.323C159.734 164.886 159.648 164.454 159.48 164.05C159.313 163.647 159.068 163.28 158.759 162.972C158.45 162.663 158.083 162.418 157.679 162.252C157.275 162.085 156.843 161.999 156.406 162L146.14 162.016C145.26 162.017 144.416 162.368 143.793 162.991C143.171 163.614 142.822 164.458 142.822 165.339ZM157.921 165.323V166.831H144.634V165.339C144.634 164.505 145.309 163.829 146.142 163.828L156.408 163.813C156.607 163.812 156.804 163.851 156.987 163.927C157.171 164.003 157.337 164.114 157.478 164.254C157.618 164.394 157.73 164.561 157.806 164.744C157.882 164.928 157.921 165.124 157.921 165.323ZM146.442 177.102H156.109C156.589 177.102 157.05 177.293 157.39 177.633C157.73 177.973 157.921 178.434 157.921 178.914V184.956C157.921 185.437 157.73 185.898 157.39 186.238C157.05 186.577 156.589 186.768 156.109 186.768H146.442C145.961 186.768 145.5 186.577 145.16 186.238C144.821 185.898 144.63 185.437 144.63 184.956V178.914C144.63 178.434 144.821 177.973 145.16 177.633C145.5 177.293 145.961 177.102 146.442 177.102Z" fill="#2E4272"/>
<defs>
<filter id="filter0_d_224_6747" x="0.503389" y="47.0807" width="302.319" height="37.4669" filterUnits="userSpaceOnUse" color-interpolation-filters="sRGB">
<feFlood flood-opacity="0" result="BackgroundImageFix"/>
<feColorMatrix in="SourceAlpha" type="matrix" values="0 0 0 0 0 0 0 0 0 0 0 0 0 0 0 0 0 0 127 0" result="hardAlpha"/>
<feOffset dy="-6.4598"/>
<feGaussianBlur stdDeviation="9.136"/>
<feComposite in2="hardAlpha" operator="out"/>
<feColorMatrix type="matrix" values="0 0 0 0 0 0 0 0 0 0 0 0 0 0 0 0 0 0 0.88 0"/>
<feBlend mode="normal" in2="BackgroundImageFix" result="effect1_dropShadow_224_6747"/>
<feBlend mode="normal" in="SourceGraphic" in2="effect1_dropShadow_224_6747" result="shape"/>
</filter>
<filter id="filter1_d_224_6747" x="96.4668" y="19.3857" width="163.563" height="158.958" filterUnits="userSpaceOnUse" color-interpolation-filters="sRGB">
<feFlood flood-opacity="0" result="BackgroundImageFix"/>
<feColorMatrix in="SourceAlpha" type="matrix" values="0 0 0 0 0 0 0 0 0 0 0 0 0 0 0 0 0 0 127 0" result="hardAlpha"/>
<feOffset dx="32.299" dy="27.6849"/>
<feGaussianBlur stdDeviation="11.5354"/>
<feComposite in2="hardAlpha" operator="out"/>
<feColorMatrix type="matrix" values="0 0 0 0 0 0 0 0 0 0 0 0 0 0 0 0 0 0 0.1 0"/>
<feBlend mode="normal" in2="BackgroundImageFix" result="effect1_dropShadow_224_6747"/>
<feBlend mode="normal" in="SourceGraphic" in2="effect1_dropShadow_224_6747" result="shape"/>
</filter>
<linearGradient id="paint0_linear_224_6747" x1="188.761" y1="111.69" x2="112.362" y2="35.2885" gradientUnits="userSpaceOnUse">
<stop stop-color="#EBEAEA"/>
<stop offset="1" stop-color="white"/>
</linearGradient>
</defs>
</svg>
