<svg width="304" height="266" viewBox="0 0 304 266" fill="none" xmlns="http://www.w3.org/2000/svg">
<g filter="url(#filter0_d_224_3375)">
<line x1="19" y1="72.2741" x2="284.775" y2="72.2741" stroke="white" stroke-width="0.922828"/>
</g>
<rect x="19" y="72.7355" width="265.775" height="42.4501" fill="white"/>
<path d="M210.99 73.4915H208.042C208.042 41.9321 182.365 16.2584 150.809 16.2584C119.253 16.2584 93.5551 41.9287 93.5551 73.4915H90.5898C90.5898 40.2955 117.596 13.2862 150.795 13.2862C183.995 13.2862 210.99 40.2955 210.99 73.4915Z" fill="#2E4272"/>
<g filter="url(#filter1_d_224_3375)">
<path d="M96.7088 74.8546C97.0589 88.7325 102.731 101.945 112.55 111.757C122.37 121.57 135.586 127.232 149.465 127.572C180.155 128.309 205.487 103.085 204.874 72.3911C204.676 62.5415 201.792 52.933 196.533 44.6024C191.275 36.2717 183.841 29.5352 175.034 25.1196C171.283 23.2287 167.321 21.7863 163.232 20.8222C159.513 19.9484 155.713 19.4705 151.893 19.3966C121.172 18.7911 95.9337 44.1396 96.7088 74.8546Z" fill="url(#paint0_linear_224_3375)"/>
</g>
<path d="M187.41 109.782C207.535 89.6568 207.601 57.0927 187.557 37.0484C167.512 17.0041 134.948 17.0698 114.823 37.1952C94.6977 57.3206 94.6319 89.8846 114.676 109.929C134.721 129.973 167.285 129.908 187.41 109.782Z" fill="#F9F9F9"/>
<path d="M141.913 59.9856C144.623 59.9856 146.819 61.2824 148.502 63.8758C149.903 66.0252 150.604 68.5836 150.604 71.5508C150.604 75.1022 149.717 77.9526 147.941 80.1021C146.352 82.0413 144.343 83.0109 141.913 83.0109C139.086 83.0109 136.89 81.7726 135.324 79.296C133.993 77.2166 133.327 74.6349 133.327 71.5508C133.327 68.093 134.203 65.2542 135.955 63.0347C137.521 61.002 139.506 59.9856 141.913 59.9856ZM141.983 64.1912C139.623 64.1912 138.443 66.5743 138.443 71.3406C138.443 73.7471 138.782 75.6395 139.46 77.018C140.067 78.2563 140.873 78.8755 141.878 78.8755C142.999 78.8755 143.876 78.2096 144.506 76.8778C145.161 75.5461 145.488 73.7003 145.488 71.3406C145.488 66.5743 144.319 64.1912 141.983 64.1912ZM153.459 82.5903V78.4199L158.856 72.0765C160.445 70.2308 161.414 69.0158 161.765 68.4317C162.115 67.8476 162.291 67.1584 162.291 66.364C162.291 65.7098 162.057 65.1725 161.59 64.7519C161.122 64.3314 160.538 64.1211 159.837 64.1211C158.459 64.1211 156.929 64.6935 155.246 65.8383L153.179 62.8244C155.585 60.9085 158.108 59.9506 160.749 59.9506C162.781 59.9506 164.393 60.488 165.585 61.5627C166.776 62.6141 167.372 64.1094 167.372 66.0486C167.372 68.0579 166.484 70.2658 164.709 72.6723C164.031 73.5835 162.291 75.5811 159.487 78.6652H167.197V82.5903H153.459Z" fill="#2E4272"/>
<path d="M68.0538 249.161C67.4984 249.161 67.2208 248.878 67.2208 248.311C67.2208 247.756 67.4984 247.478 68.0538 247.478C68.5978 247.478 68.8698 247.756 68.8698 248.311C68.8698 248.878 68.5978 249.161 68.0538 249.161ZM70.2128 249.161C69.6574 249.161 69.3798 248.878 69.3798 248.311C69.3798 247.756 69.6574 247.478 70.2128 247.478C70.7568 247.478 71.0288 247.756 71.0288 248.311C71.0288 248.878 70.7568 249.161 70.2128 249.161ZM77.0298 255.689H77.8118V257.066H76.8598C75.9078 257.066 75.1654 256.772 74.6328 256.182C74.1001 256.772 73.3578 257.066 72.4058 257.066H66.3368C65.4188 257.066 64.6991 256.76 64.1778 256.148C63.7244 255.616 63.4978 254.919 63.4978 254.057V252L64.9598 251.218V253.921C64.9598 255.1 65.5094 255.689 66.6088 255.689H72.2528C73.3521 255.689 73.9018 255.1 73.9018 253.921V250.47L75.3638 249.688V253.989C75.3638 255.123 75.9191 255.689 77.0298 255.689ZM81.2346 247.75C80.6793 247.75 80.4016 247.467 80.4016 246.9C80.4016 246.345 80.6793 246.067 81.2346 246.067C81.7786 246.067 82.0506 246.345 82.0506 246.9C82.0506 247.467 81.7786 247.75 81.2346 247.75ZM83.3936 247.75C82.8383 247.75 82.5606 247.467 82.5606 246.9C82.5606 246.345 82.8383 246.067 83.3936 246.067C83.9376 246.067 84.2096 246.345 84.2096 246.9C84.2096 247.467 83.9376 247.75 83.3936 247.75ZM76.7976 257.066V255.689H79.8576C79.3363 255.111 79.0756 254.307 79.0756 253.275C79.0756 252.04 79.3986 251.077 80.0446 250.385C80.6113 249.773 81.365 249.467 82.3056 249.467C83.269 249.467 84.017 249.768 84.5496 250.368C85.003 250.901 85.2296 251.598 85.2296 252.459V254.074C85.2183 255.015 84.9406 255.757 84.3966 256.301C83.864 256.811 83.1556 257.066 82.2716 257.066H76.7976ZM83.7676 252.527C83.7676 251.394 83.2803 250.827 82.3056 250.827C81.7503 250.827 81.314 251.043 80.9966 251.473C80.6793 251.893 80.5206 252.482 80.5206 253.241C80.5206 253.989 80.6736 254.584 80.9796 255.026C81.2856 255.468 81.6936 255.689 82.2036 255.689C83.2463 255.689 83.7676 255.145 83.7676 254.057V252.527ZM92.2999 256.522C91.8692 256.692 91.3422 256.777 90.7189 256.777C89.7102 256.777 88.9169 256.398 88.3389 255.638C87.8516 254.992 87.6079 254.182 87.6079 253.207C87.6079 252.006 87.9309 251.065 88.5769 250.385C89.1549 249.773 89.9142 249.467 90.8549 249.467C91.8182 249.467 92.5606 249.768 93.0819 250.368C93.5466 250.901 93.7789 251.598 93.7789 252.459V256.165C93.7789 257.446 93.4446 258.46 92.7759 259.208C92.1412 259.911 91.2969 260.262 90.2429 260.262C89.5402 260.262 88.8772 260.098 88.2539 259.769V258.477C88.8546 258.795 89.4496 258.953 90.0389 258.953C90.7076 258.953 91.2402 258.738 91.6369 258.307C92.0336 257.888 92.2546 257.293 92.2999 256.522ZM92.2999 252.527C92.2999 251.394 91.8182 250.827 90.8549 250.827C90.2882 250.827 89.8406 251.037 89.5119 251.456C89.1946 251.876 89.0359 252.448 89.0359 253.173C89.0359 253.887 89.1889 254.46 89.4949 254.89C89.8122 255.31 90.2372 255.519 90.7699 255.519C91.5179 255.519 92.0279 255.31 92.2999 254.89V252.527ZM109.696 252.119C108.937 251.326 108.144 250.929 107.316 250.929C106.874 250.929 106.523 251.06 106.262 251.32C106.002 251.581 105.871 251.932 105.871 252.374C105.871 252.862 106.019 253.241 106.313 253.513C106.608 253.785 107.18 254.069 108.03 254.363C108.88 254.669 109.458 254.958 109.764 255.23C110.218 255.616 110.444 256.143 110.444 256.811C110.444 257.877 109.94 258.738 108.931 259.395C108.013 259.996 106.818 260.296 105.344 260.296C103.554 260.296 102.205 259.775 101.298 258.732C100.63 257.962 100.295 257.01 100.295 255.876C100.295 254.924 100.533 254.108 101.009 253.428L102.42 253.122C101.91 253.927 101.655 254.794 101.655 255.723C101.655 256.698 101.984 257.48 102.641 258.069C103.287 258.636 104.188 258.919 105.344 258.919C106.58 258.919 107.532 258.676 108.2 258.188C108.722 257.803 108.982 257.338 108.982 256.794C108.982 256.488 108.863 256.239 108.625 256.046C108.399 255.854 107.94 255.638 107.248 255.4C106.296 255.06 105.639 254.72 105.276 254.38C104.732 253.882 104.46 253.213 104.46 252.374C104.46 251.456 104.783 250.737 105.429 250.215C105.928 249.819 106.495 249.62 107.129 249.62C108.172 249.62 109.028 250 109.696 250.759V252.119ZM104.205 263.305C103.65 263.305 103.372 263.022 103.372 262.455C103.372 261.9 103.65 261.622 104.205 261.622C104.749 261.622 105.021 261.9 105.021 262.455C105.021 263.022 104.749 263.305 104.205 263.305ZM106.364 263.305C105.809 263.305 105.531 263.022 105.531 262.455C105.531 261.9 105.809 261.622 106.364 261.622C106.908 261.622 107.18 261.9 107.18 262.455C107.18 263.022 106.908 263.305 106.364 263.305ZM112.086 245.863L112.477 245.132H112.936C112.823 244.928 112.766 244.719 112.766 244.503C112.766 244.163 112.891 243.874 113.14 243.636C113.389 243.387 113.684 243.262 114.024 243.262C114.307 243.262 114.579 243.353 114.84 243.534V244.282C114.591 244.09 114.353 243.993 114.126 243.993C113.707 243.993 113.497 244.18 113.497 244.554C113.497 244.747 113.576 244.94 113.735 245.132H115.282L114.891 245.863H112.086ZM112.987 257.066V247.563L114.449 246.781V257.066H112.987ZM131.279 257.066C131.166 258.064 130.622 258.863 129.647 259.463C128.741 260.019 127.585 260.296 126.179 260.296C124.389 260.296 123.04 259.775 122.133 258.732C121.465 257.962 121.13 257.01 121.13 255.876C121.13 254.924 121.368 254.108 121.844 253.428L123.255 253.122C122.745 253.927 122.49 254.794 122.49 255.723C122.49 256.732 122.819 257.525 123.476 258.103C124.122 258.681 125.023 258.97 126.179 258.97C127.154 258.97 127.959 258.8 128.593 258.46C129.228 258.12 129.613 257.656 129.749 257.066H128.049L128.763 255.689H131.33V257.066H131.279ZM125.04 263.305C124.485 263.305 124.207 263.022 124.207 262.455C124.207 261.9 124.485 261.622 125.04 261.622C125.584 261.622 125.856 261.9 125.856 262.455C125.856 263.022 125.584 263.305 125.04 263.305ZM127.199 263.305C126.644 263.305 126.366 263.022 126.366 262.455C126.366 261.9 126.644 261.622 127.199 261.622C127.743 261.622 128.015 261.9 128.015 262.455C128.015 263.022 127.743 263.305 127.199 263.305ZM135.979 247.733C135.424 247.733 135.146 247.45 135.146 246.883C135.146 246.328 135.424 246.05 135.979 246.05C136.523 246.05 136.795 246.328 136.795 246.883C136.795 247.45 136.523 247.733 135.979 247.733ZM130.437 257.066V255.689H133.497C132.976 255.111 132.715 254.307 132.715 253.275C132.715 252.04 133.038 251.077 133.684 250.385C134.251 249.773 135.005 249.467 135.945 249.467C136.909 249.467 137.657 249.768 138.189 250.368C138.643 250.901 138.869 251.598 138.869 252.459V254.074C138.858 255.015 138.58 255.757 138.036 256.301C137.504 256.811 136.795 257.066 135.911 257.066H130.437ZM137.407 252.527C137.407 251.394 136.92 250.827 135.945 250.827C135.39 250.827 134.954 251.043 134.636 251.473C134.319 251.893 134.16 252.482 134.16 253.241C134.16 253.989 134.313 254.584 134.619 255.026C134.925 255.468 135.333 255.689 135.843 255.689C136.886 255.689 137.407 255.145 137.407 254.057V252.527ZM144.365 257.066L145.079 255.689H148.105C148.559 255.689 148.876 255.576 149.057 255.349C149.25 255.123 149.346 254.732 149.346 254.176C149.346 252.669 148.649 251.536 147.255 250.776L148.003 249.518C149.783 250.561 150.712 252 150.791 253.836C150.814 254.494 150.961 254.97 151.233 255.264C151.517 255.548 151.964 255.689 152.576 255.689H153.579V257.066H152.457C151.517 257.066 150.78 256.766 150.247 256.165C149.873 256.766 149.244 257.066 148.36 257.066H144.365ZM155.797 247.631C155.242 247.631 154.964 247.348 154.964 246.781C154.964 246.226 155.242 245.948 155.797 245.948C156.341 245.948 156.613 246.226 156.613 246.781C156.613 247.348 156.341 247.631 155.797 247.631ZM158.483 255.689H159.605V257.066H158.313C157.372 257.066 156.63 256.766 156.086 256.165C155.542 256.766 154.8 257.066 153.859 257.066H152.567V255.689H153.689C154.8 255.689 155.355 255.123 155.355 253.989V250.47L156.817 249.688V253.989C156.817 255.123 157.372 255.689 158.483 255.689ZM160.481 247.75C159.926 247.75 159.648 247.467 159.648 246.9C159.648 246.345 159.926 246.067 160.481 246.067C161.025 246.067 161.297 246.345 161.297 246.9C161.297 247.467 161.025 247.75 160.481 247.75ZM162.657 247.75C162.102 247.75 161.824 247.467 161.824 246.9C161.824 246.345 162.102 246.067 162.657 246.067C163.201 246.067 163.473 246.345 163.473 246.9C163.473 247.467 163.201 247.75 162.657 247.75ZM164.493 255.689H165.615V257.066H164.323C163.382 257.066 162.64 256.766 162.096 256.165C161.552 256.766 160.81 257.066 159.869 257.066H158.577V255.689H159.699C160.81 255.689 161.365 255.123 161.365 253.989V250.47L162.827 249.688V253.989C162.827 255.123 163.382 255.689 164.493 255.689ZM164.587 257.066V255.689H166.117C167.216 255.689 167.766 255.123 167.766 253.989V251.609L169.228 250.827V253.989C169.228 255.123 169.783 255.689 170.894 255.689H171.676C172.786 255.689 173.342 255.123 173.342 253.989V251.031L174.804 250.266V253.989C174.804 255.123 175.353 255.689 176.453 255.689H177.252C178.362 255.689 178.918 255.123 178.918 253.989V250.47L180.38 249.688V253.836C180.38 255.072 180.969 255.689 182.148 255.689H183.559V257.066H182.029C181.009 257.066 180.232 256.721 179.7 256.029C179.224 256.709 178.481 257.055 177.473 257.066H176.3C175.302 257.066 174.56 256.732 174.073 256.063C173.585 256.721 172.86 257.055 171.897 257.066H170.724C169.749 257.066 169.007 256.732 168.497 256.063C168.009 256.732 167.267 257.066 166.27 257.066H164.587ZM193.481 255.689H194.62V257.066H193.328C192.387 257.066 191.645 256.766 191.101 256.165C190.523 256.993 189.679 257.406 188.568 257.406C187.457 257.406 186.619 256.998 186.052 256.182C185.519 256.772 184.777 257.066 183.825 257.066H182.533V255.689H183.655C184.766 255.689 185.321 255.123 185.321 253.989V253.428C185.321 252.114 185.644 251.105 186.29 250.402C186.857 249.779 187.616 249.467 188.568 249.467C189.656 249.467 190.495 249.87 191.084 250.674C191.583 251.366 191.832 252.284 191.832 253.428V253.989C191.832 255.123 192.382 255.689 193.481 255.689ZM188.568 256.029C189.123 256.029 189.56 255.797 189.877 255.332C190.206 254.868 190.37 254.227 190.37 253.411C190.37 251.689 189.769 250.827 188.568 250.827C187.378 250.827 186.783 251.689 186.783 253.411C186.783 255.157 187.378 256.029 188.568 256.029ZM193.606 257.066V255.689H194.507C195.686 255.689 196.275 255.072 196.275 253.836V246.883L197.754 246.101V253.853C197.754 254.862 197.454 255.661 196.853 256.25C196.287 256.794 195.544 257.066 194.626 257.066H193.606ZM200.809 257.066V246.883L202.271 246.101V257.066H200.809ZM219.765 255.689H220.887V257.066H219.595C218.983 257.066 218.433 256.93 217.946 256.658C217.787 257.826 217.26 258.744 216.365 259.412C215.571 260.002 214.591 260.296 213.424 260.296C211.905 260.296 210.732 259.786 209.905 258.766C209.27 257.973 208.953 257.027 208.953 255.927C208.953 254.964 209.185 254.142 209.65 253.462L211.112 253.139C210.59 253.944 210.33 254.822 210.33 255.774C210.33 256.715 210.63 257.486 211.231 258.086C211.786 258.642 212.517 258.919 213.424 258.919C214.455 258.919 215.248 258.613 215.804 258.001C216.28 257.48 216.518 256.811 216.518 255.995V246.883L217.997 246.101V253.989C217.997 255.123 218.586 255.689 219.765 255.689ZM226.776 245.455L227.592 244.996V246.373C227.592 246.691 227.485 246.951 227.269 247.155C227.054 247.359 226.776 247.461 226.436 247.461C226.142 247.461 225.887 247.382 225.671 247.223C225.456 247.382 225.201 247.461 224.906 247.461C224.566 247.461 224.283 247.359 224.056 247.155C223.841 246.951 223.733 246.691 223.733 246.373V245.846L224.566 245.387V246.322C224.566 246.549 224.68 246.662 224.906 246.662C225.133 246.662 225.246 246.566 225.246 246.373V245.625L226.079 245.166V246.373C226.079 246.566 226.198 246.662 226.436 246.662C226.663 246.662 226.776 246.549 226.776 246.322V245.455ZM230.818 255.689H231.957V257.066H230.665C229.724 257.066 228.982 256.766 228.438 256.165C227.86 256.993 227.016 257.406 225.905 257.406C224.794 257.406 223.956 256.998 223.389 256.182C222.856 256.772 222.114 257.066 221.162 257.066H219.87V255.689H220.992C222.103 255.689 222.658 255.123 222.658 253.989V253.428C222.658 252.114 222.981 251.105 223.627 250.402C224.194 249.779 224.953 249.467 225.905 249.467C226.993 249.467 227.832 249.87 228.421 250.674C228.92 251.366 229.169 252.284 229.169 253.428V253.989C229.169 255.123 229.719 255.689 230.818 255.689ZM225.905 256.029C226.46 256.029 226.897 255.797 227.214 255.332C227.543 254.868 227.707 254.227 227.707 253.411C227.707 251.689 227.106 250.827 225.905 250.827C224.715 250.827 224.12 251.689 224.12 253.411C224.12 255.157 224.715 256.029 225.905 256.029ZM230.943 257.066V255.689H233.272C235.573 255.689 237.392 254.93 238.729 253.411C237.788 251.677 236.644 250.81 235.295 250.81C234.377 250.81 233.431 251.298 232.456 252.272V250.912C233.408 249.949 234.417 249.467 235.482 249.467C236.355 249.467 237.199 249.785 238.015 250.419C238.831 251.043 239.551 251.938 240.174 253.105V253.853C238.508 255.995 236.202 257.066 233.255 257.066H230.943Z" fill="#585858"/>
<path d="M104.108 229.018C102.846 229.839 101.431 230.25 99.8618 230.25C98.1311 230.25 96.7305 229.707 95.6598 228.622C94.6771 227.625 94.1858 226.356 94.1858 224.816C94.1858 223.745 94.4571 222.814 94.9998 222.022C95.5571 221.23 96.4591 220.475 97.7058 219.756C96.8551 219.243 95.8211 218.26 94.6038 216.808C94.4425 216.617 94.3178 216.463 94.2298 216.346V215.092C94.8898 214.109 95.7258 213.325 96.7378 212.738C97.7645 212.151 98.8058 211.858 99.8618 211.858C100.918 211.858 101.959 212.159 102.986 212.76C104.012 213.347 104.863 214.139 105.538 215.136V216.346C104.628 217.431 103.506 218.392 102.172 219.228C102.67 219.301 103.125 219.338 103.536 219.338H108.31L108.332 222H101.974C101.167 222 100.434 221.809 99.7738 221.428C98.7178 221.912 97.9625 222.418 97.5078 222.946C97.0678 223.474 96.8478 224.105 96.8478 224.838C96.8478 225.674 97.1338 226.341 97.7058 226.84C98.2925 227.339 99.0771 227.588 100.06 227.588C101.497 227.588 102.846 227.192 104.108 226.4V229.018ZM99.8398 218.282C100.94 217.417 101.754 216.544 102.282 215.664C101.402 214.843 100.58 214.432 99.8178 214.432C99.0698 214.432 98.2851 214.843 97.4638 215.664C98.0505 216.676 98.8425 217.549 99.8398 218.282ZM114.834 219.338H116.814V222H114.57C113.5 222 112.612 221.714 111.908 221.142C111.204 221.714 110.317 222 109.246 222H107.002V219.338H108.982C109.54 219.338 109.936 219.221 110.17 218.986C110.405 218.737 110.522 218.326 110.522 217.754V213.684L113.294 212.232V217.754C113.294 218.326 113.412 218.737 113.646 218.986C113.881 219.221 114.277 219.338 114.834 219.338ZM112.04 224.002C112.48 224.002 112.825 224.127 113.074 224.376C113.338 224.64 113.47 224.992 113.47 225.432C113.47 226.415 112.994 226.906 112.04 226.906C111.6 226.906 111.248 226.774 110.984 226.51C110.72 226.246 110.588 225.887 110.588 225.432C110.588 225.007 110.72 224.662 110.984 224.398C111.248 224.134 111.6 224.002 112.04 224.002ZM122.441 214.168C123.951 212.628 125.675 211.858 127.611 211.858C129.356 211.858 130.742 212.459 131.769 213.662C132.649 214.674 133.089 215.928 133.089 217.424V217.952C133.089 219.331 132.693 220.379 131.901 221.098C131.241 221.699 130.361 222 129.261 222H115.489V219.338H119.427C119.485 219.133 119.566 218.905 119.669 218.656V209.284L122.441 207.81V214.168ZM130.339 217.842V217.424C130.339 216.544 130.082 215.825 129.569 215.268C129.07 214.711 128.425 214.432 127.633 214.432C126.606 214.432 125.631 214.813 124.707 215.576C123.797 216.324 123.042 217.365 122.441 218.7V219.338H129.151C129.635 219.338 129.95 219.243 130.097 219.052C130.258 218.861 130.339 218.458 130.339 217.842ZM136.498 222V209.284L139.27 207.81V222H136.498ZM148.194 221.362C147.74 221.45 147.27 221.494 146.786 221.494C145.437 221.494 144.359 220.988 143.552 219.976C142.892 219.125 142.562 218.099 142.562 216.896C142.562 215.283 143.002 214.014 143.882 213.09C144.66 212.269 145.686 211.858 146.962 211.858C148.268 211.858 149.287 212.276 150.02 213.112C150.651 213.831 150.966 214.769 150.966 215.928V220.636C150.966 222.367 150.512 223.731 149.602 224.728C148.752 225.667 147.593 226.136 146.126 226.136C145.202 226.136 144.3 225.887 143.42 225.388V222.99C144.212 223.445 145.004 223.672 145.796 223.672C147.219 223.672 148.018 222.902 148.194 221.362ZM148.216 215.884C148.216 214.916 147.798 214.432 146.962 214.432C146.434 214.432 146.016 214.645 145.708 215.07C145.415 215.495 145.268 216.075 145.268 216.808C145.268 218.363 145.826 219.14 146.94 219.14C147.527 219.14 147.952 218.993 148.216 218.7V215.884ZM171.024 210.01C170.584 210.01 170.232 209.878 169.968 209.614C169.704 209.35 169.572 208.991 169.572 208.536C169.572 208.111 169.704 207.766 169.968 207.502C170.232 207.238 170.584 207.106 171.024 207.106C171.464 207.106 171.808 207.238 172.058 207.502C172.322 207.751 172.454 208.096 172.454 208.536C172.454 209.519 171.977 210.01 171.024 210.01ZM178.086 219.338H180.066V222H177.822C176.766 222 175.9 221.729 175.226 221.186C174.551 221.729 173.708 222 172.696 222H158.462L159.87 219.338H162.862L163.126 218.59V209.284L165.898 207.81V214.146C167.394 212.621 169.11 211.858 171.046 211.858C172.791 211.858 174.177 212.459 175.204 213.662C176.084 214.674 176.524 215.928 176.524 217.424V217.886C176.524 218.854 177.044 219.338 178.086 219.338ZM172.586 219.338C173.07 219.338 173.385 219.243 173.532 219.052C173.693 218.861 173.774 218.458 173.774 217.842V217.424C173.774 216.544 173.517 215.825 173.004 215.268C172.505 214.711 171.86 214.432 171.068 214.432C170.056 214.432 169.088 214.806 168.164 215.554C167.254 216.302 166.499 217.336 165.898 218.656V219.338H172.586ZM185.713 210.296C185.273 210.296 184.921 210.164 184.657 209.9C184.393 209.636 184.261 209.277 184.261 208.822C184.261 208.397 184.393 208.052 184.657 207.788C184.921 207.524 185.273 207.392 185.713 207.392C186.153 207.392 186.497 207.524 186.747 207.788C187.011 208.037 187.143 208.382 187.143 208.822C187.143 209.805 186.666 210.296 185.713 210.296ZM189.233 219.338H192.709V222H187.495C186.747 222 186.16 221.949 185.735 221.846C185.28 221.949 184.693 222 183.975 222H178.739V219.338H182.215C181.657 218.443 181.379 217.534 181.379 216.61C181.379 215.143 181.811 213.963 182.677 213.068C183.454 212.261 184.473 211.858 185.735 211.858C187.172 211.858 188.287 212.379 189.079 213.42C189.739 214.271 190.069 215.334 190.069 216.61C190.069 217.534 189.79 218.443 189.233 219.338ZM185.713 219.096C186.211 218.861 186.615 218.502 186.923 218.018C187.245 217.519 187.407 216.999 187.407 216.456C187.407 215.825 187.253 215.334 186.945 214.982C186.651 214.615 186.248 214.432 185.735 214.432C184.62 214.432 184.063 215.099 184.063 216.434C184.063 217.006 184.217 217.541 184.525 218.04C184.833 218.524 185.229 218.876 185.713 219.096ZM191.393 222V219.338H194.671C197.252 219.338 199.306 218.568 200.831 217.028C199.834 215.283 198.624 214.41 197.201 214.41C196.028 214.41 194.744 215.048 193.351 216.324V213.882C194.583 212.533 195.976 211.858 197.531 211.858C198.675 211.858 199.79 212.276 200.875 213.112C201.96 213.948 202.921 215.136 203.757 216.676V217.776C202.701 219.125 201.381 220.167 199.797 220.9C198.228 221.633 196.512 222 194.649 222H191.393ZM206.838 222V209.284L209.61 207.81V222H206.838Z" fill="#3B3B3B"/>
<path d="M143.047 165.339V166.831H141.833C140.551 166.831 139.322 167.34 138.416 168.247C137.509 169.153 137 170.382 137 171.664V180.123C137 181.084 137.382 182.006 138.062 182.686C138.742 183.366 139.664 183.748 140.625 183.748H143.042V184.956C143.042 185.917 143.424 186.839 144.103 187.519C144.783 188.199 145.705 188.581 146.667 188.581H156.333C157.295 188.581 158.217 188.199 158.897 187.519C159.576 186.839 159.958 185.917 159.958 184.956V183.748H162.375C163.336 183.748 164.258 183.366 164.938 182.686C165.618 182.006 166 181.084 166 180.123V171.664C166 170.382 165.491 169.153 164.584 168.247C163.678 167.34 162.449 166.831 161.167 166.831H159.958V165.323C159.958 164.886 159.872 164.454 159.705 164.05C159.538 163.647 159.292 163.28 158.983 162.972C158.674 162.663 158.307 162.418 157.904 162.252C157.5 162.085 157.067 161.999 156.631 162L146.365 162.016C145.484 162.017 144.64 162.368 144.018 162.991C143.396 163.614 143.046 164.458 143.047 165.339ZM158.146 165.323V166.831H144.859V165.339C144.859 164.505 145.533 163.829 146.367 163.828L156.633 163.813C156.832 163.812 157.028 163.851 157.212 163.927C157.395 164.003 157.562 164.114 157.703 164.254C157.843 164.394 157.955 164.561 158.031 164.744C158.107 164.928 158.146 165.124 158.146 165.323ZM146.667 177.102H156.333C156.814 177.102 157.275 177.293 157.615 177.633C157.955 177.973 158.146 178.434 158.146 178.914V184.956C158.146 185.437 157.955 185.898 157.615 186.238C157.275 186.577 156.814 186.768 156.333 186.768H146.667C146.186 186.768 145.725 186.577 145.385 186.238C145.045 185.898 144.854 185.437 144.854 184.956V178.914C144.854 178.434 145.045 177.973 145.385 177.633C145.725 177.293 146.186 177.102 146.667 177.102Z" fill="#2E4272"/>
<defs>
<filter id="filter0_d_224_3375" x="0.727999" y="47.0809" width="302.319" height="37.4668" filterUnits="userSpaceOnUse" color-interpolation-filters="sRGB">
<feFlood flood-opacity="0" result="BackgroundImageFix"/>
<feColorMatrix in="SourceAlpha" type="matrix" values="0 0 0 0 0 0 0 0 0 0 0 0 0 0 0 0 0 0 127 0" result="hardAlpha"/>
<feOffset dy="-6.4598"/>
<feGaussianBlur stdDeviation="9.136"/>
<feComposite in2="hardAlpha" operator="out"/>
<feColorMatrix type="matrix" values="0 0 0 0 0 0 0 0 0 0 0 0 0 0 0 0 0 0 0.88 0"/>
<feBlend mode="normal" in2="BackgroundImageFix" result="effect1_dropShadow_224_3375"/>
<feBlend mode="normal" in="SourceGraphic" in2="effect1_dropShadow_224_3375" result="shape"/>
</filter>
<filter id="filter1_d_224_3375" x="96.6914" y="19.386" width="163.563" height="158.958" filterUnits="userSpaceOnUse" color-interpolation-filters="sRGB">
<feFlood flood-opacity="0" result="BackgroundImageFix"/>
<feColorMatrix in="SourceAlpha" type="matrix" values="0 0 0 0 0 0 0 0 0 0 0 0 0 0 0 0 0 0 127 0" result="hardAlpha"/>
<feOffset dx="32.299" dy="27.6849"/>
<feGaussianBlur stdDeviation="11.5354"/>
<feComposite in2="hardAlpha" operator="out"/>
<feColorMatrix type="matrix" values="0 0 0 0 0 0 0 0 0 0 0 0 0 0 0 0 0 0 0.1 0"/>
<feBlend mode="normal" in2="BackgroundImageFix" result="effect1_dropShadow_224_3375"/>
<feBlend mode="normal" in="SourceGraphic" in2="effect1_dropShadow_224_3375" result="shape"/>
</filter>
<linearGradient id="paint0_linear_224_3375" x1="188.985" y1="111.691" x2="112.587" y2="35.2887" gradientUnits="userSpaceOnUse">
<stop stop-color="#EBEAEA"/>
<stop offset="1" stop-color="white"/>
</linearGradient>
</defs>
</svg>
