<svg width="304" height="266" viewBox="0 0 304 266" fill="none" xmlns="http://www.w3.org/2000/svg">
<g filter="url(#filter0_d_224_3405)">
<line x1="19" y1="72.2742" x2="284.775" y2="72.2742" stroke="white" stroke-width="0.922828"/>
</g>
<rect x="19" y="72.7357" width="265.775" height="42.4501" fill="white"/>
<path d="M210.994 73.4916H208.046C208.046 41.9323 182.369 16.2586 150.813 16.2586C119.257 16.2586 93.559 41.9289 93.559 73.4916H90.5938C90.5938 40.2957 117.6 13.2864 150.799 13.2864C183.998 13.2864 210.994 40.2957 210.994 73.4916Z" fill="#75B2CB"/>
<g filter="url(#filter1_d_224_3405)">
<path d="M96.7127 74.855C97.0628 88.7329 102.735 101.945 112.554 111.758C122.374 121.57 135.59 127.233 149.468 127.573C180.159 128.31 205.49 103.086 204.878 72.3914C204.68 62.5419 201.796 52.9334 196.537 44.6028C191.279 36.2721 183.845 29.5356 175.038 25.1199C171.287 23.2291 167.325 21.7867 163.236 20.8225C159.517 19.9487 155.717 19.4709 151.897 19.397C121.175 18.7915 95.9376 44.1399 96.7127 74.855Z" fill="url(#paint0_linear_224_3405)"/>
</g>
<path d="M188.387 109.782C208.512 89.6568 208.578 57.0928 188.533 37.0485C168.489 17.0042 135.925 17.0699 115.8 37.1953C95.6742 57.3207 95.6085 89.8847 115.653 109.929C135.697 129.973 168.261 129.908 188.387 109.782Z" fill="#F9F9F9"/>
<path d="M140.713 59.9858C143.423 59.9858 145.619 61.2825 147.301 63.8759C148.703 66.0254 149.404 68.5837 149.404 71.551C149.404 75.1023 148.516 77.9527 146.741 80.1022C145.152 82.0414 143.143 83.011 140.713 83.011C137.886 83.011 135.689 81.7727 134.124 79.2961C132.792 77.2167 132.126 74.635 132.126 71.551C132.126 68.0931 133.003 65.2544 134.755 63.0348C136.32 61.0021 138.306 59.9858 140.713 59.9858ZM140.783 64.1913C138.423 64.1913 137.243 66.5744 137.243 71.3407C137.243 73.7472 137.582 75.6397 138.26 77.0181C138.867 78.2564 139.673 78.8756 140.678 78.8756C141.799 78.8756 142.675 78.2097 143.306 76.878C143.96 75.5462 144.287 73.7004 144.287 71.3407C144.287 66.5744 143.119 64.1913 140.783 64.1913ZM151.453 74.4247C154.397 69.9155 157.469 65.2427 160.67 60.4063H165.506V74.4247H169.081V78.3499H165.506V82.5905H160.6V78.3499H151.453V74.4247ZM155.658 74.4247H160.6V66.6796C160.039 67.544 159.338 68.6421 158.497 69.9739C157.259 71.9131 156.312 73.3967 155.658 74.4247Z" fill="#75B2CB"/>
<path d="M58.3609 258L59.0749 256.623H62.1009C62.5543 256.623 62.8716 256.51 63.0529 256.283C63.2456 256.056 63.3419 255.665 63.3419 255.11C63.3419 253.603 62.6449 252.469 61.2509 251.71L61.9989 250.452C63.7783 251.495 64.7076 252.934 64.7869 254.77C64.8096 255.427 64.9569 255.903 65.2289 256.198C65.5123 256.481 65.9599 256.623 66.5719 256.623H67.5749V258H66.4529C65.5123 258 64.7756 257.7 64.2429 257.099C63.8689 257.7 63.2399 258 62.3559 258H58.3609ZM70.7788 248.684C70.2234 248.684 69.9458 248.401 69.9458 247.834C69.9458 247.279 70.2234 247.001 70.7788 247.001C71.3228 247.001 71.5948 247.279 71.5948 247.834C71.5948 248.401 71.3228 248.684 70.7788 248.684ZM72.9378 248.684C72.3824 248.684 72.1048 248.401 72.1048 247.834C72.1048 247.279 72.3824 247.001 72.9378 247.001C73.4818 247.001 73.7538 247.279 73.7538 247.834C73.7538 248.401 73.4818 248.684 72.9378 248.684ZM73.9918 256.623H77.1538V258H73.0058C72.5638 258 72.1784 257.96 71.8498 257.881C71.5324 257.96 71.1471 258 70.6938 258H66.5628V256.623H69.7248C69.0221 255.818 68.6708 254.929 68.6708 253.954C68.6708 252.843 68.9824 251.959 69.6058 251.302C70.1724 250.701 70.9204 250.401 71.8498 250.401C72.9151 250.401 73.7368 250.786 74.3148 251.557C74.8021 252.192 75.0458 252.991 75.0458 253.954C75.0458 254.929 74.6944 255.818 73.9918 256.623ZM71.8668 256.47C72.3881 256.289 72.8131 255.96 73.1418 255.484C73.4704 254.997 73.6348 254.464 73.6348 253.886C73.6348 253.229 73.4704 252.713 73.1418 252.339C72.8244 251.954 72.3938 251.761 71.8498 251.761C71.3058 251.761 70.8694 251.954 70.5408 252.339C70.2234 252.724 70.0648 253.24 70.0648 253.886C70.0648 254.453 70.2348 254.98 70.5748 255.467C70.9148 255.954 71.3454 256.289 71.8668 256.47ZM84.5399 256.623H89.0279V258H84.4039C83.7919 258 83.1855 257.881 82.5849 257.643C81.9842 257.881 81.3722 258 80.7489 258H76.1419V256.623H80.6299H80.8679C80.0519 255.954 79.2132 254.974 78.3519 253.682V252.934C78.8959 252.152 79.5419 251.534 80.2899 251.081C81.0492 250.628 81.8085 250.401 82.5679 250.401C83.3272 250.401 84.0865 250.633 84.8459 251.098C85.6052 251.551 86.2625 252.175 86.8179 252.968V253.682C85.9565 254.974 85.1122 255.954 84.2849 256.623H84.5399ZM79.7119 253.325C80.7545 254.753 81.7122 255.694 82.5849 256.147C83.4575 255.682 84.4152 254.736 85.4579 253.308C84.6079 252.277 83.6445 251.755 82.5679 251.744C81.4912 251.744 80.5392 252.271 79.7119 253.325ZM88.012 258V256.623H88.913C90.0916 256.623 90.681 256.005 90.681 254.77V247.817L92.16 247.035V254.787C92.16 255.796 91.8596 256.595 91.259 257.184C90.6923 257.728 89.95 258 89.032 258H88.012ZM95.2151 258V247.817L96.6771 247.035V258H95.2151ZM105.177 248.395C104.622 248.395 104.344 248.112 104.344 247.545C104.344 246.99 104.622 246.712 105.177 246.712C105.721 246.712 105.993 246.99 105.993 247.545C105.993 248.112 105.721 248.395 105.177 248.395ZM107.336 248.395C106.781 248.395 106.503 248.112 106.503 247.545C106.503 246.99 106.781 246.712 107.336 246.712C107.88 246.712 108.152 246.99 108.152 247.545C108.152 248.112 107.88 248.395 107.336 248.395ZM110.498 256.623H111.62V258H110.328C109.161 258 108.322 257.569 107.812 256.708C107.268 257.229 106.594 257.49 105.789 257.49C104.792 257.49 103.999 257.116 103.409 256.368C102.922 255.733 102.678 254.957 102.678 254.039C102.678 252.94 103.013 252.056 103.681 251.387C104.248 250.809 104.939 250.52 105.755 250.52C106.379 250.52 106.917 250.679 107.37 250.996V250.265L108.849 249.483V254.923C108.849 256.056 109.399 256.623 110.498 256.623ZM107.37 252.577C106.951 252.112 106.435 251.88 105.823 251.88C105.325 251.88 104.917 252.084 104.599 252.492C104.282 252.889 104.123 253.41 104.123 254.056C104.123 254.713 104.282 255.24 104.599 255.637C104.917 256.034 105.33 256.232 105.84 256.232C106.475 256.232 106.996 255.971 107.404 255.45C107.382 255.246 107.37 255.087 107.37 254.974V252.577ZM119.005 256.623H123.493V258H118.869C118.257 258 117.65 257.881 117.05 257.643C116.449 257.881 115.837 258 115.214 258H110.607V256.623H115.095H115.333C114.517 255.954 113.678 254.974 112.817 253.682V252.934C113.361 252.152 114.007 251.534 114.755 251.081C115.514 250.628 116.273 250.401 117.033 250.401C117.792 250.401 118.551 250.633 119.311 251.098C120.07 251.551 120.727 252.175 121.283 252.968V253.682C120.421 254.974 119.577 255.954 118.75 256.623H119.005ZM114.177 253.325C115.219 254.753 116.177 255.694 117.05 256.147C117.922 255.682 118.88 254.736 119.923 253.308C119.073 252.277 118.109 251.755 117.033 251.744C115.956 251.744 115.004 252.271 114.177 253.325ZM122.477 258V256.623H124.806C127.106 256.623 128.925 255.864 130.263 254.345C129.322 252.611 128.177 251.744 126.829 251.744C125.911 251.744 124.964 252.231 123.99 253.206V251.846C124.942 250.883 125.95 250.401 127.016 250.401C127.888 250.401 128.733 250.718 129.549 251.353C130.365 251.976 131.084 252.872 131.708 254.039V254.787C130.042 256.929 127.735 258 124.789 258H122.477ZM127.458 261.383C126.902 261.383 126.625 261.1 126.625 260.533C126.625 259.978 126.902 259.7 127.458 259.7C128.002 259.7 128.274 259.978 128.274 260.533C128.274 261.1 128.002 261.383 127.458 261.383ZM134.096 258V247.817L135.558 247.035V258H134.096ZM143.889 256.623H145.011V258H143.719C143.141 258 142.642 257.887 142.223 257.66C142.121 258.782 141.73 259.677 141.05 260.346C140.427 260.958 139.645 261.264 138.704 261.264C138.024 261.264 137.361 261.094 136.715 260.754V259.479C137.293 259.796 137.871 259.955 138.449 259.955C139.174 259.955 139.741 259.711 140.149 259.224C140.557 258.737 140.761 258.062 140.761 257.201V251.404L142.223 250.622V250.639L142.24 250.622V255.263C142.342 256.17 142.892 256.623 143.889 256.623ZM154.94 256.623H156.079V258H154.787C153.847 258 153.104 257.7 152.56 257.099C151.982 257.926 151.138 258.34 150.027 258.34C148.917 258.34 148.078 257.932 147.511 257.116C146.979 257.705 146.236 258 145.284 258H143.992V256.623H145.114C146.225 256.623 146.78 256.056 146.78 254.923V254.362C146.78 253.047 147.103 252.039 147.749 251.336C148.316 250.713 149.075 250.401 150.027 250.401C151.115 250.401 151.954 250.803 152.543 251.608C153.042 252.299 153.291 253.217 153.291 254.362V254.923C153.291 256.056 153.841 256.623 154.94 256.623ZM150.027 256.963C150.583 256.963 151.019 256.731 151.336 256.266C151.665 255.801 151.829 255.161 151.829 254.345C151.829 252.622 151.229 251.761 150.027 251.761C148.837 251.761 148.242 252.622 148.242 254.345C148.242 256.09 148.837 256.963 150.027 256.963ZM155.066 258V256.623H155.967C157.145 256.623 157.735 256.005 157.735 254.77V247.817L159.214 247.035V254.787C159.214 255.796 158.913 256.595 158.313 257.184C157.746 257.728 157.004 258 156.086 258H155.066ZM165.047 263.355V259.649C165.047 258.686 165.324 257.938 165.88 257.405C166.378 256.918 167.07 256.657 167.954 256.623C167.444 256.045 167.189 255.24 167.189 254.209C167.189 252.974 167.512 252.01 168.158 251.319C168.736 250.707 169.495 250.401 170.436 250.401C171.399 250.401 172.141 250.701 172.663 251.302C173.127 251.835 173.36 252.532 173.36 253.393V255.229C173.348 256.079 173.082 256.748 172.561 257.235C172.039 257.722 171.32 257.977 170.402 258H168.175C167.064 258 166.509 258.567 166.509 259.7V262.573L165.047 263.355ZM171.898 253.461C171.898 252.328 171.41 251.761 170.436 251.761C169.869 251.761 169.427 251.976 169.11 252.407C168.804 252.826 168.651 253.416 168.651 254.175C168.651 254.946 168.798 255.546 169.093 255.977C169.387 256.408 169.801 256.623 170.334 256.623C171.376 256.623 171.898 256.096 171.898 255.042V253.461ZM179.205 258C178.219 258 177.46 257.683 176.927 257.048C176.474 256.504 176.247 255.813 176.247 254.974V247.817L177.709 247.035V254.923C177.709 256.056 178.265 256.623 179.375 256.623H180.497V258H179.205ZM190.554 256.623H191.659V258H190.537C189.619 258 188.882 257.898 188.327 257.694C187.772 257.479 187.256 257.105 186.78 256.572C185.352 257.524 183.686 258 181.782 258H179.47V256.623H181.799C184.1 256.623 185.919 255.864 187.256 254.345C186.315 252.611 185.171 251.744 183.822 251.744C182.904 251.744 181.958 252.231 180.983 253.206V251.846C181.935 250.883 182.944 250.401 184.009 250.401C184.882 250.401 185.726 250.718 186.542 251.353C187.358 251.976 188.078 252.872 188.701 254.039V254.787C188.35 255.229 188.015 255.586 187.698 255.858C188.31 256.368 189.262 256.623 190.554 256.623ZM193.431 253.393C193.431 252.407 193.725 251.642 194.315 251.098C194.836 250.633 195.516 250.401 196.355 250.401C197.431 250.401 198.259 250.798 198.837 251.591C199.335 252.26 199.585 253.132 199.585 254.209C199.585 255.433 199.267 256.391 198.633 257.082C198.077 257.694 197.352 258 196.457 258C195.437 258 194.66 257.717 194.128 257.15C193.584 257.717 192.853 258 191.935 258H190.643V256.623H191.765C192.875 256.623 193.431 256.056 193.431 254.923V253.393ZM194.893 255.042C194.893 256.096 195.408 256.623 196.44 256.623C196.972 256.623 197.386 256.408 197.681 255.977C197.987 255.546 198.14 254.946 198.14 254.175C198.14 253.416 197.981 252.826 197.664 252.407C197.346 251.976 196.91 251.761 196.355 251.761C195.38 251.761 194.893 252.328 194.893 253.461V255.042ZM219.895 256.623H220.677V258H219.725C218.773 258 218.03 257.705 217.498 257.116C216.965 257.705 216.223 258 215.271 258H209.202C208.284 258 207.564 257.694 207.043 257.082C206.589 256.549 206.363 255.852 206.363 254.991V252.934L207.825 252.152V254.855C207.825 256.034 208.374 256.623 209.474 256.623H215.118C216.217 256.623 216.767 256.034 216.767 254.855V251.404L218.229 250.622V254.923C218.229 256.056 218.784 256.623 219.895 256.623ZM211.684 259.7C212.228 259.7 212.5 259.978 212.5 260.533C212.5 261.1 212.228 261.383 211.684 261.383C211.128 261.383 210.851 261.1 210.851 260.533C210.851 259.978 211.128 259.7 211.684 259.7ZM225.459 256.623H226.581V258H225.289C224.315 258 223.561 257.688 223.028 257.065C222.462 257.688 221.68 258 220.682 258H219.662V256.623H220.563C221.742 256.623 222.331 256.005 222.331 254.77V247.817L223.81 247.035V254.787C223.81 255.444 223.935 255.915 224.184 256.198C224.445 256.481 224.87 256.623 225.459 256.623ZM230.231 253.257C231.523 251.353 233.127 250.401 235.042 250.401C236.323 250.401 237.348 250.849 238.119 251.744C238.776 252.503 239.105 253.438 239.105 254.549V255.093C239.105 256.022 238.878 256.742 238.425 257.252C237.972 257.751 237.326 258 236.487 258H225.556V256.623H228.718L228.769 256.436V247.817L230.231 247.035V253.257ZM237.626 255.025V254.549C237.626 253.665 237.354 252.962 236.81 252.441C236.345 251.988 235.762 251.761 235.059 251.761C233.892 251.761 232.838 252.288 231.897 253.342C231.194 254.135 230.639 255.127 230.231 256.317V256.623H236.368C236.855 256.623 237.184 256.51 237.354 256.283C237.535 256.056 237.626 255.637 237.626 255.025ZM241.823 258V247.817L243.285 247.035V258H241.823Z" fill="#585858"/>
<path d="M70.7095 214.57C70.2695 214.57 69.9175 214.438 69.6535 214.174C69.3895 213.91 69.2575 213.551 69.2575 213.096C69.2575 212.143 69.7415 211.666 70.7095 211.666C71.1495 211.666 71.4941 211.798 71.7435 212.062C72.0075 212.311 72.1395 212.656 72.1395 213.096C72.1395 214.079 71.6628 214.57 70.7095 214.57ZM74.0975 214.57C73.6575 214.57 73.3055 214.438 73.0415 214.174C72.7775 213.91 72.6455 213.551 72.6455 213.096C72.6455 212.143 73.1295 211.666 74.0975 211.666C74.5375 211.666 74.8821 211.798 75.1315 212.062C75.3955 212.311 75.5275 212.656 75.5275 213.096C75.5275 214.079 75.0508 214.57 74.0975 214.57ZM77.8155 224.338H79.7955V227H77.5515C76.1875 227 75.1315 226.545 74.3835 225.636C73.7528 226.12 72.9828 226.362 72.0735 226.362C70.7241 226.362 69.6461 225.856 68.8395 224.844C68.1795 224.008 67.8495 223.003 67.8495 221.83C67.8495 220.378 68.3188 219.197 69.2575 218.288C70.0495 217.525 70.9661 217.144 72.0075 217.144C72.5501 217.144 73.0488 217.247 73.5035 217.452V216.88L76.2535 215.428V222.754C76.2535 223.326 76.3708 223.737 76.6055 223.986C76.8548 224.221 77.2581 224.338 77.8155 224.338ZM73.5035 220.224C73.1221 219.901 72.6895 219.74 72.2055 219.74C71.7215 219.74 71.3255 219.938 71.0175 220.334C70.7241 220.73 70.5775 221.251 70.5775 221.896C70.5775 222.541 70.7241 223.055 71.0175 223.436C71.3108 223.817 71.7141 224.008 72.2275 224.008C72.7848 224.008 73.2175 223.817 73.5255 223.436C73.5108 223.319 73.5035 223.135 73.5035 222.886V220.224ZM78.4748 227V224.338H80.4548C81.0121 224.338 81.4081 224.221 81.6428 223.986C81.8774 223.737 81.9948 223.326 81.9948 222.754V218.684L84.7668 217.232V222.886C84.7668 224.221 84.3561 225.262 83.5348 226.01C82.8161 226.67 81.8774 227 80.7188 227H78.4748ZM79.6628 231.906C79.2228 231.906 78.8708 231.774 78.6068 231.51C78.3428 231.246 78.2108 230.887 78.2108 230.432C78.2108 229.479 78.6948 229.002 79.6628 229.002C80.1028 229.002 80.4474 229.127 80.6968 229.376C80.9608 229.64 81.0928 229.992 81.0928 230.432C81.0928 231.415 80.6161 231.906 79.6628 231.906ZM83.0508 231.906C82.6108 231.906 82.2588 231.774 81.9948 231.51C81.7308 231.246 81.5988 230.887 81.5988 230.432C81.5988 229.479 82.0828 229.002 83.0508 229.002C83.4908 229.002 83.8354 229.127 84.0848 229.376C84.3488 229.64 84.4808 229.992 84.4808 230.432C84.4808 231.415 84.0041 231.906 83.0508 231.906ZM94.1197 225.636C94.1197 227.337 93.6504 228.716 92.7117 229.772C91.8464 230.755 90.7024 231.246 89.2797 231.246C88.3557 231.246 87.4537 231.011 86.5737 230.542V228.122C87.3364 228.547 88.0844 228.76 88.8177 228.76C89.6244 228.76 90.2477 228.496 90.6877 227.968C91.1424 227.455 91.3697 226.736 91.3697 225.812V218.706L94.1197 217.232V225.636ZM102.135 227C100.801 227 99.7668 226.575 99.0334 225.724C98.4028 224.991 98.0874 224.045 98.0874 222.886V214.262L100.859 212.81V222.754C100.859 223.326 100.977 223.737 101.211 223.986C101.446 224.221 101.842 224.338 102.399 224.338H104.379V227H102.135ZM110.885 224.338H112.865V227H110.621C109.55 227 108.663 226.714 107.959 226.142C107.255 226.714 106.368 227 105.297 227H103.053V224.338H105.033C105.59 224.338 105.986 224.221 106.221 223.986C106.456 223.737 106.573 223.326 106.573 222.754V218.684L109.345 217.232V222.754C109.345 223.326 109.462 223.737 109.697 223.986C109.932 224.221 110.328 224.338 110.885 224.338ZM105.187 229.002C105.627 229.002 105.972 229.127 106.221 229.376C106.485 229.64 106.617 229.992 106.617 230.432C106.617 231.415 106.14 231.906 105.187 231.906C104.747 231.906 104.395 231.774 104.131 231.51C103.867 231.246 103.735 230.887 103.735 230.432C103.735 229.479 104.219 229.002 105.187 229.002ZM108.575 229.002C109.015 229.002 109.36 229.127 109.609 229.376C109.873 229.64 110.005 229.992 110.005 230.432C110.005 231.415 109.528 231.906 108.575 231.906C108.135 231.906 107.783 231.774 107.519 231.51C107.255 231.246 107.123 230.887 107.123 230.432C107.123 229.479 107.607 229.002 108.575 229.002ZM113.629 215.296C113.189 215.296 112.837 215.164 112.573 214.9C112.309 214.636 112.177 214.277 112.177 213.822C112.177 213.397 112.309 213.052 112.573 212.788C112.837 212.524 113.189 212.392 113.629 212.392C114.069 212.392 114.414 212.524 114.663 212.788C114.927 213.037 115.059 213.382 115.059 213.822C115.059 214.805 114.583 215.296 113.629 215.296ZM116.995 215.296C116.555 215.296 116.203 215.164 115.939 214.9C115.675 214.621 115.543 214.262 115.543 213.822C115.543 213.397 115.675 213.052 115.939 212.788C116.218 212.524 116.57 212.392 116.995 212.392C117.435 212.392 117.78 212.524 118.029 212.788C118.293 213.037 118.425 213.382 118.425 213.822C118.425 214.805 117.949 215.296 116.995 215.296ZM119.371 224.338H121.351V227H119.107C118.037 227 117.149 226.714 116.445 226.142C115.741 226.714 114.854 227 113.783 227H111.539V224.338H113.519C114.077 224.338 114.473 224.221 114.707 223.986C114.942 223.737 115.059 223.326 115.059 222.754V218.684L117.831 217.232V222.754C117.831 223.326 117.949 223.737 118.183 223.986C118.418 224.221 118.814 224.338 119.371 224.338ZM126.846 215.01C126.406 215.01 126.054 214.878 125.79 214.614C125.526 214.35 125.394 213.991 125.394 213.536C125.394 213.111 125.526 212.766 125.79 212.502C126.054 212.238 126.406 212.106 126.846 212.106C127.286 212.106 127.63 212.238 127.88 212.502C128.144 212.751 128.276 213.096 128.276 213.536C128.276 214.519 127.799 215.01 126.846 215.01ZM120.026 227V224.338H123.304C125.885 224.338 127.938 223.568 129.464 222.028C128.466 220.283 127.256 219.41 125.834 219.41C124.66 219.41 123.377 220.048 121.984 221.324V218.882C123.216 217.533 124.609 216.858 126.164 216.858C127.308 216.858 128.422 217.276 129.508 218.112C130.593 218.948 131.554 220.136 132.39 221.676V222.776C131.334 224.125 130.014 225.167 128.43 225.9C126.86 226.633 125.144 227 123.282 227H120.026ZM135.47 227V214.284L138.242 212.81V227H135.47ZM149.79 214.57C149.35 214.57 148.998 214.438 148.734 214.174C148.47 213.91 148.338 213.551 148.338 213.096C148.338 212.143 148.822 211.666 149.79 211.666C150.23 211.666 150.575 211.798 150.824 212.062C151.088 212.311 151.22 212.656 151.22 213.096C151.22 214.079 150.743 214.57 149.79 214.57ZM153.156 214.57C152.716 214.57 152.364 214.438 152.1 214.174C151.836 213.895 151.704 213.536 151.704 213.096C151.704 212.671 151.836 212.326 152.1 212.062C152.364 211.798 152.716 211.666 153.156 211.666C153.596 211.666 153.941 211.798 154.19 212.062C154.454 212.311 154.586 212.656 154.586 213.096C154.586 214.079 154.109 214.57 153.156 214.57ZM151.484 227C150.091 227 148.998 226.531 148.206 225.592C147.531 224.785 147.194 223.751 147.194 222.49C147.194 221.17 147.575 220.019 148.338 219.036C149.101 218.053 150.186 217.327 151.594 216.858C153.09 217.357 154.219 218.141 154.982 219.212C155.671 220.151 156.016 221.243 156.016 222.49C156.016 223.942 155.576 225.079 154.696 225.9C153.933 226.633 152.936 227 151.704 227H151.484ZM151.462 224.338H151.748C152.775 224.338 153.288 223.729 153.288 222.512C153.288 221.119 152.723 220.099 151.594 219.454C150.479 220.099 149.922 221.104 149.922 222.468C149.922 223.715 150.435 224.338 151.462 224.338ZM163.342 225.636C163.342 227.337 162.873 228.716 161.934 229.772C161.069 230.755 159.925 231.246 158.502 231.246C157.578 231.246 156.676 231.011 155.796 230.542V228.122C156.559 228.547 157.307 228.76 158.04 228.76C158.847 228.76 159.47 228.496 159.91 227.968C160.365 227.455 160.592 226.736 160.592 225.812V218.706L163.342 217.232V225.636ZM171.358 227C170.023 227 168.989 226.575 168.256 225.724C167.625 224.991 167.31 224.045 167.31 222.886V214.262L170.082 212.81V222.754C170.082 223.326 170.199 223.737 170.434 223.986C170.669 224.221 171.065 224.338 171.622 224.338H173.602V227H171.358ZM184.772 212.062C183.892 212.062 183.452 211.615 183.452 210.72C183.452 209.855 183.892 209.422 184.772 209.422C185.637 209.422 186.07 209.855 186.07 210.72C186.07 211.615 185.637 212.062 184.772 212.062ZM183.1 215.296C182.66 215.296 182.308 215.164 182.044 214.9C181.78 214.636 181.648 214.277 181.648 213.822C181.648 213.397 181.78 213.052 182.044 212.788C182.308 212.524 182.66 212.392 183.1 212.392C183.54 212.392 183.884 212.524 184.134 212.788C184.398 213.037 184.53 213.382 184.53 213.822C184.53 214.805 184.053 215.296 183.1 215.296ZM186.488 215.296C186.048 215.296 185.696 215.164 185.432 214.9C185.168 214.636 185.036 214.277 185.036 213.822C185.036 213.397 185.168 213.052 185.432 212.788C185.696 212.524 186.048 212.392 186.488 212.392C186.928 212.392 187.272 212.524 187.522 212.788C187.786 213.037 187.918 213.382 187.918 213.822C187.918 214.805 187.441 215.296 186.488 215.296ZM172.276 227V224.338H174.608C175.165 224.338 175.561 224.221 175.796 223.986C176.045 223.737 176.17 223.326 176.17 222.754V219.85L178.942 218.398V222.754C178.942 223.326 179.059 223.737 179.294 223.986C179.528 224.221 179.924 224.338 180.482 224.338H181.978C182.535 224.338 182.931 224.221 183.166 223.986C183.4 223.737 183.518 223.326 183.518 222.754V219.278L186.29 217.804V222.754C186.29 223.326 186.407 223.737 186.642 223.986C186.891 224.221 187.294 224.338 187.852 224.338H189.348C189.905 224.338 190.301 224.221 190.536 223.986C190.77 223.737 190.888 223.326 190.888 222.754V218.684L193.66 217.232V222.402C193.66 223.106 193.799 223.605 194.078 223.898C194.371 224.191 194.855 224.338 195.53 224.338H197.554V227H195.376C194.144 227 193.154 226.648 192.406 225.944C191.746 226.633 190.858 226.985 189.744 227H187.566C186.48 227 185.593 226.677 184.904 226.032C184.273 226.663 183.437 226.985 182.396 227H180.218C179.132 227 178.245 226.677 177.556 226.032C176.866 226.677 175.979 227 174.894 227H172.276ZM198.321 215.296C197.881 215.296 197.529 215.164 197.265 214.9C197.001 214.636 196.869 214.277 196.869 213.822C196.869 213.397 197.001 213.052 197.265 212.788C197.529 212.524 197.881 212.392 198.321 212.392C198.761 212.392 199.105 212.524 199.355 212.788C199.619 213.037 199.751 213.382 199.751 213.822C199.751 214.805 199.274 215.296 198.321 215.296ZM201.687 215.296C201.247 215.296 200.895 215.164 200.631 214.9C200.367 214.621 200.235 214.262 200.235 213.822C200.235 213.397 200.367 213.052 200.631 212.788C200.909 212.524 201.261 212.392 201.687 212.392C202.127 212.392 202.471 212.524 202.721 212.788C202.985 213.037 203.117 213.382 203.117 213.822C203.117 214.805 202.64 215.296 201.687 215.296ZM204.063 224.338H206.043V227H203.799C202.728 227 201.841 226.714 201.137 226.142C200.433 226.714 199.545 227 198.475 227H196.231V224.338H198.211C198.768 224.338 199.164 224.221 199.399 223.986C199.633 223.737 199.751 223.326 199.751 222.754V218.684L202.523 217.232V222.754C202.523 223.326 202.64 223.737 202.875 223.986C203.109 224.221 203.505 224.338 204.063 224.338ZM204.717 227V224.338H207.049C207.606 224.338 208.002 224.221 208.237 223.986C208.486 223.737 208.611 223.326 208.611 222.754V219.85L211.383 218.398V222.754C211.383 223.326 211.5 223.737 211.735 223.986C211.97 224.221 212.366 224.338 212.923 224.338H214.419C214.976 224.338 215.372 224.221 215.607 223.986C215.842 223.737 215.959 223.326 215.959 222.754V219.278L218.731 217.804V222.754C218.731 223.326 218.848 223.737 219.083 223.986C219.332 224.221 219.736 224.338 220.293 224.338H221.789C222.346 224.338 222.742 224.221 222.977 223.986C223.212 223.737 223.329 223.326 223.329 222.754V218.684L226.101 217.232V222.886C226.101 224.191 225.705 225.218 224.913 225.966C224.224 226.626 223.314 226.971 222.185 227H220.007C218.922 227 218.034 226.677 217.345 226.032C216.714 226.663 215.878 226.985 214.837 227H212.659C211.574 227 210.686 226.677 209.997 226.032C209.308 226.677 208.42 227 207.335 227H204.717ZM230.066 227V214.284L232.838 212.81V227H230.066Z" fill="#3B3B3B"/>
<path d="M164 182.219V182.583C164 183.898 162.828 184.941 161.47 184.721C160.404 184.547 159.667 183.547 159.667 182.468V182.219L160.592 179.598L158.583 179.221V185.834H160.75C161.348 185.834 161.833 186.319 161.833 186.918C161.833 187.517 161.348 188.001 160.75 188.001H154.25C153.652 188.001 153.167 187.517 153.167 186.918C153.167 186.319 153.652 185.834 154.25 185.834H156.417V178.814L154.519 178.459L155.451 181.066V181.688H155.437C155.298 182.947 154.109 183.89 152.766 183.62C151.715 183.41 151 182.415 151 181.344V181.08L152.148 177.419C152.42 176.551 153.298 176.024 154.192 176.189L156.417 176.602V176.082C156.417 175.483 156.902 174.999 157.5 174.999C158.098 174.999 158.583 175.483 158.583 176.082V177.004L161.194 177.488C161.925 177.624 162.53 178.137 162.781 178.837L163.999 182.218L164 182.219ZM147.75 175C151.335 175 154.25 172.085 154.25 168.5C154.25 164.915 151.335 162 147.75 162C144.165 162 141.25 164.915 141.25 168.5C141.25 172.085 144.165 175 147.75 175ZM148.833 181.343V180.747L149.878 177.418C149.191 177.263 148.482 177.167 147.75 177.167C142.38 177.167 138.01 181.53 138 186.898C137.999 187.502 138.48 188 139.083 188H151.199C151.078 187.66 151 187.298 151 186.917C151 186.372 151.147 185.866 151.386 185.414C149.867 184.701 148.833 183.13 148.833 181.343Z" fill="#75B2CB"/>
<defs>
<filter id="filter0_d_224_3405" x="0.727999" y="47.081" width="302.319" height="37.4668" filterUnits="userSpaceOnUse" color-interpolation-filters="sRGB">
<feFlood flood-opacity="0" result="BackgroundImageFix"/>
<feColorMatrix in="SourceAlpha" type="matrix" values="0 0 0 0 0 0 0 0 0 0 0 0 0 0 0 0 0 0 127 0" result="hardAlpha"/>
<feOffset dy="-6.4598"/>
<feGaussianBlur stdDeviation="9.136"/>
<feComposite in2="hardAlpha" operator="out"/>
<feColorMatrix type="matrix" values="0 0 0 0 0 0 0 0 0 0 0 0 0 0 0 0 0 0 0.88 0"/>
<feBlend mode="normal" in2="BackgroundImageFix" result="effect1_dropShadow_224_3405"/>
<feBlend mode="normal" in="SourceGraphic" in2="effect1_dropShadow_224_3405" result="shape"/>
</filter>
<filter id="filter1_d_224_3405" x="96.6953" y="19.3864" width="163.563" height="158.958" filterUnits="userSpaceOnUse" color-interpolation-filters="sRGB">
<feFlood flood-opacity="0" result="BackgroundImageFix"/>
<feColorMatrix in="SourceAlpha" type="matrix" values="0 0 0 0 0 0 0 0 0 0 0 0 0 0 0 0 0 0 127 0" result="hardAlpha"/>
<feOffset dx="32.299" dy="27.6849"/>
<feGaussianBlur stdDeviation="11.5354"/>
<feComposite in2="hardAlpha" operator="out"/>
<feColorMatrix type="matrix" values="0 0 0 0 0 0 0 0 0 0 0 0 0 0 0 0 0 0 0.1 0"/>
<feBlend mode="normal" in2="BackgroundImageFix" result="effect1_dropShadow_224_3405"/>
<feBlend mode="normal" in="SourceGraphic" in2="effect1_dropShadow_224_3405" result="shape"/>
</filter>
<linearGradient id="paint0_linear_224_3405" x1="188.989" y1="111.691" x2="112.591" y2="35.2891" gradientUnits="userSpaceOnUse">
<stop stop-color="#EBEAEA"/>
<stop offset="1" stop-color="white"/>
</linearGradient>
</defs>
</svg>
