<svg width="304" height="266" viewBox="0 0 304 266" fill="none" xmlns="http://www.w3.org/2000/svg">
<g filter="url(#filter0_d_224_3359)">
<line x1="19" y1="72.2742" x2="284.775" y2="72.2742" stroke="white" stroke-width="0.922828"/>
</g>
<rect x="19" y="72.7356" width="265.775" height="42.4501" fill="white"/>
<path d="M210.99 73.4912H208.042C208.042 41.9319 182.365 16.2582 150.809 16.2582C119.253 16.2582 93.5551 41.9284 93.5551 73.4912H90.5898C90.5898 40.2953 117.596 13.2859 150.795 13.2859C183.995 13.2859 210.99 40.2953 210.99 73.4912Z" fill="#0F898C"/>
<g filter="url(#filter1_d_224_3359)">
<path d="M96.7127 74.8547C97.0628 88.7326 102.735 101.945 112.554 111.757C122.374 121.57 135.59 127.232 149.468 127.572C180.159 128.309 205.49 103.085 204.878 72.3911C204.68 62.5416 201.796 52.9331 196.537 44.6025C191.279 36.2718 183.845 29.5352 175.038 25.1196C171.287 23.2288 167.325 21.7864 163.236 20.8222C159.517 19.9484 155.717 19.4706 151.897 19.3967C121.175 18.7912 95.9376 44.1396 96.7127 74.8547Z" fill="url(#paint0_linear_224_3359)"/>
</g>
<path d="M187.086 109.782C207.211 89.6566 207.277 57.0926 187.233 37.0483C167.188 17.004 134.624 17.0697 114.499 37.1951C94.3735 57.3205 94.3077 89.8845 114.352 109.929C134.396 129.973 166.96 129.907 187.086 109.782Z" fill="#F9F9F9"/>
<path d="M142.651 59.9856C145.361 59.9856 147.557 61.2824 149.24 63.8758C150.641 66.0252 151.342 68.5836 151.342 71.5508C151.342 75.1022 150.455 77.9526 148.679 80.1021C147.09 82.0413 145.081 83.0109 142.651 83.0109C139.824 83.0109 137.628 81.7726 136.062 79.296C134.731 77.2166 134.065 74.6349 134.065 71.5508C134.065 68.093 134.941 65.2542 136.693 63.0347C138.259 61.002 140.244 59.9856 142.651 59.9856ZM142.721 64.1912C140.361 64.1912 139.181 66.5743 139.181 71.3406C139.181 73.7471 139.52 75.6395 140.198 77.018C140.805 78.2563 141.611 78.8755 142.616 78.8755C143.737 78.8755 144.614 78.2096 145.244 76.8778C145.899 75.5461 146.226 73.7003 146.226 71.3406C146.226 66.5743 145.057 64.1912 142.721 64.1912ZM163.659 60.4062V82.5903H158.718V66.0486C158.414 66.2589 157.959 66.5393 157.351 66.8897C156.51 67.3804 155.891 67.7775 155.494 68.0813C155.19 67.5439 154.688 66.6911 153.987 65.5229L153.846 65.3126C153.636 64.9622 153.426 64.6117 153.216 64.2613C154.01 63.6538 155.202 62.8127 156.79 61.738L157.176 61.4926C157.83 61.0253 158.344 60.6632 158.718 60.4062H163.659Z" fill="#0F898C"/>
<path d="M91.021 222.934L92.407 220.272H95.883C96.631 220.272 97.005 219.839 97.005 218.974C97.005 217.36 96.2277 216.121 94.673 215.256L96.037 212.902C98.325 214.236 99.557 216.048 99.733 218.336C99.7917 219.069 99.953 219.575 100.217 219.854C100.496 220.132 100.965 220.272 101.625 220.272H103.297V222.934H101.471C100.386 222.934 99.469 222.633 98.721 222.032C98.1784 222.633 97.401 222.934 96.389 222.934H91.021ZM106.291 210.944C105.851 210.944 105.499 210.812 105.235 210.548C104.971 210.284 104.839 209.924 104.839 209.47C104.839 209.044 104.971 208.7 105.235 208.436C105.499 208.172 105.851 208.04 106.291 208.04C106.731 208.04 107.076 208.172 107.325 208.436C107.589 208.685 107.721 209.03 107.721 209.47C107.721 210.452 107.244 210.944 106.291 210.944ZM109.811 220.272H111.791V222.934H109.547C108.476 222.934 107.589 222.648 106.885 222.076C106.181 222.648 105.294 222.934 104.223 222.934H101.979V220.272H103.959C104.516 220.272 104.912 220.154 105.147 219.92C105.382 219.67 105.499 219.26 105.499 218.688V214.618L108.271 213.166V218.688C108.271 219.26 108.388 219.67 108.623 219.92C108.858 220.154 109.254 220.272 109.811 220.272ZM112.555 211.23C112.115 211.23 111.763 211.098 111.499 210.834C111.235 210.57 111.103 210.21 111.103 209.756C111.103 209.33 111.235 208.986 111.499 208.722C111.763 208.458 112.115 208.326 112.555 208.326C112.995 208.326 113.34 208.458 113.589 208.722C113.853 208.971 113.985 209.316 113.985 209.756C113.985 210.738 113.509 211.23 112.555 211.23ZM115.921 211.23C115.481 211.23 115.129 211.098 114.865 210.834C114.601 210.555 114.469 210.196 114.469 209.756C114.469 209.33 114.601 208.986 114.865 208.722C115.144 208.458 115.496 208.326 115.921 208.326C116.361 208.326 116.706 208.458 116.955 208.722C117.219 208.971 117.351 209.316 117.351 209.756C117.351 210.738 116.875 211.23 115.921 211.23ZM118.297 220.272H120.277V222.934H118.033C116.963 222.934 116.075 222.648 115.371 222.076C114.667 222.648 113.78 222.934 112.709 222.934H110.465V220.272H112.445C113.003 220.272 113.399 220.154 113.633 219.92C113.868 219.67 113.985 219.26 113.985 218.688V214.618L116.757 213.166V218.688C116.757 219.26 116.875 219.67 117.109 219.92C117.344 220.154 117.74 220.272 118.297 220.272ZM118.952 222.934V220.272H121.284C121.841 220.272 122.237 220.154 122.472 219.92C122.721 219.67 122.846 219.26 122.846 218.688V215.784L125.618 214.332V218.688C125.618 219.26 125.735 219.67 125.97 219.92C126.204 220.154 126.6 220.272 127.158 220.272H128.654C129.211 220.272 129.607 220.154 129.842 219.92C130.076 219.67 130.194 219.26 130.194 218.688V215.212L132.966 213.738V218.688C132.966 219.26 133.083 219.67 133.318 219.92C133.567 220.154 133.97 220.272 134.528 220.272H136.024C136.581 220.272 136.977 220.154 137.212 219.92C137.446 219.67 137.564 219.26 137.564 218.688V214.618L140.336 213.166V218.336C140.336 219.04 140.475 219.538 140.754 219.832C141.047 220.125 141.531 220.272 142.206 220.272H144.23V222.934H142.052C140.82 222.934 139.83 222.582 139.082 221.878C138.422 222.567 137.534 222.919 136.42 222.934H134.242C133.156 222.934 132.269 222.611 131.58 221.966C130.949 222.596 130.113 222.919 129.072 222.934H126.894C125.808 222.934 124.921 222.611 124.232 221.966C123.542 222.611 122.655 222.934 121.57 222.934H118.952ZM156.899 220.272H158.857V222.934H156.613C155.557 222.934 154.691 222.662 154.017 222.12C153.225 222.956 152.183 223.374 150.893 223.374C149.573 223.374 148.531 222.956 147.769 222.12C147.065 222.662 146.192 222.934 145.151 222.934H142.907V220.272H144.887C145.444 220.272 145.84 220.154 146.075 219.92C146.309 219.67 146.427 219.26 146.427 218.688V218.05C146.427 216.334 146.874 214.999 147.769 214.046C148.546 213.21 149.587 212.792 150.893 212.792C152.374 212.792 153.518 213.334 154.325 214.42C154.999 215.344 155.337 216.554 155.337 218.05V218.688C155.337 219.26 155.454 219.67 155.689 219.92C155.938 220.154 156.341 220.272 156.899 220.272ZM150.893 220.712C152.007 220.712 152.565 219.802 152.565 217.984C152.565 216.238 152.007 215.366 150.893 215.366C149.763 215.366 149.199 216.238 149.199 217.984C149.199 219.802 149.763 220.712 150.893 220.712ZM157.538 222.934V220.272H158.924C159.598 220.272 160.075 220.125 160.354 219.832C160.647 219.538 160.794 219.04 160.794 218.336V210.218L163.544 208.744V218.358C163.544 219.78 163.111 220.917 162.246 221.768C161.454 222.545 160.398 222.934 159.078 222.934H157.538ZM167.504 222.934V210.218L170.276 208.744V222.934H167.504ZM185.035 220.272H187.015V222.934H184.771C184.273 222.934 183.811 222.868 183.385 222.736C183.195 224.144 182.63 225.258 181.691 226.08C180.841 226.813 179.821 227.18 178.633 227.18C177.709 227.18 176.807 226.945 175.927 226.476V224.056C176.69 224.481 177.438 224.694 178.171 224.694C178.978 224.694 179.601 224.43 180.041 223.902C180.496 223.388 180.723 222.67 180.723 221.746V214.618L182.527 213.672L183.473 213.166V213.188L183.495 213.166V218.688C183.495 219.26 183.613 219.67 183.847 219.92C184.082 220.154 184.478 220.272 185.035 220.272ZM187.794 211.23C187.354 211.23 187.002 211.098 186.738 210.834C186.474 210.57 186.342 210.21 186.342 209.756C186.342 209.33 186.474 208.986 186.738 208.722C187.002 208.458 187.354 208.326 187.794 208.326C188.234 208.326 188.578 208.458 188.828 208.722C189.092 208.971 189.224 209.316 189.224 209.756C189.224 210.738 188.747 211.23 187.794 211.23ZM191.16 211.23C190.72 211.23 190.368 211.098 190.104 210.834C189.84 210.555 189.708 210.196 189.708 209.756C189.708 209.33 189.84 208.986 190.104 208.722C190.382 208.458 190.734 208.326 191.16 208.326C191.6 208.326 191.944 208.458 192.194 208.722C192.458 208.971 192.59 209.316 192.59 209.756C192.59 210.738 192.113 211.23 191.16 211.23ZM193.536 220.272H195.516V222.934H193.272C192.201 222.934 191.314 222.648 190.61 222.076C189.906 222.648 189.018 222.934 187.948 222.934H185.704V220.272H187.684C188.241 220.272 188.637 220.154 188.872 219.92C189.106 219.67 189.224 219.26 189.224 218.688V214.618L191.996 213.166V218.688C191.996 219.26 192.113 219.67 192.348 219.92C192.582 220.154 192.978 220.272 193.536 220.272ZM201.01 210.944C200.57 210.944 200.218 210.812 199.954 210.548C199.69 210.284 199.558 209.924 199.558 209.47C199.558 209.044 199.69 208.7 199.954 208.436C200.218 208.172 200.57 208.04 201.01 208.04C201.45 208.04 201.795 208.172 202.044 208.436C202.308 208.685 202.44 209.03 202.44 209.47C202.44 210.452 201.963 210.944 201.01 210.944ZM194.19 222.934V220.272H197.468C200.049 220.272 202.103 219.502 203.628 217.962C202.631 216.216 201.421 215.344 199.998 215.344C198.825 215.344 197.541 215.982 196.148 217.258V214.816C197.38 213.466 198.773 212.792 200.328 212.792C201.472 212.792 202.587 213.21 203.672 214.046C204.757 214.882 205.718 216.07 206.554 217.61V218.71C205.498 220.059 204.178 221.1 202.594 221.834C201.025 222.567 199.309 222.934 197.446 222.934H194.19ZM209.635 222.934V210.218L212.407 208.744V222.934H209.635Z" fill="#3B3B3B"/>
<path d="M64.2861 244.678L64.7961 243.573L68.4171 242.927L67.9071 244.015L64.2861 244.678ZM63.9971 246.395L64.5071 245.307L68.1451 244.644L67.6351 245.732L63.9971 246.395ZM65.195 258V247.817L66.657 247.035V258H65.195ZM73.339 257.099C73.339 258.368 73.0046 259.388 72.336 260.159C71.7013 260.896 70.857 261.264 69.803 261.264C69.123 261.264 68.46 261.094 67.814 260.754V259.479C68.392 259.796 68.97 259.955 69.548 259.955C70.2733 259.955 70.84 259.711 71.248 259.224C71.656 258.737 71.86 258.062 71.86 257.201V251.404L73.339 250.622V257.099ZM84.3401 256.623V258H82.2321C82.1868 258.975 81.7674 259.779 80.9741 260.414C80.3054 260.935 79.5461 261.196 78.6961 261.196C77.9934 261.196 77.3304 261.032 76.7071 260.703V259.411C77.3078 259.728 77.9028 259.887 78.4921 259.887C79.0928 259.887 79.6141 259.7 80.0561 259.326C80.5094 258.952 80.7418 258.504 80.7531 257.983C80.1638 257.96 79.7274 257.938 79.4441 257.915C78.2201 257.847 77.2964 257.433 76.6731 256.674C76.1518 256.039 75.8911 255.218 75.8911 254.209C75.8911 252.974 76.2198 252.01 76.8771 251.319C77.4664 250.707 78.2428 250.401 79.2061 250.401C80.2148 250.401 80.9911 250.701 81.5351 251.302C81.9998 251.835 82.2321 252.532 82.2321 253.393V256.623H84.3401ZM80.7531 253.495C80.7531 252.339 80.2374 251.761 79.2061 251.761C78.6168 251.761 78.1578 251.976 77.8291 252.407C77.5004 252.826 77.3361 253.416 77.3361 254.175C77.3361 255.66 78.0614 256.447 79.5121 256.538C79.7841 256.572 80.1978 256.6 80.7531 256.623V253.495ZM88.8679 248.667C88.3126 248.667 88.0349 248.384 88.0349 247.817C88.0349 247.262 88.3126 246.984 88.8679 246.984C89.4119 246.984 89.6839 247.262 89.6839 247.817C89.6839 248.384 89.4119 248.667 88.8679 248.667ZM83.3259 258V256.623H86.3859C85.8646 256.045 85.6039 255.24 85.6039 254.209C85.6039 252.974 85.9269 252.01 86.5729 251.319C87.1396 250.707 87.8933 250.401 88.8339 250.401C89.7973 250.401 90.5453 250.701 91.0779 251.302C91.5313 251.835 91.7579 252.532 91.7579 253.393V255.008C91.7466 255.949 91.4689 256.691 90.9249 257.235C90.3923 257.745 89.6839 258 88.7999 258H83.3259ZM90.2959 253.461C90.2959 252.328 89.8086 251.761 88.8339 251.761C88.2786 251.761 87.8423 251.976 87.5249 252.407C87.2076 252.826 87.0489 253.416 87.0489 254.175C87.0489 254.923 87.2019 255.518 87.5079 255.96C87.8139 256.402 88.2219 256.623 88.7319 256.623C89.7746 256.623 90.2959 256.079 90.2959 254.991V253.461ZM97.254 258L97.968 256.623H100.994C101.447 256.623 101.765 256.51 101.946 256.283C102.139 256.056 102.235 255.665 102.235 255.11C102.235 253.603 101.538 252.469 100.144 251.71L100.892 250.452C102.671 251.495 103.601 252.934 103.68 254.77C103.703 255.427 103.85 255.903 104.122 256.198C104.405 256.481 104.853 256.623 105.465 256.623H106.468V258H105.346C104.405 258 103.669 257.7 103.136 257.099C102.762 257.7 102.133 258 101.249 258H97.254ZM108.686 248.565C108.13 248.565 107.853 248.282 107.853 247.715C107.853 247.16 108.13 246.882 108.686 246.882C109.23 246.882 109.502 247.16 109.502 247.715C109.502 248.282 109.23 248.565 108.686 248.565ZM111.372 256.623H112.494V258H111.202C110.261 258 109.519 257.7 108.975 257.099C108.431 257.7 107.688 258 106.748 258H105.456V256.623H106.578C107.688 256.623 108.244 256.056 108.244 254.923V251.404L109.706 250.622V254.923C109.706 256.056 110.261 256.623 111.372 256.623ZM113.37 248.684C112.814 248.684 112.537 248.401 112.537 247.834C112.537 247.279 112.814 247.001 113.37 247.001C113.914 247.001 114.186 247.279 114.186 247.834C114.186 248.401 113.914 248.684 113.37 248.684ZM115.546 248.684C114.99 248.684 114.713 248.401 114.713 247.834C114.713 247.279 114.99 247.001 115.546 247.001C116.09 247.001 116.362 247.279 116.362 247.834C116.362 248.401 116.09 248.684 115.546 248.684ZM117.382 256.623H118.504V258H117.212C116.271 258 115.529 257.7 114.985 257.099C114.441 257.7 113.698 258 112.758 258H111.466V256.623H112.588C113.698 256.623 114.254 256.056 114.254 254.923V251.404L115.716 250.622V254.923C115.716 256.056 116.271 256.623 117.382 256.623ZM117.475 258V256.623H119.005C120.105 256.623 120.654 256.056 120.654 254.923V252.543L122.116 251.761V254.923C122.116 256.056 122.672 256.623 123.782 256.623H124.564C125.675 256.623 126.23 256.056 126.23 254.923V251.965L127.692 251.2V254.923C127.692 256.056 128.242 256.623 129.341 256.623H130.14C131.251 256.623 131.806 256.056 131.806 254.923V251.404L133.268 250.622V254.77C133.268 256.005 133.858 256.623 135.036 256.623H136.447V258H134.917C133.897 258 133.121 257.654 132.588 256.963C132.112 257.643 131.37 257.989 130.361 258H129.188C128.191 258 127.449 257.666 126.961 256.997C126.474 257.654 125.749 257.989 124.785 258H123.612C122.638 258 121.895 257.666 121.385 256.997C120.898 257.666 120.156 258 119.158 258H117.475ZM146.37 256.623H147.509V258H146.217C145.276 258 144.534 257.7 143.99 257.099C143.412 257.926 142.567 258.34 141.457 258.34C140.346 258.34 139.507 257.932 138.941 257.116C138.408 257.705 137.666 258 136.714 258H135.422V256.623H136.544C137.654 256.623 138.21 256.056 138.21 254.923V254.362C138.21 253.047 138.533 252.039 139.179 251.336C139.745 250.713 140.505 250.401 141.457 250.401C142.545 250.401 143.383 250.803 143.973 251.608C144.471 252.299 144.721 253.217 144.721 254.362V254.923C144.721 256.056 145.27 256.623 146.37 256.623ZM141.457 256.963C142.012 256.963 142.448 256.731 142.766 256.266C143.094 255.801 143.259 255.161 143.259 254.345C143.259 252.622 142.658 251.761 141.457 251.761C140.267 251.761 139.672 252.622 139.672 254.345C139.672 256.09 140.267 256.963 141.457 256.963ZM146.495 258V256.623H147.396C148.575 256.623 149.164 256.005 149.164 254.77V247.817L150.643 247.035V254.787C150.643 255.796 150.343 256.595 149.742 257.184C149.175 257.728 148.433 258 147.515 258H146.495ZM153.698 258V247.817L155.16 247.035V258H153.698ZM162.691 252.237L163.082 251.506H163.541C163.428 251.302 163.371 251.092 163.371 250.877C163.371 250.537 163.49 250.248 163.728 250.01C163.978 249.761 164.278 249.636 164.629 249.636C164.913 249.636 165.179 249.727 165.428 249.908V250.673C165.179 250.48 164.935 250.384 164.697 250.384C164.289 250.384 164.085 250.571 164.085 250.945C164.085 251.138 164.17 251.325 164.34 251.506H165.887L165.496 252.237H162.691ZM171.99 258C171.877 258.997 171.333 259.796 170.358 260.397C169.452 260.952 168.296 261.23 166.89 261.23C165.1 261.23 163.751 260.709 162.844 259.666C162.176 258.895 161.841 257.943 161.841 256.81C161.841 255.858 162.079 255.042 162.555 254.362L163.966 254.056C163.456 254.861 163.201 255.728 163.201 256.657C163.201 257.666 163.53 258.459 164.187 259.037C164.833 259.615 165.734 259.904 166.89 259.904C167.865 259.904 168.67 259.734 169.304 259.394C169.939 259.054 170.324 258.589 170.46 258H168.76L169.474 256.623H172.041V258H171.99ZM180.498 247.001C180 247.001 179.75 246.746 179.75 246.236C179.75 245.737 180 245.488 180.498 245.488C180.997 245.488 181.246 245.737 181.246 246.236C181.246 246.746 180.997 247.001 180.498 247.001ZM179.427 249.024C178.872 249.024 178.594 248.741 178.594 248.174C178.594 247.619 178.872 247.341 179.427 247.341C179.971 247.341 180.243 247.619 180.243 248.174C180.243 248.741 179.971 249.024 179.427 249.024ZM181.586 249.024C181.031 249.024 180.753 248.741 180.753 248.174C180.753 247.619 181.031 247.341 181.586 247.341C182.13 247.341 182.402 247.619 182.402 248.174C182.402 248.741 182.13 249.024 181.586 249.024ZM171.148 258V256.623H172.678C173.778 256.623 174.327 256.056 174.327 254.923V252.543L175.789 251.761V254.923C175.789 256.056 176.345 256.623 177.455 256.623H178.237C179.348 256.623 179.903 256.056 179.903 254.923V251.965L181.365 251.2V254.923C181.365 256.056 181.915 256.623 183.014 256.623H183.813C184.924 256.623 185.479 256.056 185.479 254.923V251.404L186.941 250.622V254.77C186.941 256.005 187.531 256.623 188.709 256.623H190.12V258H188.59C187.57 258 186.794 257.654 186.261 256.963C185.785 257.643 185.043 257.989 184.034 258H182.861C181.864 258 181.122 257.666 180.634 256.997C180.147 257.654 179.422 257.989 178.458 258H177.285C176.311 258 175.568 257.666 175.058 256.997C174.571 257.666 173.829 258 172.831 258H171.148ZM192.562 248.565C192.007 248.565 191.729 248.282 191.729 247.715C191.729 247.16 192.007 246.882 192.562 246.882C193.106 246.882 193.378 247.16 193.378 247.715C193.378 248.282 193.106 248.565 192.562 248.565ZM189.094 258V256.623H190.216C191.327 256.623 191.882 256.056 191.882 254.923V251.404L193.344 250.622V254.974C193.344 255.937 193.055 256.697 192.477 257.252C191.945 257.751 191.248 258 190.386 258H189.094ZM195.496 246.797L195.887 246.066H196.346C196.233 245.862 196.176 245.652 196.176 245.437C196.176 245.097 196.301 244.808 196.55 244.57C196.8 244.321 197.094 244.196 197.434 244.196C197.718 244.196 197.99 244.287 198.25 244.468V245.216C198.001 245.023 197.763 244.927 197.536 244.927C197.117 244.927 196.907 245.114 196.907 245.488C196.907 245.681 196.987 245.873 197.145 246.066H198.692L198.301 246.797H195.496ZM196.397 258V248.497L197.859 247.715V258H196.397ZM205.095 257.456C204.664 257.626 204.137 257.711 203.514 257.711C202.505 257.711 201.712 257.331 201.134 256.572C200.646 255.926 200.403 255.116 200.403 254.141C200.403 252.94 200.726 251.999 201.372 251.319C201.95 250.707 202.709 250.401 203.65 250.401C204.613 250.401 205.355 250.701 205.877 251.302C206.341 251.835 206.574 252.532 206.574 253.393V257.099C206.574 258.38 206.239 259.394 205.571 260.142C204.936 260.845 204.092 261.196 203.038 261.196C202.335 261.196 201.672 261.032 201.049 260.703V259.411C201.649 259.728 202.244 259.887 202.834 259.887C203.502 259.887 204.035 259.672 204.432 259.241C204.828 258.822 205.049 258.227 205.095 257.456ZM205.095 253.461C205.095 252.328 204.613 251.761 203.65 251.761C203.083 251.761 202.635 251.971 202.307 252.39C201.989 252.809 201.831 253.382 201.831 254.107C201.831 254.821 201.984 255.393 202.29 255.824C202.607 256.243 203.032 256.453 203.565 256.453C204.313 256.453 204.823 256.243 205.095 255.824V253.461ZM226.962 256.623H227.744V258H226.792C225.84 258 225.098 257.705 224.565 257.116C224.033 257.705 223.29 258 222.338 258H216.269C215.351 258 214.632 257.694 214.11 257.082C213.657 256.549 213.43 255.852 213.43 254.991V252.934L214.892 252.152V254.855C214.892 256.034 215.442 256.623 216.541 256.623H222.185C223.285 256.623 223.834 256.034 223.834 254.855V251.404L225.296 250.622V254.923C225.296 256.056 225.852 256.623 226.962 256.623ZM218.751 259.7C219.295 259.7 219.567 259.978 219.567 260.533C219.567 261.1 219.295 261.383 218.751 261.383C218.196 261.383 217.918 261.1 217.918 260.533C217.918 259.978 218.196 259.7 218.751 259.7ZM226.73 258V256.623H229.059C231.36 256.623 233.179 255.864 234.516 254.345C233.576 252.611 232.431 251.744 231.082 251.744C230.164 251.744 229.218 252.231 228.243 253.206V251.846C229.195 250.883 230.204 250.401 231.269 250.401C232.142 250.401 232.986 250.718 233.802 251.353C234.618 251.976 235.338 252.872 235.961 254.039V254.787C234.295 256.929 231.989 258 229.042 258H226.73ZM231.711 261.383C231.156 261.383 230.878 261.1 230.878 260.533C230.878 259.978 231.156 259.7 231.711 259.7C232.255 259.7 232.527 259.978 232.527 260.533C232.527 261.1 232.255 261.383 231.711 261.383ZM237.448 246.797L237.839 246.066H238.298C238.185 245.862 238.128 245.652 238.128 245.437C238.128 245.097 238.253 244.808 238.502 244.57C238.752 244.321 239.046 244.196 239.386 244.196C239.67 244.196 239.942 244.287 240.202 244.468V245.216C239.953 245.023 239.715 244.927 239.488 244.927C239.069 244.927 238.859 245.114 238.859 245.488C238.859 245.681 238.939 245.873 239.097 246.066H240.644L240.253 246.797H237.448ZM238.349 258V248.497L239.811 247.715V258H238.349Z" fill="#585858"/>
<path fill-rule="evenodd" clip-rule="evenodd" d="M155 188H150C145.286 188 142.929 188 141.465 186.535C140.001 185.07 140 182.714 140 178V173C140 168.286 140 165.929 141.465 164.465C142.93 163.001 145.299 163 150.037 163C150.795 163 151.401 163 151.912 163.021C151.896 163.121 151.888 163.223 151.888 163.326L151.875 166.869C151.875 168.24 151.875 169.452 152.006 170.429C152.149 171.488 152.475 172.546 153.34 173.411C154.203 174.274 155.262 174.601 156.321 174.744C157.298 174.875 158.51 174.875 159.881 174.875H164.946C165 175.542 165 176.362 165 177.454V178C165 182.714 165 185.071 163.535 186.535C162.07 187.999 159.714 188 155 188Z" fill="#0F898C"/>
<path d="M161.69 170.021L156.74 165.568C155.331 164.299 154.627 163.664 153.761 163.333L153.75 166.75C153.75 169.696 153.75 171.17 154.665 172.085C155.58 173 157.054 173 160 173H164.475C164.023 172.12 163.21 171.39 161.69 170.021Z" fill="#0F898C"/>
<defs>
<filter id="filter0_d_224_3359" x="0.727999" y="47.081" width="302.319" height="37.4668" filterUnits="userSpaceOnUse" color-interpolation-filters="sRGB">
<feFlood flood-opacity="0" result="BackgroundImageFix"/>
<feColorMatrix in="SourceAlpha" type="matrix" values="0 0 0 0 0 0 0 0 0 0 0 0 0 0 0 0 0 0 127 0" result="hardAlpha"/>
<feOffset dy="-6.4598"/>
<feGaussianBlur stdDeviation="9.136"/>
<feComposite in2="hardAlpha" operator="out"/>
<feColorMatrix type="matrix" values="0 0 0 0 0 0 0 0 0 0 0 0 0 0 0 0 0 0 0.88 0"/>
<feBlend mode="normal" in2="BackgroundImageFix" result="effect1_dropShadow_224_3359"/>
<feBlend mode="normal" in="SourceGraphic" in2="effect1_dropShadow_224_3359" result="shape"/>
</filter>
<filter id="filter1_d_224_3359" x="96.6953" y="19.386" width="163.563" height="158.958" filterUnits="userSpaceOnUse" color-interpolation-filters="sRGB">
<feFlood flood-opacity="0" result="BackgroundImageFix"/>
<feColorMatrix in="SourceAlpha" type="matrix" values="0 0 0 0 0 0 0 0 0 0 0 0 0 0 0 0 0 0 127 0" result="hardAlpha"/>
<feOffset dx="32.299" dy="27.6849"/>
<feGaussianBlur stdDeviation="11.5354"/>
<feComposite in2="hardAlpha" operator="out"/>
<feColorMatrix type="matrix" values="0 0 0 0 0 0 0 0 0 0 0 0 0 0 0 0 0 0 0.1 0"/>
<feBlend mode="normal" in2="BackgroundImageFix" result="effect1_dropShadow_224_3359"/>
<feBlend mode="normal" in="SourceGraphic" in2="effect1_dropShadow_224_3359" result="shape"/>
</filter>
<linearGradient id="paint0_linear_224_3359" x1="188.989" y1="111.691" x2="112.591" y2="35.2888" gradientUnits="userSpaceOnUse">
<stop stop-color="#EBEAEA"/>
<stop offset="1" stop-color="white"/>
</linearGradient>
</defs>
</svg>
