<svg width="6" height="4" viewBox="0 0 6 4" fill="none" xmlns="http://www.w3.org/2000/svg">
<path fill-rule="evenodd" clip-rule="evenodd" d="M2.55122 3.79727C2.66926 3.92708 2.82928 4 2.99611 4C3.16294 4 3.32295 3.92708 3.441 3.79727L5.8157 1.18338C5.93374 1.05333 6.00004 0.87698 6 0.693112C5.99996 0.509244 5.93359 0.332924 5.81549 0.20294C5.69738 0.0729566 5.53722 -4.33151e-05 5.37024 1.92822e-08C5.20326 4.33537e-05 5.04313 0.0731262 4.92508 0.203171L2.99611 2.32719L1.06714 0.203171C0.948456 0.0768332 0.789458 0.00687729 0.624388 0.00837046C0.459318 0.00986363 0.301385 0.0826863 0.184604 0.211154C0.0678229 0.339622 0.00153828 0.513456 2.6226e-05 0.695215C-0.00148535 0.876974 0.0618973 1.05212 0.176522 1.18292L2.5508 3.79773L2.55122 3.79727Z" fill="#213242"/>
</svg>
