<svg width="18" height="19" viewBox="0 0 18 19" fill="none" xmlns="http://www.w3.org/2000/svg">
<path d="M9.4823 18.3346L9.47246 18.3363L9.4089 18.3665L9.391 18.3699L9.37847 18.3665L9.31492 18.3363C9.30537 18.3334 9.29821 18.3348 9.29344 18.3406L9.28986 18.3492L9.27464 18.7184L9.27911 18.7356L9.28807 18.7468L9.38116 18.8106L9.39458 18.8141L9.40532 18.8106L9.49842 18.7468L9.50916 18.733L9.51274 18.7184L9.49752 18.3501C9.49513 18.3409 9.49006 18.3357 9.4823 18.3346ZM9.71951 18.2371L9.70787 18.2388L9.54228 18.319L9.53333 18.3277L9.53064 18.3371L9.54675 18.708L9.55123 18.7184L9.55839 18.7244L9.73831 18.8046C9.74964 18.8075 9.7583 18.8052 9.76426 18.7977L9.76784 18.7856L9.73741 18.2561C9.73443 18.2457 9.72846 18.2394 9.71951 18.2371ZM9.0795 18.2388C9.07556 18.2365 9.07084 18.2358 9.06634 18.2367C9.06184 18.2377 9.0579 18.2403 9.05534 18.244L9.04996 18.2561L9.01953 18.7856C9.02013 18.796 9.0252 18.8029 9.03475 18.8063L9.04817 18.8046L9.22809 18.7244L9.23704 18.7175L9.24062 18.708L9.25584 18.3371L9.25316 18.3268L9.2442 18.3182L9.0795 18.2388Z" fill="#A3D9A5"/>
<path d="M8.95112 0C13.8948 0 17.9022 3.86129 17.9022 8.62474C17.9022 13.3882 13.8948 17.2495 8.95112 17.2495C4.00742 17.2495 0 13.3882 0 8.62474C0 3.86129 4.00742 0 8.95112 0ZM8.95112 3.44989C8.71373 3.44989 8.48605 3.54076 8.31818 3.70251C8.15032 3.86425 8.05601 4.08363 8.05601 4.31237V8.62474C8.05606 8.85346 8.1504 9.0728 8.31828 9.23451L11.0036 11.8219C11.1724 11.979 11.3985 12.066 11.6332 12.064C11.8679 12.062 12.0924 11.9713 12.2584 11.8114C12.4244 11.6515 12.5185 11.4352 12.5205 11.2091C12.5226 10.9829 12.4324 10.7651 12.2693 10.6024L9.84624 8.26767V4.31237C9.84624 4.08363 9.75193 3.86425 9.58406 3.70251C9.4162 3.54076 9.18852 3.44989 8.95112 3.44989Z" fill="#A3D9A5"/>
</svg>
