<svg width="9" height="12" viewBox="0 0 9 12" fill="none" xmlns="http://www.w3.org/2000/svg">
<path d="M1.5 12H2.565C2.78877 11.9979 3.0055 11.9215 3.18115 11.7829C3.35681 11.6442 3.48145 11.4512 3.5355 11.234C3.59339 11.0226 3.71914 10.836 3.8934 10.7031C4.06767 10.5701 4.2808 10.4981 4.5 10.4981C4.7192 10.4981 4.93233 10.5701 5.1066 10.7031C5.28086 10.836 5.40661 11.0226 5.4645 11.234C5.51855 11.4512 5.64319 11.6442 5.81885 11.7829C5.9945 11.9215 6.21123 11.9979 6.435 12H7.5C7.89782 12 8.27936 11.842 8.56066 11.5607C8.84196 11.2794 9 10.8978 9 10.5V8.5H7C6.86739 8.5 6.74021 8.44732 6.64645 8.35355C6.55268 8.25979 6.5 8.13261 6.5 8C6.5 7.86739 6.55268 7.74021 6.64645 7.64645C6.74021 7.55268 6.86739 7.5 7 7.5H9V2.5C8.99921 1.8372 8.73556 1.20178 8.26689 0.73311C7.79822 0.264441 7.1628 0.000793929 6.5 0L6.435 0C6.21123 0.00212591 5.9945 0.0785066 5.81885 0.21715C5.64319 0.355793 5.51855 0.548846 5.4645 0.766C5.40661 0.977419 5.28086 1.16396 5.1066 1.29693C4.93233 1.42989 4.7192 1.50192 4.5 1.50192C4.2808 1.50192 4.06767 1.42989 3.8934 1.29693C3.71914 1.16396 3.59339 0.977419 3.5355 0.766C3.48145 0.548846 3.35681 0.355793 3.18115 0.21715C3.0055 0.0785066 2.78877 0.00212591 2.565 0L2.5 0C1.8372 0.000793929 1.20178 0.264441 0.73311 0.73311C0.264441 1.20178 0.000793929 1.8372 0 2.5V7.5H2C2.13261 7.5 2.25979 7.55268 2.35355 7.64645C2.44732 7.74021 2.5 7.86739 2.5 8C2.5 8.13261 2.44732 8.25979 2.35355 8.35355C2.25979 8.44732 2.13261 8.5 2 8.5H0V10.5C0 10.8978 0.158035 11.2794 0.43934 11.5607C0.720644 11.842 1.10218 12 1.5 12ZM4 7.5H5C5.13261 7.5 5.25979 7.55268 5.35355 7.64645C5.44732 7.74021 5.5 7.86739 5.5 8C5.5 8.13261 5.44732 8.25979 5.35355 8.35355C5.25979 8.44732 5.13261 8.5 5 8.5H4C3.86739 8.5 3.74021 8.44732 3.64645 8.35355C3.55268 8.25979 3.5 8.13261 3.5 8C3.5 7.86739 3.55268 7.74021 3.64645 7.64645C3.74021 7.55268 3.86739 7.5 4 7.5Z" fill="#2C3E52"/>
</svg>
