<svg width="14" height="12" viewBox="0 0 14 12" fill="none" xmlns="http://www.w3.org/2000/svg">
<path fill-rule="evenodd" clip-rule="evenodd" d="M2.24117 11.6666C1.70013 11.6666 1.18125 11.4427 0.798674 11.0442C0.4161 10.6457 0.201172 10.1052 0.201172 9.54158V2.45825C0.201172 1.89467 0.4161 1.35416 0.798674 0.95565C1.18125 0.557135 1.70013 0.333252 2.24117 0.333252H11.7612C12.3022 0.333252 12.8211 0.557135 13.2037 0.95565C13.5862 1.35416 13.8012 1.89467 13.8012 2.45825V9.54158C13.8012 10.1052 13.5862 10.6457 13.2037 11.0442C12.8211 11.4427 12.3022 11.6666 11.7612 11.6666H2.24117ZM4.02617 3.32242C3.9569 3.26081 3.87646 3.21432 3.78961 3.18571C3.70276 3.15711 3.61128 3.14697 3.5206 3.1559C3.42992 3.16483 3.34188 3.19265 3.26172 3.2377C3.18156 3.28275 3.1109 3.34412 3.05394 3.41816C2.99699 3.49221 2.95489 3.57742 2.93016 3.66873C2.90542 3.76005 2.89855 3.85561 2.90995 3.94974C2.92135 4.04388 2.95079 4.13467 2.99652 4.21673C3.04225 4.29878 3.10335 4.37043 3.17617 4.42742L5.72617 6.55313C6.08799 6.85488 6.53767 7.0193 7.00117 7.0193C7.46467 7.0193 7.91435 6.85488 8.27617 6.55313L10.8262 4.42813C10.8959 4.36999 10.954 4.29811 10.9971 4.2166C11.0401 4.13509 11.0674 4.04553 11.0772 3.95305C11.0871 3.86057 11.0793 3.76698 11.0545 3.67761C11.0296 3.58825 10.9881 3.50486 10.9323 3.43221C10.8764 3.35956 10.8074 3.29908 10.7292 3.25421C10.6509 3.20934 10.565 3.18096 10.4762 3.1707C10.3874 3.16044 10.2976 3.16849 10.2118 3.1944C10.126 3.22031 10.0459 3.26357 9.97617 3.32171L7.42617 5.44671C7.30557 5.5473 7.15567 5.6021 7.00117 5.6021C6.84667 5.6021 6.69678 5.5473 6.57617 5.44671L4.02617 3.32242Z" fill="white"/>
</svg>
