<svg width="14" height="14" viewBox="0 0 14 14" fill="none" xmlns="http://www.w3.org/2000/svg">
<path d="M6.80001 0.199951C10.5556 0.199951 13.6 3.24431 13.6 6.99995C13.6 10.7556 10.5556 13.7999 6.80001 13.7999C5.59828 13.802 4.41768 13.484 3.37961 12.8785L0.00273051 13.7999L0.92209 10.4217C0.316182 9.3833 -0.0020955 8.2022 1.03827e-05 6.99995C1.03827e-05 3.24431 3.04437 0.199951 6.80001 0.199951ZM4.48257 3.80395L4.34657 3.80939C4.25864 3.81545 4.17272 3.83854 4.09361 3.87739C4.01988 3.91922 3.95255 3.97143 3.89369 4.03243C3.81209 4.10927 3.76585 4.17591 3.71621 4.24051C3.46469 4.56752 3.32927 4.969 3.33133 5.38155C3.33269 5.71475 3.41973 6.03911 3.55573 6.34239C3.83385 6.95575 4.29149 7.60514 4.89533 8.20694C5.04085 8.35178 5.18365 8.4973 5.33733 8.63262C6.08766 9.29318 6.98176 9.76956 7.94852 10.0239L8.33476 10.0831C8.46056 10.0899 8.58636 10.0803 8.71284 10.0742C8.91085 10.0638 9.10418 10.0102 9.27928 9.91714C9.36826 9.87114 9.45516 9.82122 9.53972 9.76754C9.53972 9.76754 9.56851 9.74805 9.62472 9.70634C9.71652 9.63834 9.77296 9.59006 9.84912 9.5105C9.90624 9.45157 9.95384 9.38312 9.99192 9.30514C10.045 9.1943 10.098 8.98282 10.1198 8.8067C10.1361 8.67206 10.1313 8.59863 10.1293 8.55307C10.1266 8.4803 10.066 8.40483 10.0001 8.37286L9.60432 8.19538C9.60432 8.19538 9.01272 7.93766 8.65096 7.77311C8.6131 7.75662 8.57254 7.74717 8.53128 7.74522C8.48475 7.74036 8.43772 7.74555 8.39337 7.76045C8.34902 7.77535 8.3084 7.79961 8.27424 7.83158C8.27084 7.83022 8.22528 7.86899 7.73364 8.46466C7.70543 8.50258 7.66656 8.53124 7.62199 8.54698C7.57742 8.56273 7.52918 8.56484 7.4834 8.55307C7.43909 8.54125 7.39568 8.52625 7.35352 8.50819C7.2692 8.47283 7.23996 8.45922 7.18217 8.43474C6.79176 8.26468 6.43039 8.03455 6.11117 7.75271C6.02549 7.67791 5.94593 7.59631 5.86433 7.51743C5.59682 7.26121 5.36368 6.97138 5.17073 6.65519L5.13061 6.59059C5.10222 6.54693 5.07895 6.50016 5.06125 6.45119C5.03541 6.35123 5.10273 6.27099 5.10273 6.27099C5.10273 6.27099 5.26797 6.09011 5.34481 5.99219C5.41961 5.89699 5.48285 5.80451 5.52365 5.73855C5.60389 5.60935 5.62905 5.47675 5.58689 5.37407C5.39649 4.90895 5.19974 4.44632 4.99665 3.98619C4.95653 3.89507 4.83753 3.82979 4.72941 3.81687C4.69269 3.81233 4.65597 3.80871 4.61925 3.80599C4.52794 3.80075 4.43639 3.80166 4.34521 3.80871L4.48257 3.80395Z" fill="white"/>
</svg>
