<svg width="15" height="15" viewBox="0 0 15 15" fill="none" xmlns="http://www.w3.org/2000/svg">
<path d="M4.72839 0.900146H10.2724C12.3844 0.900146 14.1004 2.61615 14.1004 4.72815V10.2721C14.1004 11.2874 13.6971 12.2611 12.9792 12.979C12.2613 13.6968 11.2876 14.1001 10.2724 14.1001H4.72839C2.61639 14.1001 0.900391 12.3841 0.900391 10.2721V4.72815C0.900391 3.7129 1.3037 2.73923 2.02159 2.02134C2.73948 1.30345 3.71314 0.900146 4.72839 0.900146ZM4.59639 2.22015C3.96624 2.22015 3.36189 2.47047 2.9163 2.91606C2.47072 3.36165 2.22039 3.96599 2.22039 4.59615V10.4041C2.22039 11.7175 3.28299 12.7801 4.59639 12.7801H10.4044C11.0345 12.7801 11.6389 12.5298 12.0845 12.0842C12.5301 11.6386 12.7804 11.0343 12.7804 10.4041V4.59615C12.7804 3.28275 11.7178 2.22015 10.4044 2.22015H4.59639ZM10.9654 3.21015C11.1842 3.21015 11.394 3.29707 11.5488 3.45178C11.7035 3.6065 11.7904 3.81634 11.7904 4.03515C11.7904 4.25395 11.7035 4.46379 11.5488 4.61851C11.394 4.77323 11.1842 4.86015 10.9654 4.86015C10.7466 4.86015 10.5367 4.77323 10.382 4.61851C10.2273 4.46379 10.1404 4.25395 10.1404 4.03515C10.1404 3.81634 10.2273 3.6065 10.382 3.45178C10.5367 3.29707 10.7466 3.21015 10.9654 3.21015ZM7.50039 4.20015C8.3756 4.20015 9.21497 4.54782 9.83384 5.16669C10.4527 5.78556 10.8004 6.62493 10.8004 7.50015C10.8004 8.37536 10.4527 9.21473 9.83384 9.8336C9.21497 10.4525 8.3756 10.8001 7.50039 10.8001C6.62518 10.8001 5.78581 10.4525 5.16694 9.8336C4.54807 9.21473 4.20039 8.37536 4.20039 7.50015C4.20039 6.62493 4.54807 5.78556 5.16694 5.16669C5.78581 4.54782 6.62518 4.20015 7.50039 4.20015ZM7.50039 5.52015C6.97526 5.52015 6.47164 5.72875 6.10032 6.10007C5.729 6.4714 5.52039 6.97502 5.52039 7.50015C5.52039 8.02527 5.729 8.5289 6.10032 8.90022C6.47164 9.27154 6.97526 9.48015 7.50039 9.48015C8.02552 9.48015 8.52914 9.27154 8.90046 8.90022C9.27178 8.5289 9.48039 8.02527 9.48039 7.50015C9.48039 6.97502 9.27178 6.4714 8.90046 6.10007C8.52914 5.72875 8.02552 5.52015 7.50039 5.52015Z" fill="#0F898C"/>
</svg>
