<svg width="184" height="155" viewBox="0 0 184 155" fill="none" xmlns="http://www.w3.org/2000/svg">
<g clip-path="url(#clip0_224_5539)">
<path d="M28.7073 141.041C64.2318 159.652 121.831 159.652 157.36 141.041C192.889 122.431 192.884 92.2604 157.36 73.6502C121.835 55.04 64.2318 55.0357 28.7031 73.6502C-6.82572 92.2646 -6.82148 122.431 28.7073 141.041Z" fill="#FAFAFA" fill-opacity="0.1"/>
<path d="M122.757 144.46C129.939 144.46 135.761 141.677 135.761 138.244C135.761 134.81 129.939 132.027 122.757 132.027C115.574 132.027 109.752 134.81 109.752 138.244C109.752 141.677 115.574 144.46 122.757 144.46Z" fill="#F0F0F0"/>
<path d="M21.0605 30.749V52.1357C21.0605 52.8372 21.5524 53.1263 22.163 52.7734L71.6803 24.1034C72.0007 23.8934 72.2674 23.6109 72.4589 23.2785C72.6504 22.9462 72.7613 22.5733 72.7827 22.1901V0.78646C72.7827 0.0849103 72.2866 -0.204213 71.6803 0.148688L22.163 28.8187C21.8396 29.0296 21.571 29.3147 21.3792 29.6503C21.1875 29.986 21.0783 30.3626 21.0605 30.749Z" fill="#F0F0F0"/>
<path d="M24.509 30.4133L39.3497 21.8246C40.0324 21.4292 40.5794 21.7481 40.5794 22.5346V37.4883C40.5561 37.9148 40.4326 38.3297 40.2189 38.6992C40.0052 39.0686 39.7073 39.3822 39.3497 39.6142L24.509 48.2071C23.8305 48.5983 23.2793 48.2794 23.2793 47.4928V32.5477C23.3023 32.12 23.4256 31.7037 23.6393 31.3329C23.853 30.962 24.1509 30.6469 24.509 30.4133Z" fill="#FAFAFA"/>
<path d="M36.5257 29.2864L32.1117 38.4618L29.8644 37.1607C29.6486 37.0424 29.3954 37.0126 29.1581 37.0776C28.9209 37.1427 28.718 37.2974 28.5923 37.5094L23.2793 46.6976V47.5012C23.2793 48.2877 23.8305 48.6066 24.509 48.2155L39.3497 39.6225C39.7066 39.3898 40.0039 39.076 40.2175 38.7067C40.4311 38.3374 40.5551 37.9229 40.5794 37.4966V32.2371L37.6112 29.1163C37.5449 29.0234 37.4542 28.9507 37.3491 28.9065C37.2441 28.8622 37.1288 28.8481 37.0162 28.8658C36.9036 28.8834 36.7981 28.9321 36.7115 29.0064C36.6249 29.0806 36.5606 29.1776 36.5257 29.2864Z" fill="#27DEBF"/>
<path d="M25.5097 35.8852C26.4266 35.2855 27.1898 34.4775 27.7371 33.5268C28.2845 32.576 28.6007 31.5093 28.6601 30.4132C28.6601 29.4905 28.3633 28.823 27.8757 28.4658L24.509 30.4132C24.152 30.6459 23.8548 30.9597 23.6412 31.329C23.4275 31.6983 23.3036 32.1128 23.2793 32.5391V36.0978C23.8602 36.438 24.6404 36.387 25.5097 35.8852Z" fill="#27DEBF"/>
<path d="M46.1193 19.303L68.4186 6.39022C68.9275 6.09684 69.3388 6.30518 69.3388 6.85792C69.3164 7.16766 69.2214 7.46774 69.0615 7.73371C68.9016 7.99969 68.6813 8.22407 68.4186 8.38857L46.1193 21.2971C45.6105 21.5905 45.1992 21.3821 45.1992 20.8294C45.2223 20.5204 45.3176 20.2212 45.4774 19.956C45.6373 19.6908 45.8572 19.4671 46.1193 19.303Z" fill="#FAFAFA"/>
<path d="M46.1193 23.721L68.4186 10.8082C68.9275 10.5148 69.3388 10.7231 69.3388 11.2759C69.3164 11.5856 69.2214 11.8857 69.0615 12.1517C68.9016 12.4177 68.6813 12.642 68.4186 12.8065L46.1193 25.7151C45.6105 26.0084 45.1992 25.8001 45.1992 25.2516C45.2216 24.9419 45.3166 24.6418 45.4765 24.3758C45.6364 24.1098 45.8567 23.8855 46.1193 23.721Z" fill="#FAFAFA"/>
<path d="M46.1193 28.1382L68.4186 15.2297C68.9275 14.9363 69.3388 15.1447 69.3388 15.6931C69.3164 16.0029 69.2214 16.303 69.0615 16.5689C68.9016 16.8349 68.6813 17.0593 68.4186 17.2238L46.1193 30.1323C45.6105 30.4299 45.1992 30.2216 45.1992 29.6689C45.2216 29.3591 45.3166 29.059 45.4765 28.7931C45.6364 28.5271 45.8567 28.3027 46.1193 28.1382Z" fill="#FAFAFA"/>
<path d="M46.1193 32.5561L68.4186 19.6475C68.9275 19.3542 69.3388 19.5625 69.3388 20.1152C69.3157 20.4242 69.2204 20.7235 69.0606 20.9887C68.9007 21.2539 68.6808 21.4776 68.4186 21.6416L46.1193 34.5757C45.6105 34.869 45.1992 34.6607 45.1992 34.108C45.2183 33.7945 45.3118 33.4902 45.4718 33.2203C45.6319 32.9504 45.8539 32.7226 46.1193 32.5561Z" fill="#FAFAFA"/>
<path d="M10.7168 98.0384V66.6557C10.7372 66.2723 10.8477 65.899 11.0393 65.5665C11.2308 65.234 11.4981 64.9516 11.8193 64.7424L49.2689 43.0581C49.8752 42.7052 50.3713 42.9901 50.3713 43.6959V75.0786C50.3499 75.4618 50.239 75.8347 50.0475 76.167C49.856 76.4994 49.5893 76.7819 49.2689 76.9919L11.8193 98.6762C11.2087 99.0291 10.7168 98.7442 10.7168 98.0384Z" fill="#F0F0F0"/>
<path d="M10.7168 96.4694V98.0384C10.7168 98.7442 11.2087 99.029 11.8193 98.6761L49.2689 76.9919C49.5893 76.7819 49.856 76.4993 50.0475 76.167C50.239 75.8346 50.3499 75.4618 50.3713 75.0785V73.5054L10.7168 96.4694Z" fill="#27DEBF"/>
<path d="M28.836 68.0077L32.6522 67.8079C33.1186 67.7823 33.2458 68.046 32.9363 68.4031L28.5519 73.4033C28.2424 73.7562 27.9922 73.6584 27.9922 73.1907V68.9048C27.9938 68.6761 28.0818 68.4564 28.2383 68.29C28.3948 68.1236 28.6084 68.0227 28.836 68.0077Z" fill="#27DEBF"/>
<path d="M27.8525 76.1458C27.3952 76.1518 26.9445 76.0359 26.5465 75.8099C25.6052 75.2614 25.0879 74.1092 25.0879 72.604C25.0879 69.5342 27.2462 65.8011 29.9005 64.2492C31.2108 63.4881 32.4447 63.3733 33.3945 63.9176C34.3443 64.4618 34.8574 65.6183 34.8574 67.1192C34.8574 70.1932 32.6948 73.9221 30.0447 75.474C29.3851 75.8861 28.6292 76.1178 27.8525 76.1458ZM32.0927 63.8708C31.368 63.8995 30.6634 64.1179 30.0489 64.5043C27.4751 65.9925 25.3847 69.6278 25.3847 72.604C25.3847 74.0156 25.8511 75.0658 26.6992 75.5548C27.5472 76.0438 28.6836 75.929 29.9005 75.2232C32.4743 73.7308 34.5648 70.121 34.5648 67.1192C34.5648 65.7076 34.0984 64.6616 33.2503 64.1684C32.8955 63.9694 32.495 63.8668 32.0885 63.8708H32.0927Z" fill="#27DEBF"/>
<path d="M12.7839 37.4925L10.4645 36.1575C9.35783 35.4134 7.81863 35.4432 6.1183 36.4296C2.72613 38.3854 0.00390625 43.3473 0.00390625 47.5141V48.4622C0.00390625 52.629 5.59251 57.153 5.59251 57.153L7.87375 58.4498C7.87375 58.4498 6.50416 56.8808 6.66105 56.5577C8.17481 53.4794 12.2242 44.7802 12.2242 41.3787V40.4306C12.2328 39.7443 12.1457 39.0603 11.9656 38.3982L12.2242 38.547L12.7839 37.4925ZM6.11406 47.0464C4.41797 48.0243 3.05686 47.2292 3.05686 45.2776C3.96427 45.1331 6.24975 41.2214 6.11406 39.9671C7.81015 38.9892 9.16702 39.7843 9.17126 41.7359C9.1138 42.7997 8.80703 43.8349 8.27585 44.7576C7.74467 45.6803 7.00404 46.4644 6.11406 47.0464Z" fill="#27DEBF"/>
<g opacity="0.2">
<path d="M12.7839 37.4925L10.4645 36.1575C9.35783 35.4134 7.81863 35.4432 6.1183 36.4296C2.72613 38.3854 0.00390625 43.3473 0.00390625 47.5141V48.4622C0.00390625 52.629 5.59251 57.153 5.59251 57.153L7.87375 58.4498C7.87375 58.4498 6.50416 56.8808 6.66105 56.5577C8.17481 53.4794 12.2242 44.7802 12.2242 41.3787V40.4306C12.2328 39.7443 12.1457 39.0603 11.9656 38.3982L12.2242 38.547L12.7839 37.4925ZM6.11406 47.0464C4.41797 48.0243 3.05686 47.2292 3.05686 45.2776C3.96427 45.1331 6.24975 41.2214 6.11406 39.9671C7.81015 38.9892 9.16702 39.7843 9.17126 41.7359C9.1138 42.7997 8.80703 43.8349 8.27585 44.7576C7.74467 45.6803 7.00404 46.4644 6.11406 47.0464Z" fill="black"/>
</g>
<path d="M12.782 37.4927C12.7567 37.4746 12.7297 37.459 12.7014 37.4459C11.6117 36.8337 10.1573 36.9187 8.55452 37.8456C6.13759 39.2487 4.04716 42.1867 3.04223 45.2778C2.65362 46.4538 2.44768 47.6828 2.43164 48.9216V49.8825C2.43164 53.0926 6.05703 56.8172 7.72343 58.3606C7.75843 58.393 7.79681 58.4215 7.83792 58.4457C7.9359 58.5058 8.04537 58.5448 8.15928 58.5599C8.27318 58.5751 8.38899 58.5662 8.49925 58.5338C8.60951 58.5013 8.71176 58.4461 8.79942 58.3716C8.88708 58.2971 8.95821 58.205 9.00822 58.1013C10.4499 55.125 14.6435 46.2472 14.6435 42.7947V41.8466C14.6689 39.7079 13.9438 38.1942 12.782 37.4927ZM5.55244 47.3059C5.51723 47.1037 5.5002 46.8988 5.50156 46.6936C5.55756 45.6294 5.86323 44.5934 6.39371 43.6699C6.9242 42.7464 7.66453 41.9614 8.55452 41.3789C8.7323 41.2762 8.91806 41.188 9.10998 41.1152C10.5347 40.5965 11.6117 41.4171 11.6117 43.1476C11.5546 44.2109 11.248 45.2457 10.7167 46.1678C10.1855 47.0898 9.44465 47.8731 8.55452 48.4539C7.05772 49.3298 5.81109 48.8025 5.55244 47.3059Z" fill="#27DEBF"/>
<path d="M11.614 43.1517C11.5568 44.215 11.2502 45.2498 10.719 46.1718C10.1877 47.0939 9.44689 47.8772 8.55676 48.4579C7.05997 49.3083 5.81334 48.8023 5.55469 47.3057C5.74899 47.2371 5.93639 47.1503 6.1144 47.0463C7.00383 46.4642 7.74381 45.6799 8.27427 44.7572C8.80472 43.8345 9.1107 42.7993 9.16735 41.7358C9.16929 41.529 9.15082 41.3225 9.11223 41.1193C10.5369 40.6006 11.614 41.4212 11.614 43.1517Z" fill="#27DEBF"/>
<g opacity="0.2">
<path d="M11.614 43.1517C11.5568 44.215 11.2502 45.2498 10.719 46.1718C10.1877 47.0939 9.44689 47.8772 8.55676 48.4579C7.05997 49.3083 5.81334 48.8023 5.55469 47.3057C5.74899 47.2371 5.93639 47.1503 6.1144 47.0463C7.00383 46.4642 7.74381 45.6799 8.27427 44.7572C8.80472 43.8345 9.1107 42.7993 9.16735 41.7358C9.16929 41.529 9.15082 41.3225 9.11223 41.1193C10.5369 40.6006 11.614 41.4212 11.614 43.1517Z" fill="black"/>
</g>
<path d="M56.1653 95.9422C56.1653 95.9422 57.696 86.163 54.2953 77.7529C50.8947 69.3428 46.311 68.8241 43.9365 70.0188C41.5619 71.2136 43.0884 75.8778 45.2085 79.0114C48.0325 83.1229 52.6968 91.9752 52.5441 99.9261L56.1653 95.9422Z" fill="#27DEBF"/>
<path opacity="0.2" d="M56.1653 95.9422C56.1653 95.9422 57.696 86.163 54.2953 77.7529C50.8947 69.3428 46.311 68.8241 43.9365 70.0188C41.5619 71.2136 43.0884 75.8778 45.2085 79.0114C48.0325 83.1229 52.6968 91.9752 52.5441 99.9261L56.1653 95.9422Z" fill="black"/>
<path d="M54.6444 96.5629C54.6064 96.5618 54.5689 96.5531 54.5343 96.5372C54.4996 96.5213 54.4686 96.4986 54.4428 96.4705C54.4171 96.4423 54.3973 96.4093 54.3846 96.3733C54.3719 96.3373 54.3665 96.2991 54.3688 96.261C54.9285 82.872 48.2586 72.876 45.3795 70.9287C45.3481 70.9074 45.3211 70.8802 45.3001 70.8485C45.2792 70.8169 45.2646 70.7814 45.2573 70.744C45.25 70.7067 45.2502 70.6684 45.2577 70.6311C45.2652 70.5938 45.2799 70.5584 45.3011 70.5269C45.3223 70.4953 45.3494 70.4683 45.381 70.4472C45.4126 70.4262 45.448 70.4116 45.4852 70.4043C45.5224 70.397 45.5607 70.3971 45.5979 70.4047C45.635 70.4122 45.6703 70.427 45.7018 70.4482C49.094 72.7187 55.5052 82.9401 54.9412 96.2865C54.9401 96.3243 54.9316 96.3615 54.916 96.3959C54.9004 96.4303 54.8782 96.4613 54.8506 96.487C54.8229 96.5128 54.7905 96.5327 54.7551 96.5457C54.7197 96.5587 54.6821 96.5646 54.6444 96.5629Z" fill="white"/>
<path d="M55.5656 107.554C54.9847 106.091 53.4837 104.459 49.6293 102.715C45.775 100.972 42.8747 98.6464 42.3404 96.9627C42.1796 96.4976 42.1586 95.9954 42.28 95.5184C42.4013 95.0415 42.6597 94.6108 43.0231 94.2798C43.0231 94.2798 39.3892 93.8546 38.9312 91.6224C38.3588 88.8077 41.5347 88.6249 41.5347 88.6249C41.5347 88.6249 37.3666 82.7403 36.2599 80.1212C35.1532 77.5021 36.4295 77.3448 39.1178 78.344C41.8061 79.3431 46.9283 84.373 47.7212 85.9079C47.7212 85.9079 49.1078 84.2072 50.6003 85.3254C52.0929 86.4437 52.165 89.7899 51.283 90.9974C51.8778 90.8863 52.4919 90.9504 53.0511 91.1821C53.6102 91.4138 54.0904 91.803 54.4335 92.3027C55.9515 94.2968 56.4518 99.2842 56.4518 99.2842L55.5656 107.554Z" fill="#27DEBF"/>
<path d="M55.836 106.193C55.7716 106.192 55.7092 106.17 55.6586 106.13C55.608 106.09 55.572 106.035 55.5561 105.972C53.4954 97.362 43.7132 83.6201 37.637 79.2492C37.6061 79.2272 37.5798 79.1992 37.5597 79.167C37.5395 79.1348 37.5259 79.0989 37.5196 79.0614C37.5133 79.0239 37.5145 78.9855 37.523 78.9484C37.5315 78.9113 37.5471 78.8763 37.5691 78.8453C37.5911 78.8143 37.619 78.788 37.6511 78.7678C37.6833 78.7476 37.7191 78.734 37.7565 78.7277C37.7939 78.7213 37.8322 78.7225 37.8692 78.731C37.9061 78.7395 37.9411 78.7552 37.972 78.7773C44.1245 83.2034 54.0297 97.1196 56.1201 105.836C56.1367 105.911 56.1234 105.989 56.0829 106.054C56.0425 106.12 55.9782 106.166 55.9038 106.185L55.836 106.193Z" fill="white"/>
<path d="M132.586 19.4948C132.535 19.4942 132.486 19.4811 132.442 19.4566L131.25 18.7635C131.217 18.7445 131.188 18.7193 131.165 18.6891C131.142 18.659 131.125 18.6246 131.115 18.5878C131.106 18.5511 131.103 18.5128 131.108 18.4751C131.113 18.4374 131.125 18.4011 131.144 18.3681C131.163 18.3352 131.188 18.3063 131.218 18.2831C131.248 18.2599 131.283 18.2429 131.319 18.2331C131.356 18.2232 131.394 18.2207 131.432 18.2256C131.469 18.2305 131.506 18.2428 131.538 18.2618L132.73 18.9549C132.763 18.9738 132.792 18.9991 132.815 19.0292C132.838 19.0594 132.855 19.0938 132.865 19.1305C132.875 19.1672 132.877 19.2056 132.872 19.2433C132.867 19.281 132.855 19.3174 132.836 19.3503C132.811 19.3943 132.774 19.4308 132.73 19.4562C132.686 19.4816 132.636 19.4949 132.586 19.4948Z" fill="white"/>
<path d="M55.5605 44.7037V107.962C55.5605 108.668 56.0524 108.953 56.6588 108.6L130.244 66.0011C130.564 65.7911 130.831 65.5085 131.022 65.1762C131.214 64.8438 131.325 64.471 131.346 64.0878V0.829216C131.346 0.123414 130.85 -0.161458 130.244 0.191443L56.6588 42.7904C56.3387 43.0004 56.0724 43.283 55.8816 43.6154C55.6908 43.9479 55.5808 44.3207 55.5605 44.7037Z" fill="#455A64"/>
<path d="M64.1719 56.3879C64.1719 58.5946 65.8128 59.428 67.8439 58.2545L126.177 24.4823V16.5059L67.8439 50.2738C65.8128 51.4515 64.1719 54.1855 64.1719 56.3879Z" fill="#F5F5F5"/>
<path d="M131.137 13.6441C133.164 12.4706 134.809 13.304 134.809 15.5064C134.809 17.7089 133.164 20.447 131.137 21.6205L126.197 24.482V16.5056L131.137 13.6441Z" fill="#27DEBF"/>
<path d="M129.356 20.3665C129.145 20.3695 128.937 20.3151 128.754 20.2091C128.529 20.0579 128.348 19.8486 128.232 19.6031C128.115 19.3576 128.067 19.0852 128.092 18.8145C128.123 18.1491 128.312 17.5006 128.644 16.9236C128.976 16.3465 129.441 15.8577 130.001 15.4981C130.214 15.3235 130.476 15.2182 130.75 15.1962C131.025 15.1742 131.3 15.2366 131.538 15.3751C131.777 15.5136 131.967 15.7216 132.085 15.9714C132.203 16.2212 132.242 16.5011 132.197 16.7737C132.165 17.4389 131.976 18.087 131.644 18.6639C131.312 19.2407 130.847 19.7297 130.289 20.0901C130.007 20.2626 129.686 20.3579 129.356 20.3665ZM130.929 15.7958C130.702 15.807 130.481 15.8773 130.289 15.9998C129.821 16.3118 129.431 16.7283 129.15 17.2166C128.869 17.7049 128.704 18.2519 128.669 18.8145C128.625 18.9839 128.638 19.1629 128.706 19.3242C128.773 19.4855 128.892 19.6202 129.043 19.7075C129.194 19.7949 129.369 19.8301 129.542 19.8078C129.715 19.7855 129.876 19.7069 130.001 19.5841C130.469 19.2726 130.86 18.8563 131.141 18.3679C131.422 17.8794 131.586 17.3323 131.62 16.7694C131.642 16.6008 131.619 16.4295 131.553 16.2727C131.488 16.1159 131.382 15.9792 131.247 15.8765C131.151 15.821 131.041 15.7931 130.929 15.7958Z" fill="white"/>
<path d="M131.984 31.1021L75.5888 63.7305C75.2672 63.9393 74.9995 64.2215 74.8079 64.5541C74.6162 64.8867 74.506 65.2602 74.4863 65.6439V83.0465C74.4863 83.7523 74.9782 84.0372 75.5888 83.6843L131.984 51.0431C132.305 50.8339 132.572 50.5515 132.764 50.219C132.955 49.8865 133.066 49.5133 133.086 49.1298V31.7399C133.065 31.0341 132.573 30.7492 131.984 31.1021Z" fill="#27DEBF"/>
<path opacity="0.2" d="M131.984 31.1021L75.5888 63.7305C75.2672 63.9393 74.9995 64.2215 74.8079 64.5541C74.6162 64.8867 74.506 65.2602 74.4863 65.6439V83.0465C74.4863 83.7523 74.9782 84.0372 75.5888 83.6843L131.984 51.0431C132.305 50.8339 132.572 50.5515 132.764 50.219C132.955 49.8865 133.066 49.5133 133.086 49.1298V31.7399C133.065 31.0341 132.573 30.7492 131.984 31.1021Z" fill="white"/>
<path d="M96.092 54.7633L106.311 48.8448C106.82 48.5514 107.231 48.7598 107.231 49.3125C107.208 49.6215 107.113 49.9207 106.953 50.1859C106.793 50.4511 106.573 50.6748 106.311 50.8389L96.092 56.7574C95.5832 57.0508 95.1719 56.8425 95.1719 56.2897C95.1949 55.9807 95.2902 55.6815 95.4501 55.4163C95.61 55.1511 95.8299 54.9274 96.092 54.7633Z" fill="white"/>
<path d="M95.1719 60.2779C95.1719 60.8306 95.5959 61.039 96.092 60.7456L126.982 42.8625C127.244 42.6972 127.463 42.4726 127.622 42.2067C127.781 41.9408 127.876 41.6411 127.898 41.3318C127.898 40.7833 127.474 40.575 126.982 40.8684L96.092 58.7515C95.8299 58.9156 95.61 59.1393 95.4501 59.4045C95.2902 59.6697 95.1949 59.9689 95.1719 60.2779Z" fill="white"/>
<path d="M95.1719 64.2662C95.1719 64.8189 95.5959 65.0273 96.092 64.7339L126.982 46.8508C127.244 46.6855 127.463 46.4609 127.622 46.195C127.781 45.9291 127.876 45.6294 127.898 45.3201C127.898 44.7716 127.474 44.5633 126.982 44.8566L96.092 62.7398C95.8299 62.9039 95.61 63.1276 95.4501 63.3928C95.2902 63.658 95.1949 63.9572 95.1719 64.2662Z" fill="white"/>
<path d="M95.1719 68.2545C95.1719 68.8072 95.5959 69.0156 96.092 68.7222L126.982 50.839C127.244 50.6738 127.463 50.4491 127.622 50.1833C127.781 49.9174 127.876 49.6177 127.898 49.3084C127.898 48.7599 127.474 48.5516 126.982 48.8449L96.092 66.7281C95.8299 66.8922 95.61 67.1159 95.4501 67.3811C95.2902 67.6463 95.1949 67.9455 95.1719 68.2545Z" fill="white"/>
<path d="M77.3329 64.7258L90.6302 57.0257C91.2408 56.6771 91.7327 56.962 91.7327 57.6635V71.0695C91.712 71.4529 91.6014 71.826 91.4098 72.1584C91.2182 72.4909 90.9512 72.7733 90.6302 72.9828L77.3329 80.6786C76.7266 81.0315 76.2305 80.7466 76.2305 80.0451V66.6391C76.2508 66.2556 76.3613 65.8824 76.5529 65.5499C76.7445 65.2174 77.0118 64.935 77.3329 64.7258Z" fill="white"/>
<path d="M88.1031 63.718L84.147 71.941L82.1329 70.776C81.9383 70.6634 81.7071 70.6329 81.49 70.6911C81.273 70.7493 81.0879 70.8914 80.9753 71.0864L76.2305 79.3221V80.0407C76.2305 80.7465 76.7266 81.0314 77.3329 80.6785L90.6302 72.9827C90.9514 72.7735 91.2187 72.4911 91.4102 72.1586C91.6018 71.8261 91.7123 71.4528 91.7327 71.0694V66.3626L89.0571 63.5649C88.9965 63.4868 88.9161 63.4264 88.8242 63.3901C88.7323 63.3538 88.6324 63.3429 88.535 63.3585C88.4375 63.3741 88.3459 63.4158 88.27 63.479C88.194 63.5422 88.1364 63.6248 88.1031 63.718Z" fill="#27DEBF"/>
<path d="M78.2276 69.6321C79.0497 69.0943 79.7338 68.3698 80.2245 67.5173C80.7151 66.6648 80.9985 65.7084 81.0516 64.7255C81.0798 64.3992 81.0308 64.0709 80.9085 63.7672C80.7861 63.4635 80.594 63.1931 80.3477 62.978L77.3329 64.7255C77.0118 64.9348 76.7445 65.2171 76.5529 65.5496C76.3613 65.8822 76.2508 66.2554 76.2305 66.6388V69.8277C76.7435 70.1253 77.4474 70.0828 78.2276 69.6321Z" fill="#27DEBF"/>
<path d="M131.984 57.0254L75.5888 89.6539C75.2676 89.8631 75.0004 90.1455 74.8088 90.478C74.6172 90.8105 74.5067 91.1837 74.4863 91.5672V108.983C74.4863 109.684 74.9782 109.969 75.5888 109.62L131.984 76.9707C132.305 76.7615 132.572 76.4791 132.764 76.1466C132.955 75.8141 133.066 75.4409 133.086 75.0574V57.6632C133.065 56.9616 132.573 56.6853 131.984 57.0254Z" fill="#27DEBF"/>
<path opacity="0.2" d="M131.984 57.0254L75.5888 89.6539C75.2676 89.8631 75.0004 90.1455 74.8088 90.478C74.6172 90.8105 74.5067 91.1837 74.4863 91.5672V108.983C74.4863 109.684 74.9782 109.969 75.5888 109.62L131.984 76.9707C132.305 76.7615 132.572 76.4791 132.764 76.1466C132.955 75.8141 133.066 75.4409 133.086 75.0574V57.6632C133.065 56.9616 132.573 56.6853 131.984 57.0254Z" fill="white"/>
<path d="M96.092 80.6869L106.311 74.7727C106.82 74.4793 107.231 74.6876 107.231 75.2361C107.209 75.5459 107.114 75.8459 106.954 76.1119C106.794 76.3779 106.574 76.6023 106.311 76.7668L96.092 82.6811C95.5832 82.9744 95.1719 82.7661 95.1719 82.2176C95.1943 81.9078 95.2893 81.6078 95.4492 81.3418C95.6091 81.0758 95.8293 80.8515 96.092 80.6869Z" fill="white"/>
<path d="M95.1719 86.2059C95.1719 86.7544 95.5959 86.9627 96.092 86.6693L126.982 68.7862C127.243 68.6214 127.462 68.3974 127.621 68.1323C127.78 67.8672 127.875 67.5683 127.898 67.2598C127.898 66.707 127.474 66.4987 126.982 66.7921L96.092 84.6752C95.8293 84.8397 95.6091 85.0641 95.4492 85.3301C95.2893 85.5961 95.1943 85.8961 95.1719 86.2059Z" fill="white"/>
<path d="M95.1719 90.1942C95.1719 90.7426 95.5959 90.951 96.092 90.6576L126.982 72.7745C127.243 72.6096 127.462 72.3857 127.621 72.1205C127.78 71.8554 127.875 71.5566 127.898 71.2481C127.898 70.6953 127.474 70.487 126.982 70.7804L96.092 88.6635C95.8293 88.828 95.6091 89.0524 95.4492 89.3184C95.2893 89.5843 95.1943 89.8844 95.1719 90.1942Z" fill="white"/>
<path d="M95.1719 94.1819C95.1719 94.7304 95.5959 94.9388 96.092 94.6454L126.982 76.7622C127.243 76.5974 127.462 76.3735 127.621 76.1083C127.78 75.8432 127.875 75.5444 127.898 75.2358C127.898 74.6831 127.474 74.4748 126.982 74.7681L96.092 92.6513C95.8293 92.8158 95.6091 93.0402 95.4492 93.3062C95.2893 93.5721 95.1943 93.8722 95.1719 94.1819Z" fill="white"/>
<path d="M77.3329 90.6532L90.6302 82.9532C91.2408 82.6003 91.7327 82.8851 91.7327 83.5909V96.9927C91.713 97.3763 91.6028 97.7498 91.4111 98.0824C91.2195 98.415 90.9519 98.6973 90.6302 98.906L77.3329 106.606C76.7266 106.959 76.2305 106.674 76.2305 105.968V92.5665C76.2508 92.1831 76.3613 91.8098 76.5529 91.4773C76.7445 91.1448 77.0118 90.8624 77.3329 90.6532Z" fill="white"/>
<path d="M88.1031 89.6454L84.147 97.8684L82.1329 96.6992C82.0362 96.6436 81.9297 96.6077 81.8192 96.5934C81.7087 96.5792 81.5966 96.5869 81.4891 96.6161C81.3816 96.6453 81.2809 96.6955 81.1927 96.7637C81.1046 96.832 81.0307 96.9169 80.9753 97.0138L76.2305 105.25V105.968C76.2305 106.674 76.7266 106.959 77.3329 106.606L90.6302 98.9059C90.9513 98.6976 91.2186 98.416 91.4102 98.0842C91.6018 97.7523 91.7123 97.3797 91.7327 96.9968V92.2858L89.0571 89.4924C88.9973 89.4129 88.917 89.3513 88.8249 89.3141C88.7327 89.2769 88.6323 89.2656 88.5342 89.2813C88.4362 89.297 88.3442 89.3392 88.2683 89.4034C88.1923 89.4675 88.1352 89.5512 88.1031 89.6454Z" fill="#27DEBF"/>
<path d="M78.2276 95.5556C79.0496 95.0187 79.7338 94.295 80.2244 93.4432C80.7151 92.5914 80.9985 91.6355 81.0516 90.6533C81.0798 90.327 81.0308 89.9986 80.9085 89.6949C80.7861 89.3913 80.594 89.1209 80.3477 88.9058L77.3329 90.6533C77.0118 90.8625 76.7445 91.1449 76.5529 91.4774C76.3613 91.8099 76.2508 92.1831 76.2305 92.5666V95.7554C76.7435 96.0488 77.4474 96.0063 78.2276 95.5556Z" fill="#27DEBF"/>
<path d="M131.346 3.53763V0.829216C131.346 0.123414 130.85 -0.161458 130.244 0.191443L56.663 42.7904C56.3419 42.9996 56.0746 43.282 55.883 43.6145C55.6914 43.947 55.5809 44.3203 55.5605 44.7037V47.4164L131.346 3.53763Z" fill="#27DEBF"/>
<path d="M122.322 5.81657C122.085 5.97275 121.887 6.18264 121.746 6.42932C121.605 6.676 121.523 6.95255 121.508 7.23667C121.508 7.75965 121.872 7.97224 122.322 7.70862C122.561 7.5546 122.759 7.34588 122.901 7.0997C123.044 6.85352 123.126 6.57693 123.14 6.29277C123.14 5.7698 122.776 5.55721 122.322 5.81657Z" fill="#F5F5F5"/>
<path d="M125.562 3.96256C125.325 4.11827 125.126 4.32796 124.984 4.57467C124.842 4.82138 124.76 5.09817 124.744 5.38267C124.744 5.90564 125.113 6.11398 125.562 5.85462C125.801 5.69967 126 5.49016 126.142 5.24329C126.284 4.99643 126.366 4.71925 126.381 4.43452C126.381 3.89028 126.016 3.68194 125.562 3.96256Z" fill="#F5F5F5"/>
<path d="M128.807 2.06637C128.568 2.2204 128.369 2.42911 128.227 2.67529C128.085 2.92148 128.003 3.19806 127.988 3.48223C127.988 4.0052 128.353 4.21779 128.807 3.95843C129.044 3.80224 129.241 3.59235 129.383 3.34567C129.524 3.099 129.606 2.82244 129.621 2.53832C129.621 2.01535 129.256 1.80276 128.807 2.06637Z" fill="#F5F5F5"/>
<path d="M132.523 135.437C132.652 135.764 132.74 136.105 132.786 136.453C132.906 136.813 132.933 137.198 132.867 137.571C132.581 138.049 132.127 138.401 131.595 138.558C131.216 138.645 130.823 138.653 130.441 138.579C130.059 138.506 129.697 138.354 129.377 138.133C128.601 137.669 128.02 137.104 126.918 136.793C126.132 136.624 125.391 136.286 124.747 135.803C124.136 135.314 123.322 133.953 124.488 133.638C125.654 133.324 128.194 134.434 130.505 134.536L132.523 135.437Z" fill="#263238"/>
<path d="M132.412 133.906C132.412 133.906 132.548 135.53 132.548 135.73C132.548 136.279 130.529 137.006 130.156 135.73L129.834 134.004L132.412 133.906Z" fill="#F28F8F"/>
<path d="M129.936 98.272C130.63 99.2952 131.266 100.357 131.84 101.452C131.84 101.452 132.039 103.816 132.039 105.39C132.039 108.281 131.594 110.513 131.191 116.21C131.847 117.331 132.223 118.595 132.285 119.892C132.455 122.473 132.459 122.444 132.476 134.349C132.09 134.558 131.666 134.687 131.229 134.729C130.792 134.772 130.351 134.726 129.932 134.595L126.116 117.924L125.692 111.38L124.496 103.247L129.936 98.272Z" fill="#37474F"/>
<path d="M120.906 138.418C121.042 138.558 120.995 138.843 121.059 139.311C121.129 139.67 121.148 140.038 121.114 140.403C120.891 140.909 120.489 141.314 119.986 141.539C119.62 141.671 119.231 141.726 118.842 141.701C118.454 141.675 118.075 141.569 117.73 141.39C116.907 141.024 116.259 140.54 115.126 140.365C114.325 140.296 113.548 140.054 112.849 139.655C112.184 139.23 111.204 137.997 112.324 137.529C113.443 137.062 116.25 137.899 118.553 137.712L120.906 138.418Z" fill="#263238"/>
<path d="M121.438 136.377C121.438 136.377 121.014 138.231 120.9 138.643C120.645 139.634 118.453 139.685 118.453 138.541L118.602 135.905L121.438 136.377Z" fill="#F28F8F"/>
<path d="M124.991 98.7778C126.09 100.942 127.15 102.851 127.184 105.156C127.264 110.032 125.246 115.402 124.504 118.927C124.725 120.203 124.788 121.501 124.69 122.792C124.542 124.267 121.188 137.673 121.188 137.673C121.188 137.673 119.322 138.065 118.529 137.219L119.471 111.406L119.725 103.91L124.991 98.7778Z" fill="#37474F"/>
<path d="M123.477 85.5593L124.172 89.3987L127.628 89.1436L126.903 84.7939L123.477 85.5593Z" fill="#FFA8A7"/>
<path d="M131.28 88.8629C130.937 87.8212 129.618 86.686 128.312 86.9326C126.35 87.2669 124.417 87.7502 122.528 88.3782C121.32 88.8034 120.217 89.8621 120.116 93.8503L119.738 103.885C120.261 104.35 120.888 104.683 121.566 104.854C123.402 105.36 124.615 105.662 127.405 105.05C131.038 104.254 131.903 102.048 131.903 102.048C131.903 102.048 131.764 96.7373 131.653 93.8503C131.564 91.397 131.513 89.5814 131.28 88.8629Z" fill="#455A64"/>
<path d="M122.004 80.6569L104.386 75.8651C102.792 75.5887 102.126 79.4919 103.72 79.764L121.813 81.5965L122.004 80.6569Z" fill="#263238"/>
<path d="M116.941 88.752L113.341 88.8625C113.341 88.8625 113.884 83.4925 114.219 82.7867C114.554 82.0809 115.355 81.9363 116.152 81.711C116.949 81.4856 116.945 81.1029 116.945 81.1029L116.228 81.0307C115.601 80.9669 115.351 80.1803 115.622 79.6488C115.754 79.4022 115.966 79.0111 116.347 79.1174L117.297 79.3767C117.312 78.9565 117.207 78.5408 116.996 78.1777C116.678 77.8248 116.466 77.9353 115.83 77.7142C115.359 77.5484 114.397 77.2551 113.621 77.5739C112.845 77.8928 112.255 79.3555 112.056 80.3886C111.854 81.5834 111.528 82.7535 111.081 83.8794C110.39 85.7927 109.385 89.7214 109.279 91.2946C109.232 92.0216 109.3 92.4553 110.106 92.6466C110.911 92.838 116.839 92.8507 116.839 92.8507L116.941 88.752Z" fill="#FFA8A7"/>
<path d="M120.916 81.0137C120.916 81.0137 120.068 82.2552 120.187 82.3913C120.379 82.5193 120.591 82.6129 120.815 82.6676L120.916 81.0137Z" fill="#FFA8A7"/>
<path d="M123.472 77.0936C122.667 77.5188 121.276 78.2544 120.89 81.2136C120.496 84.2494 121.017 85.2273 121.424 85.6313C121.704 85.9034 123.205 85.9204 123.969 85.6908C124.91 85.4102 127.034 84.5981 128.005 83.0377C129.146 81.2009 129.4 78.7433 128.115 77.7654C127.462 77.2681 126.693 76.9456 125.88 76.8281C125.068 76.7106 124.24 76.802 123.472 77.0936Z" fill="#FFA8A7"/>
<path d="M125.846 113.732L127.682 108.527C129.105 108.022 130.38 107.168 131.392 106.044C131.392 106.044 130.968 107.528 128.068 109.05L126.053 113.974V116.712L125.846 113.732Z" fill="#263238"/>
<path d="M120.728 78.0929C120.991 78.8199 121.436 80.6057 123.293 81.3498C123.293 81.3498 123.56 80.2145 124.51 80.3336C125.46 80.4526 125.625 81.6729 125.04 82.4297C124.455 83.1865 123.887 82.9144 123.887 82.9144C123.887 82.9144 123.76 84.5429 124.845 85.2827C125.249 85.5216 125.703 85.6633 126.171 85.6965C126.639 85.7297 127.108 85.6535 127.542 85.474C128.165 85.1891 129.051 83.6882 129.569 82.4552C130.663 79.8531 130.82 77.7782 129.145 77.1064C128.937 75.9244 128.407 75.478 127.338 75.2569C125.04 74.7849 123.302 76.2986 121.372 76.0307C120.384 75.8904 120.423 77.2595 120.728 78.0929Z" fill="#263238"/>
<path d="M129.201 77.5187L130.286 76.8427C130.191 76.7101 130.05 76.6186 129.891 76.5866C129.731 76.5547 129.566 76.5848 129.427 76.6709C129.289 76.7569 129.189 76.8924 129.147 77.0498C129.105 77.2073 129.124 77.3749 129.201 77.5187Z" fill="#263238"/>
<path d="M116.131 88.6798C116.131 88.6798 121.198 88.3865 122.491 88.378C123.784 88.3695 125.158 90.5846 124.353 92.094C123.818 93.0847 122.152 93.4249 120.053 93.5269C117.954 93.6289 115.838 93.629 115.838 93.629C115.838 93.629 113.951 91.4733 116.131 88.6798Z" fill="#455A64"/>
<path d="M120.117 93.5266C120.117 93.5266 123.327 93.4841 124.378 92.0938C124.378 92.0938 124.132 92.9441 122.886 93.4671C121.992 93.8114 121.051 94.015 120.096 94.0708L120.117 93.5266Z" fill="#37474F"/>
<path d="M104.386 75.8651C102.792 75.5887 102.126 79.4919 103.72 79.764L106.264 80.0191C105.23 79.9128 105.946 76.286 106.735 76.4986L104.386 75.8651Z" fill="#455A64"/>
<path d="M168.548 74.8233C168.549 75.6148 168.311 76.388 167.867 77.0421C167.422 77.6961 166.791 78.2007 166.057 78.4899C165.322 78.779 164.517 78.8395 163.748 78.6633C162.978 78.487 162.28 78.0823 161.743 77.502L161.484 77.1873C160.881 76.3803 160.609 75.3717 160.726 74.3697C160.842 73.3678 161.338 72.4488 162.11 71.8025C162.882 71.1562 163.873 70.8318 164.877 70.8962C165.881 70.9607 166.822 71.4091 167.505 72.1489L167.773 72.4721C168.276 73.152 168.548 73.9764 168.548 74.8233Z" fill="#455A64"/>
<path d="M168.547 74.8233C168.548 75.6148 168.31 76.388 167.866 77.0421C167.421 77.6961 166.79 78.2007 166.056 78.4899C165.321 78.7791 164.516 78.8395 163.747 78.6633C162.977 78.487 162.278 78.0823 161.742 77.502L161.483 77.1874L145.133 57.3866L152.023 53.3984L167.504 72.1404L167.771 72.4636C168.277 73.1458 168.549 73.9735 168.547 74.8233Z" fill="#455A64"/>
<path d="M155.019 69.3597C155.705 70.0819 156.64 70.5157 157.633 70.5735C158.627 70.6312 159.605 70.3086 160.37 69.6708C161.135 69.0331 161.631 68.1277 161.756 67.1378C161.881 66.148 161.626 65.1474 161.044 64.3383L159.021 61.8936C159.626 62.701 159.898 63.7105 159.781 64.7133C159.665 65.7162 159.168 66.6358 158.395 67.2822C157.621 67.9285 156.63 68.2521 155.625 68.1861C154.62 68.1202 153.679 67.6697 152.996 66.9277L155.019 69.3597Z" fill="#27DEBF"/>
<path d="M151.761 22.2709C152.996 22.4087 154.189 22.7979 155.268 23.4147L150.294 20.5149C146.957 18.2147 142.153 18.3507 136.815 21.4376C126.736 27.2753 118.561 41.4721 118.561 53.1476C118.561 58.8833 120.507 62.9821 123.717 64.9294L123.784 64.9719L129.093 68.0375C128.152 67.4233 127.331 66.6407 126.672 65.7287C127.98 65.8723 129.303 65.7962 130.586 65.5034C131.052 65.4014 131.523 65.278 132.002 65.125C131.939 65.1061 131.878 65.0819 131.82 65.0527C131.565 64.9329 131.32 64.7906 131.09 64.6275C130.673 64.3358 130.301 63.9833 129.988 63.5816C129.559 63.0315 129.211 62.423 128.953 61.7746C128.608 61.8246 128.259 61.8502 127.91 61.8511C127.085 61.8676 126.266 61.7037 125.51 61.3706C125.334 61.2895 125.162 61.1972 124.997 61.0943C124.849 61.0007 124.7 60.8902 124.573 60.7796C124.266 59.3404 124.117 57.8719 124.128 56.4003C124.128 44.729 132.303 30.5279 142.391 24.6902C143.678 23.9368 145.043 23.3239 146.461 22.8619C146.843 23.0185 147.203 23.2258 147.53 23.4784C147.876 23.7448 148.188 24.0533 148.458 24.3968C148.888 24.9483 149.238 25.5581 149.497 26.2081C149.844 26.1594 150.194 26.1352 150.545 26.1358C151.503 26.11 152.452 26.3404 153.292 26.8034C153.505 26.9196 153.708 27.0533 153.899 27.203C153.822 26.8629 153.742 26.527 153.644 26.2081C153.261 24.7916 152.623 23.4573 151.761 22.2709Z" fill="#263238"/>
<path d="M155.269 23.4146L154.98 23.2573C153.978 22.7309 152.887 22.3964 151.762 22.2709C150.555 22.1359 149.335 22.1919 148.145 22.4367C147.572 22.5456 147.006 22.6875 146.449 22.8619C145.031 23.3239 143.666 23.9368 142.378 24.6901C132.291 30.5279 124.116 44.729 124.116 56.4002C124.105 57.8719 124.254 59.3403 124.561 60.7796C124.616 61.0389 124.68 61.2855 124.743 61.5321C125.121 63.0371 125.777 64.4576 126.677 65.7202C127.079 66.2758 127.541 66.7849 128.055 67.2381C128.383 67.5271 128.731 67.7914 129.098 68.0289C132.427 70.1846 137.154 69.9975 142.37 66.9702C152.457 61.1325 160.633 46.9356 160.633 35.2602C160.628 29.4224 158.58 25.3194 155.269 23.4146ZM153.276 26.8161C153.489 26.9323 153.691 27.066 153.882 27.2157C154.202 27.4761 154.493 27.7697 154.751 28.0916C156.023 29.6903 156.698 32.1776 156.698 35.2729C156.698 45.4773 149.235 58.4538 140.402 63.5688C138.176 64.8443 136.035 65.5416 134.216 65.5416C133.457 65.5505 132.704 65.4059 132.003 65.1164C131.94 65.0975 131.879 65.0733 131.82 65.0441C131.565 64.9243 131.321 64.782 131.091 64.619C130.805 64.4176 130.54 64.1867 130.302 63.9302C130.196 63.8196 130.094 63.6963 129.993 63.573C129.564 63.0229 129.216 62.4145 128.958 61.766C128.312 60.0502 128.004 58.2251 128.051 56.3917C128.051 56.2556 128.051 56.1238 128.051 55.9665C128.237 45.8047 135.619 33.1215 144.337 28.0788C144.537 27.964 144.74 27.8492 144.944 27.7429C146.35 26.9555 147.885 26.427 149.477 26.1825C149.824 26.1338 150.173 26.1096 150.524 26.1102C151.278 26.1037 152.026 26.2483 152.725 26.5354C152.916 26.6116 153.1 26.7041 153.276 26.8118V26.8161Z" fill="#455A64"/>
<path d="M156.697 35.2685C156.697 45.4729 149.234 58.4494 140.402 63.5644C139.866 63.877 139.314 64.1609 138.748 64.4147C137.335 65.0982 135.796 65.4777 134.228 65.5287C133.469 65.5376 132.716 65.393 132.014 65.1035C131.952 65.0846 131.891 65.0604 131.832 65.0312C131.577 64.9114 131.333 64.7691 131.103 64.6061C130.685 64.3144 130.314 63.9619 130 63.5601C129.89 63.4113 129.776 63.2667 129.674 63.1009C129.873 63.1009 130.098 63.1307 130.293 63.1307C132.112 63.1307 134.253 62.4461 136.479 61.1578C145.299 56.0727 152.766 43.1131 152.766 32.8747C152.766 30.0643 152.211 27.7726 151.155 26.1611C151.9 26.2102 152.625 26.4267 153.275 26.7946C153.488 26.9109 153.69 27.0446 153.881 27.1943C154.201 27.4547 154.492 27.7483 154.75 28.0702C155.87 29.4775 156.527 31.5694 156.663 34.1588C156.684 34.533 156.697 34.8986 156.697 35.2685Z" fill="#37474F"/>
<path opacity="0.6" d="M154.992 34.0909C154.992 44.2952 147.529 57.2718 138.697 62.3867C136.471 63.6623 134.334 64.3596 132.51 64.3596C131.753 64.3685 131.001 64.2239 130.301 63.9344C130.195 63.8238 130.093 63.7005 129.992 63.5772C129.563 63.0271 129.215 62.4187 128.957 61.7702C128.311 60.0544 128.003 58.2293 128.05 56.3959C128.05 56.2599 128.05 56.128 128.05 55.9707C128.236 45.8089 135.618 33.1257 144.336 28.0831C144.535 27.9683 144.739 27.8535 144.943 27.7472C146.348 26.9597 147.884 26.4312 149.475 26.1867C149.822 26.138 150.172 26.1139 150.523 26.1145C151.277 26.1079 152.025 26.2525 152.723 26.5397C152.838 26.6545 152.944 26.7777 153.046 26.9011C154.318 28.5082 154.992 30.9956 154.992 34.0909Z" fill="white"/>
</g>
<defs>
<clipPath id="clip0_224_5539">
<rect width="184" height="155" fill="white"/>
</clipPath>
</defs>
</svg>
