<svg width="14" height="13" viewBox="0 0 14 13" fill="none" xmlns="http://www.w3.org/2000/svg">
<path d="M3.17059 2.24519C3.17041 2.60174 3.0243 2.94361 2.76441 3.19561C2.50453 3.4476 2.15215 3.58906 1.7848 3.58889C1.41745 3.58871 1.06521 3.4469 0.805587 3.19465C0.545961 2.94241 0.400207 2.60039 0.400391 2.24384C0.400574 1.8873 0.54668 1.54542 0.806567 1.29343C1.06645 1.04144 1.41883 0.899968 1.78618 0.900147C2.15353 0.900325 2.50577 1.04213 2.76539 1.29438C3.02502 1.54662 3.17077 1.88864 3.17059 2.24519ZM3.21214 4.58439H0.441944V13.0001H3.21214V4.58439ZM7.58906 4.58439H4.83271V13.0001H7.56136V8.58389C7.56136 6.1237 10.8648 5.89515 10.8648 8.58389V13.0001H13.6004V7.66972C13.6004 3.52234 8.71099 3.67694 7.56136 5.71366L7.58906 4.58439Z" fill="#0F898C"/>
</svg>
