<svg width="39" height="13" viewBox="0 0 39 13" fill="none" xmlns="http://www.w3.org/2000/svg">
<path d="M16.6216 7.49121H0.800781V12.7617H16.6216V7.49121Z" fill="#0F898C"/>
<path d="M16.6216 0.299316H0.800781V5.57448H16.6216V0.299316Z" fill="#0F898C"/>
<path d="M32.4409 11.6907L32.3704 11.7048C32.1261 11.7518 32.0369 11.7705 31.8584 11.7705C31.445 11.7705 30.9565 11.5592 30.9565 10.5633C30.9565 10.0513 31.041 9.37018 31.8114 9.37018H31.8161C31.9476 9.37958 32.098 9.39367 32.3798 9.47822L32.4409 9.49701V11.6907ZM32.5677 6.72555L32.4409 6.74904V8.59041L32.3281 8.55753L32.2952 8.54814C32.1684 8.51056 31.8772 8.426 31.5953 8.426C30.0546 8.426 29.7305 9.59096 29.7305 10.568C29.7305 11.9068 30.4821 12.6771 31.7926 12.6771C32.3469 12.6771 32.7556 12.6208 33.169 12.4845C33.5494 12.3624 33.6857 12.1886 33.6857 11.8175V6.53296C33.3193 6.59872 32.9388 6.66449 32.5677 6.72555Z" fill="#0F898C"/>
<path d="M37.0212 11.7236L36.9554 11.7424L36.7206 11.8035C36.4998 11.8599 36.3025 11.8927 36.1522 11.8927C35.7905 11.8927 35.5744 11.7142 35.5744 11.4089C35.5744 11.2116 35.6637 10.8781 36.2555 10.8781H37.0212V11.7236ZM36.481 8.40259C36.0066 8.40259 35.518 8.48714 34.9121 8.67504L34.5175 8.79247L34.649 9.68497L35.0342 9.55815C35.4382 9.42662 35.9408 9.34206 36.3166 9.34206C36.4857 9.34206 37.0024 9.34207 37.0024 9.90105V10.1453H36.2837C34.9731 10.1453 34.3672 10.5634 34.3672 11.4606C34.3672 12.2263 34.9262 12.6866 35.8657 12.6866C36.1569 12.6866 36.5609 12.6302 36.9085 12.5457L36.9273 12.541L36.946 12.5457L37.0635 12.5645C37.4299 12.6302 37.8104 12.696 38.1815 12.7665V9.83529C38.1815 8.88642 37.6084 8.40259 36.481 8.40259Z" fill="#0F898C"/>
<path d="M27.8923 11.7236L27.8265 11.7424L27.5917 11.8035C27.3709 11.8599 27.1783 11.8927 27.0233 11.8927C26.6616 11.8927 26.4455 11.7142 26.4455 11.4089C26.4455 11.2116 26.5348 10.8781 27.1219 10.8781H27.8876V11.7236H27.8923ZM27.3568 8.40259C26.8777 8.40259 26.3938 8.48714 25.7879 8.67504L25.3933 8.79247L25.5248 9.68497L25.91 9.55815C26.314 9.42662 26.8166 9.34206 27.1924 9.34206C27.3615 9.34206 27.8782 9.34207 27.8782 9.90105V10.1453H27.1595C25.8489 10.1453 25.2383 10.5634 25.2383 11.4606C25.2383 12.2263 25.7973 12.6866 26.7414 12.6866C27.0327 12.6866 27.4367 12.6302 27.7843 12.5457L27.8031 12.541L27.8218 12.5457L27.9346 12.5645C28.3057 12.6302 28.6815 12.696 29.0526 12.7712V9.83999C29.0573 8.88172 28.4842 8.40259 27.3568 8.40259Z" fill="#0F898C"/>
<path d="M22.9472 8.41168C22.3506 8.41168 21.8574 8.60897 21.6742 8.69352L21.6272 8.71701L21.5849 8.68413C21.3313 8.50093 20.9602 8.40698 20.4435 8.40698C19.9878 8.40698 19.5603 8.47275 19.0953 8.60897C18.696 8.7311 18.541 8.92369 18.541 9.28539V12.6346H19.7905V9.53905L19.8516 9.52026C20.1052 9.43571 20.2556 9.42162 20.4012 9.42162C20.7629 9.42162 20.9461 9.61421 20.9461 9.99V12.6393H22.1768V9.93833C22.1768 9.77862 22.1439 9.68467 22.1392 9.66588L22.0969 9.58602L22.1815 9.54845C22.3694 9.46389 22.5761 9.42162 22.7921 9.42162C23.0411 9.42162 23.337 9.52026 23.337 9.99V12.6393H24.5631V9.86787C24.5631 8.88611 24.037 8.41168 22.9472 8.41168Z" fill="#0F898C"/>
<path d="M36.1016 3.7378C35.9184 3.7378 35.6131 3.71901 35.3735 3.67204L35.3031 3.65795V1.84945C35.3031 1.69914 35.2749 1.60519 35.2702 1.5911L35.2326 1.51594L35.3125 1.48306C35.3313 1.47366 35.35 1.46897 35.3735 1.45957L35.3876 1.45018C35.4158 1.44078 35.444 1.43139 35.4722 1.42199C35.4863 1.41729 35.4957 1.4126 35.5051 1.4126C35.7822 1.33744 36.0359 1.34683 36.1486 1.33744H36.1533C36.919 1.33744 37.0082 2.01856 37.0082 2.53057C37.0035 3.52642 36.5103 3.7378 36.1016 3.7378ZM36.0969 0.299316C36.0875 0.299316 36.0734 0.299316 36.064 0.299316C35.3453 0.299316 34.6079 0.496608 34.3448 0.881793C34.2039 1.06969 34.124 1.30456 34.1193 1.5817V3.44656C34.1193 3.60628 34.0864 3.66734 34.0818 3.68143L34.0395 3.76129H31.7706V2.46481H31.7659C31.7378 1.09787 30.9298 0.34629 29.7602 0.34629H29.6239H28.6187C28.5717 0.679805 28.5341 0.914674 28.4872 1.24819H29.6239C30.2205 1.24819 30.5352 1.75551 30.5352 2.53527V3.84115L30.4554 3.79887C30.4413 3.79417 30.3426 3.76129 30.1876 3.76129H28.2241C28.1865 4.01025 28.1396 4.33437 28.0879 4.65849H34.124C34.3307 4.61621 34.5703 4.57863 34.777 4.54575C35.0823 4.69607 35.6507 4.77592 36.0406 4.77592C37.3511 4.77592 38.2014 3.89751 38.2014 2.54467C38.1967 1.20591 37.3746 0.327501 36.0969 0.299316Z" fill="#0F898C"/>
<path d="M25.5119 5.20793H25.5683C26.8789 5.20793 27.4895 4.77577 27.4895 3.70946C27.4895 2.94379 26.9305 2.33313 25.9911 2.33313H24.7838C24.4221 2.33313 24.2061 2.12644 24.2061 1.77883C24.2061 1.54397 24.2953 1.25273 24.8872 1.25273H27.5271C27.5835 0.909819 27.6117 0.693739 27.6633 0.35083H24.9201C23.6424 0.35083 22.9988 0.886332 22.9988 1.77883C22.9988 2.66194 23.5578 3.12229 24.4973 3.12229H25.7045C26.0662 3.12229 26.2823 3.40883 26.2823 3.70946C26.2823 3.90675 26.1931 4.31542 25.6059 4.31542H25.4039L21.5379 4.30603H20.8333C20.2368 4.30603 19.8187 3.96782 19.8187 3.18335V2.64315C19.8187 1.82581 20.1428 1.31849 20.8333 1.31849H21.9795C22.0312 0.970885 22.0641 0.750108 22.111 0.421291H20.683H20.5468C19.3772 0.421291 18.5692 1.20575 18.541 2.57269V2.62436V3.18335C18.5692 4.55029 19.3772 5.20323 20.5468 5.20323H20.683H21.6883L23.7833 5.20793H25.0328H25.5119Z" fill="#0F898C"/>
</svg>
