<svg width="261" height="1341" viewBox="0 0 261 1341" fill="none" xmlns="http://www.w3.org/2000/svg">
<g filter="url(#filter0_d_106_825)">
<line x1="16" y1="61.5269" x2="244.642" y2="61.5269" stroke="white" stroke-width="0.793896"/>
</g>
<rect x="16" y="61.9238" width="228.642" height="36.5192" fill="white"/>
<path d="M181.164 62.574H178.628C178.628 35.424 156.539 13.3372 129.392 13.3372C102.245 13.3372 80.1369 35.421 80.1369 62.574H77.5859C77.5859 34.016 100.819 10.7803 129.38 10.7803C157.941 10.7803 181.164 34.016 181.164 62.574Z" fill="#0F898C"/>
<g filter="url(#filter1_d_106_825)">
<path d="M82.8548 63.7472C83.156 75.6861 88.0353 87.0524 96.4831 95.4941C104.931 103.936 116.301 108.807 128.24 109.099C154.643 109.734 176.435 88.0337 175.908 61.6278C175.737 53.1544 173.256 44.8884 168.732 37.7216C164.208 30.5549 157.813 24.7595 150.237 20.9608C147.01 19.3342 143.602 18.0933 140.084 17.2638C136.885 16.5121 133.615 16.1011 130.329 16.0375C103.9 15.5165 82.188 37.3235 82.8548 63.7472Z" fill="url(#paint0_linear_106_825)"/>
</g>
<path d="M160.603 93.7947C177.917 76.4811 177.973 48.4667 160.729 31.2229C143.486 13.979 115.471 14.0356 98.1576 31.3492C80.844 48.6628 80.7875 76.6771 98.0313 93.921C115.275 111.165 143.29 111.108 160.603 93.7947Z" fill="#F9F9F9"/>
<path d="M122.265 51.0291C124.597 51.0291 126.486 52.1446 127.933 54.3757C129.139 56.2249 129.742 58.4258 129.742 60.9785C129.742 64.0336 128.978 66.4858 127.451 68.335C126.084 70.0032 124.356 70.8374 122.265 70.8374C119.833 70.8374 117.944 69.7721 116.597 67.6415C115.451 65.8526 114.878 63.6316 114.878 60.9785C114.878 58.0037 115.632 55.5616 117.14 53.6521C118.486 51.9034 120.195 51.0291 122.265 51.0291ZM122.325 54.6471C120.295 54.6471 119.28 56.6972 119.28 60.7976C119.28 62.8678 119.572 64.4959 120.155 65.6818C120.677 66.7471 121.371 67.2797 122.235 67.2797C123.2 67.2797 123.954 66.7069 124.496 65.5612C125.059 64.4155 125.34 62.8276 125.34 60.7976C125.34 56.6972 124.335 54.6471 122.325 54.6471ZM140.338 51.3909V70.4756H136.087V56.245C135.826 56.4259 135.434 56.6671 134.911 56.9686C134.188 57.3907 133.655 57.7324 133.314 57.9937C133.052 57.5314 132.62 56.7977 132.017 55.7927L131.897 55.6118C131.716 55.3103 131.535 55.0088 131.354 54.7074C132.037 54.1848 133.062 53.4612 134.429 52.5366L134.761 52.3255C135.324 51.9235 135.766 51.612 136.087 51.3909H140.338Z" fill="#0F898C"/>
<path d="M117.62 153.381H120.381V165.966H122.354V168.144H120.278C119.828 171.354 117.992 172.959 114.768 172.959C111.169 172.959 109.37 170.975 109.37 167.009C109.37 165.727 109.537 164.48 109.871 163.267L112.723 162.746C112.328 164.136 112.13 165.475 112.13 166.763C112.13 169.456 113.088 170.802 115.003 170.802C116.748 170.802 117.62 169.456 117.62 166.763V153.381ZM126.014 153.468C125.693 154.013 125.206 154.285 124.552 154.285C123.768 154.285 123.304 153.805 123.161 152.844L122.998 151.668L124.255 151.464L124.419 152.639C124.48 152.973 124.633 153.14 124.879 153.14C125.26 153.14 125.427 152.916 125.38 152.466L125.196 151.29L126.453 151.086L126.637 152.282C126.712 152.657 126.889 152.844 127.169 152.844C127.571 152.844 127.738 152.578 127.67 152.047L127.475 150.789L128.733 150.625L128.927 151.801C129.023 152.421 128.907 152.933 128.58 153.335C128.239 153.75 127.738 153.958 127.077 153.958C126.62 153.958 126.266 153.795 126.014 153.468ZM122.047 165.966H130.154C130.222 165.407 130.256 164.876 130.256 164.371C130.256 163.008 129.949 162.006 129.336 161.366C128.682 160.691 127.619 160.353 126.146 160.353C125.369 160.353 124.569 160.411 123.744 160.527V158.37C124.725 158.241 125.618 158.176 126.422 158.176C128.733 158.176 130.416 158.69 131.473 159.72C132.488 160.701 132.996 162.217 132.996 164.269C132.996 164.862 132.969 165.428 132.914 165.966H134.55V168.144H122.047V165.966ZM127.005 172.734C126.61 172.734 126.273 172.594 125.993 172.315C125.707 172.035 125.564 171.691 125.564 171.282C125.564 170.887 125.707 170.546 125.993 170.26C126.273 169.98 126.61 169.841 127.005 169.841C127.407 169.841 127.748 169.98 128.028 170.26C128.314 170.539 128.457 170.88 128.457 171.282C128.457 171.684 128.314 172.025 128.028 172.304C127.748 172.591 127.407 172.734 127.005 172.734ZM134.233 165.966H135.276C135.971 165.966 136.455 165.789 136.728 165.434C137.021 165.06 137.167 164.371 137.167 163.369V159.556H139.927V163.431C139.927 164.439 140.013 165.124 140.183 165.486C140.381 165.915 140.776 166.13 141.369 166.13C142.487 166.13 143.045 165.237 143.045 163.451V158.718H145.704V163.972C145.704 164.79 145.874 165.329 146.215 165.588C146.542 165.84 147.196 165.966 148.178 165.966H148.719C148.822 165.182 148.873 164.344 148.873 163.451C148.873 161.522 148.668 159.651 148.259 157.839L150.958 157.47C151.408 159.345 151.633 161.277 151.633 163.267C151.633 165.032 151.527 166.658 151.316 168.144H147.861C146.722 168.144 145.877 168.048 145.325 167.857C144.732 167.646 144.286 167.261 143.986 166.702C143.488 167.772 142.435 168.307 140.827 168.307C139.334 168.307 138.408 167.765 138.046 166.682C137.617 167.656 136.687 168.144 135.255 168.144H134.233V165.966Z" fill="#0F898C"/>
<path d="M136.743 195.875C136.741 195.61 136.66 195.351 136.512 195.132C136.363 194.912 136.152 194.741 135.907 194.641C135.661 194.54 135.392 194.514 135.132 194.566C134.871 194.618 134.632 194.746 134.445 194.933L130.526 198.865L126.243 194.585C126.12 194.45 125.971 194.341 125.805 194.265C125.64 194.19 125.46 194.148 125.278 194.144C125.096 194.14 124.914 194.172 124.745 194.24C124.576 194.308 124.422 194.409 124.293 194.538C124.164 194.667 124.063 194.821 123.995 194.99C123.927 195.159 123.894 195.341 123.899 195.523C123.903 195.705 123.945 195.885 124.02 196.051C124.096 196.216 124.205 196.365 124.34 196.488L130.526 202.674L136.357 196.843C136.482 196.715 136.581 196.564 136.647 196.398C136.714 196.232 136.746 196.054 136.743 195.875Z" fill="#636363"/>
<path d="M136.743 207.038C136.741 206.773 136.66 206.514 136.512 206.294C136.363 206.075 136.152 205.904 135.907 205.803C135.661 205.703 135.392 205.677 135.132 205.729C134.871 205.781 134.632 205.909 134.445 206.096L130.526 210.005L126.243 205.725C126.12 205.591 125.971 205.482 125.805 205.406C125.64 205.33 125.46 205.289 125.278 205.285C125.096 205.28 124.914 205.313 124.745 205.381C124.576 205.448 124.422 205.55 124.293 205.679C124.164 205.808 124.063 205.961 123.995 206.131C123.927 206.3 123.894 206.481 123.899 206.664C123.903 206.846 123.945 207.025 124.02 207.191C124.096 207.357 124.205 207.506 124.34 207.628L130.526 213.814L136.357 207.983C136.605 207.731 136.743 207.392 136.743 207.038Z" fill="#636363"/>
<path d="M136.743 218.192C136.741 217.927 136.66 217.668 136.512 217.448C136.363 217.229 136.152 217.058 135.907 216.957C135.661 216.856 135.392 216.831 135.132 216.883C134.871 216.935 134.632 217.062 134.445 217.25L130.526 221.169L126.243 216.886C126.12 216.751 125.971 216.642 125.805 216.566C125.64 216.49 125.46 216.449 125.278 216.445C125.096 216.44 124.914 216.473 124.745 216.541C124.576 216.609 124.422 216.71 124.293 216.839C124.164 216.968 124.063 217.122 123.995 217.291C123.927 217.46 123.894 217.641 123.899 217.824C123.903 218.006 123.945 218.186 124.02 218.351C124.096 218.517 124.205 218.666 124.34 218.789L130.526 224.975L136.357 219.143C136.607 218.89 136.745 218.548 136.743 218.192Z" fill="#636363"/>
<g filter="url(#filter2_d_106_825)">
<line x1="16" y1="301.501" x2="244.642" y2="301.501" stroke="white" stroke-width="0.793896"/>
</g>
<rect x="16" y="301.898" width="228.642" height="36.5192" fill="white"/>
<path d="M181.164 302.549H178.628C178.628 275.399 156.539 253.312 129.392 253.312C102.245 253.312 80.1369 275.396 80.1369 302.549H77.5859C77.5859 273.991 100.819 250.755 129.38 250.755C157.941 250.755 181.164 273.991 181.164 302.549Z" fill="#2E4272"/>
<g filter="url(#filter3_d_106_825)">
<path d="M82.8509 303.722C83.1521 315.661 88.0314 327.027 96.4792 335.469C104.927 343.91 116.297 348.782 128.236 349.074C154.639 349.708 176.431 328.008 175.904 301.602C175.733 293.129 173.252 284.863 168.729 277.696C164.205 270.529 157.81 264.734 150.233 260.935C147.006 259.309 143.598 258.068 140.08 257.238C136.881 256.487 133.611 256.076 130.326 256.012C103.896 255.491 82.1841 277.298 82.8509 303.722Z" fill="url(#paint1_linear_106_825)"/>
</g>
<path d="M160.88 333.769C178.194 316.456 178.251 288.441 161.007 271.198C143.763 253.954 115.749 254.01 98.435 271.324C81.1214 288.637 81.0648 316.652 98.3087 333.896C115.553 351.139 143.567 351.083 160.88 333.769Z" fill="#F9F9F9"/>
<path d="M121.91 291.004C124.241 291.004 126.131 292.119 127.578 294.35C128.784 296.199 129.387 298.4 129.387 300.953C129.387 304.008 128.623 306.46 127.095 308.31C125.729 309.978 124 310.812 121.91 310.812C119.478 310.812 117.588 309.747 116.242 307.616C115.096 305.827 114.523 303.606 114.523 300.953C114.523 297.978 115.277 295.536 116.784 293.627C118.131 291.878 119.839 291.004 121.91 291.004ZM121.97 294.622C119.94 294.622 118.925 296.672 118.925 300.772C118.925 302.842 119.216 304.471 119.799 305.656C120.322 306.722 121.015 307.254 121.88 307.254C122.844 307.254 123.598 306.681 124.141 305.536C124.704 304.39 124.985 302.802 124.985 300.772C124.985 296.672 123.98 294.622 121.97 294.622ZM131.843 310.45V306.862L136.486 301.405C137.852 299.817 138.687 298.772 138.988 298.27C139.29 297.767 139.44 297.174 139.44 296.491C139.44 295.928 139.239 295.466 138.837 295.104C138.435 294.742 137.933 294.561 137.33 294.561C136.144 294.561 134.827 295.054 133.38 296.039L131.601 293.446C133.672 291.798 135.842 290.974 138.114 290.974C139.862 290.974 141.249 291.436 142.274 292.36C143.299 293.265 143.812 294.551 143.812 296.22C143.812 297.948 143.048 299.848 141.521 301.918C140.938 302.702 139.44 304.42 137.028 307.073H143.661V310.45H131.843Z" fill="#2D4170"/>
<path d="M91.9088 408.118C88.1671 408.118 86.2962 406.499 86.2962 403.262C86.2962 401.776 86.7392 400.556 87.6252 399.602C88.6203 398.539 90.0277 398.007 91.8474 398.007C93.49 398.007 94.9485 398.249 96.223 398.733V405.941H98.2676V408.118H91.9088ZM93.5445 400.563C93.0129 400.311 92.3484 400.185 91.551 400.185C90.7808 400.185 90.1708 400.451 89.721 400.982C89.278 401.5 89.0565 402.175 89.0565 403.007C89.0565 404.963 90.1061 405.941 92.2053 405.941H93.5445V400.563ZM93.3094 396.689C92.9209 396.689 92.5937 396.549 92.3279 396.269C92.0621 395.997 91.9292 395.663 91.9292 395.268C91.9292 394.872 92.0621 394.535 92.3279 394.255C92.6005 393.976 92.9277 393.836 93.3094 393.836C93.6978 393.836 94.025 393.976 94.2908 394.255C94.5566 394.528 94.6895 394.865 94.6895 395.268C94.6895 395.656 94.5566 395.99 94.2908 396.269C94.025 396.549 93.6978 396.689 93.3094 396.689ZM89.8335 396.689C89.445 396.689 89.1178 396.549 88.852 396.269C88.5862 395.997 88.4533 395.663 88.4533 395.268C88.4533 394.872 88.5862 394.535 88.852 394.255C89.1246 393.976 89.4518 393.836 89.8335 393.836C90.2288 393.836 90.5627 393.976 90.8353 394.255C91.1011 394.528 91.234 394.865 91.234 395.268C91.234 395.656 91.1011 395.99 90.8353 396.269C90.5627 396.549 90.2288 396.689 89.8335 396.689ZM97.9609 408.118V405.941H99.1571C99.641 405.941 100.029 405.988 100.323 406.084C99.5455 405.518 99.1571 404.52 99.1571 403.088C99.1571 401.671 99.6069 400.492 100.507 399.551C101.502 398.522 102.865 398.007 104.596 398.007C107.751 398.007 109.329 399.612 109.329 402.823V408.118H97.9609ZM106.63 403.16C106.63 401.177 105.884 400.185 104.391 400.185C103.621 400.185 103.008 400.451 102.551 400.982C102.115 401.5 101.897 402.175 101.897 403.007C101.897 404.963 102.943 405.941 105.035 405.941H106.63V403.16ZM106.068 396.689C105.679 396.689 105.352 396.549 105.087 396.269C104.814 395.997 104.678 395.663 104.678 395.268C104.678 394.872 104.814 394.535 105.087 394.255C105.352 393.976 105.679 393.836 106.068 393.836C106.45 393.836 106.777 393.976 107.049 394.255C107.315 394.528 107.448 394.865 107.448 395.268C107.448 395.656 107.315 395.99 107.049 396.269C106.777 396.549 106.45 396.689 106.068 396.689ZM102.592 396.689C102.204 396.689 101.876 396.549 101.611 396.269C101.338 395.997 101.202 395.663 101.202 395.268C101.202 394.872 101.338 394.535 101.611 394.255C101.876 393.976 102.204 393.836 102.592 393.836C102.987 393.836 103.318 393.976 103.584 394.255C103.856 394.528 103.993 394.865 103.993 395.268C103.993 395.656 103.856 395.99 103.584 396.269C103.311 396.549 102.981 396.689 102.592 396.689ZM112.56 393.356H115.32V405.941H117.416V408.118H112.56V393.356ZM117.099 405.941H120.033V398.273H122.793V405.941H124.848V408.118H117.099V405.941ZM119.859 412.708C119.464 412.708 119.123 412.569 118.837 412.289C118.557 412.01 118.418 411.666 118.418 411.257C118.418 410.861 118.557 410.521 118.837 410.234C119.123 409.955 119.464 409.815 119.859 409.815C120.261 409.815 120.602 409.955 120.881 410.234C121.168 410.514 121.311 410.855 121.311 411.257C121.311 411.659 121.168 412 120.881 412.279C120.602 412.565 120.261 412.708 119.859 412.708ZM124.541 405.941H127.138V393.356H129.898V408.118H124.541V405.941ZM133.456 393.356H136.216V408.118H133.456V393.356ZM148.852 408.118V408.2C148.852 411.689 147.128 413.434 143.679 413.434C143.066 413.434 142.48 413.366 141.921 413.23L142.125 411.032C142.705 411.195 143.27 411.277 143.822 411.277C144.579 411.277 145.134 411.073 145.489 410.664C145.891 410.2 146.092 409.43 146.092 408.353V398.273H148.852V405.941H153.197V398.273H155.957V405.941H157.818V408.118H148.852ZM154.935 396.269C154.669 395.997 154.536 395.663 154.536 395.268C154.536 394.872 154.669 394.535 154.935 394.255C155.208 393.976 155.535 393.836 155.917 393.836C156.305 393.836 156.632 393.976 156.898 394.255C157.164 394.528 157.297 394.865 157.297 395.268C157.297 395.656 157.164 395.99 156.898 396.269C156.625 396.549 156.298 396.689 155.917 396.689C155.528 396.689 155.201 396.549 154.935 396.269ZM151.459 396.269C151.193 395.997 151.061 395.663 151.061 395.268C151.061 394.872 151.193 394.535 151.459 394.255C151.732 393.976 152.059 393.836 152.441 393.836C152.836 393.836 153.17 393.976 153.443 394.255C153.708 394.528 153.841 394.865 153.841 395.268C153.841 395.656 153.708 395.99 153.443 396.269C153.17 396.549 152.836 396.689 152.441 396.689C152.052 396.689 151.725 396.549 151.459 396.269ZM157.542 405.941H165.649C165.717 405.382 165.751 404.85 165.751 404.346C165.751 402.983 165.445 401.981 164.831 401.34C164.177 400.665 163.114 400.328 161.642 400.328C160.865 400.328 160.064 400.386 159.239 400.502V398.345C160.221 398.215 161.113 398.15 161.918 398.15C164.228 398.15 165.911 398.665 166.968 399.694C167.983 400.676 168.491 402.192 168.491 404.244C168.491 405.402 168.372 406.694 168.133 408.118H157.542V405.941ZM162.5 396.515C162.105 396.515 161.768 396.378 161.488 396.106C161.202 395.826 161.059 395.482 161.059 395.073C161.059 394.678 161.202 394.337 161.488 394.051C161.768 393.772 162.105 393.632 162.5 393.632C162.902 393.632 163.243 393.772 163.523 394.051C163.809 394.337 163.952 394.678 163.952 395.073C163.952 395.469 163.809 395.809 163.523 396.096C163.243 396.375 162.902 396.515 162.5 396.515ZM171.425 393.356H174.185V408.118H171.425V393.356Z" fill="#363636"/>
<path d="M136.743 435.85C136.741 435.585 136.66 435.326 136.512 435.106C136.363 434.887 136.152 434.716 135.907 434.615C135.661 434.515 135.392 434.489 135.132 434.541C134.871 434.593 134.632 434.721 134.445 434.908L130.526 438.839L126.243 434.559C126.12 434.425 125.971 434.316 125.805 434.24C125.64 434.164 125.46 434.123 125.278 434.119C125.096 434.114 124.914 434.147 124.745 434.215C124.576 434.282 124.422 434.384 124.293 434.513C124.164 434.642 124.063 434.795 123.995 434.965C123.927 435.134 123.894 435.315 123.899 435.498C123.903 435.68 123.945 435.859 124.02 436.025C124.096 436.191 124.205 436.34 124.34 436.462L130.526 442.648L136.357 436.817C136.482 436.69 136.581 436.539 136.647 436.372C136.714 436.206 136.746 436.029 136.743 435.85Z" fill="#636363"/>
<path d="M136.743 447.013C136.741 446.747 136.66 446.489 136.512 446.269C136.363 446.049 136.152 445.878 135.907 445.778C135.661 445.677 135.392 445.651 135.132 445.703C134.871 445.755 134.632 445.883 134.445 446.071L130.526 449.98L126.243 445.7C126.12 445.565 125.971 445.456 125.805 445.381C125.64 445.305 125.46 445.264 125.278 445.259C125.096 445.255 124.914 445.287 124.745 445.355C124.576 445.423 124.422 445.524 124.293 445.653C124.164 445.782 124.063 445.936 123.995 446.105C123.927 446.275 123.894 446.456 123.899 446.638C123.903 446.82 123.945 447 124.02 447.166C124.096 447.332 124.205 447.48 124.34 447.603L130.526 453.789L136.357 447.958C136.605 447.706 136.743 447.366 136.743 447.013Z" fill="#636363"/>
<path d="M136.743 458.167C136.741 457.901 136.66 457.643 136.512 457.423C136.363 457.203 136.152 457.032 135.907 456.932C135.661 456.831 135.392 456.805 135.132 456.857C134.871 456.909 134.632 457.037 134.445 457.224L130.526 461.143L126.243 456.86C126.12 456.725 125.971 456.617 125.805 456.541C125.64 456.465 125.46 456.424 125.278 456.419C125.096 456.415 124.914 456.448 124.745 456.515C124.576 456.583 124.422 456.685 124.293 456.813C124.164 456.942 124.063 457.096 123.995 457.265C123.927 457.435 123.894 457.616 123.899 457.798C123.903 457.981 123.945 458.16 124.02 458.326C124.096 458.492 124.205 458.641 124.34 458.763L130.526 464.949L136.357 459.118C136.607 458.864 136.745 458.522 136.743 458.167Z" fill="#636363"/>
<g filter="url(#filter4_d_106_825)">
<line x1="16" y1="541.476" x2="244.642" y2="541.476" stroke="white" stroke-width="0.793896"/>
</g>
<rect x="16" y="541.873" width="228.642" height="36.5192" fill="white"/>
<path d="M181.168 542.523H178.632C178.632 515.373 156.543 493.286 129.395 493.286C102.248 493.286 80.1408 515.37 80.1408 542.523H77.5898C77.5898 513.965 100.823 490.729 129.384 490.729C157.945 490.729 181.168 513.965 181.168 542.523Z" fill="#EFAF32"/>
<g filter="url(#filter5_d_106_825)">
<path d="M82.8548 543.696C83.156 555.635 88.0353 567.002 96.4831 575.443C104.931 583.885 116.301 588.756 128.24 589.049C154.643 589.683 176.435 567.983 175.908 541.577C175.737 533.104 173.256 524.838 168.732 517.671C164.208 510.504 157.813 504.709 150.237 500.91C147.01 499.283 143.602 498.043 140.084 497.213C136.885 496.461 133.615 496.05 130.329 495.987C103.9 495.466 82.188 517.273 82.8548 543.696Z" fill="url(#paint2_linear_106_825)"/>
</g>
<path d="M160.88 573.744C178.194 556.43 178.251 528.416 161.007 511.172C143.763 493.928 115.749 493.985 98.435 511.298C81.1214 528.612 81.0648 556.626 98.3087 573.87C115.553 591.114 143.567 591.058 160.88 573.744Z" fill="#F9F9F9"/>
<path d="M122.262 530.978C124.594 530.978 126.483 532.094 127.93 534.325C129.136 536.174 129.739 538.375 129.739 540.928C129.739 543.983 128.975 546.435 127.448 548.284C126.081 549.952 124.352 550.787 122.262 550.787C119.83 550.787 117.941 549.721 116.594 547.591C115.448 545.802 114.875 543.581 114.875 540.928C114.875 537.953 115.629 535.511 117.137 533.601C118.483 531.853 120.192 530.978 122.262 530.978ZM122.322 534.596C120.292 534.596 119.277 536.646 119.277 540.747C119.277 542.817 119.569 544.445 120.151 545.631C120.674 546.696 121.368 547.229 122.232 547.229C123.197 547.229 123.95 546.656 124.493 545.51C125.056 544.365 125.337 542.777 125.337 540.747C125.337 536.646 124.332 534.596 122.322 534.596ZM134.516 542.013V538.576H137.471H137.712C138.416 538.576 138.898 538.435 139.159 538.154C139.441 537.873 139.581 537.36 139.581 536.616C139.581 535.973 139.401 535.461 139.039 535.079C138.677 534.697 138.195 534.506 137.592 534.506C136.345 534.506 135.069 535.089 133.763 536.254L132.225 533.511C133.913 531.823 135.833 530.978 137.984 530.978C139.752 530.978 141.21 531.481 142.355 532.486C143.461 533.43 144.013 534.687 144.013 536.254C144.013 537.259 143.853 538.033 143.531 538.576C143.209 539.119 142.637 539.581 141.813 539.963C143.742 540.767 144.707 542.254 144.707 544.425C144.707 546.837 143.893 548.576 142.265 549.641C141.139 550.385 139.722 550.756 138.014 550.756C137.089 550.756 136.014 550.495 134.788 549.973C133.562 549.45 132.587 548.837 131.863 548.133L133.582 545.571C134.627 546.576 136.014 547.078 137.742 547.078C138.526 547.078 139.149 546.847 139.612 546.385C140.074 545.922 140.305 545.299 140.305 544.515C140.305 542.847 139.36 542.013 137.471 542.013H134.516Z" fill="#E2A52F"/>
<path d="M84.088 648.093C80.7007 648.093 78.8571 646.74 78.5572 644.034H78.0972C77.4906 644.034 77.0953 644.232 76.9113 644.627C76.7272 645.022 76.7136 645.711 76.8704 646.692L77.954 653.532H75.296L74.2328 646.897C73.9874 645.336 74.168 644.123 74.7746 643.257C75.4425 642.323 76.5807 641.857 78.1892 641.857H78.6901C78.9423 640.705 79.5046 639.785 80.3769 639.096C81.3175 638.353 82.5068 637.982 83.9449 637.982C87.1004 637.982 88.6782 639.587 88.6782 642.797V648.093H84.088ZM85.9997 643.134C85.9997 641.151 85.25 640.16 83.7506 640.16C82.9805 640.16 82.3705 640.425 81.9207 640.957C81.4845 641.475 81.2664 642.15 81.2664 642.981C81.2664 644.937 82.3126 645.915 84.4049 645.915H85.9997V643.134ZM93.8716 653.368C92.8221 653.368 91.7588 653.276 90.682 653.092L90.8558 650.833C91.9463 651.071 93.0333 651.19 94.117 651.19C96.5365 651.19 97.7463 650.264 97.7463 648.41V648.093H96.1105C92.3688 648.093 90.498 646.474 90.498 643.237C90.498 641.751 90.941 640.531 91.827 639.577C92.8221 638.514 94.2295 637.982 96.0492 637.982C97.6917 637.982 99.1502 638.224 100.425 638.708V645.915H102.469V648.093H100.425V648.134C100.425 649.688 99.917 650.921 98.9015 651.834C97.7701 652.857 96.0935 653.368 93.8716 653.368ZM97.7463 640.538C97.2146 640.286 96.5501 640.16 95.7527 640.16C94.9826 640.16 94.3726 640.425 93.9228 640.957C93.4797 641.475 93.2582 642.15 93.2582 642.981C93.2582 644.937 94.3078 645.915 96.407 645.915H97.7463V640.538ZM102.173 645.915H103.216C103.911 645.915 104.395 645.738 104.667 645.384C104.96 645.009 105.107 644.32 105.107 643.319V639.505H107.867V643.38C107.867 644.389 107.952 645.074 108.123 645.435C108.32 645.864 108.716 646.079 109.309 646.079C110.426 646.079 110.985 645.186 110.985 643.4V638.667H113.643V643.922C113.643 644.74 113.814 645.278 114.155 645.537C114.482 645.789 115.136 645.915 116.117 645.915H116.659C116.761 645.131 116.813 644.293 116.813 643.4C116.813 641.472 116.608 639.601 116.199 637.788L118.898 637.42C119.348 639.294 119.573 641.226 119.573 643.216C119.573 644.981 119.467 646.607 119.256 648.093H115.801C114.662 648.093 113.817 647.997 113.265 647.807C112.672 647.595 112.226 647.21 111.926 646.651C111.428 647.721 110.375 648.256 108.767 648.256C107.274 648.256 106.347 647.715 105.986 646.631C105.557 647.605 104.626 648.093 103.195 648.093H102.173V645.915ZM120.779 653.409C120.166 653.409 119.58 653.341 119.021 653.204L119.225 651.006C119.805 651.17 120.37 651.252 120.922 651.252C121.679 651.252 122.234 651.047 122.589 650.638C122.991 650.175 123.192 649.405 123.192 648.328V638.248H125.952V645.915H128.007V648.093H125.952V648.175C125.952 651.664 124.228 653.409 120.779 653.409ZM127.69 645.915H130.287V633.33H133.047V648.093H127.69V645.915ZM136.605 633.33H139.365V648.093H136.605V633.33ZM151.766 653.429C149.762 653.429 148.246 653.068 147.217 652.346C146.296 651.698 145.836 650.833 145.836 649.749C145.836 648.618 146.348 647.643 147.37 646.825C147.976 646.341 149.064 645.752 150.631 645.056C148.968 643.475 147.571 642.528 146.44 642.214L146.675 640.241C148.822 638.694 150.839 637.921 152.727 637.921C154.199 637.921 155.324 638.265 156.101 638.953C156.796 639.567 157.143 640.367 157.143 641.356C157.143 642.855 156.346 644.15 154.751 645.24C155.603 645.69 156.462 645.915 157.327 645.915H158.718V648.093H157.021C155.29 648.093 153.739 647.575 152.369 646.539C150.979 647.22 150.12 647.67 149.793 647.888C149.036 648.393 148.658 648.921 148.658 649.473C148.658 650.672 149.796 651.272 152.073 651.272C153.149 651.272 154.199 651.184 155.221 651.006L155.385 653.092C154.172 653.317 152.965 653.429 151.766 653.429ZM149.231 641.202C149.912 641.475 151.125 642.375 152.87 643.901C153.892 643.24 154.404 642.507 154.404 641.703C154.404 641.185 154.24 640.77 153.913 640.456C153.558 640.115 153.057 639.945 152.41 639.945C151.544 639.945 150.485 640.364 149.231 641.202ZM158.401 648.093V645.915H159.597C160.081 645.915 160.469 645.963 160.762 646.058C159.985 645.493 159.597 644.494 159.597 643.063C159.597 641.645 160.047 640.466 160.946 639.526C161.941 638.497 163.305 637.982 165.036 637.982C168.191 637.982 169.769 639.587 169.769 642.797V648.093H158.401ZM167.07 643.134C167.07 641.151 166.324 640.16 164.831 640.16C164.061 640.16 163.448 640.425 162.991 640.957C162.555 641.475 162.337 642.15 162.337 642.981C162.337 644.937 163.383 645.915 165.475 645.915H167.07V643.134ZM164.77 636.408C164.368 636.408 164.027 636.271 163.748 635.999C163.461 635.712 163.318 635.368 163.318 634.966C163.318 634.571 163.461 634.23 163.748 633.944C164.027 633.664 164.368 633.525 164.77 633.525C165.165 633.525 165.503 633.664 165.782 633.944C166.068 634.23 166.211 634.571 166.211 634.966C166.211 635.361 166.068 635.702 165.782 635.988C165.503 636.268 165.165 636.408 164.77 636.408ZM172.182 645.915H178.397C178.275 642.814 176.629 640.862 173.46 640.057L174.124 637.747C176.469 638.367 178.2 639.362 179.318 640.732C180.503 642.191 181.096 644.184 181.096 646.713V648.093H172.182V645.915ZM183.918 633.33H186.678V648.093H183.918V633.33Z" fill="#363636"/>
<path d="M136.743 664.825C136.741 664.559 136.66 664.301 136.512 664.081C136.363 663.861 136.152 663.69 135.907 663.59C135.661 663.489 135.392 663.463 135.132 663.515C134.871 663.567 134.632 663.695 134.445 663.883L130.526 667.814L126.243 663.534C126.12 663.399 125.971 663.29 125.805 663.215C125.64 663.139 125.46 663.098 125.278 663.093C125.096 663.089 124.914 663.121 124.745 663.189C124.576 663.257 124.422 663.358 124.293 663.487C124.164 663.616 124.063 663.77 123.995 663.939C123.927 664.109 123.894 664.29 123.899 664.472C123.903 664.654 123.945 664.834 124.02 665C124.096 665.166 124.205 665.314 124.34 665.437L130.526 671.623L136.357 665.792C136.482 665.664 136.581 665.513 136.647 665.347C136.714 665.181 136.746 665.003 136.743 664.825Z" fill="#636363"/>
<path d="M136.743 675.987C136.741 675.722 136.66 675.463 136.512 675.244C136.363 675.024 136.152 674.853 135.907 674.752C135.661 674.652 135.392 674.626 135.132 674.678C134.871 674.73 134.632 674.858 134.445 675.045L130.526 678.955L126.243 674.675C126.12 674.54 125.971 674.431 125.805 674.355C125.64 674.28 125.46 674.238 125.278 674.234C125.096 674.229 124.914 674.262 124.745 674.33C124.576 674.398 124.422 674.499 124.293 674.628C124.164 674.757 124.063 674.911 123.995 675.08C123.927 675.249 123.894 675.431 123.899 675.613C123.903 675.795 123.945 675.975 124.02 676.14C124.096 676.306 124.205 676.455 124.34 676.578L130.526 682.764L136.357 676.932C136.605 676.68 136.743 676.341 136.743 675.987Z" fill="#636363"/>
<path d="M136.743 687.141C136.741 686.876 136.66 686.617 136.512 686.397C136.363 686.178 136.152 686.007 135.907 685.906C135.661 685.806 135.392 685.78 135.132 685.832C134.871 685.884 134.632 686.012 134.445 686.199L130.526 690.118L126.243 685.835C126.12 685.7 125.971 685.591 125.805 685.515C125.64 685.44 125.46 685.398 125.278 685.394C125.096 685.39 124.914 685.422 124.745 685.49C124.576 685.558 124.422 685.659 124.293 685.788C124.164 685.917 124.063 686.071 123.995 686.24C123.927 686.409 123.894 686.591 123.899 686.773C123.903 686.955 123.945 687.135 124.02 687.301C124.096 687.466 124.205 687.615 124.34 687.738L130.526 693.924L136.357 688.093C136.607 687.839 136.745 687.497 136.743 687.141Z" fill="#636363"/>
<g filter="url(#filter6_d_106_825)">
<line x1="16" y1="770.451" x2="244.642" y2="770.451" stroke="white" stroke-width="0.793896"/>
</g>
<rect x="16" y="770.848" width="228.642" height="36.5192" fill="white"/>
<path d="M181.172 771.498H178.636C178.636 744.348 156.546 722.261 129.399 722.261C102.252 722.261 80.1447 744.345 80.1447 771.498H77.5938C77.5938 742.94 100.827 719.704 129.387 719.704C157.948 719.704 181.172 742.94 181.172 771.498Z" fill="#78B7D0"/>
<g filter="url(#filter7_d_106_825)">
<path d="M82.8548 772.671C83.156 784.61 88.0353 795.976 96.4831 804.418C104.931 812.86 116.301 817.731 128.24 818.023C154.643 818.657 176.435 796.958 175.908 770.552C175.737 762.078 173.256 753.812 168.732 746.645C164.208 739.479 157.813 733.683 150.237 729.885C147.01 728.258 143.602 727.017 140.084 726.188C136.885 725.436 133.615 725.025 130.329 724.961C103.9 724.44 82.188 746.247 82.8548 772.671Z" fill="url(#paint3_linear_106_825)"/>
</g>
<path d="M161.72 802.719C179.034 785.405 179.09 757.391 161.847 740.147C144.603 722.903 116.588 722.959 99.2748 740.273C81.9612 757.587 81.9047 785.601 99.1485 802.845C116.392 820.089 144.407 820.032 161.72 802.719Z" fill="#F9F9F9"/>
<path d="M120.295 759.953C122.626 759.953 124.516 761.068 125.963 763.3C127.169 765.149 127.772 767.35 127.772 769.902C127.772 772.957 127.008 775.41 125.48 777.259C124.114 778.927 122.385 779.761 120.295 779.761C117.863 779.761 115.973 778.696 114.626 776.565C113.481 774.776 112.908 772.555 112.908 769.902C112.908 766.928 113.662 764.485 115.169 762.576C116.516 760.827 118.224 759.953 120.295 759.953ZM120.355 763.571C118.325 763.571 117.31 765.621 117.31 769.721C117.31 771.792 117.601 773.42 118.184 774.606C118.707 775.671 119.4 776.204 120.264 776.204C121.229 776.204 121.983 775.631 122.526 774.485C123.088 773.339 123.37 771.751 123.37 769.721C123.37 765.621 122.365 763.571 120.355 763.571ZM129.534 772.375C132.067 768.495 134.71 764.475 137.463 760.315H141.624V772.375H144.699V775.751H141.624V779.399H137.403V775.751H129.534V772.375ZM133.152 772.375H137.403V765.711C136.921 766.455 136.318 767.4 135.594 768.546C134.529 770.214 133.715 771.49 133.152 772.375Z" fill="#75B2CB"/>
<path d="M81.4708 877.067C77.7291 877.067 75.8583 875.449 75.8583 872.211C75.8583 870.726 76.3013 869.506 77.1873 868.551C78.1824 867.488 79.5898 866.957 81.4095 866.957C83.052 866.957 84.5106 867.199 85.785 867.682V874.89H87.8297V877.067H81.4708ZM83.1066 869.512C82.5749 869.26 81.9104 869.134 81.113 869.134C80.3429 869.134 79.7329 869.4 79.2831 869.932C78.8401 870.45 78.6186 871.124 78.6186 871.956C78.6186 873.912 79.6681 874.89 81.7673 874.89H83.1066V869.512ZM82.8714 865.638C82.4829 865.638 82.1558 865.498 81.89 865.219C81.6242 864.946 81.4913 864.612 81.4913 864.217C81.4913 863.821 81.6242 863.484 81.89 863.205C82.1626 862.925 82.4898 862.786 82.8714 862.786C83.2599 862.786 83.5871 862.925 83.8529 863.205C84.1187 863.477 84.2516 863.815 84.2516 864.217C84.2516 864.605 84.1187 864.939 83.8529 865.219C83.5871 865.498 83.2599 865.638 82.8714 865.638ZM79.3955 865.638C79.007 865.638 78.6799 865.498 78.4141 865.219C78.1483 864.946 78.0154 864.612 78.0154 864.217C78.0154 863.821 78.1483 863.484 78.4141 863.205C78.6867 862.925 79.0138 862.786 79.3955 862.786C79.7908 862.786 80.1248 862.925 80.3974 863.205C80.6632 863.477 80.7961 863.815 80.7961 864.217C80.7961 864.605 80.6632 864.939 80.3974 865.219C80.1248 865.498 79.7908 865.638 79.3955 865.638ZM87.523 877.067V874.89H88.7191C89.203 874.89 89.5915 874.938 89.8846 875.033C89.1076 874.467 88.7191 873.469 88.7191 872.038C88.7191 870.62 89.1689 869.441 90.0686 868.5C91.0637 867.471 92.4268 866.957 94.1579 866.957C97.3135 866.957 98.8913 868.562 98.8913 871.772V877.067H87.523ZM96.1923 872.109C96.1923 870.126 95.446 869.134 93.9534 869.134C93.1833 869.134 92.5699 869.4 92.1132 869.932C91.677 870.45 91.459 871.124 91.459 871.956C91.459 873.912 92.5051 874.89 94.5975 874.89H96.1923V872.109ZM101.304 874.89H107.52C107.397 871.789 105.751 869.836 102.582 869.032L103.246 866.721C105.461 867.308 107.128 868.228 108.246 869.482C109.425 870.811 110.075 872.613 110.198 874.89H111.568V877.067H101.304V874.89ZM111.261 874.89H119.368C119.437 874.331 119.471 873.799 119.471 873.295C119.471 871.932 119.164 870.93 118.551 870.289C117.896 869.615 116.833 869.277 115.361 869.277C114.584 869.277 113.783 869.335 112.958 869.451V867.294C113.94 867.164 114.833 867.1 115.637 867.1C117.947 867.1 119.631 867.614 120.687 868.643C121.703 869.625 122.21 871.141 122.21 873.193C122.21 873.786 122.183 874.351 122.129 874.89H123.764V877.067H111.261V874.89ZM116.22 865.464C115.824 865.464 115.487 865.328 115.208 865.055C114.921 864.776 114.778 864.431 114.778 864.023C114.778 863.627 114.921 863.286 115.208 863C115.487 862.721 115.824 862.581 116.22 862.581C116.622 862.581 116.963 862.721 117.242 863C117.528 863.286 117.671 863.627 117.671 864.023C117.671 864.418 117.528 864.759 117.242 865.045C116.963 865.324 116.622 865.464 116.22 865.464ZM123.448 874.89H126.044V862.305H128.804V877.067H123.448V874.89ZM132.362 862.305H135.122V877.067H132.362V862.305ZM149.721 877.067C146.988 877.067 144.995 876.512 143.741 875.401C142.602 874.399 142.033 872.889 142.033 870.872C142.033 869.673 142.214 868.575 142.575 867.58L145.53 867.1C145.053 868.142 144.814 869.294 144.814 870.555C144.814 872.075 145.192 873.166 145.949 873.827C146.746 874.535 148.099 874.89 150.008 874.89H152.86V867.222H155.62V874.89H157.675V877.067H149.721ZM149.261 881.658C148.859 881.658 148.518 881.518 148.239 881.238C147.953 880.959 147.81 880.615 147.81 880.206C147.81 879.811 147.953 879.47 148.239 879.184C148.518 878.904 148.859 878.764 149.261 878.764C149.657 878.764 149.994 878.904 150.273 879.184C150.56 879.463 150.703 879.804 150.703 880.206C150.703 880.608 150.56 880.949 150.273 881.228C149.994 881.514 149.657 881.658 149.261 881.658ZM157.368 874.89H159.965V862.305H162.725V874.89H164.821V877.067H157.368V874.89ZM164.504 874.89H167.06V862.305H169.82V867.754C169.82 868.899 169.745 869.932 169.595 870.852H169.616C170.059 869.618 170.781 868.65 171.783 867.948C172.73 867.287 173.773 866.957 174.911 866.957C176.356 866.957 177.46 867.379 178.224 868.224C178.973 869.049 179.348 870.211 179.348 871.71C179.348 873.332 178.861 874.6 177.886 875.513C176.789 876.549 175.133 877.067 172.918 877.067H164.504V874.89ZM173.173 874.89C175.395 874.89 176.506 873.885 176.506 871.874C176.506 870.061 175.794 869.155 174.37 869.155C173.265 869.155 172.274 869.741 171.395 870.913C170.563 872.017 170.031 873.343 169.8 874.89H173.173ZM181.863 862.305H184.623V877.067H181.863V862.305Z" fill="#363636"/>
<path d="M136.743 893.799C136.741 893.534 136.66 893.275 136.512 893.056C136.363 892.836 136.152 892.665 135.907 892.564C135.661 892.464 135.392 892.438 135.132 892.49C134.871 892.542 134.632 892.67 134.445 892.857L130.526 896.789L126.243 892.509C126.12 892.374 125.971 892.265 125.805 892.189C125.64 892.113 125.46 892.072 125.278 892.068C125.096 892.063 124.914 892.096 124.745 892.164C124.576 892.232 124.422 892.333 124.293 892.462C124.164 892.591 124.063 892.745 123.995 892.914C123.927 893.083 123.894 893.264 123.899 893.447C123.903 893.629 123.945 893.809 124.02 893.974C124.096 894.14 124.205 894.289 124.34 894.412L130.526 900.598L136.357 894.766C136.482 894.639 136.581 894.488 136.647 894.322C136.714 894.156 136.746 893.978 136.743 893.799Z" fill="#636363"/>
<path d="M136.743 904.962C136.741 904.697 136.66 904.438 136.512 904.218C136.363 903.998 136.152 903.828 135.907 903.727C135.661 903.626 135.392 903.6 135.132 903.653C134.871 903.705 134.632 903.832 134.445 904.02L130.526 907.929L126.243 903.649C126.12 903.514 125.971 903.406 125.805 903.33C125.64 903.254 125.46 903.213 125.278 903.208C125.096 903.204 124.914 903.237 124.745 903.304C124.576 903.372 124.422 903.474 124.293 903.603C124.164 903.731 124.063 903.885 123.995 904.055C123.927 904.224 123.894 904.405 123.899 904.587C123.903 904.77 123.945 904.949 124.02 905.115C124.096 905.281 124.205 905.43 124.34 905.552L130.526 911.738L136.357 905.907C136.605 905.655 136.743 905.315 136.743 904.962Z" fill="#636363"/>
<path d="M136.743 916.116C136.741 915.85 136.66 915.592 136.512 915.372C136.363 915.152 136.152 914.981 135.907 914.881C135.661 914.78 135.392 914.754 135.132 914.806C134.871 914.859 134.632 914.986 134.445 915.174L130.526 919.093L126.243 914.809C126.12 914.675 125.971 914.566 125.805 914.49C125.64 914.414 125.46 914.373 125.278 914.369C125.096 914.364 124.914 914.397 124.745 914.465C124.576 914.532 124.422 914.634 124.293 914.763C124.164 914.892 124.063 915.045 123.995 915.215C123.927 915.384 123.894 915.565 123.899 915.748C123.903 915.93 123.945 916.109 124.02 916.275C124.096 916.441 124.205 916.59 124.34 916.712L130.526 922.898L136.357 917.067C136.607 916.814 136.745 916.471 136.743 916.116Z" fill="#636363"/>
<g filter="url(#filter8_d_106_825)">
<line x1="16" y1="999.425" x2="244.642" y2="999.425" stroke="white" stroke-width="0.793896"/>
</g>
<rect x="16" y="999.822" width="228.642" height="36.5192" fill="white"/>
<path d="M181.164 1000.47H178.628C178.628 973.322 156.539 951.236 129.392 951.236C102.245 951.236 80.1369 973.319 80.1369 1000.47H77.5859C77.5859 971.914 100.819 948.679 129.38 948.679C157.941 948.679 181.164 971.914 181.164 1000.47Z" fill="#AA6C39"/>
<g filter="url(#filter9_d_106_825)">
<path d="M82.8509 1001.65C83.1521 1013.58 88.0314 1024.95 96.4792 1033.39C104.927 1041.83 116.297 1046.71 128.236 1047C154.639 1047.63 176.431 1025.93 175.904 999.526C175.733 991.053 173.252 982.787 168.729 975.62C164.205 968.453 157.81 962.658 150.233 958.859C147.006 957.233 143.598 955.992 140.08 955.162C136.881 954.411 133.611 953.999 130.326 953.936C103.896 953.415 82.1841 975.222 82.8509 1001.65Z" fill="url(#paint4_linear_106_825)"/>
</g>
<path d="M160.88 1031.69C178.194 1014.38 178.251 986.365 161.007 969.121C143.763 951.877 115.749 951.934 98.435 969.248C81.1214 986.561 81.0648 1014.58 98.3087 1031.82C115.553 1049.06 143.567 1049.01 160.88 1031.69Z" fill="#F9F9F9"/>
<path d="M121.484 988.928C123.815 988.928 125.705 990.043 127.152 992.274C128.358 994.123 128.961 996.324 128.961 998.877C128.961 1001.93 128.197 1004.38 126.67 1006.23C125.303 1007.9 123.574 1008.74 121.484 1008.74C119.052 1008.74 117.162 1007.67 115.816 1005.54C114.67 1003.75 114.097 1001.53 114.097 998.877C114.097 995.902 114.851 993.46 116.358 991.551C117.705 989.802 119.414 988.928 121.484 988.928ZM121.544 992.545C119.514 992.545 118.499 994.596 118.499 998.696C118.499 1000.77 118.79 1002.39 119.373 1003.58C119.896 1004.65 120.589 1005.18 121.454 1005.18C122.418 1005.18 123.172 1004.61 123.715 1003.46C124.278 1002.31 124.559 1000.73 124.559 998.696C124.559 994.596 123.554 992.545 121.544 992.545ZM143.627 992.666H137.055V996.194C137.296 996.133 137.567 996.103 137.869 996.103C140.22 996.103 141.989 996.666 143.175 997.792C144.281 998.837 144.833 1000.3 144.833 1002.19C144.833 1004.12 144.11 1005.73 142.663 1007.02C141.376 1008.16 139.818 1008.74 137.989 1008.74C135.477 1008.74 133.316 1007.82 131.507 1005.99L133.256 1003.31C134.763 1004.45 136.2 1005.03 137.567 1005.03C139.537 1005.03 140.522 1004.17 140.522 1002.46C140.522 1000.45 139.185 999.45 136.512 999.45C135.547 999.45 134.512 999.58 133.407 999.842L133.286 999.872C133.085 999.932 132.944 999.972 132.864 999.992V989.289H143.627V992.666Z" fill="#AA6C39"/>
<path d="M91.6328 1106.04C88.8998 1106.04 86.9063 1105.49 85.6522 1104.38C84.514 1103.37 83.9449 1101.86 83.9449 1099.85C83.9449 1098.65 84.1255 1097.55 84.4868 1096.55L87.4413 1096.07C86.9642 1097.12 86.7257 1098.27 86.7257 1099.53C86.7257 1101.05 87.1039 1102.14 87.8604 1102.8C88.6578 1103.51 90.0107 1103.86 91.9191 1103.86H96.2946V1091.28H99.0651V1103.86H101.151V1106.04H91.6328ZM89.2201 1095.85C89.7449 1095.85 90.1368 1095.88 90.3958 1095.93C90.13 1095.79 89.9971 1095.52 89.9971 1095.11C89.9971 1094.46 90.2288 1093.92 90.6923 1093.5C91.2307 1093.01 92.0111 1092.77 93.0334 1092.77C93.3674 1092.77 93.7797 1092.81 94.2704 1092.87L94.0148 1094.44C93.6672 1094.37 93.3196 1094.34 92.9721 1094.34C92.2973 1094.34 91.96 1094.57 91.96 1095.05C91.96 1095.58 92.4439 1095.85 93.4117 1095.85H94.5976V1097.41H89.2201V1095.85ZM100.854 1103.86H103.788V1096.2H106.549V1103.86H108.603V1106.04H100.854V1103.86ZM103.614 1110.63C103.219 1110.63 102.878 1110.49 102.592 1110.21C102.313 1109.93 102.173 1109.59 102.173 1109.18C102.173 1108.79 102.313 1108.44 102.592 1108.16C102.878 1107.88 103.219 1107.74 103.614 1107.74C104.017 1107.74 104.357 1107.88 104.637 1108.16C104.923 1108.44 105.066 1108.78 105.066 1109.18C105.066 1109.58 104.923 1109.92 104.637 1110.2C104.357 1110.49 104.017 1110.63 103.614 1110.63ZM108.297 1103.86H110.893V1091.28H113.654V1103.86H115.749V1106.04H108.297V1103.86ZM115.433 1103.86H117.988V1091.28H120.749V1096.73C120.749 1097.87 120.674 1098.91 120.524 1099.83H120.544C120.987 1098.59 121.71 1097.62 122.711 1096.92C123.659 1096.26 124.702 1095.93 125.84 1095.93C127.285 1095.93 128.389 1096.35 129.152 1097.2C129.902 1098.02 130.277 1099.19 130.277 1100.69C130.277 1102.31 129.789 1103.57 128.815 1104.49C127.717 1105.52 126.061 1106.04 123.846 1106.04H115.433V1103.86ZM124.102 1103.86C126.324 1103.86 127.435 1102.86 127.435 1100.85C127.435 1099.04 126.722 1098.13 125.298 1098.13C124.194 1098.13 123.202 1098.72 122.323 1099.89C121.492 1100.99 120.96 1102.32 120.728 1103.86H124.102ZM141.635 1111.38C139.631 1111.38 138.115 1111.02 137.085 1110.29C136.165 1109.65 135.705 1108.78 135.705 1107.7C135.705 1106.57 136.216 1105.59 137.239 1104.77C137.845 1104.29 138.932 1103.7 140.5 1103.01C138.837 1101.42 137.44 1100.48 136.308 1100.16L136.544 1098.19C138.69 1096.64 140.708 1095.87 142.596 1095.87C144.068 1095.87 145.192 1096.21 145.969 1096.9C146.665 1097.52 147.012 1098.32 147.012 1099.3C147.012 1100.8 146.215 1102.1 144.62 1103.19C145.472 1103.64 146.331 1103.86 147.196 1103.86H148.587V1106.04H146.889C145.158 1106.04 143.608 1105.52 142.238 1104.49C140.848 1105.17 139.989 1105.62 139.662 1105.84C138.905 1106.34 138.527 1106.87 138.527 1107.42C138.527 1108.62 139.665 1109.22 141.941 1109.22C143.018 1109.22 144.068 1109.13 145.09 1108.96L145.254 1111.04C144.041 1111.27 142.834 1111.38 141.635 1111.38ZM139.099 1099.15C139.781 1099.42 140.994 1100.32 142.739 1101.85C143.761 1101.19 144.272 1100.46 144.272 1099.65C144.272 1099.13 144.109 1098.72 143.782 1098.41C143.427 1098.06 142.926 1097.89 142.279 1097.89C141.413 1097.89 140.353 1098.31 139.099 1099.15ZM148.27 1103.86H151.204V1096.2H153.964V1103.86H156.019V1106.04H148.27V1103.86ZM151.03 1110.63C150.635 1110.63 150.294 1110.49 150.008 1110.21C149.728 1109.93 149.588 1109.59 149.588 1109.18C149.588 1108.79 149.728 1108.44 150.008 1108.16C150.294 1107.88 150.635 1107.74 151.03 1107.74C151.432 1107.74 151.773 1107.88 152.052 1108.16C152.338 1108.44 152.482 1108.78 152.482 1109.18C152.482 1109.58 152.338 1109.92 152.052 1110.2C151.773 1110.49 151.432 1110.63 151.03 1110.63ZM155.712 1103.86H158.646V1096.2H161.406V1103.86H163.267V1106.04H155.712V1103.86ZM157.89 1094.61C157.501 1094.61 157.174 1094.47 156.908 1094.19C156.642 1093.92 156.51 1093.59 156.51 1093.19C156.51 1092.8 156.642 1092.46 156.908 1092.18C157.181 1091.9 157.508 1091.76 157.89 1091.76C158.285 1091.76 158.619 1091.9 158.892 1092.18C159.157 1092.45 159.29 1092.79 159.29 1093.19C159.29 1093.58 159.157 1093.91 158.892 1094.19C158.619 1094.47 158.285 1094.61 157.89 1094.61ZM161.366 1094.61C160.977 1094.61 160.65 1094.47 160.384 1094.19C160.118 1093.92 159.985 1093.59 159.985 1093.19C159.985 1092.8 160.118 1092.46 160.384 1092.18C160.657 1091.9 160.984 1091.76 161.366 1091.76C161.754 1091.76 162.081 1091.9 162.347 1092.18C162.613 1092.45 162.746 1092.79 162.746 1093.19C162.746 1093.58 162.613 1093.91 162.347 1094.19C162.074 1094.47 161.747 1094.61 161.366 1094.61ZM162.95 1103.86H165.884V1096.2H168.645V1106.04H162.95V1103.86ZM168.604 1094.61C168.215 1094.61 167.888 1094.47 167.622 1094.19C167.356 1093.92 167.224 1093.59 167.224 1093.19C167.224 1092.8 167.356 1092.46 167.622 1092.18C167.895 1091.9 168.222 1091.76 168.604 1091.76C168.992 1091.76 169.319 1091.9 169.585 1092.18C169.851 1092.45 169.984 1092.79 169.984 1093.19C169.984 1093.58 169.851 1093.91 169.585 1094.19C169.312 1094.47 168.985 1094.61 168.604 1094.61ZM165.128 1094.61C164.739 1094.61 164.412 1094.47 164.146 1094.19C163.881 1093.92 163.748 1093.59 163.748 1093.19C163.748 1092.8 163.881 1092.46 164.146 1092.18C164.419 1091.9 164.746 1091.76 165.128 1091.76C165.523 1091.76 165.857 1091.9 166.13 1092.18C166.395 1092.45 166.528 1092.79 166.528 1093.19C166.528 1093.58 166.395 1093.91 166.13 1094.19C165.857 1094.47 165.523 1094.61 165.128 1094.61Z" fill="#363636"/>
<path d="M136.743 1122.77C136.741 1122.51 136.66 1122.25 136.512 1122.03C136.363 1121.81 136.152 1121.64 135.907 1121.54C135.661 1121.44 135.392 1121.41 135.132 1121.46C134.871 1121.52 134.632 1121.64 134.445 1121.83L130.526 1125.76L126.243 1121.48C126.12 1121.35 125.971 1121.24 125.805 1121.16C125.64 1121.09 125.46 1121.05 125.278 1121.04C125.096 1121.04 124.914 1121.07 124.745 1121.14C124.576 1121.21 124.422 1121.31 124.293 1121.44C124.164 1121.57 124.063 1121.72 123.995 1121.89C123.927 1122.06 123.894 1122.24 123.899 1122.42C123.903 1122.6 123.945 1122.78 124.02 1122.95C124.096 1123.11 124.205 1123.26 124.34 1123.39L130.526 1129.57L136.357 1123.74C136.482 1123.61 136.581 1123.46 136.647 1123.3C136.714 1123.13 136.746 1122.95 136.743 1122.77Z" fill="#636363"/>
<path d="M136.743 1133.94C136.741 1133.67 136.66 1133.41 136.512 1133.19C136.363 1132.97 136.152 1132.8 135.907 1132.7C135.661 1132.6 135.392 1132.58 135.132 1132.63C134.871 1132.68 134.632 1132.81 134.445 1132.99L130.526 1136.9L126.243 1132.62C126.12 1132.49 125.971 1132.38 125.805 1132.3C125.64 1132.23 125.46 1132.19 125.278 1132.18C125.096 1132.18 124.914 1132.21 124.745 1132.28C124.576 1132.35 124.422 1132.45 124.293 1132.58C124.164 1132.71 124.063 1132.86 123.995 1133.03C123.927 1133.2 123.894 1133.38 123.899 1133.56C123.903 1133.74 123.945 1133.92 124.02 1134.09C124.096 1134.26 124.205 1134.4 124.34 1134.53L130.526 1140.71L136.357 1134.88C136.605 1134.63 136.743 1134.29 136.743 1133.94Z" fill="#636363"/>
<path d="M136.743 1145.09C136.741 1144.83 136.66 1144.57 136.512 1144.35C136.363 1144.13 136.152 1143.96 135.907 1143.86C135.661 1143.75 135.392 1143.73 135.132 1143.78C134.871 1143.83 134.632 1143.96 134.445 1144.15L130.526 1148.07L126.243 1143.78C126.12 1143.65 125.971 1143.54 125.805 1143.46C125.64 1143.39 125.46 1143.35 125.278 1143.34C125.096 1143.34 124.914 1143.37 124.745 1143.44C124.576 1143.51 124.422 1143.61 124.293 1143.74C124.164 1143.87 124.063 1144.02 123.995 1144.19C123.927 1144.36 123.894 1144.54 123.899 1144.72C123.903 1144.9 123.945 1145.08 124.02 1145.25C124.096 1145.42 124.205 1145.56 124.34 1145.69L130.526 1151.87L136.357 1146.04C136.607 1145.79 136.745 1145.45 136.743 1145.09Z" fill="#636363"/>
<g filter="url(#filter10_d_106_825)">
<line x1="16" y1="1228.4" x2="244.642" y2="1228.4" stroke="white" stroke-width="0.793896"/>
</g>
<rect x="16" y="1228.8" width="228.642" height="36.5192" fill="white"/>
<path d="M181.168 1229.45H178.632C178.632 1202.3 156.543 1180.21 129.395 1180.21C102.248 1180.21 80.1408 1202.29 80.1408 1229.45H77.5898C77.5898 1200.89 100.823 1177.65 129.384 1177.65C157.945 1177.65 181.168 1200.89 181.168 1229.45Z" fill="#FFDC7F"/>
<g filter="url(#filter11_d_106_825)">
<path d="M82.8548 1230.62C83.156 1242.56 88.0353 1253.93 96.4831 1262.37C104.931 1270.81 116.301 1275.68 128.24 1275.97C154.643 1276.61 176.435 1254.91 175.908 1228.5C175.737 1220.03 173.256 1211.76 168.732 1204.59C164.208 1197.43 157.813 1191.63 150.237 1187.83C147.01 1186.21 143.602 1184.97 140.084 1184.14C136.885 1183.39 133.615 1182.97 130.329 1182.91C103.9 1182.39 82.188 1204.2 82.8548 1230.62Z" fill="url(#paint5_linear_106_825)"/>
</g>
<path d="M160.88 1260.67C178.194 1243.35 178.251 1215.34 161.007 1198.1C143.763 1180.85 115.749 1180.91 98.435 1198.22C81.1214 1215.54 81.0648 1243.55 98.3087 1260.79C115.553 1278.04 143.567 1277.98 160.88 1260.67Z" fill="#F9F9F9"/>
<path d="M121.543 1217.9C123.874 1217.9 125.764 1219.02 127.211 1221.25C128.417 1223.1 129.02 1225.3 129.02 1227.85C129.02 1230.91 128.256 1233.36 126.728 1235.21C125.362 1236.88 123.633 1237.71 121.543 1237.71C119.111 1237.71 117.221 1236.65 115.875 1234.51C114.729 1232.73 114.156 1230.5 114.156 1227.85C114.156 1224.88 114.91 1222.43 116.417 1220.53C117.764 1218.78 119.472 1217.9 121.543 1217.9ZM121.603 1221.52C119.573 1221.52 118.558 1223.57 118.558 1227.67C118.558 1229.74 118.849 1231.37 119.432 1232.55C119.955 1233.62 120.648 1234.15 121.513 1234.15C122.477 1234.15 123.231 1233.58 123.774 1232.43C124.337 1231.29 124.618 1229.7 124.618 1227.67C124.618 1223.57 123.613 1221.52 121.603 1221.52ZM144.169 1219.83L142.721 1222.52C141.335 1221.85 140.118 1221.52 139.073 1221.52C138.109 1221.52 137.335 1221.89 136.752 1222.64C136.169 1223.38 135.877 1224.35 135.877 1225.56V1225.65C136.541 1225.13 137.516 1224.87 138.802 1224.87C140.671 1224.87 142.139 1225.38 143.204 1226.4C144.309 1227.49 144.862 1229.08 144.862 1231.17C144.862 1232.92 144.289 1234.42 143.143 1235.69C141.938 1237.04 140.299 1237.71 138.229 1237.71C133.787 1237.71 131.566 1234.71 131.566 1228.7C131.566 1221.5 134.028 1217.9 138.953 1217.9C139.897 1217.9 140.862 1218.08 141.847 1218.44C142.832 1218.81 143.606 1219.27 144.169 1219.83ZM135.877 1228.58C135.898 1230.56 136.018 1231.93 136.239 1232.68C136.581 1233.84 137.224 1234.42 138.169 1234.42C138.772 1234.42 139.294 1234.1 139.737 1233.46C140.199 1232.8 140.43 1232.03 140.43 1231.17C140.43 1228.96 139.556 1227.85 137.807 1227.85C137.063 1227.85 136.42 1228.09 135.877 1228.58Z" fill="#FCD97E"/>
<path d="M74.734 1335.02C70.9923 1335.02 69.1215 1333.4 69.1215 1330.16C69.1215 1328.67 69.5645 1327.45 70.4505 1326.5C71.4456 1325.44 72.853 1324.91 74.6727 1324.91C76.3152 1324.91 77.7738 1325.15 79.0483 1325.63V1332.84H81.0929V1335.02H74.734ZM76.3698 1327.46C75.8382 1327.21 75.1736 1327.08 74.3762 1327.08C73.6061 1327.08 72.9961 1327.35 72.5463 1327.88C72.1033 1328.4 71.8818 1329.07 71.8818 1329.9C71.8818 1331.86 72.9313 1332.84 75.0305 1332.84H76.3698V1327.46ZM76.1346 1323.59C75.7461 1323.59 75.419 1323.45 75.1532 1323.17C74.8874 1322.9 74.7545 1322.56 74.7545 1322.17C74.7545 1321.77 74.8874 1321.43 75.1532 1321.15C75.4258 1320.87 75.753 1320.73 76.1346 1320.73C76.5231 1320.73 76.8503 1320.87 77.1161 1321.15C77.3819 1321.43 77.5148 1321.76 77.5148 1322.17C77.5148 1322.55 77.3819 1322.89 77.1161 1323.17C76.8503 1323.45 76.5231 1323.59 76.1346 1323.59ZM72.6587 1323.59C72.2702 1323.59 71.9431 1323.45 71.6773 1323.17C71.4115 1322.9 71.2786 1322.56 71.2786 1322.17C71.2786 1321.77 71.4115 1321.43 71.6773 1321.15C71.9499 1320.87 72.2771 1320.73 72.6587 1320.73C73.054 1320.73 73.388 1320.87 73.6606 1321.15C73.9264 1321.43 74.0593 1321.76 74.0593 1322.17C74.0593 1322.55 73.9264 1322.89 73.6606 1323.17C73.388 1323.45 73.054 1323.59 72.6587 1323.59ZM80.7862 1335.02V1332.84H81.9823C82.4662 1332.84 82.8547 1332.89 83.1478 1332.98C82.3708 1332.42 81.9823 1331.42 81.9823 1329.99C81.9823 1328.57 82.4322 1327.39 83.3318 1326.45C84.3269 1325.42 85.69 1324.91 87.4211 1324.91C90.5767 1324.91 92.1545 1326.51 92.1545 1329.72V1335.02H80.7862ZM89.4555 1330.06C89.4555 1328.08 88.7092 1327.08 87.2166 1327.08C86.4465 1327.08 85.8331 1327.35 85.3765 1327.88C84.9403 1328.4 84.7222 1329.07 84.7222 1329.9C84.7222 1331.86 85.7683 1332.84 87.8607 1332.84H89.4555V1330.06ZM94.5672 1332.84H100.783C100.66 1329.74 99.0143 1327.79 95.8451 1326.98L96.5096 1324.67C98.7246 1325.26 100.391 1326.18 101.509 1327.43C102.688 1328.76 103.339 1330.56 103.461 1332.84H104.831V1335.02H94.5672V1332.84ZM104.525 1332.84H112.632C112.7 1332.28 112.734 1331.75 112.734 1331.24C112.734 1329.88 112.427 1328.88 111.814 1328.24C111.159 1327.56 110.096 1327.23 108.624 1327.23C107.847 1327.23 107.046 1327.28 106.222 1327.4V1325.24C107.203 1325.11 108.096 1325.05 108.9 1325.05C111.211 1325.05 112.894 1325.56 113.95 1326.59C114.966 1327.57 115.474 1329.09 115.474 1331.14C115.474 1331.73 115.446 1332.3 115.392 1332.84H117.028V1335.02H104.525V1332.84ZM109.483 1323.41C109.088 1323.41 108.75 1323.28 108.471 1323C108.185 1322.72 108.041 1322.38 108.041 1321.97C108.041 1321.58 108.185 1321.24 108.471 1320.95C108.75 1320.67 109.088 1320.53 109.483 1320.53C109.885 1320.53 110.226 1320.67 110.505 1320.95C110.791 1321.24 110.935 1321.58 110.935 1321.97C110.935 1322.37 110.791 1322.71 110.505 1322.99C110.226 1323.27 109.885 1323.41 109.483 1323.41ZM116.711 1332.84H119.307V1320.25H122.068V1335.02H116.711V1332.84ZM125.625 1320.25H128.386V1335.02H125.625V1320.25ZM145.326 1335.02C141.938 1335.02 140.095 1333.66 139.795 1330.96H139.335C138.728 1330.96 138.333 1331.16 138.149 1331.55C137.965 1331.95 137.951 1332.63 138.108 1333.62L139.192 1340.46H136.534L135.47 1333.82C135.225 1332.26 135.406 1331.05 136.012 1330.18C136.68 1329.25 137.818 1328.78 139.427 1328.78H139.928C140.18 1327.63 140.742 1326.71 141.615 1326.02C142.555 1325.28 143.744 1324.91 145.182 1324.91C148.338 1324.91 149.916 1326.51 149.916 1329.72V1332.84H151.695V1335.02H145.326ZM147.237 1330.06C147.237 1328.08 146.488 1327.08 144.988 1327.08C144.218 1327.08 143.608 1327.35 143.158 1327.88C142.722 1328.4 142.504 1329.07 142.504 1329.9C142.504 1331.86 143.55 1332.84 145.643 1332.84H147.237V1330.06ZM151.122 1332.84H153.719V1320.25H156.479V1332.84H158.575V1335.02H151.122V1332.84ZM158.258 1332.84H161.192V1325.17H163.952V1332.84H165.813V1335.02H158.258V1332.84ZM160.436 1323.59C160.047 1323.59 159.72 1323.45 159.454 1323.17C159.188 1322.9 159.055 1322.56 159.055 1322.17C159.055 1321.77 159.188 1321.43 159.454 1321.15C159.727 1320.87 160.054 1320.73 160.436 1320.73C160.831 1320.73 161.165 1320.87 161.437 1321.15C161.703 1321.43 161.836 1321.76 161.836 1322.17C161.836 1322.55 161.703 1322.89 161.437 1323.17C161.165 1323.45 160.831 1323.59 160.436 1323.59ZM163.911 1323.59C163.523 1323.59 163.196 1323.45 162.93 1323.17C162.664 1322.9 162.531 1322.56 162.531 1322.17C162.531 1321.77 162.664 1321.43 162.93 1321.15C163.203 1320.87 163.53 1320.73 163.911 1320.73C164.3 1320.73 164.627 1320.87 164.893 1321.15C165.159 1321.43 165.292 1321.76 165.292 1322.17C165.292 1322.55 165.159 1322.89 164.893 1323.17C164.62 1323.45 164.293 1323.59 163.911 1323.59ZM165.496 1332.84H166.539C167.234 1332.84 167.718 1332.66 167.991 1332.31C168.284 1331.93 168.43 1331.24 168.43 1330.24V1326.43H171.19V1330.3C171.19 1331.31 171.276 1332 171.446 1332.36C171.644 1332.79 172.039 1333 172.632 1333C173.75 1333 174.309 1332.11 174.309 1330.32V1325.59H176.967V1330.85C176.967 1331.66 177.137 1332.2 177.478 1332.46C177.805 1332.71 178.459 1332.84 179.441 1332.84H179.982C180.085 1332.06 180.136 1331.22 180.136 1330.32C180.136 1328.4 179.931 1326.52 179.522 1324.71L182.221 1324.34C182.671 1326.22 182.896 1328.15 182.896 1330.14C182.896 1331.91 182.79 1333.53 182.579 1335.02H179.124C177.985 1335.02 177.14 1334.92 176.588 1334.73C175.995 1334.52 175.549 1334.13 175.249 1333.58C174.752 1334.65 173.699 1335.18 172.09 1335.18C170.597 1335.18 169.671 1334.64 169.309 1333.55C168.88 1334.53 167.95 1335.02 166.518 1335.02H165.496V1332.84ZM186.127 1320.25H188.887V1335.02H186.127V1320.25Z" fill="#363636"/>
<defs>
<filter id="filter0_d_106_825" x="0.280858" y="39.8535" width="260.079" height="32.2322" filterUnits="userSpaceOnUse" color-interpolation-filters="sRGB">
<feFlood flood-opacity="0" result="BackgroundImageFix"/>
<feColorMatrix in="SourceAlpha" type="matrix" values="0 0 0 0 0 0 0 0 0 0 0 0 0 0 0 0 0 0 127 0" result="hardAlpha"/>
<feOffset dy="-5.55727"/>
<feGaussianBlur stdDeviation="7.85957"/>
<feComposite in2="hardAlpha" operator="out"/>
<feColorMatrix type="matrix" values="0 0 0 0 0 0 0 0 0 0 0 0 0 0 0 0 0 0 0.88 0"/>
<feBlend mode="normal" in2="BackgroundImageFix" result="effect1_dropShadow_106_825"/>
<feBlend mode="normal" in="SourceGraphic" in2="effect1_dropShadow_106_825" result="shape"/>
</filter>
<filter id="filter1_d_106_825" x="82.8398" y="16.0283" width="140.712" height="136.749" filterUnits="userSpaceOnUse" color-interpolation-filters="sRGB">
<feFlood flood-opacity="0" result="BackgroundImageFix"/>
<feColorMatrix in="SourceAlpha" type="matrix" values="0 0 0 0 0 0 0 0 0 0 0 0 0 0 0 0 0 0 127 0" result="hardAlpha"/>
<feOffset dx="27.7864" dy="23.8169"/>
<feGaussianBlur stdDeviation="9.9237"/>
<feComposite in2="hardAlpha" operator="out"/>
<feColorMatrix type="matrix" values="0 0 0 0 0 0 0 0 0 0 0 0 0 0 0 0 0 0 0.1 0"/>
<feBlend mode="normal" in2="BackgroundImageFix" result="effect1_dropShadow_106_825"/>
<feBlend mode="normal" in="SourceGraphic" in2="effect1_dropShadow_106_825" result="shape"/>
</filter>
<filter id="filter2_d_106_825" x="0.280858" y="279.828" width="260.079" height="32.2322" filterUnits="userSpaceOnUse" color-interpolation-filters="sRGB">
<feFlood flood-opacity="0" result="BackgroundImageFix"/>
<feColorMatrix in="SourceAlpha" type="matrix" values="0 0 0 0 0 0 0 0 0 0 0 0 0 0 0 0 0 0 127 0" result="hardAlpha"/>
<feOffset dy="-5.55727"/>
<feGaussianBlur stdDeviation="7.85957"/>
<feComposite in2="hardAlpha" operator="out"/>
<feColorMatrix type="matrix" values="0 0 0 0 0 0 0 0 0 0 0 0 0 0 0 0 0 0 0.88 0"/>
<feBlend mode="normal" in2="BackgroundImageFix" result="effect1_dropShadow_106_825"/>
<feBlend mode="normal" in="SourceGraphic" in2="effect1_dropShadow_106_825" result="shape"/>
</filter>
<filter id="filter3_d_106_825" x="82.8359" y="256.003" width="140.712" height="136.749" filterUnits="userSpaceOnUse" color-interpolation-filters="sRGB">
<feFlood flood-opacity="0" result="BackgroundImageFix"/>
<feColorMatrix in="SourceAlpha" type="matrix" values="0 0 0 0 0 0 0 0 0 0 0 0 0 0 0 0 0 0 127 0" result="hardAlpha"/>
<feOffset dx="27.7864" dy="23.8169"/>
<feGaussianBlur stdDeviation="9.9237"/>
<feComposite in2="hardAlpha" operator="out"/>
<feColorMatrix type="matrix" values="0 0 0 0 0 0 0 0 0 0 0 0 0 0 0 0 0 0 0.1 0"/>
<feBlend mode="normal" in2="BackgroundImageFix" result="effect1_dropShadow_106_825"/>
<feBlend mode="normal" in="SourceGraphic" in2="effect1_dropShadow_106_825" result="shape"/>
</filter>
<filter id="filter4_d_106_825" x="0.280858" y="519.803" width="260.079" height="32.2322" filterUnits="userSpaceOnUse" color-interpolation-filters="sRGB">
<feFlood flood-opacity="0" result="BackgroundImageFix"/>
<feColorMatrix in="SourceAlpha" type="matrix" values="0 0 0 0 0 0 0 0 0 0 0 0 0 0 0 0 0 0 127 0" result="hardAlpha"/>
<feOffset dy="-5.55727"/>
<feGaussianBlur stdDeviation="7.85957"/>
<feComposite in2="hardAlpha" operator="out"/>
<feColorMatrix type="matrix" values="0 0 0 0 0 0 0 0 0 0 0 0 0 0 0 0 0 0 0.88 0"/>
<feBlend mode="normal" in2="BackgroundImageFix" result="effect1_dropShadow_106_825"/>
<feBlend mode="normal" in="SourceGraphic" in2="effect1_dropShadow_106_825" result="shape"/>
</filter>
<filter id="filter5_d_106_825" x="82.8398" y="495.978" width="140.712" height="136.749" filterUnits="userSpaceOnUse" color-interpolation-filters="sRGB">
<feFlood flood-opacity="0" result="BackgroundImageFix"/>
<feColorMatrix in="SourceAlpha" type="matrix" values="0 0 0 0 0 0 0 0 0 0 0 0 0 0 0 0 0 0 127 0" result="hardAlpha"/>
<feOffset dx="27.7864" dy="23.8169"/>
<feGaussianBlur stdDeviation="9.9237"/>
<feComposite in2="hardAlpha" operator="out"/>
<feColorMatrix type="matrix" values="0 0 0 0 0 0 0 0 0 0 0 0 0 0 0 0 0 0 0.1 0"/>
<feBlend mode="normal" in2="BackgroundImageFix" result="effect1_dropShadow_106_825"/>
<feBlend mode="normal" in="SourceGraphic" in2="effect1_dropShadow_106_825" result="shape"/>
</filter>
<filter id="filter6_d_106_825" x="0.280858" y="748.777" width="260.079" height="32.2322" filterUnits="userSpaceOnUse" color-interpolation-filters="sRGB">
<feFlood flood-opacity="0" result="BackgroundImageFix"/>
<feColorMatrix in="SourceAlpha" type="matrix" values="0 0 0 0 0 0 0 0 0 0 0 0 0 0 0 0 0 0 127 0" result="hardAlpha"/>
<feOffset dy="-5.55727"/>
<feGaussianBlur stdDeviation="7.85957"/>
<feComposite in2="hardAlpha" operator="out"/>
<feColorMatrix type="matrix" values="0 0 0 0 0 0 0 0 0 0 0 0 0 0 0 0 0 0 0.88 0"/>
<feBlend mode="normal" in2="BackgroundImageFix" result="effect1_dropShadow_106_825"/>
<feBlend mode="normal" in="SourceGraphic" in2="effect1_dropShadow_106_825" result="shape"/>
</filter>
<filter id="filter7_d_106_825" x="82.8398" y="724.952" width="140.712" height="136.749" filterUnits="userSpaceOnUse" color-interpolation-filters="sRGB">
<feFlood flood-opacity="0" result="BackgroundImageFix"/>
<feColorMatrix in="SourceAlpha" type="matrix" values="0 0 0 0 0 0 0 0 0 0 0 0 0 0 0 0 0 0 127 0" result="hardAlpha"/>
<feOffset dx="27.7864" dy="23.8169"/>
<feGaussianBlur stdDeviation="9.9237"/>
<feComposite in2="hardAlpha" operator="out"/>
<feColorMatrix type="matrix" values="0 0 0 0 0 0 0 0 0 0 0 0 0 0 0 0 0 0 0.1 0"/>
<feBlend mode="normal" in2="BackgroundImageFix" result="effect1_dropShadow_106_825"/>
<feBlend mode="normal" in="SourceGraphic" in2="effect1_dropShadow_106_825" result="shape"/>
</filter>
<filter id="filter8_d_106_825" x="0.280858" y="977.752" width="260.079" height="32.2322" filterUnits="userSpaceOnUse" color-interpolation-filters="sRGB">
<feFlood flood-opacity="0" result="BackgroundImageFix"/>
<feColorMatrix in="SourceAlpha" type="matrix" values="0 0 0 0 0 0 0 0 0 0 0 0 0 0 0 0 0 0 127 0" result="hardAlpha"/>
<feOffset dy="-5.55727"/>
<feGaussianBlur stdDeviation="7.85957"/>
<feComposite in2="hardAlpha" operator="out"/>
<feColorMatrix type="matrix" values="0 0 0 0 0 0 0 0 0 0 0 0 0 0 0 0 0 0 0.88 0"/>
<feBlend mode="normal" in2="BackgroundImageFix" result="effect1_dropShadow_106_825"/>
<feBlend mode="normal" in="SourceGraphic" in2="effect1_dropShadow_106_825" result="shape"/>
</filter>
<filter id="filter9_d_106_825" x="82.8359" y="953.927" width="140.712" height="136.749" filterUnits="userSpaceOnUse" color-interpolation-filters="sRGB">
<feFlood flood-opacity="0" result="BackgroundImageFix"/>
<feColorMatrix in="SourceAlpha" type="matrix" values="0 0 0 0 0 0 0 0 0 0 0 0 0 0 0 0 0 0 127 0" result="hardAlpha"/>
<feOffset dx="27.7864" dy="23.8169"/>
<feGaussianBlur stdDeviation="9.9237"/>
<feComposite in2="hardAlpha" operator="out"/>
<feColorMatrix type="matrix" values="0 0 0 0 0 0 0 0 0 0 0 0 0 0 0 0 0 0 0.1 0"/>
<feBlend mode="normal" in2="BackgroundImageFix" result="effect1_dropShadow_106_825"/>
<feBlend mode="normal" in="SourceGraphic" in2="effect1_dropShadow_106_825" result="shape"/>
</filter>
<filter id="filter10_d_106_825" x="0.280858" y="1206.73" width="260.079" height="32.2322" filterUnits="userSpaceOnUse" color-interpolation-filters="sRGB">
<feFlood flood-opacity="0" result="BackgroundImageFix"/>
<feColorMatrix in="SourceAlpha" type="matrix" values="0 0 0 0 0 0 0 0 0 0 0 0 0 0 0 0 0 0 127 0" result="hardAlpha"/>
<feOffset dy="-5.55727"/>
<feGaussianBlur stdDeviation="7.85957"/>
<feComposite in2="hardAlpha" operator="out"/>
<feColorMatrix type="matrix" values="0 0 0 0 0 0 0 0 0 0 0 0 0 0 0 0 0 0 0.88 0"/>
<feBlend mode="normal" in2="BackgroundImageFix" result="effect1_dropShadow_106_825"/>
<feBlend mode="normal" in="SourceGraphic" in2="effect1_dropShadow_106_825" result="shape"/>
</filter>
<filter id="filter11_d_106_825" x="82.8398" y="1182.9" width="140.712" height="136.749" filterUnits="userSpaceOnUse" color-interpolation-filters="sRGB">
<feFlood flood-opacity="0" result="BackgroundImageFix"/>
<feColorMatrix in="SourceAlpha" type="matrix" values="0 0 0 0 0 0 0 0 0 0 0 0 0 0 0 0 0 0 127 0" result="hardAlpha"/>
<feOffset dx="27.7864" dy="23.8169"/>
<feGaussianBlur stdDeviation="9.9237"/>
<feComposite in2="hardAlpha" operator="out"/>
<feColorMatrix type="matrix" values="0 0 0 0 0 0 0 0 0 0 0 0 0 0 0 0 0 0 0.1 0"/>
<feBlend mode="normal" in2="BackgroundImageFix" result="effect1_dropShadow_106_825"/>
<feBlend mode="normal" in="SourceGraphic" in2="effect1_dropShadow_106_825" result="shape"/>
</filter>
<linearGradient id="paint0_linear_106_825" x1="162.239" y1="95.4367" x2="96.5147" y2="29.7092" gradientUnits="userSpaceOnUse">
<stop stop-color="#EBEAEA"/>
<stop offset="1" stop-color="white"/>
</linearGradient>
<linearGradient id="paint1_linear_106_825" x1="162.235" y1="335.411" x2="96.5107" y2="269.684" gradientUnits="userSpaceOnUse">
<stop stop-color="#EBEAEA"/>
<stop offset="1" stop-color="white"/>
</linearGradient>
<linearGradient id="paint2_linear_106_825" x1="162.239" y1="575.386" x2="96.5147" y2="509.658" gradientUnits="userSpaceOnUse">
<stop stop-color="#EBEAEA"/>
<stop offset="1" stop-color="white"/>
</linearGradient>
<linearGradient id="paint3_linear_106_825" x1="162.239" y1="804.36" x2="96.5147" y2="738.633" gradientUnits="userSpaceOnUse">
<stop stop-color="#EBEAEA"/>
<stop offset="1" stop-color="white"/>
</linearGradient>
<linearGradient id="paint4_linear_106_825" x1="162.235" y1="1033.34" x2="96.5107" y2="967.608" gradientUnits="userSpaceOnUse">
<stop stop-color="#EBEAEA"/>
<stop offset="1" stop-color="white"/>
</linearGradient>
<linearGradient id="paint5_linear_106_825" x1="162.239" y1="1262.31" x2="96.5147" y2="1196.58" gradientUnits="userSpaceOnUse">
<stop stop-color="#EBEAEA"/>
<stop offset="1" stop-color="white"/>
</linearGradient>
</defs>
</svg>
