<svg width="261" height="154" viewBox="0 0 261 154" fill="none" xmlns="http://www.w3.org/2000/svg">
<g filter="url(#filter0_d_224_7046)">
<line x1="15.9395" y1="61.7903" x2="244.582" y2="61.7903" stroke="white" stroke-width="0.793896"/>
</g>
<rect x="15.9395" y="62.1873" width="228.642" height="36.5192" fill="white"/>
<path d="M181.11 62.8377H178.574C178.574 35.6876 156.484 13.6009 129.337 13.6009C102.19 13.6009 80.0822 35.6847 80.0822 62.8377H77.5312C77.5312 34.2797 100.764 11.0439 129.325 11.0439C157.886 11.0439 181.11 34.2797 181.11 62.8377Z" fill="#E2A52F"/>
<g filter="url(#filter1_d_224_7046)">
<path d="M82.7943 64.0106C83.0954 75.9496 87.9748 87.3158 96.4226 95.7575C104.87 104.199 116.24 109.07 128.179 109.363C154.582 109.997 176.374 88.2971 175.847 61.8913C175.677 53.4178 173.196 45.1518 168.672 37.9851C164.148 30.8183 157.753 25.023 150.177 21.2243C146.949 19.5976 143.541 18.3567 140.023 17.5273C136.824 16.7756 133.555 16.3645 130.269 16.3009C103.839 15.78 82.1275 37.5869 82.7943 64.0106Z" fill="url(#paint0_linear_224_7046)"/>
</g>
<path d="M161.66 94.0579C178.973 76.7443 179.03 48.7299 161.786 31.4861C144.542 14.2422 116.528 14.2988 99.2143 31.6124C81.9007 48.926 81.8441 76.9403 99.088 94.1842C116.332 111.428 144.346 111.371 161.66 94.0579Z" fill="#F9F9F9"/>
<path d="M121.53 51.2925C123.861 51.2925 125.75 52.4081 127.198 54.6391C128.404 56.4883 129.007 58.6892 129.007 61.2419C129.007 64.2971 128.243 66.7492 126.715 68.5984C125.348 70.2667 123.62 71.1008 121.53 71.1008C119.097 71.1008 117.208 70.0355 115.861 67.905C114.716 66.1161 114.143 63.8951 114.143 61.2419C114.143 58.2671 114.897 55.825 116.404 53.9155C117.751 52.1669 119.459 51.2925 121.53 51.2925ZM121.59 54.9105C119.56 54.9105 118.545 56.9607 118.545 61.061C118.545 63.1313 118.836 64.7593 119.419 65.9452C119.942 67.0105 120.635 67.5432 121.499 67.5432C122.464 67.5432 123.218 66.9703 123.761 65.8246C124.323 64.6789 124.605 63.0911 124.605 61.061C124.605 56.9607 123.6 54.9105 121.59 54.9105ZM133.784 62.3273V58.8902H136.739H136.98C137.683 58.8902 138.166 58.7495 138.427 58.4681C138.708 58.1867 138.849 57.6742 138.849 56.9305C138.849 56.2873 138.668 55.7748 138.306 55.3929C137.945 55.011 137.462 54.82 136.859 54.82C135.613 54.82 134.337 55.4029 133.03 56.5687L131.493 53.8251C133.181 52.1367 135.1 51.2925 137.251 51.2925C139.02 51.2925 140.477 51.795 141.623 52.8C142.728 53.7447 143.281 55.0009 143.281 56.5687C143.281 57.5737 143.12 58.3475 142.799 58.8902C142.477 59.4329 141.904 59.8952 141.08 60.2771C143.01 61.0811 143.974 62.5685 143.974 64.7392C143.974 67.1512 143.16 68.8898 141.532 69.9551C140.407 70.6988 138.99 71.0707 137.281 71.0707C136.357 71.0707 135.281 70.8094 134.055 70.2868C132.829 69.7642 131.854 69.1511 131.131 68.4476L132.849 65.8849C133.894 66.8899 135.281 67.3924 137.01 67.3924C137.794 67.3924 138.417 67.1613 138.879 66.699C139.342 66.2367 139.573 65.6136 139.573 64.8297C139.573 63.1614 138.628 62.3273 136.739 62.3273H133.784Z" fill="#E2A52F"/>
<defs>
<filter id="filter0_d_224_7046" x="0.220311" y="40.1169" width="260.081" height="32.2322" filterUnits="userSpaceOnUse" color-interpolation-filters="sRGB">
<feFlood flood-opacity="0" result="BackgroundImageFix"/>
<feColorMatrix in="SourceAlpha" type="matrix" values="0 0 0 0 0 0 0 0 0 0 0 0 0 0 0 0 0 0 127 0" result="hardAlpha"/>
<feOffset dy="-5.55727"/>
<feGaussianBlur stdDeviation="7.85957"/>
<feComposite in2="hardAlpha" operator="out"/>
<feColorMatrix type="matrix" values="0 0 0 0 0 0 0 0 0 0 0 0 0 0 0 0 0 0 0.88 0"/>
<feBlend mode="normal" in2="BackgroundImageFix" result="effect1_dropShadow_224_7046"/>
<feBlend mode="normal" in="SourceGraphic" in2="effect1_dropShadow_224_7046" result="shape"/>
</filter>
<filter id="filter1_d_224_7046" x="82.7793" y="16.2917" width="140.712" height="136.749" filterUnits="userSpaceOnUse" color-interpolation-filters="sRGB">
<feFlood flood-opacity="0" result="BackgroundImageFix"/>
<feColorMatrix in="SourceAlpha" type="matrix" values="0 0 0 0 0 0 0 0 0 0 0 0 0 0 0 0 0 0 127 0" result="hardAlpha"/>
<feOffset dx="27.7864" dy="23.8169"/>
<feGaussianBlur stdDeviation="9.9237"/>
<feComposite in2="hardAlpha" operator="out"/>
<feColorMatrix type="matrix" values="0 0 0 0 0 0 0 0 0 0 0 0 0 0 0 0 0 0 0.1 0"/>
<feBlend mode="normal" in2="BackgroundImageFix" result="effect1_dropShadow_224_7046"/>
<feBlend mode="normal" in="SourceGraphic" in2="effect1_dropShadow_224_7046" result="shape"/>
</filter>
<linearGradient id="paint0_linear_224_7046" x1="162.179" y1="95.7001" x2="96.4541" y2="29.9727" gradientUnits="userSpaceOnUse">
<stop stop-color="#EBEAEA"/>
<stop offset="1" stop-color="white"/>
</linearGradient>
</defs>
</svg>
