<svg width="261" height="154" viewBox="0 0 261 154" fill="none" xmlns="http://www.w3.org/2000/svg">
<g filter="url(#filter0_d_224_7029)">
<line x1="16" y1="61.7906" x2="244.642" y2="61.7906" stroke="white" stroke-width="0.793896"/>
</g>
<rect x="16" y="62.1875" width="228.642" height="36.5192" fill="white"/>
<path d="M181.168 62.8379H178.632C178.632 35.6879 156.543 13.6011 129.395 13.6011C102.248 13.6011 80.1408 35.6849 80.1408 62.8379H77.5898C77.5898 34.2799 100.823 11.0442 129.384 11.0442C157.945 11.0442 181.168 34.2799 181.168 62.8379Z" fill="#0F898C"/>
<g filter="url(#filter1_d_224_7029)">
<path d="M82.8548 64.0109C83.156 75.9498 88.0353 87.316 96.4831 95.7578C104.931 104.199 116.301 109.071 128.24 109.363C154.643 109.997 176.435 88.2974 175.908 61.8915C175.737 53.4181 173.256 45.1521 168.732 37.9853C164.208 30.8186 157.813 25.0232 150.237 21.2245C147.01 19.5979 143.602 18.357 140.084 17.5275C136.885 16.7758 133.615 16.3647 130.329 16.3011C103.9 15.7802 82.188 37.5872 82.8548 64.0109Z" fill="url(#paint0_linear_224_7029)"/>
</g>
<path d="M160.88 94.0581C178.194 76.7445 178.251 48.7302 161.007 31.4863C143.763 14.2425 115.749 14.299 98.435 31.6126C81.1214 48.9262 81.0648 76.9406 98.3087 94.1844C115.553 111.428 143.567 111.372 160.88 94.0581Z" fill="#F9F9F9"/>
<path d="M125.429 51.2928C127.761 51.2928 129.65 52.4083 131.097 54.6394C132.303 56.4886 132.906 58.6895 132.906 61.2421C132.906 64.2973 132.143 66.7495 130.615 68.5986C129.248 70.2669 127.52 71.1011 125.429 71.1011C122.997 71.1011 121.108 70.0358 119.761 67.9052C118.615 66.1163 118.043 63.8953 118.043 61.2421C118.043 58.2674 118.796 55.8253 120.304 53.9158C121.65 52.1671 123.359 51.2928 125.429 51.2928ZM125.489 54.9107C123.459 54.9107 122.444 56.9609 122.444 61.0612C122.444 63.1315 122.736 64.7596 123.319 65.9455C123.841 67.0108 124.535 67.5434 125.399 67.5434C126.364 67.5434 127.118 66.9706 127.66 65.8249C128.223 64.6792 128.504 63.0913 128.504 61.0612C128.504 56.9609 127.499 54.9107 125.489 54.9107ZM143.502 51.6546V70.7393H139.251V56.5087C138.99 56.6895 138.598 56.9307 138.076 57.2322C137.352 57.6543 136.819 57.996 136.478 58.2573C136.216 57.795 135.784 57.0614 135.181 56.0564L135.061 55.8755C134.88 55.574 134.699 55.2725 134.518 54.971C135.201 54.4484 136.226 53.7248 137.593 52.8003L137.925 52.5892C138.488 52.1872 138.93 51.8757 139.251 51.6546H143.502Z" fill="#0F898C"/>
<defs>
<filter id="filter0_d_224_7029" x="0.280858" y="40.1171" width="260.081" height="32.2322" filterUnits="userSpaceOnUse" color-interpolation-filters="sRGB">
<feFlood flood-opacity="0" result="BackgroundImageFix"/>
<feColorMatrix in="SourceAlpha" type="matrix" values="0 0 0 0 0 0 0 0 0 0 0 0 0 0 0 0 0 0 127 0" result="hardAlpha"/>
<feOffset dy="-5.55727"/>
<feGaussianBlur stdDeviation="7.85957"/>
<feComposite in2="hardAlpha" operator="out"/>
<feColorMatrix type="matrix" values="0 0 0 0 0 0 0 0 0 0 0 0 0 0 0 0 0 0 0.88 0"/>
<feBlend mode="normal" in2="BackgroundImageFix" result="effect1_dropShadow_224_7029"/>
<feBlend mode="normal" in="SourceGraphic" in2="effect1_dropShadow_224_7029" result="shape"/>
</filter>
<filter id="filter1_d_224_7029" x="82.8398" y="16.292" width="140.712" height="136.749" filterUnits="userSpaceOnUse" color-interpolation-filters="sRGB">
<feFlood flood-opacity="0" result="BackgroundImageFix"/>
<feColorMatrix in="SourceAlpha" type="matrix" values="0 0 0 0 0 0 0 0 0 0 0 0 0 0 0 0 0 0 127 0" result="hardAlpha"/>
<feOffset dx="27.7864" dy="23.8169"/>
<feGaussianBlur stdDeviation="9.9237"/>
<feComposite in2="hardAlpha" operator="out"/>
<feColorMatrix type="matrix" values="0 0 0 0 0 0 0 0 0 0 0 0 0 0 0 0 0 0 0.1 0"/>
<feBlend mode="normal" in2="BackgroundImageFix" result="effect1_dropShadow_224_7029"/>
<feBlend mode="normal" in="SourceGraphic" in2="effect1_dropShadow_224_7029" result="shape"/>
</filter>
<linearGradient id="paint0_linear_224_7029" x1="162.239" y1="95.7003" x2="96.5147" y2="29.9729" gradientUnits="userSpaceOnUse">
<stop stop-color="#EBEAEA"/>
<stop offset="1" stop-color="white"/>
</linearGradient>
</defs>
</svg>
