<svg width="261" height="154" viewBox="0 0 261 154" fill="none" xmlns="http://www.w3.org/2000/svg">
<g filter="url(#filter0_d_224_7019)">
<line x1="16.3594" y1="61.7903" x2="245.001" y2="61.7903" stroke="white" stroke-width="0.793896"/>
</g>
<rect x="16.3594" y="62.1873" width="228.642" height="36.5192" fill="white"/>
<path d="M181.526 62.8374H178.99C178.99 35.6874 156.9 13.6006 129.753 13.6006C102.606 13.6006 80.4983 35.6844 80.4983 62.8374H77.9473C77.9473 34.2794 101.18 11.0437 129.741 11.0437C158.302 11.0437 181.526 34.2794 181.526 62.8374Z" fill="#FCDD8D"/>
<g filter="url(#filter1_d_224_7019)">
<path d="M83.2142 64.0104C83.5154 75.9493 88.3947 87.3156 96.8425 95.7573C105.29 104.199 116.66 109.07 128.599 109.363C155.002 109.997 176.794 88.2969 176.267 61.891C176.097 53.4176 173.616 45.1516 169.092 37.9848C164.568 30.8181 158.173 25.0227 150.597 21.224C147.369 19.5974 143.961 18.3565 140.443 17.527C137.244 16.7753 133.974 16.3642 130.689 16.3006C104.259 15.7797 82.5474 37.5867 83.2142 64.0104Z" fill="url(#paint0_linear_224_7019)"/>
</g>
<path d="M160.963 94.0579C178.276 76.7443 178.333 48.7299 161.089 31.4861C143.845 14.2422 115.831 14.2988 98.517 31.6124C81.2034 48.926 81.1469 76.9403 98.3907 94.1842C115.635 111.428 143.649 111.371 160.963 94.0579Z" fill="#F9F9F9"/>
<path d="M118.738 51.2925C121.07 51.2925 122.959 52.4081 124.406 54.6391C125.612 56.4883 126.215 58.6892 126.215 61.2419C126.215 64.2971 125.451 66.7492 123.924 68.5984C122.557 70.2667 120.828 71.1008 118.738 71.1008C116.306 71.1008 114.417 70.0355 113.07 67.905C111.924 66.1161 111.351 63.8951 111.351 61.2419C111.351 58.2671 112.105 55.825 113.613 53.9155C114.959 52.1669 116.668 51.2925 118.738 51.2925ZM118.798 54.9105C116.768 54.9105 115.753 56.9607 115.753 61.061C115.753 63.1313 116.045 64.7593 116.628 65.9452C117.15 67.0105 117.844 67.5432 118.708 67.5432C119.673 67.5432 120.426 66.9703 120.969 65.8246C121.532 64.6789 121.813 63.0911 121.813 61.061C121.813 56.9607 120.808 54.9105 118.798 54.9105ZM141.364 53.2221L139.917 55.9054C138.53 55.2421 137.314 54.9105 136.269 54.9105C135.304 54.9105 134.53 55.2823 133.947 56.026C133.364 56.7697 133.073 57.7445 133.073 58.9505V59.041C133.736 58.5184 134.711 58.2571 135.997 58.2571C137.867 58.2571 139.334 58.7696 140.399 59.7947C141.505 60.8801 142.057 62.468 142.057 64.5583C142.057 66.307 141.484 67.8145 140.339 69.0808C139.133 70.4275 137.495 71.1008 135.424 71.1008C130.982 71.1008 128.761 68.0959 128.761 62.0861C128.761 54.8904 131.224 51.2925 136.148 51.2925C137.093 51.2925 138.057 51.4734 139.042 51.8352C140.027 52.197 140.801 52.6593 141.364 53.2221ZM133.073 61.9655C133.093 63.9554 133.213 65.3221 133.435 66.0658C133.776 67.2316 134.419 67.8145 135.364 67.8145C135.967 67.8145 136.49 67.4929 136.932 66.8497C137.394 66.1864 137.625 65.4226 137.625 64.5583C137.625 62.3474 136.751 61.2419 135.002 61.2419C134.259 61.2419 133.615 61.4831 133.073 61.9655Z" fill="#FCDD8D"/>
<defs>
<filter id="filter0_d_224_7019" x="0.640233" y="40.1169" width="260.081" height="32.2322" filterUnits="userSpaceOnUse" color-interpolation-filters="sRGB">
<feFlood flood-opacity="0" result="BackgroundImageFix"/>
<feColorMatrix in="SourceAlpha" type="matrix" values="0 0 0 0 0 0 0 0 0 0 0 0 0 0 0 0 0 0 127 0" result="hardAlpha"/>
<feOffset dy="-5.55727"/>
<feGaussianBlur stdDeviation="7.85957"/>
<feComposite in2="hardAlpha" operator="out"/>
<feColorMatrix type="matrix" values="0 0 0 0 0 0 0 0 0 0 0 0 0 0 0 0 0 0 0.88 0"/>
<feBlend mode="normal" in2="BackgroundImageFix" result="effect1_dropShadow_224_7019"/>
<feBlend mode="normal" in="SourceGraphic" in2="effect1_dropShadow_224_7019" result="shape"/>
</filter>
<filter id="filter1_d_224_7019" x="83.1992" y="16.2915" width="140.712" height="136.749" filterUnits="userSpaceOnUse" color-interpolation-filters="sRGB">
<feFlood flood-opacity="0" result="BackgroundImageFix"/>
<feColorMatrix in="SourceAlpha" type="matrix" values="0 0 0 0 0 0 0 0 0 0 0 0 0 0 0 0 0 0 127 0" result="hardAlpha"/>
<feOffset dx="27.7864" dy="23.8169"/>
<feGaussianBlur stdDeviation="9.9237"/>
<feComposite in2="hardAlpha" operator="out"/>
<feColorMatrix type="matrix" values="0 0 0 0 0 0 0 0 0 0 0 0 0 0 0 0 0 0 0.1 0"/>
<feBlend mode="normal" in2="BackgroundImageFix" result="effect1_dropShadow_224_7019"/>
<feBlend mode="normal" in="SourceGraphic" in2="effect1_dropShadow_224_7019" result="shape"/>
</filter>
<linearGradient id="paint0_linear_224_7019" x1="162.598" y1="95.6998" x2="96.874" y2="29.9724" gradientUnits="userSpaceOnUse">
<stop stop-color="#EBEAEA"/>
<stop offset="1" stop-color="white"/>
</linearGradient>
</defs>
</svg>
