<svg width="1408" height="232" viewBox="0 0 1408 232" fill="none" xmlns="http://www.w3.org/2000/svg">
<g filter="url(#filter0_d_224_7018)">
<line x1="1163.36" y1="61.7903" x2="1392" y2="61.7903" stroke="white" stroke-width="0.793896"/>
</g>
<rect x="1163.36" y="62.1873" width="228.642" height="36.5192" fill="white"/>
<path d="M1328.53 62.8374H1325.99C1325.99 35.6874 1303.9 13.6006 1276.75 13.6006C1249.61 13.6006 1227.5 35.6844 1227.5 62.8374H1224.95C1224.95 34.2794 1248.18 11.0437 1276.74 11.0437C1305.3 11.0437 1328.53 34.2794 1328.53 62.8374Z" fill="#FCDD8D"/>
<g filter="url(#filter1_d_224_7018)">
<path d="M1230.21 64.0104C1230.52 75.9493 1235.39 87.3156 1243.84 95.7573C1252.29 104.199 1263.66 109.07 1275.6 109.363C1302 109.997 1323.79 88.2969 1323.27 61.891C1323.1 53.4176 1320.62 45.1516 1316.09 37.9848C1311.57 30.8181 1305.17 25.0227 1297.6 21.224C1294.37 19.5974 1290.96 18.3565 1287.44 17.527C1284.24 16.7753 1280.97 16.3642 1277.69 16.3006C1251.26 15.7797 1229.55 37.5867 1230.21 64.0104Z" fill="url(#paint0_linear_224_7018)"/>
</g>
<path d="M1307.96 94.0579C1325.28 76.7443 1325.33 48.7299 1308.09 31.4861C1290.84 14.2422 1262.83 14.2988 1245.52 31.6124C1228.2 48.926 1228.15 76.9403 1245.39 94.1842C1262.63 111.428 1290.65 111.371 1307.96 94.0579Z" fill="#F9F9F9"/>
<path d="M1265.74 51.2925C1268.07 51.2925 1269.96 52.4081 1271.41 54.6391C1272.61 56.4883 1273.22 58.6892 1273.22 61.2419C1273.22 64.2971 1272.45 66.7492 1270.92 68.5984C1269.56 70.2667 1267.83 71.1008 1265.74 71.1008C1263.31 71.1008 1261.42 70.0355 1260.07 67.905C1258.92 66.1161 1258.35 63.8951 1258.35 61.2419C1258.35 58.2671 1259.11 55.825 1260.61 53.9155C1261.96 52.1669 1263.67 51.2925 1265.74 51.2925ZM1265.8 54.9105C1263.77 54.9105 1262.75 56.9607 1262.75 61.061C1262.75 63.1313 1263.04 64.7593 1263.63 65.9452C1264.15 67.0105 1264.84 67.5432 1265.71 67.5432C1266.67 67.5432 1267.43 66.9703 1267.97 65.8246C1268.53 64.6789 1268.81 63.0911 1268.81 61.061C1268.81 56.9607 1267.81 54.9105 1265.8 54.9105ZM1288.36 53.2221L1286.92 55.9054C1285.53 55.2421 1284.31 54.9105 1283.27 54.9105C1282.3 54.9105 1281.53 55.2823 1280.95 56.026C1280.36 56.7697 1280.07 57.7445 1280.07 58.9505V59.041C1280.74 58.5184 1281.71 58.2571 1283 58.2571C1284.87 58.2571 1286.33 58.7696 1287.4 59.7947C1288.5 60.8801 1289.06 62.468 1289.06 64.5583C1289.06 66.307 1288.48 67.8145 1287.34 69.0808C1286.13 70.4275 1284.49 71.1008 1282.42 71.1008C1277.98 71.1008 1275.76 68.0959 1275.76 62.0861C1275.76 54.8904 1278.22 51.2925 1283.15 51.2925C1284.09 51.2925 1285.06 51.4734 1286.04 51.8352C1287.03 52.197 1287.8 52.6593 1288.36 53.2221ZM1280.07 61.9655C1280.09 63.9554 1280.21 65.3221 1280.43 66.0658C1280.78 67.2316 1281.42 67.8145 1282.36 67.8145C1282.97 67.8145 1283.49 67.4929 1283.93 66.8497C1284.39 66.1864 1284.63 65.4226 1284.63 64.5583C1284.63 62.3474 1283.75 61.2419 1282 61.2419C1281.26 61.2419 1280.62 61.4831 1280.07 61.9655Z" fill="#FCDD8D"/>
<g filter="url(#filter2_d_224_7018)">
<line x1="16" y1="61.7906" x2="244.642" y2="61.7906" stroke="white" stroke-width="0.793896"/>
</g>
<rect x="16" y="62.1875" width="228.642" height="36.5192" fill="white"/>
<path d="M181.168 62.8379H178.632C178.632 35.6879 156.543 13.6011 129.395 13.6011C102.248 13.6011 80.1408 35.6849 80.1408 62.8379H77.5898C77.5898 34.2799 100.823 11.0442 129.384 11.0442C157.945 11.0442 181.168 34.2799 181.168 62.8379Z" fill="#0F898C"/>
<g filter="url(#filter3_d_224_7018)">
<path d="M82.8548 64.0109C83.156 75.9498 88.0353 87.316 96.4831 95.7578C104.931 104.199 116.301 109.071 128.24 109.363C154.643 109.997 176.435 88.2974 175.908 61.8915C175.737 53.4181 173.256 45.1521 168.732 37.9853C164.208 30.8186 157.813 25.0232 150.237 21.2245C147.01 19.5979 143.602 18.357 140.084 17.5275C136.885 16.7758 133.615 16.3647 130.329 16.3011C103.9 15.7802 82.188 37.5872 82.8548 64.0109Z" fill="url(#paint1_linear_224_7018)"/>
</g>
<path d="M160.88 94.0581C178.194 76.7445 178.251 48.7302 161.007 31.4863C143.763 14.2425 115.749 14.299 98.435 31.6126C81.1214 48.9262 81.0648 76.9406 98.3087 94.1844C115.553 111.428 143.567 111.372 160.88 94.0581Z" fill="#F9F9F9"/>
<path d="M125.429 51.2928C127.761 51.2928 129.65 52.4083 131.097 54.6394C132.303 56.4886 132.906 58.6895 132.906 61.2421C132.906 64.2973 132.143 66.7495 130.615 68.5986C129.248 70.2669 127.52 71.1011 125.429 71.1011C122.997 71.1011 121.108 70.0358 119.761 67.9052C118.615 66.1163 118.043 63.8953 118.043 61.2421C118.043 58.2674 118.796 55.8253 120.304 53.9158C121.65 52.1671 123.359 51.2928 125.429 51.2928ZM125.489 54.9107C123.459 54.9107 122.444 56.9609 122.444 61.0612C122.444 63.1315 122.736 64.7596 123.319 65.9455C123.841 67.0108 124.535 67.5434 125.399 67.5434C126.364 67.5434 127.118 66.9706 127.66 65.8249C128.223 64.6792 128.504 63.0913 128.504 61.0612C128.504 56.9609 127.499 54.9107 125.489 54.9107ZM143.502 51.6546V70.7393H139.251V56.5087C138.99 56.6895 138.598 56.9307 138.076 57.2322C137.352 57.6543 136.819 57.996 136.478 58.2573C136.216 57.795 135.784 57.0614 135.181 56.0564L135.061 55.8755C134.88 55.574 134.699 55.2725 134.518 54.971C135.201 54.4484 136.226 53.7248 137.593 52.8003L137.925 52.5892C138.488 52.1872 138.93 51.8757 139.251 51.6546H143.502Z" fill="#0F898C"/>
<g filter="url(#filter4_d_224_7018)">
<line x1="245.475" y1="61.7903" x2="474.117" y2="61.7903" stroke="white" stroke-width="0.793896"/>
</g>
<rect x="245.475" y="62.1873" width="228.642" height="36.5192" fill="white"/>
<path d="M410.641 62.8377H408.105C408.105 35.6876 386.015 13.6009 358.868 13.6009C331.721 13.6009 309.613 35.6847 309.613 62.8377H307.062C307.062 34.2797 330.295 11.0439 358.856 11.0439C387.417 11.0439 410.641 34.2797 410.641 62.8377Z" fill="#2D4170"/>
<g filter="url(#filter5_d_224_7018)">
<path d="M312.327 64.0106C312.629 75.9496 317.508 87.3158 325.956 95.7575C334.404 104.199 345.773 109.07 357.712 109.363C384.115 109.997 405.907 88.2971 405.381 61.8913C405.21 53.4178 402.729 45.1518 398.205 37.9851C393.681 30.8183 387.286 25.023 379.71 21.2243C376.482 19.5976 373.074 18.3567 369.557 17.5273C366.357 16.7756 363.088 16.3645 359.802 16.3009C333.372 15.78 311.661 37.5869 312.327 64.0106Z" fill="url(#paint2_linear_224_7018)"/>
</g>
<path d="M390.355 94.0579C407.669 76.7443 407.725 48.7299 390.481 31.4861C373.238 14.2422 345.223 14.2988 327.91 31.6124C310.596 48.926 310.539 76.9403 327.783 94.1842C345.027 111.428 373.042 111.371 390.355 94.0579Z" fill="#F9F9F9"/>
<path d="M352.546 51.2925C354.878 51.2925 356.767 52.4081 358.215 54.6391C359.421 56.4883 360.024 58.6892 360.024 61.2419C360.024 64.2971 359.26 66.7492 357.732 68.5984C356.365 70.2667 354.637 71.1008 352.546 71.1008C350.114 71.1008 348.225 70.0355 346.878 67.905C345.733 66.1161 345.16 63.8951 345.16 61.2419C345.16 58.2671 345.914 55.825 347.421 53.9155C348.768 52.1669 350.476 51.2925 352.546 51.2925ZM352.607 54.9105C350.577 54.9105 349.562 56.9607 349.562 61.061C349.562 63.1313 349.853 64.7593 350.436 65.9452C350.959 67.0105 351.652 67.5432 352.516 67.5432C353.481 67.5432 354.235 66.9703 354.777 65.8246C355.34 64.6789 355.622 63.0911 355.622 61.061C355.622 56.9607 354.617 54.9105 352.607 54.9105ZM362.479 70.739V67.1512L367.122 61.6941C368.489 60.1063 369.323 59.0611 369.625 58.5586C369.926 58.0561 370.077 57.4631 370.077 56.7798C370.077 56.217 369.876 55.7547 369.474 55.3929C369.072 55.0311 368.57 54.8502 367.967 54.8502C366.781 54.8502 365.464 55.3426 364.017 56.3275L362.238 53.7346C364.308 52.0865 366.479 51.2624 368.75 51.2624C370.499 51.2624 371.886 51.7247 372.911 52.6493C373.936 53.5537 374.449 54.8401 374.449 56.5084C374.449 58.237 373.685 60.1364 372.157 62.2067C371.574 62.9906 370.077 64.7091 367.665 67.3623H374.298V70.739H362.479Z" fill="#2D4170"/>
<g filter="url(#filter6_d_224_7018)">
<line x1="474.939" y1="61.7903" x2="703.582" y2="61.7903" stroke="white" stroke-width="0.793896"/>
</g>
<rect x="474.939" y="62.1873" width="228.642" height="36.5192" fill="white"/>
<path d="M640.11 62.8377H637.574C637.574 35.6876 615.484 13.6009 588.337 13.6009C561.19 13.6009 539.082 35.6847 539.082 62.8377H536.531C536.531 34.2797 559.764 11.0439 588.325 11.0439C616.886 11.0439 640.11 34.2797 640.11 62.8377Z" fill="#E2A52F"/>
<g filter="url(#filter7_d_224_7018)">
<path d="M541.794 64.0106C542.095 75.9496 546.975 87.3158 555.423 95.7575C563.87 104.199 575.24 109.07 587.179 109.363C613.582 109.997 635.374 88.2971 634.847 61.8913C634.677 53.4178 632.196 45.1518 627.672 37.9851C623.148 30.8183 616.753 25.023 609.177 21.2243C605.949 19.5976 602.541 18.3567 599.023 17.5273C595.824 16.7756 592.555 16.3645 589.269 16.3009C562.839 15.78 541.127 37.5869 541.794 64.0106Z" fill="url(#paint3_linear_224_7018)"/>
</g>
<path d="M620.66 94.0579C637.973 76.7443 638.03 48.7299 620.786 31.4861C603.542 14.2422 575.528 14.2988 558.214 31.6124C540.901 48.926 540.844 76.9403 558.088 94.1842C575.332 111.428 603.346 111.371 620.66 94.0579Z" fill="#F9F9F9"/>
<path d="M580.53 51.2925C582.861 51.2925 584.75 52.4081 586.198 54.6391C587.404 56.4883 588.007 58.6892 588.007 61.2419C588.007 64.2971 587.243 66.7492 585.715 68.5984C584.348 70.2667 582.62 71.1008 580.53 71.1008C578.097 71.1008 576.208 70.0355 574.861 67.905C573.716 66.1161 573.143 63.8951 573.143 61.2419C573.143 58.2671 573.897 55.825 575.404 53.9155C576.751 52.1669 578.459 51.2925 580.53 51.2925ZM580.59 54.9105C578.56 54.9105 577.545 56.9607 577.545 61.061C577.545 63.1313 577.836 64.7593 578.419 65.9452C578.942 67.0105 579.635 67.5432 580.499 67.5432C581.464 67.5432 582.218 66.9703 582.761 65.8246C583.323 64.6789 583.605 63.0911 583.605 61.061C583.605 56.9607 582.6 54.9105 580.59 54.9105ZM592.784 62.3273V58.8902H595.739H595.98C596.683 58.8902 597.166 58.7495 597.427 58.4681C597.708 58.1867 597.849 57.6742 597.849 56.9305C597.849 56.2873 597.668 55.7748 597.306 55.3929C596.945 55.011 596.462 54.82 595.859 54.82C594.613 54.82 593.337 55.4029 592.03 56.5687L590.493 53.8251C592.181 52.1367 594.1 51.2925 596.251 51.2925C598.02 51.2925 599.477 51.795 600.623 52.8C601.728 53.7447 602.281 55.0009 602.281 56.5687C602.281 57.5737 602.12 58.3475 601.799 58.8902C601.477 59.4329 600.904 59.8952 600.08 60.2771C602.01 61.0811 602.974 62.5685 602.974 64.7392C602.974 67.1512 602.16 68.8898 600.532 69.9551C599.407 70.6988 597.99 71.0707 596.281 71.0707C595.357 71.0707 594.281 70.8094 593.055 70.2868C591.829 69.7642 590.854 69.1511 590.131 68.4476L591.849 65.8849C592.894 66.8899 594.281 67.3924 596.01 67.3924C596.794 67.3924 597.417 67.1613 597.879 66.699C598.342 66.2367 598.573 65.6136 598.573 64.8297C598.573 63.1614 597.628 62.3273 595.739 62.3273H592.784Z" fill="#E2A52F"/>
<g filter="url(#filter8_d_224_7018)">
<line x1="704.414" y1="61.7906" x2="933.056" y2="61.7906" stroke="white" stroke-width="0.793896"/>
</g>
<rect x="704.414" y="62.1875" width="228.642" height="36.5192" fill="white"/>
<path d="M869.582 62.8377H867.046C867.046 35.6876 844.957 13.6009 817.81 13.6009C790.662 13.6009 768.555 35.6847 768.555 62.8377H766.004C766.004 34.2797 789.237 11.0439 817.798 11.0439C846.359 11.0439 869.582 34.2797 869.582 62.8377Z" fill="#75B2CB"/>
<g filter="url(#filter9_d_224_7018)">
<path d="M771.269 64.0106C771.57 75.9496 776.449 87.3158 784.897 95.7575C793.345 104.199 804.715 109.07 816.654 109.363C843.057 109.997 864.849 88.2971 864.322 61.8913C864.151 53.4178 861.67 45.1518 857.146 37.9851C852.623 30.8183 846.227 25.023 838.651 21.2243C835.424 19.5976 832.016 18.3567 828.498 17.5273C825.299 16.7756 822.029 16.3645 818.743 16.3009C792.314 15.78 770.602 37.5869 771.269 64.0106Z" fill="url(#paint4_linear_224_7018)"/>
</g>
<path d="M849.295 94.0581C866.608 76.7445 866.665 48.7302 849.421 31.4863C832.177 14.2425 804.163 14.299 786.849 31.6126C769.535 48.9262 769.479 76.9406 786.723 94.1844C803.967 111.428 831.981 111.372 849.295 94.0581Z" fill="#F9F9F9"/>
<path d="M809.381 51.2928C811.712 51.2928 813.601 52.4083 815.049 54.6394C816.255 56.4886 816.858 58.6895 816.858 61.2421C816.858 64.2973 816.094 66.7495 814.566 68.5986C813.199 70.2669 811.471 71.1011 809.381 71.1011C806.948 71.1011 805.059 70.0358 803.712 67.9052C802.567 66.1163 801.994 63.8953 801.994 61.2421C801.994 58.2674 802.748 55.8253 804.255 53.9158C805.602 52.1671 807.31 51.2928 809.381 51.2928ZM809.441 54.9107C807.411 54.9107 806.396 56.9609 806.396 61.0612C806.396 63.1315 806.687 64.7596 807.27 65.9455C807.793 67.0108 808.486 67.5434 809.35 67.5434C810.315 67.5434 811.069 66.9706 811.612 65.8249C812.174 64.6792 812.456 63.0913 812.456 61.0612C812.456 56.9609 811.451 54.9107 809.441 54.9107ZM818.62 63.7144C821.153 59.8352 823.796 55.8152 826.549 51.6546H830.71V63.7144H833.785V67.0912H830.71V70.7393H826.489V67.0912H818.62V63.7144ZM822.238 63.7144H826.489V57.0513C826.007 57.795 825.404 58.7397 824.68 59.8854C823.615 61.5537 822.801 62.83 822.238 63.7144Z" fill="#75B2CB"/>
<g filter="url(#filter10_d_224_7018)">
<line x1="933.889" y1="61.7903" x2="1162.53" y2="61.7903" stroke="white" stroke-width="0.793896"/>
</g>
<rect x="933.889" y="62.1873" width="228.642" height="36.5192" fill="white"/>
<path d="M1099.06 62.8377H1096.52C1096.52 35.6876 1074.43 13.6009 1047.28 13.6009C1020.14 13.6009 998.028 35.6847 998.028 62.8377H995.477C995.477 34.2797 1018.71 11.0439 1047.27 11.0439C1075.83 11.0439 1099.06 34.2797 1099.06 62.8377Z" fill="#AA6C39"/>
<g filter="url(#filter11_d_224_7018)">
<path d="M1000.74 64.0104C1001.04 75.9493 1005.92 87.3156 1014.37 95.7573C1022.82 104.199 1034.19 109.07 1046.13 109.363C1072.53 109.997 1094.32 88.2969 1093.79 61.891C1093.62 53.4176 1091.14 45.1516 1086.62 37.9848C1082.1 30.8181 1075.7 25.0227 1068.12 21.224C1064.9 19.5974 1061.49 18.3565 1057.97 17.527C1054.77 16.7753 1051.5 16.3642 1048.22 16.3006C1021.79 15.7797 1000.07 37.5867 1000.74 64.0104Z" fill="url(#paint5_linear_224_7018)"/>
</g>
<path d="M1078.77 94.0581C1096.08 76.7445 1096.14 48.7302 1078.9 31.4863C1061.65 14.2425 1033.64 14.299 1016.32 31.6126C999.01 48.9262 998.954 76.9406 1016.2 94.1844C1033.44 111.428 1061.46 111.372 1078.77 94.0581Z" fill="#F9F9F9"/>
<path d="M1038.21 51.2925C1040.54 51.2925 1042.43 52.4081 1043.88 54.6391C1045.08 56.4883 1045.69 58.6892 1045.69 61.2419C1045.69 64.2971 1044.92 66.7492 1043.39 68.5984C1042.03 70.2667 1040.3 71.1008 1038.21 71.1008C1035.78 71.1008 1033.89 70.0355 1032.54 67.905C1031.39 66.1161 1030.82 63.8951 1030.82 61.2419C1030.82 58.2671 1031.58 55.825 1033.08 53.9155C1034.43 52.1669 1036.14 51.2925 1038.21 51.2925ZM1038.27 54.9105C1036.24 54.9105 1035.22 56.9607 1035.22 61.061C1035.22 63.1313 1035.52 64.7593 1036.1 65.9452C1036.62 67.0105 1037.31 67.5432 1038.18 67.5432C1039.14 67.5432 1039.9 66.9703 1040.44 65.8246C1041 64.6789 1041.28 63.0911 1041.28 61.061C1041.28 56.9607 1040.28 54.9105 1038.27 54.9105ZM1060.35 55.0311H1053.78V58.5586C1054.02 58.4983 1054.29 58.4681 1054.59 58.4681C1056.95 58.4681 1058.71 59.0309 1059.9 60.1565C1061.01 61.2017 1061.56 62.669 1061.56 64.5583C1061.56 66.4879 1060.83 68.0959 1059.39 69.3823C1058.1 70.528 1056.54 71.1008 1054.71 71.1008C1052.2 71.1008 1050.04 70.1863 1048.23 68.3572L1049.98 65.6739C1051.49 66.8196 1052.93 67.3924 1054.29 67.3924C1056.26 67.3924 1057.25 66.5382 1057.25 64.8297C1057.25 62.8197 1055.91 61.8147 1053.24 61.8147C1052.27 61.8147 1051.24 61.9454 1050.13 62.2067L1050.01 62.2368C1049.81 62.2971 1049.67 62.3373 1049.59 62.3574V51.6543H1060.35V55.0311Z" fill="#AA6C39"/>
<path d="M1149.18 190.974C1148.92 190.971 1148.66 190.891 1148.44 190.742C1148.22 190.593 1148.05 190.383 1147.95 190.137C1147.85 189.892 1147.82 189.622 1147.87 189.362C1147.92 189.102 1148.05 188.863 1148.24 188.675L1152.17 184.756L1147.89 180.473C1147.76 180.351 1147.65 180.202 1147.57 180.036C1147.5 179.87 1147.45 179.691 1147.45 179.508C1147.45 179.326 1147.48 179.145 1147.55 178.975C1147.61 178.806 1147.71 178.652 1147.84 178.523C1147.97 178.395 1148.13 178.293 1148.3 178.225C1148.47 178.158 1148.65 178.125 1148.83 178.129C1149.01 178.134 1149.19 178.175 1149.36 178.251C1149.52 178.327 1149.67 178.435 1149.79 178.57L1155.98 184.756L1150.15 190.587C1150.02 190.713 1149.87 190.811 1149.7 190.878C1149.54 190.944 1149.36 190.977 1149.18 190.974Z" fill="#636363"/>
<path d="M1160.34 190.974C1160.08 190.971 1159.82 190.891 1159.6 190.742C1159.38 190.593 1159.21 190.383 1159.11 190.137C1159.01 189.892 1158.98 189.622 1159.03 189.362C1159.09 189.102 1159.21 188.863 1159.4 188.675L1163.31 184.756L1159.03 180.473C1158.9 180.351 1158.79 180.202 1158.71 180.036C1158.64 179.87 1158.59 179.691 1158.59 179.508C1158.59 179.326 1158.62 179.145 1158.69 178.975C1158.75 178.806 1158.86 178.652 1158.98 178.523C1159.11 178.395 1159.27 178.293 1159.44 178.225C1159.61 178.158 1159.79 178.125 1159.97 178.129C1160.15 178.134 1160.33 178.175 1160.5 178.251C1160.66 178.327 1160.81 178.435 1160.93 178.57L1167.12 184.756L1161.29 190.587C1161.04 190.835 1160.7 190.974 1160.34 190.974Z" fill="#636363"/>
<path d="M1171.5 190.974C1171.23 190.971 1170.97 190.891 1170.75 190.742C1170.53 190.593 1170.36 190.383 1170.26 190.137C1170.16 189.892 1170.14 189.622 1170.19 189.362C1170.24 189.102 1170.37 188.863 1170.56 188.675L1174.47 184.756L1170.19 180.473C1170.06 180.351 1169.95 180.202 1169.87 180.036C1169.8 179.87 1169.75 179.691 1169.75 179.508C1169.75 179.326 1169.78 179.145 1169.85 178.975C1169.91 178.806 1170.02 178.652 1170.14 178.523C1170.27 178.395 1170.43 178.293 1170.6 178.225C1170.77 178.158 1170.95 178.125 1171.13 178.129C1171.31 178.134 1171.49 178.175 1171.66 178.251C1171.82 178.327 1171.97 178.435 1172.09 178.57L1178.28 184.756L1172.45 190.587C1172.2 190.837 1171.85 190.976 1171.5 190.974Z" fill="#636363"/>
<path d="M920.544 190.974C920.279 190.971 920.02 190.891 919.801 190.742C919.581 190.593 919.41 190.383 919.309 190.137C919.209 189.892 919.183 189.622 919.235 189.362C919.287 189.102 919.415 188.863 919.602 188.675L923.534 184.756L919.254 180.473C919.119 180.351 919.01 180.202 918.934 180.036C918.859 179.87 918.817 179.691 918.813 179.508C918.809 179.326 918.841 179.145 918.909 178.975C918.977 178.806 919.078 178.652 919.207 178.523C919.336 178.395 919.49 178.293 919.659 178.225C919.828 178.158 920.01 178.125 920.192 178.129C920.374 178.134 920.554 178.175 920.72 178.251C920.885 178.327 921.034 178.435 921.157 178.57L927.343 184.756L921.512 190.587C921.384 190.713 921.233 190.811 921.067 190.878C920.901 190.944 920.723 190.977 920.544 190.974Z" fill="#636363"/>
<path d="M931.707 190.974C931.442 190.971 931.183 190.891 930.963 190.742C930.744 190.593 930.573 190.383 930.472 190.137C930.371 189.892 930.346 189.622 930.398 189.362C930.45 189.102 930.578 188.863 930.765 188.675L934.674 184.756L930.394 180.473C930.259 180.351 930.151 180.202 930.075 180.036C929.999 179.87 929.958 179.691 929.954 179.508C929.949 179.326 929.982 179.145 930.05 178.975C930.117 178.806 930.219 178.652 930.348 178.523C930.477 178.395 930.63 178.293 930.8 178.225C930.969 178.158 931.15 178.125 931.333 178.129C931.515 178.134 931.694 178.175 931.86 178.251C932.026 178.327 932.175 178.435 932.297 178.57L938.483 184.756L932.652 190.587C932.4 190.835 932.061 190.974 931.707 190.974Z" fill="#636363"/>
<path d="M942.861 190.974C942.596 190.971 942.337 190.891 942.117 190.742C941.897 190.593 941.727 190.383 941.626 190.137C941.525 189.892 941.499 189.622 941.552 189.362C941.604 189.102 941.731 188.863 941.919 188.675L945.838 184.756L941.555 180.473C941.42 180.351 941.311 180.202 941.235 180.036C941.159 179.87 941.118 179.691 941.114 179.508C941.109 179.326 941.142 179.145 941.21 178.975C941.277 178.806 941.379 178.652 941.508 178.523C941.637 178.395 941.791 178.293 941.96 178.225C942.129 178.158 942.31 178.125 942.493 178.129C942.675 178.134 942.854 178.175 943.02 178.251C943.186 178.327 943.335 178.435 943.457 178.57L949.643 184.756L943.812 190.587C943.559 190.837 943.217 190.976 942.861 190.974Z" fill="#636363"/>
<path d="M690.234 190.974C689.969 190.971 689.71 190.891 689.49 190.742C689.27 190.593 689.1 190.383 688.999 190.137C688.898 189.892 688.872 189.622 688.925 189.362C688.977 189.102 689.104 188.863 689.292 188.675L693.223 184.756L688.943 180.473C688.808 180.351 688.7 180.202 688.624 180.036C688.548 179.87 688.507 179.691 688.502 179.508C688.498 179.326 688.531 179.145 688.598 178.975C688.666 178.806 688.768 178.652 688.897 178.523C689.025 178.395 689.179 178.293 689.349 178.225C689.518 178.158 689.699 178.125 689.881 178.129C690.064 178.134 690.243 178.175 690.409 178.251C690.575 178.327 690.724 178.435 690.846 178.57L697.032 184.756L691.201 190.587C691.073 190.713 690.922 190.811 690.756 190.878C690.59 190.944 690.413 190.977 690.234 190.974Z" fill="#636363"/>
<path d="M701.396 190.974C701.131 190.971 700.872 190.891 700.653 190.742C700.433 190.593 700.262 190.383 700.162 190.137C700.061 189.892 700.035 189.622 700.087 189.362C700.139 189.102 700.267 188.863 700.454 188.675L704.364 184.756L700.084 180.473C699.949 180.351 699.84 180.202 699.764 180.036C699.689 179.87 699.647 179.691 699.643 179.508C699.639 179.326 699.671 179.145 699.739 178.975C699.807 178.806 699.908 178.652 700.037 178.523C700.166 178.395 700.32 178.293 700.489 178.225C700.658 178.158 700.84 178.125 701.022 178.129C701.204 178.134 701.384 178.175 701.55 178.251C701.715 178.327 701.864 178.435 701.987 178.57L708.173 184.756L702.342 190.587C702.089 190.835 701.75 190.974 701.396 190.974Z" fill="#636363"/>
<path d="M712.55 190.974C712.285 190.971 712.026 190.891 711.807 190.742C711.587 190.593 711.416 190.383 711.315 190.137C711.215 189.892 711.189 189.622 711.241 189.362C711.293 189.102 711.421 188.863 711.608 188.675L715.527 184.756L711.244 180.473C711.109 180.351 711 180.202 710.925 180.036C710.849 179.87 710.807 179.691 710.803 179.508C710.799 179.326 710.831 179.145 710.899 178.975C710.967 178.806 711.068 178.652 711.197 178.523C711.326 178.395 711.48 178.293 711.649 178.225C711.819 178.158 712 178.125 712.182 178.129C712.364 178.134 712.544 178.175 712.71 178.251C712.876 178.327 713.024 178.435 713.147 178.57L719.333 184.756L713.502 190.587C713.248 190.837 712.906 190.976 712.55 190.974Z" fill="#636363"/>
<path d="M459.927 190.974C459.662 190.971 459.403 190.891 459.183 190.742C458.964 190.593 458.793 190.383 458.692 190.137C458.592 189.892 458.566 189.622 458.618 189.362C458.67 189.102 458.798 188.863 458.985 188.675L462.917 184.756L458.637 180.473C458.502 180.351 458.393 180.202 458.317 180.036C458.241 179.87 458.2 179.691 458.196 179.508C458.191 179.326 458.224 179.145 458.292 178.975C458.36 178.806 458.461 178.652 458.59 178.523C458.719 178.395 458.873 178.293 459.042 178.225C459.211 178.158 459.392 178.125 459.575 178.129C459.757 178.134 459.936 178.175 460.102 178.251C460.268 178.327 460.417 178.435 460.54 178.57L466.726 184.756L460.894 190.587C460.767 190.713 460.616 190.811 460.45 190.878C460.284 190.944 460.106 190.977 459.927 190.974Z" fill="#636363"/>
<path d="M471.09 190.974C470.825 190.971 470.566 190.891 470.346 190.742C470.126 190.593 469.956 190.383 469.855 190.137C469.754 189.892 469.728 189.622 469.781 189.362C469.833 189.102 469.96 188.863 470.148 188.675L474.057 184.756L469.777 180.473C469.642 180.351 469.534 180.202 469.458 180.036C469.382 179.87 469.341 179.691 469.336 179.508C469.332 179.326 469.365 179.145 469.432 178.975C469.5 178.806 469.602 178.652 469.73 178.523C469.859 178.395 470.013 178.293 470.182 178.225C470.352 178.158 470.533 178.125 470.715 178.129C470.898 178.134 471.077 178.175 471.243 178.251C471.409 178.327 471.558 178.435 471.68 178.57L477.866 184.756L472.035 190.587C471.783 190.835 471.443 190.974 471.09 190.974Z" fill="#636363"/>
<path d="M482.244 190.974C481.978 190.971 481.72 190.891 481.5 190.742C481.28 190.593 481.109 190.383 481.009 190.137C480.908 189.892 480.882 189.622 480.934 189.362C480.986 189.102 481.114 188.863 481.302 188.675L485.221 184.756L480.937 180.473C480.802 180.351 480.694 180.202 480.618 180.036C480.542 179.87 480.501 179.691 480.496 179.508C480.492 179.326 480.525 179.145 480.593 178.975C480.66 178.806 480.762 178.652 480.891 178.523C481.02 178.395 481.173 178.293 481.343 178.225C481.512 178.158 481.693 178.125 481.875 178.129C482.058 178.134 482.237 178.175 482.403 178.251C482.569 178.327 482.718 178.435 482.84 178.57L489.026 184.756L483.195 190.587C482.942 190.837 482.599 190.976 482.244 190.974Z" fill="#636363"/>
<path d="M231.292 190.974C231.027 190.971 230.768 190.891 230.549 190.742C230.329 190.593 230.158 190.383 230.058 190.137C229.957 189.892 229.931 189.622 229.983 189.362C230.035 189.102 230.163 188.863 230.35 188.675L234.282 184.756L230.002 180.473C229.867 180.351 229.758 180.202 229.682 180.036C229.607 179.87 229.565 179.691 229.561 179.508C229.557 179.326 229.589 179.145 229.657 178.975C229.725 178.806 229.826 178.652 229.955 178.523C230.084 178.395 230.238 178.293 230.407 178.225C230.576 178.158 230.758 178.125 230.94 178.129C231.122 178.134 231.302 178.175 231.468 178.251C231.633 178.327 231.782 178.435 231.905 178.57L238.091 184.756L232.26 190.587C232.132 190.713 231.981 190.811 231.815 190.878C231.649 190.944 231.471 190.977 231.292 190.974Z" fill="#636363"/>
<path d="M242.455 190.974C242.19 190.971 241.931 190.891 241.711 190.742C241.492 190.593 241.321 190.383 241.22 190.137C241.12 189.892 241.094 189.622 241.146 189.362C241.198 189.102 241.326 188.863 241.513 188.675L245.422 184.756L241.142 180.473C241.008 180.351 240.899 180.202 240.823 180.036C240.747 179.87 240.706 179.691 240.702 179.508C240.697 179.326 240.73 179.145 240.798 178.975C240.865 178.806 240.967 178.652 241.096 178.523C241.225 178.395 241.378 178.293 241.548 178.225C241.717 178.158 241.898 178.125 242.081 178.129C242.263 178.134 242.442 178.175 242.608 178.251C242.774 178.327 242.923 178.435 243.045 178.57L249.231 184.756L243.4 190.587C243.148 190.835 242.809 190.974 242.455 190.974Z" fill="#636363"/>
<path d="M253.609 190.974C253.344 190.971 253.085 190.891 252.865 190.742C252.645 190.593 252.475 190.383 252.374 190.137C252.273 189.892 252.248 189.622 252.3 189.362C252.352 189.102 252.479 188.863 252.667 188.675L256.586 184.756L252.303 180.473C252.168 180.351 252.059 180.202 251.983 180.036C251.907 179.87 251.866 179.691 251.862 179.508C251.857 179.326 251.89 179.145 251.958 178.975C252.026 178.806 252.127 178.652 252.256 178.523C252.385 178.395 252.539 178.293 252.708 178.225C252.877 178.158 253.058 178.125 253.241 178.129C253.423 178.134 253.603 178.175 253.768 178.251C253.934 178.327 254.083 178.435 254.206 178.57L260.392 184.756L254.56 190.587C254.307 190.837 253.965 190.976 253.609 190.974Z" fill="#636363"/>
<path d="M1234.39 192L1230.58 186.163H1230.34V192H1227.62V177.871C1228.61 177.81 1229.96 177.779 1231.68 177.779C1235.1 177.779 1236.81 179.108 1236.81 181.767C1236.81 182.789 1236.48 183.665 1235.81 184.394C1235.17 185.089 1234.35 185.525 1233.34 185.702C1233.87 186.398 1234.25 186.912 1234.47 187.246L1237.75 192H1234.39ZM1233.97 182.032C1233.97 180.676 1233.12 179.998 1231.41 179.998C1230.97 179.998 1230.61 180.022 1230.34 180.069V184.149C1230.59 184.176 1230.92 184.189 1231.32 184.189C1232.14 184.189 1232.78 183.995 1233.25 183.607C1233.73 183.218 1233.97 182.693 1233.97 182.032ZM1248.04 185.805C1248.04 186.425 1248 186.926 1247.94 187.308H1241.51C1241.51 189.182 1242.46 190.119 1244.38 190.119C1245.39 190.119 1246.39 189.914 1247.39 189.506L1247.68 191.54C1246.47 191.983 1245.22 192.204 1243.92 192.204C1240.5 192.204 1238.79 190.432 1238.79 186.888C1238.79 185.287 1239.22 183.982 1240.09 182.973C1241 181.916 1242.21 181.388 1243.72 181.388C1245.17 181.388 1246.27 181.814 1247.03 182.666C1247.7 183.436 1248.04 184.483 1248.04 185.805ZM1245.38 185.529C1245.42 184.077 1244.82 183.351 1243.58 183.351C1242.37 183.351 1241.68 184.077 1241.53 185.529H1245.38ZM1257.24 191.704C1256.41 192.024 1255.43 192.184 1254.31 192.184C1251.19 192.184 1249.62 190.504 1249.62 187.144C1249.62 185.44 1250.06 184.077 1250.92 183.055C1251.85 181.957 1253.19 181.409 1254.92 181.409C1255.75 181.409 1256.51 181.528 1257.2 181.767L1256.78 184.067C1256.13 183.801 1255.48 183.668 1254.84 183.668C1254.06 183.668 1253.46 183.961 1253.04 184.547C1252.63 185.106 1252.42 185.88 1252.42 186.868C1252.42 188.879 1253.23 189.884 1254.86 189.884C1255.59 189.884 1256.26 189.744 1256.89 189.465L1257.24 191.704ZM1267.81 185.805C1267.81 186.425 1267.78 186.926 1267.71 187.308H1261.28C1261.28 189.182 1262.23 190.119 1264.15 190.119C1265.16 190.119 1266.16 189.914 1267.17 189.506L1267.45 191.54C1266.25 191.983 1264.99 192.204 1263.69 192.204C1260.27 192.204 1258.56 190.432 1258.56 186.888C1258.56 185.287 1258.99 183.982 1259.87 182.973C1260.77 181.916 1261.98 181.388 1263.5 181.388C1264.94 181.388 1266.04 181.814 1266.8 182.666C1267.47 183.436 1267.81 184.483 1267.81 185.805ZM1265.15 185.529C1265.19 184.077 1264.59 183.351 1263.35 183.351C1262.14 183.351 1261.45 184.077 1261.3 185.529H1265.15ZM1273.06 178.434C1273.06 178.877 1272.9 179.255 1272.57 179.569C1272.24 179.889 1271.84 180.049 1271.39 180.049C1270.92 180.049 1270.53 179.892 1270.21 179.579C1269.89 179.265 1269.73 178.884 1269.73 178.434C1269.73 177.984 1269.89 177.599 1270.21 177.279C1270.53 176.958 1270.92 176.798 1271.39 176.798C1271.85 176.798 1272.25 176.955 1272.57 177.268C1272.9 177.589 1273.06 177.977 1273.06 178.434ZM1270.05 192V181.593H1272.73V192H1270.05ZM1280.96 192H1277.77L1274.19 181.593H1277.08L1278.75 186.623C1279.06 187.645 1279.28 188.51 1279.42 189.219H1279.46C1279.64 188.361 1279.85 187.502 1280.1 186.643L1281.72 181.593H1284.56L1280.96 192ZM1294.53 185.805C1294.53 186.425 1294.5 186.926 1294.43 187.308H1288C1288 189.182 1288.96 190.119 1290.87 190.119C1291.88 190.119 1292.89 189.914 1293.89 189.506L1294.18 191.54C1292.97 191.983 1291.71 192.204 1290.41 192.204C1286.99 192.204 1285.28 190.432 1285.28 186.888C1285.28 185.287 1285.72 183.982 1286.59 182.973C1287.5 181.916 1288.71 181.388 1290.22 181.388C1291.66 181.388 1292.76 181.814 1293.52 182.666C1294.2 183.436 1294.53 184.483 1294.53 185.805ZM1291.88 185.529C1291.92 184.077 1291.32 183.351 1290.08 183.351C1288.86 183.351 1288.18 184.077 1288.02 185.529H1291.88ZM1306.62 191.918C1305.84 192.109 1305.09 192.204 1304.36 192.204C1303.21 192.204 1302.42 191.966 1301.99 191.489C1301.56 191.012 1301.34 190.163 1301.34 188.943V183.668H1299.54V181.593H1301.34V178.393L1304 177.677V181.593H1306.54V183.668H1304V188.228C1304 188.896 1304.09 189.349 1304.28 189.587C1304.45 189.826 1304.77 189.945 1305.24 189.945C1305.7 189.945 1306.1 189.897 1306.43 189.802L1306.62 191.918ZM1315.18 192V185.345C1315.18 184.2 1314.75 183.627 1313.89 183.627C1313.22 183.627 1312.65 183.958 1312.18 184.619C1311.71 185.28 1311.47 186.074 1311.47 187.001V192H1308.79V176.716H1311.47V181.194C1311.47 182.066 1311.41 182.772 1311.29 183.31H1311.33C1312 182.029 1313.14 181.388 1314.74 181.388C1316.81 181.388 1317.84 182.489 1317.84 184.69V192H1315.18ZM1329.23 185.805C1329.23 186.425 1329.2 186.926 1329.13 187.308H1322.7C1322.7 189.182 1323.66 190.119 1325.57 190.119C1326.58 190.119 1327.58 189.914 1328.59 189.506L1328.87 191.54C1327.67 191.983 1326.41 192.204 1325.11 192.204C1321.69 192.204 1319.98 190.432 1319.98 186.888C1319.98 185.287 1320.41 183.982 1321.29 182.973C1322.19 181.916 1323.4 181.388 1324.92 181.388C1326.36 181.388 1327.46 181.814 1328.22 182.666C1328.89 183.436 1329.23 184.483 1329.23 185.805ZM1326.57 185.529C1326.61 184.077 1326.01 183.351 1324.77 183.351C1323.56 183.351 1322.88 184.077 1322.72 185.529H1326.57ZM1255.19 221.665C1255.19 222.988 1254.69 224.075 1253.69 224.927C1252.67 225.799 1251.35 226.235 1249.73 226.235C1248.5 226.235 1247.41 226.109 1246.46 225.857L1246.76 223.24C1247.73 223.642 1248.75 223.843 1249.84 223.843C1251.42 223.843 1252.21 223.229 1252.21 222.003C1252.21 221.417 1251.9 220.936 1251.28 220.561C1251.11 220.466 1250.43 220.169 1249.23 219.672C1247.25 218.861 1246.26 217.6 1246.26 215.889C1246.26 214.608 1246.72 213.586 1247.65 212.822C1248.6 212.032 1249.92 211.636 1251.6 211.636C1252.44 211.636 1253.29 211.728 1254.15 211.912L1253.91 214.294C1253.09 214.029 1252.28 213.896 1251.47 213.896C1249.93 213.896 1249.15 214.461 1249.15 215.593C1249.15 216.138 1249.47 216.598 1250.09 216.973C1250.23 217.055 1250.92 217.361 1252.18 217.893C1254.19 218.752 1255.19 220.009 1255.19 221.665ZM1266.14 219.805C1266.14 220.425 1266.11 220.926 1266.04 221.308H1259.61C1259.61 223.182 1260.57 224.119 1262.48 224.119C1263.49 224.119 1264.5 223.914 1265.5 223.506L1265.79 225.54C1264.58 225.983 1263.32 226.204 1262.02 226.204C1258.6 226.204 1256.89 224.432 1256.89 220.888C1256.89 219.287 1257.33 217.982 1258.2 216.973C1259.11 215.916 1260.32 215.388 1261.83 215.388C1263.27 215.388 1264.37 215.814 1265.13 216.666C1265.81 217.436 1266.14 218.483 1266.14 219.805ZM1263.49 219.529C1263.53 218.077 1262.93 217.351 1261.69 217.351C1260.47 217.351 1259.79 218.077 1259.63 219.529H1263.49ZM1273.95 218.005C1272.02 217.624 1271.06 218.871 1271.06 221.747V226H1268.38V215.593H1270.92C1270.92 216.254 1270.85 216.952 1270.72 217.688H1270.76C1271.4 216.005 1272.51 215.238 1274.08 215.388L1273.95 218.005ZM1281.72 226H1278.53L1274.96 215.593H1277.85L1279.52 220.623C1279.82 221.645 1280.05 222.51 1280.19 223.219H1280.23C1280.41 222.361 1280.62 221.502 1280.86 220.643L1282.49 215.593H1285.32L1281.72 226ZM1289.96 212.434C1289.96 212.877 1289.8 213.255 1289.47 213.569C1289.14 213.889 1288.74 214.049 1288.29 214.049C1287.82 214.049 1287.43 213.892 1287.11 213.579C1286.79 213.265 1286.63 212.884 1286.63 212.434C1286.63 211.984 1286.79 211.599 1287.11 211.279C1287.43 210.958 1287.82 210.798 1288.29 210.798C1288.75 210.798 1289.15 210.955 1289.47 211.268C1289.8 211.589 1289.96 211.977 1289.96 212.434ZM1286.95 226V215.593H1289.63V226H1286.95ZM1299.39 225.704C1298.56 226.024 1297.58 226.184 1296.47 226.184C1293.34 226.184 1291.77 224.504 1291.77 221.144C1291.77 219.44 1292.21 218.077 1293.07 217.055C1294 215.957 1295.34 215.409 1297.07 215.409C1297.9 215.409 1298.66 215.528 1299.35 215.767L1298.93 218.067C1298.28 217.801 1297.63 217.668 1296.99 217.668C1296.21 217.668 1295.61 217.961 1295.19 218.547C1294.78 219.106 1294.57 219.88 1294.57 220.868C1294.57 222.879 1295.39 223.884 1297.01 223.884C1297.74 223.884 1298.41 223.744 1299.04 223.465L1299.39 225.704ZM1309.96 219.805C1309.96 220.425 1309.93 220.926 1309.86 221.308H1303.43C1303.43 223.182 1304.38 224.119 1306.3 224.119C1307.31 224.119 1308.31 223.914 1309.32 223.506L1309.6 225.54C1308.4 225.983 1307.14 226.204 1305.84 226.204C1302.42 226.204 1300.71 224.432 1300.71 220.888C1300.71 219.287 1301.14 217.982 1302.02 216.973C1302.92 215.916 1304.13 215.388 1305.65 215.388C1307.09 215.388 1308.19 215.814 1308.95 216.666C1309.62 217.436 1309.96 218.483 1309.96 219.805ZM1307.3 219.529C1307.34 218.077 1306.74 217.351 1305.5 217.351C1304.29 217.351 1303.6 218.077 1303.45 219.529H1307.3Z" fill="#363636"/>
<path d="M1009.11 180.192V192H1006.38V180.192H1002.72V177.871H1012.77V180.192H1009.11ZM1018.83 184.005C1016.9 183.624 1015.94 184.871 1015.94 187.747V192H1013.26V181.593H1015.8C1015.8 182.254 1015.73 182.952 1015.6 183.688H1015.64C1016.28 182.005 1017.39 181.238 1018.96 181.388L1018.83 184.005ZM1026.33 192C1026.33 191.284 1026.36 190.698 1026.43 190.242L1026.41 190.221C1025.84 191.543 1024.74 192.204 1023.09 192.204C1022.17 192.204 1021.43 191.922 1020.89 191.356C1020.37 190.811 1020.11 190.105 1020.11 189.24C1020.11 188.033 1020.66 187.12 1021.75 186.5C1022.78 185.907 1024.24 185.61 1026.12 185.61V185.232C1026.12 184.592 1025.98 184.132 1025.7 183.852C1025.42 183.559 1024.94 183.412 1024.26 183.412C1023.27 183.412 1022.22 183.651 1021.11 184.128L1020.67 182.073C1021.86 181.603 1023.17 181.368 1024.61 181.368C1026.16 181.368 1027.26 181.688 1027.91 182.329C1028.5 182.901 1028.8 183.801 1028.8 185.028V189.322C1028.8 190.344 1028.83 191.237 1028.88 192H1026.33ZM1026.12 187.369C1023.83 187.369 1022.69 187.894 1022.69 188.943C1022.69 189.291 1022.8 189.577 1023.02 189.802C1023.26 190.041 1023.56 190.16 1023.94 190.16C1024.57 190.16 1025.1 189.897 1025.52 189.373C1025.92 188.875 1026.12 188.299 1026.12 187.645V187.369ZM1038.63 191.704C1037.79 192.024 1036.82 192.184 1035.7 192.184C1032.57 192.184 1031.01 190.504 1031.01 187.144C1031.01 185.44 1031.44 184.077 1032.31 183.055C1033.24 181.957 1034.57 181.409 1036.3 181.409C1037.14 181.409 1037.9 181.528 1038.58 181.767L1038.17 184.067C1037.52 183.801 1036.87 183.668 1036.22 183.668C1035.45 183.668 1034.85 183.961 1034.42 184.547C1034.01 185.106 1033.81 185.88 1033.81 186.868C1033.81 188.879 1034.62 189.884 1036.24 189.884C1036.97 189.884 1037.65 189.744 1038.28 189.465L1038.63 191.704ZM1046.45 192L1043.22 186.847V192H1040.54V176.716H1043.22V185.927L1046.25 181.593H1049.52L1045.87 186.347L1049.79 192H1046.45ZM1061.34 187.001V192H1058.62V187.021L1054.21 177.871H1057.18L1059.04 181.93C1059.4 182.714 1059.72 183.494 1060 184.271H1060.04C1060.24 183.726 1060.62 182.854 1061.18 181.654L1062.96 177.871H1065.85L1061.34 187.001ZM1074.9 186.602C1074.9 188.231 1074.4 189.574 1073.4 190.63C1072.4 191.68 1071.13 192.204 1069.58 192.204C1066.33 192.204 1064.7 190.46 1064.7 186.97C1064.7 185.341 1065.2 184.005 1066.18 182.963C1067.17 181.913 1068.45 181.388 1070.02 181.388C1071.55 181.388 1072.74 181.807 1073.58 182.646C1074.46 183.539 1074.9 184.857 1074.9 186.602ZM1072.14 186.745C1072.14 184.68 1071.37 183.648 1069.84 183.648C1069.18 183.648 1068.64 183.89 1068.2 184.373C1067.71 184.926 1067.46 185.702 1067.46 186.704C1067.46 188.851 1068.24 189.925 1069.8 189.925C1070.48 189.925 1071.04 189.659 1071.46 189.127C1071.91 188.562 1072.14 187.768 1072.14 186.745ZM1083.42 192C1083.42 191.196 1083.46 190.576 1083.55 190.139H1083.53C1082.81 191.516 1081.63 192.204 1079.99 192.204C1077.92 192.204 1076.89 191.104 1076.89 188.902V181.593H1079.55V188.248C1079.55 189.393 1079.98 189.966 1080.85 189.966C1081.52 189.966 1082.09 189.635 1082.56 188.974C1083.03 188.326 1083.26 187.543 1083.26 186.623V181.593H1085.94V192H1083.42ZM1094.4 184.005C1092.47 183.624 1091.51 184.871 1091.51 187.747V192H1088.83V181.593H1091.37C1091.37 182.254 1091.3 182.952 1091.17 183.688H1091.21C1091.85 182.005 1092.96 181.238 1094.53 181.388L1094.4 184.005ZM1020.11 226L1016.3 220.163H1016.06V226H1013.34V211.871C1014.33 211.81 1015.68 211.779 1017.4 211.779C1020.82 211.779 1022.53 213.108 1022.53 215.767C1022.53 216.789 1022.2 217.665 1021.53 218.394C1020.89 219.089 1020.07 219.525 1019.06 219.702C1019.59 220.398 1019.97 220.912 1020.19 221.246L1023.47 226H1020.11ZM1019.69 216.032C1019.69 214.676 1018.84 213.998 1017.14 213.998C1016.69 213.998 1016.33 214.022 1016.06 214.069V218.149C1016.31 218.176 1016.64 218.189 1017.04 218.189C1017.86 218.189 1018.51 217.995 1018.98 217.607C1019.45 217.218 1019.69 216.693 1019.69 216.032ZM1033.76 219.805C1033.76 220.425 1033.72 220.926 1033.66 221.308H1027.23C1027.23 223.182 1028.18 224.119 1030.1 224.119C1031.11 224.119 1032.11 223.914 1033.11 223.506L1033.4 225.54C1032.19 225.983 1030.94 226.204 1029.64 226.204C1026.22 226.204 1024.51 224.432 1024.51 220.888C1024.51 219.287 1024.94 217.982 1025.82 216.973C1026.72 215.916 1027.93 215.388 1029.44 215.388C1030.89 215.388 1031.99 215.814 1032.75 216.666C1033.42 217.436 1033.76 218.483 1033.76 219.805ZM1031.1 219.529C1031.14 218.077 1030.54 217.351 1029.3 217.351C1028.09 217.351 1027.4 218.077 1027.25 219.529H1031.1ZM1042.21 231.05V226.337C1042.21 225.52 1042.26 224.848 1042.36 224.323L1042.32 224.303C1041.73 225.591 1040.7 226.235 1039.24 226.235C1036.67 226.235 1035.38 224.606 1035.38 221.348C1035.38 219.549 1035.87 218.121 1036.85 217.065C1037.86 215.961 1039.27 215.409 1041.06 215.409C1042.34 215.409 1043.61 215.511 1044.87 215.715V231.05H1042.21ZM1042.21 217.668C1041.7 217.573 1041.23 217.525 1040.8 217.525C1039.06 217.525 1038.19 218.704 1038.19 221.062C1038.19 223.025 1038.77 224.006 1039.94 224.006C1040.63 224.006 1041.18 223.659 1041.61 222.964C1042.01 222.309 1042.21 221.509 1042.21 220.561V217.668ZM1054.14 226C1054.14 225.196 1054.18 224.576 1054.27 224.139H1054.25C1053.53 225.516 1052.35 226.204 1050.71 226.204C1048.64 226.204 1047.61 225.104 1047.61 222.902V215.593H1050.27V222.248C1050.27 223.393 1050.7 223.966 1051.57 223.966C1052.24 223.966 1052.81 223.635 1053.29 222.974C1053.75 222.326 1053.98 221.543 1053.98 220.623V215.593H1056.66V226H1054.14ZM1068.07 219.805C1068.07 220.425 1068.03 220.926 1067.97 221.308H1061.54C1061.54 223.182 1062.49 224.119 1064.41 224.119C1065.42 224.119 1066.42 223.914 1067.42 223.506L1067.71 225.54C1066.5 225.983 1065.25 226.204 1063.95 226.204C1060.53 226.204 1058.82 224.432 1058.82 220.888C1058.82 219.287 1059.25 217.982 1060.12 216.973C1061.03 215.916 1062.24 215.388 1063.75 215.388C1065.2 215.388 1066.3 215.814 1067.06 216.666C1067.73 217.436 1068.07 218.483 1068.07 219.805ZM1065.41 219.529C1065.45 218.077 1064.85 217.351 1063.61 217.351C1062.4 217.351 1061.71 218.077 1061.56 219.529H1065.41ZM1076.73 222.759C1076.73 223.795 1076.31 224.63 1075.47 225.264C1074.63 225.891 1073.52 226.204 1072.15 226.204C1071.24 226.204 1070.46 226.116 1069.82 225.939L1070.01 223.7C1070.65 223.979 1071.39 224.119 1072.23 224.119C1073.35 224.119 1073.91 223.741 1073.91 222.984C1073.91 222.589 1073.68 222.272 1073.24 222.033C1073.2 222.013 1072.72 221.826 1071.79 221.471C1070.38 220.939 1069.67 220.013 1069.67 218.69C1069.67 217.716 1070.03 216.932 1070.75 216.339C1071.54 215.692 1072.65 215.368 1074.09 215.368C1074.7 215.368 1075.32 215.436 1075.97 215.572L1075.85 217.668C1075.23 217.484 1074.61 217.392 1073.97 217.392C1072.94 217.392 1072.43 217.75 1072.43 218.465C1072.43 218.84 1072.66 219.15 1073.11 219.396L1074.58 219.989C1076.01 220.554 1076.73 221.478 1076.73 222.759ZM1084.71 225.918C1083.93 226.109 1083.18 226.204 1082.45 226.204C1081.31 226.204 1080.52 225.966 1080.08 225.489C1079.65 225.012 1079.44 224.163 1079.44 222.943V217.668H1077.64V215.593H1079.44V212.393L1082.09 211.677V215.593H1084.63V217.668H1082.09V222.228C1082.09 222.896 1082.19 223.349 1082.37 223.587C1082.55 223.826 1082.87 223.945 1083.33 223.945C1083.79 223.945 1084.19 223.897 1084.53 223.802L1084.71 225.918Z" fill="#363636"/>
<path d="M773.291 192L769.478 186.163H769.243V192H766.523V177.871C767.512 177.81 768.865 177.779 770.582 177.779C774.003 177.779 775.714 179.108 775.714 181.767C775.714 182.789 775.38 183.665 774.712 184.394C774.072 185.089 773.247 185.525 772.238 185.702C772.77 186.398 773.148 186.912 773.373 187.246L776.655 192H773.291ZM772.872 182.032C772.872 180.676 772.02 179.998 770.316 179.998C769.873 179.998 769.515 180.022 769.243 180.069V184.149C769.495 184.176 769.822 184.189 770.224 184.189C771.042 184.189 771.686 183.995 772.156 183.607C772.633 183.218 772.872 182.693 772.872 182.032ZM786.939 185.805C786.939 186.425 786.905 186.926 786.837 187.308H780.407C780.407 189.182 781.364 190.119 783.279 190.119C784.288 190.119 785.293 189.914 786.295 189.506L786.581 191.54C785.375 191.983 784.121 192.204 782.819 192.204C779.398 192.204 777.687 190.432 777.687 186.888C777.687 185.287 778.123 183.982 778.996 182.973C779.902 181.916 781.112 181.388 782.625 181.388C784.07 181.388 785.171 181.814 785.927 182.666C786.602 183.436 786.939 184.483 786.939 185.805ZM784.281 185.529C784.322 184.077 783.722 183.351 782.482 183.351C781.269 183.351 780.584 184.077 780.427 185.529H784.281ZM795.394 197.05V192.337C795.394 191.52 795.442 190.848 795.537 190.323L795.496 190.303C794.91 191.591 793.884 192.235 792.419 192.235C789.849 192.235 788.565 190.606 788.565 187.348C788.565 185.549 789.052 184.121 790.027 183.065C791.042 181.961 792.446 181.409 794.239 181.409C795.52 181.409 796.791 181.511 798.052 181.715V197.05H795.394ZM795.394 183.668C794.876 183.573 794.406 183.525 793.983 183.525C792.238 183.525 791.366 184.704 791.366 187.062C791.366 189.025 791.952 190.006 793.124 190.006C793.806 190.006 794.361 189.659 794.791 188.964C795.193 188.309 795.394 187.509 795.394 186.561V183.668ZM807.324 192C807.324 191.196 807.365 190.576 807.447 190.139H807.427C806.711 191.516 805.532 192.204 803.889 192.204C801.824 192.204 800.792 191.104 800.792 188.902V181.593H803.45V188.248C803.45 189.393 803.883 189.966 804.748 189.966C805.423 189.966 805.995 189.635 806.466 188.974C806.929 188.326 807.161 187.543 807.161 186.623V181.593H809.839V192H807.324ZM821.248 185.805C821.248 186.425 821.214 186.926 821.146 187.308H814.716C814.716 189.182 815.673 190.119 817.589 190.119C818.597 190.119 819.603 189.914 820.604 189.506L820.891 191.54C819.684 191.983 818.43 192.204 817.128 192.204C813.707 192.204 811.996 190.432 811.996 186.888C811.996 185.287 812.433 183.982 813.305 182.973C814.211 181.916 815.421 181.388 816.934 181.388C818.379 181.388 819.48 181.814 820.236 182.666C820.911 183.436 821.248 184.483 821.248 185.805ZM818.59 185.529C818.631 184.077 818.032 183.351 816.791 183.351C815.578 183.351 814.893 184.077 814.736 185.529H818.59ZM829.908 188.759C829.908 189.795 829.488 190.63 828.65 191.264C827.812 191.891 826.704 192.204 825.328 192.204C824.421 192.204 823.644 192.116 822.997 191.939L823.191 189.7C823.832 189.979 824.571 190.119 825.409 190.119C826.527 190.119 827.086 189.741 827.086 188.984C827.086 188.589 826.864 188.272 826.421 188.033C826.381 188.013 825.897 187.826 824.97 187.471C823.559 186.939 822.854 186.013 822.854 184.69C822.854 183.716 823.211 182.932 823.927 182.339C824.718 181.692 825.832 181.368 827.27 181.368C827.877 181.368 828.504 181.436 829.151 181.572L829.028 183.668C828.415 183.484 827.788 183.392 827.147 183.392C826.125 183.392 825.614 183.75 825.614 184.465C825.614 184.84 825.839 185.15 826.289 185.396L827.761 185.989C829.192 186.554 829.908 187.478 829.908 188.759ZM837.892 191.918C837.115 192.109 836.362 192.204 835.633 192.204C834.488 192.204 833.697 191.966 833.261 191.489C832.831 191.012 832.617 190.163 832.617 188.943V183.668H830.817V181.593H832.617V178.393L835.275 177.677V181.593H837.81V183.668H835.275V188.228C835.275 188.896 835.367 189.349 835.551 189.587C835.728 189.826 836.048 189.945 836.512 189.945C836.975 189.945 837.374 189.897 837.708 189.802L837.892 191.918ZM849.833 191.918C849.056 192.109 848.303 192.204 847.573 192.204C846.428 192.204 845.638 191.966 845.202 191.489C844.772 191.012 844.557 190.163 844.557 188.943V183.668H842.758V181.593H844.557V178.393L847.216 177.677V181.593H849.751V183.668H847.216V188.228C847.216 188.896 847.308 189.349 847.492 189.587C847.669 189.826 847.989 189.945 848.453 189.945C848.916 189.945 849.315 189.897 849.649 189.802L849.833 191.918ZM858.4 192V185.345C858.4 184.2 857.967 183.627 857.101 183.627C856.433 183.627 855.864 183.958 855.394 184.619C854.924 185.28 854.689 186.074 854.689 187.001V192H852.01V176.716H854.689V181.194C854.689 182.066 854.627 182.772 854.505 183.31H854.546C855.22 182.029 856.359 181.388 857.96 181.388C860.025 181.388 861.058 182.489 861.058 184.69V192H858.4ZM872.446 185.805C872.446 186.425 872.412 186.926 872.344 187.308H865.914C865.914 189.182 866.871 190.119 868.787 190.119C869.795 190.119 870.801 189.914 871.802 189.506L872.089 191.54C870.882 191.983 869.628 192.204 868.327 192.204C864.905 192.204 863.194 190.432 863.194 186.888C863.194 185.287 863.631 183.982 864.503 182.973C865.409 181.916 866.619 181.388 868.132 181.388C869.577 181.388 870.678 181.814 871.434 182.666C872.109 183.436 872.446 184.483 872.446 185.805ZM869.788 185.529C869.829 184.077 869.23 183.351 867.989 183.351C866.776 183.351 866.091 184.077 865.934 185.529H869.788ZM796.253 221.665C796.253 222.988 795.752 224.075 794.75 224.927C793.727 225.799 792.409 226.235 790.793 226.235C789.56 226.235 788.469 226.109 787.522 225.857L787.818 223.24C788.786 223.642 789.812 223.843 790.896 223.843C792.477 223.843 793.267 223.229 793.267 222.003C793.267 221.417 792.957 220.936 792.337 220.561C792.174 220.466 791.492 220.169 790.292 219.672C788.309 218.861 787.317 217.6 787.317 215.889C787.317 214.608 787.781 213.586 788.708 212.822C789.662 212.032 790.977 211.636 792.654 211.636C793.499 211.636 794.351 211.728 795.21 211.912L794.964 214.294C794.147 214.029 793.336 213.896 792.531 213.896C790.984 213.896 790.211 214.461 790.211 215.593C790.211 216.138 790.524 216.598 791.151 216.973C791.288 217.055 791.983 217.361 793.237 217.893C795.247 218.752 796.253 220.009 796.253 221.665ZM807.202 219.805C807.202 220.425 807.168 220.926 807.099 221.308H800.669C800.669 223.182 801.627 224.119 803.542 224.119C804.55 224.119 805.556 223.914 806.558 223.506L806.844 225.54C805.638 225.983 804.384 226.204 803.082 226.204C799.66 226.204 797.95 224.432 797.95 220.888C797.95 219.287 798.386 217.982 799.258 216.973C800.165 215.916 801.374 215.388 802.888 215.388C804.332 215.388 805.433 215.814 806.19 216.666C806.864 217.436 807.202 218.483 807.202 219.805ZM804.544 219.529C804.585 218.077 803.985 217.351 802.744 217.351C801.531 217.351 800.846 218.077 800.69 219.529H804.544ZM815.012 218.005C813.083 217.624 812.119 218.871 812.119 221.747V226H809.441V215.593H811.976C811.976 216.254 811.911 216.952 811.782 217.688H811.823C812.463 216.005 813.567 215.238 815.135 215.388L815.012 218.005ZM822.782 226H819.592L816.014 215.593H818.907L820.574 220.623C820.88 221.645 821.105 222.51 821.248 223.219H821.289C821.467 222.361 821.678 221.502 821.923 220.643L823.549 215.593H826.381L822.782 226ZM831.022 212.434C831.022 212.877 830.858 213.255 830.531 213.569C830.197 213.889 829.802 214.049 829.345 214.049C828.882 214.049 828.49 213.892 828.17 213.579C827.849 213.265 827.689 212.884 827.689 212.434C827.689 211.984 827.849 211.599 828.17 211.279C828.49 210.958 828.882 210.798 829.345 210.798C829.809 210.798 830.204 210.955 830.531 211.268C830.858 211.589 831.022 211.977 831.022 212.434ZM828.006 226V215.593H830.685V226H828.006ZM840.448 225.704C839.616 226.024 838.642 226.184 837.524 226.184C834.396 226.184 832.831 224.504 832.831 221.144C832.831 219.44 833.264 218.077 834.13 217.055C835.063 215.957 836.396 215.409 838.127 215.409C838.959 215.409 839.718 215.528 840.407 215.767L839.988 218.067C839.34 217.801 838.693 217.668 838.045 217.668C837.268 217.668 836.669 217.961 836.246 218.547C835.837 219.106 835.633 219.88 835.633 220.868C835.633 222.879 836.444 223.884 838.066 223.884C838.795 223.884 839.473 223.744 840.1 223.465L840.448 225.704ZM851.019 219.805C851.019 220.425 850.984 220.926 850.916 221.308H844.486C844.486 223.182 845.443 224.119 847.359 224.119C848.367 224.119 849.373 223.914 850.374 223.506L850.661 225.54C849.454 225.983 848.2 226.204 846.899 226.204C843.477 226.204 841.767 224.432 841.767 220.888C841.767 219.287 842.203 217.982 843.075 216.973C843.982 215.916 845.191 215.388 846.704 215.388C848.149 215.388 849.25 215.814 850.006 216.666C850.681 217.436 851.019 218.483 851.019 219.805ZM848.361 219.529C848.401 218.077 847.802 217.351 846.561 217.351C845.348 217.351 844.663 218.077 844.506 219.529H848.361Z" fill="#363636"/>
<path d="M546.219 182.135C546.219 183.614 545.742 184.81 544.788 185.723C543.772 186.684 542.379 187.164 540.606 187.164C540.259 187.164 539.932 187.151 539.625 187.124V192H536.906V177.871C538.201 177.81 539.519 177.779 540.862 177.779C542.586 177.779 543.912 178.158 544.839 178.914C545.759 179.671 546.219 180.744 546.219 182.135ZM543.397 182.411C543.397 180.823 542.491 180.029 540.678 180.029C540.324 180.029 539.973 180.035 539.625 180.049V184.793C539.973 184.868 540.358 184.905 540.78 184.905C542.525 184.905 543.397 184.074 543.397 182.411ZM553.365 192C553.365 191.284 553.399 190.698 553.467 190.242L553.447 190.221C552.881 191.543 551.774 192.204 550.124 192.204C549.204 192.204 548.472 191.922 547.926 191.356C547.408 190.811 547.149 190.105 547.149 189.24C547.149 188.033 547.695 187.12 548.785 186.5C549.821 185.907 551.28 185.61 553.161 185.61V185.232C553.161 184.592 553.021 184.132 552.741 183.852C552.455 183.559 551.975 183.412 551.3 183.412C550.305 183.412 549.255 183.651 548.151 184.128L547.712 182.073C548.898 181.603 550.21 181.368 551.648 181.368C553.195 181.368 554.295 181.688 554.95 182.329C555.543 182.901 555.839 183.801 555.839 185.028V189.322C555.839 190.344 555.866 191.237 555.921 192H553.365ZM553.161 187.369C550.871 187.369 549.726 187.894 549.726 188.943C549.726 189.291 549.838 189.577 550.063 189.802C550.295 190.041 550.601 190.16 550.983 190.16C551.61 190.16 552.135 189.897 552.557 189.373C552.96 188.875 553.161 188.299 553.161 187.645V187.369ZM563.404 192.583C562.743 194.334 562.004 195.558 561.186 196.253C560.423 196.894 559.417 197.214 558.17 197.214C557.659 197.214 557.172 197.166 556.708 197.071L557.025 194.76C557.468 194.903 557.908 194.975 558.344 194.975C559.448 194.975 560.235 194.29 560.705 192.92L561.043 192L557.189 181.593H560.184L561.585 185.57C561.891 186.517 562.164 187.475 562.402 188.442H562.423C562.655 187.502 562.989 186.398 563.425 185.13L564.662 181.593H567.535L563.404 192.583ZM578.872 191.918C578.095 192.109 577.342 192.204 576.613 192.204C575.468 192.204 574.677 191.966 574.241 191.489C573.812 191.012 573.597 190.163 573.597 188.943V183.668H571.798V181.593H573.597V178.393L576.255 177.677V181.593H578.79V183.668H576.255V188.228C576.255 188.896 576.347 189.349 576.531 189.587C576.708 189.826 577.029 189.945 577.492 189.945C577.955 189.945 578.354 189.897 578.688 189.802L578.872 191.918ZM587.439 192V185.345C587.439 184.2 587.006 183.627 586.141 183.627C585.473 183.627 584.904 183.958 584.434 184.619C583.963 185.28 583.728 186.074 583.728 187.001V192H581.05V176.716H583.728V181.194C583.728 182.066 583.667 182.772 583.544 183.31H583.585C584.26 182.029 585.398 181.388 587 181.388C589.065 181.388 590.097 182.489 590.097 184.69V192H587.439ZM601.486 185.805C601.486 186.425 601.452 186.926 601.384 187.308H594.953C594.953 189.182 595.911 190.119 597.826 190.119C598.835 190.119 599.84 189.914 600.842 189.506L601.128 191.54C599.922 191.983 598.668 192.204 597.366 192.204C593.945 192.204 592.234 190.432 592.234 186.888C592.234 185.287 592.67 183.982 593.542 182.973C594.449 181.916 595.659 181.388 597.172 181.388C598.617 181.388 599.717 181.814 600.474 182.666C601.149 183.436 601.486 184.483 601.486 185.805ZM598.828 185.529C598.869 184.077 598.269 183.351 597.029 183.351C595.815 183.351 595.13 184.077 594.974 185.529H598.828ZM614.009 178.914C613.648 178.792 613.215 178.73 612.711 178.73C611.58 178.73 611.014 179.391 611.014 180.714V181.593H613.447V183.668H611.014V192H608.356V183.668H606.536V181.593H608.356V180.734C608.356 177.946 609.74 176.553 612.507 176.553C613.154 176.553 613.72 176.607 614.204 176.716L614.009 178.914ZM623.589 185.805C623.589 186.425 623.555 186.926 623.486 187.308H617.056C617.056 189.182 618.014 190.119 619.929 190.119C620.937 190.119 621.943 189.914 622.945 189.506L623.231 191.54C622.024 191.983 620.77 192.204 619.469 192.204C616.047 192.204 614.337 190.432 614.337 186.888C614.337 185.287 614.773 183.982 615.645 182.973C616.552 181.916 617.761 181.388 619.274 181.388C620.719 181.388 621.82 181.814 622.577 182.666C623.251 183.436 623.589 184.483 623.589 185.805ZM620.931 185.529C620.971 184.077 620.372 183.351 619.131 183.351C617.918 183.351 617.233 184.077 617.076 185.529H620.931ZM634.425 185.805C634.425 186.425 634.391 186.926 634.323 187.308H627.893C627.893 189.182 628.85 190.119 630.765 190.119C631.774 190.119 632.779 189.914 633.781 189.506L634.067 191.54C632.861 191.983 631.607 192.204 630.305 192.204C626.884 192.204 625.173 190.432 625.173 186.888C625.173 185.287 625.609 183.982 626.482 182.973C627.388 181.916 628.598 181.388 630.111 181.388C631.556 181.388 632.657 181.814 633.413 182.666C634.088 183.436 634.425 184.483 634.425 185.805ZM631.767 185.529C631.808 184.077 631.208 183.351 629.968 183.351C628.755 183.351 628.07 184.077 627.913 185.529H631.767ZM643.084 188.759C643.084 189.795 642.665 190.63 641.827 191.264C640.989 191.891 639.881 192.204 638.504 192.204C637.598 192.204 636.821 192.116 636.173 191.939L636.368 189.7C637.008 189.979 637.748 190.119 638.586 190.119C639.704 190.119 640.263 189.741 640.263 188.984C640.263 188.589 640.041 188.272 639.598 188.033C639.557 188.013 639.073 187.826 638.147 187.471C636.736 186.939 636.03 186.013 636.03 184.69C636.03 183.716 636.388 182.932 637.104 182.339C637.894 181.692 639.009 181.368 640.447 181.368C641.053 181.368 641.68 181.436 642.328 181.572L642.205 183.668C641.592 183.484 640.965 183.392 640.324 183.392C639.302 183.392 638.791 183.75 638.791 184.465C638.791 184.84 639.015 185.15 639.465 185.396L640.937 185.989C642.369 186.554 643.084 187.478 643.084 188.759Z" fill="#363636"/>
<path d="M326.055 191.52C324.917 191.949 323.69 192.164 322.375 192.164C320.078 192.164 318.371 191.475 317.253 190.098C316.313 188.933 315.842 187.362 315.842 185.386C315.842 183.068 316.432 181.235 317.611 179.885C318.851 178.454 320.62 177.739 322.917 177.739C323.987 177.739 324.992 177.878 325.933 178.158L325.555 180.673C324.696 180.339 323.776 180.172 322.794 180.172C321.506 180.172 320.514 180.618 319.819 181.511C319.165 182.349 318.838 183.487 318.838 184.926C318.838 188.108 320.211 189.7 322.958 189.7C323.939 189.7 324.832 189.502 325.636 189.107L326.055 191.52ZM334.868 192V185.345C334.868 184.2 334.435 183.627 333.57 183.627C332.902 183.627 332.333 183.958 331.862 184.619C331.392 185.28 331.157 186.074 331.157 187.001V192H328.478V176.716H331.157V181.194C331.157 182.066 331.096 182.772 330.973 183.31H331.014C331.688 182.029 332.827 181.388 334.428 181.388C336.493 181.388 337.526 182.489 337.526 184.69V192H334.868ZM349.835 186.602C349.835 188.231 349.337 189.574 348.342 190.63C347.34 191.68 346.066 192.204 344.519 192.204C341.268 192.204 339.642 190.46 339.642 186.97C339.642 185.341 340.133 184.005 341.114 182.963C342.109 181.913 343.391 181.388 344.958 181.388C346.492 181.388 347.678 181.807 348.516 182.646C349.395 183.539 349.835 184.857 349.835 186.602ZM347.074 186.745C347.074 184.68 346.308 183.648 344.774 183.648C344.12 183.648 343.575 183.89 343.139 184.373C342.648 184.926 342.402 185.702 342.402 186.704C342.402 188.851 343.179 189.925 344.733 189.925C345.422 189.925 345.977 189.659 346.4 189.127C346.85 188.562 347.074 187.768 347.074 186.745ZM361.571 186.602C361.571 188.231 361.074 189.574 360.078 190.63C359.077 191.68 357.802 192.204 356.255 192.204C353.004 192.204 351.378 190.46 351.378 186.97C351.378 185.341 351.869 184.005 352.851 182.963C353.846 181.913 355.127 181.388 356.695 181.388C358.228 181.388 359.414 181.807 360.252 182.646C361.131 183.539 361.571 184.857 361.571 186.602ZM358.811 186.745C358.811 184.68 358.044 183.648 356.511 183.648C355.856 183.648 355.311 183.89 354.875 184.373C354.384 184.926 354.139 185.702 354.139 186.704C354.139 188.851 354.916 189.925 356.47 189.925C357.158 189.925 357.713 189.659 358.136 189.127C358.586 188.562 358.811 187.768 358.811 186.745ZM370.169 188.759C370.169 189.795 369.75 190.63 368.911 191.264C368.073 191.891 366.966 192.204 365.589 192.204C364.682 192.204 363.905 192.116 363.258 191.939L363.452 189.7C364.093 189.979 364.832 190.119 365.671 190.119C366.788 190.119 367.347 189.741 367.347 188.984C367.347 188.589 367.126 188.272 366.683 188.033C366.642 188.013 366.158 187.826 365.231 187.471C363.82 186.939 363.115 186.013 363.115 184.69C363.115 183.716 363.473 182.932 364.188 182.339C364.979 181.692 366.093 181.368 367.531 181.368C368.138 181.368 368.765 181.436 369.412 181.572L369.29 183.668C368.676 183.484 368.049 183.392 367.409 183.392C366.386 183.392 365.875 183.75 365.875 184.465C365.875 184.84 366.1 185.15 366.55 185.396L368.022 185.989C369.453 186.554 370.169 187.478 370.169 188.759ZM381.118 185.805C381.118 186.425 381.084 186.926 381.016 187.308H374.585C374.585 189.182 375.543 190.119 377.458 190.119C378.467 190.119 379.472 189.914 380.474 189.506L380.76 191.54C379.554 191.983 378.3 192.204 376.998 192.204C373.577 192.204 371.866 190.432 371.866 186.888C371.866 185.287 372.302 183.982 373.174 182.973C374.081 181.916 375.291 181.388 376.804 181.388C378.249 181.388 379.349 181.814 380.106 182.666C380.781 183.436 381.118 184.483 381.118 185.805ZM378.46 185.529C378.501 184.077 377.901 183.351 376.661 183.351C375.447 183.351 374.762 184.077 374.606 185.529H378.46ZM393.008 192C393.008 191.284 393.042 190.698 393.11 190.242L393.089 190.221C392.524 191.543 391.416 192.204 389.767 192.204C388.847 192.204 388.114 191.922 387.569 191.356C387.051 190.811 386.792 190.105 386.792 189.24C386.792 188.033 387.337 187.12 388.428 186.5C389.463 185.907 390.922 185.61 392.803 185.61V185.232C392.803 184.592 392.663 184.132 392.384 183.852C392.098 183.559 391.617 183.412 390.942 183.412C389.947 183.412 388.898 183.651 387.794 184.128L387.354 182.073C388.54 181.603 389.852 181.368 391.29 181.368C392.837 181.368 393.938 181.688 394.592 182.329C395.185 182.901 395.482 183.801 395.482 185.028V189.322C395.482 190.344 395.509 191.237 395.563 192H393.008ZM392.803 187.369C390.513 187.369 389.368 187.894 389.368 188.943C389.368 189.291 389.481 189.577 389.705 189.802C389.937 190.041 390.244 190.16 390.626 190.16C391.253 190.16 391.777 189.897 392.2 189.373C392.602 188.875 392.803 188.299 392.803 187.645V187.369ZM329.48 216.135C329.48 217.614 329.003 218.81 328.049 219.723C327.034 220.684 325.64 221.164 323.868 221.164C323.52 221.164 323.193 221.151 322.886 221.124V226H320.167V211.871C321.462 211.81 322.781 211.779 324.123 211.779C325.848 211.779 327.173 212.158 328.1 212.914C329.02 213.671 329.48 214.744 329.48 216.135ZM326.659 216.411C326.659 214.823 325.752 214.029 323.939 214.029C323.585 214.029 323.234 214.035 322.886 214.049V218.793C323.234 218.868 323.619 218.905 324.041 218.905C325.786 218.905 326.659 218.074 326.659 216.411ZM336.626 226C336.626 225.284 336.66 224.698 336.729 224.242L336.708 224.221C336.142 225.543 335.035 226.204 333.386 226.204C332.465 226.204 331.733 225.922 331.188 225.356C330.67 224.811 330.411 224.105 330.411 223.24C330.411 222.033 330.956 221.12 332.046 220.5C333.082 219.907 334.541 219.61 336.422 219.61V219.232C336.422 218.592 336.282 218.132 336.003 217.852C335.716 217.559 335.236 217.412 334.561 217.412C333.566 217.412 332.517 217.651 331.412 218.128L330.973 216.073C332.159 215.603 333.471 215.368 334.909 215.368C336.456 215.368 337.557 215.688 338.211 216.329C338.804 216.901 339.1 217.801 339.1 219.028V223.322C339.1 224.344 339.128 225.237 339.182 226H336.626ZM336.422 221.369C334.132 221.369 332.987 221.894 332.987 222.943C332.987 223.291 333.099 223.577 333.324 223.802C333.556 224.041 333.863 224.16 334.244 224.16C334.871 224.16 335.396 223.897 335.819 223.373C336.221 222.875 336.422 222.299 336.422 221.645V221.369ZM348.925 225.704C348.093 226.024 347.119 226.184 346.001 226.184C342.873 226.184 341.309 224.504 341.309 221.144C341.309 219.44 341.741 218.077 342.607 217.055C343.541 215.957 344.873 215.409 346.604 215.409C347.436 215.409 348.196 215.528 348.884 215.767L348.465 218.067C347.817 217.801 347.17 217.668 346.522 217.668C345.745 217.668 345.146 217.961 344.723 218.547C344.314 219.106 344.11 219.88 344.11 220.868C344.11 222.879 344.921 223.884 346.543 223.884C347.272 223.884 347.95 223.744 348.577 223.465L348.925 225.704ZM356.746 226L353.515 220.847V226H350.837V210.716H353.515V219.927L356.551 215.593H359.823L356.173 220.347L360.089 226H356.746ZM367.357 226C367.357 225.284 367.391 224.698 367.46 224.242L367.439 224.221C366.874 225.543 365.766 226.204 364.117 226.204C363.197 226.204 362.464 225.922 361.919 225.356C361.401 224.811 361.142 224.105 361.142 223.24C361.142 222.033 361.687 221.12 362.777 220.5C363.813 219.907 365.272 219.61 367.153 219.61V219.232C367.153 218.592 367.013 218.132 366.734 217.852C366.448 217.559 365.967 217.412 365.292 217.412C364.297 217.412 363.248 217.651 362.144 218.128L361.704 216.073C362.89 215.603 364.202 215.368 365.64 215.368C367.187 215.368 368.288 215.688 368.942 216.329C369.535 216.901 369.831 217.801 369.831 219.028V223.322C369.831 224.344 369.859 225.237 369.913 226H367.357ZM367.153 221.369C364.863 221.369 363.718 221.894 363.718 222.943C363.718 223.291 363.83 223.577 364.055 223.802C364.287 224.041 364.594 224.16 364.975 224.16C365.602 224.16 366.127 223.897 366.55 223.373C366.952 222.875 367.153 222.299 367.153 221.645V221.369ZM382.15 227.114C382.15 228.266 381.629 229.234 380.586 230.018C379.509 230.842 378.126 231.255 376.436 231.255C375.038 231.255 373.951 230.992 373.174 230.468C372.377 229.929 371.978 229.159 371.978 228.157C371.978 227.033 372.517 226.181 373.594 225.601C372.905 225.281 372.561 224.749 372.561 224.006C372.561 223.127 372.973 222.507 373.798 222.146C372.769 221.587 372.254 220.64 372.254 219.304C372.254 218.193 372.639 217.273 373.41 216.543C374.241 215.76 375.383 215.368 376.834 215.368C377.373 215.368 377.938 215.443 378.531 215.593H382.069V217.688H380.648C380.995 218.016 381.169 218.455 381.169 219.007C381.169 220.152 380.798 221.055 380.055 221.716C379.271 222.412 378.157 222.759 376.712 222.759C376.425 222.759 376.153 222.729 375.894 222.667C375.56 222.817 375.393 223.042 375.393 223.342C375.393 223.58 375.509 223.744 375.74 223.833C375.965 223.914 376.388 223.966 377.008 223.986L378.613 224.058C380.971 224.139 382.15 225.158 382.15 227.114ZM379.492 227.462C379.492 226.61 378.947 226.164 377.857 226.123L375.577 226.061C374.936 226.525 374.616 227.056 374.616 227.656C374.616 228.133 374.817 228.512 375.219 228.791C375.621 229.064 376.16 229.2 376.834 229.2C377.679 229.2 378.341 229.033 378.818 228.699C379.267 228.385 379.492 227.973 379.492 227.462ZM378.613 219.15C378.613 217.924 377.986 217.31 376.732 217.31C376.139 217.31 375.666 217.484 375.311 217.832C374.97 218.166 374.8 218.598 374.8 219.13C374.8 220.33 375.444 220.929 376.732 220.929C377.986 220.929 378.613 220.336 378.613 219.15ZM392.537 219.805C392.537 220.425 392.503 220.926 392.435 221.308H386.005C386.005 223.182 386.962 224.119 388.877 224.119C389.886 224.119 390.891 223.914 391.893 223.506L392.179 225.54C390.973 225.983 389.719 226.204 388.417 226.204C384.996 226.204 383.285 224.432 383.285 220.888C383.285 219.287 383.721 217.982 384.594 216.973C385.5 215.916 386.71 215.388 388.223 215.388C389.668 215.388 390.769 215.814 391.525 216.666C392.2 217.436 392.537 218.483 392.537 219.805ZM389.879 219.529C389.92 218.077 389.32 217.351 388.08 217.351C386.867 217.351 386.182 218.077 386.025 219.529H389.879Z" fill="#363636"/>
<path d="M72.3977 191.52C71.2595 191.949 70.0328 192.164 68.7174 192.164C66.4205 192.164 64.7133 191.475 63.5955 190.098C62.655 188.933 62.1847 187.362 62.1847 185.386C62.1847 183.068 62.7742 181.235 63.9533 179.885C65.1937 178.454 66.9624 177.739 69.2592 177.739C70.3292 177.739 71.3345 177.878 72.2751 178.158L71.8968 180.673C71.038 180.339 70.1179 180.172 69.1365 180.172C67.8484 180.172 66.8567 180.618 66.1615 181.511C65.5073 182.349 65.1801 183.487 65.1801 184.926C65.1801 188.108 66.5534 189.7 69.3001 189.7C70.2815 189.7 71.1743 189.502 71.9786 189.107L72.3977 191.52ZM80.3105 184.005C78.3817 183.624 77.4173 184.871 77.4173 187.747V192H74.7389V181.593H77.2742C77.2742 182.254 77.2095 182.952 77.08 183.688H77.1209C77.7615 182.005 78.8656 181.238 80.4332 181.388L80.3105 184.005ZM90.5338 185.805C90.5338 186.425 90.4997 186.926 90.4315 187.308H84.0011C84.0011 189.182 84.9587 190.119 86.8739 190.119C87.8825 190.119 88.8878 189.914 89.8897 189.506L90.176 191.54C88.9696 191.983 87.7156 192.204 86.4138 192.204C82.9924 192.204 81.2817 190.432 81.2817 186.888C81.2817 185.287 81.7179 183.982 82.5903 182.973C83.4968 181.916 84.7065 181.388 86.2196 181.388C87.6645 181.388 88.7652 181.814 89.5217 182.666C90.1964 183.436 90.5338 184.483 90.5338 185.805ZM87.8757 185.529C87.9166 184.077 87.3169 183.351 86.0764 183.351C84.8633 183.351 84.1783 184.077 84.0216 185.529H87.8757ZM98.4159 192C98.4159 191.284 98.45 190.698 98.5181 190.242L98.4977 190.221C97.932 191.543 96.8245 192.204 95.1751 192.204C94.255 192.204 93.5224 191.922 92.9771 191.356C92.4592 190.811 92.2002 190.105 92.2002 189.24C92.2002 188.033 92.7454 187.12 93.8359 186.5C94.8718 185.907 96.3304 185.61 98.2114 185.61V185.232C98.2114 184.592 98.0717 184.132 97.7923 183.852C97.506 183.559 97.0255 183.412 96.3508 183.412C95.3557 183.412 94.3062 183.651 93.202 184.128L92.7624 182.073C93.9483 181.603 95.2603 181.368 96.6984 181.368C98.2455 181.368 99.3462 181.688 100.001 182.329C100.593 182.901 100.89 183.801 100.89 185.028V189.322C100.89 190.344 100.917 191.237 100.972 192H98.4159ZM98.2114 187.369C95.9214 187.369 94.7764 187.894 94.7764 188.943C94.7764 189.291 94.8889 189.577 95.1138 189.802C95.3455 190.041 95.6522 190.16 96.0339 190.16C96.6609 190.16 97.1857 189.897 97.6083 189.373C98.0104 188.875 98.2114 188.299 98.2114 187.645V187.369ZM109.304 191.918C108.527 192.109 107.774 192.204 107.044 192.204C105.899 192.204 105.109 191.966 104.673 191.489C104.243 191.012 104.028 190.163 104.028 188.943V183.668H102.229V181.593H104.028V178.393L106.687 177.677V181.593H109.222V183.668H106.687V188.228C106.687 188.896 106.779 189.349 106.963 189.587C107.14 189.826 107.46 189.945 107.924 189.945C108.387 189.945 108.786 189.897 109.12 189.802L109.304 191.918ZM119.813 185.805C119.813 186.425 119.779 186.926 119.711 187.308H113.281C113.281 189.182 114.238 190.119 116.153 190.119C117.162 190.119 118.167 189.914 119.169 189.506L119.455 191.54C118.249 191.983 116.995 192.204 115.693 192.204C112.272 192.204 110.561 190.432 110.561 186.888C110.561 185.287 110.997 183.982 111.87 182.973C112.776 181.916 113.986 181.388 115.499 181.388C116.944 181.388 118.045 181.814 118.801 182.666C119.476 183.436 119.813 184.483 119.813 185.805ZM117.155 185.529C117.196 184.077 116.596 183.351 115.356 183.351C114.143 183.351 113.458 184.077 113.301 185.529H117.155ZM131.703 192C131.703 191.284 131.737 190.698 131.805 190.242L131.785 190.221C131.219 191.543 130.111 192.204 128.462 192.204C127.542 192.204 126.809 191.922 126.264 191.356C125.746 190.811 125.487 190.105 125.487 189.24C125.487 188.033 126.032 187.12 127.123 186.5C128.159 185.907 129.617 185.61 131.498 185.61V185.232C131.498 184.592 131.359 184.132 131.079 183.852C130.793 183.559 130.312 183.412 129.638 183.412C128.643 183.412 127.593 183.651 126.489 184.128L126.049 182.073C127.235 181.603 128.547 181.368 129.985 181.368C131.532 181.368 132.633 181.688 133.287 182.329C133.88 182.901 134.177 183.801 134.177 185.028V189.322C134.177 190.344 134.204 191.237 134.259 192H131.703ZM131.498 187.369C129.208 187.369 128.063 187.894 128.063 188.943C128.063 189.291 128.176 189.577 128.401 189.802C128.632 190.041 128.939 190.16 129.321 190.16C129.948 190.16 130.473 189.897 130.895 189.373C131.297 188.875 131.498 188.299 131.498 187.645V187.369ZM149.338 192L144.962 184.21C144.363 183.038 143.943 182.118 143.705 181.45C143.8 182.888 143.848 185.127 143.848 188.166V192H141.231V177.871H144.829L149.103 185.467C149.58 186.306 150.033 187.25 150.462 188.299C150.367 186.636 150.319 184.346 150.319 181.429V177.871H152.936V192H149.338ZM163.978 185.805C163.978 186.425 163.944 186.926 163.875 187.308H157.445C157.445 189.182 158.403 190.119 160.318 190.119C161.326 190.119 162.332 189.914 163.334 189.506L163.62 191.54C162.413 191.983 161.159 192.204 159.858 192.204C156.436 192.204 154.726 190.432 154.726 186.888C154.726 185.287 155.162 183.982 156.034 182.973C156.941 181.916 158.15 181.388 159.663 181.388C161.108 181.388 162.209 181.814 162.966 182.666C163.64 183.436 163.978 184.483 163.978 185.805ZM161.32 185.529C161.36 184.077 160.761 183.351 159.52 183.351C158.307 183.351 157.622 184.077 157.465 185.529H161.32ZM178.127 192H175.213L173.71 187.389C173.485 186.612 173.288 185.832 173.117 185.048H173.097C172.926 185.839 172.691 186.711 172.391 187.665L171.073 192H168.302L165.123 181.593H168.057L169.161 185.529C169.617 187.253 169.89 188.299 169.979 188.667H169.999C170.149 187.863 170.401 186.858 170.756 185.651L172.013 181.593H174.589L175.867 185.529C176.283 186.919 176.562 187.965 176.706 188.667H176.746C176.91 187.822 177.145 186.817 177.452 185.651L178.648 181.593H181.388L178.127 192ZM94.8275 226L93.8666 223.107H88.5096L87.5179 226H84.7781L89.6546 211.871H92.8647L97.8434 226H94.8275ZM91.7299 216.748C91.4845 216.005 91.2971 215.354 91.1676 214.795H91.1472C90.9223 215.634 90.7382 216.285 90.5951 216.748L89.1536 220.95H93.1714L91.7299 216.748ZM105.777 225.704C104.945 226.024 103.971 226.184 102.853 226.184C99.7245 226.184 98.1603 224.504 98.1603 221.144C98.1603 219.44 98.5931 218.077 99.4587 217.055C100.392 215.957 101.725 215.409 103.456 215.409C104.287 215.409 105.047 215.528 105.736 215.767L105.317 218.067C104.669 217.801 104.022 217.668 103.374 217.668C102.597 217.668 101.997 217.961 101.575 218.547C101.166 219.106 100.961 219.88 100.961 220.868C100.961 222.879 101.773 223.884 103.395 223.884C104.124 223.884 104.802 223.744 105.429 223.465L105.777 225.704ZM114.712 225.704C113.88 226.024 112.906 226.184 111.788 226.184C108.66 226.184 107.095 224.504 107.095 221.144C107.095 219.44 107.528 218.077 108.394 217.055C109.328 215.957 110.66 215.409 112.391 215.409C113.223 215.409 113.983 215.528 114.671 215.767L114.252 218.067C113.604 217.801 112.957 217.668 112.309 217.668C111.532 217.668 110.933 217.961 110.51 218.547C110.101 219.106 109.897 219.88 109.897 220.868C109.897 222.879 110.708 223.884 112.33 223.884C113.059 223.884 113.737 223.744 114.364 223.465L114.712 225.704ZM126.203 220.602C126.203 222.231 125.705 223.574 124.71 224.63C123.708 225.68 122.434 226.204 120.887 226.204C117.636 226.204 116.01 224.46 116.01 220.97C116.01 219.341 116.501 218.005 117.482 216.963C118.477 215.913 119.759 215.388 121.326 215.388C122.86 215.388 124.046 215.807 124.884 216.646C125.763 217.539 126.203 218.857 126.203 220.602ZM123.442 220.745C123.442 218.68 122.676 217.648 121.142 217.648C120.488 217.648 119.943 217.89 119.506 218.373C119.016 218.926 118.77 219.702 118.77 220.704C118.77 222.851 119.547 223.925 121.101 223.925C121.79 223.925 122.345 223.659 122.768 223.127C123.218 222.562 123.442 221.768 123.442 220.745ZM134.729 226C134.729 225.196 134.77 224.576 134.852 224.139H134.831C134.115 225.516 132.936 226.204 131.294 226.204C129.229 226.204 128.196 225.104 128.196 222.902V215.593H130.854V222.248C130.854 223.393 131.287 223.966 132.153 223.966C132.827 223.966 133.4 223.635 133.87 222.974C134.334 222.326 134.565 221.543 134.565 220.623V215.593H137.244V226H134.729ZM146.527 226V219.345C146.527 218.2 146.094 217.627 145.228 217.627C144.56 217.627 143.991 217.958 143.521 218.619C143.051 219.273 142.815 220.057 142.815 220.97V226H140.137V215.593H142.672C142.672 216.329 142.621 216.949 142.519 217.453H142.55C143.258 216.077 144.438 215.388 146.087 215.388C148.152 215.388 149.185 216.489 149.185 218.69V226H146.527ZM157.588 225.918C156.811 226.109 156.058 226.204 155.329 226.204C154.184 226.204 153.393 225.966 152.957 225.489C152.528 225.012 152.313 224.163 152.313 222.943V217.668H150.514V215.593H152.313V212.393L154.971 211.677V215.593H157.506V217.668H154.971V222.228C154.971 222.896 155.063 223.349 155.247 223.587C155.424 223.826 155.744 223.945 156.208 223.945C156.671 223.945 157.07 223.897 157.404 223.802L157.588 225.918Z" fill="#0F898C"/>
<defs>
<filter id="filter0_d_224_7018" x="1147.64" y="40.1169" width="260.081" height="32.2322" filterUnits="userSpaceOnUse" color-interpolation-filters="sRGB">
<feFlood flood-opacity="0" result="BackgroundImageFix"/>
<feColorMatrix in="SourceAlpha" type="matrix" values="0 0 0 0 0 0 0 0 0 0 0 0 0 0 0 0 0 0 127 0" result="hardAlpha"/>
<feOffset dy="-5.55727"/>
<feGaussianBlur stdDeviation="7.85957"/>
<feComposite in2="hardAlpha" operator="out"/>
<feColorMatrix type="matrix" values="0 0 0 0 0 0 0 0 0 0 0 0 0 0 0 0 0 0 0.88 0"/>
<feBlend mode="normal" in2="BackgroundImageFix" result="effect1_dropShadow_224_7018"/>
<feBlend mode="normal" in="SourceGraphic" in2="effect1_dropShadow_224_7018" result="shape"/>
</filter>
<filter id="filter1_d_224_7018" x="1230.2" y="16.2915" width="140.712" height="136.749" filterUnits="userSpaceOnUse" color-interpolation-filters="sRGB">
<feFlood flood-opacity="0" result="BackgroundImageFix"/>
<feColorMatrix in="SourceAlpha" type="matrix" values="0 0 0 0 0 0 0 0 0 0 0 0 0 0 0 0 0 0 127 0" result="hardAlpha"/>
<feOffset dx="27.7864" dy="23.8169"/>
<feGaussianBlur stdDeviation="9.9237"/>
<feComposite in2="hardAlpha" operator="out"/>
<feColorMatrix type="matrix" values="0 0 0 0 0 0 0 0 0 0 0 0 0 0 0 0 0 0 0.1 0"/>
<feBlend mode="normal" in2="BackgroundImageFix" result="effect1_dropShadow_224_7018"/>
<feBlend mode="normal" in="SourceGraphic" in2="effect1_dropShadow_224_7018" result="shape"/>
</filter>
<filter id="filter2_d_224_7018" x="0.280858" y="40.1171" width="260.081" height="32.2322" filterUnits="userSpaceOnUse" color-interpolation-filters="sRGB">
<feFlood flood-opacity="0" result="BackgroundImageFix"/>
<feColorMatrix in="SourceAlpha" type="matrix" values="0 0 0 0 0 0 0 0 0 0 0 0 0 0 0 0 0 0 127 0" result="hardAlpha"/>
<feOffset dy="-5.55727"/>
<feGaussianBlur stdDeviation="7.85957"/>
<feComposite in2="hardAlpha" operator="out"/>
<feColorMatrix type="matrix" values="0 0 0 0 0 0 0 0 0 0 0 0 0 0 0 0 0 0 0.88 0"/>
<feBlend mode="normal" in2="BackgroundImageFix" result="effect1_dropShadow_224_7018"/>
<feBlend mode="normal" in="SourceGraphic" in2="effect1_dropShadow_224_7018" result="shape"/>
</filter>
<filter id="filter3_d_224_7018" x="82.8398" y="16.292" width="140.712" height="136.749" filterUnits="userSpaceOnUse" color-interpolation-filters="sRGB">
<feFlood flood-opacity="0" result="BackgroundImageFix"/>
<feColorMatrix in="SourceAlpha" type="matrix" values="0 0 0 0 0 0 0 0 0 0 0 0 0 0 0 0 0 0 127 0" result="hardAlpha"/>
<feOffset dx="27.7864" dy="23.8169"/>
<feGaussianBlur stdDeviation="9.9237"/>
<feComposite in2="hardAlpha" operator="out"/>
<feColorMatrix type="matrix" values="0 0 0 0 0 0 0 0 0 0 0 0 0 0 0 0 0 0 0.1 0"/>
<feBlend mode="normal" in2="BackgroundImageFix" result="effect1_dropShadow_224_7018"/>
<feBlend mode="normal" in="SourceGraphic" in2="effect1_dropShadow_224_7018" result="shape"/>
</filter>
<filter id="filter4_d_224_7018" x="229.755" y="40.1169" width="260.081" height="32.2322" filterUnits="userSpaceOnUse" color-interpolation-filters="sRGB">
<feFlood flood-opacity="0" result="BackgroundImageFix"/>
<feColorMatrix in="SourceAlpha" type="matrix" values="0 0 0 0 0 0 0 0 0 0 0 0 0 0 0 0 0 0 127 0" result="hardAlpha"/>
<feOffset dy="-5.55727"/>
<feGaussianBlur stdDeviation="7.85957"/>
<feComposite in2="hardAlpha" operator="out"/>
<feColorMatrix type="matrix" values="0 0 0 0 0 0 0 0 0 0 0 0 0 0 0 0 0 0 0.88 0"/>
<feBlend mode="normal" in2="BackgroundImageFix" result="effect1_dropShadow_224_7018"/>
<feBlend mode="normal" in="SourceGraphic" in2="effect1_dropShadow_224_7018" result="shape"/>
</filter>
<filter id="filter5_d_224_7018" x="312.312" y="16.2917" width="140.712" height="136.749" filterUnits="userSpaceOnUse" color-interpolation-filters="sRGB">
<feFlood flood-opacity="0" result="BackgroundImageFix"/>
<feColorMatrix in="SourceAlpha" type="matrix" values="0 0 0 0 0 0 0 0 0 0 0 0 0 0 0 0 0 0 127 0" result="hardAlpha"/>
<feOffset dx="27.7864" dy="23.8169"/>
<feGaussianBlur stdDeviation="9.9237"/>
<feComposite in2="hardAlpha" operator="out"/>
<feColorMatrix type="matrix" values="0 0 0 0 0 0 0 0 0 0 0 0 0 0 0 0 0 0 0.1 0"/>
<feBlend mode="normal" in2="BackgroundImageFix" result="effect1_dropShadow_224_7018"/>
<feBlend mode="normal" in="SourceGraphic" in2="effect1_dropShadow_224_7018" result="shape"/>
</filter>
<filter id="filter6_d_224_7018" x="459.22" y="40.1169" width="260.081" height="32.2322" filterUnits="userSpaceOnUse" color-interpolation-filters="sRGB">
<feFlood flood-opacity="0" result="BackgroundImageFix"/>
<feColorMatrix in="SourceAlpha" type="matrix" values="0 0 0 0 0 0 0 0 0 0 0 0 0 0 0 0 0 0 127 0" result="hardAlpha"/>
<feOffset dy="-5.55727"/>
<feGaussianBlur stdDeviation="7.85957"/>
<feComposite in2="hardAlpha" operator="out"/>
<feColorMatrix type="matrix" values="0 0 0 0 0 0 0 0 0 0 0 0 0 0 0 0 0 0 0.88 0"/>
<feBlend mode="normal" in2="BackgroundImageFix" result="effect1_dropShadow_224_7018"/>
<feBlend mode="normal" in="SourceGraphic" in2="effect1_dropShadow_224_7018" result="shape"/>
</filter>
<filter id="filter7_d_224_7018" x="541.779" y="16.2917" width="140.712" height="136.749" filterUnits="userSpaceOnUse" color-interpolation-filters="sRGB">
<feFlood flood-opacity="0" result="BackgroundImageFix"/>
<feColorMatrix in="SourceAlpha" type="matrix" values="0 0 0 0 0 0 0 0 0 0 0 0 0 0 0 0 0 0 127 0" result="hardAlpha"/>
<feOffset dx="27.7864" dy="23.8169"/>
<feGaussianBlur stdDeviation="9.9237"/>
<feComposite in2="hardAlpha" operator="out"/>
<feColorMatrix type="matrix" values="0 0 0 0 0 0 0 0 0 0 0 0 0 0 0 0 0 0 0.1 0"/>
<feBlend mode="normal" in2="BackgroundImageFix" result="effect1_dropShadow_224_7018"/>
<feBlend mode="normal" in="SourceGraphic" in2="effect1_dropShadow_224_7018" result="shape"/>
</filter>
<filter id="filter8_d_224_7018" x="688.695" y="40.1171" width="260.081" height="32.2322" filterUnits="userSpaceOnUse" color-interpolation-filters="sRGB">
<feFlood flood-opacity="0" result="BackgroundImageFix"/>
<feColorMatrix in="SourceAlpha" type="matrix" values="0 0 0 0 0 0 0 0 0 0 0 0 0 0 0 0 0 0 127 0" result="hardAlpha"/>
<feOffset dy="-5.55727"/>
<feGaussianBlur stdDeviation="7.85957"/>
<feComposite in2="hardAlpha" operator="out"/>
<feColorMatrix type="matrix" values="0 0 0 0 0 0 0 0 0 0 0 0 0 0 0 0 0 0 0.88 0"/>
<feBlend mode="normal" in2="BackgroundImageFix" result="effect1_dropShadow_224_7018"/>
<feBlend mode="normal" in="SourceGraphic" in2="effect1_dropShadow_224_7018" result="shape"/>
</filter>
<filter id="filter9_d_224_7018" x="771.254" y="16.2917" width="140.712" height="136.749" filterUnits="userSpaceOnUse" color-interpolation-filters="sRGB">
<feFlood flood-opacity="0" result="BackgroundImageFix"/>
<feColorMatrix in="SourceAlpha" type="matrix" values="0 0 0 0 0 0 0 0 0 0 0 0 0 0 0 0 0 0 127 0" result="hardAlpha"/>
<feOffset dx="27.7864" dy="23.8169"/>
<feGaussianBlur stdDeviation="9.9237"/>
<feComposite in2="hardAlpha" operator="out"/>
<feColorMatrix type="matrix" values="0 0 0 0 0 0 0 0 0 0 0 0 0 0 0 0 0 0 0.1 0"/>
<feBlend mode="normal" in2="BackgroundImageFix" result="effect1_dropShadow_224_7018"/>
<feBlend mode="normal" in="SourceGraphic" in2="effect1_dropShadow_224_7018" result="shape"/>
</filter>
<filter id="filter10_d_224_7018" x="918.17" y="40.1169" width="260.081" height="32.2322" filterUnits="userSpaceOnUse" color-interpolation-filters="sRGB">
<feFlood flood-opacity="0" result="BackgroundImageFix"/>
<feColorMatrix in="SourceAlpha" type="matrix" values="0 0 0 0 0 0 0 0 0 0 0 0 0 0 0 0 0 0 127 0" result="hardAlpha"/>
<feOffset dy="-5.55727"/>
<feGaussianBlur stdDeviation="7.85957"/>
<feComposite in2="hardAlpha" operator="out"/>
<feColorMatrix type="matrix" values="0 0 0 0 0 0 0 0 0 0 0 0 0 0 0 0 0 0 0.88 0"/>
<feBlend mode="normal" in2="BackgroundImageFix" result="effect1_dropShadow_224_7018"/>
<feBlend mode="normal" in="SourceGraphic" in2="effect1_dropShadow_224_7018" result="shape"/>
</filter>
<filter id="filter11_d_224_7018" x="1000.73" y="16.2915" width="140.712" height="136.749" filterUnits="userSpaceOnUse" color-interpolation-filters="sRGB">
<feFlood flood-opacity="0" result="BackgroundImageFix"/>
<feColorMatrix in="SourceAlpha" type="matrix" values="0 0 0 0 0 0 0 0 0 0 0 0 0 0 0 0 0 0 127 0" result="hardAlpha"/>
<feOffset dx="27.7864" dy="23.8169"/>
<feGaussianBlur stdDeviation="9.9237"/>
<feComposite in2="hardAlpha" operator="out"/>
<feColorMatrix type="matrix" values="0 0 0 0 0 0 0 0 0 0 0 0 0 0 0 0 0 0 0.1 0"/>
<feBlend mode="normal" in2="BackgroundImageFix" result="effect1_dropShadow_224_7018"/>
<feBlend mode="normal" in="SourceGraphic" in2="effect1_dropShadow_224_7018" result="shape"/>
</filter>
<linearGradient id="paint0_linear_224_7018" x1="1309.6" y1="95.6998" x2="1243.87" y2="29.9724" gradientUnits="userSpaceOnUse">
<stop stop-color="#EBEAEA"/>
<stop offset="1" stop-color="white"/>
</linearGradient>
<linearGradient id="paint1_linear_224_7018" x1="162.239" y1="95.7003" x2="96.5147" y2="29.9729" gradientUnits="userSpaceOnUse">
<stop stop-color="#EBEAEA"/>
<stop offset="1" stop-color="white"/>
</linearGradient>
<linearGradient id="paint2_linear_224_7018" x1="391.712" y1="95.7001" x2="325.987" y2="29.9727" gradientUnits="userSpaceOnUse">
<stop stop-color="#EBEAEA"/>
<stop offset="1" stop-color="white"/>
</linearGradient>
<linearGradient id="paint3_linear_224_7018" x1="621.179" y1="95.7001" x2="555.454" y2="29.9727" gradientUnits="userSpaceOnUse">
<stop stop-color="#EBEAEA"/>
<stop offset="1" stop-color="white"/>
</linearGradient>
<linearGradient id="paint4_linear_224_7018" x1="850.653" y1="95.7001" x2="784.929" y2="29.9727" gradientUnits="userSpaceOnUse">
<stop stop-color="#EBEAEA"/>
<stop offset="1" stop-color="white"/>
</linearGradient>
<linearGradient id="paint5_linear_224_7018" x1="1080.13" y1="95.6998" x2="1014.4" y2="29.9724" gradientUnits="userSpaceOnUse">
<stop stop-color="#EBEAEA"/>
<stop offset="1" stop-color="white"/>
</linearGradient>
</defs>
</svg>
