<svg width="261" height="1359" viewBox="0 0 261 1359" fill="none" xmlns="http://www.w3.org/2000/svg">
<g filter="url(#filter0_d_235_1321)">
<line x1="16" y1="61.5269" x2="244.642" y2="61.5269" stroke="white" stroke-width="0.793896"/>
</g>
<rect x="16" y="61.9238" width="228.642" height="36.5192" fill="white"/>
<path d="M181.166 62.574H178.63C178.63 35.424 156.541 13.3372 129.394 13.3372C102.246 13.3372 80.1389 35.421 80.1389 62.574H77.5879C77.5879 34.016 100.821 10.7803 129.382 10.7803C157.943 10.7803 181.166 34.016 181.166 62.574Z" fill="#0F898C"/>
<g filter="url(#filter1_d_235_1321)">
<path d="M82.8548 63.7472C83.156 75.6861 88.0353 87.0524 96.4831 95.4941C104.931 103.936 116.301 108.807 128.24 109.099C154.643 109.734 176.435 88.0337 175.908 61.6278C175.737 53.1544 173.256 44.8884 168.732 37.7216C164.208 30.5549 157.813 24.7595 150.237 20.9608C147.01 19.3342 143.602 18.0933 140.084 17.2638C136.885 16.5121 133.615 16.1011 130.329 16.0375C103.9 15.5165 82.188 37.3235 82.8548 63.7472Z" fill="url(#paint0_linear_235_1321)"/>
</g>
<path d="M160.603 93.7947C177.917 76.4811 177.973 48.4667 160.729 31.2229C143.486 13.979 115.471 14.0356 98.1576 31.3492C80.844 48.6628 80.7875 76.6771 98.0313 93.921C115.275 111.165 143.29 111.108 160.603 93.7947Z" fill="#F9F9F9"/>
<path d="M122.265 51.0291C124.597 51.0291 126.486 52.1446 127.933 54.3757C129.139 56.2249 129.742 58.4258 129.742 60.9785C129.742 64.0336 128.978 66.4858 127.451 68.335C126.084 70.0032 124.356 70.8374 122.265 70.8374C119.833 70.8374 117.944 69.7721 116.597 67.6415C115.451 65.8526 114.878 63.6316 114.878 60.9785C114.878 58.0037 115.632 55.5616 117.14 53.6521C118.486 51.9034 120.195 51.0291 122.265 51.0291ZM122.325 54.6471C120.295 54.6471 119.28 56.6972 119.28 60.7976C119.28 62.8678 119.572 64.4959 120.155 65.6818C120.677 66.7471 121.371 67.2797 122.235 67.2797C123.2 67.2797 123.954 66.7069 124.496 65.5612C125.059 64.4155 125.34 62.8276 125.34 60.7976C125.34 56.6972 124.335 54.6471 122.325 54.6471ZM140.338 51.3909V70.4756H136.087V56.245C135.826 56.4259 135.434 56.6671 134.911 56.9686C134.188 57.3907 133.655 57.7324 133.314 57.9937C133.052 57.5314 132.62 56.7977 132.017 55.7927L131.897 55.6118C131.716 55.3103 131.535 55.0088 131.354 54.7074C132.037 54.1848 133.062 53.4612 134.429 52.5366L134.761 52.3255C135.324 51.9235 135.766 51.612 136.087 51.3909H140.338Z" fill="#0F898C"/>
<path d="M42.6107 167.52C41.4725 167.949 40.2457 168.164 38.9304 168.164C36.6335 168.164 34.9262 167.475 33.8085 166.098C32.868 164.933 32.3977 163.362 32.3977 161.386C32.3977 159.068 32.9872 157.235 34.1663 155.885C35.4067 154.454 37.1754 153.739 39.4722 153.739C40.5422 153.739 41.5475 153.878 42.488 154.158L42.1098 156.673C41.251 156.339 40.3309 156.172 39.3495 156.172C38.0614 156.172 37.0697 156.618 36.3745 157.511C35.7203 158.349 35.3931 159.487 35.3931 160.926C35.3931 164.108 36.7664 165.7 39.5131 165.7C40.4945 165.7 41.3873 165.502 42.1916 165.107L42.6107 167.52ZM50.5235 160.005C48.5947 159.624 47.6303 160.871 47.6303 163.747V168H44.9518V157.593H47.4872C47.4872 158.254 47.4225 158.952 47.293 159.688H47.3339C47.9745 158.005 49.0786 157.238 50.6462 157.388L50.5235 160.005ZM60.7468 161.805C60.7468 162.425 60.7127 162.926 60.6445 163.308H54.2141C54.2141 165.182 55.1717 166.119 57.0868 166.119C58.0955 166.119 59.1008 165.914 60.1027 165.506L60.389 167.54C59.1826 167.983 57.9286 168.204 56.6268 168.204C53.2054 168.204 51.4947 166.432 51.4947 162.888C51.4947 161.287 51.9309 159.982 52.8033 158.973C53.7098 157.916 54.9195 157.388 56.4326 157.388C57.8774 157.388 58.9781 157.814 59.7347 158.666C60.4094 159.436 60.7468 160.483 60.7468 161.805ZM58.0887 161.529C58.1296 160.077 57.5299 159.351 56.2894 159.351C55.0763 159.351 54.3913 160.077 54.2346 161.529H58.0887ZM68.6289 168C68.6289 167.284 68.663 166.698 68.7311 166.242L68.7107 166.221C68.145 167.543 67.0375 168.204 65.3881 168.204C64.468 168.204 63.7354 167.922 63.1901 167.356C62.6721 166.811 62.4132 166.105 62.4132 165.24C62.4132 164.033 62.9584 163.12 64.0489 162.5C65.0848 161.907 66.5434 161.61 68.4244 161.61V161.232C68.4244 160.592 68.2847 160.132 68.0053 159.852C67.719 159.559 67.2385 159.412 66.5638 159.412C65.5687 159.412 64.5191 159.651 63.415 160.128L62.9754 158.073C64.1613 157.603 65.4733 157.368 66.9114 157.368C68.4585 157.368 69.5592 157.688 70.2135 158.329C70.8064 158.901 71.1029 159.801 71.1029 161.028V165.322C71.1029 166.344 71.1302 167.237 71.1847 168H68.6289ZM68.4244 163.369C66.1344 163.369 64.9894 163.894 64.9894 164.943C64.9894 165.291 65.1019 165.577 65.3268 165.802C65.5585 166.041 65.8652 166.16 66.2469 166.16C66.8739 166.16 67.3987 165.897 67.8213 165.373C68.2234 164.875 68.4244 164.299 68.4244 163.645V163.369ZM79.5167 167.918C78.7397 168.109 77.9866 168.204 77.2573 168.204C76.1123 168.204 75.3217 167.966 74.8855 167.489C74.4561 167.012 74.2415 166.163 74.2415 164.943V159.668H72.4422V157.593H74.2415V154.393L76.8995 153.677V157.593H79.4349V159.668H76.8995V164.228C76.8995 164.896 76.9915 165.349 77.1755 165.587C77.3527 165.826 77.6731 165.945 78.1365 165.945C78.6 165.945 78.9987 165.897 79.3326 165.802L79.5167 167.918ZM90.0262 161.805C90.0262 162.425 89.9921 162.926 89.9239 163.308H83.4935C83.4935 165.182 84.4511 166.119 86.3662 166.119C87.3749 166.119 88.3802 165.914 89.3821 165.506L89.6683 167.54C88.462 167.983 87.2079 168.204 85.9062 168.204C82.4848 168.204 80.7741 166.432 80.7741 162.888C80.7741 161.287 81.2103 159.982 82.0827 158.973C82.9892 157.916 84.1989 157.388 85.7119 157.388C87.1568 157.388 88.2575 157.814 89.0141 158.666C89.6888 159.436 90.0262 160.483 90.0262 161.805ZM87.3681 161.529C87.409 160.077 86.8092 159.351 85.5688 159.351C84.3557 159.351 83.6707 160.077 83.5139 161.529H87.3681ZM101.916 168C101.916 167.284 101.95 166.698 102.018 166.242L101.998 166.221C101.432 167.543 100.324 168.204 98.675 168.204C97.7549 168.204 97.0223 167.922 96.477 167.356C95.9591 166.811 95.7001 166.105 95.7001 165.24C95.7001 164.033 96.2453 163.12 97.3358 162.5C98.3717 161.907 99.8303 161.61 101.711 161.61V161.232C101.711 160.592 101.572 160.132 101.292 159.852C101.006 159.559 100.525 159.412 99.8507 159.412C98.8556 159.412 97.8061 159.651 96.7019 160.128L96.2623 158.073C97.4482 157.603 98.7602 157.368 100.198 157.368C101.745 157.368 102.846 157.688 103.5 158.329C104.093 158.901 104.39 159.801 104.39 161.028V165.322C104.39 166.344 104.417 167.237 104.472 168H101.916ZM101.711 163.369C99.4213 163.369 98.2763 163.894 98.2763 164.943C98.2763 165.291 98.3888 165.577 98.6137 165.802C98.8454 166.041 99.1521 166.16 99.5338 166.16C100.161 166.16 100.686 165.897 101.108 165.373C101.51 164.875 101.711 164.299 101.711 163.645V163.369ZM119.551 168L115.175 160.21C114.576 159.038 114.156 158.118 113.918 157.45C114.013 158.888 114.061 161.127 114.061 164.166V168H111.444V153.871H115.042L119.316 161.467C119.793 162.306 120.246 163.25 120.675 164.299C120.58 162.636 120.532 160.346 120.532 157.429V153.871H123.149V168H119.551ZM134.191 161.805C134.191 162.425 134.157 162.926 134.088 163.308H127.658C127.658 165.182 128.616 166.119 130.531 166.119C131.539 166.119 132.545 165.914 133.547 165.506L133.833 167.54C132.626 167.983 131.372 168.204 130.071 168.204C126.649 168.204 124.939 166.432 124.939 162.888C124.939 161.287 125.375 159.982 126.247 158.973C127.154 157.916 128.363 157.388 129.876 157.388C131.321 157.388 132.422 157.814 133.178 158.666C133.853 159.436 134.191 160.483 134.191 161.805ZM131.533 161.529C131.573 160.077 130.974 159.351 129.733 159.351C128.52 159.351 127.835 160.077 127.678 161.529H131.533ZM148.34 168H145.426L143.923 163.389C143.698 162.612 143.501 161.832 143.33 161.048H143.31C143.139 161.839 142.904 162.711 142.604 163.665L141.286 168H138.515L135.336 157.593H138.27L139.374 161.529C139.83 163.253 140.103 164.299 140.192 164.667H140.212C140.362 163.863 140.614 162.858 140.969 161.651L142.226 157.593H144.802L146.08 161.529C146.496 162.919 146.775 163.965 146.919 164.667H146.959C147.123 163.822 147.358 162.817 147.665 161.651L148.861 157.593H151.601L148.34 168ZM165.975 168L165.014 165.107H159.657L158.665 168H155.925L160.802 153.871H164.012L168.991 168H165.975ZM162.877 158.748C162.632 158.005 162.444 157.354 162.315 156.795H162.294C162.069 157.634 161.885 158.285 161.742 158.748L160.301 162.95H164.319L162.877 158.748ZM176.924 167.704C176.092 168.024 175.118 168.184 174 168.184C170.872 168.184 169.307 166.504 169.307 163.144C169.307 161.44 169.74 160.077 170.606 159.055C171.54 157.957 172.872 157.409 174.603 157.409C175.435 157.409 176.195 157.528 176.883 157.767L176.464 160.067C175.816 159.801 175.169 159.668 174.521 159.668C173.744 159.668 173.145 159.961 172.722 160.547C172.313 161.106 172.109 161.88 172.109 162.868C172.109 164.879 172.92 165.884 174.542 165.884C175.271 165.884 175.949 165.744 176.576 165.465L176.924 167.704ZM185.859 167.704C185.027 168.024 184.053 168.184 182.935 168.184C179.807 168.184 178.243 166.504 178.243 163.144C178.243 161.44 178.675 160.077 179.541 159.055C180.475 157.957 181.807 157.409 183.538 157.409C184.37 157.409 185.13 157.528 185.818 157.767L185.399 160.067C184.751 159.801 184.104 159.668 183.456 159.668C182.679 159.668 182.08 159.961 181.657 160.547C181.248 161.106 181.044 161.88 181.044 162.868C181.044 164.879 181.855 165.884 183.477 165.884C184.206 165.884 184.884 165.744 185.511 165.465L185.859 167.704ZM197.35 162.602C197.35 164.231 196.852 165.574 195.857 166.63C194.855 167.68 193.581 168.204 192.034 168.204C188.783 168.204 187.157 166.46 187.157 162.97C187.157 161.341 187.648 160.005 188.629 158.963C189.624 157.913 190.906 157.388 192.473 157.388C194.007 157.388 195.193 157.807 196.031 158.646C196.91 159.539 197.35 160.857 197.35 162.602ZM194.59 162.745C194.59 160.68 193.823 159.648 192.289 159.648C191.635 159.648 191.09 159.89 190.654 160.373C190.163 160.926 189.918 161.702 189.918 162.704C189.918 164.851 190.694 165.925 192.248 165.925C192.937 165.925 193.492 165.659 193.915 165.127C194.365 164.562 194.59 163.768 194.59 162.745ZM205.876 168C205.876 167.196 205.917 166.576 205.999 166.139H205.978C205.263 167.516 204.084 168.204 202.441 168.204C200.376 168.204 199.343 167.104 199.343 164.902V157.593H202.001V164.248C202.001 165.393 202.434 165.966 203.3 165.966C203.974 165.966 204.547 165.635 205.017 164.974C205.481 164.326 205.712 163.543 205.712 162.623V157.593H208.391V168H205.876ZM217.674 168V161.345C217.674 160.2 217.241 159.627 216.375 159.627C215.707 159.627 215.138 159.958 214.668 160.619C214.198 161.273 213.963 162.057 213.963 162.97V168H211.284V157.593H213.819C213.819 158.329 213.768 158.949 213.666 159.453H213.697C214.406 158.077 215.585 157.388 217.234 157.388C219.299 157.388 220.332 158.489 220.332 160.69V168H217.674ZM228.735 167.918C227.958 168.109 227.205 168.204 226.476 168.204C225.331 168.204 224.54 167.966 224.104 167.489C223.675 167.012 223.46 166.163 223.46 164.943V159.668H221.661V157.593H223.46V154.393L226.118 153.677V157.593H228.653V159.668H226.118V164.228C226.118 164.896 226.21 165.349 226.394 165.587C226.571 165.826 226.892 165.945 227.355 165.945C227.819 165.945 228.217 165.897 228.551 165.802L228.735 167.918Z" fill="#0F898C"/>
<path d="M136.743 195.732C136.741 195.467 136.66 195.208 136.512 194.988C136.363 194.768 136.152 194.598 135.907 194.497C135.661 194.396 135.392 194.37 135.132 194.423C134.871 194.475 134.632 194.602 134.445 194.79L130.526 198.721L126.243 194.441C126.12 194.306 125.971 194.198 125.805 194.122C125.64 194.046 125.46 194.005 125.278 194C125.096 193.996 124.914 194.029 124.745 194.096C124.576 194.164 124.422 194.266 124.293 194.395C124.164 194.523 124.063 194.677 123.995 194.847C123.927 195.016 123.894 195.197 123.899 195.379C123.903 195.562 123.945 195.741 124.02 195.907C124.096 196.073 124.205 196.222 124.34 196.344L130.526 202.53L136.357 196.699C136.482 196.572 136.581 196.42 136.647 196.254C136.714 196.088 136.746 195.911 136.743 195.732Z" fill="#636363"/>
<path d="M136.743 206.895C136.741 206.629 136.66 206.37 136.512 206.151C136.363 205.931 136.152 205.76 135.907 205.66C135.661 205.559 135.392 205.533 135.132 205.585C134.871 205.637 134.632 205.765 134.445 205.952L130.526 209.862L126.243 205.582C126.12 205.447 125.971 205.338 125.805 205.263C125.64 205.187 125.46 205.145 125.278 205.141C125.096 205.137 124.914 205.169 124.745 205.237C124.576 205.305 124.422 205.406 124.293 205.535C124.164 205.664 124.063 205.818 123.995 205.987C123.927 206.156 123.894 206.338 123.899 206.52C123.903 206.702 123.945 206.882 124.02 207.048C124.096 207.213 124.205 207.362 124.34 207.485L130.526 213.671L136.357 207.84C136.605 207.588 136.743 207.248 136.743 206.895Z" fill="#636363"/>
<path d="M136.743 218.048C136.741 217.783 136.66 217.524 136.512 217.305C136.363 217.085 136.152 216.914 135.907 216.813C135.661 216.713 135.392 216.687 135.132 216.739C134.871 216.791 134.632 216.919 134.445 217.106L130.526 221.025L126.243 216.742C126.12 216.607 125.971 216.498 125.805 216.423C125.64 216.347 125.46 216.306 125.278 216.301C125.096 216.297 124.914 216.329 124.745 216.397C124.576 216.465 124.422 216.566 124.293 216.695C124.164 216.824 124.063 216.978 123.995 217.147C123.927 217.317 123.894 217.498 123.899 217.68C123.903 217.862 123.945 218.042 124.02 218.208C124.096 218.374 124.205 218.522 124.34 218.645L130.526 224.831L136.357 219C136.607 218.746 136.745 218.404 136.743 218.048Z" fill="#636363"/>
<g filter="url(#filter2_d_235_1321)">
<line x1="16" y1="301.358" x2="244.642" y2="301.358" stroke="white" stroke-width="0.793896"/>
</g>
<rect x="16" y="301.755" width="228.642" height="36.5192" fill="white"/>
<path d="M181.166 302.405H178.63C178.63 275.255 156.541 253.168 129.394 253.168C102.246 253.168 80.1389 275.252 80.1389 302.405H77.5879C77.5879 273.847 100.821 250.611 129.382 250.611C157.943 250.611 181.166 273.847 181.166 302.405Z" fill="#2E4272"/>
<g filter="url(#filter3_d_235_1321)">
<path d="M82.8528 303.578C83.154 315.517 88.0334 326.883 96.4812 335.325C104.929 343.767 116.299 348.638 128.238 348.931C154.641 349.565 176.433 327.865 175.906 301.459C175.735 292.985 173.254 284.719 168.73 277.553C164.207 270.386 157.811 264.591 150.235 260.792C147.008 259.165 143.6 257.924 140.082 257.095C136.883 256.343 133.613 255.932 130.327 255.869C103.898 255.348 82.1861 277.155 82.8528 303.578Z" fill="url(#paint1_linear_235_1321)"/>
</g>
<path d="M160.88 333.626C178.194 316.312 178.251 288.298 161.007 271.054C143.763 253.81 115.749 253.867 98.435 271.18C81.1214 288.494 81.0648 316.508 98.3087 333.752C115.553 350.996 143.567 350.939 160.88 333.626Z" fill="#F9F9F9"/>
<path d="M121.91 290.86C124.241 290.86 126.131 291.976 127.578 294.207C128.784 296.056 129.387 298.257 129.387 300.81C129.387 303.865 128.623 306.317 127.095 308.166C125.729 309.834 124 310.668 121.91 310.668C119.478 310.668 117.588 309.603 116.242 307.473C115.096 305.684 114.523 303.463 114.523 300.81C114.523 297.835 115.277 295.393 116.784 293.483C118.131 291.734 119.839 290.86 121.91 290.86ZM121.97 294.478C119.94 294.478 118.925 296.528 118.925 300.629C118.925 302.699 119.216 304.327 119.799 305.513C120.322 306.578 121.015 307.111 121.88 307.111C122.844 307.111 123.598 306.538 124.141 305.392C124.704 304.247 124.985 302.659 124.985 300.629C124.985 296.528 123.98 294.478 121.97 294.478ZM131.843 310.307V306.719L136.486 301.262C137.852 299.674 138.687 298.629 138.988 298.126C139.29 297.624 139.44 297.031 139.44 296.347C139.44 295.785 139.239 295.322 138.837 294.96C138.435 294.599 137.933 294.418 137.33 294.418C136.144 294.418 134.827 294.91 133.38 295.895L131.601 293.302C133.672 291.654 135.842 290.83 138.114 290.83C139.862 290.83 141.249 291.292 142.274 292.217C143.299 293.121 143.812 294.408 143.812 296.076C143.812 297.805 143.048 299.704 141.521 301.774C140.938 302.558 139.44 304.277 137.028 306.93H143.661V310.307H131.843Z" fill="#2D4170"/>
<path d="M61.1761 407.52C60.038 407.949 58.8112 408.164 57.4958 408.164C55.1989 408.164 53.4917 407.475 52.3739 406.098C51.4334 404.933 50.9631 403.362 50.9631 401.386C50.9631 399.068 51.5527 397.235 52.7317 395.885C53.9722 394.454 55.7408 393.739 58.0376 393.739C59.1076 393.739 60.1129 393.878 61.0535 394.158L60.6752 396.673C59.8165 396.339 58.8964 396.172 57.9149 396.172C56.6268 396.172 55.6351 396.618 54.94 397.511C54.2857 398.349 53.9585 399.487 53.9585 400.926C53.9585 404.108 55.3319 405.7 58.0785 405.7C59.0599 405.7 59.9528 405.502 60.757 405.107L61.1761 407.52ZM69.9886 408V401.345C69.9886 400.2 69.5558 399.627 68.6902 399.627C68.0223 399.627 67.4532 399.958 66.9829 400.619C66.5127 401.28 66.2775 402.074 66.2775 403.001V408H63.5991V392.716H66.2775V397.194C66.2775 398.066 66.2162 398.772 66.0935 399.31H66.1344C66.8092 398.029 67.9473 397.388 69.549 397.388C71.6141 397.388 72.6466 398.489 72.6466 400.69V408H69.9886ZM84.9554 402.602C84.9554 404.231 84.4579 405.574 83.4628 406.63C82.4609 407.68 81.1865 408.204 79.6393 408.204C76.3883 408.204 74.7628 406.46 74.7628 402.97C74.7628 401.341 75.2536 400.005 76.235 398.963C77.2301 397.913 78.5114 397.388 80.0789 397.388C81.6124 397.388 82.7983 397.807 83.6366 398.646C84.5158 399.539 84.9554 400.857 84.9554 402.602ZM82.1951 402.745C82.1951 400.68 81.4284 399.648 79.8949 399.648C79.2406 399.648 78.6954 399.89 78.2592 400.373C77.7685 400.926 77.5231 401.702 77.5231 402.704C77.5231 404.851 78.3001 405.925 79.854 405.925C80.5424 405.925 81.0978 405.659 81.5204 405.127C81.9702 404.562 82.1951 403.768 82.1951 402.745ZM96.6917 402.602C96.6917 404.231 96.1942 405.574 95.1991 406.63C94.1972 407.68 92.9227 408.204 91.3756 408.204C88.1246 408.204 86.4991 406.46 86.4991 402.97C86.4991 401.341 86.9898 400.005 87.9713 398.963C88.9663 397.913 90.2477 397.388 91.8152 397.388C93.3487 397.388 94.5346 397.807 95.3729 398.646C96.2521 399.539 96.6917 400.857 96.6917 402.602ZM93.9314 402.745C93.9314 400.68 93.1647 399.648 91.6312 399.648C90.9769 399.648 90.4317 399.89 89.9955 400.373C89.5048 400.926 89.2594 401.702 89.2594 402.704C89.2594 404.851 90.0364 405.925 91.5903 405.925C92.2787 405.925 92.8341 405.659 93.2567 405.127C93.7065 404.562 93.9314 403.768 93.9314 402.745ZM105.289 404.759C105.289 405.795 104.87 406.63 104.032 407.264C103.194 407.891 102.086 408.204 100.709 408.204C99.803 408.204 99.026 408.116 98.3785 407.939L98.5728 405.7C99.2134 405.979 99.9529 406.119 100.791 406.119C101.909 406.119 102.468 405.741 102.468 404.984C102.468 404.589 102.246 404.272 101.803 404.033C101.762 404.013 101.279 403.826 100.352 403.471C98.9408 402.939 98.2354 402.013 98.2354 400.69C98.2354 399.716 98.5932 398.932 99.3089 398.339C100.099 397.692 101.214 397.368 102.652 397.368C103.258 397.368 103.885 397.436 104.533 397.572L104.41 399.668C103.797 399.484 103.17 399.392 102.529 399.392C101.507 399.392 100.996 399.75 100.996 400.465C100.996 400.84 101.221 401.15 101.67 401.396L103.143 401.989C104.574 402.554 105.289 403.478 105.289 404.759ZM116.239 401.805C116.239 402.425 116.204 402.926 116.136 403.308H109.706C109.706 405.182 110.663 406.119 112.579 406.119C113.587 406.119 114.593 405.914 115.595 405.506L115.881 407.54C114.674 407.983 113.42 408.204 112.119 408.204C108.697 408.204 106.987 406.432 106.987 402.888C106.987 401.287 107.423 399.982 108.295 398.973C109.202 397.916 110.411 397.388 111.924 397.388C113.369 397.388 114.47 397.814 115.226 398.666C115.901 399.436 116.239 400.483 116.239 401.805ZM113.581 401.529C113.621 400.077 113.022 399.351 111.781 399.351C110.568 399.351 109.883 400.077 109.726 401.529H113.581ZM128.128 408C128.128 407.284 128.162 406.698 128.23 406.242L128.21 406.221C127.644 407.543 126.537 408.204 124.887 408.204C123.967 408.204 123.235 407.922 122.689 407.356C122.171 406.811 121.912 406.105 121.912 405.24C121.912 404.033 122.458 403.12 123.548 402.5C124.584 401.907 126.043 401.61 127.924 401.61V401.232C127.924 400.592 127.784 400.132 127.505 399.852C127.218 399.559 126.738 399.412 126.063 399.412C125.068 399.412 124.018 399.651 122.914 400.128L122.475 398.073C123.661 397.603 124.973 397.368 126.411 397.368C127.958 397.368 129.059 397.688 129.713 398.329C130.306 398.901 130.602 399.801 130.602 401.028V405.322C130.602 406.344 130.629 407.237 130.684 408H128.128ZM127.924 403.369C125.634 403.369 124.489 403.894 124.489 404.943C124.489 405.291 124.601 405.577 124.826 405.802C125.058 406.041 125.365 406.16 125.746 406.16C126.373 406.16 126.898 405.897 127.321 405.373C127.723 404.875 127.924 404.299 127.924 403.645V403.369ZM146.97 398.135C146.97 399.614 146.493 400.81 145.538 401.723C144.523 402.684 143.129 403.164 141.357 403.164C141.01 403.164 140.682 403.151 140.376 403.124V408H137.656V393.871C138.951 393.81 140.27 393.779 141.613 393.779C143.337 393.779 144.663 394.158 145.59 394.914C146.51 395.671 146.97 396.744 146.97 398.135ZM144.148 398.411C144.148 396.823 143.242 396.029 141.429 396.029C141.074 396.029 140.723 396.035 140.376 396.049V400.793C140.723 400.868 141.108 400.905 141.531 400.905C143.276 400.905 144.148 400.074 144.148 398.411ZM154.116 408C154.116 407.284 154.15 406.698 154.218 406.242L154.197 406.221C153.632 407.543 152.524 408.204 150.875 408.204C149.955 408.204 149.222 407.922 148.677 407.356C148.159 406.811 147.9 406.105 147.9 405.24C147.9 404.033 148.445 403.12 149.536 402.5C150.572 401.907 152.03 401.61 153.911 401.61V401.232C153.911 400.592 153.772 400.132 153.492 399.852C153.206 399.559 152.725 399.412 152.051 399.412C151.056 399.412 150.006 399.651 148.902 400.128L148.462 398.073C149.648 397.603 150.96 397.368 152.398 397.368C153.945 397.368 155.046 397.688 155.7 398.329C156.293 398.901 156.59 399.801 156.59 401.028V405.322C156.59 406.344 156.617 407.237 156.672 408H154.116ZM153.911 403.369C151.621 403.369 150.476 403.894 150.476 404.943C150.476 405.291 150.589 405.577 150.814 405.802C151.045 406.041 151.352 406.16 151.734 406.16C152.361 406.16 152.886 405.897 153.308 405.373C153.71 404.875 153.911 404.299 153.911 403.645V403.369ZM166.414 407.704C165.583 408.024 164.608 408.184 163.49 408.184C160.362 408.184 158.798 406.504 158.798 403.144C158.798 401.44 159.231 400.077 160.096 399.055C161.03 397.957 162.362 397.409 164.094 397.409C164.925 397.409 165.685 397.528 166.373 397.767L165.954 400.067C165.307 399.801 164.659 399.668 164.012 399.668C163.235 399.668 162.635 399.961 162.213 400.547C161.804 401.106 161.599 401.88 161.599 402.868C161.599 404.879 162.41 405.884 164.032 405.884C164.762 405.884 165.44 405.744 166.067 405.465L166.414 407.704ZM174.235 408L171.005 402.847V408H168.326V392.716H171.005V401.927L174.041 397.593H177.312L173.663 402.347L177.578 408H174.235ZM184.847 408C184.847 407.284 184.881 406.698 184.949 406.242L184.929 406.221C184.363 407.543 183.255 408.204 181.606 408.204C180.686 408.204 179.953 407.922 179.408 407.356C178.89 406.811 178.631 406.105 178.631 405.24C178.631 404.033 179.176 403.12 180.267 402.5C181.303 401.907 182.761 401.61 184.642 401.61V401.232C184.642 400.592 184.503 400.132 184.223 399.852C183.937 399.559 183.456 399.412 182.782 399.412C181.787 399.412 180.737 399.651 179.633 400.128L179.193 398.073C180.379 397.603 181.691 397.368 183.129 397.368C184.676 397.368 185.777 397.688 186.431 398.329C187.024 398.901 187.321 399.801 187.321 401.028V405.322C187.321 406.344 187.348 407.237 187.403 408H184.847ZM184.642 403.369C182.352 403.369 181.207 403.894 181.207 404.943C181.207 405.291 181.32 405.577 181.545 405.802C181.776 406.041 182.083 406.16 182.465 406.16C183.092 406.16 183.617 405.897 184.039 405.373C184.441 404.875 184.642 404.299 184.642 403.645V403.369ZM199.64 409.114C199.64 410.266 199.118 411.234 198.076 412.018C196.999 412.842 195.615 413.255 193.925 413.255C192.528 413.255 191.441 412.992 190.664 412.468C189.866 411.929 189.468 411.159 189.468 410.157C189.468 409.033 190.006 408.181 191.083 407.601C190.395 407.281 190.05 406.749 190.05 406.006C190.05 405.127 190.463 404.507 191.287 404.146C190.258 403.587 189.744 402.64 189.744 401.304C189.744 400.193 190.129 399.273 190.899 398.543C191.73 397.76 192.872 397.368 194.324 397.368C194.862 397.368 195.428 397.443 196.021 397.593H199.558V399.688H198.137C198.485 400.016 198.658 400.455 198.658 401.007C198.658 402.152 198.287 403.055 197.544 403.716C196.76 404.412 195.646 404.759 194.201 404.759C193.915 404.759 193.642 404.729 193.383 404.667C193.049 404.817 192.882 405.042 192.882 405.342C192.882 405.58 192.998 405.744 193.23 405.833C193.455 405.914 193.877 405.966 194.498 405.986L196.103 406.058C198.461 406.139 199.64 407.158 199.64 409.114ZM196.982 409.462C196.982 408.61 196.437 408.164 195.346 408.123L193.066 408.061C192.426 408.525 192.105 409.056 192.105 409.656C192.105 410.133 192.306 410.512 192.708 410.791C193.111 411.064 193.649 411.2 194.324 411.2C195.169 411.2 195.83 411.033 196.307 410.699C196.757 410.385 196.982 409.973 196.982 409.462ZM196.103 401.15C196.103 399.924 195.476 399.31 194.222 399.31C193.629 399.31 193.155 399.484 192.8 399.832C192.46 400.166 192.289 400.598 192.289 401.13C192.289 402.33 192.933 402.929 194.222 402.929C195.476 402.929 196.103 402.336 196.103 401.15ZM210.027 401.805C210.027 402.425 209.993 402.926 209.924 403.308H203.494C203.494 405.182 204.452 406.119 206.367 406.119C207.375 406.119 208.381 405.914 209.383 405.506L209.669 407.54C208.463 407.983 207.208 408.204 205.907 408.204C202.485 408.204 200.775 406.432 200.775 402.888C200.775 401.287 201.211 399.982 202.083 398.973C202.99 397.916 204.199 397.388 205.712 397.388C207.157 397.388 208.258 397.814 209.015 398.666C209.689 399.436 210.027 400.483 210.027 401.805ZM207.369 401.529C207.41 400.077 206.81 399.351 205.569 399.351C204.356 399.351 203.671 400.077 203.514 401.529H207.369Z" fill="#363636"/>
<path d="M136.743 435.732C136.741 435.467 136.66 435.208 136.512 434.988C136.363 434.768 136.152 434.598 135.907 434.497C135.661 434.396 135.392 434.37 135.132 434.423C134.871 434.475 134.632 434.602 134.445 434.79L130.526 438.721L126.243 434.441C126.12 434.306 125.971 434.198 125.805 434.122C125.64 434.046 125.46 434.005 125.278 434C125.096 433.996 124.914 434.029 124.745 434.096C124.576 434.164 124.422 434.266 124.293 434.395C124.164 434.523 124.063 434.677 123.995 434.847C123.927 435.016 123.894 435.197 123.899 435.379C123.903 435.562 123.945 435.741 124.02 435.907C124.096 436.073 124.205 436.222 124.34 436.344L130.526 442.53L136.357 436.699C136.482 436.572 136.581 436.42 136.647 436.254C136.714 436.088 136.746 435.911 136.743 435.732Z" fill="#636363"/>
<path d="M136.743 446.895C136.741 446.629 136.66 446.37 136.512 446.151C136.363 445.931 136.152 445.76 135.907 445.66C135.661 445.559 135.392 445.533 135.132 445.585C134.871 445.637 134.632 445.765 134.445 445.952L130.526 449.862L126.243 445.582C126.12 445.447 125.971 445.338 125.805 445.263C125.64 445.187 125.46 445.145 125.278 445.141C125.096 445.137 124.914 445.169 124.745 445.237C124.576 445.305 124.422 445.406 124.293 445.535C124.164 445.664 124.063 445.818 123.995 445.987C123.927 446.156 123.894 446.338 123.899 446.52C123.903 446.702 123.945 446.882 124.02 447.048C124.096 447.213 124.205 447.362 124.34 447.485L130.526 453.671L136.357 447.84C136.605 447.588 136.743 447.248 136.743 446.895Z" fill="#636363"/>
<path d="M136.743 458.048C136.741 457.783 136.66 457.524 136.512 457.305C136.363 457.085 136.152 456.914 135.907 456.813C135.661 456.713 135.392 456.687 135.132 456.739C134.871 456.791 134.632 456.919 134.445 457.106L130.526 461.025L126.243 456.742C126.12 456.607 125.971 456.498 125.805 456.423C125.64 456.347 125.46 456.306 125.278 456.301C125.096 456.297 124.914 456.329 124.745 456.397C124.576 456.465 124.422 456.566 124.293 456.695C124.164 456.824 124.063 456.978 123.995 457.147C123.927 457.317 123.894 457.498 123.899 457.68C123.903 457.862 123.945 458.042 124.02 458.208C124.096 458.374 124.205 458.522 124.34 458.645L130.526 464.831L136.357 459C136.607 458.746 136.745 458.404 136.743 458.048Z" fill="#636363"/>
<g filter="url(#filter4_d_235_1321)">
<line x1="16" y1="541.358" x2="244.642" y2="541.358" stroke="white" stroke-width="0.793896"/>
</g>
<rect x="16" y="541.755" width="228.642" height="36.5192" fill="white"/>
<path d="M181.168 542.405H178.632C178.632 515.255 156.543 493.168 129.395 493.168C102.248 493.168 80.1408 515.252 80.1408 542.405H77.5898C77.5898 513.847 100.823 490.611 129.384 490.611C157.945 490.611 181.168 513.847 181.168 542.405Z" fill="#EFAF32"/>
<g filter="url(#filter5_d_235_1321)">
<path d="M82.8548 543.578C83.156 555.517 88.0353 566.883 96.4831 575.325C104.931 583.767 116.301 588.638 128.24 588.931C154.643 589.565 176.435 567.865 175.908 541.459C175.737 532.985 173.256 524.719 168.732 517.553C164.208 510.386 157.813 504.591 150.237 500.792C147.01 499.165 143.602 497.924 140.084 497.095C136.885 496.343 133.615 495.932 130.329 495.869C103.9 495.348 82.188 517.155 82.8548 543.578Z" fill="url(#paint2_linear_235_1321)"/>
</g>
<path d="M160.88 573.626C178.194 556.312 178.251 528.298 161.007 511.054C143.763 493.81 115.749 493.867 98.435 511.18C81.1214 528.494 81.0648 556.508 98.3087 573.752C115.553 590.996 143.567 590.939 160.88 573.626Z" fill="#F9F9F9"/>
<path d="M122.262 530.86C124.594 530.86 126.483 531.976 127.93 534.207C129.136 536.056 129.739 538.257 129.739 540.81C129.739 543.865 128.975 546.317 127.448 548.166C126.081 549.834 124.352 550.668 122.262 550.668C119.83 550.668 117.941 549.603 116.594 547.473C115.448 545.684 114.875 543.463 114.875 540.81C114.875 537.835 115.629 535.393 117.137 533.483C118.483 531.734 120.192 530.86 122.262 530.86ZM122.322 534.478C120.292 534.478 119.277 536.528 119.277 540.629C119.277 542.699 119.569 544.327 120.151 545.513C120.674 546.578 121.368 547.111 122.232 547.111C123.197 547.111 123.95 546.538 124.493 545.392C125.056 544.247 125.337 542.659 125.337 540.629C125.337 536.528 124.332 534.478 122.322 534.478ZM134.516 541.895V538.458H137.471H137.712C138.416 538.458 138.898 538.317 139.159 538.036C139.441 537.754 139.581 537.242 139.581 536.498C139.581 535.855 139.401 535.342 139.039 534.96C138.677 534.579 138.195 534.388 137.592 534.388C136.345 534.388 135.069 534.971 133.763 536.136L132.225 533.393C133.913 531.704 135.833 530.86 137.984 530.86C139.752 530.86 141.21 531.363 142.355 532.368C143.461 533.312 144.013 534.569 144.013 536.136C144.013 537.141 143.853 537.915 143.531 538.458C143.209 539.001 142.637 539.463 141.813 539.845C143.742 540.649 144.707 542.136 144.707 544.307C144.707 546.719 143.893 548.457 142.265 549.523C141.139 550.266 139.722 550.638 138.014 550.638C137.089 550.638 136.014 550.377 134.788 549.854C133.562 549.332 132.587 548.719 131.863 548.015L133.582 545.453C134.627 546.458 136.014 546.96 137.742 546.96C138.526 546.96 139.149 546.729 139.612 546.267C140.074 545.804 140.305 545.181 140.305 544.397C140.305 542.729 139.36 541.895 137.471 541.895H134.516Z" fill="#E2A52F"/>
<path d="M87.2796 638.109C87.2796 639.588 86.8025 640.784 85.8483 641.698C84.8328 642.659 83.4391 643.139 81.667 643.139C81.3194 643.139 80.9923 643.125 80.6856 643.098V647.975H77.9662V633.846C79.2612 633.785 80.58 633.754 81.9226 633.754C83.6469 633.754 84.9726 634.132 85.8995 634.889C86.8196 635.645 87.2796 636.719 87.2796 638.109ZM84.458 638.385C84.458 636.797 83.5515 636.003 81.7386 636.003C81.3842 636.003 81.0332 636.01 80.6856 636.024V640.767C81.0332 640.842 81.4183 640.88 81.8408 640.88C83.5856 640.88 84.458 640.048 84.458 638.385ZM94.4256 647.975C94.4256 647.259 94.4597 646.673 94.5279 646.216L94.5074 646.196C93.9417 647.518 92.8342 648.179 91.1849 648.179C90.2648 648.179 89.5321 647.896 88.9869 647.331C88.4689 646.785 88.2099 646.08 88.2099 645.214C88.2099 644.008 88.7552 643.095 89.8456 642.475C90.8816 641.882 92.3401 641.585 94.2212 641.585V641.207C94.2212 640.566 94.0815 640.106 93.802 639.827C93.5158 639.534 93.0353 639.387 92.3606 639.387C91.3655 639.387 90.3159 639.626 89.2118 640.103L88.7722 638.048C89.9581 637.578 91.2701 637.342 92.7081 637.342C94.2553 637.342 95.356 637.663 96.0103 638.303C96.6032 638.876 96.8997 639.776 96.8997 641.002V645.296C96.8997 646.318 96.9269 647.211 96.9815 647.975H94.4256ZM94.2212 643.343C91.9312 643.343 90.7862 643.868 90.7862 644.918C90.7862 645.265 90.8986 645.552 91.1235 645.777C91.3553 646.015 91.662 646.134 92.0436 646.134C92.6707 646.134 93.1955 645.872 93.618 645.347C94.0201 644.85 94.2212 644.274 94.2212 643.62V643.343ZM104.465 648.557C103.804 650.309 103.064 651.532 102.246 652.227C101.483 652.868 100.478 653.188 99.2306 653.188C98.7194 653.188 98.2321 653.141 97.7687 653.045L98.0856 650.735C98.5286 650.878 98.9682 650.95 99.4044 650.95C100.508 650.95 101.296 650.265 101.766 648.895L102.103 647.975L98.2491 637.567H101.245L102.645 641.544C102.952 642.492 103.224 643.449 103.463 644.417H103.483C103.715 643.476 104.049 642.372 104.485 641.105L105.722 637.567H108.595L104.465 648.557ZM119.933 647.893C119.156 648.084 118.403 648.179 117.673 648.179C116.528 648.179 115.738 647.941 115.302 647.463C114.872 646.986 114.657 646.138 114.657 644.918V639.643H112.858V637.567H114.657V634.367L117.316 633.652V637.567H119.851V639.643H117.316V644.202C117.316 644.87 117.408 645.323 117.592 645.562C117.769 645.8 118.089 645.92 118.553 645.92C119.016 645.92 119.415 645.872 119.749 645.777L119.933 647.893ZM128.5 647.975V641.319C128.5 640.174 128.067 639.602 127.201 639.602C126.533 639.602 125.964 639.932 125.494 640.593C125.024 641.255 124.789 642.049 124.789 642.975V647.975H122.11V632.691H124.789V637.169C124.789 638.041 124.727 638.746 124.605 639.285H124.646C125.32 638.004 126.458 637.363 128.06 637.363C130.125 637.363 131.158 638.464 131.158 640.665V647.975H128.5ZM142.546 641.779C142.546 642.4 142.512 642.9 142.444 643.282H136.014C136.014 645.156 136.971 646.094 138.887 646.094C139.895 646.094 140.901 645.889 141.902 645.48L142.189 647.515C140.982 647.958 139.728 648.179 138.427 648.179C135.005 648.179 133.294 646.407 133.294 642.863C133.294 641.261 133.731 639.956 134.603 638.947C135.509 637.891 136.719 637.363 138.232 637.363C139.677 637.363 140.778 637.789 141.534 638.641C142.209 639.411 142.546 640.457 142.546 641.779ZM139.888 641.503C139.929 640.052 139.33 639.326 138.089 639.326C136.876 639.326 136.191 640.052 136.034 641.503H139.888ZM155.07 634.889C154.709 634.766 154.276 634.705 153.772 634.705C152.64 634.705 152.075 635.366 152.075 636.688V637.567H154.508V639.643H152.075V647.975H149.417V639.643H147.597V637.567H149.417V636.709C149.417 633.921 150.8 632.527 153.567 632.527C154.215 632.527 154.78 632.582 155.264 632.691L155.07 634.889ZM164.649 641.779C164.649 642.4 164.615 642.9 164.547 643.282H158.117C158.117 645.156 159.074 646.094 160.989 646.094C161.998 646.094 163.003 645.889 164.005 645.48L164.291 647.515C163.085 647.958 161.831 648.179 160.529 648.179C157.108 648.179 155.397 646.407 155.397 642.863C155.397 641.261 155.833 639.956 156.706 638.947C157.612 637.891 158.822 637.363 160.335 637.363C161.78 637.363 162.881 637.789 163.637 638.641C164.312 639.411 164.649 640.457 164.649 641.779ZM161.991 641.503C162.032 640.052 161.432 639.326 160.192 639.326C158.979 639.326 158.294 640.052 158.137 641.503H161.991ZM175.486 641.779C175.486 642.4 175.452 642.9 175.384 643.282H168.953C168.953 645.156 169.911 646.094 171.826 646.094C172.835 646.094 173.84 645.889 174.842 645.48L175.128 647.515C173.922 647.958 172.668 648.179 171.366 648.179C167.944 648.179 166.234 646.407 166.234 642.863C166.234 641.261 166.67 639.956 167.542 638.947C168.449 637.891 169.659 637.363 171.172 637.363C172.616 637.363 173.717 637.789 174.474 638.641C175.148 639.411 175.486 640.457 175.486 641.779ZM172.828 641.503C172.869 640.052 172.269 639.326 171.028 639.326C169.815 639.326 169.13 640.052 168.974 641.503H172.828ZM184.145 644.734C184.145 645.77 183.726 646.605 182.887 647.239C182.049 647.866 180.942 648.179 179.565 648.179C178.658 648.179 177.881 648.09 177.234 647.913L177.428 645.674C178.069 645.954 178.808 646.094 179.647 646.094C180.764 646.094 181.323 645.715 181.323 644.959C181.323 644.563 181.102 644.247 180.659 644.008C180.618 643.988 180.134 643.8 179.207 643.446C177.796 642.914 177.091 641.987 177.091 640.665C177.091 639.69 177.449 638.907 178.164 638.314C178.955 637.666 180.069 637.342 181.507 637.342C182.114 637.342 182.741 637.411 183.388 637.547L183.266 639.643C182.652 639.459 182.025 639.367 181.385 639.367C180.362 639.367 179.851 639.724 179.851 640.44C179.851 640.815 180.076 641.125 180.526 641.37L181.998 641.963C183.429 642.529 184.145 643.453 184.145 644.734Z" fill="#363636"/>
<path d="M136.743 664.706C136.741 664.441 136.66 664.182 136.512 663.963C136.363 663.743 136.152 663.572 135.907 663.472C135.661 663.371 135.392 663.345 135.132 663.397C134.871 663.449 134.632 663.577 134.445 663.764L130.526 667.696L126.243 663.416C126.12 663.281 125.971 663.172 125.805 663.096C125.64 663.021 125.46 662.979 125.278 662.975C125.096 662.971 124.914 663.003 124.745 663.071C124.576 663.139 124.422 663.24 124.293 663.369C124.164 663.498 124.063 663.652 123.995 663.821C123.927 663.99 123.894 664.172 123.899 664.354C123.903 664.536 123.945 664.716 124.02 664.882C124.096 665.047 124.205 665.196 124.34 665.319L130.526 671.505L136.357 665.674C136.482 665.546 136.581 665.395 136.647 665.229C136.714 665.063 136.746 664.885 136.743 664.706Z" fill="#636363"/>
<path d="M136.743 675.869C136.741 675.604 136.66 675.345 136.512 675.125C136.363 674.906 136.152 674.735 135.907 674.634C135.661 674.534 135.392 674.508 135.132 674.56C134.871 674.612 134.632 674.74 134.445 674.927L130.526 678.837L126.243 674.557C126.12 674.422 125.971 674.313 125.805 674.237C125.64 674.161 125.46 674.12 125.278 674.116C125.096 674.111 124.914 674.144 124.745 674.212C124.576 674.279 124.422 674.381 124.293 674.51C124.164 674.639 124.063 674.792 123.995 674.962C123.927 675.131 123.894 675.312 123.899 675.495C123.903 675.677 123.945 675.856 124.02 676.022C124.096 676.188 124.205 676.337 124.34 676.459L130.526 682.645L136.357 676.814C136.605 676.562 136.743 676.223 136.743 675.869Z" fill="#636363"/>
<path d="M136.743 687.023C136.741 686.758 136.66 686.499 136.512 686.279C136.363 686.06 136.152 685.889 135.907 685.788C135.661 685.687 135.392 685.662 135.132 685.714C134.871 685.766 134.632 685.894 134.445 686.081L130.526 690L126.243 685.717C126.12 685.582 125.971 685.473 125.805 685.397C125.64 685.321 125.46 685.28 125.278 685.276C125.096 685.271 124.914 685.304 124.745 685.372C124.576 685.44 124.422 685.541 124.293 685.67C124.164 685.799 124.063 685.953 123.995 686.122C123.927 686.291 123.894 686.472 123.899 686.655C123.903 686.837 123.945 687.017 124.02 687.182C124.096 687.348 124.205 687.497 124.34 687.62L130.526 693.806L136.357 687.974C136.607 687.721 136.745 687.379 136.743 687.023Z" fill="#636363"/>
<g filter="url(#filter6_d_235_1321)">
<line x1="16" y1="770.333" x2="244.642" y2="770.333" stroke="white" stroke-width="0.793896"/>
</g>
<rect x="16" y="770.729" width="228.642" height="36.5192" fill="white"/>
<path d="M181.17 771.38H178.634C178.634 744.23 156.545 722.143 129.397 722.143C102.25 722.143 80.1428 744.227 80.1428 771.38H77.5918C77.5918 742.822 100.825 719.586 129.386 719.586C157.946 719.586 181.17 742.822 181.17 771.38Z" fill="#78B7D0"/>
<g filter="url(#filter7_d_235_1321)">
<path d="M82.8548 772.553C83.156 784.492 88.0353 795.858 96.4831 804.3C104.931 812.741 116.301 817.613 128.24 817.905C154.643 818.539 176.435 796.839 175.908 770.434C175.737 761.96 173.256 753.694 168.732 746.527C164.208 739.361 157.813 733.565 150.237 729.767C147.01 728.14 143.602 726.899 140.084 726.07C136.885 725.318 133.615 724.907 130.329 724.843C103.9 724.322 82.188 746.129 82.8548 772.553Z" fill="url(#paint3_linear_235_1321)"/>
</g>
<path d="M161.72 802.6C179.034 785.287 179.09 757.272 161.847 740.029C144.603 722.785 116.588 722.841 99.2748 740.155C81.9612 757.468 81.9047 785.483 99.1485 802.727C116.392 819.971 144.407 819.914 161.72 802.6Z" fill="#F9F9F9"/>
<path d="M120.295 759.835C122.626 759.835 124.516 760.95 125.963 763.181C127.169 765.031 127.772 767.231 127.772 769.784C127.772 772.839 127.008 775.291 125.48 777.141C124.114 778.809 122.385 779.643 120.295 779.643C117.863 779.643 115.973 778.578 114.626 776.447C113.481 774.658 112.908 772.437 112.908 769.784C112.908 766.809 113.662 764.367 115.169 762.458C116.516 760.709 118.224 759.835 120.295 759.835ZM120.355 763.453C118.325 763.453 117.31 765.503 117.31 769.603C117.31 771.674 117.601 773.302 118.184 774.487C118.707 775.553 119.4 776.085 120.264 776.085C121.229 776.085 121.983 775.513 122.526 774.367C123.088 773.221 123.37 771.633 123.37 769.603C123.37 765.503 122.365 763.453 120.355 763.453ZM129.534 772.256C132.067 768.377 134.71 764.357 137.463 760.197H141.624V772.256H144.699V775.633H141.624V779.281H137.403V775.633H129.534V772.256ZM133.152 772.256H137.403V765.593C136.921 766.337 136.318 767.282 135.594 768.427C134.529 770.096 133.715 771.372 133.152 772.256Z" fill="#75B2CB"/>
<path d="M49.9306 877L46.1173 871.163H45.8822V877H43.1628V862.871C44.151 862.81 45.5039 862.779 47.2214 862.779C50.6428 862.779 52.3535 864.108 52.3535 866.767C52.3535 867.789 52.0195 868.665 51.3516 869.394C50.7109 870.089 49.8863 870.525 48.8776 870.702C49.4092 871.398 49.7874 871.912 50.0124 872.246L53.294 877H49.9306ZM49.5114 867.032C49.5114 865.676 48.6595 864.998 46.9556 864.998C46.5126 864.998 46.1548 865.022 45.8822 865.069V869.149C46.1343 869.176 46.4615 869.189 46.8636 869.189C47.6815 869.189 48.3255 868.995 48.7958 868.607C49.2729 868.218 49.5114 867.693 49.5114 867.032ZM63.5786 870.805C63.5786 871.425 63.5445 871.926 63.4764 872.308H57.0459C57.0459 874.182 58.0035 875.119 59.9187 875.119C60.9274 875.119 61.9327 874.914 62.9345 874.506L63.2208 876.54C62.0144 876.983 60.7604 877.204 59.4586 877.204C56.0373 877.204 54.3266 875.432 54.3266 871.888C54.3266 870.287 54.7628 868.982 55.6351 867.973C56.5416 866.916 57.7514 866.388 59.2644 866.388C60.7093 866.388 61.81 866.814 62.5665 867.666C63.2412 868.436 63.5786 869.483 63.5786 870.805ZM60.9206 870.529C60.9615 869.077 60.3617 868.351 59.1213 868.351C57.9081 868.351 57.2232 869.077 57.0664 870.529H60.9206ZM72.0332 882.05V877.337C72.0332 876.52 72.0809 875.848 72.1764 875.323L72.1355 875.303C71.5493 876.591 70.5236 877.235 69.0583 877.235C66.4888 877.235 65.2041 875.606 65.2041 872.348C65.2041 870.549 65.6914 869.121 66.666 868.065C67.6815 866.961 69.0855 866.409 70.878 866.409C72.1593 866.409 73.4304 866.511 74.6913 866.715V882.05H72.0332ZM72.0332 868.668C71.5153 868.573 71.045 868.525 70.6224 868.525C68.8777 868.525 68.0053 869.704 68.0053 872.062C68.0053 874.025 68.5914 875.006 69.7637 875.006C70.4452 875.006 71.0007 874.659 71.4301 873.964C71.8322 873.309 72.0332 872.509 72.0332 871.561V868.668ZM83.9638 877C83.9638 876.196 84.0047 875.576 84.0864 875.139H84.066C83.3504 876.516 82.1713 877.204 80.5288 877.204C78.4637 877.204 77.4311 876.104 77.4311 873.902V866.593H80.0892V873.248C80.0892 874.393 80.5219 874.966 81.3875 874.966C82.0622 874.966 82.6347 874.635 83.105 873.974C83.5685 873.326 83.8002 872.543 83.8002 871.623V866.593H86.4787V877H83.9638ZM97.8878 870.805C97.8878 871.425 97.8538 871.926 97.7856 872.308H91.3552C91.3552 874.182 92.3128 875.119 94.2279 875.119C95.2366 875.119 96.2419 874.914 97.2438 874.506L97.53 876.54C96.3237 876.983 95.0696 877.204 93.7679 877.204C90.3465 877.204 88.6358 875.432 88.6358 871.888C88.6358 870.287 89.072 868.982 89.9444 867.973C90.8508 866.916 92.0606 866.388 93.5736 866.388C95.0185 866.388 96.1192 866.814 96.8757 867.666C97.5505 868.436 97.8878 869.483 97.8878 870.805ZM95.2298 870.529C95.2707 869.077 94.6709 868.351 93.4305 868.351C92.2173 868.351 91.5324 869.077 91.3756 870.529H95.2298ZM106.547 873.759C106.547 874.795 106.128 875.63 105.289 876.264C104.451 876.891 103.344 877.204 101.967 877.204C101.06 877.204 100.283 877.116 99.636 876.939L99.8303 874.7C100.471 874.979 101.21 875.119 102.049 875.119C103.166 875.119 103.725 874.741 103.725 873.984C103.725 873.589 103.504 873.272 103.061 873.033C103.02 873.013 102.536 872.826 101.609 872.471C100.198 871.939 99.4929 871.013 99.4929 869.69C99.4929 868.716 99.8507 867.932 100.566 867.339C101.357 866.692 102.471 866.368 103.909 866.368C104.516 866.368 105.143 866.436 105.79 866.572L105.668 868.668C105.054 868.484 104.427 868.392 103.787 868.392C102.764 868.392 102.253 868.75 102.253 869.465C102.253 869.84 102.478 870.15 102.928 870.396L104.4 870.989C105.831 871.554 106.547 872.478 106.547 873.759ZM114.531 876.918C113.754 877.109 113.001 877.204 112.272 877.204C111.127 877.204 110.336 876.966 109.9 876.489C109.471 876.012 109.256 875.163 109.256 873.943V868.668H107.457V866.593H109.256V863.393L111.914 862.677V866.593H114.449V868.668H111.914V873.228C111.914 873.896 112.006 874.349 112.19 874.587C112.367 874.826 112.688 874.945 113.151 874.945C113.615 874.945 114.013 874.897 114.347 874.802L114.531 876.918ZM126.472 876.918C125.695 877.109 124.942 877.204 124.213 877.204C123.068 877.204 122.277 876.966 121.841 876.489C121.412 876.012 121.197 875.163 121.197 873.943V868.668H119.398V866.593H121.197V863.393L123.855 862.677V866.593H126.39V868.668H123.855V873.228C123.855 873.896 123.947 874.349 124.131 874.587C124.308 874.826 124.628 874.945 125.092 874.945C125.555 874.945 125.954 874.897 126.288 874.802L126.472 876.918ZM135.039 877V870.345C135.039 869.2 134.606 868.627 133.741 868.627C133.073 868.627 132.504 868.958 132.033 869.619C131.563 870.28 131.328 871.074 131.328 872.001V877H128.65V861.716H131.328V866.194C131.328 867.066 131.267 867.772 131.144 868.31H131.185C131.86 867.029 132.998 866.388 134.6 866.388C136.665 866.388 137.697 867.489 137.697 869.69V877H135.039ZM149.086 870.805C149.086 871.425 149.052 871.926 148.984 872.308H142.553C142.553 874.182 143.511 875.119 145.426 875.119C146.435 875.119 147.44 874.914 148.442 874.506L148.728 876.54C147.522 876.983 146.268 877.204 144.966 877.204C141.545 877.204 139.834 875.432 139.834 871.888C139.834 870.287 140.27 868.982 141.142 867.973C142.049 866.916 143.259 866.388 144.772 866.388C146.217 866.388 147.317 866.814 148.074 867.666C148.749 868.436 149.086 869.483 149.086 870.805ZM146.428 870.529C146.469 869.077 145.869 868.351 144.629 868.351C143.415 868.351 142.73 869.077 142.574 870.529H146.428ZM163.736 872.665C163.736 873.988 163.235 875.075 162.233 875.927C161.211 876.799 159.892 877.235 158.277 877.235C157.043 877.235 155.952 877.109 155.005 876.857L155.302 874.24C156.269 874.642 157.295 874.843 158.379 874.843C159.96 874.843 160.751 874.229 160.751 873.003C160.751 872.417 160.44 871.936 159.82 871.561C159.657 871.466 158.975 871.169 157.776 870.672C155.792 869.861 154.801 868.6 154.801 866.889C154.801 865.608 155.264 864.586 156.191 863.822C157.145 863.032 158.461 862.636 160.137 862.636C160.982 862.636 161.834 862.728 162.693 862.912L162.448 865.294C161.63 865.029 160.819 864.896 160.015 864.896C158.467 864.896 157.694 865.461 157.694 866.593C157.694 867.138 158.007 867.598 158.634 867.973C158.771 868.055 159.466 868.361 160.72 868.893C162.73 869.752 163.736 871.009 163.736 872.665ZM174.685 870.805C174.685 871.425 174.651 871.926 174.583 872.308H168.152C168.152 874.182 169.11 875.119 171.025 875.119C172.034 875.119 173.039 874.914 174.041 874.506L174.327 876.54C173.121 876.983 171.867 877.204 170.565 877.204C167.144 877.204 165.433 875.432 165.433 871.888C165.433 870.287 165.869 868.982 166.741 867.973C167.648 866.916 168.858 866.388 170.371 866.388C171.816 866.388 172.916 866.814 173.673 867.666C174.348 868.436 174.685 869.483 174.685 870.805ZM172.027 870.529C172.068 869.077 171.468 868.351 170.228 868.351C169.014 868.351 168.329 869.077 168.173 870.529H172.027ZM182.495 869.005C180.567 868.624 179.602 869.871 179.602 872.747V877H176.924V866.593H179.459C179.459 867.254 179.394 867.952 179.265 868.688H179.306C179.946 867.005 181.051 866.238 182.618 866.388L182.495 869.005ZM190.265 877H187.075L183.497 866.593H186.391L188.057 871.623C188.364 872.645 188.589 873.51 188.732 874.219H188.773C188.95 873.361 189.161 872.502 189.406 871.643L191.032 866.593H193.864L190.265 877ZM198.505 863.434C198.505 863.877 198.341 864.255 198.014 864.569C197.68 864.889 197.285 865.049 196.828 865.049C196.365 865.049 195.973 864.892 195.653 864.579C195.332 864.265 195.172 863.884 195.172 863.434C195.172 862.984 195.332 862.599 195.653 862.279C195.973 861.958 196.365 861.798 196.828 861.798C197.292 861.798 197.687 861.955 198.014 862.268C198.341 862.589 198.505 862.977 198.505 863.434ZM195.489 877V866.593H198.168V877H195.489ZM207.931 876.704C207.099 877.024 206.125 877.184 205.007 877.184C201.879 877.184 200.315 875.504 200.315 872.144C200.315 870.44 200.747 869.077 201.613 868.055C202.547 866.957 203.879 866.409 205.61 866.409C206.442 866.409 207.202 866.528 207.89 866.767L207.471 869.067C206.823 868.801 206.176 868.668 205.528 868.668C204.751 868.668 204.152 868.961 203.729 869.547C203.32 870.106 203.116 870.88 203.116 871.868C203.116 873.879 203.927 874.884 205.549 874.884C206.278 874.884 206.956 874.744 207.583 874.465L207.931 876.704ZM218.502 870.805C218.502 871.425 218.468 871.926 218.4 872.308H211.969C211.969 874.182 212.927 875.119 214.842 875.119C215.851 875.119 216.856 874.914 217.858 874.506L218.144 876.54C216.938 876.983 215.684 877.204 214.382 877.204C210.96 877.204 209.25 875.432 209.25 871.888C209.25 870.287 209.686 868.982 210.558 867.973C211.465 866.916 212.674 866.388 214.188 866.388C215.632 866.388 216.733 866.814 217.49 867.666C218.164 868.436 218.502 869.483 218.502 870.805ZM215.844 870.529C215.885 869.077 215.285 868.351 214.044 868.351C212.831 868.351 212.146 869.077 211.99 870.529H215.844Z" fill="#363636"/>
<path d="M136.743 893.732C136.741 893.467 136.66 893.208 136.512 892.988C136.363 892.768 136.152 892.598 135.907 892.497C135.661 892.396 135.392 892.37 135.132 892.423C134.871 892.475 134.632 892.602 134.445 892.79L130.526 896.721L126.243 892.441C126.12 892.306 125.971 892.198 125.805 892.122C125.64 892.046 125.46 892.005 125.278 892C125.096 891.996 124.914 892.029 124.745 892.096C124.576 892.164 124.422 892.266 124.293 892.395C124.164 892.523 124.063 892.677 123.995 892.847C123.927 893.016 123.894 893.197 123.899 893.379C123.903 893.562 123.945 893.741 124.02 893.907C124.096 894.073 124.205 894.222 124.34 894.344L130.526 900.53L136.357 894.699C136.482 894.572 136.581 894.42 136.647 894.254C136.714 894.088 136.746 893.911 136.743 893.732Z" fill="#636363"/>
<path d="M136.743 904.895C136.741 904.629 136.66 904.37 136.512 904.151C136.363 903.931 136.152 903.76 135.907 903.66C135.661 903.559 135.392 903.533 135.132 903.585C134.871 903.637 134.632 903.765 134.445 903.952L130.526 907.862L126.243 903.582C126.12 903.447 125.971 903.338 125.805 903.263C125.64 903.187 125.46 903.145 125.278 903.141C125.096 903.137 124.914 903.169 124.745 903.237C124.576 903.305 124.422 903.406 124.293 903.535C124.164 903.664 124.063 903.818 123.995 903.987C123.927 904.156 123.894 904.338 123.899 904.52C123.903 904.702 123.945 904.882 124.02 905.048C124.096 905.213 124.205 905.362 124.34 905.485L130.526 911.671L136.357 905.84C136.605 905.588 136.743 905.248 136.743 904.895Z" fill="#636363"/>
<path d="M136.743 916.048C136.741 915.783 136.66 915.524 136.512 915.305C136.363 915.085 136.152 914.914 135.907 914.813C135.661 914.713 135.392 914.687 135.132 914.739C134.871 914.791 134.632 914.919 134.445 915.106L130.526 919.025L126.243 914.742C126.12 914.607 125.971 914.498 125.805 914.423C125.64 914.347 125.46 914.306 125.278 914.301C125.096 914.297 124.914 914.329 124.745 914.397C124.576 914.465 124.422 914.566 124.293 914.695C124.164 914.824 124.063 914.978 123.995 915.147C123.927 915.317 123.894 915.498 123.899 915.68C123.903 915.862 123.945 916.042 124.02 916.208C124.096 916.374 124.205 916.522 124.34 916.645L130.526 922.831L136.357 917C136.607 916.746 136.745 916.404 136.743 916.048Z" fill="#636363"/>
<g filter="url(#filter8_d_235_1321)">
<line x1="16" y1="999.358" x2="244.642" y2="999.358" stroke="white" stroke-width="0.793896"/>
</g>
<rect x="16" y="999.755" width="228.642" height="36.5192" fill="white"/>
<path d="M181.166 1000.41H178.63C178.63 973.255 156.541 951.168 129.394 951.168C102.246 951.168 80.1389 973.252 80.1389 1000.41H77.5879C77.5879 971.847 100.821 948.611 129.382 948.611C157.943 948.611 181.166 971.847 181.166 1000.41Z" fill="#AA6C39"/>
<g filter="url(#filter9_d_235_1321)">
<path d="M82.8528 1001.58C83.154 1013.52 88.0334 1024.88 96.4812 1033.33C104.929 1041.77 116.299 1046.64 128.238 1046.93C154.641 1047.56 176.433 1025.86 175.906 999.459C175.735 990.985 173.254 982.719 168.73 975.553C164.207 968.386 157.811 962.591 150.235 958.792C147.008 957.165 143.6 955.924 140.082 955.095C136.883 954.343 133.613 953.932 130.327 953.869C103.898 953.348 82.1861 975.155 82.8528 1001.58Z" fill="url(#paint4_linear_235_1321)"/>
</g>
<path d="M160.88 1031.63C178.194 1014.31 178.251 986.298 161.007 969.054C143.763 951.81 115.749 951.867 98.435 969.18C81.1214 986.494 81.0648 1014.51 98.3087 1031.75C115.553 1049 143.567 1048.94 160.88 1031.63Z" fill="#F9F9F9"/>
<path d="M121.482 988.86C123.813 988.86 125.703 989.976 127.15 992.207C128.356 994.056 128.959 996.257 128.959 998.81C128.959 1001.86 128.195 1004.32 126.668 1006.17C125.301 1007.83 123.572 1008.67 121.482 1008.67C119.05 1008.67 117.16 1007.6 115.814 1005.47C114.668 1003.68 114.095 1001.46 114.095 998.81C114.095 995.835 114.849 993.393 116.356 991.483C117.703 989.734 119.412 988.86 121.482 988.86ZM121.542 992.478C119.512 992.478 118.497 994.528 118.497 998.629C118.497 1000.7 118.789 1002.33 119.371 1003.51C119.894 1004.58 120.587 1005.11 121.452 1005.11C122.417 1005.11 123.17 1004.54 123.713 1003.39C124.276 1002.25 124.557 1000.66 124.557 998.629C124.557 994.528 123.552 992.478 121.542 992.478ZM143.625 992.599H137.053V996.126C137.294 996.066 137.565 996.036 137.867 996.036C140.218 996.036 141.987 996.599 143.173 997.724C144.279 998.769 144.831 1000.24 144.831 1002.13C144.831 1004.06 144.108 1005.66 142.661 1006.95C141.374 1008.1 139.816 1008.67 137.987 1008.67C135.475 1008.67 133.314 1007.75 131.505 1005.92L133.254 1003.24C134.761 1004.39 136.198 1004.96 137.565 1004.96C139.535 1004.96 140.52 1004.11 140.52 1002.4C140.52 1000.39 139.183 999.382 136.51 999.382C135.545 999.382 134.51 999.513 133.405 999.774L133.284 999.804C133.083 999.865 132.942 999.905 132.862 999.925V989.222H143.625V992.599Z" fill="#AA6C39"/>
<path d="M48.2001 1105.19V1117H45.4705V1105.19H41.8106V1102.87H51.8601V1105.19H48.2001ZM57.9224 1109.01C55.9937 1108.62 55.0293 1109.87 55.0293 1112.75V1117H52.3508V1106.59H54.8861C54.8861 1107.25 54.8214 1107.95 54.6919 1108.69H54.7328C55.3734 1107.01 56.4776 1106.24 58.0451 1106.39L57.9224 1109.01ZM65.4161 1117C65.4161 1116.28 65.4502 1115.7 65.5183 1115.24L65.4979 1115.22C64.9322 1116.54 63.8247 1117.2 62.1753 1117.2C61.2552 1117.2 60.5226 1116.92 59.9773 1116.36C59.4593 1115.81 59.2003 1115.11 59.2003 1114.24C59.2003 1113.03 59.7456 1112.12 60.8361 1111.5C61.872 1110.91 63.3305 1110.61 65.2116 1110.61V1110.23C65.2116 1109.59 65.0719 1109.13 64.7925 1108.85C64.5062 1108.56 64.0257 1108.41 63.351 1108.41C62.3559 1108.41 61.3063 1108.65 60.2022 1109.13L59.7626 1107.07C60.9485 1106.6 62.2605 1106.37 63.6986 1106.37C65.2457 1106.37 66.3464 1106.69 67.0007 1107.33C67.5936 1107.9 67.8901 1108.8 67.8901 1110.03V1114.32C67.8901 1115.34 67.9174 1116.24 67.9719 1117H65.4161ZM65.2116 1112.37C62.9216 1112.37 61.7766 1112.89 61.7766 1113.94C61.7766 1114.29 61.8891 1114.58 62.114 1114.8C62.3457 1115.04 62.6524 1115.16 63.0341 1115.16C63.6611 1115.16 64.1859 1114.9 64.6084 1114.37C65.0106 1113.88 65.2116 1113.3 65.2116 1112.64V1112.37ZM77.7147 1116.7C76.8832 1117.02 75.9085 1117.18 74.7908 1117.18C71.6625 1117.18 70.0983 1115.5 70.0983 1112.14C70.0983 1110.44 70.5311 1109.08 71.3967 1108.05C72.3304 1106.96 73.6628 1106.41 75.394 1106.41C76.2255 1106.41 76.9854 1106.53 77.6738 1106.77L77.2546 1109.07C76.6071 1108.8 75.9597 1108.67 75.3122 1108.67C74.5352 1108.67 73.9355 1108.96 73.5129 1109.55C73.104 1110.11 72.8995 1110.88 72.8995 1111.87C72.8995 1113.88 73.7105 1114.88 75.3326 1114.88C76.0619 1114.88 76.74 1114.74 77.3671 1114.46L77.7147 1116.7ZM85.5354 1117L82.3049 1111.85V1117H79.6264V1101.72H82.3049V1110.93L85.3412 1106.59H88.6126L84.9629 1111.35L88.8784 1117H85.5354ZM100.431 1112V1117H97.7113V1112.02L93.2949 1102.87H96.2698L98.1305 1106.93C98.4849 1107.71 98.8052 1108.49 99.0915 1109.27H99.1324C99.33 1108.73 99.7083 1107.85 100.267 1106.65L102.046 1102.87H104.939L100.431 1112ZM113.987 1111.6C113.987 1113.23 113.489 1114.57 112.494 1115.63C111.492 1116.68 110.218 1117.2 108.671 1117.2C105.42 1117.2 103.794 1115.46 103.794 1111.97C103.794 1110.34 104.285 1109.01 105.266 1107.96C106.261 1106.91 107.543 1106.39 109.11 1106.39C110.644 1106.39 111.83 1106.81 112.668 1107.65C113.547 1108.54 113.987 1109.86 113.987 1111.6ZM111.226 1111.75C111.226 1109.68 110.46 1108.65 108.926 1108.65C108.272 1108.65 107.727 1108.89 107.291 1109.37C106.8 1109.93 106.554 1110.7 106.554 1111.7C106.554 1113.85 107.331 1114.92 108.885 1114.92C109.574 1114.92 110.129 1114.66 110.552 1114.13C111.002 1113.56 111.226 1112.77 111.226 1111.75ZM122.513 1117C122.513 1116.2 122.554 1115.58 122.636 1115.14H122.615C121.9 1116.52 120.72 1117.2 119.078 1117.2C117.013 1117.2 115.98 1116.1 115.98 1113.9V1106.59H118.638V1113.25C118.638 1114.39 119.071 1114.97 119.937 1114.97C120.611 1114.97 121.184 1114.64 121.654 1113.97C122.118 1113.33 122.349 1112.54 122.349 1111.62V1106.59H125.028V1117H122.513ZM133.493 1109.01C131.564 1108.62 130.6 1109.87 130.6 1112.75V1117H127.921V1106.59H130.456C130.456 1107.25 130.392 1107.95 130.262 1108.69H130.303C130.944 1107.01 132.048 1106.24 133.615 1106.39L133.493 1109.01ZM146.241 1117L142.428 1111.16H142.193V1117H139.473V1102.87C140.462 1102.81 141.814 1102.78 143.532 1102.78C146.953 1102.78 148.664 1104.11 148.664 1106.77C148.664 1107.79 148.33 1108.66 147.662 1109.39C147.021 1110.09 146.197 1110.53 145.188 1110.7C145.72 1111.4 146.098 1111.91 146.323 1112.25L149.605 1117H146.241ZM145.822 1107.03C145.822 1105.68 144.97 1105 143.266 1105C142.823 1105 142.465 1105.02 142.193 1105.07V1109.15C142.445 1109.18 142.772 1109.19 143.174 1109.19C143.992 1109.19 144.636 1109 145.106 1108.61C145.583 1108.22 145.822 1107.69 145.822 1107.03ZM159.889 1110.8C159.889 1111.42 159.855 1111.93 159.787 1112.31H153.356C153.356 1114.18 154.314 1115.12 156.229 1115.12C157.238 1115.12 158.243 1114.91 159.245 1114.51L159.531 1116.54C158.325 1116.98 157.071 1117.2 155.769 1117.2C152.348 1117.2 150.637 1115.43 150.637 1111.89C150.637 1110.29 151.073 1108.98 151.946 1107.97C152.852 1106.92 154.062 1106.39 155.575 1106.39C157.02 1106.39 158.121 1106.81 158.877 1107.67C159.552 1108.44 159.889 1109.48 159.889 1110.8ZM157.231 1110.53C157.272 1109.08 156.672 1108.35 155.432 1108.35C154.219 1108.35 153.534 1109.08 153.377 1110.53H157.231ZM168.344 1122.05V1117.34C168.344 1116.52 168.391 1115.85 168.487 1115.32L168.446 1115.3C167.86 1116.59 166.834 1117.24 165.369 1117.24C162.799 1117.24 161.515 1115.61 161.515 1112.35C161.515 1110.55 162.002 1109.12 162.977 1108.06C163.992 1106.96 165.396 1106.41 167.189 1106.41C168.47 1106.41 169.741 1106.51 171.002 1106.72V1122.05H168.344ZM168.344 1108.67C167.826 1108.57 167.356 1108.52 166.933 1108.52C165.188 1108.52 164.316 1109.7 164.316 1112.06C164.316 1114.03 164.902 1115.01 166.074 1115.01C166.756 1115.01 167.311 1114.66 167.741 1113.96C168.143 1113.31 168.344 1112.51 168.344 1111.56V1108.67ZM180.274 1117C180.274 1116.2 180.315 1115.58 180.397 1115.14H180.377C179.661 1116.52 178.482 1117.2 176.839 1117.2C174.774 1117.2 173.742 1116.1 173.742 1113.9V1106.59H176.4V1113.25C176.4 1114.39 176.832 1114.97 177.698 1114.97C178.373 1114.97 178.945 1114.64 179.416 1113.97C179.879 1113.33 180.111 1112.54 180.111 1111.62V1106.59H182.789V1117H180.274ZM194.198 1110.8C194.198 1111.42 194.164 1111.93 194.096 1112.31H187.666C187.666 1114.18 188.623 1115.12 190.538 1115.12C191.547 1115.12 192.552 1114.91 193.554 1114.51L193.841 1116.54C192.634 1116.98 191.38 1117.2 190.078 1117.2C186.657 1117.2 184.946 1115.43 184.946 1111.89C184.946 1110.29 185.383 1108.98 186.255 1107.97C187.161 1106.92 188.371 1106.39 189.884 1106.39C191.329 1106.39 192.43 1106.81 193.186 1107.67C193.861 1108.44 194.198 1109.48 194.198 1110.8ZM191.54 1110.53C191.581 1109.08 190.981 1108.35 189.741 1108.35C188.528 1108.35 187.843 1109.08 187.686 1110.53H191.54ZM202.857 1113.76C202.857 1114.8 202.438 1115.63 201.6 1116.26C200.762 1116.89 199.654 1117.2 198.277 1117.2C197.371 1117.2 196.594 1117.12 195.947 1116.94L196.141 1114.7C196.781 1114.98 197.521 1115.12 198.359 1115.12C199.477 1115.12 200.036 1114.74 200.036 1113.98C200.036 1113.59 199.814 1113.27 199.371 1113.03C199.33 1113.01 198.847 1112.83 197.92 1112.47C196.509 1111.94 195.803 1111.01 195.803 1109.69C195.803 1108.72 196.161 1107.93 196.877 1107.34C197.667 1106.69 198.782 1106.37 200.22 1106.37C200.826 1106.37 201.453 1106.44 202.101 1106.57L201.978 1108.67C201.365 1108.48 200.738 1108.39 200.097 1108.39C199.075 1108.39 198.564 1108.75 198.564 1109.47C198.564 1109.84 198.789 1110.15 199.238 1110.4L200.711 1110.99C202.142 1111.55 202.857 1112.48 202.857 1113.76ZM210.842 1116.92C210.065 1117.11 209.312 1117.2 208.582 1117.2C207.437 1117.2 206.647 1116.97 206.211 1116.49C205.781 1116.01 205.567 1115.16 205.567 1113.94V1108.67H203.767V1106.59H205.567V1103.39L208.225 1102.68V1106.59H210.76V1108.67H208.225V1113.23C208.225 1113.9 208.317 1114.35 208.501 1114.59C208.678 1114.83 208.998 1114.95 209.462 1114.95C209.925 1114.95 210.324 1114.9 210.658 1114.8L210.842 1116.92Z" fill="#363636"/>
<path d="M136.743 1145.73C136.741 1145.47 136.66 1145.21 136.512 1144.99C136.363 1144.77 136.152 1144.6 135.907 1144.5C135.661 1144.4 135.392 1144.37 135.132 1144.42C134.871 1144.47 134.632 1144.6 134.445 1144.79L130.526 1148.72L126.243 1144.44C126.12 1144.31 125.971 1144.2 125.805 1144.12C125.64 1144.05 125.46 1144 125.278 1144C125.096 1144 124.914 1144.03 124.745 1144.1C124.576 1144.16 124.422 1144.27 124.293 1144.39C124.164 1144.52 124.063 1144.68 123.995 1144.85C123.927 1145.02 123.894 1145.2 123.899 1145.38C123.903 1145.56 123.945 1145.74 124.02 1145.91C124.096 1146.07 124.205 1146.22 124.34 1146.34L130.526 1152.53L136.357 1146.7C136.482 1146.57 136.581 1146.42 136.647 1146.25C136.714 1146.09 136.746 1145.91 136.743 1145.73Z" fill="#636363"/>
<path d="M136.743 1156.89C136.741 1156.63 136.66 1156.37 136.512 1156.15C136.363 1155.93 136.152 1155.76 135.907 1155.66C135.661 1155.56 135.392 1155.53 135.132 1155.59C134.871 1155.64 134.632 1155.77 134.445 1155.95L130.526 1159.86L126.243 1155.58C126.12 1155.45 125.971 1155.34 125.805 1155.26C125.64 1155.19 125.46 1155.15 125.278 1155.14C125.096 1155.14 124.914 1155.17 124.745 1155.24C124.576 1155.3 124.422 1155.41 124.293 1155.54C124.164 1155.66 124.063 1155.82 123.995 1155.99C123.927 1156.16 123.894 1156.34 123.899 1156.52C123.903 1156.7 123.945 1156.88 124.02 1157.05C124.096 1157.21 124.205 1157.36 124.34 1157.48L130.526 1163.67L136.357 1157.84C136.605 1157.59 136.743 1157.25 136.743 1156.89Z" fill="#636363"/>
<path d="M136.743 1168.05C136.741 1167.78 136.66 1167.52 136.512 1167.3C136.363 1167.08 136.152 1166.91 135.907 1166.81C135.661 1166.71 135.392 1166.69 135.132 1166.74C134.871 1166.79 134.632 1166.92 134.445 1167.11L130.526 1171.03L126.243 1166.74C126.12 1166.61 125.971 1166.5 125.805 1166.42C125.64 1166.35 125.46 1166.31 125.278 1166.3C125.096 1166.3 124.914 1166.33 124.745 1166.4C124.576 1166.46 124.422 1166.57 124.293 1166.7C124.164 1166.82 124.063 1166.98 123.995 1167.15C123.927 1167.32 123.894 1167.5 123.899 1167.68C123.903 1167.86 123.945 1168.04 124.02 1168.21C124.096 1168.37 124.205 1168.52 124.34 1168.64L130.526 1174.83L136.357 1169C136.607 1168.75 136.745 1168.4 136.743 1168.05Z" fill="#636363"/>
<g filter="url(#filter10_d_235_1321)">
<line x1="16" y1="1251.36" x2="244.642" y2="1251.36" stroke="white" stroke-width="0.793896"/>
</g>
<rect x="16" y="1251.75" width="228.642" height="36.5192" fill="white"/>
<path d="M181.168 1252.41H178.632C178.632 1225.26 156.543 1203.17 129.395 1203.17C102.248 1203.17 80.1408 1225.25 80.1408 1252.41H77.5898C77.5898 1223.85 100.823 1200.61 129.384 1200.61C157.945 1200.61 181.168 1223.85 181.168 1252.41Z" fill="#FFDC7F"/>
<g filter="url(#filter11_d_235_1321)">
<path d="M82.8548 1253.58C83.156 1265.52 88.0353 1276.88 96.4831 1285.33C104.931 1293.77 116.301 1298.64 128.24 1298.93C154.643 1299.56 176.435 1277.86 175.908 1251.46C175.737 1242.99 173.256 1234.72 168.732 1227.55C164.208 1220.39 157.813 1214.59 150.237 1210.79C147.01 1209.17 143.602 1207.92 140.084 1207.09C136.885 1206.34 133.615 1205.93 130.329 1205.87C103.9 1205.35 82.188 1227.15 82.8548 1253.58Z" fill="url(#paint5_linear_235_1321)"/>
</g>
<path d="M160.88 1283.63C178.194 1266.31 178.251 1238.3 161.007 1221.05C143.763 1203.81 115.749 1203.87 98.435 1221.18C81.1214 1238.49 81.0648 1266.51 98.3087 1283.75C115.553 1301 143.567 1300.94 160.88 1283.63Z" fill="#F9F9F9"/>
<path d="M121.543 1240.86C123.874 1240.86 125.764 1241.98 127.211 1244.21C128.417 1246.06 129.02 1248.26 129.02 1250.81C129.02 1253.86 128.256 1256.32 126.728 1258.17C125.362 1259.83 123.633 1260.67 121.543 1260.67C119.111 1260.67 117.221 1259.6 115.875 1257.47C114.729 1255.68 114.156 1253.46 114.156 1250.81C114.156 1247.83 114.91 1245.39 116.417 1243.48C117.764 1241.73 119.472 1240.86 121.543 1240.86ZM121.603 1244.48C119.573 1244.48 118.558 1246.53 118.558 1250.63C118.558 1252.7 118.849 1254.33 119.432 1255.51C119.955 1256.58 120.648 1257.11 121.513 1257.11C122.477 1257.11 123.231 1256.54 123.774 1255.39C124.337 1254.25 124.618 1252.66 124.618 1250.63C124.618 1246.53 123.613 1244.48 121.603 1244.48ZM144.169 1242.79L142.721 1245.47C141.335 1244.81 140.118 1244.48 139.073 1244.48C138.109 1244.48 137.335 1244.85 136.752 1245.59C136.169 1246.34 135.877 1247.31 135.877 1248.52V1248.61C136.541 1248.09 137.516 1247.82 138.802 1247.82C140.671 1247.82 142.139 1248.34 143.204 1249.36C144.309 1250.45 144.862 1252.04 144.862 1254.13C144.862 1255.87 144.289 1257.38 143.143 1258.65C141.938 1260 140.299 1260.67 138.229 1260.67C133.787 1260.67 131.566 1257.66 131.566 1251.65C131.566 1244.46 134.028 1240.86 138.953 1240.86C139.897 1240.86 140.862 1241.04 141.847 1241.4C142.832 1241.76 143.606 1242.23 144.169 1242.79ZM135.877 1251.53C135.898 1253.52 136.018 1254.89 136.239 1255.63C136.581 1256.8 137.224 1257.38 138.169 1257.38C138.772 1257.38 139.294 1257.06 139.737 1256.42C140.199 1255.75 140.43 1254.99 140.43 1254.13C140.43 1251.92 139.556 1250.81 137.807 1250.81C137.063 1250.81 136.42 1251.05 135.877 1251.53Z" fill="#FCD97E"/>
<path d="M51.0877 1358L47.2744 1352.16H47.0393V1358H44.3199V1343.87C45.3081 1343.81 46.661 1343.78 48.3785 1343.78C51.7999 1343.78 53.5106 1345.11 53.5106 1347.77C53.5106 1348.79 53.1766 1349.66 52.5087 1350.39C51.868 1351.09 51.0434 1351.53 50.0347 1351.7C50.5663 1352.4 50.9445 1352.91 51.1695 1353.25L54.4511 1358H51.0877ZM50.6685 1348.03C50.6685 1346.68 49.8166 1346 48.1127 1346C47.6697 1346 47.3119 1346.02 47.0393 1346.07V1350.15C47.2914 1350.18 47.6186 1350.19 48.0207 1350.19C48.8386 1350.19 49.4826 1350 49.9529 1349.61C50.43 1349.22 50.6685 1348.69 50.6685 1348.03ZM64.7357 1351.8C64.7357 1352.42 64.7016 1352.93 64.6335 1353.31H58.2031C58.2031 1355.18 59.1606 1356.12 61.0758 1356.12C62.0845 1356.12 63.0898 1355.91 64.0916 1355.51L64.3779 1357.54C63.1716 1357.98 61.9175 1358.2 60.6157 1358.2C57.1944 1358.2 55.4837 1356.43 55.4837 1352.89C55.4837 1351.29 55.9199 1349.98 56.7922 1348.97C57.6987 1347.92 58.9085 1347.39 60.4215 1347.39C61.8664 1347.39 62.9671 1347.81 63.7236 1348.67C64.3983 1349.44 64.7357 1350.48 64.7357 1351.8ZM62.0777 1351.53C62.1186 1350.08 61.5188 1349.35 60.2784 1349.35C59.0652 1349.35 58.3803 1350.08 58.2235 1351.53H62.0777ZM73.9366 1357.7C73.1051 1358.02 72.1305 1358.18 71.0128 1358.18C67.8845 1358.18 66.3203 1356.5 66.3203 1353.14C66.3203 1351.44 66.7531 1350.08 67.6187 1349.05C68.5524 1347.96 69.8848 1347.41 71.616 1347.41C72.4474 1347.41 73.2074 1347.53 73.8957 1347.77L73.4766 1350.07C72.8291 1349.8 72.1816 1349.67 71.5342 1349.67C70.7572 1349.67 70.1574 1349.96 69.7349 1350.55C69.3259 1351.11 69.1215 1351.88 69.1215 1352.87C69.1215 1354.88 69.9325 1355.88 71.5546 1355.88C72.2839 1355.88 72.962 1355.74 73.589 1355.46L73.9366 1357.7ZM84.5075 1351.8C84.5075 1352.42 84.4734 1352.93 84.4052 1353.31H77.9748C77.9748 1355.18 78.9324 1356.12 80.8476 1356.12C81.8562 1356.12 82.8615 1355.91 83.8634 1355.51L84.1497 1357.54C82.9433 1357.98 81.6893 1358.2 80.3875 1358.2C76.9661 1358.2 75.2554 1356.43 75.2554 1352.89C75.2554 1351.29 75.6916 1349.98 76.564 1348.97C77.4705 1347.92 78.6802 1347.39 80.1933 1347.39C81.6381 1347.39 82.7389 1347.81 83.4954 1348.67C84.1701 1349.44 84.5075 1350.48 84.5075 1351.8ZM81.8494 1351.53C81.8903 1350.08 81.2906 1349.35 80.0501 1349.35C78.837 1349.35 78.152 1350.08 77.9953 1351.53H81.8494ZM89.7622 1344.43C89.7622 1344.88 89.5987 1345.26 89.2715 1345.57C88.9376 1345.89 88.5423 1346.05 88.0856 1346.05C87.6222 1346.05 87.2303 1345.89 86.9099 1345.58C86.5896 1345.27 86.4294 1344.88 86.4294 1344.43C86.4294 1343.98 86.5896 1343.6 86.9099 1343.28C87.2303 1342.96 87.6222 1342.8 88.0856 1342.8C88.5491 1342.8 88.9444 1342.95 89.2715 1343.27C89.5987 1343.59 89.7622 1343.98 89.7622 1344.43ZM86.7464 1358V1347.59H89.4249V1358H86.7464ZM97.6546 1358H94.4649L90.8868 1347.59H93.78L95.4464 1352.62C95.7531 1353.64 95.978 1354.51 96.1211 1355.22H96.162C96.3392 1354.36 96.5505 1353.5 96.7958 1352.64L98.4213 1347.59H101.253L97.6546 1358ZM111.231 1351.8C111.231 1352.42 111.197 1352.93 111.129 1353.31H104.698C104.698 1355.18 105.656 1356.12 107.571 1356.12C108.58 1356.12 109.585 1355.91 110.587 1355.51L110.873 1357.54C109.667 1357.98 108.413 1358.2 107.111 1358.2C103.69 1358.2 101.979 1356.43 101.979 1352.89C101.979 1351.29 102.415 1349.98 103.288 1348.97C104.194 1347.92 105.404 1347.39 106.917 1347.39C108.362 1347.39 109.462 1347.81 110.219 1348.67C110.894 1349.44 111.231 1350.48 111.231 1351.8ZM108.573 1351.53C108.614 1350.08 108.014 1349.35 106.774 1349.35C105.561 1349.35 104.876 1350.08 104.719 1351.53H108.573ZM123.315 1357.92C122.538 1358.11 121.785 1358.2 121.056 1358.2C119.911 1358.2 119.12 1357.97 118.684 1357.49C118.254 1357.01 118.04 1356.16 118.04 1354.94V1349.67H116.24V1347.59H118.04V1344.39L120.698 1343.68V1347.59H123.233V1349.67H120.698V1354.23C120.698 1354.9 120.79 1355.35 120.974 1355.59C121.151 1355.83 121.471 1355.95 121.935 1355.95C122.398 1355.95 122.797 1355.9 123.131 1355.8L123.315 1357.92ZM131.882 1358V1351.34C131.882 1350.2 131.449 1349.63 130.584 1349.63C129.916 1349.63 129.347 1349.96 128.876 1350.62C128.406 1351.28 128.171 1352.07 128.171 1353V1358H125.492V1342.72H128.171V1347.19C128.171 1348.07 128.11 1348.77 127.987 1349.31H128.028C128.703 1348.03 129.841 1347.39 131.442 1347.39C133.508 1347.39 134.54 1348.49 134.54 1350.69V1358H131.882ZM145.929 1351.8C145.929 1352.42 145.895 1352.93 145.827 1353.31H139.396C139.396 1355.18 140.354 1356.12 142.269 1356.12C143.278 1356.12 144.283 1355.91 145.285 1355.51L145.571 1357.54C144.365 1357.98 143.111 1358.2 141.809 1358.2C138.387 1358.2 136.677 1356.43 136.677 1352.89C136.677 1351.29 137.113 1349.98 137.985 1348.97C138.892 1347.92 140.102 1347.39 141.615 1347.39C143.059 1347.39 144.16 1347.81 144.917 1348.67C145.591 1349.44 145.929 1350.48 145.929 1351.8ZM143.271 1351.53C143.312 1350.08 142.712 1349.35 141.471 1349.35C140.258 1349.35 139.573 1350.08 139.417 1351.53H143.271ZM160.579 1353.67C160.579 1354.99 160.078 1356.07 159.076 1356.93C158.054 1357.8 156.735 1358.24 155.119 1358.24C153.886 1358.24 152.795 1358.11 151.848 1357.86L152.144 1355.24C153.112 1355.64 154.138 1355.84 155.222 1355.84C156.803 1355.84 157.593 1355.23 157.593 1354C157.593 1353.42 157.283 1352.94 156.663 1352.56C156.5 1352.47 155.818 1352.17 154.619 1351.67C152.635 1350.86 151.644 1349.6 151.644 1347.89C151.644 1346.61 152.107 1345.59 153.034 1344.82C153.988 1344.03 155.303 1343.64 156.98 1343.64C157.825 1343.64 158.677 1343.73 159.536 1343.91L159.291 1346.29C158.473 1346.03 157.662 1345.9 156.857 1345.9C155.31 1345.9 154.537 1346.46 154.537 1347.59C154.537 1348.14 154.85 1348.6 155.477 1348.97C155.614 1349.05 156.309 1349.36 157.563 1349.89C159.573 1350.75 160.579 1352.01 160.579 1353.67ZM171.528 1351.8C171.528 1352.42 171.494 1352.93 171.426 1353.31H164.995C164.995 1355.18 165.953 1356.12 167.868 1356.12C168.877 1356.12 169.882 1355.91 170.884 1355.51L171.17 1357.54C169.964 1357.98 168.71 1358.2 167.408 1358.2C163.986 1358.2 162.276 1356.43 162.276 1352.89C162.276 1351.29 162.712 1349.98 163.584 1348.97C164.491 1347.92 165.701 1347.39 167.214 1347.39C168.658 1347.39 169.759 1347.81 170.516 1348.67C171.19 1349.44 171.528 1350.48 171.528 1351.8ZM168.87 1351.53C168.911 1350.08 168.311 1349.35 167.07 1349.35C165.857 1349.35 165.172 1350.08 165.016 1351.53H168.87ZM179.338 1350.01C177.41 1349.62 176.445 1350.87 176.445 1353.75V1358H173.767V1347.59H176.302C176.302 1348.25 176.237 1348.95 176.108 1349.69H176.149C176.789 1348.01 177.893 1347.24 179.461 1347.39L179.338 1350.01ZM187.108 1358H183.918L180.34 1347.59H183.233L184.9 1352.62C185.206 1353.64 185.431 1354.51 185.575 1355.22H185.615C185.793 1354.36 186.004 1353.5 186.249 1352.64L187.875 1347.59H190.707L187.108 1358ZM195.348 1344.43C195.348 1344.88 195.184 1345.26 194.857 1345.57C194.523 1345.89 194.128 1346.05 193.671 1346.05C193.208 1346.05 192.816 1345.89 192.496 1345.58C192.175 1345.27 192.015 1344.88 192.015 1344.43C192.015 1343.98 192.175 1343.6 192.496 1343.28C192.816 1342.96 193.208 1342.8 193.671 1342.8C194.135 1342.8 194.53 1342.95 194.857 1343.27C195.184 1343.59 195.348 1343.98 195.348 1344.43ZM192.332 1358V1347.59H195.011V1358H192.332ZM204.774 1357.7C203.942 1358.02 202.968 1358.18 201.85 1358.18C198.722 1358.18 197.157 1356.5 197.157 1353.14C197.157 1351.44 197.59 1350.08 198.456 1349.05C199.39 1347.96 200.722 1347.41 202.453 1347.41C203.285 1347.41 204.045 1347.53 204.733 1347.77L204.314 1350.07C203.666 1349.8 203.019 1349.67 202.371 1349.67C201.594 1349.67 200.995 1349.96 200.572 1350.55C200.163 1351.11 199.959 1351.88 199.959 1352.87C199.959 1354.88 200.77 1355.88 202.392 1355.88C203.121 1355.88 203.799 1355.74 204.426 1355.46L204.774 1357.7ZM215.345 1351.8C215.345 1352.42 215.311 1352.93 215.242 1353.31H208.812C208.812 1355.18 209.77 1356.12 211.685 1356.12C212.693 1356.12 213.699 1355.91 214.701 1355.51L214.987 1357.54C213.78 1357.98 212.526 1358.2 211.225 1358.2C207.803 1358.2 206.093 1356.43 206.093 1352.89C206.093 1351.29 206.529 1349.98 207.401 1348.97C208.308 1347.92 209.517 1347.39 211.03 1347.39C212.475 1347.39 213.576 1347.81 214.333 1348.67C215.007 1349.44 215.345 1350.48 215.345 1351.8ZM212.687 1351.53C212.727 1350.08 212.128 1349.35 210.887 1349.35C209.674 1349.35 208.989 1350.08 208.832 1351.53H212.687Z" fill="#363636"/>
<defs>
<filter id="filter0_d_235_1321" x="0.280858" y="39.8535" width="260.081" height="32.2322" filterUnits="userSpaceOnUse" color-interpolation-filters="sRGB">
<feFlood flood-opacity="0" result="BackgroundImageFix"/>
<feColorMatrix in="SourceAlpha" type="matrix" values="0 0 0 0 0 0 0 0 0 0 0 0 0 0 0 0 0 0 127 0" result="hardAlpha"/>
<feOffset dy="-5.55727"/>
<feGaussianBlur stdDeviation="7.85957"/>
<feComposite in2="hardAlpha" operator="out"/>
<feColorMatrix type="matrix" values="0 0 0 0 0 0 0 0 0 0 0 0 0 0 0 0 0 0 0.88 0"/>
<feBlend mode="normal" in2="BackgroundImageFix" result="effect1_dropShadow_235_1321"/>
<feBlend mode="normal" in="SourceGraphic" in2="effect1_dropShadow_235_1321" result="shape"/>
</filter>
<filter id="filter1_d_235_1321" x="82.8398" y="16.0283" width="140.712" height="136.749" filterUnits="userSpaceOnUse" color-interpolation-filters="sRGB">
<feFlood flood-opacity="0" result="BackgroundImageFix"/>
<feColorMatrix in="SourceAlpha" type="matrix" values="0 0 0 0 0 0 0 0 0 0 0 0 0 0 0 0 0 0 127 0" result="hardAlpha"/>
<feOffset dx="27.7864" dy="23.8169"/>
<feGaussianBlur stdDeviation="9.9237"/>
<feComposite in2="hardAlpha" operator="out"/>
<feColorMatrix type="matrix" values="0 0 0 0 0 0 0 0 0 0 0 0 0 0 0 0 0 0 0.1 0"/>
<feBlend mode="normal" in2="BackgroundImageFix" result="effect1_dropShadow_235_1321"/>
<feBlend mode="normal" in="SourceGraphic" in2="effect1_dropShadow_235_1321" result="shape"/>
</filter>
<filter id="filter2_d_235_1321" x="0.280858" y="279.685" width="260.081" height="32.2322" filterUnits="userSpaceOnUse" color-interpolation-filters="sRGB">
<feFlood flood-opacity="0" result="BackgroundImageFix"/>
<feColorMatrix in="SourceAlpha" type="matrix" values="0 0 0 0 0 0 0 0 0 0 0 0 0 0 0 0 0 0 127 0" result="hardAlpha"/>
<feOffset dy="-5.55727"/>
<feGaussianBlur stdDeviation="7.85957"/>
<feComposite in2="hardAlpha" operator="out"/>
<feColorMatrix type="matrix" values="0 0 0 0 0 0 0 0 0 0 0 0 0 0 0 0 0 0 0.88 0"/>
<feBlend mode="normal" in2="BackgroundImageFix" result="effect1_dropShadow_235_1321"/>
<feBlend mode="normal" in="SourceGraphic" in2="effect1_dropShadow_235_1321" result="shape"/>
</filter>
<filter id="filter3_d_235_1321" x="82.8379" y="255.859" width="140.712" height="136.749" filterUnits="userSpaceOnUse" color-interpolation-filters="sRGB">
<feFlood flood-opacity="0" result="BackgroundImageFix"/>
<feColorMatrix in="SourceAlpha" type="matrix" values="0 0 0 0 0 0 0 0 0 0 0 0 0 0 0 0 0 0 127 0" result="hardAlpha"/>
<feOffset dx="27.7864" dy="23.8169"/>
<feGaussianBlur stdDeviation="9.9237"/>
<feComposite in2="hardAlpha" operator="out"/>
<feColorMatrix type="matrix" values="0 0 0 0 0 0 0 0 0 0 0 0 0 0 0 0 0 0 0.1 0"/>
<feBlend mode="normal" in2="BackgroundImageFix" result="effect1_dropShadow_235_1321"/>
<feBlend mode="normal" in="SourceGraphic" in2="effect1_dropShadow_235_1321" result="shape"/>
</filter>
<filter id="filter4_d_235_1321" x="0.280858" y="519.685" width="260.081" height="32.2322" filterUnits="userSpaceOnUse" color-interpolation-filters="sRGB">
<feFlood flood-opacity="0" result="BackgroundImageFix"/>
<feColorMatrix in="SourceAlpha" type="matrix" values="0 0 0 0 0 0 0 0 0 0 0 0 0 0 0 0 0 0 127 0" result="hardAlpha"/>
<feOffset dy="-5.55727"/>
<feGaussianBlur stdDeviation="7.85957"/>
<feComposite in2="hardAlpha" operator="out"/>
<feColorMatrix type="matrix" values="0 0 0 0 0 0 0 0 0 0 0 0 0 0 0 0 0 0 0.88 0"/>
<feBlend mode="normal" in2="BackgroundImageFix" result="effect1_dropShadow_235_1321"/>
<feBlend mode="normal" in="SourceGraphic" in2="effect1_dropShadow_235_1321" result="shape"/>
</filter>
<filter id="filter5_d_235_1321" x="82.8398" y="495.859" width="140.712" height="136.749" filterUnits="userSpaceOnUse" color-interpolation-filters="sRGB">
<feFlood flood-opacity="0" result="BackgroundImageFix"/>
<feColorMatrix in="SourceAlpha" type="matrix" values="0 0 0 0 0 0 0 0 0 0 0 0 0 0 0 0 0 0 127 0" result="hardAlpha"/>
<feOffset dx="27.7864" dy="23.8169"/>
<feGaussianBlur stdDeviation="9.9237"/>
<feComposite in2="hardAlpha" operator="out"/>
<feColorMatrix type="matrix" values="0 0 0 0 0 0 0 0 0 0 0 0 0 0 0 0 0 0 0.1 0"/>
<feBlend mode="normal" in2="BackgroundImageFix" result="effect1_dropShadow_235_1321"/>
<feBlend mode="normal" in="SourceGraphic" in2="effect1_dropShadow_235_1321" result="shape"/>
</filter>
<filter id="filter6_d_235_1321" x="0.280858" y="748.659" width="260.081" height="32.2322" filterUnits="userSpaceOnUse" color-interpolation-filters="sRGB">
<feFlood flood-opacity="0" result="BackgroundImageFix"/>
<feColorMatrix in="SourceAlpha" type="matrix" values="0 0 0 0 0 0 0 0 0 0 0 0 0 0 0 0 0 0 127 0" result="hardAlpha"/>
<feOffset dy="-5.55727"/>
<feGaussianBlur stdDeviation="7.85957"/>
<feComposite in2="hardAlpha" operator="out"/>
<feColorMatrix type="matrix" values="0 0 0 0 0 0 0 0 0 0 0 0 0 0 0 0 0 0 0.88 0"/>
<feBlend mode="normal" in2="BackgroundImageFix" result="effect1_dropShadow_235_1321"/>
<feBlend mode="normal" in="SourceGraphic" in2="effect1_dropShadow_235_1321" result="shape"/>
</filter>
<filter id="filter7_d_235_1321" x="82.8398" y="724.834" width="140.712" height="136.749" filterUnits="userSpaceOnUse" color-interpolation-filters="sRGB">
<feFlood flood-opacity="0" result="BackgroundImageFix"/>
<feColorMatrix in="SourceAlpha" type="matrix" values="0 0 0 0 0 0 0 0 0 0 0 0 0 0 0 0 0 0 127 0" result="hardAlpha"/>
<feOffset dx="27.7864" dy="23.8169"/>
<feGaussianBlur stdDeviation="9.9237"/>
<feComposite in2="hardAlpha" operator="out"/>
<feColorMatrix type="matrix" values="0 0 0 0 0 0 0 0 0 0 0 0 0 0 0 0 0 0 0.1 0"/>
<feBlend mode="normal" in2="BackgroundImageFix" result="effect1_dropShadow_235_1321"/>
<feBlend mode="normal" in="SourceGraphic" in2="effect1_dropShadow_235_1321" result="shape"/>
</filter>
<filter id="filter8_d_235_1321" x="0.280858" y="977.685" width="260.081" height="32.2322" filterUnits="userSpaceOnUse" color-interpolation-filters="sRGB">
<feFlood flood-opacity="0" result="BackgroundImageFix"/>
<feColorMatrix in="SourceAlpha" type="matrix" values="0 0 0 0 0 0 0 0 0 0 0 0 0 0 0 0 0 0 127 0" result="hardAlpha"/>
<feOffset dy="-5.55727"/>
<feGaussianBlur stdDeviation="7.85957"/>
<feComposite in2="hardAlpha" operator="out"/>
<feColorMatrix type="matrix" values="0 0 0 0 0 0 0 0 0 0 0 0 0 0 0 0 0 0 0.88 0"/>
<feBlend mode="normal" in2="BackgroundImageFix" result="effect1_dropShadow_235_1321"/>
<feBlend mode="normal" in="SourceGraphic" in2="effect1_dropShadow_235_1321" result="shape"/>
</filter>
<filter id="filter9_d_235_1321" x="82.8379" y="953.859" width="140.712" height="136.749" filterUnits="userSpaceOnUse" color-interpolation-filters="sRGB">
<feFlood flood-opacity="0" result="BackgroundImageFix"/>
<feColorMatrix in="SourceAlpha" type="matrix" values="0 0 0 0 0 0 0 0 0 0 0 0 0 0 0 0 0 0 127 0" result="hardAlpha"/>
<feOffset dx="27.7864" dy="23.8169"/>
<feGaussianBlur stdDeviation="9.9237"/>
<feComposite in2="hardAlpha" operator="out"/>
<feColorMatrix type="matrix" values="0 0 0 0 0 0 0 0 0 0 0 0 0 0 0 0 0 0 0.1 0"/>
<feBlend mode="normal" in2="BackgroundImageFix" result="effect1_dropShadow_235_1321"/>
<feBlend mode="normal" in="SourceGraphic" in2="effect1_dropShadow_235_1321" result="shape"/>
</filter>
<filter id="filter10_d_235_1321" x="0.280858" y="1229.68" width="260.081" height="32.2322" filterUnits="userSpaceOnUse" color-interpolation-filters="sRGB">
<feFlood flood-opacity="0" result="BackgroundImageFix"/>
<feColorMatrix in="SourceAlpha" type="matrix" values="0 0 0 0 0 0 0 0 0 0 0 0 0 0 0 0 0 0 127 0" result="hardAlpha"/>
<feOffset dy="-5.55727"/>
<feGaussianBlur stdDeviation="7.85957"/>
<feComposite in2="hardAlpha" operator="out"/>
<feColorMatrix type="matrix" values="0 0 0 0 0 0 0 0 0 0 0 0 0 0 0 0 0 0 0.88 0"/>
<feBlend mode="normal" in2="BackgroundImageFix" result="effect1_dropShadow_235_1321"/>
<feBlend mode="normal" in="SourceGraphic" in2="effect1_dropShadow_235_1321" result="shape"/>
</filter>
<filter id="filter11_d_235_1321" x="82.8398" y="1205.86" width="140.712" height="136.749" filterUnits="userSpaceOnUse" color-interpolation-filters="sRGB">
<feFlood flood-opacity="0" result="BackgroundImageFix"/>
<feColorMatrix in="SourceAlpha" type="matrix" values="0 0 0 0 0 0 0 0 0 0 0 0 0 0 0 0 0 0 127 0" result="hardAlpha"/>
<feOffset dx="27.7864" dy="23.8169"/>
<feGaussianBlur stdDeviation="9.9237"/>
<feComposite in2="hardAlpha" operator="out"/>
<feColorMatrix type="matrix" values="0 0 0 0 0 0 0 0 0 0 0 0 0 0 0 0 0 0 0.1 0"/>
<feBlend mode="normal" in2="BackgroundImageFix" result="effect1_dropShadow_235_1321"/>
<feBlend mode="normal" in="SourceGraphic" in2="effect1_dropShadow_235_1321" result="shape"/>
</filter>
<linearGradient id="paint0_linear_235_1321" x1="162.239" y1="95.4367" x2="96.5147" y2="29.7092" gradientUnits="userSpaceOnUse">
<stop stop-color="#EBEAEA"/>
<stop offset="1" stop-color="white"/>
</linearGradient>
<linearGradient id="paint1_linear_235_1321" x1="162.237" y1="335.268" x2="96.5127" y2="269.54" gradientUnits="userSpaceOnUse">
<stop stop-color="#EBEAEA"/>
<stop offset="1" stop-color="white"/>
</linearGradient>
<linearGradient id="paint2_linear_235_1321" x1="162.239" y1="575.268" x2="96.5147" y2="509.54" gradientUnits="userSpaceOnUse">
<stop stop-color="#EBEAEA"/>
<stop offset="1" stop-color="white"/>
</linearGradient>
<linearGradient id="paint3_linear_235_1321" x1="162.239" y1="804.242" x2="96.5147" y2="738.515" gradientUnits="userSpaceOnUse">
<stop stop-color="#EBEAEA"/>
<stop offset="1" stop-color="white"/>
</linearGradient>
<linearGradient id="paint4_linear_235_1321" x1="162.237" y1="1033.27" x2="96.5127" y2="967.54" gradientUnits="userSpaceOnUse">
<stop stop-color="#EBEAEA"/>
<stop offset="1" stop-color="white"/>
</linearGradient>
<linearGradient id="paint5_linear_235_1321" x1="162.239" y1="1285.27" x2="96.5147" y2="1219.54" gradientUnits="userSpaceOnUse">
<stop stop-color="#EBEAEA"/>
<stop offset="1" stop-color="white"/>
</linearGradient>
</defs>
</svg>
