<svg width="32" height="13" viewBox="0 0 32 13" fill="none" xmlns="http://www.w3.org/2000/svg">
<path d="M2.29243 12.9736C2.02712 12.9713 1.76839 12.8908 1.54869 12.742C1.329 12.5932 1.15813 12.3829 1.05752 12.1374C0.9569 11.8919 0.931009 11.6222 0.983115 11.362C1.03522 11.1018 1.163 10.8629 1.35041 10.6751L5.28181 6.75622L1.00186 2.47312C0.866891 2.35051 0.758198 2.20179 0.682406 2.03595C0.606614 1.87011 0.565306 1.69059 0.560934 1.5083C0.556562 1.32601 0.589238 1.14474 0.656992 0.975456C0.724747 0.80617 0.82616 0.652389 0.955095 0.523454C1.08403 0.394519 1.23781 0.293106 1.4071 0.225352C1.57638 0.157597 1.75765 0.124921 1.93994 0.129294C2.12223 0.133666 2.30173 0.174992 2.46757 0.250785C2.63341 0.326577 2.78213 0.43525 2.90474 0.570218L9.09075 6.75622L3.25957 12.5874C3.13206 12.7127 2.9809 12.8114 2.81485 12.8777C2.6488 12.944 2.47121 12.9766 2.29243 12.9736Z" fill="#636363"/>
<path d="M13.4551 12.9736C13.1897 12.9713 12.931 12.8908 12.7113 12.742C12.4916 12.5932 12.3208 12.3829 12.2201 12.1374C12.1195 11.8919 12.0936 11.6222 12.1457 11.362C12.1978 11.1018 12.3256 10.8629 12.513 10.6751L16.4224 6.75622L12.1425 2.47312C12.0075 2.35051 11.8989 2.20179 11.8231 2.03595C11.7473 1.87011 11.7059 1.69059 11.7016 1.5083C11.6972 1.32601 11.7299 1.14474 11.7976 0.975456C11.8654 0.80617 11.9668 0.652389 12.0957 0.523454C12.2247 0.394519 12.3784 0.293106 12.5477 0.225352C12.717 0.157597 12.8983 0.124921 13.0806 0.129294C13.2629 0.133666 13.4424 0.174992 13.6082 0.250785C13.774 0.326577 13.9228 0.43525 14.0454 0.570218L20.2314 6.75622L14.4002 12.5874C14.1481 12.8352 13.8086 12.9739 13.4551 12.9736Z" fill="#636363"/>
<path d="M24.6089 12.9736C24.3436 12.9713 24.0849 12.8908 23.8652 12.742C23.6455 12.5932 23.4746 12.3829 23.374 12.1374C23.2734 11.8919 23.2475 11.6222 23.2996 11.362C23.3517 11.1018 23.4795 10.8629 23.6669 10.6751L27.5857 6.75622L23.3026 2.47312C23.1677 2.35051 23.059 2.20179 22.9832 2.03595C22.9074 1.87011 22.8661 1.69059 22.8617 1.5083C22.8573 1.32601 22.89 1.14474 22.9578 0.975456C23.0255 0.80617 23.1269 0.652389 23.2559 0.523454C23.3848 0.394519 23.5386 0.293106 23.7078 0.225352C23.8771 0.157597 24.0584 0.124921 24.2407 0.129294C24.423 0.133666 24.6025 0.174992 24.7684 0.250785C24.9342 0.326577 25.0829 0.43525 25.2055 0.570218L31.3915 6.75622L25.5604 12.5874C25.3068 12.837 24.9647 12.9759 24.6089 12.9736Z" fill="#636363"/>
</svg>
