<svg width="1408" height="198" viewBox="0 0 1408 198" fill="none" xmlns="http://www.w3.org/2000/svg">
<g filter="url(#filter0_d_224_1343)">
<line x1="1163.36" y1="61.7904" x2="1392" y2="61.7904" stroke="white" stroke-width="0.793896"/>
</g>
<rect x="1163.36" y="62.1874" width="228.642" height="36.5192" fill="white"/>
<path d="M1328.53 62.8374H1325.99C1325.99 35.6874 1303.9 13.6006 1276.75 13.6006C1249.61 13.6006 1227.5 35.6844 1227.5 62.8374H1224.95C1224.95 34.2794 1248.18 11.0437 1276.74 11.0437C1305.3 11.0437 1328.53 34.2794 1328.53 62.8374Z" fill="#0F898C"/>
<g filter="url(#filter1_d_224_1343)">
<path d="M1230.21 64.0104C1230.52 75.9493 1235.39 87.3156 1243.84 95.7573C1252.29 104.199 1263.66 109.07 1275.6 109.363C1302 109.997 1323.79 88.2969 1323.27 61.891C1323.1 53.4176 1320.62 45.1516 1316.09 37.9848C1311.57 30.8181 1305.17 25.0227 1297.6 21.224C1294.37 19.5974 1290.96 18.3565 1287.44 17.527C1284.24 16.7753 1280.97 16.3642 1277.69 16.3006C1251.26 15.7797 1229.55 37.5867 1230.21 64.0104Z" fill="url(#paint0_linear_224_1343)"/>
</g>
<path d="M1307.96 94.0579C1325.28 76.7443 1325.33 48.7299 1308.09 31.4861C1290.84 14.2422 1262.83 14.2988 1245.52 31.6124C1228.2 48.926 1228.15 76.9403 1245.39 94.1842C1262.63 111.428 1290.65 111.371 1307.96 94.0579Z" fill="#F9F9F9"/>
<path d="M1269.62 51.2925C1271.96 51.2925 1273.85 52.4081 1275.29 54.6391C1276.5 56.4883 1277.1 58.6892 1277.1 61.2419C1277.1 64.2971 1276.34 66.7492 1274.81 68.5984C1273.44 70.2667 1271.71 71.1008 1269.62 71.1008C1267.19 71.1008 1265.3 70.0355 1263.96 67.905C1262.81 66.1161 1262.24 63.8951 1262.24 61.2419C1262.24 58.2671 1262.99 55.825 1264.5 53.9155C1265.85 52.1669 1267.55 51.2925 1269.62 51.2925ZM1269.68 54.9105C1267.65 54.9105 1266.64 56.9607 1266.64 61.061C1266.64 63.1313 1266.93 64.7593 1267.51 65.9452C1268.04 67.0105 1268.73 67.5432 1269.59 67.5432C1270.56 67.5432 1271.31 66.9703 1271.86 65.8246C1272.42 64.6789 1272.7 63.0911 1272.7 61.061C1272.7 56.9607 1271.69 54.9105 1269.68 54.9105ZM1287.7 51.6543V70.739H1283.45V56.5084C1283.19 56.6893 1282.79 56.9305 1282.27 57.232C1281.55 57.6541 1281.01 57.9958 1280.67 58.2571C1280.41 57.7948 1279.98 57.0611 1279.38 56.0562L1279.26 55.8753C1279.07 55.5738 1278.89 55.2723 1278.71 54.9708C1279.4 54.4482 1280.42 53.7246 1281.79 52.8L1282.12 52.589C1282.68 52.187 1283.13 51.8754 1283.45 51.6543H1287.7Z" fill="#0F898C"/>
<g filter="url(#filter2_d_224_1343)">
<line x1="16" y1="61.7906" x2="244.642" y2="61.7906" stroke="white" stroke-width="0.793896"/>
</g>
<rect x="16" y="62.1875" width="228.642" height="36.5192" fill="white"/>
<path d="M181.168 62.8379H178.632C178.632 35.6879 156.543 13.6011 129.395 13.6011C102.248 13.6011 80.1408 35.6849 80.1408 62.8379H77.5898C77.5898 34.2799 100.823 11.0442 129.384 11.0442C157.945 11.0442 181.168 34.2799 181.168 62.8379Z" fill="#FFDC7F"/>
<g filter="url(#filter3_d_224_1343)">
<path d="M82.8548 64.0109C83.156 75.9498 88.0353 87.316 96.4831 95.7578C104.931 104.199 116.301 109.071 128.24 109.363C154.643 109.997 176.435 88.2974 175.908 61.8915C175.737 53.4181 173.256 45.1521 168.732 37.9853C164.208 30.8186 157.813 25.0232 150.237 21.2245C147.01 19.5979 143.602 18.357 140.084 17.5275C136.885 16.7758 133.615 16.3647 130.329 16.3011C103.9 15.7802 82.188 37.5872 82.8548 64.0109Z" fill="url(#paint1_linear_224_1343)"/>
</g>
<path d="M160.88 94.0583C178.194 76.7447 178.251 48.7303 161.007 31.4864C143.763 14.2426 115.749 14.2991 98.435 31.6127C81.1214 48.9263 81.0648 76.9407 98.3087 94.1845C115.553 111.428 143.567 111.372 160.88 94.0583Z" fill="#F9F9F9"/>
<path d="M121.543 51.2928C123.874 51.2928 125.764 52.4083 127.211 54.6394C128.417 56.4886 129.02 58.6895 129.02 61.2421C129.02 64.2973 128.256 66.7495 126.728 68.5986C125.362 70.2669 123.633 71.1011 121.543 71.1011C119.111 71.1011 117.221 70.0358 115.875 67.9052C114.729 66.1163 114.156 63.8953 114.156 61.2421C114.156 58.2674 114.91 55.8253 116.417 53.9158C117.764 52.1671 119.472 51.2928 121.543 51.2928ZM121.603 54.9107C119.573 54.9107 118.558 56.9609 118.558 61.0612C118.558 63.1315 118.849 64.7596 119.432 65.9455C119.955 67.0108 120.648 67.5434 121.513 67.5434C122.477 67.5434 123.231 66.9706 123.774 65.8249C124.337 64.6792 124.618 63.0913 124.618 61.0612C124.618 56.9609 123.613 54.9107 121.603 54.9107ZM144.169 53.2223L142.721 55.9057C141.335 55.2424 140.118 54.9107 139.073 54.9107C138.109 54.9107 137.335 55.2826 136.752 56.0263C136.169 56.7699 135.877 57.7448 135.877 58.9508V59.0412C136.541 58.5186 137.516 58.2573 138.802 58.2573C140.671 58.2573 142.139 58.7699 143.204 59.795C144.309 60.8803 144.862 62.4682 144.862 64.5586C144.862 66.3073 144.289 67.8147 143.143 69.081C141.938 70.4277 140.299 71.1011 138.229 71.1011C133.787 71.1011 131.566 68.0961 131.566 62.0863C131.566 54.8906 134.028 51.2928 138.953 51.2928C139.897 51.2928 140.862 51.4737 141.847 51.8355C142.832 52.1973 143.606 52.6596 144.169 53.2223ZM135.877 61.9657C135.898 63.9556 136.018 65.3224 136.239 66.0661C136.581 67.2319 137.224 67.8147 138.169 67.8147C138.772 67.8147 139.294 67.4932 139.737 66.85C140.199 66.1867 140.43 65.4229 140.43 64.5586C140.43 62.3476 139.556 61.2421 137.807 61.2421C137.063 61.2421 136.42 61.4833 135.877 61.9657Z" fill="#FCD97E"/>
<g filter="url(#filter4_d_224_1343)">
<line x1="245.475" y1="61.7904" x2="474.117" y2="61.7904" stroke="white" stroke-width="0.793896"/>
</g>
<rect x="245.475" y="62.1874" width="228.642" height="36.5192" fill="white"/>
<path d="M410.641 62.8377H408.105C408.105 35.6876 386.015 13.6009 358.868 13.6009C331.721 13.6009 309.613 35.6847 309.613 62.8377H307.062C307.062 34.2797 330.295 11.0439 358.856 11.0439C387.417 11.0439 410.641 34.2797 410.641 62.8377Z" fill="#AA6C39"/>
<g filter="url(#filter5_d_224_1343)">
<path d="M312.327 64.0106C312.629 75.9496 317.508 87.3158 325.956 95.7575C334.404 104.199 345.773 109.07 357.712 109.363C384.115 109.997 405.907 88.2971 405.381 61.8913C405.21 53.4178 402.729 45.1518 398.205 37.9851C393.681 30.8183 387.286 25.023 379.71 21.2243C376.482 19.5976 373.074 18.3567 369.557 17.5273C366.357 16.7756 363.088 16.3645 359.802 16.3009C333.372 15.78 311.661 37.5869 312.327 64.0106Z" fill="url(#paint2_linear_224_1343)"/>
</g>
<path d="M390.355 94.0579C407.669 76.7443 407.725 48.7299 390.481 31.4861C373.238 14.2422 345.223 14.2988 327.91 31.6124C310.596 48.926 310.539 76.9403 327.783 94.1842C345.027 111.428 373.042 111.371 390.355 94.0579Z" fill="#F9F9F9"/>
<path d="M350.956 51.2925C353.288 51.2925 355.177 52.4081 356.625 54.6391C357.831 56.4883 358.434 58.6892 358.434 61.2419C358.434 64.2971 357.67 66.7492 356.142 68.5984C354.775 70.2667 353.047 71.1008 350.956 71.1008C348.524 71.1008 346.635 70.0355 345.288 67.905C344.143 66.1161 343.57 63.8951 343.57 61.2419C343.57 58.2671 344.324 55.825 345.831 53.9155C347.178 52.1669 348.886 51.2925 350.956 51.2925ZM351.017 54.9105C348.987 54.9105 347.972 56.9607 347.972 61.061C347.972 63.1313 348.263 64.7593 348.846 65.9452C349.369 67.0105 350.062 67.5432 350.926 67.5432C351.891 67.5432 352.645 66.9703 353.188 65.8246C353.75 64.6789 354.032 63.0911 354.032 61.061C354.032 56.9607 353.027 54.9105 351.017 54.9105ZM373.1 55.0311H366.527V58.5586C366.769 58.4983 367.04 58.4681 367.341 58.4681C369.693 58.4681 371.462 59.0309 372.648 60.1565C373.753 61.2017 374.306 62.669 374.306 64.5583C374.306 66.4879 373.582 68.0959 372.135 69.3823C370.849 70.528 369.291 71.1008 367.462 71.1008C364.95 71.1008 362.789 70.1863 360.98 68.3572L362.728 65.6739C364.236 66.8196 365.673 67.3924 367.04 67.3924C369.01 67.3924 369.995 66.5382 369.995 64.8297C369.995 62.8197 368.658 61.8147 365.985 61.8147C365.02 61.8147 363.985 61.9454 362.879 62.2067L362.759 62.2368C362.558 62.2971 362.417 62.3373 362.337 62.3574V51.6543H373.1V55.0311Z" fill="#AA6C39"/>
<g filter="url(#filter6_d_224_1343)">
<line x1="474.939" y1="61.7904" x2="703.582" y2="61.7904" stroke="white" stroke-width="0.793896"/>
</g>
<rect x="474.939" y="62.1874" width="228.642" height="36.5192" fill="white"/>
<path d="M640.11 62.8378H637.574C637.574 35.6878 615.484 13.601 588.337 13.601C561.19 13.601 539.082 35.6848 539.082 62.8378H536.531C536.531 34.2798 559.764 11.0441 588.325 11.0441C616.886 11.0441 640.11 34.2798 640.11 62.8378Z" fill="#78B7D0"/>
<g filter="url(#filter7_d_224_1343)">
<path d="M541.794 64.0106C542.095 75.9496 546.975 87.3158 555.423 95.7575C563.87 104.199 575.24 109.07 587.179 109.363C613.582 109.997 635.374 88.2971 634.847 61.8913C634.677 53.4178 632.196 45.1518 627.672 37.9851C623.148 30.8183 616.753 25.023 609.177 21.2243C605.949 19.5976 602.541 18.3567 599.023 17.5273C595.824 16.7756 592.555 16.3645 589.269 16.3009C562.839 15.78 541.127 37.5869 541.794 64.0106Z" fill="url(#paint3_linear_224_1343)"/>
</g>
<path d="M620.66 94.058C637.973 76.7444 638.03 48.7301 620.786 31.4862C603.542 14.2424 575.528 14.2989 558.214 31.6125C540.901 48.9261 540.844 76.9404 558.088 94.1843C575.332 111.428 603.346 111.372 620.66 94.058Z" fill="#F9F9F9"/>
<path d="M579.234 51.2925C581.566 51.2925 583.455 52.4081 584.902 54.6391C586.108 56.4883 586.711 58.6892 586.711 61.2419C586.711 64.2971 585.947 66.7492 584.42 68.5984C583.053 70.2667 581.324 71.1008 579.234 71.1008C576.802 71.1008 574.913 70.0355 573.566 67.905C572.42 66.1161 571.847 63.8951 571.847 61.2419C571.847 58.2671 572.601 55.825 574.109 53.9155C575.455 52.1669 577.164 51.2925 579.234 51.2925ZM579.294 54.9105C577.264 54.9105 576.249 56.9607 576.249 61.061C576.249 63.1313 576.541 64.7593 577.124 65.9452C577.646 67.0105 578.34 67.5432 579.204 67.5432C580.169 67.5432 580.922 66.9703 581.465 65.8246C582.028 64.6789 582.309 63.0911 582.309 61.061C582.309 56.9607 581.304 54.9105 579.294 54.9105ZM588.473 63.7142C591.006 59.8349 593.649 55.815 596.403 51.6543H600.563V63.7142H603.639V67.0909H600.563V70.739H596.343V67.0909H588.473V63.7142ZM592.091 63.7142H596.343V57.0511C595.86 57.7948 595.257 58.7395 594.534 59.8852C593.468 61.5534 592.654 62.8298 592.091 63.7142Z" fill="#75B2CB"/>
<g filter="url(#filter8_d_224_1343)">
<line x1="704.414" y1="61.7906" x2="933.056" y2="61.7906" stroke="white" stroke-width="0.793896"/>
</g>
<rect x="704.414" y="62.1875" width="228.642" height="36.5192" fill="white"/>
<path d="M869.582 62.8375H867.046C867.046 35.6875 844.957 13.6008 817.81 13.6008C790.662 13.6008 768.555 35.6845 768.555 62.8375H766.004C766.004 34.2796 789.237 11.0438 817.798 11.0438C846.359 11.0438 869.582 34.2796 869.582 62.8375Z" fill="#EFAF32"/>
<g filter="url(#filter9_d_224_1343)">
<path d="M771.269 64.0104C771.57 75.9493 776.449 87.3156 784.897 95.7573C793.345 104.199 804.715 109.07 816.654 109.363C843.057 109.997 864.849 88.2969 864.322 61.891C864.151 53.4176 861.67 45.1516 857.146 37.9848C852.623 30.8181 846.227 25.0227 838.651 21.224C835.424 19.5974 832.016 18.3565 828.498 17.527C825.299 16.7753 822.029 16.3642 818.743 16.3006C792.314 15.7797 770.602 37.5867 771.269 64.0104Z" fill="url(#paint4_linear_224_1343)"/>
</g>
<path d="M849.295 94.058C866.608 76.7444 866.665 48.7301 849.421 31.4862C832.177 14.2424 804.163 14.2989 786.849 31.6125C769.535 48.9261 769.479 76.9404 786.723 94.1843C803.967 111.428 831.981 111.372 849.295 94.058Z" fill="#F9F9F9"/>
<path d="M810.676 51.2926C813.008 51.2926 814.897 52.4082 816.344 54.6393C817.55 56.4884 818.153 58.6893 818.153 61.242C818.153 64.2972 817.389 66.7493 815.862 68.5985C814.495 70.2668 812.766 71.1009 810.676 71.1009C808.244 71.1009 806.355 70.0356 805.008 67.9051C803.862 66.1162 803.289 63.8952 803.289 61.242C803.289 58.2673 804.043 55.8251 805.551 53.9157C806.897 52.167 808.606 51.2926 810.676 51.2926ZM810.736 54.9106C808.706 54.9106 807.691 56.9608 807.691 61.0611C807.691 63.1314 807.983 64.7595 808.566 65.9454C809.088 67.0106 809.782 67.5433 810.646 67.5433C811.611 67.5433 812.364 66.9704 812.907 65.8248C813.47 64.6791 813.751 63.0912 813.751 61.0611C813.751 56.9608 812.746 54.9106 810.736 54.9106ZM822.93 62.3274V58.8903H825.885H826.126C826.83 58.8903 827.312 58.7496 827.573 58.4683C827.855 58.1869 827.996 57.6743 827.996 56.9306C827.996 56.2874 827.815 55.7749 827.453 55.393C827.091 55.0111 826.609 54.8202 826.006 54.8202C824.759 54.8202 823.483 55.403 822.177 56.5688L820.639 53.8252C822.327 52.1368 824.247 51.2926 826.398 51.2926C828.166 51.2926 829.624 51.7951 830.769 52.8001C831.875 53.7448 832.428 55.001 832.428 56.5688C832.428 57.5738 832.267 58.3477 831.945 58.8903C831.624 59.433 831.051 59.8953 830.227 60.2772C832.156 61.0812 833.121 62.5686 833.121 64.7394C833.121 67.1513 832.307 68.89 830.679 69.9552C829.553 70.6989 828.136 71.0708 826.428 71.0708C825.503 71.0708 824.428 70.8095 823.202 70.2869C821.976 69.7643 821.001 69.1513 820.277 68.4478L821.996 65.8851C823.041 66.89 824.428 67.3925 826.156 67.3925C826.94 67.3925 827.563 67.1614 828.026 66.6991C828.488 66.2368 828.719 65.6137 828.719 64.8298C828.719 63.1615 827.774 62.3274 825.885 62.3274H822.93Z" fill="#E2A52F"/>
<g filter="url(#filter10_d_224_1343)">
<line x1="933.889" y1="61.7904" x2="1162.53" y2="61.7904" stroke="white" stroke-width="0.793896"/>
</g>
<rect x="933.889" y="62.1874" width="228.642" height="36.5192" fill="white"/>
<path d="M1099.06 62.8377H1096.52C1096.52 35.6876 1074.43 13.6009 1047.28 13.6009C1020.14 13.6009 998.028 35.6847 998.028 62.8377H995.477C995.477 34.2797 1018.71 11.0439 1047.27 11.0439C1075.83 11.0439 1099.06 34.2797 1099.06 62.8377Z" fill="#2E4272"/>
<g filter="url(#filter11_d_224_1343)">
<path d="M1000.74 64.0104C1001.04 75.9493 1005.92 87.3156 1014.37 95.7573C1022.82 104.199 1034.19 109.07 1046.13 109.363C1072.53 109.997 1094.32 88.2969 1093.79 61.891C1093.62 53.4176 1091.14 45.1516 1086.62 37.9848C1082.1 30.8181 1075.7 25.0227 1068.12 21.224C1064.9 19.5974 1061.49 18.3565 1057.97 17.527C1054.77 16.7753 1051.5 16.3642 1048.22 16.3006C1021.79 15.7797 1000.07 37.5867 1000.74 64.0104Z" fill="url(#paint5_linear_224_1343)"/>
</g>
<path d="M1078.77 94.058C1096.08 76.7444 1096.14 48.7301 1078.9 31.4862C1061.65 14.2424 1033.64 14.2989 1016.32 31.6125C999.01 48.9261 998.954 76.9404 1016.2 94.1843C1033.44 111.428 1061.46 111.372 1078.77 94.058Z" fill="#F9F9F9"/>
<path d="M1039.8 51.2925C1042.13 51.2925 1044.02 52.4081 1045.47 54.6391C1046.67 56.4883 1047.28 58.6892 1047.28 61.2419C1047.28 64.2971 1046.51 66.7492 1044.98 68.5984C1043.62 70.2667 1041.89 71.1008 1039.8 71.1008C1037.37 71.1008 1035.48 70.0355 1034.13 67.905C1032.98 66.1161 1032.41 63.8951 1032.41 61.2419C1032.41 58.2671 1033.17 55.825 1034.67 53.9155C1036.02 52.1669 1037.73 51.2925 1039.8 51.2925ZM1039.86 54.9105C1037.83 54.9105 1036.81 56.9607 1036.81 61.061C1036.81 63.1313 1037.11 64.7593 1037.69 65.9452C1038.21 67.0105 1038.9 67.5432 1039.77 67.5432C1040.73 67.5432 1041.49 66.9703 1042.03 65.8246C1042.59 64.6789 1042.87 63.0911 1042.87 61.061C1042.87 56.9607 1041.87 54.9105 1039.86 54.9105ZM1049.73 70.739V67.1512L1054.37 61.6941C1055.74 60.1063 1056.58 59.0611 1056.88 58.5586C1057.18 58.0561 1057.33 57.4631 1057.33 56.7798C1057.33 56.217 1057.13 55.7547 1056.73 55.3929C1056.32 55.0311 1055.82 54.8502 1055.22 54.8502C1054.03 54.8502 1052.72 55.3426 1051.27 56.3275L1049.49 53.7346C1051.56 52.0865 1053.73 51.2624 1056 51.2624C1057.75 51.2624 1059.14 51.7247 1060.16 52.6493C1061.19 53.5537 1061.7 54.8401 1061.7 56.5084C1061.7 58.237 1060.94 60.1364 1059.41 62.2067C1058.83 62.9906 1057.33 64.7091 1054.92 67.3623H1061.55V70.739H1049.73Z" fill="#2D4170"/>
<path d="M1176.55 190.974C1176.81 190.971 1177.07 190.891 1177.29 190.742C1177.51 190.593 1177.68 190.383 1177.78 190.137C1177.88 189.892 1177.91 189.622 1177.86 189.362C1177.81 189.102 1177.68 188.863 1177.49 188.675L1173.56 184.756L1177.84 180.473C1177.97 180.351 1178.08 180.202 1178.16 180.036C1178.24 179.87 1178.28 179.691 1178.28 179.508C1178.29 179.326 1178.25 179.145 1178.18 178.975C1178.12 178.806 1178.02 178.652 1177.89 178.523C1177.76 178.395 1177.6 178.293 1177.43 178.225C1177.27 178.158 1177.08 178.125 1176.9 178.129C1176.72 178.134 1176.54 178.175 1176.37 178.251C1176.21 178.327 1176.06 178.435 1175.94 178.57L1169.75 184.756L1175.58 190.587C1175.71 190.713 1175.86 190.811 1176.03 190.878C1176.19 190.944 1176.37 190.977 1176.55 190.974Z" fill="#636363"/>
<path d="M1165.39 190.974C1165.65 190.971 1165.91 190.891 1166.13 190.742C1166.35 190.593 1166.52 190.383 1166.62 190.137C1166.72 189.892 1166.75 189.622 1166.7 189.362C1166.64 189.102 1166.52 188.863 1166.33 188.675L1162.42 184.756L1166.7 180.473C1166.83 180.351 1166.94 180.202 1167.02 180.036C1167.09 179.87 1167.14 179.691 1167.14 179.508C1167.14 179.326 1167.11 179.145 1167.04 178.975C1166.98 178.806 1166.88 178.652 1166.75 178.523C1166.62 178.395 1166.46 178.293 1166.29 178.225C1166.12 178.158 1165.94 178.125 1165.76 178.129C1165.58 178.134 1165.4 178.175 1165.23 178.251C1165.07 178.327 1164.92 178.435 1164.8 178.57L1158.61 184.756L1164.44 190.587C1164.69 190.835 1165.03 190.974 1165.39 190.974Z" fill="#636363"/>
<path d="M1154.23 190.974C1154.5 190.971 1154.76 190.891 1154.98 190.742C1155.2 190.593 1155.37 190.383 1155.47 190.137C1155.57 189.892 1155.59 189.622 1155.54 189.362C1155.49 189.102 1155.36 188.863 1155.17 188.675L1151.26 184.756L1155.54 180.473C1155.67 180.351 1155.78 180.202 1155.86 180.036C1155.93 179.87 1155.98 179.691 1155.98 179.508C1155.98 179.326 1155.95 179.145 1155.88 178.975C1155.82 178.806 1155.71 178.652 1155.59 178.523C1155.46 178.395 1155.3 178.293 1155.13 178.225C1154.96 178.158 1154.78 178.125 1154.6 178.129C1154.42 178.134 1154.24 178.175 1154.07 178.251C1153.91 178.327 1153.76 178.435 1153.64 178.57L1147.45 184.756L1153.28 190.587C1153.53 190.837 1153.88 190.976 1154.23 190.974Z" fill="#636363"/>
<path d="M947.913 190.974C948.178 190.971 948.437 190.891 948.656 190.742C948.876 190.593 949.047 190.383 949.148 190.137C949.248 189.892 949.274 189.622 949.222 189.362C949.17 189.102 949.042 188.863 948.855 188.675L944.923 184.756L949.203 180.473C949.338 180.351 949.447 180.202 949.523 180.036C949.598 179.87 949.64 179.691 949.644 179.508C949.649 179.326 949.616 179.145 949.548 178.975C949.48 178.806 949.379 178.652 949.25 178.523C949.121 178.395 948.967 178.293 948.798 178.225C948.629 178.158 948.447 178.125 948.265 178.129C948.083 178.134 947.903 178.175 947.738 178.251C947.572 178.327 947.423 178.435 947.3 178.57L941.114 184.756L946.946 190.587C947.073 190.713 947.224 190.811 947.39 190.878C947.556 190.944 947.734 190.977 947.913 190.974Z" fill="#636363"/>
<path d="M936.75 190.974C937.015 190.971 937.274 190.891 937.494 190.742C937.713 190.593 937.884 190.383 937.985 190.137C938.086 189.892 938.111 189.622 938.059 189.362C938.007 189.102 937.879 188.863 937.692 188.675L933.783 184.756L938.063 180.473C938.198 180.351 938.306 180.202 938.382 180.036C938.458 179.87 938.499 179.691 938.504 179.508C938.508 179.326 938.475 179.145 938.407 178.975C938.34 178.806 938.238 178.652 938.109 178.523C937.98 178.395 937.827 178.293 937.657 178.225C937.488 178.158 937.307 178.125 937.125 178.129C936.942 178.134 936.763 178.175 936.597 178.251C936.431 178.327 936.282 178.435 936.16 178.57L929.974 184.756L935.805 190.587C936.057 190.835 936.396 190.974 936.75 190.974Z" fill="#636363"/>
<path d="M925.596 190.974C925.861 190.971 926.12 190.891 926.34 190.742C926.56 190.593 926.73 190.383 926.831 190.137C926.932 189.892 926.958 189.622 926.905 189.362C926.853 189.102 926.726 188.863 926.538 188.675L922.619 184.756L926.902 180.473C927.037 180.351 927.146 180.202 927.222 180.036C927.298 179.87 927.339 179.691 927.343 179.508C927.348 179.326 927.315 179.145 927.247 178.975C927.18 178.806 927.078 178.652 926.949 178.523C926.82 178.395 926.667 178.293 926.497 178.225C926.328 178.158 926.147 178.125 925.964 178.129C925.782 178.134 925.603 178.175 925.437 178.251C925.271 178.327 925.122 178.435 925 178.57L918.814 184.756L924.645 190.587C924.898 190.837 925.24 190.976 925.596 190.974Z" fill="#636363"/>
<path d="M717.602 190.974C717.867 190.971 718.126 190.891 718.346 190.742C718.566 190.593 718.736 190.383 718.837 190.137C718.938 189.892 718.964 189.622 718.911 189.362C718.859 189.102 718.732 188.863 718.544 188.675L714.613 184.756L718.893 180.473C719.028 180.351 719.136 180.202 719.212 180.036C719.288 179.87 719.329 179.691 719.334 179.508C719.338 179.326 719.305 179.145 719.238 178.975C719.17 178.806 719.068 178.652 718.939 178.523C718.811 178.395 718.657 178.293 718.487 178.225C718.318 178.158 718.137 178.125 717.955 178.129C717.772 178.134 717.593 178.175 717.427 178.251C717.261 178.327 717.112 178.435 716.99 178.57L710.804 184.756L716.635 190.587C716.762 190.713 716.914 190.811 717.08 190.878C717.246 190.944 717.423 190.977 717.602 190.974Z" fill="#636363"/>
<path d="M706.439 190.974C706.705 190.971 706.964 190.891 707.183 190.742C707.403 190.593 707.574 190.383 707.674 190.137C707.775 189.892 707.801 189.622 707.749 189.362C707.697 189.102 707.569 188.863 707.381 188.675L703.472 184.756L707.752 180.473C707.887 180.351 707.996 180.202 708.071 180.036C708.147 179.87 708.189 179.691 708.193 179.508C708.197 179.326 708.165 179.145 708.097 178.975C708.029 178.806 707.928 178.652 707.799 178.523C707.67 178.395 707.516 178.293 707.347 178.225C707.178 178.158 706.996 178.125 706.814 178.129C706.632 178.134 706.452 178.175 706.286 178.251C706.12 178.327 705.972 178.435 705.849 178.57L699.663 184.756L705.494 190.587C705.746 190.835 706.086 190.974 706.439 190.974Z" fill="#636363"/>
<path d="M695.286 190.974C695.551 190.971 695.81 190.891 696.029 190.742C696.249 190.593 696.42 190.383 696.521 190.137C696.621 189.892 696.647 189.622 696.595 189.362C696.543 189.102 696.415 188.863 696.228 188.675L692.309 184.756L696.592 180.473C696.727 180.351 696.836 180.202 696.911 180.036C696.987 179.87 697.028 179.691 697.033 179.508C697.037 179.326 697.005 179.145 696.937 178.975C696.869 178.806 696.768 178.652 696.639 178.523C696.51 178.395 696.356 178.293 696.187 178.225C696.017 178.158 695.836 178.125 695.654 178.129C695.472 178.134 695.292 178.175 695.126 178.251C694.96 178.327 694.812 178.435 694.689 178.57L688.503 184.756L694.334 190.587C694.588 190.837 694.93 190.976 695.286 190.974Z" fill="#636363"/>
<path d="M487.294 190.974C487.559 190.971 487.818 190.891 488.037 190.742C488.257 190.593 488.428 190.383 488.528 190.137C488.629 189.892 488.655 189.622 488.603 189.362C488.551 189.102 488.423 188.863 488.236 188.675L484.304 184.756L488.584 180.473C488.719 180.351 488.828 180.202 488.904 180.036C488.979 179.87 489.021 179.691 489.025 179.508C489.029 179.326 488.997 179.145 488.929 178.975C488.861 178.806 488.76 178.652 488.631 178.523C488.502 178.395 488.348 178.293 488.179 178.225C488.01 178.158 487.828 178.125 487.646 178.129C487.464 178.134 487.284 178.175 487.118 178.251C486.953 178.327 486.804 178.435 486.681 178.57L480.495 184.756L486.326 190.587C486.454 190.713 486.605 190.811 486.771 190.878C486.937 190.944 487.115 190.977 487.294 190.974Z" fill="#636363"/>
<path d="M476.131 190.974C476.396 190.971 476.655 190.891 476.875 190.742C477.094 190.593 477.265 190.383 477.366 190.137C477.466 189.892 477.492 189.622 477.44 189.362C477.388 189.102 477.26 188.863 477.073 188.675L473.163 184.756L477.443 180.473C477.578 180.351 477.687 180.202 477.763 180.036C477.839 179.87 477.88 179.691 477.884 179.508C477.889 179.326 477.856 179.145 477.788 178.975C477.721 178.806 477.619 178.652 477.49 178.523C477.361 178.395 477.208 178.293 477.038 178.225C476.869 178.158 476.688 178.125 476.505 178.129C476.323 178.134 476.144 178.175 475.978 178.251C475.812 178.327 475.663 178.435 475.541 178.57L469.355 184.756L475.186 190.587C475.438 190.835 475.777 190.974 476.131 190.974Z" fill="#636363"/>
<path d="M464.977 190.974C465.242 190.971 465.501 190.891 465.721 190.742C465.94 190.593 466.111 190.383 466.212 190.137C466.313 189.892 466.338 189.622 466.286 189.362C466.234 189.102 466.106 188.863 465.919 188.675L462 184.756L466.283 180.473C466.418 180.351 466.527 180.202 466.603 180.036C466.679 179.87 466.72 179.691 466.724 179.508C466.729 179.326 466.696 179.145 466.628 178.975C466.56 178.806 466.459 178.652 466.33 178.523C466.201 178.395 466.047 178.293 465.878 178.225C465.709 178.158 465.528 178.125 465.345 178.129C465.163 178.134 464.983 178.175 464.818 178.251C464.652 178.327 464.503 178.435 464.38 178.57L458.194 184.756L464.026 190.587C464.279 190.837 464.621 190.976 464.977 190.974Z" fill="#636363"/>
<path d="M258.661 190.974C258.926 190.971 259.185 190.891 259.404 190.742C259.624 190.593 259.795 190.383 259.896 190.137C259.996 189.892 260.022 189.622 259.97 189.362C259.918 189.102 259.79 188.863 259.603 188.675L255.671 184.756L259.951 180.473C260.086 180.351 260.195 180.202 260.271 180.036C260.347 179.87 260.388 179.691 260.392 179.508C260.397 179.326 260.364 179.145 260.296 178.975C260.228 178.806 260.127 178.652 259.998 178.523C259.869 178.395 259.715 178.293 259.546 178.225C259.377 178.158 259.195 178.125 259.013 178.129C258.831 178.134 258.651 178.175 258.486 178.251C258.32 178.327 258.171 178.435 258.048 178.57L251.862 184.756L257.694 190.587C257.821 190.713 257.972 190.811 258.138 190.878C258.304 190.944 258.482 190.977 258.661 190.974Z" fill="#636363"/>
<path d="M247.498 190.974C247.763 190.971 248.022 190.891 248.242 190.742C248.461 190.593 248.632 190.383 248.733 190.137C248.834 189.892 248.859 189.622 248.807 189.362C248.755 189.102 248.627 188.863 248.44 188.675L244.531 184.756L248.811 180.473C248.946 180.351 249.054 180.202 249.13 180.036C249.206 179.87 249.247 179.691 249.252 179.508C249.256 179.326 249.223 179.145 249.156 178.975C249.088 178.806 248.986 178.652 248.857 178.523C248.728 178.395 248.575 178.293 248.405 178.225C248.236 178.158 248.055 178.125 247.873 178.129C247.69 178.134 247.511 178.175 247.345 178.251C247.179 178.327 247.03 178.435 246.908 178.57L240.722 184.756L246.553 190.587C246.805 190.835 247.145 190.974 247.498 190.974Z" fill="#636363"/>
<path d="M236.344 190.974C236.61 190.971 236.868 190.891 237.088 190.742C237.308 190.593 237.479 190.383 237.579 190.137C237.68 189.892 237.706 189.622 237.654 189.362C237.601 189.102 237.474 188.863 237.286 188.675L233.367 184.756L237.65 180.473C237.785 180.351 237.894 180.202 237.97 180.036C238.046 179.87 238.087 179.691 238.091 179.508C238.096 179.326 238.063 179.145 237.995 178.975C237.928 178.806 237.826 178.652 237.697 178.523C237.568 178.395 237.415 178.293 237.245 178.225C237.076 178.158 236.895 178.125 236.712 178.129C236.53 178.134 236.351 178.175 236.185 178.251C236.019 178.327 235.87 178.435 235.748 178.57L229.562 184.756L235.393 190.587C235.646 190.837 235.988 190.976 236.344 190.974Z" fill="#636363"/>
<path d="M1264.98 177.238H1267.74V189.822H1269.71V192H1267.64C1267.19 195.21 1265.35 196.815 1262.13 196.815C1258.53 196.815 1256.73 194.832 1256.73 190.865C1256.73 189.584 1256.89 188.337 1257.23 187.124L1260.08 186.602C1259.69 187.992 1259.49 189.332 1259.49 190.62C1259.49 193.312 1260.45 194.658 1262.36 194.658C1264.11 194.658 1264.98 193.312 1264.98 190.62V177.238ZM1273.37 176.324C1273.05 176.869 1272.56 177.142 1271.91 177.142C1271.13 177.142 1270.66 176.661 1270.52 175.7L1270.36 174.525L1271.61 174.32L1271.78 175.496C1271.84 175.83 1271.99 175.997 1272.24 175.997C1272.62 175.997 1272.78 175.772 1272.74 175.322L1272.55 174.146L1273.81 173.942L1273.99 175.138C1274.07 175.513 1274.25 175.7 1274.53 175.7C1274.93 175.7 1275.1 175.435 1275.03 174.903L1274.83 173.646L1276.09 173.482L1276.28 174.658C1276.38 175.278 1276.26 175.789 1275.94 176.191C1275.6 176.607 1275.1 176.815 1274.43 176.815C1273.98 176.815 1273.62 176.651 1273.37 176.324ZM1269.4 189.822H1277.51C1277.58 189.264 1277.61 188.732 1277.61 188.228C1277.61 186.865 1277.31 185.863 1276.69 185.222C1276.04 184.547 1274.98 184.21 1273.5 184.21C1272.73 184.21 1271.93 184.268 1271.1 184.384V182.227C1272.08 182.097 1272.98 182.032 1273.78 182.032C1276.09 182.032 1277.77 182.547 1278.83 183.576C1279.85 184.557 1280.35 186.074 1280.35 188.125C1280.35 188.718 1280.33 189.284 1280.27 189.822H1281.91V192H1269.4V189.822ZM1274.36 196.59C1273.97 196.59 1273.63 196.451 1273.35 196.171C1273.06 195.892 1272.92 195.547 1272.92 195.139C1272.92 194.743 1273.06 194.402 1273.35 194.116C1273.63 193.837 1273.97 193.697 1274.36 193.697C1274.76 193.697 1275.11 193.837 1275.38 194.116C1275.67 194.396 1275.81 194.736 1275.81 195.139C1275.81 195.541 1275.67 195.881 1275.38 196.161C1275.11 196.447 1274.76 196.59 1274.36 196.59ZM1281.59 189.822H1282.63C1283.33 189.822 1283.81 189.645 1284.08 189.291C1284.38 188.916 1284.52 188.228 1284.52 187.226V183.412H1287.28V187.287C1287.28 188.296 1287.37 188.981 1287.54 189.342C1287.74 189.771 1288.13 189.986 1288.73 189.986C1289.84 189.986 1290.4 189.093 1290.4 187.308V182.574H1293.06V187.829C1293.06 188.647 1293.23 189.185 1293.57 189.444C1293.9 189.696 1294.55 189.822 1295.53 189.822H1296.08C1296.18 189.039 1296.23 188.2 1296.23 187.308C1296.23 185.379 1296.03 183.508 1295.62 181.695L1298.32 181.327C1298.77 183.201 1298.99 185.133 1298.99 187.124C1298.99 188.889 1298.88 190.514 1298.67 192H1295.22C1294.08 192 1293.23 191.905 1292.68 191.714C1292.09 191.502 1291.64 191.117 1291.34 190.559C1290.85 191.629 1289.79 192.164 1288.18 192.164C1286.69 192.164 1285.76 191.622 1285.4 190.538C1284.97 191.513 1284.04 192 1282.61 192H1281.59V189.822Z" fill="#0F898C"/>
<path d="M1009.8 192C1006.05 192 1004.18 190.381 1004.18 187.144C1004.18 185.658 1004.63 184.438 1005.51 183.484C1006.51 182.421 1007.91 181.889 1009.73 181.889C1011.38 181.889 1012.84 182.131 1014.11 182.615V189.822H1016.15V192H1009.8ZM1011.43 184.445C1010.9 184.193 1010.24 184.067 1009.44 184.067C1008.67 184.067 1008.06 184.333 1007.61 184.864C1007.16 185.382 1006.94 186.057 1006.94 186.888C1006.94 188.844 1007.99 189.822 1010.09 189.822H1011.43V184.445ZM1011.2 180.57C1010.81 180.57 1010.48 180.431 1010.21 180.151C1009.95 179.879 1009.82 179.545 1009.82 179.149C1009.82 178.754 1009.95 178.417 1010.21 178.137C1010.49 177.858 1010.81 177.718 1011.2 177.718C1011.58 177.718 1011.91 177.858 1012.18 178.137C1012.44 178.41 1012.58 178.747 1012.58 179.149C1012.58 179.538 1012.44 179.872 1012.18 180.151C1011.91 180.431 1011.58 180.57 1011.2 180.57ZM1007.72 180.57C1007.33 180.57 1007 180.431 1006.74 180.151C1006.47 179.879 1006.34 179.545 1006.34 179.149C1006.34 178.754 1006.47 178.417 1006.74 178.137C1007.01 177.858 1007.34 177.718 1007.72 177.718C1008.12 177.718 1008.45 177.858 1008.72 178.137C1008.99 178.41 1009.12 178.747 1009.12 179.149C1009.12 179.538 1008.99 179.872 1008.72 180.151C1008.45 180.431 1008.12 180.57 1007.72 180.57ZM1015.85 192V189.822H1017.04C1017.53 189.822 1017.92 189.87 1018.21 189.966C1017.43 189.4 1017.04 188.401 1017.04 186.97C1017.04 185.553 1017.49 184.373 1018.39 183.433C1019.39 182.404 1020.75 181.889 1022.48 181.889C1025.64 181.889 1027.22 183.494 1027.22 186.704V192H1015.85ZM1024.52 187.042C1024.52 185.058 1023.77 184.067 1022.28 184.067C1021.51 184.067 1020.89 184.333 1020.44 184.864C1020 185.382 1019.78 186.057 1019.78 186.888C1019.78 188.844 1020.83 189.822 1022.92 189.822H1024.52V187.042ZM1023.95 180.57C1023.57 180.57 1023.24 180.431 1022.97 180.151C1022.7 179.879 1022.56 179.545 1022.56 179.149C1022.56 178.754 1022.7 178.417 1022.97 178.137C1023.24 177.858 1023.57 177.718 1023.95 177.718C1024.34 177.718 1024.66 177.858 1024.94 178.137C1025.2 178.41 1025.33 178.747 1025.33 179.149C1025.33 179.538 1025.2 179.872 1024.94 180.151C1024.66 180.431 1024.34 180.57 1023.95 180.57ZM1020.48 180.57C1020.09 180.57 1019.76 180.431 1019.5 180.151C1019.22 179.879 1019.09 179.545 1019.09 179.149C1019.09 178.754 1019.22 178.417 1019.5 178.137C1019.76 177.858 1020.09 177.718 1020.48 177.718C1020.87 177.718 1021.2 177.858 1021.47 178.137C1021.74 178.41 1021.88 178.747 1021.88 179.149C1021.88 179.538 1021.74 179.872 1021.47 180.151C1021.2 180.431 1020.87 180.57 1020.48 180.57ZM1030.45 177.238H1033.21V189.822H1035.3V192H1030.45V177.238ZM1034.99 189.822H1037.92V182.155H1040.68V189.822H1042.73V192H1034.99V189.822ZM1037.75 196.59C1037.35 196.59 1037.01 196.451 1036.72 196.171C1036.44 195.892 1036.3 195.547 1036.3 195.139C1036.3 194.743 1036.44 194.402 1036.72 194.116C1037.01 193.837 1037.35 193.697 1037.75 193.697C1038.15 193.697 1038.49 193.837 1038.77 194.116C1039.05 194.396 1039.2 194.736 1039.2 195.139C1039.2 195.541 1039.05 195.881 1038.77 196.161C1038.49 196.447 1038.15 196.59 1037.75 196.59ZM1042.43 189.822H1045.02V177.238H1047.79V192H1042.43V189.822ZM1051.34 177.238H1054.1V192H1051.34V177.238ZM1066.74 192V192.082C1066.74 195.571 1065.01 197.316 1061.57 197.316C1060.95 197.316 1060.37 197.248 1059.81 197.112L1060.01 194.914C1060.59 195.077 1061.16 195.159 1061.71 195.159C1062.47 195.159 1063.02 194.955 1063.38 194.546C1063.78 194.082 1063.98 193.312 1063.98 192.235V182.155H1066.74V189.822H1071.08V182.155H1073.84V189.822H1075.7V192H1066.74ZM1072.82 180.151C1072.56 179.879 1072.42 179.545 1072.42 179.149C1072.42 178.754 1072.56 178.417 1072.82 178.137C1073.09 177.858 1073.42 177.718 1073.8 177.718C1074.19 177.718 1074.52 177.858 1074.78 178.137C1075.05 178.41 1075.18 178.747 1075.18 179.149C1075.18 179.538 1075.05 179.872 1074.78 180.151C1074.51 180.431 1074.18 180.57 1073.8 180.57C1073.41 180.57 1073.09 180.431 1072.82 180.151ZM1069.35 180.151C1069.08 179.879 1068.95 179.545 1068.95 179.149C1068.95 178.754 1069.08 178.417 1069.35 178.137C1069.62 177.858 1069.95 177.718 1070.33 177.718C1070.72 177.718 1071.06 177.858 1071.33 178.137C1071.6 178.41 1071.73 178.747 1071.73 179.149C1071.73 179.538 1071.6 179.872 1071.33 180.151C1071.06 180.431 1070.72 180.57 1070.33 180.57C1069.94 180.57 1069.61 180.431 1069.35 180.151ZM1075.43 189.822H1083.54C1083.6 189.264 1083.64 188.732 1083.64 188.228C1083.64 186.865 1083.33 185.863 1082.72 185.222C1082.06 184.547 1081 184.21 1079.53 184.21C1078.75 184.21 1077.95 184.268 1077.13 184.384V182.227C1078.11 182.097 1079 182.032 1079.8 182.032C1082.11 182.032 1083.8 182.547 1084.85 183.576C1085.87 184.557 1086.38 186.074 1086.38 188.125C1086.38 189.284 1086.26 190.576 1086.02 192H1075.43V189.822ZM1080.39 180.397C1079.99 180.397 1079.65 180.26 1079.37 179.988C1079.09 179.708 1078.95 179.364 1078.95 178.955C1078.95 178.56 1079.09 178.219 1079.37 177.933C1079.65 177.653 1079.99 177.514 1080.39 177.514C1080.79 177.514 1081.13 177.653 1081.41 177.933C1081.7 178.219 1081.84 178.56 1081.84 178.955C1081.84 179.35 1081.7 179.691 1081.41 179.977C1081.13 180.257 1080.79 180.397 1080.39 180.397ZM1089.31 177.238H1092.07V192H1089.31V177.238Z" fill="#363636"/>
<path d="M772.504 192C769.117 192 767.273 190.647 766.973 187.941H766.513C765.907 187.941 765.511 188.139 765.327 188.534C765.143 188.93 765.13 189.618 765.286 190.599L766.37 197.439H763.712L762.649 190.804C762.403 189.243 762.584 188.03 763.191 187.164C763.859 186.231 764.997 185.764 766.605 185.764H767.106C767.358 184.612 767.921 183.692 768.793 183.004C769.734 182.261 770.923 181.889 772.361 181.889C775.516 181.889 777.094 183.494 777.094 186.704V192H772.504ZM774.416 187.042C774.416 185.058 773.666 184.067 772.167 184.067C771.396 184.067 770.786 184.333 770.337 184.864C769.9 185.382 769.682 186.057 769.682 186.888C769.682 188.844 770.729 189.822 772.821 189.822H774.416V187.042ZM782.288 197.275C781.238 197.275 780.175 197.183 779.098 196.999L779.272 194.74C780.362 194.978 781.449 195.098 782.533 195.098C784.953 195.098 786.162 194.171 786.162 192.317V192H784.527C780.785 192 778.914 190.381 778.914 187.144C778.914 185.658 779.357 184.438 780.243 183.484C781.238 182.421 782.645 181.889 784.465 181.889C786.108 181.889 787.566 182.131 788.841 182.615V189.822H790.885V192H788.841V192.041C788.841 193.595 788.333 194.828 787.317 195.742C786.186 196.764 784.51 197.275 782.288 197.275ZM786.162 184.445C785.631 184.193 784.966 184.067 784.169 184.067C783.399 184.067 782.789 184.333 782.339 184.864C781.896 185.382 781.674 186.057 781.674 186.888C781.674 188.844 782.724 189.822 784.823 189.822H786.162V184.445ZM790.589 189.822H791.632C792.327 189.822 792.811 189.645 793.083 189.291C793.376 188.916 793.523 188.228 793.523 187.226V183.412H796.283V187.287C796.283 188.296 796.368 188.981 796.539 189.342C796.737 189.771 797.132 189.986 797.725 189.986C798.843 189.986 799.401 189.093 799.401 187.308V182.574H802.059V187.829C802.059 188.647 802.23 189.185 802.571 189.444C802.898 189.696 803.552 189.822 804.533 189.822H805.075C805.178 189.039 805.229 188.2 805.229 187.308C805.229 185.379 805.024 183.508 804.615 181.695L807.314 181.327C807.764 183.201 807.989 185.133 807.989 187.124C807.989 188.889 807.883 190.514 807.672 192H804.217C803.078 192 802.233 191.905 801.681 191.714C801.088 191.502 800.642 191.117 800.342 190.559C799.844 191.629 798.791 192.164 797.183 192.164C795.69 192.164 794.763 191.622 794.402 190.538C793.973 191.513 793.043 192 791.611 192H790.589V189.822ZM809.195 197.316C808.582 197.316 807.996 197.248 807.437 197.112L807.641 194.914C808.221 195.077 808.786 195.159 809.338 195.159C810.095 195.159 810.65 194.955 811.005 194.546C811.407 194.082 811.608 193.312 811.608 192.235V182.155H814.368V189.822H816.423V192H814.368V192.082C814.368 195.571 812.644 197.316 809.195 197.316ZM816.106 189.822H818.703V177.238H821.463V192H816.106V189.822ZM825.021 177.238H827.781V192H825.021V177.238ZM840.182 197.337C838.178 197.337 836.662 196.975 835.633 196.253C834.712 195.605 834.252 194.74 834.252 193.656C834.252 192.525 834.764 191.55 835.786 190.732C836.393 190.248 837.48 189.659 839.047 188.964C837.384 187.382 835.987 186.435 834.856 186.122L835.091 184.149C837.238 182.601 839.255 181.828 841.143 181.828C842.615 181.828 843.74 182.172 844.517 182.86C845.212 183.474 845.559 184.275 845.559 185.263C845.559 186.762 844.762 188.057 843.167 189.148C844.019 189.598 844.878 189.822 845.743 189.822H847.134V192H845.437C843.706 192 842.155 191.482 840.785 190.446C839.395 191.128 838.536 191.577 838.209 191.796C837.452 192.3 837.074 192.828 837.074 193.38C837.074 194.58 838.212 195.179 840.489 195.179C841.565 195.179 842.615 195.091 843.637 194.914L843.801 196.999C842.588 197.224 841.381 197.337 840.182 197.337ZM837.647 185.11C838.328 185.382 839.541 186.282 841.286 187.808C842.308 187.147 842.82 186.415 842.82 185.61C842.82 185.092 842.656 184.677 842.329 184.363C841.974 184.022 841.473 183.852 840.826 183.852C839.96 183.852 838.901 184.271 837.647 185.11ZM846.817 192V189.822H848.013C848.497 189.822 848.885 189.87 849.178 189.966C848.401 189.4 848.013 188.401 848.013 186.97C848.013 185.553 848.463 184.373 849.362 183.433C850.357 182.404 851.721 181.889 853.452 181.889C856.607 181.889 858.185 183.494 858.185 186.704V192H846.817ZM855.486 187.042C855.486 185.058 854.74 184.067 853.247 184.067C852.477 184.067 851.864 184.333 851.407 184.864C850.971 185.382 850.753 186.057 850.753 186.888C850.753 188.844 851.799 189.822 853.891 189.822H855.486V187.042ZM853.186 180.315C852.784 180.315 852.443 180.179 852.164 179.906C851.877 179.62 851.734 179.275 851.734 178.873C851.734 178.478 851.877 178.137 852.164 177.851C852.443 177.572 852.784 177.432 853.186 177.432C853.581 177.432 853.919 177.572 854.198 177.851C854.484 178.137 854.627 178.478 854.627 178.873C854.627 179.269 854.484 179.609 854.198 179.896C853.919 180.175 853.581 180.315 853.186 180.315ZM860.598 189.822H866.813C866.691 186.721 865.045 184.769 861.876 183.965L862.54 181.654C864.885 182.274 866.616 183.269 867.734 184.639C868.919 186.098 869.512 188.091 869.512 190.62V192H860.598V189.822ZM872.334 177.238H875.094V192H872.334V177.238Z" fill="#363636"/>
<path d="M540.412 192C536.671 192 534.8 190.381 534.8 187.144C534.8 185.658 535.243 184.438 536.129 183.484C537.124 182.421 538.531 181.889 540.351 181.889C541.993 181.889 543.452 182.131 544.726 182.615V189.822H546.771V192H540.412ZM542.048 184.445C541.516 184.193 540.852 184.067 540.054 184.067C539.284 184.067 538.674 184.333 538.224 184.864C537.781 185.382 537.56 186.057 537.56 186.888C537.56 188.844 538.61 189.822 540.709 189.822H542.048V184.445ZM541.813 180.57C541.424 180.57 541.097 180.431 540.831 180.151C540.566 179.879 540.433 179.545 540.433 179.149C540.433 178.754 540.566 178.417 540.831 178.137C541.104 177.858 541.431 177.718 541.813 177.718C542.201 177.718 542.528 177.858 542.794 178.137C543.06 178.41 543.193 178.747 543.193 179.149C543.193 179.538 543.06 179.872 542.794 180.151C542.528 180.431 542.201 180.57 541.813 180.57ZM538.337 180.57C537.948 180.57 537.621 180.431 537.355 180.151C537.09 179.879 536.957 179.545 536.957 179.149C536.957 178.754 537.09 178.417 537.355 178.137C537.628 177.858 537.955 177.718 538.337 177.718C538.732 177.718 539.066 177.858 539.339 178.137C539.605 178.41 539.738 178.747 539.738 179.149C539.738 179.538 539.605 179.872 539.339 180.151C539.066 180.431 538.732 180.57 538.337 180.57ZM546.464 192V189.822H547.661C548.144 189.822 548.533 189.87 548.826 189.966C548.049 189.4 547.661 188.401 547.661 186.97C547.661 185.553 548.11 184.373 549.01 183.433C550.005 182.404 551.368 181.889 553.099 181.889C556.255 181.889 557.833 183.494 557.833 186.704V192H546.464ZM555.134 187.042C555.134 185.058 554.387 184.067 552.895 184.067C552.125 184.067 551.511 184.333 551.055 184.864C550.618 185.382 550.4 186.057 550.4 186.888C550.4 188.844 551.447 189.822 553.539 189.822H555.134V187.042ZM560.245 189.822H566.461C566.338 186.721 564.692 184.769 561.523 183.965L562.188 181.654C564.403 182.24 566.069 183.16 567.187 184.414C568.366 185.743 569.017 187.546 569.14 189.822H570.509V192H560.245V189.822ZM570.203 189.822H578.31C578.378 189.264 578.412 188.732 578.412 188.228C578.412 186.865 578.105 185.863 577.492 185.222C576.838 184.547 575.774 184.21 574.302 184.21C573.525 184.21 572.725 184.268 571.9 184.384V182.227C572.881 182.097 573.774 182.032 574.578 182.032C576.889 182.032 578.572 182.547 579.629 183.576C580.644 184.557 581.152 186.074 581.152 188.125C581.152 188.718 581.125 189.284 581.07 189.822H582.706V192H570.203V189.822ZM575.161 180.397C574.766 180.397 574.428 180.26 574.149 179.988C573.863 179.708 573.72 179.364 573.72 178.955C573.72 178.56 573.863 178.219 574.149 177.933C574.428 177.653 574.766 177.514 575.161 177.514C575.563 177.514 575.904 177.653 576.183 177.933C576.47 178.219 576.613 178.56 576.613 178.955C576.613 179.35 576.47 179.691 576.183 179.977C575.904 180.257 575.563 180.397 575.161 180.397ZM582.389 189.822H584.986V177.238H587.746V192H582.389V189.822ZM591.304 177.238H594.064V192H591.304V177.238ZM608.663 192C605.93 192 603.936 191.445 602.682 190.334C601.544 189.332 600.975 187.822 600.975 185.805C600.975 184.605 601.155 183.508 601.517 182.513L604.471 182.032C603.994 183.075 603.756 184.227 603.756 185.488C603.756 187.008 604.134 188.098 604.89 188.759C605.688 189.468 607.041 189.822 608.949 189.822H611.801V182.155H614.561V189.822H616.616V192H608.663ZM608.203 196.59C607.801 196.59 607.46 196.451 607.18 196.171C606.894 195.892 606.751 195.547 606.751 195.139C606.751 194.743 606.894 194.402 607.18 194.116C607.46 193.837 607.801 193.697 608.203 193.697C608.598 193.697 608.935 193.837 609.215 194.116C609.501 194.396 609.644 194.736 609.644 195.139C609.644 195.541 609.501 195.881 609.215 196.161C608.935 196.447 608.598 196.59 608.203 196.59ZM616.31 189.822H618.906V177.238H621.667V189.822H623.762V192H616.31V189.822ZM623.445 189.822H626.001V177.238H628.762V182.687C628.762 183.832 628.687 184.864 628.537 185.784H628.557C629 184.551 629.723 183.583 630.724 182.881C631.672 182.22 632.715 181.889 633.853 181.889C635.298 181.889 636.402 182.312 637.165 183.157C637.915 183.982 638.29 185.144 638.29 186.643C638.29 188.265 637.802 189.533 636.828 190.446C635.73 191.482 634.074 192 631.859 192H623.445V189.822ZM632.115 189.822C634.337 189.822 635.448 188.817 635.448 186.807C635.448 184.994 634.735 184.087 633.311 184.087C632.207 184.087 631.215 184.673 630.336 185.846C629.504 186.95 628.973 188.275 628.741 189.822H632.115ZM640.805 177.238H643.565V192H640.805V177.238Z" fill="#363636"/>
<path d="M321.107 192C318.374 192 316.381 191.445 315.127 190.334C313.989 189.332 313.42 187.822 313.42 185.805C313.42 184.605 313.6 183.508 313.961 182.513L316.916 182.032C316.439 183.075 316.2 184.227 316.2 185.488C316.2 187.008 316.579 188.098 317.335 188.759C318.132 189.468 319.485 189.822 321.394 189.822H325.769V177.238H328.54V189.822H330.625V192H321.107ZM318.695 181.807C319.22 181.807 319.611 181.835 319.87 181.889C319.605 181.753 319.472 181.48 319.472 181.071C319.472 180.417 319.703 179.879 320.167 179.456C320.705 178.972 321.486 178.73 322.508 178.73C322.842 178.73 323.254 178.764 323.745 178.832L323.489 180.397C323.142 180.328 322.794 180.294 322.447 180.294C321.772 180.294 321.435 180.533 321.435 181.01C321.435 181.542 321.918 181.807 322.886 181.807H324.072V183.372H318.695V181.807ZM330.329 189.822H333.263V182.155H336.023V189.822H338.078V192H330.329V189.822ZM333.089 196.59C332.694 196.59 332.353 196.451 332.067 196.171C331.787 195.892 331.648 195.547 331.648 195.139C331.648 194.743 331.787 194.402 332.067 194.116C332.353 193.837 332.694 193.697 333.089 193.697C333.491 193.697 333.832 193.837 334.111 194.116C334.398 194.396 334.541 194.736 334.541 195.139C334.541 195.541 334.398 195.881 334.111 196.161C333.832 196.447 333.491 196.59 333.089 196.59ZM337.771 189.822H340.368V177.238H343.128V189.822H345.224V192H337.771V189.822ZM344.907 189.822H347.463V177.238H350.223V182.687C350.223 183.832 350.148 184.864 349.998 185.784H350.019C350.462 184.551 351.184 183.583 352.186 182.881C353.133 182.22 354.176 181.889 355.314 181.889C356.759 181.889 357.863 182.312 358.627 183.157C359.376 183.982 359.751 185.144 359.751 186.643C359.751 188.265 359.264 189.533 358.289 190.446C357.192 191.482 355.536 192 353.321 192H344.907V189.822ZM353.576 189.822C355.798 189.822 356.909 188.817 356.909 186.807C356.909 184.994 356.197 184.087 354.773 184.087C353.668 184.087 352.677 184.673 351.798 185.846C350.966 186.95 350.435 188.275 350.203 189.822H353.576ZM371.109 197.337C369.106 197.337 367.589 196.975 366.56 196.253C365.64 195.605 365.18 194.74 365.18 193.656C365.18 192.525 365.691 191.55 366.713 190.732C367.32 190.248 368.407 189.659 369.975 188.964C368.312 187.382 366.914 186.435 365.783 186.122L366.018 184.149C368.165 182.601 370.182 181.828 372.07 181.828C373.542 181.828 374.667 182.172 375.444 182.86C376.139 183.474 376.487 184.275 376.487 185.263C376.487 186.762 375.689 188.057 374.095 189.148C374.946 189.598 375.805 189.822 376.671 189.822H378.061V192H376.364C374.633 192 373.082 191.482 371.713 190.446C370.322 191.128 369.463 191.577 369.136 191.796C368.38 192.3 368.001 192.828 368.001 193.38C368.001 194.58 369.14 195.179 371.416 195.179C372.493 195.179 373.542 195.091 374.565 194.914L374.728 196.999C373.515 197.224 372.309 197.337 371.109 197.337ZM368.574 185.11C369.256 185.382 370.469 186.282 372.213 187.808C373.236 187.147 373.747 186.415 373.747 185.61C373.747 185.092 373.583 184.677 373.256 184.363C372.902 184.022 372.401 183.852 371.753 183.852C370.888 183.852 369.828 184.271 368.574 185.11ZM377.744 189.822H380.678V182.155H383.439V189.822H385.493V192H377.744V189.822ZM380.505 196.59C380.109 196.59 379.768 196.451 379.482 196.171C379.203 195.892 379.063 195.547 379.063 195.139C379.063 194.743 379.203 194.402 379.482 194.116C379.768 193.837 380.109 193.697 380.505 193.697C380.907 193.697 381.247 193.837 381.527 194.116C381.813 194.396 381.956 194.736 381.956 195.139C381.956 195.541 381.813 195.881 381.527 196.161C381.247 196.447 380.907 196.59 380.505 196.59ZM385.187 189.822H388.121V182.155H390.881V189.822H392.742V192H385.187V189.822ZM387.364 180.57C386.976 180.57 386.649 180.431 386.383 180.151C386.117 179.879 385.984 179.545 385.984 179.149C385.984 178.754 386.117 178.417 386.383 178.137C386.655 177.858 386.983 177.718 387.364 177.718C387.76 177.718 388.094 177.858 388.366 178.137C388.632 178.41 388.765 178.747 388.765 179.149C388.765 179.538 388.632 179.872 388.366 180.151C388.094 180.431 387.76 180.57 387.364 180.57ZM390.84 180.57C390.452 180.57 390.125 180.431 389.859 180.151C389.593 179.879 389.46 179.545 389.46 179.149C389.46 178.754 389.593 178.417 389.859 178.137C390.131 177.858 390.459 177.718 390.84 177.718C391.229 177.718 391.556 177.858 391.822 178.137C392.087 178.41 392.22 178.747 392.22 179.149C392.22 179.538 392.087 179.872 391.822 180.151C391.549 180.431 391.222 180.57 390.84 180.57ZM392.425 189.822H395.359V182.155H398.119V192H392.425V189.822ZM398.078 180.57C397.69 180.57 397.363 180.431 397.097 180.151C396.831 179.879 396.698 179.545 396.698 179.149C396.698 178.754 396.831 178.417 397.097 178.137C397.369 177.858 397.697 177.718 398.078 177.718C398.467 177.718 398.794 177.858 399.06 178.137C399.326 178.41 399.458 178.747 399.458 179.149C399.458 179.538 399.326 179.872 399.06 180.151C398.787 180.431 398.46 180.57 398.078 180.57ZM394.602 180.57C394.214 180.57 393.887 180.431 393.621 180.151C393.355 179.879 393.222 179.545 393.222 179.149C393.222 178.754 393.355 178.417 393.621 178.137C393.894 177.858 394.221 177.718 394.602 177.718C394.998 177.718 395.332 177.858 395.604 178.137C395.87 178.41 396.003 178.747 396.003 179.149C396.003 179.538 395.87 179.872 395.604 180.151C395.332 180.431 394.998 180.57 394.602 180.57Z" fill="#363636"/>
<path d="M66.734 192C62.9923 192 61.1215 190.381 61.1215 187.144C61.1215 185.658 61.5645 184.438 62.4505 183.484C63.4456 182.421 64.853 181.889 66.6727 181.889C68.3152 181.889 69.7738 182.131 71.0483 182.615V189.822H73.0929V192H66.734ZM68.3698 184.445C67.8382 184.193 67.1736 184.067 66.3762 184.067C65.6061 184.067 64.9961 184.333 64.5463 184.864C64.1033 185.382 63.8818 186.057 63.8818 186.888C63.8818 188.844 64.9313 189.822 67.0305 189.822H68.3698V184.445ZM68.1346 180.57C67.7461 180.57 67.419 180.431 67.1532 180.151C66.8874 179.879 66.7545 179.545 66.7545 179.149C66.7545 178.754 66.8874 178.417 67.1532 178.137C67.4258 177.858 67.753 177.718 68.1346 177.718C68.5231 177.718 68.8503 177.858 69.1161 178.137C69.3819 178.41 69.5148 178.747 69.5148 179.149C69.5148 179.538 69.3819 179.872 69.1161 180.151C68.8503 180.431 68.5231 180.57 68.1346 180.57ZM64.6587 180.57C64.2702 180.57 63.9431 180.431 63.6773 180.151C63.4115 179.879 63.2786 179.545 63.2786 179.149C63.2786 178.754 63.4115 178.417 63.6773 178.137C63.9499 177.858 64.2771 177.718 64.6587 177.718C65.054 177.718 65.388 177.858 65.6606 178.137C65.9264 178.41 66.0593 178.747 66.0593 179.149C66.0593 179.538 65.9264 179.872 65.6606 180.151C65.388 180.431 65.054 180.57 64.6587 180.57ZM72.7862 192V189.822H73.9823C74.4662 189.822 74.8547 189.87 75.1478 189.966C74.3708 189.4 73.9823 188.401 73.9823 186.97C73.9823 185.553 74.4322 184.373 75.3318 183.433C76.3269 182.404 77.69 181.889 79.4211 181.889C82.5767 181.889 84.1545 183.494 84.1545 186.704V192H72.7862ZM81.4555 187.042C81.4555 185.058 80.7092 184.067 79.2166 184.067C78.4465 184.067 77.8331 184.333 77.3765 184.864C76.9403 185.382 76.7222 186.057 76.7222 186.888C76.7222 188.844 77.7683 189.822 79.8607 189.822H81.4555V187.042ZM86.5672 189.822H92.7829C92.6602 186.721 91.0143 184.769 87.8451 183.965L88.5096 181.654C90.7246 182.24 92.391 183.16 93.5087 184.414C94.6878 185.743 95.3387 187.546 95.4614 189.822H96.8313V192H86.5672V189.822ZM96.5246 189.822H104.632C104.7 189.264 104.734 188.732 104.734 188.228C104.734 186.865 104.427 185.863 103.814 185.222C103.159 184.547 102.096 184.21 100.624 184.21C99.8472 184.21 99.0463 184.268 98.2217 184.384V182.227C99.2031 182.097 100.096 182.032 100.9 182.032C103.211 182.032 104.894 182.547 105.95 183.576C106.966 184.557 107.474 186.074 107.474 188.125C107.474 188.718 107.446 189.284 107.392 189.822H109.028V192H96.5246V189.822ZM101.483 180.397C101.088 180.397 100.75 180.26 100.471 179.988C100.185 179.708 100.041 179.364 100.041 178.955C100.041 178.56 100.185 178.219 100.471 177.933C100.75 177.653 101.088 177.514 101.483 177.514C101.885 177.514 102.226 177.653 102.505 177.933C102.791 178.219 102.935 178.56 102.935 178.955C102.935 179.35 102.791 179.691 102.505 179.977C102.226 180.257 101.885 180.397 101.483 180.397ZM108.711 189.822H111.307V177.238H114.068V192H108.711V189.822ZM117.625 177.238H120.386V192H117.625V177.238ZM137.326 192C133.938 192 132.095 190.647 131.795 187.941H131.335C130.728 187.941 130.333 188.139 130.149 188.534C129.965 188.93 129.951 189.618 130.108 190.599L131.192 197.439H128.534L127.47 190.804C127.225 189.243 127.406 188.03 128.012 187.164C128.68 186.231 129.818 185.764 131.427 185.764H131.928C132.18 184.612 132.742 183.692 133.615 183.004C134.555 182.261 135.744 181.889 137.182 181.889C140.338 181.889 141.916 183.494 141.916 186.704V189.822H143.695V192H137.326ZM139.237 187.042C139.237 185.058 138.488 184.067 136.988 184.067C136.218 184.067 135.608 184.333 135.158 184.864C134.722 185.382 134.504 186.057 134.504 186.888C134.504 188.844 135.55 189.822 137.643 189.822H139.237V187.042ZM143.122 189.822H145.719V177.238H148.479V189.822H150.575V192H143.122V189.822ZM150.258 189.822H153.192V182.155H155.952V189.822H157.813V192H150.258V189.822ZM152.436 180.57C152.047 180.57 151.72 180.431 151.454 180.151C151.188 179.879 151.055 179.545 151.055 179.149C151.055 178.754 151.188 178.417 151.454 178.137C151.727 177.858 152.054 177.718 152.436 177.718C152.831 177.718 153.165 177.858 153.437 178.137C153.703 178.41 153.836 178.747 153.836 179.149C153.836 179.538 153.703 179.872 153.437 180.151C153.165 180.431 152.831 180.57 152.436 180.57ZM155.911 180.57C155.523 180.57 155.196 180.431 154.93 180.151C154.664 179.879 154.531 179.545 154.531 179.149C154.531 178.754 154.664 178.417 154.93 178.137C155.203 177.858 155.53 177.718 155.911 177.718C156.3 177.718 156.627 177.858 156.893 178.137C157.159 178.41 157.292 178.747 157.292 179.149C157.292 179.538 157.159 179.872 156.893 180.151C156.62 180.431 156.293 180.57 155.911 180.57ZM157.496 189.822H158.539C159.234 189.822 159.718 189.645 159.991 189.291C160.284 188.916 160.43 188.228 160.43 187.226V183.412H163.19V187.287C163.19 188.296 163.276 188.981 163.446 189.342C163.644 189.771 164.039 189.986 164.632 189.986C165.75 189.986 166.309 189.093 166.309 187.308V182.574H168.967V187.829C168.967 188.647 169.137 189.185 169.478 189.444C169.805 189.696 170.459 189.822 171.441 189.822H171.982C172.085 189.039 172.136 188.2 172.136 187.308C172.136 185.379 171.931 183.508 171.522 181.695L174.221 181.327C174.671 183.201 174.896 185.133 174.896 187.124C174.896 188.889 174.79 190.514 174.579 192H171.124C169.985 192 169.14 191.905 168.588 191.714C167.995 191.502 167.549 191.117 167.249 190.559C166.752 191.629 165.699 192.164 164.09 192.164C162.597 192.164 161.671 191.622 161.309 190.538C160.88 191.513 159.95 192 158.518 192H157.496V189.822ZM178.127 177.238H180.887V192H178.127V177.238Z" fill="#363636"/>
<defs>
<filter id="filter0_d_224_1343" x="1147.64" y="40.117" width="260.081" height="32.2322" filterUnits="userSpaceOnUse" color-interpolation-filters="sRGB">
<feFlood flood-opacity="0" result="BackgroundImageFix"/>
<feColorMatrix in="SourceAlpha" type="matrix" values="0 0 0 0 0 0 0 0 0 0 0 0 0 0 0 0 0 0 127 0" result="hardAlpha"/>
<feOffset dy="-5.55727"/>
<feGaussianBlur stdDeviation="7.85957"/>
<feComposite in2="hardAlpha" operator="out"/>
<feColorMatrix type="matrix" values="0 0 0 0 0 0 0 0 0 0 0 0 0 0 0 0 0 0 0.88 0"/>
<feBlend mode="normal" in2="BackgroundImageFix" result="effect1_dropShadow_224_1343"/>
<feBlend mode="normal" in="SourceGraphic" in2="effect1_dropShadow_224_1343" result="shape"/>
</filter>
<filter id="filter1_d_224_1343" x="1230.2" y="16.2915" width="140.712" height="136.749" filterUnits="userSpaceOnUse" color-interpolation-filters="sRGB">
<feFlood flood-opacity="0" result="BackgroundImageFix"/>
<feColorMatrix in="SourceAlpha" type="matrix" values="0 0 0 0 0 0 0 0 0 0 0 0 0 0 0 0 0 0 127 0" result="hardAlpha"/>
<feOffset dx="27.7864" dy="23.8169"/>
<feGaussianBlur stdDeviation="9.9237"/>
<feComposite in2="hardAlpha" operator="out"/>
<feColorMatrix type="matrix" values="0 0 0 0 0 0 0 0 0 0 0 0 0 0 0 0 0 0 0.1 0"/>
<feBlend mode="normal" in2="BackgroundImageFix" result="effect1_dropShadow_224_1343"/>
<feBlend mode="normal" in="SourceGraphic" in2="effect1_dropShadow_224_1343" result="shape"/>
</filter>
<filter id="filter2_d_224_1343" x="0.280858" y="40.1171" width="260.081" height="32.2322" filterUnits="userSpaceOnUse" color-interpolation-filters="sRGB">
<feFlood flood-opacity="0" result="BackgroundImageFix"/>
<feColorMatrix in="SourceAlpha" type="matrix" values="0 0 0 0 0 0 0 0 0 0 0 0 0 0 0 0 0 0 127 0" result="hardAlpha"/>
<feOffset dy="-5.55727"/>
<feGaussianBlur stdDeviation="7.85957"/>
<feComposite in2="hardAlpha" operator="out"/>
<feColorMatrix type="matrix" values="0 0 0 0 0 0 0 0 0 0 0 0 0 0 0 0 0 0 0.88 0"/>
<feBlend mode="normal" in2="BackgroundImageFix" result="effect1_dropShadow_224_1343"/>
<feBlend mode="normal" in="SourceGraphic" in2="effect1_dropShadow_224_1343" result="shape"/>
</filter>
<filter id="filter3_d_224_1343" x="82.8398" y="16.292" width="140.712" height="136.749" filterUnits="userSpaceOnUse" color-interpolation-filters="sRGB">
<feFlood flood-opacity="0" result="BackgroundImageFix"/>
<feColorMatrix in="SourceAlpha" type="matrix" values="0 0 0 0 0 0 0 0 0 0 0 0 0 0 0 0 0 0 127 0" result="hardAlpha"/>
<feOffset dx="27.7864" dy="23.8169"/>
<feGaussianBlur stdDeviation="9.9237"/>
<feComposite in2="hardAlpha" operator="out"/>
<feColorMatrix type="matrix" values="0 0 0 0 0 0 0 0 0 0 0 0 0 0 0 0 0 0 0.1 0"/>
<feBlend mode="normal" in2="BackgroundImageFix" result="effect1_dropShadow_224_1343"/>
<feBlend mode="normal" in="SourceGraphic" in2="effect1_dropShadow_224_1343" result="shape"/>
</filter>
<filter id="filter4_d_224_1343" x="229.755" y="40.117" width="260.081" height="32.2322" filterUnits="userSpaceOnUse" color-interpolation-filters="sRGB">
<feFlood flood-opacity="0" result="BackgroundImageFix"/>
<feColorMatrix in="SourceAlpha" type="matrix" values="0 0 0 0 0 0 0 0 0 0 0 0 0 0 0 0 0 0 127 0" result="hardAlpha"/>
<feOffset dy="-5.55727"/>
<feGaussianBlur stdDeviation="7.85957"/>
<feComposite in2="hardAlpha" operator="out"/>
<feColorMatrix type="matrix" values="0 0 0 0 0 0 0 0 0 0 0 0 0 0 0 0 0 0 0.88 0"/>
<feBlend mode="normal" in2="BackgroundImageFix" result="effect1_dropShadow_224_1343"/>
<feBlend mode="normal" in="SourceGraphic" in2="effect1_dropShadow_224_1343" result="shape"/>
</filter>
<filter id="filter5_d_224_1343" x="312.312" y="16.2917" width="140.712" height="136.749" filterUnits="userSpaceOnUse" color-interpolation-filters="sRGB">
<feFlood flood-opacity="0" result="BackgroundImageFix"/>
<feColorMatrix in="SourceAlpha" type="matrix" values="0 0 0 0 0 0 0 0 0 0 0 0 0 0 0 0 0 0 127 0" result="hardAlpha"/>
<feOffset dx="27.7864" dy="23.8169"/>
<feGaussianBlur stdDeviation="9.9237"/>
<feComposite in2="hardAlpha" operator="out"/>
<feColorMatrix type="matrix" values="0 0 0 0 0 0 0 0 0 0 0 0 0 0 0 0 0 0 0.1 0"/>
<feBlend mode="normal" in2="BackgroundImageFix" result="effect1_dropShadow_224_1343"/>
<feBlend mode="normal" in="SourceGraphic" in2="effect1_dropShadow_224_1343" result="shape"/>
</filter>
<filter id="filter6_d_224_1343" x="459.22" y="40.117" width="260.081" height="32.2322" filterUnits="userSpaceOnUse" color-interpolation-filters="sRGB">
<feFlood flood-opacity="0" result="BackgroundImageFix"/>
<feColorMatrix in="SourceAlpha" type="matrix" values="0 0 0 0 0 0 0 0 0 0 0 0 0 0 0 0 0 0 127 0" result="hardAlpha"/>
<feOffset dy="-5.55727"/>
<feGaussianBlur stdDeviation="7.85957"/>
<feComposite in2="hardAlpha" operator="out"/>
<feColorMatrix type="matrix" values="0 0 0 0 0 0 0 0 0 0 0 0 0 0 0 0 0 0 0.88 0"/>
<feBlend mode="normal" in2="BackgroundImageFix" result="effect1_dropShadow_224_1343"/>
<feBlend mode="normal" in="SourceGraphic" in2="effect1_dropShadow_224_1343" result="shape"/>
</filter>
<filter id="filter7_d_224_1343" x="541.779" y="16.2917" width="140.712" height="136.749" filterUnits="userSpaceOnUse" color-interpolation-filters="sRGB">
<feFlood flood-opacity="0" result="BackgroundImageFix"/>
<feColorMatrix in="SourceAlpha" type="matrix" values="0 0 0 0 0 0 0 0 0 0 0 0 0 0 0 0 0 0 127 0" result="hardAlpha"/>
<feOffset dx="27.7864" dy="23.8169"/>
<feGaussianBlur stdDeviation="9.9237"/>
<feComposite in2="hardAlpha" operator="out"/>
<feColorMatrix type="matrix" values="0 0 0 0 0 0 0 0 0 0 0 0 0 0 0 0 0 0 0.1 0"/>
<feBlend mode="normal" in2="BackgroundImageFix" result="effect1_dropShadow_224_1343"/>
<feBlend mode="normal" in="SourceGraphic" in2="effect1_dropShadow_224_1343" result="shape"/>
</filter>
<filter id="filter8_d_224_1343" x="688.695" y="40.1171" width="260.081" height="32.2322" filterUnits="userSpaceOnUse" color-interpolation-filters="sRGB">
<feFlood flood-opacity="0" result="BackgroundImageFix"/>
<feColorMatrix in="SourceAlpha" type="matrix" values="0 0 0 0 0 0 0 0 0 0 0 0 0 0 0 0 0 0 127 0" result="hardAlpha"/>
<feOffset dy="-5.55727"/>
<feGaussianBlur stdDeviation="7.85957"/>
<feComposite in2="hardAlpha" operator="out"/>
<feColorMatrix type="matrix" values="0 0 0 0 0 0 0 0 0 0 0 0 0 0 0 0 0 0 0.88 0"/>
<feBlend mode="normal" in2="BackgroundImageFix" result="effect1_dropShadow_224_1343"/>
<feBlend mode="normal" in="SourceGraphic" in2="effect1_dropShadow_224_1343" result="shape"/>
</filter>
<filter id="filter9_d_224_1343" x="771.254" y="16.2915" width="140.712" height="136.749" filterUnits="userSpaceOnUse" color-interpolation-filters="sRGB">
<feFlood flood-opacity="0" result="BackgroundImageFix"/>
<feColorMatrix in="SourceAlpha" type="matrix" values="0 0 0 0 0 0 0 0 0 0 0 0 0 0 0 0 0 0 127 0" result="hardAlpha"/>
<feOffset dx="27.7864" dy="23.8169"/>
<feGaussianBlur stdDeviation="9.9237"/>
<feComposite in2="hardAlpha" operator="out"/>
<feColorMatrix type="matrix" values="0 0 0 0 0 0 0 0 0 0 0 0 0 0 0 0 0 0 0.1 0"/>
<feBlend mode="normal" in2="BackgroundImageFix" result="effect1_dropShadow_224_1343"/>
<feBlend mode="normal" in="SourceGraphic" in2="effect1_dropShadow_224_1343" result="shape"/>
</filter>
<filter id="filter10_d_224_1343" x="918.17" y="40.117" width="260.081" height="32.2322" filterUnits="userSpaceOnUse" color-interpolation-filters="sRGB">
<feFlood flood-opacity="0" result="BackgroundImageFix"/>
<feColorMatrix in="SourceAlpha" type="matrix" values="0 0 0 0 0 0 0 0 0 0 0 0 0 0 0 0 0 0 127 0" result="hardAlpha"/>
<feOffset dy="-5.55727"/>
<feGaussianBlur stdDeviation="7.85957"/>
<feComposite in2="hardAlpha" operator="out"/>
<feColorMatrix type="matrix" values="0 0 0 0 0 0 0 0 0 0 0 0 0 0 0 0 0 0 0.88 0"/>
<feBlend mode="normal" in2="BackgroundImageFix" result="effect1_dropShadow_224_1343"/>
<feBlend mode="normal" in="SourceGraphic" in2="effect1_dropShadow_224_1343" result="shape"/>
</filter>
<filter id="filter11_d_224_1343" x="1000.73" y="16.2915" width="140.712" height="136.749" filterUnits="userSpaceOnUse" color-interpolation-filters="sRGB">
<feFlood flood-opacity="0" result="BackgroundImageFix"/>
<feColorMatrix in="SourceAlpha" type="matrix" values="0 0 0 0 0 0 0 0 0 0 0 0 0 0 0 0 0 0 127 0" result="hardAlpha"/>
<feOffset dx="27.7864" dy="23.8169"/>
<feGaussianBlur stdDeviation="9.9237"/>
<feComposite in2="hardAlpha" operator="out"/>
<feColorMatrix type="matrix" values="0 0 0 0 0 0 0 0 0 0 0 0 0 0 0 0 0 0 0.1 0"/>
<feBlend mode="normal" in2="BackgroundImageFix" result="effect1_dropShadow_224_1343"/>
<feBlend mode="normal" in="SourceGraphic" in2="effect1_dropShadow_224_1343" result="shape"/>
</filter>
<linearGradient id="paint0_linear_224_1343" x1="1309.6" y1="95.6998" x2="1243.87" y2="29.9724" gradientUnits="userSpaceOnUse">
<stop stop-color="#EBEAEA"/>
<stop offset="1" stop-color="white"/>
</linearGradient>
<linearGradient id="paint1_linear_224_1343" x1="162.239" y1="95.7003" x2="96.5147" y2="29.9729" gradientUnits="userSpaceOnUse">
<stop stop-color="#EBEAEA"/>
<stop offset="1" stop-color="white"/>
</linearGradient>
<linearGradient id="paint2_linear_224_1343" x1="391.712" y1="95.7001" x2="325.987" y2="29.9727" gradientUnits="userSpaceOnUse">
<stop stop-color="#EBEAEA"/>
<stop offset="1" stop-color="white"/>
</linearGradient>
<linearGradient id="paint3_linear_224_1343" x1="621.179" y1="95.7001" x2="555.454" y2="29.9727" gradientUnits="userSpaceOnUse">
<stop stop-color="#EBEAEA"/>
<stop offset="1" stop-color="white"/>
</linearGradient>
<linearGradient id="paint4_linear_224_1343" x1="850.653" y1="95.6998" x2="784.929" y2="29.9724" gradientUnits="userSpaceOnUse">
<stop stop-color="#EBEAEA"/>
<stop offset="1" stop-color="white"/>
</linearGradient>
<linearGradient id="paint5_linear_224_1343" x1="1080.13" y1="95.6998" x2="1014.4" y2="29.9724" gradientUnits="userSpaceOnUse">
<stop stop-color="#EBEAEA"/>
<stop offset="1" stop-color="white"/>
</linearGradient>
</defs>
</svg>
