<svg width="158" height="159" viewBox="0 0 158 159" fill="none" xmlns="http://www.w3.org/2000/svg">
<path d="M156.939 4.5288C156.734 3.98673 156.377 3.52399 155.917 3.20261C155.457 2.88124 154.915 2.71658 154.364 2.73083C153.704 2.77641 153.084 3.08091 152.624 3.58487L136 21.2571H158V6.98601L156.939 4.5288Z" fill="url(#paint0_linear_224_1987)"/>
<path d="M4.92401 152.741C1.63341 155.964 3.20104 157.562 4.92401 157.73L21 158.5V136.5C16.1983 140.802 4.92401 152.741 4.92401 152.741Z" fill="url(#paint1_linear_224_1987)"/>
<path d="M151.435 1.27749e-05H87.5644C85.1163 -0.00285358 82.6916 0.476659 80.4289 1.41125C78.1662 2.34583 76.1099 3.71715 74.3774 5.44679L5.44678 74.3917C1.95711 77.8871 -0.00198518 82.6251 1.50953e-06 87.5643V155.062C-3.09592e-06 155.449 0.0764509 155.832 0.225015 156.189C0.373579 156.547 0.591297 156.871 0.865673 157.144C1.14005 157.417 1.4657 157.634 1.82386 157.78C2.18202 157.927 2.56565 158.002 2.95273 158H5.20313C2.17873 157.384 3.54043 154.589 4.75879 153.313L29.126 128.845L128.616 29.341L152.553 4.32881C153.019 3.84669 153.647 3.55538 154.316 3.51178C154.875 3.49814 155.424 3.65558 155.89 3.96303C156.356 4.27048 156.718 4.71317 156.925 5.23175L158 7.55388V6.57912C157.992 4.83901 157.299 3.17215 156.07 1.94036C154.841 0.708565 153.175 0.0113206 151.435 1.27749e-05Z" fill="url(#paint2_linear_224_1987)"/>
<path d="M38.1332 83.0345L39.3805 81.7872L41.1624 83.5691L39.7369 84.9946C39.1429 85.5886 38.5065 85.9365 37.8277 86.0383C37.7089 86.7341 37.3568 87.3747 36.7713 87.9602L32.2274 92.5041C31.4892 93.2423 30.6577 93.5732 29.7328 93.4969C28.9267 93.4375 28.18 93.0641 27.4927 92.3768L26.3217 91.2058L27.1872 88.3802L29.2364 90.4294C29.5164 90.7094 29.7625 90.8537 29.9746 90.8622C30.1952 90.8622 30.4413 90.7264 30.7128 90.4549L34.8239 86.3438C35.0955 86.0722 35.227 85.8304 35.2185 85.6183C35.2185 85.3977 35.0785 85.1473 34.7985 84.8673L30.1019 80.1707L30.9674 77.3451L36.6568 83.0345C36.9283 83.306 37.1744 83.4418 37.395 83.4418C37.6156 83.4418 37.8617 83.306 38.1332 83.0345ZM28.46 83.1363C29.2067 82.6272 29.9237 82.7163 30.611 83.4036C30.9759 83.7685 31.1625 84.1673 31.171 84.6C31.1795 85.0158 31.0098 85.3977 30.6619 85.7456L28.6764 87.7311L28.2818 86.4456L29.7328 84.9946C30.0043 84.7231 30.0043 84.4515 29.7328 84.18C29.4018 83.8491 29.0242 83.8958 28.6 84.32C28.3285 84.5916 28.1757 84.931 28.1418 85.3383L27.3781 84.5746L27.2636 82.2199L28.3327 81.1508L28.46 83.1363ZM34.8785 76.5396C34.59 76.8281 34.2676 76.9723 33.9112 76.9723C33.5633 76.9638 33.2451 76.8154 32.9566 76.5269C32.6766 76.2468 32.5366 75.9371 32.5366 75.5977C32.5366 75.2413 32.6808 74.9189 32.9693 74.6304C33.2494 74.3504 33.5591 74.2104 33.8985 74.2104C34.2379 74.2104 34.5518 74.3546 34.8403 74.6431C35.1373 74.9401 35.2901 75.2626 35.2985 75.6104C35.2985 75.9499 35.1585 76.2596 34.8785 76.5396ZM37.0041 74.414C36.7156 74.7025 36.3932 74.8468 36.0368 74.8468C35.6889 74.8383 35.3707 74.6898 35.0822 74.4013C34.8022 74.1213 34.6622 73.8116 34.6622 73.4722C34.6622 73.1158 34.8064 72.7933 35.0949 72.5048C35.3749 72.2248 35.6846 72.0848 36.024 72.0848C36.3635 72.0848 36.6774 72.2291 36.9659 72.5176C37.2629 72.8145 37.4156 73.137 37.4241 73.4849C37.4241 73.8243 37.2841 74.134 37.0041 74.414ZM43.2662 77.9015L44.5008 76.6669L46.2827 78.4488L44.8699 79.8616C44.276 80.4555 43.6396 80.8034 42.9608 80.9053C42.842 81.6011 42.4898 82.2417 41.9043 82.8272L40.4788 84.2527L38.6969 82.4708L39.9442 81.2235C40.2158 80.9519 40.3515 80.7059 40.3515 80.4852C40.3515 80.2646 40.2158 80.0186 39.9442 79.747L37.7169 77.5196L38.5824 74.694L41.7898 77.9015C42.0613 78.173 42.3031 78.313 42.5153 78.3215C42.7359 78.3215 42.9862 78.1815 43.2662 77.9015ZM42.1248 69.2933C41.8363 69.5818 41.5139 69.7261 41.1575 69.7261C40.8096 69.7176 40.4914 69.5691 40.2029 69.2806C39.9229 69.0006 39.7829 68.6909 39.7829 68.3515C39.7913 68.0036 39.9398 67.6854 40.2283 67.3969C40.5083 67.1168 40.8181 66.9768 41.1575 66.9768C41.4969 66.9768 41.8066 67.1168 42.0866 67.3969C42.3836 67.6938 42.5363 68.0163 42.5448 68.3642C42.5448 68.7036 42.4048 69.0133 42.1248 69.2933ZM44.2376 67.1805C43.9491 67.469 43.6309 67.609 43.283 67.6005C42.9351 67.592 42.6169 67.4435 42.3284 67.155C42.0484 66.875 41.9084 66.5653 41.9084 66.2259C41.9084 65.8865 42.0527 65.5725 42.3412 65.284C42.6212 65.004 42.9309 64.864 43.2703 64.864C43.6182 64.8555 43.9322 64.9913 44.2122 65.2713C44.5092 65.5683 44.6576 65.895 44.6576 66.2513C44.6576 66.5908 44.5176 66.9005 44.2376 67.1805ZM45.6122 79.1193L43.8303 77.3374L45.7141 75.4536C45.188 75.3009 44.6958 74.9954 44.2376 74.5372C43.2873 73.5869 42.7994 72.5814 42.7739 71.5207C42.7485 70.5619 43.1133 69.7049 43.8685 68.9497C44.6407 68.1775 45.4892 67.8211 46.4141 67.8805C47.2287 67.9314 47.9754 68.2963 48.6542 68.9751L49.7743 70.0952C50.504 70.8249 50.8731 71.6353 50.8816 72.5262C50.8986 73.3917 50.5379 74.1936 49.7997 74.9318L45.6122 79.1193ZM46.7578 70.7698C46.342 70.354 45.9559 70.3243 45.5995 70.6807C45.0734 71.2068 45.2049 71.8644 45.9941 72.6535C46.8341 73.4935 47.5087 73.659 48.0178 73.1499C48.3912 72.7765 48.3742 72.3862 47.9669 71.9789L46.7578 70.7698ZM56.7783 67.9532C55.9977 68.7339 55.1364 69.0945 54.1945 69.0351C53.3715 68.9757 52.6163 68.6023 51.929 67.915L47.1433 63.1293L48.0088 60.3037L53.6982 65.9931C53.9697 66.2646 54.2158 66.4004 54.4364 66.4004C54.657 66.4004 54.9031 66.2646 55.1746 65.9931L56.4219 64.7458L58.2038 66.5277L56.7783 67.9532ZM57.5198 67.2117L55.7379 65.4298L56.9852 64.1825C57.2568 63.9109 57.3925 63.6649 57.3925 63.4442C57.3925 63.2236 57.2568 62.9776 56.9852 62.706L54.7579 60.4786L55.6234 57.653L58.9072 60.9368C59.6963 61.726 60.0696 62.5915 60.0272 63.5333C59.9848 64.3564 59.6242 65.1074 58.9453 65.7862L57.5198 67.2117ZM62.8783 67.8354C62.5898 68.1239 62.2673 68.2681 61.9109 68.2681C61.5715 68.2681 61.2576 68.1239 60.9691 67.8354C60.6806 67.5469 60.5363 67.2329 60.5363 66.8935C60.5448 66.5456 60.6933 66.2274 60.9818 65.9389C61.2618 65.6589 61.5715 65.5189 61.9109 65.5189C62.2504 65.5189 62.5643 65.6631 62.8528 65.9516C63.1413 66.2401 63.2856 66.5541 63.2856 66.8935C63.294 67.2414 63.1583 67.5554 62.8783 67.8354ZM71.7156 49.4521L72.9757 48.192L74.7576 49.9739L73.3321 51.3995C72.7975 51.934 72.2035 52.2734 71.5502 52.4177C71.3889 53.088 70.9732 53.7584 70.3028 54.4287L68.4827 56.2488C68.2112 56.5203 68.0754 56.7664 68.0754 56.987C68.0754 57.2076 68.2112 57.4537 68.4827 57.7252L70.7738 60.0163L69.9083 62.8419L66.5481 59.4817C65.8268 58.7604 65.4577 57.9671 65.4408 57.1016C65.4238 56.3549 65.6741 55.6548 66.1917 55.0015C65.6996 54.7469 65.2371 54.4032 64.8044 53.9705C63.854 53.0201 63.3661 52.0146 63.3406 50.954C63.3152 49.9951 63.6801 49.1381 64.4352 48.3829C65.2074 47.6108 66.0559 47.2544 66.9808 47.3138C67.7954 47.3647 68.5421 47.7296 69.2209 48.4084L70.2519 49.4394C70.5319 49.7194 70.778 49.8636 70.9901 49.8721C71.2023 49.8636 71.4441 49.7236 71.7156 49.4521ZM68.6482 51.5267L67.3245 50.203C66.9087 49.7872 66.5226 49.7576 66.1662 50.1139C65.6402 50.64 65.7717 51.2976 66.5608 52.0868C67.4009 52.9268 68.0797 53.088 68.5973 52.5704C68.9621 52.2056 68.9791 51.8577 68.6482 51.5267ZM80.2873 40.8804L81.5346 39.6331L83.3165 41.415L81.9037 42.8278C81.3267 43.4048 80.7115 43.7484 80.0582 43.8588C80.0582 44.7412 79.6891 45.5516 78.9508 46.2898C78.2211 47.0195 77.4193 47.3886 76.5453 47.3971C76.4095 48.059 76.0616 48.6699 75.5016 49.2299L74.0761 50.6555L72.2941 48.8736L73.5415 47.6262C73.813 47.3547 73.9488 47.1086 73.9488 46.888C73.9488 46.6674 73.813 46.4213 73.5415 46.1498L73.1851 45.7934C72.1753 44.7837 71.6577 43.74 71.6323 42.6623C71.6068 41.7035 71.9759 40.8422 72.7396 40.0786C73.6136 39.2046 74.6064 38.8482 75.718 39.0094C76.6683 39.1452 77.5847 39.6458 78.4672 40.5113L78.8236 40.8677C79.1036 41.1477 79.3497 41.292 79.5618 41.3004C79.7739 41.292 80.0157 41.152 80.2873 40.8804ZM77.1689 44.5079C77.7035 43.9733 77.5083 43.2436 76.5835 42.3187C75.7095 41.4447 75.0052 41.275 74.4706 41.8096C73.9445 42.3356 74.1185 43.0357 74.9925 43.9097C75.9174 44.8346 76.6429 45.034 77.1689 44.5079ZM85.262 35.9057C84.4729 34.285 84.091 32.7067 84.1165 31.1709C84.1589 29.4823 84.7317 28.0865 85.8348 26.9834C86.8615 25.9567 88.0367 25.4943 89.3604 25.5961C90.472 25.6724 91.4647 26.1476 92.3387 27.0216L92.5933 27.2762C93.3824 28.0653 93.7515 28.9266 93.7006 29.8599C93.6582 30.683 93.2976 31.434 92.6187 32.1128L87.0312 37.7003C86.4372 38.2943 85.8008 38.6422 85.122 38.744C85.0032 39.4398 84.6511 40.0805 84.0656 40.6659L82.6401 42.0915L80.8581 40.3096L82.1055 39.0622C82.377 38.7907 82.5128 38.5446 82.5128 38.324C82.5128 38.1034 82.377 37.8573 82.1055 37.5858L80.4763 35.9566L81.3418 33.131L83.951 35.7402C84.4092 36.1984 84.8462 36.2536 85.262 35.9057ZM90.6459 29.0199L90.4932 28.8672C90.035 28.4089 89.5386 28.1671 89.004 28.1417C88.461 28.1077 87.9858 28.2944 87.5785 28.7017C86.993 29.2872 86.6578 30.0636 86.573 31.0309C86.4881 31.9813 86.6663 32.991 87.1076 34.0601L90.7732 30.3945C91.0278 30.1399 91.1465 29.9278 91.1296 29.7581C91.1211 29.5799 90.9599 29.3338 90.6459 29.0199Z" fill="white"/>
<defs>
<linearGradient id="paint0_linear_224_1987" x1="144.467" y1="17.6454" x2="156.76" y2="32.9587" gradientUnits="userSpaceOnUse">
<stop stop-color="#0A6264"/>
<stop offset="1" stop-color="#21D2D7"/>
</linearGradient>
<linearGradient id="paint1_linear_224_1987" x1="19" y1="142.96" x2="34.3681" y2="159.162" gradientUnits="userSpaceOnUse">
<stop stop-color="#0A6264"/>
<stop offset="1" stop-color="#21D2D7"/>
</linearGradient>
<linearGradient id="paint2_linear_224_1987" x1="89.6141" y1="97.8989" x2="34.4868" y2="6.52181" gradientUnits="userSpaceOnUse">
<stop stop-color="#0F898C"/>
<stop offset="1" stop-color="#21D2D7"/>
</linearGradient>
</defs>
</svg>
