<svg width="158" height="159" viewBox="0 0 158 159" fill="none" xmlns="http://www.w3.org/2000/svg">
<path d="M1.06137 4.5288C1.26611 3.98673 1.6225 3.52399 2.08271 3.20261C2.54292 2.88124 3.08489 2.71658 3.63597 2.73083C4.29607 2.77641 4.91645 3.08091 5.37598 3.58487L22 21.2571H0.000391006V6.98601L1.06137 4.5288Z" fill="url(#paint0_linear_224_4883)"/>
<path d="M153.076 152.741C156.367 155.964 154.799 157.562 153.076 157.73L137 158.5V136.5C141.802 140.802 153.076 152.741 153.076 152.741Z" fill="url(#paint1_linear_224_4883)"/>
<path d="M6.56479 1.27749e-05H70.4356C72.8837 -0.00285358 75.3084 0.476659 77.5711 1.41125C79.8338 2.34583 81.8901 3.71715 83.6226 5.44679L152.553 74.3917C156.043 77.8871 158.002 82.6251 158 87.5643V155.062C158 155.449 157.924 155.832 157.775 156.189C157.626 156.547 157.409 156.871 157.134 157.144C156.86 157.417 156.534 157.634 156.176 157.78C155.818 157.927 155.434 158.002 155.047 158H152.797C155.821 157.384 154.46 154.589 153.241 153.313L128.874 128.845L29.384 29.341L5.44678 4.32881C4.98116 3.84669 4.35255 3.55538 3.68372 3.51178C3.12534 3.49814 2.57619 3.65558 2.10989 3.96303C1.64359 4.27048 1.28247 4.71317 1.07503 5.23175L0 7.55388V6.57912C0.00750732 4.83901 0.70108 3.17215 1.93019 1.94036C3.1593 0.708565 4.82471 0.0113206 6.56479 1.27749e-05Z" fill="url(#paint2_linear_224_4883)"/>
<path d="M61.8471 18.3454L60.0143 18.8036C59.8531 17.726 59.5307 16.9454 59.047 16.4617C58.4191 15.8338 57.6766 15.5835 56.8196 15.7107C55.9626 15.838 55.1141 16.3217 54.274 17.1617C53.6122 17.8236 53.2176 18.583 53.0903 19.44C52.9546 20.3734 53.2303 21.1838 53.9177 21.8711C54.3589 22.3123 55.0971 22.6517 56.1323 22.8893L55.7505 24.6457C54.3165 24.6712 53.1116 24.196 52.1357 23.2202C50.7357 21.8201 50.2138 20.2631 50.5702 18.5491C50.8248 17.3611 51.44 16.2793 52.4158 15.3035C53.7225 13.9967 55.0886 13.2924 56.5141 13.1906C57.9482 13.0803 59.2676 13.6276 60.4725 14.8325C61.2701 15.6301 61.7284 16.8011 61.8471 18.3454ZM60.4522 29.9075C59.5104 30.0518 58.6619 29.7463 57.9067 28.9911C57.16 28.2444 56.8163 27.5359 56.8757 26.8656C56.9521 26.1952 57.4442 25.4061 58.3521 24.4982L61.8141 21.0362L63.5197 22.7417L60.5286 25.7328C59.9516 26.3098 59.6207 26.7765 59.5358 27.1329C59.4595 27.4808 59.6037 27.8371 59.9686 28.202C60.1044 28.3378 60.2995 28.4651 60.5541 28.5838C60.8171 28.6942 60.9995 28.7239 61.1014 28.6729L65.2761 24.4982L67.0071 26.2292L61.2287 32.0077L59.9431 30.7221L60.4522 29.9075ZM63.152 32.6073L64.7557 32.2763C64.8066 33.057 65.1545 33.7697 65.7994 34.4146C66.0115 34.6268 66.2406 34.7456 66.4867 34.771C66.7412 34.8049 66.9534 34.7371 67.1231 34.5674C67.4625 34.2279 67.4031 33.7358 66.9449 33.0909C66.4273 32.3697 66.1642 31.6739 66.1557 31.0035C66.1473 30.3332 66.3933 29.7477 66.894 29.2471C67.3861 28.7549 67.9928 28.5471 68.7141 28.6234C69.4438 28.6913 70.1099 29.0265 70.7123 29.6289C71.5354 30.452 72.0148 31.4151 72.1506 32.5182L70.5978 32.7982C70.462 32.1024 70.1226 31.483 69.5796 30.9399C69.2232 30.5835 68.888 30.5623 68.5741 30.8763C68.2771 31.1732 68.3195 31.6315 68.7013 32.2509C69.2274 33.1164 69.5074 33.7782 69.5414 34.2364C69.6008 34.9068 69.3165 35.5559 68.6886 36.1838C68.1455 36.7269 67.5134 36.9687 66.7921 36.9093C66.0794 36.8414 65.3921 36.4765 64.7302 35.8147C63.7799 34.8643 63.2538 33.7952 63.152 32.6073ZM73.153 41.081L72.8476 42.532C71.6936 42.3962 70.7305 41.9422 69.9583 41.1701C68.9316 40.1434 68.9868 39.0615 70.1238 37.9244L73.0257 35.0225L72.2366 34.2334L73.624 32.846L74.4258 33.6479L75.4186 32.6551C76.1908 32.8842 77.0817 33.1557 78.0915 33.4697L76.1695 35.3916L77.7987 37.0208L76.4114 38.4081L74.7695 36.7662L72.033 39.5027C71.7954 39.7403 71.6639 39.9227 71.6384 40.05C71.6129 40.1773 71.6723 40.3131 71.8166 40.4573C72.0542 40.6949 72.4997 40.9028 73.153 41.081ZM81.8011 40.7177C82.76 41.6766 83.1715 42.7584 83.0358 43.9634C82.9254 44.9561 82.463 45.8598 81.6484 46.6744C80.7065 47.6163 79.6035 48.049 78.3392 47.9726C77.3124 47.9132 76.4385 47.5229 75.7172 46.8017C74.8856 45.9701 74.4996 44.9561 74.559 43.7597C74.6014 42.6651 75.0341 41.7063 75.8572 40.8832C76.7991 39.9413 77.8385 39.4704 78.9756 39.4704C80.0277 39.4704 80.9696 39.8862 81.8011 40.7177ZM77.6264 42.6524C76.4639 43.8149 76.2603 44.7737 77.0155 45.5289C77.7622 46.2756 78.7167 46.0677 79.8792 44.9052C81.1011 43.6833 81.3345 42.6948 80.5793 41.9396C79.8326 41.1929 78.8483 41.4305 77.6264 42.6524ZM86.8467 47.1888C87.814 47.2058 88.6668 47.5834 89.405 48.3216C89.9056 48.8222 90.2408 49.3695 90.4105 49.9635C90.5887 50.5659 90.576 51.1217 90.3723 51.6308C90.8814 51.4611 91.4499 51.4696 92.0779 51.6563C92.7058 51.843 93.2531 52.1696 93.7198 52.6363C95.0689 53.9855 94.9204 55.4831 93.2743 57.1293L89.8123 60.5913L88.0686 58.8476L91.0469 55.8692C91.5984 55.3177 91.9081 54.8552 91.976 54.4819C92.0609 54.1085 91.9251 53.7437 91.5687 53.3873C91.0002 52.8188 90.3341 52.5854 89.5705 52.6872L85.7266 56.5056L83.9956 54.7746L87.1776 51.5926C87.6613 51.109 87.9116 50.689 87.9285 50.3326C87.9625 49.9762 87.7716 49.5901 87.3558 49.1743C86.8891 48.7077 86.4097 48.4488 85.9175 48.3979L81.7682 52.5472L80.0372 50.8162L85.8157 45.0378L87.2922 46.5142L86.8467 47.1888ZM94.6953 65.4743L102.739 57.4303C102.858 57.4982 103.223 57.7952 103.834 58.3212C104.453 58.8558 104.916 59.2758 105.221 59.5813C107.3 61.6602 107.495 63.5439 105.807 65.2325C104.721 66.3186 103.562 66.7386 102.332 66.4926C101.543 66.3313 100.839 65.941 100.219 65.3216C100.083 65.1858 99.9138 64.9907 99.7101 64.7361C99.515 64.49 99.4216 64.3543 99.4301 64.3288L96.49 67.269L94.6953 65.4743ZM100.881 62.8778C101 63.1833 101.208 63.4845 101.505 63.7815C101.802 64.0785 102.158 64.1973 102.574 64.1379C102.998 64.087 103.405 63.8664 103.796 63.4761C104.61 62.6615 104.683 61.919 104.012 61.2487C103.562 60.7989 103.282 60.5783 103.172 60.5868L100.881 62.8778ZM105.902 76.6814L104.502 75.2813L104.91 74.6194C104.884 74.611 104.837 74.6067 104.77 74.6067C103.862 74.5304 103.123 74.2079 102.555 73.6394C101.274 72.3581 101.261 71.0896 102.517 69.8337C103.136 69.2143 103.879 68.9979 104.744 69.1846C105.669 69.3798 106.675 70.0204 107.761 71.1065L107.926 71.272L107.939 71.2593C108.278 70.9199 108.439 70.6229 108.422 70.3683C108.406 70.1138 108.206 69.7956 107.824 69.4137C107.264 68.8537 106.577 68.5228 105.762 68.4209C105.898 67.9458 106.042 67.4961 106.195 67.0718C107.112 67.2076 107.807 67.3857 108.282 67.6064C108.775 67.827 109.28 68.1961 109.797 68.7137C111.155 70.0713 110.977 71.6072 109.263 73.3212L105.902 76.6814ZM106.819 72.2521L106.73 72.163C106.28 71.7132 105.83 71.4247 105.381 71.2975C104.931 71.1702 104.579 71.2338 104.324 71.4884C103.84 71.972 103.798 72.4133 104.197 72.8121C104.468 73.0836 104.782 73.2363 105.139 73.2703C105.495 73.3042 105.809 73.2109 106.081 72.9903L106.819 72.2521ZM117.422 78.0948L115.958 78.4893C115.924 77.6578 115.657 76.9917 115.156 76.491C114.706 76.0413 114.159 75.8504 113.514 75.9183C112.878 75.9777 112.28 76.2874 111.72 76.8474C111.202 77.365 110.918 77.9293 110.867 78.5402C110.824 79.1427 111.024 79.6645 111.465 80.1058C112.025 80.6658 112.717 80.9246 113.54 80.8822L113.196 82.4223C111.94 82.4053 110.905 81.9895 110.09 81.1749C109.098 80.1821 108.622 79.0791 108.665 77.8657C108.716 76.8135 109.157 75.8716 109.989 75.0401C110.922 74.1067 112.008 73.6654 113.247 73.7164C114.333 73.7673 115.283 74.2 116.098 75.0146C117.031 75.948 117.473 76.9747 117.422 78.0948ZM125.001 84.2235L119.898 83.8034C119.49 85.7381 119.1 87.6388 118.727 89.5055L116.792 87.5709C117.318 85.789 117.721 84.4101 118.001 83.4343L115.328 86.1072L113.597 84.3762L120.903 77.0704L123.538 77.8977L119.796 81.6397C120.424 81.7245 121.395 81.8221 122.71 81.9324L125.001 84.2235ZM124.858 95.6365L123.457 94.2365L123.865 93.5746C123.839 93.5661 123.793 93.5619 123.725 93.5619C122.817 93.4855 122.079 93.1631 121.51 92.5946C120.229 91.3133 120.216 90.0447 121.472 88.7889C122.091 88.1695 122.834 87.9531 123.699 88.1398C124.624 88.3349 125.63 88.9756 126.716 90.0617L126.881 90.2272L126.894 90.2144C127.233 89.875 127.395 89.578 127.378 89.3235C127.361 89.0689 127.161 88.7507 126.779 88.3689C126.219 87.8089 125.532 87.4779 124.718 87.3761C124.853 86.9009 124.998 86.4512 125.15 86.0269C126.067 86.1627 126.762 86.3409 127.238 86.5615C127.73 86.7821 128.235 87.1512 128.752 87.6688C130.11 89.0265 129.932 90.5623 128.218 92.2764L124.858 95.6365ZM125.774 91.2072L125.685 91.1181C125.235 90.6684 124.785 90.3799 124.336 90.2526C123.886 90.1253 123.534 90.189 123.279 90.4435C122.796 90.9272 122.753 91.3684 123.152 91.7672C123.424 92.0388 123.737 92.1915 124.094 92.2254C124.45 92.2594 124.764 92.166 125.036 91.9454L125.774 91.2072ZM131.031 100.359C130.064 100.563 129.237 100.321 128.549 99.6337C127.701 98.7852 127.344 97.8263 127.48 96.7572C127.59 95.8662 128.032 95.0347 128.804 94.2625C129.932 93.134 131.124 92.5951 132.38 92.6461C133.322 92.6885 134.124 93.0406 134.786 93.7025C135.337 94.254 135.668 94.8565 135.779 95.5098C135.847 95.968 135.838 96.2056 135.753 96.2226L136.504 95.7262L137.828 97.0499L132.66 102.217C131.701 103.176 130.713 103.681 129.695 103.732C128.676 103.783 127.718 103.359 126.818 102.459C125.859 101.5 125.367 100.38 125.342 99.0991L126.627 98.6536C126.814 99.5022 127.234 100.253 127.887 100.906C128.753 101.772 129.797 101.594 131.018 100.372L131.031 100.359ZM132.8 98.59L134.048 97.3427C134.285 97.0542 134.391 96.7105 134.366 96.3117C134.349 95.9044 134.209 95.5692 133.946 95.3062C133.539 94.8989 133.055 94.7377 132.495 94.8225C131.943 94.9159 131.388 95.2426 130.828 95.8026C129.614 97.016 129.389 98.0045 130.153 98.7682C130.492 99.1076 130.912 99.2646 131.413 99.2391C131.922 99.2222 132.363 99.027 132.737 98.6536C132.754 98.6367 132.775 98.6155 132.8 98.59ZM141.498 107.618L137.552 103.673C137.23 104.046 137.081 104.492 137.107 105.009C137.141 105.518 137.332 105.947 137.679 106.295C138.231 106.846 138.99 107.258 139.958 107.529L139.474 108.878C138.956 108.853 138.396 108.7 137.794 108.42C137.2 108.132 136.699 107.784 136.292 107.377C135.299 106.384 134.803 105.336 134.803 104.233C134.794 103.172 135.257 102.175 136.19 101.242C137.098 100.334 138.15 99.884 139.347 99.8925C140.441 99.901 141.409 100.325 142.249 101.165C143.174 102.09 143.594 103.113 143.509 104.233C143.441 105.217 142.983 106.133 142.134 106.982L141.498 107.618ZM138.723 102.298L141.04 104.615C141.744 103.825 141.735 103.07 141.014 102.349C140.318 101.653 139.555 101.636 138.723 102.298Z" fill="white"/>
<defs>
<linearGradient id="paint0_linear_224_4883" x1="13.5333" y1="17.6454" x2="1.23954" y2="32.9587" gradientUnits="userSpaceOnUse">
<stop stop-color="#0A6264"/>
<stop offset="1" stop-color="#21D2D7"/>
</linearGradient>
<linearGradient id="paint1_linear_224_4883" x1="139" y1="142.96" x2="123.632" y2="159.162" gradientUnits="userSpaceOnUse">
<stop stop-color="#0A6264"/>
<stop offset="1" stop-color="#21D2D7"/>
</linearGradient>
<linearGradient id="paint2_linear_224_4883" x1="68.3859" y1="97.8989" x2="123.513" y2="6.52181" gradientUnits="userSpaceOnUse">
<stop stop-color="#0F898C"/>
<stop offset="1" stop-color="#21D2D7"/>
</linearGradient>
</defs>
</svg>
