<svg width="255" height="285" viewBox="0 0 255 285" fill="none" xmlns="http://www.w3.org/2000/svg">
<path d="M62.1576 208.612C61.9318 208.612 61.7082 208.569 61.4996 208.483C61.291 208.397 61.1016 208.272 60.9425 208.113L60.1404 207.321C59.8295 207 59.658 206.571 59.6629 206.125C59.6677 205.68 59.8483 205.255 60.1662 204.94C60.484 204.626 60.9136 204.447 61.3631 204.442C61.8125 204.437 62.246 204.607 62.5706 204.915L63.3726 205.707C63.6129 205.945 63.7765 206.248 63.8428 206.578C63.9091 206.908 63.875 207.25 63.745 207.561C63.615 207.872 63.3947 208.138 63.1122 208.325C62.8296 208.512 62.4975 208.612 62.1576 208.612ZM53.3464 199.887C53.1206 199.887 52.8971 199.843 52.6886 199.758C52.48 199.672 52.2906 199.547 52.1313 199.388L51.3316 198.596C51.0093 198.278 50.8281 197.845 50.8279 197.394C50.8277 196.943 51.0085 196.51 51.3304 196.191C51.6524 195.872 52.0891 195.693 52.5447 195.693C53.0002 195.692 53.4372 195.871 53.7594 196.19L54.5615 196.984C54.8021 197.222 54.9661 197.525 55.0325 197.855C55.099 198.185 55.065 198.527 54.9348 198.838C54.8047 199.149 54.5842 199.415 54.3014 199.601C54.0187 199.788 53.6863 199.888 53.3464 199.887ZM44.5424 191.162C44.0869 191.163 43.6499 190.984 43.3273 190.666L42.5276 189.872C42.3624 189.715 42.2304 189.527 42.1395 189.319C42.0485 189.111 42.0004 188.888 41.9979 188.661C41.9955 188.434 42.0387 188.21 42.1252 188C42.2116 187.79 42.3395 187.6 42.5013 187.439C42.6631 187.279 42.8555 187.152 43.0674 187.067C43.2793 186.981 43.5063 186.938 43.7351 186.941C43.9639 186.943 44.1899 186.991 44.3998 187.081C44.6098 187.171 44.7995 187.302 44.9578 187.465L45.7575 188.26C45.9981 188.497 46.162 188.8 46.2285 189.13C46.2949 189.46 46.2609 189.803 46.1308 190.114C46.0006 190.424 45.7802 190.69 45.4974 190.877C45.2147 191.063 44.8823 191.163 44.5424 191.162ZM35.7312 182.44C35.2755 182.44 34.8385 182.26 34.5161 181.941L33.7164 181.147C33.4055 180.826 33.234 180.396 33.2388 179.951C33.2437 179.506 33.4243 179.081 33.7422 178.766C34.06 178.451 34.4897 178.273 34.9391 178.268C35.3886 178.263 35.822 178.433 36.1466 178.741L36.9463 179.535C37.1866 179.773 37.3502 180.076 37.4164 180.406C37.4827 180.736 37.4487 181.078 37.3186 181.389C37.1886 181.7 36.9684 181.966 36.6858 182.153C36.4033 182.34 36.0711 182.44 35.7312 182.44ZM26.92 173.715C26.6947 173.715 26.4716 173.671 26.2635 173.586C26.0554 173.5 25.8664 173.375 25.7074 173.216L24.9052 172.422C24.7458 172.264 24.6194 172.077 24.5332 171.87C24.447 171.664 24.4027 171.443 24.4028 171.219C24.4029 170.996 24.4475 170.775 24.5339 170.569C24.6203 170.362 24.7469 170.175 24.9065 170.017C25.066 169.859 25.2554 169.734 25.4638 169.649C25.6722 169.563 25.8956 169.519 26.1212 169.52C26.3467 169.52 26.5701 169.564 26.7784 169.649C26.9867 169.735 27.176 169.86 27.3354 170.018L28.1351 170.81C28.3754 171.048 28.539 171.351 28.6053 171.681C28.6716 172.012 28.6375 172.354 28.5075 172.665C28.3775 172.975 28.1572 173.241 27.8747 173.428C27.5921 173.615 27.2599 173.715 26.92 173.715ZM18.1113 164.991C17.8855 164.991 17.6617 164.948 17.4531 164.862C17.2446 164.776 17.0552 164.65 16.8962 164.492L16.0941 163.7C15.7917 163.377 15.6274 162.951 15.6356 162.511C15.6439 162.071 15.824 161.651 16.1381 161.34C16.4523 161.028 16.8761 160.849 17.3206 160.841C17.7651 160.832 18.1957 160.995 18.5219 161.294L19.324 162.085C19.5642 162.323 19.7278 162.627 19.7941 162.957C19.8604 163.287 19.8263 163.629 19.6963 163.94C19.5662 164.251 19.346 164.517 19.0635 164.704C18.7809 164.891 18.4487 164.99 18.1089 164.991H18.1113ZM10.0616 155.677C9.72914 155.677 9.40391 155.581 9.12521 155.401C8.8465 155.222 8.6262 154.966 8.49081 154.666C8.32132 154.285 8.16138 153.89 8.01337 153.498C7.87326 153.075 7.90604 152.615 8.10464 152.215C8.30324 151.816 8.65187 151.51 9.07584 151.362C9.49982 151.214 9.9654 151.237 10.3728 151.425C10.7802 151.613 11.0969 151.951 11.2552 152.368C11.365 152.675 11.4939 152.985 11.6229 153.285C11.7389 153.544 11.7878 153.828 11.7651 154.11C11.7424 154.393 11.6487 154.665 11.4927 154.903C11.3367 155.141 11.1232 155.336 10.8716 155.471C10.62 155.606 10.3383 155.677 10.0521 155.677H10.0616ZM10.212 143.717C9.95745 143.717 9.70616 143.66 9.47676 143.551C9.27284 143.455 9.08996 143.321 8.93865 143.155C8.78733 142.989 8.67052 142.795 8.5949 142.585C8.51929 142.374 8.48635 142.151 8.49798 141.928C8.50961 141.705 8.56559 141.486 8.66269 141.284C8.84411 140.908 9.03986 140.535 9.24993 140.173C9.36039 139.976 9.50948 139.802 9.6885 139.662C9.86751 139.522 10.0729 139.418 10.2926 139.358C10.5124 139.297 10.7421 139.28 10.9685 139.309C11.1948 139.337 11.4132 139.409 11.6109 139.522C11.8086 139.635 11.9818 139.785 12.1202 139.965C12.2586 140.144 12.3595 140.349 12.417 140.568C12.4745 140.787 12.4876 141.014 12.4553 141.238C12.4231 141.461 12.3462 141.676 12.2292 141.87C12.0644 142.154 11.9093 142.45 11.7661 142.745C11.6259 143.037 11.4047 143.284 11.1282 143.456C10.8517 143.628 10.5314 143.718 10.2048 143.717H10.212ZM18.3667 134.476C18.0268 134.476 17.6946 134.377 17.4121 134.189C17.1295 134.002 16.9093 133.737 16.7792 133.426C16.6492 133.115 16.6152 132.773 16.6814 132.443C16.7477 132.113 16.9113 131.809 17.1516 131.571L17.9537 130.777C18.1096 130.604 18.2995 130.465 18.5119 130.367C18.7242 130.269 18.9545 130.215 19.1886 130.209C19.4227 130.203 19.6556 130.244 19.8731 130.329C20.0905 130.415 20.288 130.544 20.4534 130.709C20.6187 130.873 20.7484 131.069 20.8345 131.284C20.9206 131.5 20.9613 131.731 20.9542 131.962C20.947 132.194 20.8921 132.422 20.7928 132.632C20.6935 132.842 20.5519 133.03 20.3767 133.183L19.5746 133.978C19.4152 134.136 19.2258 134.262 19.0173 134.347C18.8088 134.433 18.5853 134.477 18.3595 134.476H18.3667ZM27.1779 125.752C26.838 125.752 26.5058 125.652 26.2233 125.465C25.9407 125.278 25.7205 125.012 25.5905 124.701C25.4604 124.39 25.4263 124.048 25.4926 123.718C25.5589 123.388 25.7225 123.085 25.9628 122.847L26.7649 122.055C26.9243 121.897 27.1135 121.771 27.3219 121.686C27.5302 121.6 27.7536 121.556 27.9791 121.556C28.2047 121.556 28.428 121.6 28.6365 121.685C28.8449 121.771 29.0343 121.896 29.1939 122.054C29.3534 122.211 29.4801 122.399 29.5665 122.605C29.6529 122.811 29.6974 123.033 29.6975 123.256C29.6976 123.479 29.6533 123.7 29.5671 123.907C29.4809 124.113 29.3545 124.301 29.195 124.459L28.393 125.253C28.2326 125.412 28.042 125.538 27.8322 125.623C27.6224 125.709 27.3976 125.753 27.1707 125.752H27.1779ZM35.989 117.027C35.6492 117.027 35.317 116.927 35.0344 116.74C34.7519 116.553 34.5317 116.287 34.4016 115.976C34.2716 115.665 34.2375 115.323 34.3038 114.993C34.3701 114.663 34.5337 114.36 34.774 114.122L35.576 113.33C35.9006 113.022 36.3341 112.852 36.7835 112.857C37.233 112.862 37.6626 113.041 37.9804 113.356C38.2983 113.67 38.479 114.096 38.4838 114.541C38.4886 114.986 38.3172 115.415 38.0063 115.736L37.2041 116.528C37.044 116.688 36.8534 116.814 36.6436 116.899C36.4337 116.985 36.2088 117.028 35.9818 117.027H35.989ZM44.8002 108.302C44.4604 108.302 44.1281 108.202 43.8456 108.015C43.563 107.828 43.3428 107.563 43.2128 107.252C43.0827 106.941 43.0487 106.599 43.115 106.269C43.1812 105.938 43.3449 105.635 43.5851 105.397L44.3849 104.605C44.7094 104.297 45.1428 104.128 45.5923 104.133C46.0417 104.137 46.4714 104.316 46.7893 104.631C47.1071 104.946 47.2878 105.371 47.2926 105.816C47.2974 106.261 47.126 106.69 46.815 107.012L46.0153 107.804C45.8551 107.963 45.6646 108.089 45.4548 108.175C45.245 108.26 45.02 108.304 44.7931 108.302H44.8002ZM53.6138 99.5776C53.2744 99.5771 52.9428 99.477 52.6608 99.2901C52.3787 99.1032 52.1589 98.8378 52.0289 98.5274C51.899 98.2169 51.8647 97.8754 51.9305 97.5457C51.9963 97.216 52.1592 96.913 52.3987 96.6749L53.1984 95.8807C53.3567 95.7171 53.5464 95.5864 53.7563 95.4964C53.9663 95.4063 54.1923 95.3587 54.4211 95.3562C54.6499 95.3538 54.8769 95.3966 55.0888 95.4822C55.3006 95.5678 55.4931 95.6944 55.6549 95.8546C55.8167 96.0148 55.9446 96.2054 56.031 96.4152C56.1174 96.625 56.1607 96.8497 56.1582 97.0763C56.1558 97.3028 56.1077 97.5266 56.0167 97.7345C55.9258 97.9424 55.7938 98.1303 55.6286 98.287L54.8289 99.0789C54.6696 99.2372 54.4802 99.3628 54.2717 99.4484C54.0631 99.534 53.8395 99.5779 53.6138 99.5776ZM62.4249 90.8529C62.085 90.8535 61.7526 90.7541 61.4699 90.5674C61.1871 90.3807 60.9667 90.115 60.8365 89.8041C60.7064 89.4932 60.6724 89.1511 60.7388 88.821C60.8053 88.491 60.9693 88.1879 61.2099 87.9502L61.4772 87.6831C61.8018 87.3752 62.2352 87.2054 62.6847 87.2102C63.1341 87.215 63.5638 87.3939 63.8816 87.7086C64.1994 88.0233 64.3802 88.4488 64.385 88.8938C64.3898 89.3388 64.2184 89.768 63.9074 90.0894L63.6376 90.3565C63.4774 90.5154 63.2868 90.6411 63.0769 90.7264C62.8671 90.8116 62.6422 90.8546 62.4154 90.8529H62.4249Z" fill="#B8860B"/>
<g filter="url(#filter0_d_224_1447)">
<path d="M119.79 260.31C117.591 260.313 115.412 259.887 113.379 259.054C111.347 258.222 109.5 257 107.945 255.46L60.5352 208.515L63.7746 205.307L111.187 252.252C113.47 254.51 116.564 255.778 119.79 255.778C123.017 255.778 126.111 254.51 128.394 252.252L224.913 156.68C227.194 154.419 228.475 151.355 228.475 148.159C228.475 144.964 227.194 141.9 224.913 139.639L128.394 44.0691C126.111 41.8115 123.017 40.5435 119.79 40.5435C116.564 40.5435 113.47 41.8115 111.187 44.0691L64.3022 90.4937L61.0603 87.2861L107.945 40.8614C109.5 39.3206 111.346 38.0982 113.379 37.2642C115.411 36.4303 117.589 36.001 119.789 36.001C121.989 36.001 124.167 36.4303 126.2 37.2642C128.232 38.0982 130.078 39.3206 131.633 40.8614L228.155 136.434C231.296 139.544 233.061 143.763 233.061 148.162C233.061 152.56 231.296 156.779 228.155 159.89L131.633 255.462C130.079 257.003 128.233 258.224 126.2 259.056C124.168 259.888 121.99 260.314 119.79 260.31Z" fill="#B8860B"/>
</g>
<g filter="url(#filter1_d_224_1447)">
<path d="M109.136 241.154L25.8725 158.712C24.4733 157.327 23.3634 155.683 22.6061 153.873C21.8488 152.063 21.459 150.123 21.459 148.164C21.459 146.205 21.8488 144.265 22.6061 142.455C23.3634 140.645 24.4733 139.001 25.8725 137.616L109.136 55.1669C111.962 52.3698 115.794 50.7985 119.79 50.7985C123.786 50.7985 127.618 52.3698 130.444 55.1669L213.707 137.616C215.107 139.001 216.217 140.645 216.974 142.455C217.731 144.265 218.121 146.205 218.121 148.164C218.121 150.123 217.731 152.063 216.974 153.873C216.217 155.683 215.107 157.327 213.707 158.712L130.444 241.159C129.045 242.544 127.384 243.643 125.555 244.392C123.727 245.142 121.768 245.527 119.789 245.527C117.81 245.526 115.851 245.14 114.023 244.39C112.195 243.639 110.535 242.54 109.136 241.154Z" fill="white"/>
</g>
<g filter="url(#filter2_d_224_1447)">
<path d="M105.768 233.722L32.7192 161.39C30.8764 159.568 29.4145 157.404 28.4171 155.022C27.4196 152.64 26.9062 150.087 26.9062 147.508C26.9062 144.929 27.4196 142.376 28.4171 139.994C29.4145 137.612 30.8764 135.448 32.7192 133.625L105.768 64.4116C107.609 62.5882 109.795 61.1419 112.201 60.1551C114.606 59.1683 117.185 58.6604 119.789 58.6604C122.393 58.6604 124.971 59.1683 127.377 60.1551C129.783 61.1419 131.969 62.5882 133.81 64.4116L206.859 133.625C208.701 135.448 210.163 137.612 211.161 139.994C212.158 142.376 212.672 144.929 212.672 147.508C212.672 150.087 212.158 152.64 211.161 155.022C210.163 157.404 208.701 159.568 206.859 161.39L133.81 233.722C131.969 235.545 129.783 236.992 127.377 237.979C124.971 238.965 122.393 239.473 119.789 239.473C117.185 239.473 114.606 238.965 112.201 237.979C109.795 236.992 107.609 235.545 105.768 233.722Z" fill="white"/>
</g>
<path d="M69.7852 156.329C66.5684 156.329 64.96 154.937 64.96 152.154C64.96 150.877 65.3408 149.828 66.1025 149.008C66.958 148.094 68.168 147.637 69.7324 147.637C71.1445 147.637 72.3984 147.845 73.4941 148.261V154.457H75.252V156.329H69.7852ZM71.1914 149.834C70.7344 149.617 70.1631 149.509 69.4775 149.509C68.8154 149.509 68.291 149.737 67.9043 150.194C67.5234 150.64 67.333 151.22 67.333 151.935C67.333 153.616 68.2354 154.457 70.04 154.457H71.1914V149.834ZM70.9893 146.503C70.6553 146.503 70.374 146.383 70.1455 146.143C69.917 145.908 69.8027 145.621 69.8027 145.281C69.8027 144.941 69.917 144.651 70.1455 144.411C70.3799 144.171 70.6611 144.051 70.9893 144.051C71.3232 144.051 71.6045 144.171 71.833 144.411C72.0615 144.645 72.1758 144.935 72.1758 145.281C72.1758 145.615 72.0615 145.902 71.833 146.143C71.6045 146.383 71.3232 146.503 70.9893 146.503ZM68.001 146.503C67.667 146.503 67.3857 146.383 67.1572 146.143C66.9287 145.908 66.8145 145.621 66.8145 145.281C66.8145 144.941 66.9287 144.651 67.1572 144.411C67.3916 144.171 67.6729 144.051 68.001 144.051C68.3408 144.051 68.6279 144.171 68.8623 144.411C69.0908 144.645 69.2051 144.935 69.2051 145.281C69.2051 145.615 69.0908 145.902 68.8623 146.143C68.6279 146.383 68.3408 146.503 68.001 146.503ZM74.9883 154.457H77.5107V147.865H79.8838V154.457H82.3359V156.329H74.9883V154.457ZM77.7217 159.027C77.7217 159.367 77.6074 159.654 77.3789 159.889C77.1445 160.129 76.8574 160.249 76.5176 160.249C76.1836 160.249 75.9023 160.132 75.6738 159.897C75.4453 159.663 75.3311 159.373 75.3311 159.027C75.3311 158.693 75.4453 158.406 75.6738 158.166C75.9082 157.926 76.1895 157.806 76.5176 157.806C76.8574 157.806 77.1445 157.923 77.3789 158.157C77.6074 158.397 77.7217 158.687 77.7217 159.027ZM80.6924 159.027C80.6924 159.361 80.5781 159.648 80.3496 159.889C80.1152 160.129 79.834 160.249 79.5059 160.249C79.1719 160.249 78.8906 160.132 78.6621 159.897C78.4336 159.663 78.3193 159.373 78.3193 159.027C78.3193 158.693 78.4336 158.406 78.6621 158.166C78.8965 157.926 79.1777 157.806 79.5059 157.806C79.8398 157.806 80.1211 157.923 80.3496 158.157C80.5781 158.397 80.6924 158.687 80.6924 159.027ZM85.7637 146.353C85.418 146.353 85.125 146.236 84.8848 146.002C84.6445 145.762 84.5244 145.466 84.5244 145.114C84.5244 144.774 84.6445 144.481 84.8848 144.235C85.1309 143.995 85.4238 143.875 85.7637 143.875C86.1035 143.875 86.3965 143.995 86.6426 144.235C86.8828 144.481 87.0029 144.774 87.0029 145.114C87.0029 145.454 86.8828 145.747 86.6426 145.993C86.3965 146.233 86.1035 146.353 85.7637 146.353ZM82.0547 154.457H84.5771V147.865H86.9502V156.329H82.0547V154.457ZM91.1514 160.864C90.249 160.864 89.335 160.785 88.4092 160.627L88.5586 158.685C89.4961 158.89 90.4307 158.992 91.3623 158.992C93.4424 158.992 94.4824 158.195 94.4824 156.602V156.329H93.0762C89.8594 156.329 88.251 154.937 88.251 152.154C88.251 150.877 88.6318 149.828 89.3936 149.008C90.249 148.094 91.459 147.637 93.0234 147.637C94.4355 147.637 95.6895 147.845 96.7852 148.261V156.364C96.7852 157.7 96.3486 158.761 95.4756 159.546C94.5029 160.425 93.0615 160.864 91.1514 160.864ZM94.4824 149.834C94.0254 149.617 93.4541 149.509 92.7686 149.509C92.1064 149.509 91.582 149.737 91.1953 150.194C90.8145 150.64 90.624 151.22 90.624 151.935C90.624 153.616 91.5264 154.457 93.3311 154.457H94.4824V149.834ZM103.324 156.329V156.399C103.324 159.399 101.842 160.899 98.877 160.899C98.3496 160.899 97.8457 160.841 97.3652 160.724L97.541 158.834C98.0391 158.975 98.5254 159.045 99 159.045C99.6504 159.045 100.128 158.869 100.433 158.518C100.778 158.119 100.951 157.457 100.951 156.531V147.865H103.324V154.457H107.06V147.865H109.433V154.457H111.032V156.329H103.324ZM108.554 146.143C108.325 145.908 108.211 145.621 108.211 145.281C108.211 144.941 108.325 144.651 108.554 144.411C108.788 144.171 109.069 144.051 109.397 144.051C109.731 144.051 110.013 144.171 110.241 144.411C110.47 144.645 110.584 144.935 110.584 145.281C110.584 145.615 110.47 145.902 110.241 146.143C110.007 146.383 109.726 146.503 109.397 146.503C109.063 146.503 108.782 146.383 108.554 146.143ZM105.565 146.143C105.337 145.908 105.223 145.621 105.223 145.281C105.223 144.941 105.337 144.651 105.565 144.411C105.8 144.171 106.081 144.051 106.409 144.051C106.749 144.051 107.036 144.171 107.271 144.411C107.499 144.645 107.613 144.935 107.613 145.281C107.613 145.615 107.499 145.902 107.271 146.143C107.036 146.383 106.749 146.503 106.409 146.503C106.075 146.503 105.794 146.383 105.565 146.143ZM110.795 154.457H116.139C116.033 151.732 114.562 150.039 111.727 149.377V147.637L118.863 143.172V145.527L114.469 148.173C116.959 149.304 118.283 151.398 118.441 154.457H119.9V156.329H110.795V154.457ZM119.637 154.457H121.869V143.638H124.242V156.329H119.637V154.457ZM127.301 143.638H129.674V156.329H127.301V143.638ZM135.545 154.457H140.889C140.783 151.791 139.368 150.112 136.644 149.421L137.215 147.435C139.23 147.968 140.719 148.823 141.68 150.001C142.699 151.255 143.209 152.969 143.209 155.143V156.329H135.545V154.457ZM147.533 160.864C146.631 160.864 145.717 160.785 144.791 160.627L144.94 158.685C145.878 158.89 146.812 158.992 147.744 158.992C149.824 158.992 150.864 158.195 150.864 156.602V156.329H149.458C146.241 156.329 144.633 154.937 144.633 152.154C144.633 150.877 145.014 149.828 145.775 149.008C146.631 148.094 147.841 147.637 149.405 147.637C150.817 147.637 152.071 147.845 153.167 148.261V154.457H154.925V156.329H153.167V156.364C153.167 157.7 152.73 158.761 151.857 159.546C150.885 160.425 149.443 160.864 147.533 160.864ZM150.864 149.834C150.407 149.617 149.836 149.509 149.15 149.509C148.488 149.509 147.964 149.737 147.577 150.194C147.196 150.64 147.006 151.22 147.006 151.935C147.006 153.616 147.908 154.457 149.713 154.457H150.864V149.834ZM154.67 154.457H155.426C155.801 154.457 156.167 154.486 156.524 154.545C155.974 153.977 155.698 153.168 155.698 152.119C155.698 150.812 156.12 149.74 156.964 148.902C157.813 148.059 158.915 147.637 160.269 147.637C161.587 147.637 162.606 147.977 163.327 148.656C164.083 149.377 164.461 150.435 164.461 151.829C164.461 153.054 164.112 153.959 163.415 154.545C163.919 154.486 164.376 154.457 164.786 154.457H165.744V156.329H154.67V154.457ZM160.066 154.457C160.664 154.457 161.139 154.249 161.49 153.833C161.877 153.388 162.07 152.761 162.07 151.952C162.07 150.323 161.414 149.509 160.102 149.509C159.539 149.509 159.073 149.699 158.704 150.08C158.282 150.514 158.071 151.126 158.071 151.917C158.071 153.61 158.736 154.457 160.066 154.457ZM161.622 146.503C161.288 146.503 161.007 146.383 160.778 146.143C160.544 145.908 160.427 145.621 160.427 145.281C160.427 144.941 160.544 144.651 160.778 144.411C161.007 144.171 161.288 144.051 161.622 144.051C161.95 144.051 162.231 144.171 162.466 144.411C162.694 144.645 162.809 144.935 162.809 145.281C162.809 145.615 162.694 145.902 162.466 146.143C162.231 146.383 161.95 146.503 161.622 146.503ZM158.634 146.503C158.3 146.503 158.019 146.383 157.79 146.143C157.556 145.908 157.438 145.621 157.438 145.281C157.438 144.941 157.556 144.651 157.79 144.411C158.019 144.171 158.3 144.051 158.634 144.051C158.974 144.051 159.258 144.171 159.486 144.411C159.721 144.645 159.838 144.935 159.838 145.281C159.838 145.615 159.721 145.902 159.486 146.143C159.252 146.383 158.968 146.503 158.634 146.503ZM165.463 154.457H168.214C167.282 153.906 166.816 153.013 166.816 151.776C166.816 150.587 167.203 149.617 167.977 148.867C168.826 148.047 170.01 147.637 171.527 147.637C172.33 147.637 173.074 147.751 173.76 147.979L173.347 149.869C172.796 149.617 172.172 149.491 171.475 149.491C170.795 149.491 170.247 149.699 169.831 150.115C169.415 150.531 169.207 151.085 169.207 151.776C169.207 152.585 169.532 153.224 170.183 153.692C170.892 154.202 171.929 154.457 173.294 154.457H174.7V156.329H165.463V154.457Z" fill="#565656"/>
<g filter="url(#filter3_d_224_1447)">
<path d="M143.017 73.7752C155.811 61.1073 155.811 40.5686 143.017 27.9007C130.224 15.2328 109.481 15.2328 96.688 27.9007C83.8946 40.5686 83.8946 61.1074 96.688 73.7753C109.481 86.4431 130.224 86.4431 143.017 73.7752Z" fill="#B8860B"/>
</g>
<path d="M126.647 41.0855V41.7794C126.647 42.9364 126.647 44.0936 126.647 45.2511C126.647 45.8688 127.005 46.2136 127.646 46.2144C128.989 46.2144 130.332 46.2144 131.675 46.2144H132.019V46.51C132.019 50.7662 132.019 55.0221 132.019 59.2777C132.019 59.7686 131.889 59.8933 131.377 59.8933H117.445C116.928 59.8933 116.797 59.77 116.797 59.2827C116.797 53.416 116.797 47.5488 116.797 41.6811C116.797 41.2208 116.934 41.0855 117.403 41.0855H126.647ZM124.408 47.9249H119.905C119.55 47.9249 119.485 47.9898 119.484 48.3324C119.484 48.6523 119.488 48.9736 119.484 49.2935C119.48 49.5272 119.589 49.6355 119.837 49.6355C122.885 49.6355 125.933 49.6355 128.982 49.6355C129.23 49.6355 129.339 49.5265 129.335 49.2935C129.331 48.9822 129.335 48.6701 129.335 48.3588C129.335 47.9812 129.278 47.9249 128.887 47.9249H124.408ZM124.414 51.3447H119.884C119.562 51.3447 119.487 51.4159 119.485 51.7194C119.485 52.0486 119.488 52.3777 119.485 52.7076C119.485 52.9377 119.581 53.0552 119.831 53.0552C122.88 53.0552 125.929 53.0552 128.977 53.0552C129.222 53.0552 129.34 52.9555 129.337 52.719C129.332 52.3984 129.337 52.0778 129.337 51.7579C129.337 51.4017 129.273 51.3447 128.894 51.3447H124.414ZM121.728 44.5052C121.104 44.5052 120.48 44.5052 119.855 44.5052C119.597 44.5052 119.477 44.6064 119.481 44.8557C119.488 45.1941 119.487 45.5318 119.481 45.8702C119.481 46.1004 119.578 46.2179 119.828 46.2179C121.086 46.2179 122.344 46.2179 123.603 46.2179C123.846 46.2179 123.964 46.1167 123.961 45.8809C123.96 45.5411 123.96 45.2027 123.96 44.8643C123.96 44.5793 123.878 44.5081 123.573 44.5081C122.957 44.5031 122.343 44.5052 121.727 44.5052H121.728ZM127.067 56.4743C127.691 56.4743 128.316 56.4743 128.936 56.4743C129.252 56.4743 129.327 56.3994 129.329 56.0931C129.329 55.7639 129.326 55.4348 129.329 55.1057C129.333 54.8727 129.225 54.763 128.976 54.7637C127.719 54.7665 126.461 54.7665 125.202 54.7637C124.955 54.7637 124.847 54.8727 124.85 55.1057C124.855 55.4348 124.85 55.7639 124.85 56.0931C124.85 56.4002 124.925 56.4728 125.243 56.4743C125.854 56.4757 126.46 56.4743 127.066 56.4743H127.067Z" fill="white"/>
<path d="M115.441 44.505V46.2149H113.396C113.22 46.2149 113.042 46.2092 112.865 46.2149C112.491 46.2299 112.206 46.0796 111.984 45.7917C111.572 45.2538 111.146 44.7231 110.732 44.188C110.642 44.0705 110.559 44.0156 110.389 44.042C109.197 44.2293 108.104 43.4606 107.876 42.2829C107.665 41.1957 108.446 40.0829 109.588 39.8606C110.479 39.6854 111.241 39.924 111.812 40.598C112.383 41.272 112.476 42.0122 112.111 42.7995C112.076 42.8595 112.062 42.9287 112.071 42.9969C112.081 43.065 112.113 43.1284 112.163 43.1778C112.468 43.5492 112.764 43.9263 113.051 44.3091C113.094 44.376 113.155 44.4303 113.228 44.4661C113.301 44.5018 113.383 44.5175 113.465 44.5115C114.117 44.4972 114.768 44.505 115.441 44.505Z" fill="white"/>
<path d="M115.446 54.7643V56.4741H114.787C114.339 56.4741 113.89 56.4613 113.446 56.482C113.307 56.4929 113.178 56.5534 113.083 56.6515C112.76 57.0306 112.467 57.4352 112.153 57.8185C112.106 57.8652 112.076 57.9253 112.068 57.9896C112.06 58.0539 112.074 58.1189 112.109 58.1747C112.302 58.5681 112.362 59.0092 112.28 59.4366C112.198 59.864 111.979 60.2565 111.652 60.5593C111.332 60.8619 110.924 61.0652 110.481 61.1424C110.038 61.2196 109.581 61.1671 109.17 60.9917C108.754 60.8142 108.405 60.5203 108.168 60.1492C107.932 59.778 107.819 59.3471 107.846 58.9135C107.91 57.6824 109.117 56.7349 110.379 56.933C110.445 56.9497 110.514 56.9453 110.576 56.9206C110.639 56.8958 110.691 56.8521 110.725 56.7962C111.138 56.2583 111.566 55.7275 111.977 55.1917C112.076 55.0521 112.212 54.9394 112.371 54.8645C112.529 54.7896 112.706 54.7551 112.882 54.7643C113.729 54.7707 114.575 54.7643 115.446 54.7643Z" fill="white"/>
<path d="M115.442 49.6347V51.3445H115.13C113.919 51.3445 112.707 51.3445 111.495 51.3445C111.319 51.3445 111.22 51.3844 111.126 51.5426C110.867 51.9905 110.445 52.3327 109.939 52.5051C109.434 52.6774 108.88 52.6681 108.381 52.4787C107.884 52.2963 107.472 51.9509 107.219 51.5047C106.966 51.0584 106.889 50.5408 107.001 50.045C107.108 49.5481 107.399 49.1043 107.821 48.7946C108.243 48.485 108.767 48.33 109.299 48.358C110.101 48.3979 110.719 48.7648 111.119 49.4266C111.22 49.5948 111.326 49.6368 111.51 49.6354C112.713 49.629 113.915 49.6354 115.118 49.6354L115.442 49.6347Z" fill="white"/>
<path d="M131.447 44.9319C130.484 44.9319 129.48 44.9319 128.475 44.9319C128.176 44.9319 127.995 44.7695 127.993 44.4909C127.986 43.5227 127.993 42.5545 127.993 41.6411L131.447 44.9319Z" fill="white"/>
<defs>
<filter id="filter0_d_224_1447" x="39.2974" y="17.595" width="215.001" height="266.785" filterUnits="userSpaceOnUse" color-interpolation-filters="sRGB">
<feFlood flood-opacity="0" result="BackgroundImageFix"/>
<feColorMatrix in="SourceAlpha" type="matrix" values="0 0 0 0 0 0 0 0 0 0 0 0 0 0 0 0 0 0 127 0" result="hardAlpha"/>
<feOffset dy="2.8317"/>
<feGaussianBlur stdDeviation="10.6189"/>
<feComposite in2="hardAlpha" operator="out"/>
<feColorMatrix type="matrix" values="0 0 0 0 0 0 0 0 0 0 0 0 0 0 0 0 0 0 0.15 0"/>
<feBlend mode="normal" in2="BackgroundImageFix" result="effect1_dropShadow_224_1447"/>
<feBlend mode="normal" in="SourceGraphic" in2="effect1_dropShadow_224_1447" result="shape"/>
</filter>
<filter id="filter1_d_224_1447" x="0.221245" y="32.3924" width="239.138" height="237.204" filterUnits="userSpaceOnUse" color-interpolation-filters="sRGB">
<feFlood flood-opacity="0" result="BackgroundImageFix"/>
<feColorMatrix in="SourceAlpha" type="matrix" values="0 0 0 0 0 0 0 0 0 0 0 0 0 0 0 0 0 0 127 0" result="hardAlpha"/>
<feOffset dy="2.8317"/>
<feGaussianBlur stdDeviation="10.6189"/>
<feComposite in2="hardAlpha" operator="out"/>
<feColorMatrix type="matrix" values="0 0 0 0 0 0 0 0 0 0 0 0 0 0 0 0 0 0 0.15 0"/>
<feBlend mode="normal" in2="BackgroundImageFix" result="effect1_dropShadow_224_1447"/>
<feBlend mode="normal" in="SourceGraphic" in2="effect1_dropShadow_224_1447" result="shape"/>
</filter>
<filter id="filter2_d_224_1447" x="5.66851" y="40.2544" width="228.241" height="223.288" filterUnits="userSpaceOnUse" color-interpolation-filters="sRGB">
<feFlood flood-opacity="0" result="BackgroundImageFix"/>
<feColorMatrix in="SourceAlpha" type="matrix" values="0 0 0 0 0 0 0 0 0 0 0 0 0 0 0 0 0 0 127 0" result="hardAlpha"/>
<feOffset dy="2.8317"/>
<feGaussianBlur stdDeviation="10.6189"/>
<feComposite in2="hardAlpha" operator="out"/>
<feColorMatrix type="matrix" values="0 0 0 0 0 0 0 0 0 0 0 0 0 0 0 0 0 0 0.15 0"/>
<feBlend mode="normal" in2="BackgroundImageFix" result="effect1_dropShadow_224_1447"/>
<feBlend mode="normal" in="SourceGraphic" in2="effect1_dropShadow_224_1447" result="shape"/>
</filter>
<filter id="filter3_d_224_1447" x="65.856" y="-0.00623035" width="107.993" height="107.352" filterUnits="userSpaceOnUse" color-interpolation-filters="sRGB">
<feFlood flood-opacity="0" result="BackgroundImageFix"/>
<feColorMatrix in="SourceAlpha" type="matrix" values="0 0 0 0 0 0 0 0 0 0 0 0 0 0 0 0 0 0 127 0" result="hardAlpha"/>
<feOffset dy="2.8317"/>
<feGaussianBlur stdDeviation="10.6189"/>
<feComposite in2="hardAlpha" operator="out"/>
<feColorMatrix type="matrix" values="0 0 0 0 0 0 0 0 0 0 0 0 0 0 0 0 0 0 0.15 0"/>
<feBlend mode="normal" in2="BackgroundImageFix" result="effect1_dropShadow_224_1447"/>
<feBlend mode="normal" in="SourceGraphic" in2="effect1_dropShadow_224_1447" result="shape"/>
</filter>
</defs>
</svg>
