<svg width="255" height="285" viewBox="0 0 255 285" fill="none" xmlns="http://www.w3.org/2000/svg">
<path d="M62.1088 208.612C61.883 208.613 61.6593 208.569 61.4508 208.483C61.2422 208.398 61.0528 208.272 60.8937 208.113L60.0916 207.321C59.7806 207 59.6092 206.571 59.614 206.126C59.6188 205.681 59.7995 205.255 60.1173 204.94C60.4352 204.626 60.8648 204.447 61.3143 204.442C61.7637 204.437 62.1972 204.607 62.5217 204.915L63.3238 205.707C63.5641 205.945 63.7277 206.248 63.794 206.578C63.8602 206.908 63.8262 207.25 63.6962 207.561C63.5661 207.872 63.3459 208.138 63.0634 208.325C62.7808 208.512 62.4486 208.612 62.1088 208.612ZM53.2975 199.887C53.0718 199.888 52.8483 199.844 52.6397 199.758C52.4312 199.672 52.2418 199.547 52.0825 199.388L51.2828 198.597C50.9605 198.278 50.7793 197.845 50.7791 197.394C50.7789 196.943 50.9596 196.511 51.2816 196.191C51.6035 195.872 52.0403 195.693 52.4958 195.693C52.9514 195.693 53.3883 195.872 53.7106 196.19L54.5127 196.985C54.7533 197.222 54.9172 197.525 54.9837 197.855C55.0501 198.185 55.0161 198.528 54.886 198.838C54.7559 199.149 54.5354 199.415 54.2526 199.602C53.9698 199.788 53.6374 199.888 53.2975 199.887ZM44.4936 191.163C44.0381 191.163 43.6011 190.984 43.2785 190.666L42.4788 189.872C42.3135 189.715 42.1816 189.527 42.0906 189.319C41.9997 189.112 41.9516 188.888 41.9491 188.661C41.9467 188.435 41.9899 188.21 42.0763 188C42.1628 187.79 42.2906 187.6 42.4524 187.44C42.6142 187.279 42.8067 187.153 43.0186 187.067C43.2304 186.982 43.4574 186.939 43.6862 186.941C43.9151 186.944 44.141 186.991 44.351 187.081C44.561 187.171 44.7506 187.302 44.9089 187.466L45.7087 188.26C45.9493 188.498 46.1132 188.801 46.1796 189.131C46.2461 189.461 46.2121 189.803 46.082 190.114C45.9518 190.425 45.7314 190.69 45.4486 190.877C45.1658 191.064 44.8334 191.163 44.4936 191.163ZM35.6824 182.44C35.2267 182.44 34.7897 182.26 34.4673 181.941L33.6676 181.147C33.3566 180.826 33.1852 180.397 33.19 179.952C33.1948 179.507 33.3755 179.081 33.6933 178.766C34.0112 178.452 34.4409 178.273 34.8903 178.268C35.3398 178.263 35.7732 178.433 36.0978 178.741L36.8975 179.535C37.1377 179.773 37.3013 180.076 37.3676 180.406C37.4339 180.736 37.3999 181.079 37.2698 181.389C37.1398 181.7 36.9196 181.966 36.637 182.153C36.3545 182.34 36.0223 182.44 35.6824 182.44ZM26.8712 173.715C26.6459 173.715 26.4228 173.671 26.2147 173.586C26.0066 173.5 25.8176 173.375 25.6585 173.217L24.8564 172.422C24.697 172.264 24.5706 172.077 24.4843 171.871C24.3981 171.664 24.3539 171.443 24.354 171.22C24.3541 170.996 24.3986 170.775 24.485 170.569C24.5715 170.363 24.6981 170.175 24.8576 170.017C25.0172 169.859 25.2066 169.734 25.415 169.649C25.6234 169.564 25.8468 169.52 26.0723 169.52C26.2979 169.52 26.5212 169.564 26.7296 169.65C26.9379 169.735 27.1272 169.861 27.2866 170.019L28.0863 170.81C28.3266 171.048 28.4902 171.352 28.5565 171.682C28.6227 172.012 28.5887 172.354 28.4587 172.665C28.3286 172.976 28.1084 173.241 27.8258 173.428C27.5433 173.615 27.2111 173.715 26.8712 173.715ZM18.0624 164.991C17.8366 164.991 17.6129 164.948 17.4043 164.862C17.1957 164.776 17.0064 164.651 16.8473 164.492L16.0453 163.7C15.7429 163.377 15.5786 162.951 15.5868 162.511C15.595 162.071 15.7751 161.651 16.0893 161.34C16.4035 161.028 16.8273 160.85 17.2718 160.841C17.7163 160.832 18.1468 160.995 18.473 161.294L19.2752 162.086C19.5154 162.324 19.679 162.627 19.7453 162.957C19.8115 163.287 19.7775 163.629 19.6475 163.94C19.5174 164.251 19.2972 164.517 19.0146 164.704C18.7321 164.891 18.3999 164.991 18.06 164.991H18.0624ZM10.0128 155.677C9.68031 155.677 9.35508 155.581 9.07638 155.401C8.79767 155.222 8.57737 154.966 8.44199 154.666C8.27249 154.285 8.11255 153.89 7.96455 153.498C7.82443 153.075 7.85721 152.615 8.05581 152.215C8.25442 151.816 8.60304 151.51 9.02701 151.362C9.45099 151.214 9.91657 151.237 10.324 151.425C10.7313 151.613 11.0481 151.952 11.2064 152.368C11.3162 152.675 11.4451 152.985 11.574 153.285C11.6901 153.544 11.739 153.828 11.7163 154.111C11.6936 154.393 11.5999 154.666 11.4439 154.903C11.2878 155.141 11.0744 155.336 10.8228 155.471C10.5712 155.607 10.2895 155.677 10.0032 155.677H10.0128ZM10.1632 143.717C9.90862 143.717 9.65734 143.66 9.42793 143.551C9.22401 143.456 9.04113 143.321 8.88982 143.155C8.73851 142.989 8.62169 142.796 8.54608 142.585C8.47047 142.374 8.43752 142.151 8.44915 141.928C8.46079 141.705 8.51676 141.486 8.61386 141.284C8.79529 140.909 8.99103 140.535 9.2011 140.173C9.31156 139.976 9.46065 139.802 9.63967 139.662C9.81869 139.522 10.0241 139.419 10.2438 139.358C10.4636 139.297 10.6933 139.281 10.9196 139.309C11.146 139.337 11.3644 139.41 11.5621 139.522C11.7598 139.635 11.933 139.785 12.0713 139.965C12.2097 140.145 12.3106 140.35 12.3682 140.568C12.4257 140.787 12.4388 141.014 12.4065 141.238C12.3743 141.462 12.2974 141.677 12.1803 141.871C12.0156 142.154 11.8605 142.45 11.7172 142.745C11.5771 143.037 11.3558 143.284 11.0793 143.456C10.8028 143.628 10.4825 143.718 10.156 143.717H10.1632ZM18.3179 134.477C17.978 134.477 17.6458 134.377 17.3632 134.19C17.0807 134.003 16.8605 133.737 16.7304 133.426C16.6004 133.115 16.5663 132.773 16.6326 132.443C16.6989 132.113 16.8625 131.81 17.1028 131.572L17.9049 130.777C18.0608 130.604 18.2507 130.465 18.4631 130.367C18.6754 130.269 18.9057 130.216 19.1398 130.209C19.3738 130.203 19.6067 130.244 19.8242 130.33C20.0417 130.416 20.2392 130.545 20.4045 130.709C20.5699 130.873 20.6996 131.069 20.7857 131.285C20.8718 131.5 20.9125 131.731 20.9053 131.963C20.8982 132.194 20.8433 132.422 20.744 132.632C20.6447 132.842 20.5031 133.03 20.3279 133.184L19.5258 133.978C19.3664 134.136 19.177 134.262 18.9685 134.347C18.76 134.433 18.5364 134.477 18.3107 134.477H18.3179ZM27.129 125.752C26.7892 125.752 26.457 125.652 26.1744 125.465C25.8919 125.278 25.6717 125.012 25.5416 124.701C25.4116 124.39 25.3775 124.048 25.4438 123.718C25.51 123.388 25.6737 123.085 25.9139 122.847L26.7161 122.055C26.8755 121.897 27.0647 121.772 27.273 121.686C27.4814 121.601 27.7047 121.556 27.9303 121.556C28.1558 121.556 28.3792 121.6 28.5876 121.685C28.7961 121.771 28.9855 121.896 29.145 122.054C29.3046 122.212 29.4312 122.399 29.5176 122.605C29.6041 122.812 29.6485 123.033 29.6487 123.256C29.6488 123.48 29.6045 123.701 29.5183 123.907C29.4321 124.113 29.3056 124.301 29.1462 124.459L28.3441 125.253C28.1837 125.412 27.9931 125.538 27.7834 125.624C27.5736 125.709 27.3488 125.753 27.1219 125.752H27.129ZM35.9402 117.027C35.6003 117.027 35.2681 116.927 34.9856 116.74C34.703 116.553 34.4828 116.287 34.3528 115.977C34.2227 115.666 34.1887 115.324 34.255 114.993C34.3213 114.663 34.4849 114.36 34.7251 114.122L35.5272 113.33C35.8518 113.022 36.2852 112.853 36.7347 112.857C37.1841 112.862 37.6138 113.041 37.9316 113.356C38.2494 113.671 38.4302 114.096 38.435 114.541C38.4398 114.986 38.2684 115.415 37.9574 115.737L37.1553 116.529C36.9951 116.688 36.8046 116.814 36.5947 116.899C36.3849 116.985 36.16 117.029 35.933 117.027H35.9402ZM44.7514 108.303C44.4115 108.302 44.0793 108.203 43.7967 108.016C43.5142 107.829 43.294 107.563 43.1639 107.252C43.0339 106.941 42.9999 106.599 43.0661 106.269C43.1324 105.939 43.296 105.635 43.5363 105.397L44.336 104.606C44.6606 104.298 45.094 104.128 45.5434 104.133C45.9929 104.137 46.4226 104.316 46.7404 104.631C47.0583 104.946 47.2389 105.371 47.2437 105.816C47.2486 106.261 47.0771 106.691 46.7662 107.012L45.9664 107.804C45.8063 107.963 45.6158 108.089 45.406 108.175C45.1961 108.26 44.9712 108.304 44.7442 108.303H44.7514ZM53.5649 99.5778C53.2256 99.5773 52.894 99.4772 52.6119 99.2903C52.3299 99.1034 52.11 98.838 51.9801 98.5276C51.8501 98.2172 51.8159 97.8756 51.8817 97.5459C51.9475 97.2163 52.1104 96.9133 52.3498 96.6751L53.1496 95.8809C53.3079 95.7173 53.4975 95.5866 53.7075 95.4966C53.9175 95.4065 54.1435 95.3589 54.3723 95.3564C54.6011 95.354 54.8281 95.3968 55.0399 95.4824C55.2518 95.568 55.4443 95.6946 55.6061 95.8548C55.7679 96.015 55.8957 96.2056 55.9822 96.4154C56.0686 96.6252 56.1118 96.8499 56.1094 97.0765C56.1069 97.3031 56.0588 97.5268 55.9679 97.7347C55.8769 97.9426 55.745 98.1305 55.5797 98.2872L54.7801 99.0791C54.6207 99.2374 54.4314 99.363 54.2228 99.4486C54.0143 99.5342 53.7907 99.5782 53.5649 99.5778ZM62.3761 90.8531C62.0362 90.8537 61.7038 90.7543 61.421 90.5676C61.1383 90.3809 60.9178 90.1152 60.7877 89.8043C60.6576 89.4934 60.6236 89.1513 60.69 88.8212C60.7565 88.4912 60.9204 88.1881 61.161 87.9504L61.4284 87.6833C61.7529 87.3754 62.1864 87.2057 62.6359 87.2104C63.0853 87.2152 63.515 87.3941 63.8328 87.7088C64.1506 88.0235 64.3313 88.449 64.3362 88.894C64.341 89.339 64.1695 89.7682 63.8586 90.0896L63.5888 90.3567C63.4285 90.5156 63.2379 90.6414 63.0281 90.7266C62.8182 90.8118 62.5934 90.8548 62.3666 90.8531H62.3761Z" fill="#B0B0B0"/>
<g filter="url(#filter0_d_224_1433)">
<path d="M119.745 260.31C117.546 260.313 115.367 259.887 113.334 259.054C111.302 258.222 109.455 257 107.9 255.46L60.4902 208.515L63.7297 205.307L111.142 252.252C113.425 254.51 116.519 255.778 119.745 255.778C122.972 255.778 126.066 254.51 128.349 252.252L224.868 156.68C227.149 154.419 228.43 151.355 228.43 148.159C228.43 144.964 227.149 141.9 224.868 139.639L128.349 44.0692C126.066 41.8116 122.972 40.5436 119.745 40.5436C116.519 40.5436 113.425 41.8116 111.142 44.0692L64.2573 90.4938L61.0154 87.2862L107.9 40.8615C109.455 39.3207 111.301 38.0983 113.334 37.2643C115.366 36.4304 117.544 36.0011 119.744 36.0011C121.944 36.0011 124.122 36.4304 126.155 37.2643C128.187 38.0983 130.033 39.3207 131.588 40.8615L228.11 136.434C231.251 139.544 233.016 143.763 233.016 148.162C233.016 152.561 231.251 156.779 228.11 159.89L131.588 255.462C130.034 257.003 128.188 258.224 126.155 259.056C124.123 259.888 121.945 260.314 119.745 260.31Z" fill="#B0B0B0"/>
</g>
<g filter="url(#filter1_d_224_1433)">
<path d="M109.089 241.154L25.8256 158.712C24.4264 157.327 23.3165 155.683 22.5592 153.873C21.8019 152.063 21.4121 150.123 21.4121 148.164C21.4121 146.205 21.8019 144.265 22.5592 142.455C23.3165 140.645 24.4264 139.001 25.8256 137.616L109.089 55.167C111.915 52.3698 115.747 50.7985 119.743 50.7985C123.739 50.7985 127.571 52.3698 130.397 55.167L213.661 137.616C215.06 139.001 216.17 140.645 216.927 142.455C217.684 144.265 218.074 146.205 218.074 148.164C218.074 150.123 217.684 152.063 216.927 153.873C216.17 155.683 215.06 157.327 213.661 158.712L130.397 241.159C128.998 242.544 127.337 243.643 125.508 244.392C123.68 245.142 121.721 245.527 119.742 245.527C117.763 245.526 115.804 245.14 113.976 244.39C112.148 243.639 110.488 242.54 109.089 241.154Z" fill="white"/>
</g>
<g filter="url(#filter2_d_224_1433)">
<path d="M105.723 233.722L32.6743 161.391C30.8315 159.568 29.3696 157.404 28.3722 155.022C27.3747 152.64 26.8613 150.087 26.8613 147.508C26.8613 144.929 27.3747 142.376 28.3722 139.994C29.3696 137.612 30.8315 135.448 32.6743 133.626L105.723 64.4118C107.564 62.5885 109.75 61.1421 112.156 60.1553C114.562 59.1685 117.14 58.6606 119.744 58.6606C122.348 58.6606 124.927 59.1685 127.332 60.1553C129.738 61.1421 131.924 62.5885 133.765 64.4118L206.814 133.626C208.657 135.448 210.118 137.612 211.116 139.994C212.113 142.376 212.627 144.929 212.627 147.508C212.627 150.087 212.113 152.64 211.116 155.022C210.118 157.404 208.657 159.568 206.814 161.391L133.765 233.722C131.924 235.546 129.738 236.992 127.332 237.979C124.927 238.966 122.348 239.474 119.744 239.474C117.14 239.474 114.562 238.966 112.156 237.979C109.75 236.992 107.564 235.546 105.723 233.722Z" fill="white"/>
</g>
<path d="M70.8096 149.968C67.5928 149.968 65.9844 148.582 65.9844 145.811C65.9844 144.516 66.377 143.452 67.1621 142.62C68.0117 141.724 69.1865 141.275 70.6865 141.275C73.3936 141.275 74.7471 142.655 74.7471 145.415V149.968H70.8096ZM72.4268 145.705C72.4268 144 71.7852 143.147 70.502 143.147C69.8398 143.147 69.3154 143.376 68.9287 143.833C68.5479 144.278 68.3574 144.858 68.3574 145.573C68.3574 147.255 69.2598 148.096 71.0645 148.096H72.4268V145.705ZM72.0137 140.142C71.6797 140.142 71.3984 140.022 71.1699 139.781C70.9414 139.547 70.8271 139.26 70.8271 138.92C70.8271 138.58 70.9414 138.29 71.1699 138.05C71.4043 137.81 71.6855 137.689 72.0137 137.689C72.3477 137.689 72.6289 137.81 72.8574 138.05C73.0859 138.284 73.2002 138.574 73.2002 138.92C73.2002 139.254 73.0859 139.541 72.8574 139.781C72.6289 140.022 72.3477 140.142 72.0137 140.142ZM69.0254 140.142C68.6914 140.142 68.4102 140.022 68.1816 139.781C67.9531 139.547 67.8389 139.26 67.8389 138.92C67.8389 138.58 67.9531 138.29 68.1816 138.05C68.416 137.81 68.6973 137.689 69.0254 137.689C69.3652 137.689 69.6523 137.81 69.8867 138.05C70.1152 138.284 70.2295 138.574 70.2295 138.92C70.2295 139.254 70.1152 139.541 69.8867 139.781C69.6523 140.022 69.3652 140.142 69.0254 140.142ZM76.8213 148.096H82.165C82.0596 145.43 80.6445 143.751 77.9199 143.06L78.4912 141.073C80.5068 141.606 81.9951 142.462 82.9561 143.64C83.9756 144.894 84.4854 146.607 84.4854 148.781V149.968H76.8213V148.096ZM86.208 148.096H91.5518C91.4463 145.43 90.0312 143.751 87.3066 143.06L87.8779 141.073C89.7822 141.577 91.2148 142.368 92.1758 143.446C93.1895 144.589 93.749 146.139 93.8545 148.096H95.0322V149.968H86.208V148.096ZM94.7686 148.096H101.738C101.797 147.615 101.826 147.158 101.826 146.725C101.826 145.553 101.562 144.691 101.035 144.141C100.473 143.561 99.5586 143.271 98.293 143.271C97.625 143.271 96.9365 143.32 96.2275 143.42V141.565C97.0713 141.454 97.8389 141.398 98.5303 141.398C100.517 141.398 101.964 141.841 102.872 142.726C103.745 143.569 104.182 144.873 104.182 146.637C104.182 147.147 104.158 147.633 104.111 148.096H105.518V149.968H94.7686V148.096ZM105.245 149.968V148.096H106.273C106.689 148.096 107.023 148.137 107.275 148.219C106.607 147.732 106.273 146.874 106.273 145.644C106.273 144.425 106.66 143.411 107.434 142.603C108.289 141.718 109.461 141.275 110.949 141.275C113.662 141.275 115.019 142.655 115.019 145.415V149.968H105.245ZM112.698 145.705C112.698 144 112.057 143.147 110.773 143.147C110.111 143.147 109.584 143.376 109.191 143.833C108.816 144.278 108.629 144.858 108.629 145.573C108.629 147.255 109.528 148.096 111.327 148.096H112.698V145.705ZM121.153 154.538C120.626 154.538 120.122 154.48 119.642 154.362L119.817 152.473C120.315 152.613 120.802 152.684 121.276 152.684C121.927 152.684 122.404 152.508 122.709 152.156C123.055 151.758 123.228 151.096 123.228 150.17V141.504H125.601V150.038C125.601 153.038 124.118 154.538 121.153 154.538ZM128.466 137.276H130.839V148.096H132.641V149.968H128.466V137.276ZM132.368 148.096H133.001C134.659 148.096 136.057 147.911 137.193 147.542C135.594 146.042 134.334 145.166 133.414 144.914L133.607 143.218C135.453 141.888 137.188 141.223 138.811 141.223C140.076 141.223 141.046 141.519 141.72 142.11C142.312 142.638 142.607 143.326 142.607 144.176C142.607 145.453 141.995 146.605 140.771 147.63C141.415 147.94 142.083 148.096 142.774 148.096H143.961V149.968H142.502C141.148 149.968 139.912 149.596 138.793 148.852C137.129 149.596 135.148 149.968 132.852 149.968H132.368V148.096ZM135.805 144.044C136.273 144.231 137.384 145.061 139.136 146.531C139.88 145.945 140.252 145.26 140.252 144.475C140.252 144.029 140.111 143.672 139.83 143.402C139.525 143.109 139.095 142.963 138.538 142.963C137.794 142.963 136.883 143.323 135.805 144.044ZM143.688 148.096H144.585C145.183 148.096 145.599 147.943 145.833 147.639C146.085 147.316 146.211 146.725 146.211 145.863V142.585H148.584V145.916C148.584 146.783 148.657 147.372 148.804 147.683C148.974 148.052 149.313 148.236 149.823 148.236C150.784 148.236 151.265 147.469 151.265 145.934V141.864H153.55V146.382C153.55 147.085 153.696 147.548 153.989 147.771C154.271 147.987 154.833 148.096 155.677 148.096H156.143C156.23 147.422 156.274 146.701 156.274 145.934C156.274 144.275 156.099 142.667 155.747 141.108L158.067 140.792C158.454 142.403 158.647 144.064 158.647 145.775C158.647 147.293 158.557 148.69 158.375 149.968H155.404C154.426 149.968 153.699 149.886 153.225 149.722C152.715 149.54 152.331 149.209 152.073 148.729C151.646 149.648 150.74 150.108 149.357 150.108C148.074 150.108 147.277 149.643 146.967 148.711C146.598 149.549 145.798 149.968 144.567 149.968H143.688V148.096ZM161.152 137.821H163.534V149.968H161.152V137.821ZM159.878 135.606C160.376 135.606 160.736 135.63 160.959 135.677C160.684 135.53 160.546 135.267 160.546 134.886C160.546 134.399 160.745 133.989 161.144 133.655C161.612 133.263 162.283 133.066 163.156 133.066C163.613 133.066 163.968 133.102 164.22 133.172L164 134.394C163.701 134.335 163.396 134.306 163.086 134.306C162.482 134.306 162.181 134.511 162.181 134.921C162.181 135.378 162.608 135.606 163.464 135.606H164.519V136.846H159.878V135.606Z" fill="#565656"/>
<g filter="url(#filter3_d_224_1433)">
<path d="M143.298 73.7751C156.092 61.1072 156.092 40.5685 143.298 27.9006C130.505 15.2327 109.763 15.2327 96.9693 27.9006C84.1758 40.5685 84.1758 61.1072 96.9692 73.7751C109.763 86.443 130.505 86.443 143.298 73.7751Z" fill="#B0B0B0"/>
</g>
<path d="M127.41 40.0669C128.122 39.1968 128.598 38.1564 128.79 37.0471L129.748 37.1768C129.325 39.1718 128.502 40.856 126.674 41.8903C126.512 41.982 126.394 41.9891 126.227 41.8713C126.126 41.801 126.011 41.7518 125.891 41.7268C125.77 41.7019 125.646 41.7015 125.525 41.7259C125.404 41.7503 125.289 41.7988 125.188 41.8686C125.086 41.9384 125 42.0281 124.933 42.1323C124.795 42.3401 124.745 42.5945 124.793 42.8396C124.841 43.0848 124.984 43.3007 125.191 43.4401C125.399 43.5769 125.652 43.6272 125.896 43.5804C126.141 43.5337 126.357 43.3935 126.5 43.1894C126.609 43.0445 126.748 42.9255 126.907 42.8407C127.62 42.4714 128.262 41.9792 128.805 41.3866C128.851 41.4941 128.868 41.608 128.933 41.6768C129.721 42.5081 130.512 43.3347 131.304 44.1565C132.155 45.0374 132.565 46.0867 132.565 47.3139C132.56 52.2353 132.56 57.1573 132.565 62.0798C132.565 63.6415 131.578 64.6307 130.021 64.6307H121.404C119.867 64.6307 118.876 63.6359 118.876 62.094C118.876 57.1615 118.876 52.2295 118.876 47.298C118.865 46.719 118.97 46.1437 119.185 45.606C119.399 45.0684 119.719 44.5793 120.125 44.1676C121.333 42.9087 122.569 41.6736 123.728 40.3721C124.818 39.1449 126.315 39.069 127.41 40.0669ZM125.485 50.2032V51.3102C124.118 51.5268 123.45 52.1863 123.468 53.2814C123.485 54.3339 124.177 54.9918 125.47 55.1641V57.0136C124.895 57.0666 124.595 56.816 124.367 56.1011H123.474C123.458 56.5126 123.591 56.9161 123.849 57.2366C124.252 57.768 124.811 57.9894 125.495 57.9957V59.1233H126.431V58.0218C127.787 57.8067 128.454 57.1576 128.448 56.079C128.443 55.0005 127.75 54.3457 126.445 54.167V52.3175C127.023 52.2669 127.317 52.5129 127.549 53.23H128.443C128.456 52.8088 128.315 52.3971 128.049 52.0716C127.645 51.5537 127.092 51.3426 126.42 51.3363V50.2032H125.485Z" fill="white"/>
<path d="M118.081 63.4343C117.6 63.1559 117.108 62.8729 116.617 62.5874C114.806 61.5331 112.994 60.4807 111.184 59.4301C109.816 58.6338 109.458 57.2951 110.246 55.9224C112.688 51.6741 115.128 47.425 117.568 43.1752C118.205 42.0626 119.116 41.336 120.355 41.0157C120.925 40.8679 121.489 40.6994 122.056 40.5365C122.127 40.5168 122.2 40.5065 122.336 40.478C122.228 40.5998 122.166 40.6733 122.1 40.7421C121.211 41.6662 120.323 42.5887 119.435 43.5097C118.439 44.5463 117.937 45.7846 117.932 47.226C117.932 52.1965 117.934 57.1673 117.938 62.1383C117.939 62.5676 118.031 62.9978 118.081 63.4343Z" fill="white"/>
<path d="M108.841 56.7567C108.203 56.132 107.491 55.5042 106.862 54.8012C106.069 53.9117 106.136 52.5738 106.941 51.6905C106.995 51.6328 107.05 51.5759 107.105 51.5205C110.562 48.0492 114.019 44.5761 117.475 41.1012C117.575 40.9828 117.666 40.8567 117.747 40.724L117.848 40.8189C117.803 40.898 117.758 40.9826 117.712 41.0632C114.961 45.8402 112.212 50.618 109.464 55.3966C109.212 55.8363 109.039 56.321 108.841 56.7567Z" fill="white"/>
<path d="M125.474 52.2993V54.1781C125.306 54.2062 125.132 54.1851 124.975 54.1173C124.818 54.0494 124.683 53.9377 124.588 53.7954C124.477 53.6549 124.412 53.4842 124.4 53.3058C124.389 53.1274 124.431 52.9496 124.522 52.7959C124.717 52.4314 125.039 52.2787 125.474 52.2993Z" fill="white"/>
<path d="M126.439 57.0279V55.1539C126.615 55.1261 126.795 55.1514 126.957 55.2264C127.118 55.3014 127.254 55.4229 127.347 55.5754C127.451 55.7208 127.508 55.8944 127.512 56.0734C127.515 56.2523 127.464 56.428 127.366 56.5772C127.161 56.9093 126.852 57.0675 126.439 57.0279Z" fill="white"/>
<defs>
<filter id="filter0_d_224_1433" x="39.2525" y="17.5951" width="215.001" height="266.785" filterUnits="userSpaceOnUse" color-interpolation-filters="sRGB">
<feFlood flood-opacity="0" result="BackgroundImageFix"/>
<feColorMatrix in="SourceAlpha" type="matrix" values="0 0 0 0 0 0 0 0 0 0 0 0 0 0 0 0 0 0 127 0" result="hardAlpha"/>
<feOffset dy="2.8317"/>
<feGaussianBlur stdDeviation="10.6189"/>
<feComposite in2="hardAlpha" operator="out"/>
<feColorMatrix type="matrix" values="0 0 0 0 0 0 0 0 0 0 0 0 0 0 0 0 0 0 0.15 0"/>
<feBlend mode="normal" in2="BackgroundImageFix" result="effect1_dropShadow_224_1433"/>
<feBlend mode="normal" in="SourceGraphic" in2="effect1_dropShadow_224_1433" result="shape"/>
</filter>
<filter id="filter1_d_224_1433" x="0.17437" y="32.3925" width="239.138" height="237.204" filterUnits="userSpaceOnUse" color-interpolation-filters="sRGB">
<feFlood flood-opacity="0" result="BackgroundImageFix"/>
<feColorMatrix in="SourceAlpha" type="matrix" values="0 0 0 0 0 0 0 0 0 0 0 0 0 0 0 0 0 0 127 0" result="hardAlpha"/>
<feOffset dy="2.8317"/>
<feGaussianBlur stdDeviation="10.6189"/>
<feComposite in2="hardAlpha" operator="out"/>
<feColorMatrix type="matrix" values="0 0 0 0 0 0 0 0 0 0 0 0 0 0 0 0 0 0 0.15 0"/>
<feBlend mode="normal" in2="BackgroundImageFix" result="effect1_dropShadow_224_1433"/>
<feBlend mode="normal" in="SourceGraphic" in2="effect1_dropShadow_224_1433" result="shape"/>
</filter>
<filter id="filter2_d_224_1433" x="5.62359" y="40.2546" width="228.241" height="223.288" filterUnits="userSpaceOnUse" color-interpolation-filters="sRGB">
<feFlood flood-opacity="0" result="BackgroundImageFix"/>
<feColorMatrix in="SourceAlpha" type="matrix" values="0 0 0 0 0 0 0 0 0 0 0 0 0 0 0 0 0 0 127 0" result="hardAlpha"/>
<feOffset dy="2.8317"/>
<feGaussianBlur stdDeviation="10.6189"/>
<feComposite in2="hardAlpha" operator="out"/>
<feColorMatrix type="matrix" values="0 0 0 0 0 0 0 0 0 0 0 0 0 0 0 0 0 0 0.15 0"/>
<feBlend mode="normal" in2="BackgroundImageFix" result="effect1_dropShadow_224_1433"/>
<feBlend mode="normal" in="SourceGraphic" in2="effect1_dropShadow_224_1433" result="shape"/>
</filter>
<filter id="filter3_d_224_1433" x="66.1373" y="-0.00635242" width="107.993" height="107.352" filterUnits="userSpaceOnUse" color-interpolation-filters="sRGB">
<feFlood flood-opacity="0" result="BackgroundImageFix"/>
<feColorMatrix in="SourceAlpha" type="matrix" values="0 0 0 0 0 0 0 0 0 0 0 0 0 0 0 0 0 0 127 0" result="hardAlpha"/>
<feOffset dy="2.8317"/>
<feGaussianBlur stdDeviation="10.6189"/>
<feComposite in2="hardAlpha" operator="out"/>
<feColorMatrix type="matrix" values="0 0 0 0 0 0 0 0 0 0 0 0 0 0 0 0 0 0 0.15 0"/>
<feBlend mode="normal" in2="BackgroundImageFix" result="effect1_dropShadow_224_1433"/>
<feBlend mode="normal" in="SourceGraphic" in2="effect1_dropShadow_224_1433" result="shape"/>
</filter>
</defs>
</svg>
