<svg width="255" height="285" viewBox="0 0 255 285" fill="none" xmlns="http://www.w3.org/2000/svg">
<path d="M62.1381 208.648C61.9123 208.649 61.6886 208.605 61.4801 208.52C61.2715 208.434 61.0821 208.308 60.9229 208.15L60.1209 207.358C59.8099 207.036 59.6385 206.607 59.6433 206.162C59.6481 205.717 59.8288 205.292 60.1466 204.977C60.4645 204.662 60.8941 204.483 61.3436 204.479C61.793 204.474 62.2265 204.644 62.551 204.951L63.3531 205.743C63.5934 205.981 63.757 206.285 63.8233 206.615C63.8895 206.945 63.8555 207.287 63.7255 207.598C63.5954 207.909 63.3752 208.174 63.0926 208.361C62.8101 208.548 62.4779 208.648 62.1381 208.648ZM53.3268 199.924C53.1011 199.924 52.8776 199.88 52.669 199.795C52.4605 199.709 52.2711 199.583 52.1118 199.425L51.3121 198.633C50.9898 198.314 50.8086 197.882 50.8084 197.431C50.8082 196.98 50.9889 196.547 51.3109 196.228C51.6328 195.909 52.0696 195.729 52.5251 195.729C52.9806 195.729 53.4176 195.908 53.7399 196.227L54.542 197.021C54.7826 197.259 54.9465 197.562 55.013 197.892C55.0794 198.222 55.0454 198.564 54.9153 198.875C54.7852 199.186 54.5647 199.451 54.2819 199.638C53.9991 199.825 53.6667 199.924 53.3268 199.924ZM44.5229 191.199C44.0674 191.199 43.6304 191.021 43.3078 190.703L42.5081 189.908C42.3428 189.752 42.2109 189.564 42.1199 189.356C42.029 189.148 41.9809 188.924 41.9784 188.698C41.976 188.471 42.0192 188.246 42.1056 188.037C42.1921 187.827 42.3199 187.636 42.4817 187.476C42.6435 187.316 42.836 187.189 43.0479 187.104C43.2597 187.018 43.4867 186.975 43.7155 186.978C43.9443 186.98 44.1703 187.028 44.3803 187.118C44.5903 187.208 44.7799 187.338 44.9382 187.502L45.738 188.296C45.9786 188.534 46.1425 188.837 46.2089 189.167C46.2754 189.497 46.2414 189.839 46.1113 190.15C45.9811 190.461 45.7607 190.727 45.4779 190.913C45.1951 191.1 44.8627 191.2 44.5229 191.199ZM35.7117 182.477C35.256 182.476 34.819 182.297 34.4966 181.978L33.6969 181.184C33.3859 180.862 33.2145 180.433 33.2193 179.988C33.2241 179.543 33.4048 179.118 33.7226 178.803C34.0404 178.488 34.4702 178.309 34.9196 178.304C35.3691 178.3 35.8025 178.469 36.1271 178.777L36.9268 179.572C37.167 179.81 37.3306 180.113 37.3969 180.443C37.4632 180.773 37.4292 181.115 37.2991 181.426C37.1691 181.737 36.9488 182.003 36.6663 182.19C36.3837 182.377 36.0516 182.477 35.7117 182.477ZM26.9005 173.752C26.6752 173.752 26.4521 173.708 26.244 173.622C26.0359 173.537 25.8469 173.411 25.6878 173.253L24.8857 172.459C24.7263 172.301 24.5999 172.113 24.5136 171.907C24.4274 171.701 24.3832 171.479 24.3833 171.256C24.3834 171.033 24.4279 170.812 24.5143 170.605C24.6008 170.399 24.7274 170.212 24.8869 170.054C25.0465 169.896 25.2359 169.771 25.4443 169.685C25.6527 169.6 25.8761 169.556 26.1016 169.556C26.3272 169.556 26.5505 169.6 26.7589 169.686C26.9672 169.772 27.1565 169.897 27.3159 170.055L28.1156 170.847C28.3559 171.085 28.5195 171.388 28.5858 171.718C28.652 172.048 28.618 172.39 28.488 172.701C28.3579 173.012 28.1377 173.278 27.8551 173.465C27.5726 173.652 27.2404 173.752 26.9005 173.752ZM18.0917 165.027C17.8659 165.028 17.6422 164.984 17.4336 164.899C17.225 164.813 17.0357 164.687 16.8766 164.528L16.0746 163.737C15.7722 163.414 15.6079 162.988 15.6161 162.548C15.6243 162.107 15.8044 161.688 16.1186 161.376C16.4328 161.065 16.8566 160.886 17.3011 160.877C17.7456 160.869 18.1761 161.031 18.5023 161.33L19.3045 162.122C19.5447 162.36 19.7083 162.663 19.7745 162.993C19.8408 163.323 19.8068 163.666 19.6768 163.977C19.5467 164.287 19.3265 164.553 19.0439 164.74C18.7614 164.927 18.4292 165.027 18.0893 165.027H18.0917ZM10.0421 155.714C9.70961 155.713 9.38438 155.617 9.10568 155.438C8.82697 155.258 8.60667 155.003 8.47128 154.702C8.30179 154.322 8.14185 153.927 7.99384 153.535C7.85373 153.112 7.88651 152.651 8.08511 152.252C8.28371 151.853 8.63234 151.546 9.05631 151.399C9.48029 151.251 9.94587 151.273 10.3532 151.461C10.7606 151.649 11.0774 151.988 11.2357 152.405C11.3455 152.712 11.4744 153.022 11.6033 153.322C11.7194 153.581 11.7683 153.865 11.7456 154.147C11.7229 154.43 11.6292 154.702 11.4732 154.94C11.3171 155.177 11.1037 155.373 10.8521 155.508C10.6005 155.643 10.3188 155.714 10.0325 155.714H10.0421ZM10.1924 143.753C9.93791 143.753 9.68663 143.697 9.45723 143.588C9.25331 143.492 9.07043 143.357 8.91912 143.192C8.7678 143.026 8.65098 142.832 8.57537 142.621C8.49976 142.411 8.46682 142.188 8.47845 141.964C8.49008 141.741 8.54606 141.523 8.64315 141.321C8.82458 140.945 9.02032 140.572 9.2304 140.21C9.34086 140.012 9.48995 139.838 9.66897 139.698C9.84798 139.558 10.0534 139.455 10.2731 139.394C10.4929 139.334 10.7226 139.317 10.9489 139.345C11.1753 139.374 11.3936 139.446 11.5914 139.559C11.7891 139.671 11.9622 139.822 12.1006 140.001C12.239 140.181 12.3399 140.386 12.3975 140.605C12.455 140.823 12.4681 141.051 12.4358 141.275C12.4036 141.498 12.3267 141.713 12.2096 141.907C12.0449 142.191 11.8898 142.486 11.7465 142.782C11.6064 143.074 11.3851 143.32 11.1086 143.492C10.8321 143.664 10.5118 143.755 10.1853 143.753H10.1924ZM18.3472 134.513C18.0073 134.513 17.6751 134.413 17.3925 134.226C17.11 134.039 16.8898 133.773 16.7597 133.462C16.6297 133.152 16.5956 132.809 16.6619 132.479C16.7282 132.149 16.8918 131.846 17.1321 131.608L17.9342 130.814C18.0901 130.641 18.28 130.501 18.4924 130.403C18.7047 130.306 18.935 130.252 19.1691 130.246C19.4031 130.239 19.636 130.28 19.8535 130.366C20.071 130.452 20.2685 130.581 20.4338 130.745C20.5992 130.909 20.7289 131.105 20.815 131.321C20.9011 131.537 20.9418 131.767 20.9346 131.999C20.9275 132.231 20.8726 132.459 20.7733 132.669C20.674 132.879 20.5324 133.066 20.3572 133.22L19.5551 134.014C19.3957 134.173 19.2063 134.298 18.9978 134.384C18.7893 134.469 18.5657 134.513 18.34 134.513H18.3472ZM27.1583 125.788C26.8185 125.788 26.4863 125.688 26.2037 125.501C25.9212 125.314 25.701 125.049 25.5709 124.738C25.4409 124.427 25.4068 124.085 25.4731 123.755C25.5393 123.425 25.703 123.121 25.9432 122.883L26.7453 122.091C26.9048 121.933 27.094 121.808 27.3023 121.723C27.5107 121.637 27.734 121.593 27.9596 121.593C28.1851 121.593 28.4085 121.637 28.6169 121.722C28.8254 121.807 29.0148 121.932 29.1743 122.09C29.3339 122.248 29.4605 122.436 29.5469 122.642C29.6334 122.848 29.6778 123.069 29.678 123.293C29.6781 123.516 29.6338 123.737 29.5476 123.944C29.4614 124.15 29.3349 124.337 29.1755 124.495L28.3734 125.29C28.213 125.449 28.0224 125.574 27.8127 125.66C27.6029 125.746 27.3781 125.789 27.1512 125.788H27.1583ZM35.9695 117.064C35.6296 117.064 35.2974 116.964 35.0149 116.777C34.7323 116.59 34.5121 116.324 34.3821 116.013C34.252 115.702 34.218 115.36 34.2843 115.03C34.3506 114.7 34.5142 114.397 34.7544 114.159L35.5565 113.367C35.8811 113.059 36.3145 112.889 36.764 112.894C37.2134 112.899 37.6431 113.078 37.9609 113.392C38.2787 113.707 38.4595 114.132 38.4643 114.577C38.4691 115.023 38.2977 115.452 37.9867 115.773L37.1846 116.565C37.0244 116.724 36.8339 116.85 36.624 116.936C36.4142 117.022 36.1893 117.065 35.9623 117.064H35.9695ZM44.7807 108.339C44.4408 108.339 44.1086 108.239 43.826 108.052C43.5435 107.865 43.3233 107.599 43.1932 107.288C43.0632 106.977 43.0292 106.635 43.0954 106.305C43.1617 105.975 43.3253 105.672 43.5656 105.434L44.3653 104.642C44.6899 104.334 45.1233 104.164 45.5727 104.169C46.0222 104.174 46.4519 104.353 46.7697 104.668C47.0875 104.982 47.2682 105.408 47.273 105.853C47.2779 106.298 47.1064 106.727 46.7955 107.048L45.9957 107.84C45.8356 107.999 45.6451 108.126 45.4353 108.211C45.2254 108.297 45.0005 108.34 44.7735 108.339H44.7807ZM53.5942 99.6143C53.2549 99.6137 52.9233 99.5137 52.6412 99.3268C52.3592 99.1399 52.1393 98.8745 52.0094 98.564C51.8794 98.2536 51.8452 97.912 51.911 97.5824C51.9768 97.2527 52.1397 96.9497 52.3791 96.7116L53.1789 95.9173C53.3372 95.7537 53.5268 95.6231 53.7368 95.533C53.9468 95.443 54.1728 95.3953 54.4016 95.3929C54.6304 95.3905 54.8574 95.4333 55.0692 95.5189C55.2811 95.6045 55.4736 95.7311 55.6354 95.8913C55.7972 96.0515 55.925 96.2421 56.0115 96.4519C56.0979 96.6616 56.1411 96.8864 56.1387 97.113C56.1362 97.3395 56.0881 97.5633 55.9972 97.7712C55.9062 97.9791 55.7743 98.1669 55.609 98.3237L54.8093 99.1155C54.65 99.2739 54.4607 99.3995 54.2521 99.4851C54.0436 99.5707 53.82 99.6146 53.5942 99.6143ZM62.4054 90.8896C62.0655 90.8901 61.7331 90.7908 61.4503 90.604C61.1676 90.4173 60.9471 90.1517 60.817 89.8408C60.6868 89.5299 60.6529 89.1877 60.7193 88.8577C60.7858 88.5276 60.9497 88.2246 61.1903 87.9869L61.4577 87.7198C61.7822 87.4119 62.2157 87.2421 62.6652 87.2469C63.1146 87.2517 63.5443 87.4306 63.8621 87.7453C64.1799 88.06 64.3606 88.4854 64.3655 88.9305C64.3703 89.3755 64.1988 89.8047 63.8879 90.1261L63.6181 90.3932C63.4578 90.5521 63.2672 90.6778 63.0574 90.763C62.8475 90.8483 62.6227 90.8913 62.3959 90.8896H62.4054Z" fill="#3A5A85"/>
<g filter="url(#filter0_d_224_1471)">
<path d="M119.775 260.347C117.575 260.35 115.396 259.923 113.364 259.091C111.331 258.259 109.484 257.037 107.929 255.496L60.5195 208.552L63.759 205.344L111.171 252.289C113.454 254.546 116.548 255.814 119.775 255.814C123.001 255.814 126.095 254.546 128.378 252.289L224.898 156.716C227.178 154.456 228.459 151.391 228.459 148.196C228.459 145.001 227.178 141.936 224.898 139.676L128.378 44.1058C126.095 41.8482 123.001 40.5802 119.775 40.5802C116.548 40.5802 113.454 41.8482 111.171 44.1058L64.2865 90.5305L61.0447 87.3228L107.929 40.8981C109.484 39.3573 111.331 38.1349 113.363 37.301C115.395 36.467 117.574 36.0377 119.774 36.0377C121.973 36.0377 124.152 36.467 126.184 37.301C128.216 38.1349 130.063 39.3573 131.618 40.8981L228.14 136.471C231.281 139.581 233.045 143.8 233.045 148.198C233.045 152.597 231.281 156.816 228.14 159.926L131.618 255.499C130.063 257.039 128.217 258.261 126.185 259.093C124.152 259.925 121.974 260.351 119.775 260.347Z" fill="#3A5A85"/>
</g>
<g filter="url(#filter1_d_224_1471)">
<path d="M109.12 241.191L25.8569 158.749C24.4577 157.364 23.3477 155.719 22.5905 153.909C21.8332 152.1 21.4434 150.16 21.4434 148.201C21.4434 146.241 21.8332 144.302 22.5905 142.492C23.3477 140.682 24.4577 139.037 25.8569 137.652L109.12 55.2035C111.946 52.4064 115.779 50.8351 119.774 50.8351C123.77 50.8351 127.602 52.4064 130.428 55.2035L213.692 137.652C215.091 139.037 216.201 140.682 216.958 142.492C217.715 144.302 218.105 146.241 218.105 148.201C218.105 150.16 217.715 152.1 216.958 153.909C216.201 155.719 215.091 157.364 213.692 158.749L130.428 241.195C129.029 242.58 127.368 243.679 125.54 244.429C123.711 245.178 121.752 245.564 119.773 245.563C117.795 245.563 115.835 245.176 114.008 244.426C112.18 243.676 110.519 242.576 109.12 241.191Z" fill="white"/>
</g>
<g filter="url(#filter2_d_224_1471)">
<path d="M105.777 233.759L32.7289 161.427C30.8862 159.605 29.4243 157.441 28.4268 155.059C27.4294 152.677 26.916 150.123 26.916 147.545C26.916 144.966 27.4294 142.413 28.4268 140.03C29.4243 137.648 30.8862 135.484 32.7289 133.662L105.777 64.4483C107.619 62.625 109.805 61.1786 112.21 60.1918C114.616 59.205 117.195 58.6971 119.799 58.6971C122.403 58.6971 124.981 59.205 127.387 60.1918C129.793 61.1786 131.979 62.625 133.82 64.4483L206.868 133.662C208.711 135.484 210.173 137.648 211.17 140.03C212.168 142.413 212.681 144.966 212.681 147.545C212.681 150.123 212.168 152.677 211.17 155.059C210.173 157.441 208.711 159.605 206.868 161.427L133.82 233.759C131.979 235.582 129.793 237.029 127.387 238.015C124.981 239.002 122.403 239.51 119.799 239.51C117.195 239.51 114.616 239.002 112.21 238.015C109.805 237.029 107.619 235.582 105.777 233.759Z" fill="white"/>
</g>
<path d="M83.666 149.77C80.4492 149.77 78.8408 148.378 78.8408 145.595C78.8408 144.318 79.2217 143.269 79.9834 142.449C80.8389 141.535 82.0488 141.078 83.6133 141.078C85.0254 141.078 86.2793 141.286 87.375 141.702V147.898H89.1328V149.77H83.666ZM85.0723 143.275C84.6152 143.058 84.0439 142.95 83.3584 142.95C82.6963 142.95 82.1719 143.178 81.7852 143.635C81.4043 144.081 81.2139 144.661 81.2139 145.375C81.2139 147.057 82.1162 147.898 83.9209 147.898H85.0723V143.275ZM84.8701 139.944C84.5361 139.944 84.2549 139.824 84.0264 139.583C83.7979 139.349 83.6836 139.062 83.6836 138.722C83.6836 138.382 83.7979 138.092 84.0264 137.852C84.2607 137.612 84.542 137.492 84.8701 137.492C85.2041 137.492 85.4854 137.612 85.7139 137.852C85.9424 138.086 86.0566 138.376 86.0566 138.722C86.0566 139.056 85.9424 139.343 85.7139 139.583C85.4854 139.824 85.2041 139.944 84.8701 139.944ZM81.8818 139.944C81.5479 139.944 81.2666 139.824 81.0381 139.583C80.8096 139.349 80.6953 139.062 80.6953 138.722C80.6953 138.382 80.8096 138.092 81.0381 137.852C81.2725 137.612 81.5537 137.492 81.8818 137.492C82.2217 137.492 82.5088 137.612 82.7432 137.852C82.9717 138.086 83.0859 138.376 83.0859 138.722C83.0859 139.056 82.9717 139.343 82.7432 139.583C82.5088 139.824 82.2217 139.944 81.8818 139.944ZM88.8691 147.898H91.3916V141.306H93.7646V147.898H96.2168V149.77H88.8691V147.898ZM91.6025 152.468C91.6025 152.808 91.4883 153.095 91.2598 153.33C91.0254 153.57 90.7383 153.69 90.3984 153.69C90.0645 153.69 89.7832 153.573 89.5547 153.338C89.3262 153.104 89.2119 152.814 89.2119 152.468C89.2119 152.134 89.3262 151.847 89.5547 151.607C89.7891 151.367 90.0703 151.247 90.3984 151.247C90.7383 151.247 91.0254 151.364 91.2598 151.598C91.4883 151.838 91.6025 152.128 91.6025 152.468ZM94.5732 152.468C94.5732 152.802 94.459 153.089 94.2305 153.33C93.9961 153.57 93.7148 153.69 93.3867 153.69C93.0527 153.69 92.7715 153.573 92.543 153.338C92.3145 153.104 92.2002 152.814 92.2002 152.468C92.2002 152.134 92.3145 151.847 92.543 151.607C92.7773 151.367 93.0586 151.247 93.3867 151.247C93.7207 151.247 94.002 151.364 94.2305 151.598C94.459 151.838 94.5732 152.128 94.5732 152.468ZM102.747 149.77C100.808 149.77 99.4629 149.301 98.7129 148.364C98.3496 149.301 97.3975 149.77 95.8564 149.77H95.584V147.898C96.2871 147.898 96.8057 147.725 97.1396 147.379C97.5088 146.999 97.6934 146.354 97.6934 145.446C97.6934 144.227 98.0801 143.213 98.8535 142.405C99.709 141.52 100.881 141.078 102.369 141.078C105.082 141.078 106.438 142.458 106.438 145.217V147.898H107.95V149.77H102.747ZM104.118 145.507C104.118 143.802 103.477 142.95 102.193 142.95C101.531 142.95 101.004 143.178 100.611 143.635C100.236 144.081 100.049 144.661 100.049 145.375C100.049 147.057 100.948 147.898 102.747 147.898H104.118V145.507ZM107.678 149.77V147.898H108.706C109.122 147.898 109.456 147.939 109.708 148.021C109.04 147.535 108.706 146.676 108.706 145.446C108.706 144.227 109.093 143.213 109.866 142.405C110.722 141.52 111.894 141.078 113.382 141.078C116.095 141.078 117.451 142.458 117.451 145.217V149.77H107.678ZM115.131 145.507C115.131 143.802 114.489 142.95 113.206 142.95C112.544 142.95 112.017 143.178 111.624 143.635C111.249 144.081 111.062 144.661 111.062 145.375C111.062 147.057 111.961 147.898 113.76 147.898H115.131V145.507ZM114.647 139.944C114.313 139.944 114.032 139.824 113.804 139.583C113.569 139.349 113.452 139.062 113.452 138.722C113.452 138.382 113.569 138.092 113.804 137.852C114.032 137.612 114.313 137.492 114.647 137.492C114.976 137.492 115.257 137.612 115.491 137.852C115.72 138.086 115.834 138.376 115.834 138.722C115.834 139.056 115.72 139.343 115.491 139.583C115.257 139.824 114.976 139.944 114.647 139.944ZM111.659 139.944C111.325 139.944 111.044 139.824 110.815 139.583C110.581 139.349 110.464 139.062 110.464 138.722C110.464 138.382 110.581 138.092 110.815 137.852C111.044 137.612 111.325 137.492 111.659 137.492C111.999 137.492 112.283 137.612 112.512 137.852C112.746 138.086 112.863 138.376 112.863 138.722C112.863 139.056 112.746 139.343 112.512 139.583C112.277 139.824 111.993 139.944 111.659 139.944ZM118.664 154.34C118.137 154.34 117.633 154.282 117.152 154.165L117.328 152.275C117.826 152.416 118.312 152.486 118.787 152.486C119.438 152.486 119.915 152.31 120.22 151.958C120.565 151.56 120.738 150.898 120.738 149.972V141.306H123.111V149.84C123.111 152.84 121.629 154.34 118.664 154.34ZM133.465 149.77C130.248 149.77 128.64 148.378 128.64 145.595C128.64 144.318 129.021 143.269 129.782 142.449C130.638 141.535 131.848 141.078 133.412 141.078C134.824 141.078 136.078 141.286 137.174 141.702V147.898H138.932V149.77H133.465ZM134.871 143.275C134.414 143.058 133.843 142.95 133.157 142.95C132.495 142.95 131.971 143.178 131.584 143.635C131.203 144.081 131.013 144.661 131.013 145.375C131.013 147.057 131.915 147.898 133.72 147.898H134.871V143.275ZM134.669 139.944C134.335 139.944 134.054 139.824 133.825 139.583C133.597 139.349 133.482 139.062 133.482 138.722C133.482 138.382 133.597 138.092 133.825 137.852C134.06 137.612 134.341 137.492 134.669 137.492C135.003 137.492 135.284 137.612 135.513 137.852C135.741 138.086 135.855 138.376 135.855 138.722C135.855 139.056 135.741 139.343 135.513 139.583C135.284 139.824 135.003 139.944 134.669 139.944ZM131.681 139.944C131.347 139.944 131.065 139.824 130.837 139.583C130.608 139.349 130.494 139.062 130.494 138.722C130.494 138.382 130.608 138.092 130.837 137.852C131.071 137.612 131.353 137.492 131.681 137.492C132.021 137.492 132.308 137.612 132.542 137.852C132.771 138.086 132.885 138.376 132.885 138.722C132.885 139.056 132.771 139.343 132.542 139.583C132.308 139.824 132.021 139.944 131.681 139.944ZM138.668 147.898H141.076V141.306H143.458V141.763C143.458 142.771 143.385 143.659 143.238 144.426H143.273C143.66 143.366 144.284 142.534 145.146 141.93C145.954 141.362 146.848 141.078 147.826 141.078C149.062 141.078 150.009 141.441 150.665 142.167C151.31 142.876 151.632 143.875 151.632 145.165C151.632 146.266 151.371 147.177 150.85 147.898H152.748V149.77H138.668V147.898ZM146.332 147.898C148.23 147.898 149.18 147.034 149.18 145.305C149.18 143.747 148.567 142.967 147.343 142.967C146.405 142.967 145.556 143.471 144.794 144.479C144.073 145.434 143.616 146.574 143.423 147.898H146.332ZM152.361 147.898H154.884V141.306H157.257V147.898H159.023V149.77H152.361V147.898ZM156.07 139.794C155.725 139.794 155.432 139.677 155.191 139.443C154.951 139.203 154.831 138.907 154.831 138.555C154.831 138.215 154.951 137.922 155.191 137.676C155.438 137.436 155.73 137.316 156.07 137.316C156.41 137.316 156.703 137.436 156.949 137.676C157.189 137.922 157.31 138.215 157.31 138.555C157.31 138.895 157.189 139.188 156.949 139.434C156.703 139.674 156.41 139.794 156.07 139.794ZM158.76 149.77V147.898H159.788C160.204 147.898 160.538 147.939 160.79 148.021C160.122 147.535 159.788 146.676 159.788 145.446C159.788 144.227 160.175 143.213 160.948 142.405C161.804 141.52 162.976 141.078 164.464 141.078C167.177 141.078 168.533 142.458 168.533 145.217V149.77H158.76ZM166.213 145.507C166.213 143.802 165.571 142.95 164.288 142.95C163.626 142.95 163.099 143.178 162.706 143.635C162.331 144.081 162.144 144.661 162.144 145.375C162.144 147.057 163.043 147.898 164.842 147.898H166.213V145.507Z" fill="#565656"/>
<g filter="url(#filter3_d_224_1471)">
<path d="M142.837 73.8116C155.631 61.1437 155.631 40.605 142.837 27.9371C130.044 15.2692 109.302 15.2692 96.5083 27.9371C83.7149 40.605 83.7149 61.1437 96.5083 73.8116C109.302 86.4795 130.044 86.4795 142.837 73.8116Z" fill="#3A5A85"/>
</g>
<path d="M134.357 60.4897C134.325 60.5772 134.292 60.6647 134.26 60.753C134.02 61.4318 133.401 61.8964 132.675 61.8995C130.347 61.908 128.019 61.908 125.691 61.8995C125.243 61.8957 124.815 61.7182 124.5 61.4058C124.185 61.0934 124.008 60.6714 124.009 60.2318C124.002 55.6896 124.002 51.1472 124.009 46.6045C124.009 46.1647 124.186 45.7428 124.502 45.4309C124.818 45.119 125.247 44.9425 125.694 44.9399C128.022 44.9288 130.351 44.9288 132.679 44.9399C133.027 44.9446 133.365 45.0546 133.647 45.2549C133.929 45.4553 134.141 45.7361 134.254 46.0592C134.29 46.1557 134.325 46.253 134.36 46.3503L134.357 60.4897ZM129.182 59.3583C129.46 59.3583 129.737 59.3629 130.014 59.3583C130.525 59.3485 130.902 58.9895 130.905 58.5158C130.908 58.0422 130.532 57.6711 130.025 57.6643C129.461 57.6567 128.897 57.6567 128.334 57.6643C128.219 57.6603 128.104 57.679 127.996 57.7194C127.888 57.7598 127.79 57.821 127.707 57.8995C127.623 57.9779 127.557 58.072 127.511 58.1761C127.466 58.2802 127.442 58.3922 127.441 58.5055C127.44 58.6188 127.463 58.7311 127.507 58.8358C127.551 58.9404 127.616 59.0353 127.699 59.1147C127.781 59.1942 127.879 59.2566 127.986 59.2983C128.093 59.34 128.208 59.3602 128.324 59.3576C128.609 59.3636 128.896 59.3576 129.182 59.3576V59.3583ZM130.042 48.3265C130.042 48.1591 129.991 47.9956 129.895 47.8567C129.8 47.7178 129.665 47.6098 129.507 47.5463C129.349 47.4829 129.176 47.4669 129.009 47.5003C128.842 47.5337 128.689 47.6151 128.569 47.7341C128.449 47.8532 128.368 48.0045 128.335 48.1689C128.303 48.3332 128.321 48.5033 128.387 48.6576C128.454 48.8118 128.565 48.9433 128.708 49.0353C128.85 49.1273 129.017 49.1756 129.188 49.1743C129.415 49.1702 129.631 49.0793 129.791 48.9209C129.95 48.7625 130.04 48.5493 130.042 48.3265Z" fill="white"/>
<path d="M122.284 56.8H106.645V56.4847C106.645 51.838 106.645 47.1912 106.645 42.5444C106.645 40.9152 107.741 39.8419 109.405 39.8419H129.87C131.551 39.8419 132.635 40.9107 132.635 42.5678V43.2361H132.297C130.151 43.2361 128.005 43.2361 125.858 43.2361C123.784 43.2361 122.285 44.7099 122.284 46.7449C122.284 49.9782 122.284 53.2115 122.284 56.4447L122.284 56.8Z" fill="white"/>
<path d="M122.269 58.5098C122.337 59.6668 122.078 60.8246 122.77 61.9039H106.759C105.633 61.9039 104.915 61.1927 104.915 60.0809C104.915 59.8358 104.908 59.5906 104.915 59.3462C104.919 59.1268 105.009 58.9172 105.166 58.7615C105.324 58.6058 105.537 58.5161 105.76 58.5113C105.827 58.5113 105.895 58.5113 105.962 58.5113H122.272L122.269 58.5098Z" fill="white"/>
<defs>
<filter id="filter0_d_224_1471" x="39.2818" y="17.6317" width="215.001" height="266.785" filterUnits="userSpaceOnUse" color-interpolation-filters="sRGB">
<feFlood flood-opacity="0" result="BackgroundImageFix"/>
<feColorMatrix in="SourceAlpha" type="matrix" values="0 0 0 0 0 0 0 0 0 0 0 0 0 0 0 0 0 0 127 0" result="hardAlpha"/>
<feOffset dy="2.8317"/>
<feGaussianBlur stdDeviation="10.6189"/>
<feComposite in2="hardAlpha" operator="out"/>
<feColorMatrix type="matrix" values="0 0 0 0 0 0 0 0 0 0 0 0 0 0 0 0 0 0 0.15 0"/>
<feBlend mode="normal" in2="BackgroundImageFix" result="effect1_dropShadow_224_1471"/>
<feBlend mode="normal" in="SourceGraphic" in2="effect1_dropShadow_224_1471" result="shape"/>
</filter>
<filter id="filter1_d_224_1471" x="0.20562" y="32.429" width="239.138" height="237.204" filterUnits="userSpaceOnUse" color-interpolation-filters="sRGB">
<feFlood flood-opacity="0" result="BackgroundImageFix"/>
<feColorMatrix in="SourceAlpha" type="matrix" values="0 0 0 0 0 0 0 0 0 0 0 0 0 0 0 0 0 0 127 0" result="hardAlpha"/>
<feOffset dy="2.8317"/>
<feGaussianBlur stdDeviation="10.6189"/>
<feComposite in2="hardAlpha" operator="out"/>
<feColorMatrix type="matrix" values="0 0 0 0 0 0 0 0 0 0 0 0 0 0 0 0 0 0 0.15 0"/>
<feBlend mode="normal" in2="BackgroundImageFix" result="effect1_dropShadow_224_1471"/>
<feBlend mode="normal" in="SourceGraphic" in2="effect1_dropShadow_224_1471" result="shape"/>
</filter>
<filter id="filter2_d_224_1471" x="5.67828" y="40.2911" width="228.241" height="223.288" filterUnits="userSpaceOnUse" color-interpolation-filters="sRGB">
<feFlood flood-opacity="0" result="BackgroundImageFix"/>
<feColorMatrix in="SourceAlpha" type="matrix" values="0 0 0 0 0 0 0 0 0 0 0 0 0 0 0 0 0 0 127 0" result="hardAlpha"/>
<feOffset dy="2.8317"/>
<feGaussianBlur stdDeviation="10.6189"/>
<feComposite in2="hardAlpha" operator="out"/>
<feColorMatrix type="matrix" values="0 0 0 0 0 0 0 0 0 0 0 0 0 0 0 0 0 0 0.15 0"/>
<feBlend mode="normal" in2="BackgroundImageFix" result="effect1_dropShadow_224_1471"/>
<feBlend mode="normal" in="SourceGraphic" in2="effect1_dropShadow_224_1471" result="shape"/>
</filter>
<filter id="filter3_d_224_1471" x="65.6763" y="0.0301466" width="107.993" height="107.352" filterUnits="userSpaceOnUse" color-interpolation-filters="sRGB">
<feFlood flood-opacity="0" result="BackgroundImageFix"/>
<feColorMatrix in="SourceAlpha" type="matrix" values="0 0 0 0 0 0 0 0 0 0 0 0 0 0 0 0 0 0 127 0" result="hardAlpha"/>
<feOffset dy="2.8317"/>
<feGaussianBlur stdDeviation="10.6189"/>
<feComposite in2="hardAlpha" operator="out"/>
<feColorMatrix type="matrix" values="0 0 0 0 0 0 0 0 0 0 0 0 0 0 0 0 0 0 0.15 0"/>
<feBlend mode="normal" in2="BackgroundImageFix" result="effect1_dropShadow_224_1471"/>
<feBlend mode="normal" in="SourceGraphic" in2="effect1_dropShadow_224_1471" result="shape"/>
</filter>
</defs>
</svg>
