<svg width="255" height="285" viewBox="0 0 255 285" fill="none" xmlns="http://www.w3.org/2000/svg">
<path d="M62.2299 208.649C62.0041 208.649 61.7804 208.605 61.5719 208.52C61.3633 208.434 61.1739 208.309 61.0147 208.15L60.2127 207.358C59.9017 207.037 59.7303 206.607 59.7351 206.162C59.7399 205.717 59.9206 205.292 60.2384 204.977C60.5563 204.663 60.9859 204.484 61.4354 204.479C61.8848 204.474 62.3183 204.644 62.6428 204.952L63.4449 205.744C63.6852 205.982 63.8488 206.285 63.9151 206.615C63.9813 206.945 63.9473 207.287 63.8173 207.598C63.6872 207.909 63.467 208.175 63.1844 208.362C62.9019 208.549 62.5697 208.649 62.2299 208.649ZM53.4186 199.924C53.1929 199.924 52.9694 199.88 52.7608 199.795C52.5523 199.709 52.3629 199.584 52.2036 199.425L51.4039 198.633C51.0816 198.315 50.9004 197.882 50.9002 197.431C50.9 196.98 51.0807 196.547 51.4027 196.228C51.7246 195.909 52.1614 195.73 52.6169 195.73C53.0724 195.729 53.5094 195.908 53.8317 196.227L54.6337 197.021C54.8744 197.259 55.0383 197.562 55.1048 197.892C55.1712 198.222 55.1372 198.564 55.0071 198.875C54.877 199.186 54.6565 199.452 54.3737 199.638C54.0909 199.825 53.7585 199.925 53.4186 199.924ZM44.6147 191.199C44.1592 191.2 43.7222 191.021 43.3995 190.703L42.5999 189.909C42.4346 189.752 42.3027 189.564 42.2117 189.356C42.1208 189.148 42.0727 188.924 42.0702 188.698C42.0678 188.471 42.111 188.247 42.1974 188.037C42.2839 187.827 42.4117 187.636 42.5735 187.476C42.7353 187.316 42.9278 187.189 43.1397 187.104C43.3515 187.018 43.5785 186.975 43.8073 186.978C44.0361 186.98 44.2621 187.028 44.4721 187.118C44.6821 187.208 44.8717 187.339 45.03 187.502L45.8298 188.297C46.0704 188.534 46.2343 188.837 46.3007 189.167C46.3672 189.497 46.3332 189.84 46.2031 190.15C46.0729 190.461 45.8525 190.727 45.5697 190.914C45.2869 191.1 44.9545 191.2 44.6147 191.199ZM35.8035 182.477C35.3478 182.477 34.9108 182.297 34.5884 181.978L33.7887 181.184C33.4777 180.863 33.3063 180.433 33.3111 179.988C33.3159 179.543 33.4966 179.118 33.8144 178.803C34.1322 178.488 34.562 178.309 35.0114 178.305C35.4608 178.3 35.8943 178.47 36.2189 178.778L37.0186 179.572C37.2588 179.81 37.4224 180.113 37.4887 180.443C37.555 180.773 37.521 181.115 37.3909 181.426C37.2609 181.737 37.0406 182.003 36.7581 182.19C36.4755 182.377 36.1434 182.477 35.8035 182.477ZM26.9923 173.752C26.7669 173.752 26.5439 173.708 26.3358 173.623C26.1276 173.537 25.9387 173.412 25.7796 173.253L24.9775 172.459C24.8181 172.301 24.6916 172.114 24.6054 171.907C24.5192 171.701 24.475 171.48 24.4751 171.256C24.4752 171.033 24.5197 170.812 24.6061 170.606C24.6926 170.399 24.8192 170.212 24.9787 170.054C25.1383 169.896 25.3276 169.771 25.5361 169.686C25.7445 169.6 25.9679 169.556 26.1934 169.557C26.419 169.557 26.6423 169.601 26.8507 169.686C27.059 169.772 27.2483 169.897 27.4077 170.055L28.2074 170.847C28.4477 171.085 28.6113 171.388 28.6776 171.718C28.7438 172.048 28.7098 172.391 28.5798 172.702C28.4497 173.012 28.2295 173.278 27.9469 173.465C27.6644 173.652 27.3322 173.752 26.9923 173.752ZM18.1835 165.027C17.9577 165.028 17.734 164.984 17.5254 164.899C17.3168 164.813 17.1275 164.687 16.9684 164.529L16.1664 163.737C15.864 163.414 15.6997 162.988 15.7079 162.548C15.7161 162.108 15.8962 161.688 16.2104 161.376C16.5246 161.065 16.9484 160.886 17.3929 160.878C17.8374 160.869 18.2679 161.031 18.5941 161.331L19.3962 162.122C19.6365 162.36 19.8001 162.664 19.8663 162.994C19.9326 163.324 19.8986 163.666 19.7685 163.977C19.6385 164.288 19.4183 164.553 19.1357 164.74C18.8532 164.928 18.521 165.027 18.1811 165.027H18.1835ZM10.1339 155.714C9.8014 155.714 9.47618 155.618 9.19747 155.438C8.91877 155.259 8.69846 155.003 8.56308 154.702C8.39359 154.322 8.23365 153.927 8.08564 153.535C7.94552 153.112 7.9783 152.651 8.17691 152.252C8.37551 151.853 8.72413 151.547 9.14811 151.399C9.57208 151.251 10.0377 151.274 10.445 151.462C10.8524 151.65 11.1692 151.988 11.3275 152.405C11.4373 152.712 11.5662 153.022 11.6951 153.322C11.8112 153.581 11.8601 153.865 11.8374 154.147C11.8147 154.43 11.721 154.702 11.565 154.94C11.4089 155.178 11.1955 155.373 10.9439 155.508C10.6923 155.643 10.4106 155.714 10.1243 155.714H10.1339ZM10.2842 143.753C10.0297 143.754 9.77843 143.697 9.54903 143.588C9.3451 143.492 9.16223 143.358 9.01091 143.192C8.8596 143.026 8.74278 142.832 8.66717 142.622C8.59156 142.411 8.55862 142.188 8.57025 141.965C8.58188 141.742 8.63785 141.523 8.73495 141.321C8.91638 140.945 9.11212 140.572 9.32219 140.21C9.43265 140.013 9.58174 139.839 9.76076 139.699C9.93978 139.559 10.1452 139.455 10.3649 139.395C10.5847 139.334 10.8144 139.317 11.0407 139.346C11.2671 139.374 11.4854 139.446 11.6832 139.559C11.8809 139.672 12.054 139.822 12.1924 140.002C12.3308 140.181 12.4317 140.386 12.4893 140.605C12.5468 140.823 12.5599 141.051 12.5276 141.275C12.4954 141.498 12.4184 141.713 12.3014 141.907C12.1367 142.191 11.9816 142.486 11.8383 142.782C11.6982 143.074 11.4769 143.32 11.2004 143.493C10.9239 143.665 10.6036 143.755 10.2771 143.753H10.2842ZM18.439 134.513C18.0991 134.513 17.7669 134.413 17.4843 134.226C17.2018 134.039 16.9816 133.774 16.8515 133.463C16.7215 133.152 16.6874 132.81 16.7537 132.48C16.82 132.15 16.9836 131.846 17.2239 131.608L18.026 130.814C18.1819 130.641 18.3718 130.501 18.5842 130.404C18.7965 130.306 19.0268 130.252 19.2609 130.246C19.4949 130.24 19.7278 130.281 19.9453 130.366C20.1628 130.452 20.3603 130.581 20.5256 130.746C20.691 130.91 20.8207 131.106 20.9068 131.321C20.9929 131.537 21.0336 131.768 21.0264 131.999C21.0193 132.231 20.9644 132.459 20.8651 132.669C20.7658 132.879 20.6242 133.067 20.449 133.22L19.6469 134.015C19.4875 134.173 19.2981 134.298 19.0896 134.384C18.8811 134.47 18.6575 134.514 18.4318 134.513H18.439ZM27.2501 125.789C26.9103 125.789 26.5781 125.689 26.2955 125.502C26.013 125.315 25.7928 125.049 25.6627 124.738C25.5327 124.427 25.4986 124.085 25.5649 123.755C25.6311 123.425 25.7948 123.122 26.035 122.884L26.8371 122.092C26.9966 121.934 27.1858 121.808 27.3941 121.723C27.6025 121.637 27.8258 121.593 28.0514 121.593C28.2769 121.593 28.5003 121.637 28.7087 121.722C28.9172 121.808 29.1066 121.933 29.2661 122.091C29.4257 122.248 29.5523 122.436 29.6387 122.642C29.7252 122.848 29.7696 123.07 29.7697 123.293C29.7699 123.516 29.7256 123.737 29.6394 123.944C29.5532 124.15 29.4267 124.338 29.2673 124.496L28.4652 125.29C28.3048 125.449 28.1142 125.575 27.9045 125.66C27.6947 125.746 27.4699 125.79 27.243 125.789H27.2501ZM36.0613 117.064C35.7214 117.064 35.3892 116.964 35.1067 116.777C34.8241 116.59 34.6039 116.324 34.4739 116.013C34.3438 115.702 34.3098 115.36 34.3761 115.03C34.4424 114.7 34.606 114.397 34.8462 114.159L35.6483 113.367C35.9729 113.059 36.4063 112.889 36.8558 112.894C37.3052 112.899 37.7349 113.078 38.0527 113.393C38.3705 113.707 38.5513 114.133 38.5561 114.578C38.5609 115.023 38.3895 115.452 38.0785 115.773L37.2764 116.565C37.1162 116.724 36.9257 116.851 36.7158 116.936C36.506 117.022 36.2811 117.065 36.0541 117.064H36.0613ZM44.8725 108.339C44.5326 108.339 44.2004 108.239 43.9178 108.052C43.6353 107.865 43.4151 107.6 43.285 107.289C43.155 106.978 43.121 106.636 43.1872 106.305C43.2535 105.975 43.4171 105.672 43.6574 105.434L44.4571 104.642C44.7817 104.334 45.2151 104.165 45.6645 104.169C46.114 104.174 46.5437 104.353 46.8615 104.668C47.1793 104.983 47.36 105.408 47.3648 105.853C47.3697 106.298 47.1982 106.727 46.8873 107.049L46.0875 107.841C45.9274 108 45.7369 108.126 45.5271 108.211C45.3172 108.297 45.0923 108.341 44.8653 108.339H44.8725ZM53.686 99.6146C53.3467 99.614 53.0151 99.514 52.733 99.3271C52.451 99.1402 52.2311 98.8748 52.1012 98.5643C51.9712 98.2539 51.937 97.9123 52.0028 97.5827C52.0686 97.253 52.2315 96.95 52.4709 96.7119L53.2707 95.9176C53.429 95.754 53.6186 95.6234 53.8286 95.5333C54.0386 95.4433 54.2645 95.3956 54.4933 95.3932C54.7222 95.3908 54.9492 95.4336 55.161 95.5192C55.3729 95.6048 55.5654 95.7314 55.7272 95.8916C55.889 96.0518 56.0168 96.2424 56.1033 96.4521C56.1897 96.6619 56.2329 96.8867 56.2305 97.1132C56.228 97.3398 56.1799 97.5636 56.089 97.7715C55.998 97.9794 55.866 98.1672 55.7008 98.324L54.9011 99.1158C54.7418 99.2742 54.5525 99.3998 54.3439 99.4854C54.1354 99.571 53.9118 99.6149 53.686 99.6146ZM62.4972 90.8899C62.1573 90.8904 61.8249 90.791 61.5421 90.6043C61.2594 90.4176 61.0389 90.152 60.9088 89.8411C60.7786 89.5302 60.7446 89.188 60.8111 88.858C60.8776 88.5279 61.0415 88.2248 61.2821 87.9871L61.5495 87.72C61.874 87.4121 62.3075 87.2424 62.7569 87.2472C63.2064 87.2519 63.636 87.4308 63.9539 87.7455C64.2717 88.0603 64.4524 88.4857 64.4573 88.9308C64.4621 89.3758 64.2906 89.805 63.9797 90.1264L63.7099 90.3935C63.5496 90.5524 63.359 90.6781 63.1492 90.7633C62.9393 90.8485 62.7145 90.8916 62.4877 90.8899H62.4972Z" fill="#B0B0B0"/>
<g filter="url(#filter0_d_17098_1814)">
<path d="M119.867 260.347C117.667 260.35 115.488 259.924 113.456 259.091C111.423 258.259 109.576 257.037 108.021 255.497L60.6113 208.552L63.8508 205.344L111.263 252.289C113.546 254.547 116.64 255.815 119.867 255.815C123.093 255.815 126.187 254.547 128.47 252.289L224.99 156.717C227.27 154.456 228.551 151.392 228.551 148.196C228.551 145.001 227.27 141.937 224.99 139.676L128.47 44.1062C126.187 41.8486 123.093 40.5806 119.867 40.5806C116.64 40.5806 113.546 41.8486 111.263 44.1062L64.3783 90.5308L61.1365 87.3232L108.021 40.8985C109.576 39.3576 111.423 38.1353 113.455 37.3013C115.487 36.4673 117.665 36.0381 119.865 36.0381C122.065 36.0381 124.244 36.4673 126.276 37.3013C128.308 38.1353 130.155 39.3576 131.709 40.8985L228.231 136.471C231.372 139.581 233.137 143.8 233.137 148.199C233.137 152.598 231.372 156.816 228.231 159.927L131.709 255.499C130.155 257.04 128.309 258.261 126.276 259.093C124.244 259.925 122.066 260.351 119.867 260.347Z" fill="#B0B0B0"/>
</g>
<g filter="url(#filter1_d_17098_1814)">
<path d="M109.21 241.191L25.9467 158.75C24.5475 157.365 23.4376 155.72 22.6803 153.91C21.923 152.1 21.5332 150.161 21.5332 148.201C21.5332 146.242 21.923 144.302 22.6803 142.492C23.4376 140.683 24.5475 139.038 25.9467 137.653L109.21 55.2044C112.036 52.4072 115.868 50.8359 119.864 50.8359C123.86 50.8359 127.692 52.4072 130.518 55.2044L213.782 137.653C215.181 139.038 216.291 140.683 217.048 142.492C217.805 144.302 218.195 146.242 218.195 148.201C218.195 150.161 217.805 152.1 217.048 153.91C216.291 155.72 215.181 157.365 213.782 158.75L130.518 241.196C129.119 242.581 127.458 243.68 125.63 244.43C123.801 245.179 121.842 245.565 119.863 245.564C117.884 245.564 115.925 245.177 114.097 244.427C112.269 243.677 110.609 242.577 109.21 241.191Z" fill="white"/>
</g>
<g filter="url(#filter2_d_17098_1814)">
<path d="M105.844 233.759L32.7953 161.427C30.9526 159.605 29.4907 157.441 28.4933 155.059C27.4958 152.677 26.9824 150.124 26.9824 147.545C26.9824 144.966 27.4958 142.413 28.4933 140.031C29.4907 137.649 30.9526 135.484 32.7953 133.662L105.844 64.4484C107.685 62.6251 109.871 61.1787 112.277 60.192C114.683 59.2052 117.261 58.6973 119.865 58.6973C122.469 58.6973 125.048 59.2052 127.453 60.192C129.859 61.1787 132.045 62.6251 133.886 64.4484L206.935 133.662C208.778 135.484 210.239 137.649 211.237 140.031C212.234 142.413 212.748 144.966 212.748 147.545C212.748 150.124 212.234 152.677 211.237 155.059C210.239 157.441 208.778 159.605 206.935 161.427L133.886 233.759C132.045 235.582 129.859 237.029 127.453 238.015C125.048 239.002 122.469 239.51 119.865 239.51C117.261 239.51 114.683 239.002 112.277 238.015C109.871 237.029 107.685 235.582 105.844 233.759Z" fill="white"/>
</g>
<g filter="url(#filter3_d_17098_1814)">
<path d="M143.419 73.8122C156.213 61.1443 156.213 40.6056 143.419 27.9377C130.626 15.2698 109.884 15.2698 97.0904 27.9377C84.2969 40.6056 84.2969 61.1444 97.0903 73.8122C109.884 86.4801 130.626 86.4801 143.419 73.8122Z" fill="#B0B0B0"/>
</g>
<path d="M127.531 40.1038C128.243 39.2337 128.719 38.1933 128.911 37.084L129.869 37.2137C129.446 39.2087 128.623 40.8929 126.795 41.9272C126.633 42.0189 126.515 42.026 126.348 41.9082C126.247 41.8378 126.132 41.7887 126.012 41.7637C125.891 41.7387 125.767 41.7384 125.646 41.7628C125.525 41.7871 125.411 41.8357 125.309 41.9055C125.207 41.9753 125.121 42.065 125.055 42.1691C124.916 42.377 124.866 42.6313 124.914 42.8765C124.962 43.1216 125.105 43.3376 125.312 43.477C125.52 43.6138 125.773 43.6641 126.017 43.6173C126.262 43.5705 126.478 43.4303 126.622 43.2263C126.73 43.0814 126.869 42.9623 127.028 42.8776C127.741 42.5083 128.384 42.0161 128.926 41.4235C128.972 41.531 128.989 41.6449 129.054 41.7137C129.842 42.545 130.633 43.3715 131.425 44.1934C132.276 45.0742 132.686 46.1235 132.686 47.3507C132.682 52.2722 132.682 57.1942 132.686 62.1167C132.686 63.6783 131.699 64.6675 130.142 64.6675H121.526C119.988 64.6675 118.997 63.6728 118.997 62.1309C118.997 57.1984 118.997 52.2664 118.997 47.3349C118.986 46.7559 119.091 46.1805 119.306 45.6429C119.52 45.1052 119.84 44.6161 120.246 44.2044C121.455 42.9456 122.69 41.7105 123.849 40.409C124.939 39.1818 126.436 39.1059 127.531 40.1038ZM125.606 50.24V51.347C124.239 51.5637 123.571 52.2231 123.589 53.3183C123.606 54.3708 124.299 55.0286 125.591 55.201V57.0505C125.016 57.1035 124.716 56.8528 124.488 56.138H123.595C123.579 56.5495 123.712 56.9529 123.97 57.2735C124.373 57.8049 124.932 58.0263 125.617 58.0326V59.1602H126.552V58.0587C127.908 57.8436 128.575 57.1944 128.569 56.1159C128.564 55.0373 127.871 54.3826 126.566 54.2039V52.3544C127.144 52.3038 127.438 52.5497 127.67 53.2669H128.564C128.577 52.8456 128.437 52.434 128.17 52.1085C127.766 51.5906 127.214 51.3794 126.541 51.3731V50.24H125.606Z" fill="white"/>
<path d="M118.203 63.4709C117.721 63.1926 117.229 62.9095 116.738 62.624C114.927 61.5697 113.115 60.5173 111.305 59.4667C109.937 58.6704 109.579 57.3317 110.367 55.959C112.809 51.7107 115.25 47.4617 117.689 43.2118C118.326 42.0993 119.238 41.3726 120.476 41.0523C121.046 40.9045 121.61 40.7361 122.177 40.5732C122.248 40.5534 122.321 40.5431 122.458 40.5146C122.349 40.6364 122.287 40.71 122.221 40.7787C121.332 41.7028 120.444 42.6253 119.556 43.5463C118.56 44.5829 118.058 45.8212 118.054 47.2627C118.054 52.2331 118.055 57.2039 118.059 62.1749C118.06 62.6043 118.152 63.0344 118.203 63.4709Z" fill="white"/>
<path d="M108.962 56.7934C108.324 56.1688 107.612 55.5409 106.983 54.838C106.19 53.9484 106.257 52.6105 107.062 51.7273C107.116 51.6695 107.171 51.6126 107.226 51.5573C110.683 48.086 114.14 44.6129 117.596 41.1379C117.696 41.0195 117.787 40.8934 117.868 40.7607L117.969 40.8556C117.924 40.9347 117.879 41.0193 117.833 41.1C115.082 45.877 112.333 50.6548 109.585 55.4334C109.333 55.873 109.16 56.3577 108.962 56.7934Z" fill="white"/>
<path d="M125.595 52.3358V54.2146C125.427 54.2427 125.253 54.2216 125.096 54.1538C124.939 54.0859 124.804 53.9742 124.709 53.8319C124.598 53.6914 124.533 53.5207 124.521 53.3423C124.51 53.1639 124.552 52.9861 124.643 52.8324C124.838 52.4679 125.16 52.3152 125.595 52.3358Z" fill="white"/>
<path d="M126.561 57.0647V55.1907C126.736 55.1629 126.916 55.1881 127.078 55.2631C127.24 55.3382 127.375 55.4596 127.468 55.6121C127.572 55.7575 127.629 55.9312 127.633 56.1101C127.636 56.289 127.585 56.4648 127.487 56.614C127.282 56.9461 126.974 57.1042 126.561 57.0647Z" fill="white"/>
<defs>
<filter id="filter0_d_17098_1814" x="39.3736" y="17.632" width="215.001" height="266.785" filterUnits="userSpaceOnUse" color-interpolation-filters="sRGB">
<feFlood flood-opacity="0" result="BackgroundImageFix"/>
<feColorMatrix in="SourceAlpha" type="matrix" values="0 0 0 0 0 0 0 0 0 0 0 0 0 0 0 0 0 0 127 0" result="hardAlpha"/>
<feOffset dy="2.8317"/>
<feGaussianBlur stdDeviation="10.6189"/>
<feComposite in2="hardAlpha" operator="out"/>
<feColorMatrix type="matrix" values="0 0 0 0 0 0 0 0 0 0 0 0 0 0 0 0 0 0 0.15 0"/>
<feBlend mode="normal" in2="BackgroundImageFix" result="effect1_dropShadow_17098_1814"/>
<feBlend mode="normal" in="SourceGraphic" in2="effect1_dropShadow_17098_1814" result="shape"/>
</filter>
<filter id="filter1_d_17098_1814" x="0.295464" y="32.4299" width="239.138" height="237.204" filterUnits="userSpaceOnUse" color-interpolation-filters="sRGB">
<feFlood flood-opacity="0" result="BackgroundImageFix"/>
<feColorMatrix in="SourceAlpha" type="matrix" values="0 0 0 0 0 0 0 0 0 0 0 0 0 0 0 0 0 0 127 0" result="hardAlpha"/>
<feOffset dy="2.8317"/>
<feGaussianBlur stdDeviation="10.6189"/>
<feComposite in2="hardAlpha" operator="out"/>
<feColorMatrix type="matrix" values="0 0 0 0 0 0 0 0 0 0 0 0 0 0 0 0 0 0 0.15 0"/>
<feBlend mode="normal" in2="BackgroundImageFix" result="effect1_dropShadow_17098_1814"/>
<feBlend mode="normal" in="SourceGraphic" in2="effect1_dropShadow_17098_1814" result="shape"/>
</filter>
<filter id="filter2_d_17098_1814" x="5.74468" y="40.2912" width="228.241" height="223.288" filterUnits="userSpaceOnUse" color-interpolation-filters="sRGB">
<feFlood flood-opacity="0" result="BackgroundImageFix"/>
<feColorMatrix in="SourceAlpha" type="matrix" values="0 0 0 0 0 0 0 0 0 0 0 0 0 0 0 0 0 0 127 0" result="hardAlpha"/>
<feOffset dy="2.8317"/>
<feGaussianBlur stdDeviation="10.6189"/>
<feComposite in2="hardAlpha" operator="out"/>
<feColorMatrix type="matrix" values="0 0 0 0 0 0 0 0 0 0 0 0 0 0 0 0 0 0 0.15 0"/>
<feBlend mode="normal" in2="BackgroundImageFix" result="effect1_dropShadow_17098_1814"/>
<feBlend mode="normal" in="SourceGraphic" in2="effect1_dropShadow_17098_1814" result="shape"/>
</filter>
<filter id="filter3_d_17098_1814" x="66.2574" y="0.0304823" width="107.995" height="107.352" filterUnits="userSpaceOnUse" color-interpolation-filters="sRGB">
<feFlood flood-opacity="0" result="BackgroundImageFix"/>
<feColorMatrix in="SourceAlpha" type="matrix" values="0 0 0 0 0 0 0 0 0 0 0 0 0 0 0 0 0 0 127 0" result="hardAlpha"/>
<feOffset dy="2.8317"/>
<feGaussianBlur stdDeviation="10.6189"/>
<feComposite in2="hardAlpha" operator="out"/>
<feColorMatrix type="matrix" values="0 0 0 0 0 0 0 0 0 0 0 0 0 0 0 0 0 0 0.15 0"/>
<feBlend mode="normal" in2="BackgroundImageFix" result="effect1_dropShadow_17098_1814"/>
<feBlend mode="normal" in="SourceGraphic" in2="effect1_dropShadow_17098_1814" result="shape"/>
</filter>
</defs>
</svg>
