<svg width="255" height="285" viewBox="0 0 255 285" fill="none" xmlns="http://www.w3.org/2000/svg">
<path d="M62.0951 208.649C61.8693 208.649 61.6457 208.605 61.4371 208.52C61.2285 208.434 61.0391 208.308 60.88 208.15L60.0779 207.358C59.767 207.037 59.5955 206.607 59.6004 206.162C59.6052 205.717 59.7858 205.292 60.1037 204.977C60.4215 204.662 60.8511 204.484 61.3006 204.479C61.75 204.474 62.1835 204.644 62.5081 204.952L63.3101 205.744C63.5504 205.982 63.714 206.285 63.7803 206.615C63.8466 206.945 63.8125 207.287 63.6825 207.598C63.5525 207.909 63.3322 208.175 63.0497 208.362C62.7671 208.549 62.435 208.648 62.0951 208.649ZM53.2839 199.924C53.0581 199.924 52.8346 199.88 52.6261 199.795C52.4175 199.709 52.2281 199.583 52.0688 199.425L51.2691 198.633C50.9468 198.314 50.7656 197.882 50.7654 197.431C50.7652 196.98 50.946 196.547 51.2679 196.228C51.5899 195.909 52.0266 195.73 52.4822 195.729C52.9377 195.729 53.3747 195.908 53.6969 196.227L54.499 197.021C54.7396 197.259 54.9036 197.562 54.97 197.892C55.0365 198.222 55.0025 198.564 54.8723 198.875C54.7422 199.186 54.5217 199.452 54.2389 199.638C53.9562 199.825 53.6238 199.924 53.2839 199.924ZM44.4799 191.199C44.0244 191.2 43.5874 191.021 43.2648 190.703L42.4651 189.909C42.2999 189.752 42.1679 189.564 42.077 189.356C41.986 189.148 41.9379 188.924 41.9354 188.698C41.933 188.471 41.9762 188.246 42.0627 188.037C42.1491 187.827 42.277 187.636 42.4388 187.476C42.6006 187.316 42.793 187.189 43.0049 187.104C43.2168 187.018 43.4438 186.975 43.6726 186.978C43.9014 186.98 44.1274 187.028 44.3373 187.118C44.5473 187.208 44.737 187.339 44.8953 187.502L45.695 188.296C45.9356 188.534 46.0995 188.837 46.166 189.167C46.2324 189.497 46.1984 189.839 46.0683 190.15C45.9381 190.461 45.7177 190.727 45.4349 190.914C45.1522 191.1 44.8198 191.2 44.4799 191.199ZM35.6687 182.477C35.213 182.476 34.776 182.297 34.4536 181.978L33.6539 181.184C33.343 180.862 33.1715 180.433 33.1763 179.988C33.1812 179.543 33.3618 179.118 33.6797 178.803C33.9975 178.488 34.4272 178.309 34.8766 178.305C35.3261 178.3 35.7595 178.47 36.0841 178.777L36.8838 179.572C37.1241 179.81 37.2877 180.113 37.3539 180.443C37.4202 180.773 37.3862 181.115 37.2561 181.426C37.1261 181.737 36.9059 182.003 36.6233 182.19C36.3408 182.377 36.0086 182.477 35.6687 182.477ZM26.8575 173.752C26.6322 173.752 26.4091 173.708 26.201 173.622C25.9929 173.537 25.8039 173.411 25.6449 173.253L24.8427 172.459C24.6833 172.301 24.5569 172.114 24.4707 171.907C24.3845 171.701 24.3402 171.48 24.3403 171.256C24.3404 171.033 24.385 170.812 24.4714 170.606C24.5578 170.399 24.6844 170.212 24.844 170.054C25.0035 169.896 25.1929 169.771 25.4013 169.686C25.6097 169.6 25.8331 169.556 26.0587 169.556C26.2842 169.557 26.5076 169.601 26.7159 169.686C26.9242 169.772 27.1135 169.897 27.2729 170.055L28.0726 170.847C28.3129 171.085 28.4765 171.388 28.5428 171.718C28.6091 172.048 28.575 172.39 28.445 172.701C28.315 173.012 28.0947 173.278 27.8122 173.465C27.5296 173.652 27.1974 173.752 26.8575 173.752ZM18.0488 165.027C17.823 165.028 17.5992 164.984 17.3906 164.899C17.1821 164.813 16.9927 164.687 16.8337 164.529L16.0316 163.737C15.7292 163.414 15.5649 162.988 15.5731 162.548C15.5814 162.108 15.7615 161.688 16.0756 161.376C16.3898 161.065 16.8136 160.886 17.2581 160.878C17.7026 160.869 18.1332 161.031 18.4594 161.33L19.2615 162.122C19.5017 162.36 19.6653 162.663 19.7316 162.994C19.7979 163.324 19.7638 163.666 19.6338 163.977C19.5037 164.288 19.2835 164.553 19.001 164.74C18.7184 164.927 18.3862 165.027 18.0464 165.027H18.0488ZM9.99911 155.714C9.66664 155.713 9.34141 155.618 9.06271 155.438C8.784 155.259 8.5637 155.003 8.42831 154.702C8.25882 154.322 8.09888 153.927 7.95087 153.535C7.81076 153.112 7.84354 152.651 8.04214 152.252C8.24074 151.853 8.58937 151.547 9.01334 151.399C9.43732 151.251 9.9029 151.274 10.3103 151.462C10.7177 151.65 11.0344 151.988 11.1927 152.405C11.3025 152.712 11.4314 153.022 11.5604 153.322C11.6764 153.581 11.7253 153.865 11.7026 154.147C11.6799 154.43 11.5862 154.702 11.4302 154.94C11.2742 155.178 11.0607 155.373 10.8091 155.508C10.5575 155.643 10.2758 155.714 9.98956 155.714H9.99911ZM10.1495 143.753C9.89495 143.754 9.64366 143.697 9.41426 143.588C9.21034 143.492 9.02746 143.357 8.87615 143.192C8.72483 143.026 8.60802 142.832 8.5324 142.622C8.45679 142.411 8.42385 142.188 8.43548 141.965C8.44711 141.741 8.50309 141.523 8.60019 141.321C8.78161 140.945 8.97736 140.572 9.18743 140.21C9.29789 140.012 9.44698 139.839 9.626 139.699C9.80501 139.559 10.0104 139.455 10.2301 139.395C10.4499 139.334 10.6796 139.317 10.906 139.346C11.1323 139.374 11.3507 139.446 11.5484 139.559C11.7461 139.672 11.9193 139.822 12.0577 140.002C12.1961 140.181 12.297 140.386 12.3545 140.605C12.412 140.823 12.4251 141.051 12.3928 141.275C12.3606 141.498 12.2837 141.713 12.1667 141.907C12.0019 142.191 11.8468 142.486 11.7036 142.782C11.5634 143.074 11.3422 143.32 11.0657 143.492C10.7892 143.664 10.4689 143.755 10.1423 143.753H10.1495ZM18.3042 134.513C17.9643 134.513 17.6321 134.413 17.3496 134.226C17.067 134.039 16.8468 133.774 16.7167 133.463C16.5867 133.152 16.5527 132.81 16.6189 132.48C16.6852 132.149 16.8488 131.846 17.0891 131.608L17.8912 130.814C18.0471 130.641 18.237 130.501 18.4494 130.404C18.6617 130.306 18.892 130.252 19.1261 130.246C19.3602 130.239 19.5931 130.28 19.8106 130.366C20.028 130.452 20.2255 130.581 20.3909 130.745C20.5562 130.91 20.6859 131.106 20.772 131.321C20.8581 131.537 20.8988 131.767 20.8917 131.999C20.8845 132.231 20.8296 132.459 20.7303 132.669C20.631 132.879 20.4894 133.066 20.3142 133.22L19.5121 134.015C19.3527 134.173 19.1633 134.298 18.9548 134.384C18.7463 134.47 18.5228 134.513 18.297 134.513H18.3042ZM27.1154 125.789C26.7755 125.788 26.4433 125.689 26.1608 125.502C25.8782 125.315 25.658 125.049 25.528 124.738C25.3979 124.427 25.3638 124.085 25.4301 123.755C25.4964 123.425 25.66 123.122 25.9003 122.884L26.7024 122.092C26.8618 121.934 27.051 121.808 27.2594 121.723C27.4677 121.637 27.6911 121.593 27.9166 121.593C28.1422 121.593 28.3655 121.637 28.574 121.722C28.7824 121.807 28.9718 121.933 29.1314 122.09C29.2909 122.248 29.4176 122.436 29.504 122.642C29.5904 122.848 29.6349 123.069 29.635 123.293C29.6351 123.516 29.5908 123.737 29.5046 123.944C29.4184 124.15 29.292 124.338 29.1325 124.496L28.3305 125.29C28.1701 125.449 27.9795 125.575 27.7697 125.66C27.5599 125.746 27.3351 125.789 27.1082 125.789H27.1154ZM35.9265 117.064C35.5867 117.064 35.2545 116.964 34.9719 116.777C34.6894 116.59 34.4692 116.324 34.3391 116.013C34.2091 115.702 34.175 115.36 34.2413 115.03C34.3076 114.7 34.4712 114.397 34.7115 114.159L35.5135 113.367C35.8381 113.059 36.2716 112.889 36.721 112.894C37.1705 112.899 37.6001 113.078 37.9179 113.392C38.2358 113.707 38.4165 114.133 38.4213 114.578C38.4261 115.023 38.2547 115.452 37.9438 115.773L37.1416 116.565C36.9815 116.724 36.7909 116.85 36.5811 116.936C36.3712 117.022 36.1463 117.065 35.9193 117.064H35.9265ZM44.7377 108.339C44.3979 108.339 44.0656 108.239 43.7831 108.052C43.5005 107.865 43.2803 107.599 43.1503 107.288C43.0202 106.978 42.9862 106.635 43.0525 106.305C43.1187 105.975 43.2824 105.672 43.5226 105.434L44.3224 104.642C44.6469 104.334 45.0803 104.165 45.5298 104.169C45.9792 104.174 46.4089 104.353 46.7268 104.668C47.0446 104.982 47.2253 105.408 47.2301 105.853C47.2349 106.298 47.0635 106.727 46.7525 107.049L45.9528 107.84C45.7926 108 45.6021 108.126 45.3923 108.211C45.1825 108.297 44.9575 108.34 44.7306 108.339H44.7377ZM53.5513 99.6145C53.2119 99.6139 52.8803 99.5138 52.5983 99.3269C52.3162 99.14 52.0964 98.8746 51.9664 98.5642C51.8365 98.2538 51.8022 97.9122 51.868 97.5825C51.9338 97.2529 52.0967 96.9499 52.3362 96.7117L53.1359 95.9175C53.2942 95.7539 53.4839 95.6232 53.6938 95.5332C53.9038 95.4431 54.1298 95.3955 54.3586 95.3931C54.5874 95.3906 54.8144 95.4335 55.0263 95.5191C55.2381 95.6046 55.4306 95.7312 55.5924 95.8915C55.7542 96.0517 55.8821 96.2422 55.9685 96.452C56.0549 96.6618 56.0982 96.8866 56.0957 97.1131C56.0933 97.3397 56.0452 97.5635 55.9542 97.7714C55.8633 97.9793 55.7313 98.1671 55.5661 98.3238L54.7664 99.1157C54.6071 99.2741 54.4177 99.3997 54.2092 99.4853C54.0006 99.5709 53.777 99.6148 53.5513 99.6145ZM62.3624 90.8897C62.0225 90.8903 61.6901 90.7909 61.4074 90.6042C61.1246 90.4175 60.9042 90.1519 60.774 89.841C60.6439 89.5301 60.6099 89.1879 60.6763 88.8578C60.7428 88.5278 60.9068 88.2247 61.1474 87.987L61.4147 87.7199C61.7393 87.412 62.1727 87.2423 62.6222 87.247C63.0716 87.2518 63.5013 87.4307 63.8191 87.7454C64.1369 88.0601 64.3177 88.4856 64.3225 88.9306C64.3273 89.3757 64.1559 89.8049 63.8449 90.1262L63.5751 90.3934C63.4149 90.5523 63.2243 90.678 63.0144 90.7632C62.8046 90.8484 62.5797 90.8914 62.3529 90.8897H62.3624Z" fill="#666666"/>
<g filter="url(#filter0_d_224_1510)">
<path d="M119.73 260.347C117.53 260.35 115.352 259.923 113.319 259.091C111.286 258.259 109.439 257.037 107.885 255.496L60.4746 208.552L63.7141 205.344L111.126 252.289C113.409 254.546 116.504 255.814 119.73 255.814C122.956 255.814 126.05 254.546 128.333 252.289L224.853 156.716C227.133 154.456 228.415 151.391 228.415 148.196C228.415 145.001 227.133 141.936 224.853 139.676L128.333 44.1058C126.05 41.8482 122.956 40.5802 119.73 40.5802C116.504 40.5802 113.409 41.8482 111.126 44.1058L64.2416 90.5305L60.9998 87.3228L107.885 40.8981C109.44 39.3573 111.286 38.1349 113.318 37.301C115.35 36.467 117.529 36.0377 119.729 36.0377C121.928 36.0377 124.107 36.467 126.139 37.301C128.171 38.1349 130.018 39.3573 131.573 40.8981L228.095 136.471C231.236 139.581 233 143.8 233 148.198C233 152.597 231.236 156.816 228.095 159.926L131.573 255.499C130.019 257.039 128.172 258.261 126.14 259.093C124.107 259.925 121.929 260.351 119.73 260.347Z" fill="#666666"/>
</g>
<g filter="url(#filter1_d_224_1510)">
<path d="M109.073 241.191L25.81 158.749C24.4108 157.364 23.3009 155.719 22.5436 153.909C21.7863 152.1 21.3965 150.16 21.3965 148.201C21.3965 146.241 21.7863 144.302 22.5436 142.492C23.3009 140.682 24.4108 139.037 25.81 137.652L109.073 55.2035C111.899 52.4064 115.732 50.8351 119.727 50.8351C123.723 50.8351 127.555 52.4064 130.382 55.2035L213.645 137.652C215.044 139.037 216.154 140.682 216.911 142.492C217.669 144.302 218.058 146.241 218.058 148.201C218.058 150.16 217.669 152.1 216.911 153.909C216.154 155.719 215.044 157.364 213.645 158.749L130.382 241.195C128.982 242.58 127.321 243.679 125.493 244.429C123.665 245.178 121.705 245.564 119.726 245.563C117.748 245.563 115.789 245.176 113.961 244.426C112.133 243.676 110.472 242.576 109.073 241.191Z" fill="white"/>
</g>
<g filter="url(#filter2_d_224_1510)">
<path d="M105.705 233.759L32.6567 161.427C30.8139 159.605 29.352 157.441 28.3546 155.059C27.3571 152.677 26.8438 150.123 26.8438 147.545C26.8438 144.966 27.3571 142.413 28.3546 140.031C29.352 137.648 30.8139 135.484 32.6567 133.662L105.705 64.4484C107.546 62.625 109.732 61.1787 112.138 60.1919C114.544 59.2051 117.122 58.6972 119.726 58.6972C122.33 58.6972 124.909 59.2051 127.315 60.1919C129.721 61.1787 131.906 62.625 133.748 64.4484L206.796 133.662C208.639 135.484 210.101 137.648 211.098 140.031C212.096 142.413 212.609 144.966 212.609 147.545C212.609 150.123 212.096 152.677 211.098 155.059C210.101 157.441 208.639 159.605 206.796 161.427L133.748 233.759C131.906 235.582 129.721 237.029 127.315 238.015C124.909 239.002 122.33 239.51 119.726 239.51C117.122 239.51 114.544 239.002 112.138 238.015C109.732 237.029 107.546 235.582 105.705 233.759Z" fill="white"/>
</g>
<path d="M82.7021 155C79.4854 155 77.877 153.608 77.877 150.825C77.877 149.548 78.2578 148.499 79.0195 147.679C79.875 146.765 81.085 146.308 82.6494 146.308C84.0615 146.308 85.3154 146.516 86.4111 146.932V153.128H88.1689V155H82.7021ZM84.1084 148.505C83.6514 148.288 83.0801 148.18 82.3945 148.18C81.7324 148.18 81.208 148.408 80.8213 148.865C80.4404 149.311 80.25 149.891 80.25 150.605C80.25 152.287 81.1523 153.128 82.957 153.128H84.1084V148.505ZM83.9062 145.174C83.5723 145.174 83.291 145.054 83.0625 144.813C82.834 144.579 82.7197 144.292 82.7197 143.952C82.7197 143.612 82.834 143.322 83.0625 143.082C83.2969 142.842 83.5781 142.722 83.9062 142.722C84.2402 142.722 84.5215 142.842 84.75 143.082C84.9785 143.316 85.0928 143.606 85.0928 143.952C85.0928 144.286 84.9785 144.573 84.75 144.813C84.5215 145.054 84.2402 145.174 83.9062 145.174ZM80.918 145.174C80.584 145.174 80.3027 145.054 80.0742 144.813C79.8457 144.579 79.7314 144.292 79.7314 143.952C79.7314 143.612 79.8457 143.322 80.0742 143.082C80.3086 142.842 80.5898 142.722 80.918 142.722C81.2578 142.722 81.5449 142.842 81.7793 143.082C82.0078 143.316 82.1221 143.606 82.1221 143.952C82.1221 144.286 82.0078 144.573 81.7793 144.813C81.5449 145.054 81.2578 145.174 80.918 145.174ZM87.9053 153.128H90.1377V142.309H92.5107V153.128H94.3125V155H87.9053V153.128ZM94.04 155V153.128H95.0684C95.4844 153.128 95.8184 153.169 96.0703 153.251C95.4023 152.765 95.0684 151.906 95.0684 150.676C95.0684 149.457 95.4551 148.443 96.2285 147.635C97.084 146.75 98.2559 146.308 99.7441 146.308C102.457 146.308 103.813 147.688 103.813 150.447V155H94.04ZM101.493 150.737C101.493 149.032 100.852 148.18 99.5684 148.18C98.9062 148.18 98.3789 148.408 97.9863 148.865C97.6113 149.311 97.4238 149.891 97.4238 150.605C97.4238 152.287 98.3232 153.128 100.122 153.128H101.493V150.737ZM106.591 142.309H108.964V153.128H110.766V155H106.591V142.309ZM110.493 153.128H111.39C111.987 153.128 112.403 152.976 112.638 152.671C112.89 152.349 113.016 151.757 113.016 150.896V147.617H115.389V150.948C115.389 151.815 115.462 152.404 115.608 152.715C115.778 153.084 116.118 153.269 116.628 153.269C117.589 153.269 118.069 152.501 118.069 150.966V146.896H120.354V151.414C120.354 152.117 120.501 152.58 120.794 152.803C121.075 153.02 121.638 153.128 122.481 153.128H122.947C123.035 152.454 123.079 151.733 123.079 150.966C123.079 149.308 122.903 147.699 122.552 146.141L124.872 145.824C125.259 147.436 125.452 149.097 125.452 150.808C125.452 152.325 125.361 153.723 125.18 155H122.209C121.23 155 120.504 154.918 120.029 154.754C119.52 154.572 119.136 154.241 118.878 153.761C118.45 154.681 117.545 155.141 116.162 155.141C114.879 155.141 114.082 154.675 113.771 153.743C113.402 154.581 112.603 155 111.372 155H110.493V153.128ZM119.115 142.616C118.811 142.616 118.55 142.505 118.333 142.282C118.122 142.065 118.017 141.799 118.017 141.482C118.017 141.166 118.122 140.899 118.333 140.683C118.55 140.46 118.811 140.349 119.115 140.349C119.432 140.349 119.695 140.46 119.906 140.683C120.123 140.899 120.231 141.166 120.231 141.482C120.231 141.799 120.123 142.065 119.906 142.282C119.695 142.505 119.432 142.616 119.115 142.616ZM120.627 145.174C120.287 145.174 120 145.054 119.766 144.813C119.537 144.579 119.423 144.292 119.423 143.952C119.423 143.612 119.537 143.322 119.766 143.082C120 142.842 120.287 142.722 120.627 142.722C120.961 142.722 121.242 142.842 121.471 143.082C121.699 143.316 121.813 143.606 121.813 143.952C121.813 144.286 121.699 144.573 121.471 144.813C121.236 145.054 120.955 145.174 120.627 145.174ZM117.639 145.174C117.305 145.174 117.023 145.054 116.795 144.813C116.566 144.579 116.452 144.292 116.452 143.952C116.452 143.612 116.566 143.322 116.795 143.082C117.029 142.842 117.311 142.722 117.639 142.722C117.973 142.722 118.254 142.842 118.482 143.082C118.711 143.316 118.825 143.606 118.825 143.952C118.825 144.286 118.711 144.573 118.482 144.813C118.254 145.054 117.973 145.174 117.639 145.174ZM138.152 142.309H140.525V153.629C140.525 157.303 138.917 159.14 135.7 159.14C132.606 159.14 131.06 157.435 131.06 154.024C131.06 152.923 131.203 151.851 131.49 150.808L133.942 150.359C133.603 151.555 133.433 152.706 133.433 153.813C133.433 156.128 134.256 157.285 135.902 157.285C137.402 157.285 138.152 156.128 138.152 153.813V142.309ZM145.122 159.535C144.22 159.535 143.306 159.456 142.38 159.298L142.529 157.355C143.467 157.561 144.401 157.663 145.333 157.663C147.413 157.663 148.453 156.866 148.453 155.272V155H147.047C143.83 155 142.222 153.608 142.222 150.825C142.222 149.548 142.603 148.499 143.364 147.679C144.22 146.765 145.43 146.308 146.994 146.308C148.406 146.308 149.66 146.516 150.756 146.932V153.128H152.514V155H150.756V155.035C150.756 156.371 150.319 157.432 149.446 158.217C148.474 159.096 147.032 159.535 145.122 159.535ZM148.453 148.505C147.996 148.288 147.425 148.18 146.739 148.18C146.077 148.18 145.553 148.408 145.166 148.865C144.785 149.311 144.595 149.891 144.595 150.605C144.595 152.287 145.497 153.128 147.302 153.128H148.453V148.505ZM152.259 153.128H154.491V142.309H156.864V153.128H158.666V155H152.259V153.128ZM158.394 153.128H165.363C165.422 152.647 165.451 152.19 165.451 151.757C165.451 150.585 165.188 149.724 164.66 149.173C164.098 148.593 163.184 148.303 161.918 148.303C161.25 148.303 160.562 148.353 159.853 148.452V146.598C160.696 146.486 161.464 146.431 162.155 146.431C164.142 146.431 165.589 146.873 166.497 147.758C167.37 148.602 167.807 149.905 167.807 151.669C167.807 152.665 167.704 153.775 167.499 155H158.394V153.128Z" fill="#565656"/>
<g filter="url(#filter3_d_224_1510)">
<path d="M143.494 73.9372C156.287 61.2693 156.287 40.7306 143.494 28.0627C130.7 15.3948 109.958 15.3948 97.1646 28.0627C84.3712 40.7306 84.3711 61.2694 97.1646 73.9372C109.958 86.6051 130.7 86.6051 143.494 73.9372Z" fill="#666666"/>
</g>
<path d="M113.806 48.3326H116.995V50.4403C115.617 50.6924 114.864 51.4764 114.877 52.6398C114.889 53.7694 115.655 54.5435 117.001 54.7778V59.0004H113.271C113.271 58.5202 113.249 58.0338 113.279 57.5501C113.296 57.257 113.18 57.0895 112.967 56.9105C111.903 56.0196 110.782 55.1725 109.813 54.1818C108.297 52.63 107.555 50.6915 107.4 48.5304C107.4 48.4778 107.4 48.4244 107.4 48.3442H111.666C111.666 47.9994 111.666 47.6814 111.666 47.3643C111.671 46.6819 112.111 46.2017 112.731 46.2C113.351 46.1982 113.801 46.681 113.801 47.358C113.807 47.6627 113.806 47.9736 113.806 48.3326Z" fill="white"/>
<path d="M118.454 53.6758C118.042 53.6758 117.693 53.6811 117.344 53.6758C116.69 53.6633 116.197 53.1987 116.199 52.6077C116.201 52.0167 116.691 51.5556 117.35 51.544C117.698 51.5387 118.047 51.544 118.434 51.544V48.346H121.806C121.806 48.0059 121.806 47.6891 121.806 47.3713C121.811 46.6859 122.265 46.2062 122.915 46.2C123.565 46.1937 124.045 46.6806 124.05 47.3811C124.05 47.6811 124.05 47.981 124.05 48.321H127.4C127.373 49.1639 127.22 49.9989 126.946 50.8008C126.384 52.4859 125.321 53.9798 123.886 55.1017C123.105 55.7212 122.319 56.3333 121.526 56.938C121.326 57.0902 121.228 57.2388 121.24 57.4925C121.263 57.9892 121.247 58.4867 121.247 59.0003H118.454V53.6758Z" fill="white"/>
<path d="M124.03 42.9941V40.1382C123.657 40.1382 123.31 40.1429 122.964 40.1382C122.289 40.1268 121.79 39.627 121.799 38.9787C121.808 38.3304 122.299 37.8659 122.963 37.8554C123.31 37.8554 123.658 37.8554 124.038 37.8554C124.038 37.1357 124.038 36.4484 124.038 35.7611C124.038 35.1813 124.22 34.9995 124.796 34.9995H132.252C132.82 34.9995 132.999 35.1899 132.999 35.7725C132.999 37.9265 132.999 40.0804 132.999 42.2344C132.999 42.8122 132.812 42.996 132.239 42.996C131.784 42.996 131.329 42.996 130.875 42.996C130.841 42.9919 130.808 42.9849 130.776 42.975C130.715 42.2211 130.426 41.5709 129.789 41.1216C129.364 40.8175 128.848 40.6763 128.332 40.7227C127.211 40.8112 126.412 41.6746 126.26 42.9998H124.029L124.03 42.9941Z" fill="white"/>
<path d="M117.001 45.3643V46.9797H114.884C114.664 45.569 113.829 44.7641 112.632 44.7971C111.511 44.8283 110.679 45.6828 110.534 46.9999H107.4C107.479 42.7394 111.406 37.9824 116.992 38.2073V40.9267C116.311 40.9809 115.723 41.2452 115.299 41.8207C114.989 42.2338 114.834 42.7478 114.865 43.2681C114.917 44.386 115.729 45.19 117.001 45.3643Z" fill="white"/>
<path d="M117.434 60.601C118.919 60.601 120.406 60.5977 121.891 60.6056C122.073 60.6056 122.314 60.6314 122.42 60.7119C122.544 60.805 122.635 60.9878 122.586 61.1014C122.538 61.2149 122.312 61.3054 122.14 61.3813C122.062 61.4156 121.928 61.3932 121.82 61.3932H113.012C112.94 61.3932 112.867 61.3932 112.795 61.3932C112.432 61.3773 112.189 61.2103 112.2 60.9859C112.209 60.772 112.446 60.6109 112.795 60.605C113.302 60.5971 113.81 60.605 114.317 60.605L117.434 60.601Z" fill="white"/>
<path d="M120.202 65.4004C119.975 66.3155 118.75 67.0051 117.382 67.0004C116.034 66.9957 114.813 66.2986 114.602 65.4004H120.202Z" fill="white"/>
<path d="M117.401 63.7998C116.415 63.7998 115.428 63.7998 114.443 63.7998C114.036 63.7998 113.801 63.6519 113.799 63.4001C113.796 63.1483 114.033 63.0004 114.437 63.0004C116.41 63.0004 118.382 63.0004 120.355 63.0004C120.761 63.0004 120.997 63.1489 120.999 63.4001C121.001 63.6512 120.764 63.7998 120.36 63.7998C119.374 63.8011 118.387 63.7998 117.401 63.7998Z" fill="white"/>
<defs>
<filter id="filter0_d_224_1510" x="39.2369" y="17.6317" width="215.001" height="266.785" filterUnits="userSpaceOnUse" color-interpolation-filters="sRGB">
<feFlood flood-opacity="0" result="BackgroundImageFix"/>
<feColorMatrix in="SourceAlpha" type="matrix" values="0 0 0 0 0 0 0 0 0 0 0 0 0 0 0 0 0 0 127 0" result="hardAlpha"/>
<feOffset dy="2.8317"/>
<feGaussianBlur stdDeviation="10.6189"/>
<feComposite in2="hardAlpha" operator="out"/>
<feColorMatrix type="matrix" values="0 0 0 0 0 0 0 0 0 0 0 0 0 0 0 0 0 0 0.15 0"/>
<feBlend mode="normal" in2="BackgroundImageFix" result="effect1_dropShadow_224_1510"/>
<feBlend mode="normal" in="SourceGraphic" in2="effect1_dropShadow_224_1510" result="shape"/>
</filter>
<filter id="filter1_d_224_1510" x="0.158745" y="32.429" width="239.138" height="237.204" filterUnits="userSpaceOnUse" color-interpolation-filters="sRGB">
<feFlood flood-opacity="0" result="BackgroundImageFix"/>
<feColorMatrix in="SourceAlpha" type="matrix" values="0 0 0 0 0 0 0 0 0 0 0 0 0 0 0 0 0 0 127 0" result="hardAlpha"/>
<feOffset dy="2.8317"/>
<feGaussianBlur stdDeviation="10.6189"/>
<feComposite in2="hardAlpha" operator="out"/>
<feColorMatrix type="matrix" values="0 0 0 0 0 0 0 0 0 0 0 0 0 0 0 0 0 0 0.15 0"/>
<feBlend mode="normal" in2="BackgroundImageFix" result="effect1_dropShadow_224_1510"/>
<feBlend mode="normal" in="SourceGraphic" in2="effect1_dropShadow_224_1510" result="shape"/>
</filter>
<filter id="filter2_d_224_1510" x="5.60601" y="40.2912" width="228.241" height="223.288" filterUnits="userSpaceOnUse" color-interpolation-filters="sRGB">
<feFlood flood-opacity="0" result="BackgroundImageFix"/>
<feColorMatrix in="SourceAlpha" type="matrix" values="0 0 0 0 0 0 0 0 0 0 0 0 0 0 0 0 0 0 127 0" result="hardAlpha"/>
<feOffset dy="2.8317"/>
<feGaussianBlur stdDeviation="10.6189"/>
<feComposite in2="hardAlpha" operator="out"/>
<feColorMatrix type="matrix" values="0 0 0 0 0 0 0 0 0 0 0 0 0 0 0 0 0 0 0.15 0"/>
<feBlend mode="normal" in2="BackgroundImageFix" result="effect1_dropShadow_224_1510"/>
<feBlend mode="normal" in="SourceGraphic" in2="effect1_dropShadow_224_1510" result="shape"/>
</filter>
<filter id="filter3_d_224_1510" x="66.3326" y="0.155757" width="107.993" height="107.352" filterUnits="userSpaceOnUse" color-interpolation-filters="sRGB">
<feFlood flood-opacity="0" result="BackgroundImageFix"/>
<feColorMatrix in="SourceAlpha" type="matrix" values="0 0 0 0 0 0 0 0 0 0 0 0 0 0 0 0 0 0 127 0" result="hardAlpha"/>
<feOffset dy="2.8317"/>
<feGaussianBlur stdDeviation="10.6189"/>
<feComposite in2="hardAlpha" operator="out"/>
<feColorMatrix type="matrix" values="0 0 0 0 0 0 0 0 0 0 0 0 0 0 0 0 0 0 0.15 0"/>
<feBlend mode="normal" in2="BackgroundImageFix" result="effect1_dropShadow_224_1510"/>
<feBlend mode="normal" in="SourceGraphic" in2="effect1_dropShadow_224_1510" result="shape"/>
</filter>
</defs>
</svg>
