<svg width="255" height="285" viewBox="0 0 255 285" fill="none" xmlns="http://www.w3.org/2000/svg">
<path d="M62.1381 208.648C61.9123 208.649 61.6886 208.605 61.4801 208.519C61.2715 208.434 61.0821 208.308 60.9229 208.149L60.1209 207.358C59.8099 207.036 59.6385 206.607 59.6433 206.162C59.6481 205.717 59.8288 205.291 60.1466 204.977C60.4645 204.662 60.8941 204.483 61.3436 204.478C61.793 204.474 62.2265 204.643 62.551 204.951L63.3531 205.743C63.5934 205.981 63.757 206.284 63.8233 206.614C63.8895 206.944 63.8555 207.287 63.7255 207.598C63.5954 207.908 63.3752 208.174 63.0926 208.361C62.8101 208.548 62.4779 208.648 62.1381 208.648ZM53.3268 199.923C53.1011 199.924 52.8776 199.88 52.669 199.794C52.4605 199.709 52.2711 199.583 52.1118 199.425L51.3121 198.633C50.9898 198.314 50.8086 197.882 50.8084 197.431C50.8082 196.979 50.9889 196.547 51.3109 196.228C51.6328 195.909 52.0696 195.729 52.5251 195.729C52.9806 195.729 53.4176 195.908 53.7399 196.227L54.542 197.021C54.7826 197.258 54.9465 197.562 55.013 197.892C55.0794 198.222 55.0454 198.564 54.9153 198.875C54.7852 199.186 54.5647 199.451 54.2819 199.638C53.9991 199.825 53.6667 199.924 53.3268 199.923ZM44.5229 191.199C44.0674 191.199 43.6304 191.021 43.3078 190.702L42.5081 189.908C42.3428 189.751 42.2109 189.564 42.1199 189.356C42.029 189.148 41.9809 188.924 41.9784 188.697C41.976 188.471 42.0192 188.246 42.1056 188.036C42.1921 187.827 42.3199 187.636 42.4817 187.476C42.6435 187.316 42.836 187.189 43.0479 187.103C43.2597 187.018 43.4867 186.975 43.7155 186.977C43.9443 186.98 44.1703 187.027 44.3803 187.118C44.5903 187.208 44.7799 187.338 44.9382 187.502L45.738 188.296C45.9786 188.534 46.1425 188.837 46.2089 189.167C46.2754 189.497 46.2414 189.839 46.1113 190.15C45.9811 190.461 45.7607 190.727 45.4779 190.913C45.1951 191.1 44.8627 191.199 44.5229 191.199ZM35.7117 182.476C35.256 182.476 34.819 182.297 34.4966 181.978L33.6969 181.183C33.3859 180.862 33.2145 180.433 33.2193 179.988C33.2241 179.543 33.4048 179.117 33.7226 178.803C34.0404 178.488 34.4702 178.309 34.9196 178.304C35.3691 178.299 35.8025 178.469 36.1271 178.777L36.9268 179.571C37.167 179.809 37.3306 180.113 37.3969 180.443C37.4632 180.773 37.4292 181.115 37.2991 181.426C37.1691 181.737 36.9488 182.002 36.6663 182.189C36.3837 182.376 36.0516 182.476 35.7117 182.476ZM26.9005 173.752C26.6752 173.752 26.4521 173.708 26.244 173.622C26.0359 173.536 25.8469 173.411 25.6878 173.253L24.8857 172.459C24.7263 172.301 24.5999 172.113 24.5136 171.907C24.4274 171.7 24.3832 171.479 24.3833 171.256C24.3834 171.033 24.4279 170.811 24.5143 170.605C24.6008 170.399 24.7274 170.211 24.8869 170.054C25.0465 169.896 25.2359 169.771 25.4443 169.685C25.6527 169.6 25.8761 169.556 26.1016 169.556C26.3272 169.556 26.5505 169.6 26.7589 169.686C26.9672 169.771 27.1565 169.897 27.3159 170.055L28.1156 170.847C28.3559 171.085 28.5195 171.388 28.5858 171.718C28.652 172.048 28.618 172.39 28.488 172.701C28.3579 173.012 28.1377 173.278 27.8551 173.465C27.5726 173.652 27.2404 173.752 26.9005 173.752ZM18.0917 165.027C17.8659 165.028 17.6422 164.984 17.4336 164.898C17.225 164.813 17.0357 164.687 16.8766 164.528L16.0746 163.736C15.7722 163.414 15.6079 162.988 15.6161 162.547C15.6243 162.107 15.8044 161.687 16.1186 161.376C16.4328 161.065 16.8566 160.886 17.3011 160.877C17.7456 160.869 18.1761 161.031 18.5023 161.33L19.3045 162.122C19.5447 162.36 19.7083 162.663 19.7745 162.993C19.8408 163.323 19.8068 163.665 19.6768 163.976C19.5467 164.287 19.3265 164.553 19.0439 164.74C18.7614 164.927 18.4292 165.027 18.0893 165.027H18.0917ZM10.0421 155.714C9.70961 155.713 9.38438 155.617 9.10568 155.438C8.82697 155.258 8.60667 155.003 8.47128 154.702C8.30179 154.321 8.14185 153.927 7.99384 153.534C7.85373 153.111 7.88651 152.651 8.08511 152.252C8.28371 151.852 8.63234 151.546 9.05631 151.398C9.48029 151.251 9.94587 151.273 10.3532 151.461C10.7606 151.649 11.0774 151.988 11.2357 152.404C11.3455 152.712 11.4744 153.021 11.6033 153.322C11.7194 153.581 11.7683 153.864 11.7456 154.147C11.7229 154.429 11.6292 154.702 11.4732 154.94C11.3171 155.177 11.1037 155.372 10.8521 155.508C10.6005 155.643 10.3188 155.714 10.0325 155.714H10.0421ZM10.1924 143.753C9.93791 143.753 9.68663 143.697 9.45723 143.588C9.25331 143.492 9.07043 143.357 8.91912 143.191C8.7678 143.026 8.65098 142.832 8.57537 142.621C8.49976 142.411 8.46682 142.187 8.47845 141.964C8.49008 141.741 8.54606 141.522 8.64315 141.321C8.82458 140.945 9.02032 140.571 9.2304 140.21C9.34086 140.012 9.48995 139.838 9.66897 139.698C9.84798 139.558 10.0534 139.455 10.2731 139.394C10.4929 139.334 10.7226 139.317 10.9489 139.345C11.1753 139.373 11.3936 139.446 11.5914 139.559C11.7891 139.671 11.9622 139.822 12.1006 140.001C12.239 140.181 12.3399 140.386 12.3975 140.604C12.455 140.823 12.4681 141.051 12.4358 141.274C12.4036 141.498 12.3267 141.713 12.2096 141.907C12.0449 142.191 11.8898 142.486 11.7465 142.781C11.6064 143.074 11.3851 143.32 11.1086 143.492C10.8321 143.664 10.5118 143.755 10.1853 143.753H10.1924ZM18.3472 134.513C18.0073 134.513 17.6751 134.413 17.3925 134.226C17.11 134.039 16.8898 133.773 16.7597 133.462C16.6297 133.151 16.5956 132.809 16.6619 132.479C16.7282 132.149 16.8918 131.846 17.1321 131.608L17.9342 130.814C18.0901 130.641 18.28 130.501 18.4924 130.403C18.7047 130.306 18.935 130.252 19.1691 130.245C19.4031 130.239 19.636 130.28 19.8535 130.366C20.071 130.452 20.2685 130.581 20.4338 130.745C20.5992 130.909 20.7289 131.105 20.815 131.321C20.9011 131.536 20.9418 131.767 20.9346 131.999C20.9275 132.231 20.8726 132.458 20.7733 132.668C20.674 132.878 20.5324 133.066 20.3572 133.22L19.5551 134.014C19.3957 134.172 19.2063 134.298 18.9978 134.384C18.7893 134.469 18.5657 134.513 18.34 134.513H18.3472ZM27.1583 125.788C26.8185 125.788 26.4863 125.688 26.2037 125.501C25.9212 125.314 25.701 125.048 25.5709 124.738C25.4409 124.427 25.4068 124.085 25.4731 123.754C25.5393 123.424 25.703 123.121 25.9432 122.883L26.7453 122.091C26.9048 121.933 27.094 121.808 27.3023 121.722C27.5107 121.637 27.734 121.593 27.9596 121.593C28.1851 121.592 28.4085 121.636 28.6169 121.722C28.8254 121.807 29.0148 121.932 29.1743 122.09C29.3339 122.248 29.4605 122.435 29.5469 122.642C29.6334 122.848 29.6778 123.069 29.678 123.292C29.6781 123.516 29.6338 123.737 29.5476 123.943C29.4614 124.15 29.3349 124.337 29.1755 124.495L28.3734 125.289C28.213 125.448 28.0224 125.574 27.8127 125.66C27.6029 125.745 27.3781 125.789 27.1512 125.788H27.1583ZM35.9695 117.064C35.6296 117.063 35.2974 116.964 35.0149 116.777C34.7323 116.59 34.5121 116.324 34.3821 116.013C34.252 115.702 34.218 115.36 34.2843 115.03C34.3506 114.7 34.5142 114.396 34.7544 114.158L35.5565 113.367C35.8811 113.059 36.3145 112.889 36.764 112.894C37.2134 112.898 37.6431 113.077 37.9609 113.392C38.2787 113.707 38.4595 114.132 38.4643 114.577C38.4691 115.022 38.2977 115.452 37.9867 115.773L37.1846 116.565C37.0244 116.724 36.8339 116.85 36.624 116.936C36.4142 117.021 36.1893 117.065 35.9623 117.064H35.9695ZM44.7807 108.339C44.4408 108.339 44.1086 108.239 43.826 108.052C43.5435 107.865 43.3233 107.599 43.1932 107.288C43.0632 106.977 43.0292 106.635 43.0954 106.305C43.1617 105.975 43.3253 105.672 43.5656 105.434L44.3653 104.642C44.6899 104.334 45.1233 104.164 45.5727 104.169C46.0222 104.174 46.4519 104.353 46.7697 104.667C47.0875 104.982 47.2682 105.408 47.273 105.853C47.2779 106.298 47.1064 106.727 46.7955 107.048L45.9957 107.84C45.8356 107.999 45.6451 108.125 45.4353 108.211C45.2254 108.297 45.0005 108.34 44.7735 108.339H44.7807ZM53.5942 99.6141C53.2549 99.6135 52.9233 99.5135 52.6412 99.3266C52.3592 99.1397 52.1393 98.8743 52.0094 98.5638C51.8794 98.2534 51.8452 97.9118 51.911 97.5822C51.9768 97.2525 52.1397 96.9495 52.3791 96.7114L53.1789 95.9171C53.3372 95.7535 53.5268 95.6229 53.7368 95.5328C53.9468 95.4428 54.1728 95.3951 54.4016 95.3927C54.6304 95.3903 54.8574 95.4331 55.0692 95.5187C55.2811 95.6043 55.4736 95.7309 55.6354 95.8911C55.7972 96.0513 55.925 96.2419 56.0115 96.4517C56.0979 96.6614 56.1411 96.8862 56.1387 97.1128C56.1362 97.3393 56.0881 97.5631 55.9972 97.771C55.9062 97.9789 55.7743 98.1667 55.609 98.3235L54.8093 99.1153C54.65 99.2737 54.4607 99.3993 54.2521 99.4849C54.0436 99.5705 53.82 99.6144 53.5942 99.6141ZM62.4054 90.8894C62.0655 90.8899 61.7331 90.7906 61.4503 90.6038C61.1676 90.4171 60.9471 90.1515 60.817 89.8406C60.6868 89.5297 60.6529 89.1875 60.7193 88.8575C60.7858 88.5274 60.9497 88.2244 61.1903 87.9867L61.4577 87.7196C61.7822 87.4117 62.2157 87.2419 62.6652 87.2467C63.1146 87.2514 63.5443 87.4304 63.8621 87.7451C64.1799 88.0598 64.3606 88.4852 64.3655 88.9303C64.3703 89.3753 64.1988 89.8045 63.8879 90.1259L63.6181 90.393C63.4578 90.5519 63.2672 90.6776 63.0574 90.7628C62.8475 90.8481 62.6227 90.8911 62.3959 90.8894H62.4054Z" fill="#3A5A85"/>
<g filter="url(#filter0_d_224_7145)">
<path d="M119.775 260.347C117.575 260.35 115.396 259.923 113.364 259.091C111.331 258.258 109.484 257.037 107.929 255.496L60.5195 208.552L63.759 205.344L111.171 252.289C113.454 254.546 116.548 255.814 119.775 255.814C123.001 255.814 126.095 254.546 128.378 252.289L224.898 156.716C227.178 154.456 228.459 151.391 228.459 148.196C228.459 145.001 227.178 141.936 224.898 139.676L128.378 44.1057C126.095 41.8481 123.001 40.5801 119.775 40.5801C116.548 40.5801 113.454 41.8481 111.171 44.1057L64.2865 90.5303L61.0447 87.3227L107.929 40.898C109.484 39.3572 111.331 38.1348 113.363 37.3008C115.395 36.4669 117.574 36.0376 119.774 36.0376C121.973 36.0376 124.152 36.4669 126.184 37.3008C128.216 38.1348 130.063 39.3572 131.618 40.898L228.14 136.47C231.281 139.581 233.045 143.8 233.045 148.198C233.045 152.597 231.281 156.816 228.14 159.926L131.618 255.499C130.063 257.039 128.217 258.261 126.185 259.093C124.152 259.925 121.974 260.351 119.775 260.347Z" fill="#3A5A85"/>
</g>
<g filter="url(#filter1_d_224_7145)">
<path d="M109.12 241.19L25.8569 158.749C24.4577 157.364 23.3477 155.719 22.5905 153.909C21.8332 152.099 21.4434 150.16 21.4434 148.2C21.4434 146.241 21.8332 144.301 22.5905 142.492C23.3477 140.682 24.4577 139.037 25.8569 137.652L109.12 55.2034C111.946 52.4063 115.779 50.835 119.774 50.835C123.77 50.835 127.602 52.4063 130.428 55.2034L213.692 137.652C215.091 139.037 216.201 140.682 216.958 142.492C217.715 144.301 218.105 146.241 218.105 148.2C218.105 150.16 217.715 152.099 216.958 153.909C216.201 155.719 215.091 157.364 213.692 158.749L130.428 241.195C129.029 242.58 127.368 243.679 125.54 244.429C123.711 245.178 121.752 245.564 119.773 245.563C117.795 245.563 115.835 245.176 114.008 244.426C112.18 243.676 110.519 242.576 109.12 241.19Z" fill="white"/>
</g>
<g filter="url(#filter2_d_224_7145)">
<path d="M105.777 233.759L32.7289 161.427C30.8862 159.605 29.4243 157.441 28.4268 155.059C27.4294 152.677 26.916 150.124 26.916 147.545C26.916 144.966 27.4294 142.413 28.4268 140.031C29.4243 137.648 30.8862 135.484 32.7289 133.662L105.777 64.4484C107.619 62.6251 109.805 61.1787 112.21 60.192C114.616 59.2052 117.195 58.6973 119.799 58.6973C122.403 58.6973 124.981 59.2052 127.387 60.192C129.793 61.1787 131.979 62.6251 133.82 64.4484L206.868 133.662C208.711 135.484 210.173 137.648 211.17 140.031C212.168 142.413 212.681 144.966 212.681 147.545C212.681 150.124 212.168 152.677 211.17 155.059C210.173 157.441 208.711 159.605 206.868 161.427L133.82 233.759C131.979 235.582 129.793 237.029 127.387 238.015C124.981 239.002 122.403 239.51 119.799 239.51C117.195 239.51 114.616 239.002 112.21 238.015C109.805 237.029 107.619 235.582 105.777 233.759Z" fill="white"/>
</g>
<path d="M121.229 149.77V148.135L124.833 142.862C124.376 142.885 123.74 142.897 122.926 142.897H121.335V140.823H127.602V142.466L124.077 147.678C124.329 147.667 125.006 147.661 126.107 147.661H127.672V149.77H121.229Z" fill="#565656"/>
<g filter="url(#filter3_d_224_7145)">
<path d="M142.837 73.8117C155.631 61.1438 155.631 40.6051 142.837 27.9372C130.044 15.2693 109.302 15.2693 96.5083 27.9372C83.7149 40.6051 83.7149 61.1439 96.5083 73.8118C109.302 86.4796 130.044 86.4796 142.837 73.8117Z" fill="#3A5A85"/>
</g>
<path d="M134.357 60.4898C134.325 60.5773 134.292 60.6648 134.26 60.753C134.02 61.4319 133.401 61.8965 132.675 61.8995C130.347 61.9081 128.019 61.9081 125.691 61.8995C125.243 61.8957 124.815 61.7183 124.5 61.4059C124.185 61.0935 124.008 60.6715 124.009 60.2318C124.002 55.6897 124.002 51.1473 124.009 46.6046C124.009 46.1648 124.186 45.7429 124.502 45.431C124.818 45.1191 125.247 44.9425 125.694 44.9399C128.022 44.9289 130.351 44.9289 132.679 44.9399C133.027 44.9446 133.365 45.0547 133.647 45.255C133.929 45.4553 134.141 45.7362 134.254 46.0593C134.29 46.1558 134.325 46.2531 134.36 46.3504L134.357 60.4898ZM129.182 59.3584C129.46 59.3584 129.737 59.3629 130.014 59.3584C130.525 59.3486 130.902 58.9896 130.905 58.5159C130.908 58.0422 130.532 57.6711 130.025 57.6643C129.461 57.6568 128.897 57.6568 128.334 57.6643C128.219 57.6603 128.104 57.6791 127.996 57.7195C127.888 57.7599 127.79 57.8211 127.707 57.8995C127.623 57.978 127.557 58.072 127.511 58.1761C127.466 58.2802 127.442 58.3922 127.441 58.5056C127.44 58.6189 127.463 58.7312 127.507 58.8358C127.551 58.9405 127.616 59.0353 127.699 59.1148C127.781 59.1942 127.879 59.2567 127.986 59.2984C128.093 59.3401 128.208 59.3602 128.324 59.3576C128.609 59.3637 128.896 59.3576 129.182 59.3576V59.3584ZM130.042 48.3266C130.042 48.1592 129.991 47.9956 129.895 47.8567C129.8 47.7179 129.665 47.6098 129.507 47.5464C129.349 47.483 129.176 47.4669 129.009 47.5004C128.842 47.5338 128.689 47.6152 128.569 47.7342C128.449 47.8532 128.368 48.0045 128.335 48.1689C128.303 48.3333 128.321 48.5034 128.387 48.6577C128.454 48.8119 128.565 48.9433 128.708 49.0353C128.85 49.1273 129.017 49.1757 129.188 49.1744C129.415 49.1702 129.631 49.0793 129.791 48.921C129.95 48.7626 130.04 48.5493 130.042 48.3266Z" fill="white"/>
<path d="M122.284 56.7999H106.645V56.4846C106.645 51.8378 106.645 47.1911 106.645 42.5443C106.645 40.9151 107.741 39.8418 109.405 39.8418H129.87C131.551 39.8418 132.635 40.9106 132.635 42.5677V43.236H132.297C130.151 43.236 128.005 43.236 125.858 43.236C123.784 43.236 122.285 44.7098 122.284 46.7448C122.284 49.9781 122.284 53.2113 122.284 56.4446L122.284 56.7999Z" fill="white"/>
<path d="M122.269 58.5098C122.337 59.6668 122.078 60.8246 122.77 61.9039H106.759C105.633 61.9039 104.915 61.1927 104.915 60.0809C104.915 59.8358 104.908 59.5906 104.915 59.3462C104.919 59.1268 105.009 58.9172 105.166 58.7615C105.324 58.6058 105.537 58.5161 105.76 58.5113C105.827 58.5113 105.895 58.5113 105.962 58.5113H122.272L122.269 58.5098Z" fill="white"/>
<defs>
<filter id="filter0_d_224_7145" x="39.2818" y="17.6316" width="215.001" height="266.785" filterUnits="userSpaceOnUse" color-interpolation-filters="sRGB">
<feFlood flood-opacity="0" result="BackgroundImageFix"/>
<feColorMatrix in="SourceAlpha" type="matrix" values="0 0 0 0 0 0 0 0 0 0 0 0 0 0 0 0 0 0 127 0" result="hardAlpha"/>
<feOffset dy="2.8317"/>
<feGaussianBlur stdDeviation="10.6189"/>
<feComposite in2="hardAlpha" operator="out"/>
<feColorMatrix type="matrix" values="0 0 0 0 0 0 0 0 0 0 0 0 0 0 0 0 0 0 0.15 0"/>
<feBlend mode="normal" in2="BackgroundImageFix" result="effect1_dropShadow_224_7145"/>
<feBlend mode="normal" in="SourceGraphic" in2="effect1_dropShadow_224_7145" result="shape"/>
</filter>
<filter id="filter1_d_224_7145" x="0.20562" y="32.4289" width="239.138" height="237.204" filterUnits="userSpaceOnUse" color-interpolation-filters="sRGB">
<feFlood flood-opacity="0" result="BackgroundImageFix"/>
<feColorMatrix in="SourceAlpha" type="matrix" values="0 0 0 0 0 0 0 0 0 0 0 0 0 0 0 0 0 0 127 0" result="hardAlpha"/>
<feOffset dy="2.8317"/>
<feGaussianBlur stdDeviation="10.6189"/>
<feComposite in2="hardAlpha" operator="out"/>
<feColorMatrix type="matrix" values="0 0 0 0 0 0 0 0 0 0 0 0 0 0 0 0 0 0 0.15 0"/>
<feBlend mode="normal" in2="BackgroundImageFix" result="effect1_dropShadow_224_7145"/>
<feBlend mode="normal" in="SourceGraphic" in2="effect1_dropShadow_224_7145" result="shape"/>
</filter>
<filter id="filter2_d_224_7145" x="5.67828" y="40.2912" width="228.241" height="223.288" filterUnits="userSpaceOnUse" color-interpolation-filters="sRGB">
<feFlood flood-opacity="0" result="BackgroundImageFix"/>
<feColorMatrix in="SourceAlpha" type="matrix" values="0 0 0 0 0 0 0 0 0 0 0 0 0 0 0 0 0 0 127 0" result="hardAlpha"/>
<feOffset dy="2.8317"/>
<feGaussianBlur stdDeviation="10.6189"/>
<feComposite in2="hardAlpha" operator="out"/>
<feColorMatrix type="matrix" values="0 0 0 0 0 0 0 0 0 0 0 0 0 0 0 0 0 0 0.15 0"/>
<feBlend mode="normal" in2="BackgroundImageFix" result="effect1_dropShadow_224_7145"/>
<feBlend mode="normal" in="SourceGraphic" in2="effect1_dropShadow_224_7145" result="shape"/>
</filter>
<filter id="filter3_d_224_7145" x="65.6763" y="0.0304823" width="107.993" height="107.351" filterUnits="userSpaceOnUse" color-interpolation-filters="sRGB">
<feFlood flood-opacity="0" result="BackgroundImageFix"/>
<feColorMatrix in="SourceAlpha" type="matrix" values="0 0 0 0 0 0 0 0 0 0 0 0 0 0 0 0 0 0 127 0" result="hardAlpha"/>
<feOffset dy="2.8317"/>
<feGaussianBlur stdDeviation="10.6189"/>
<feComposite in2="hardAlpha" operator="out"/>
<feColorMatrix type="matrix" values="0 0 0 0 0 0 0 0 0 0 0 0 0 0 0 0 0 0 0.15 0"/>
<feBlend mode="normal" in2="BackgroundImageFix" result="effect1_dropShadow_224_7145"/>
<feBlend mode="normal" in="SourceGraphic" in2="effect1_dropShadow_224_7145" result="shape"/>
</filter>
</defs>
</svg>
