<svg width="255" height="285" viewBox="0 0 255 285" fill="none" xmlns="http://www.w3.org/2000/svg">
<path d="M62.2299 208.649C62.0041 208.649 61.7804 208.605 61.5719 208.52C61.3633 208.434 61.1739 208.309 61.0147 208.15L60.2127 207.358C59.9017 207.037 59.7303 206.607 59.7351 206.162C59.7399 205.717 59.9206 205.292 60.2384 204.977C60.5563 204.663 60.9859 204.484 61.4354 204.479C61.8848 204.474 62.3183 204.644 62.6428 204.952L63.4449 205.744C63.6852 205.982 63.8488 206.285 63.9151 206.615C63.9813 206.945 63.9473 207.287 63.8173 207.598C63.6872 207.909 63.467 208.175 63.1844 208.362C62.9019 208.549 62.5697 208.649 62.2299 208.649ZM53.4186 199.924C53.1929 199.924 52.9694 199.88 52.7608 199.795C52.5523 199.709 52.3629 199.584 52.2036 199.425L51.4039 198.633C51.0816 198.315 50.9004 197.882 50.9002 197.431C50.9 196.98 51.0807 196.547 51.4027 196.228C51.7246 195.909 52.1614 195.73 52.6169 195.73C53.0724 195.729 53.5094 195.908 53.8317 196.227L54.6337 197.021C54.8744 197.259 55.0383 197.562 55.1048 197.892C55.1712 198.222 55.1372 198.564 55.0071 198.875C54.877 199.186 54.6565 199.452 54.3737 199.638C54.0909 199.825 53.7585 199.925 53.4186 199.924ZM44.6147 191.199C44.1592 191.2 43.7222 191.021 43.3995 190.703L42.5999 189.909C42.4346 189.752 42.3027 189.564 42.2117 189.356C42.1208 189.148 42.0727 188.924 42.0702 188.698C42.0678 188.471 42.111 188.247 42.1974 188.037C42.2839 187.827 42.4117 187.636 42.5735 187.476C42.7353 187.316 42.9278 187.189 43.1397 187.104C43.3515 187.018 43.5785 186.975 43.8073 186.978C44.0361 186.98 44.2621 187.028 44.4721 187.118C44.6821 187.208 44.8717 187.339 45.03 187.502L45.8298 188.297C46.0704 188.534 46.2343 188.837 46.3007 189.167C46.3672 189.497 46.3332 189.84 46.2031 190.15C46.0729 190.461 45.8525 190.727 45.5697 190.914C45.2869 191.1 44.9545 191.2 44.6147 191.199ZM35.8035 182.477C35.3478 182.477 34.9108 182.297 34.5884 181.978L33.7887 181.184C33.4777 180.863 33.3063 180.433 33.3111 179.988C33.3159 179.543 33.4966 179.118 33.8144 178.803C34.1322 178.488 34.562 178.309 35.0114 178.305C35.4608 178.3 35.8943 178.47 36.2189 178.778L37.0186 179.572C37.2588 179.81 37.4224 180.113 37.4887 180.443C37.555 180.773 37.521 181.115 37.3909 181.426C37.2609 181.737 37.0406 182.003 36.7581 182.19C36.4755 182.377 36.1434 182.477 35.8035 182.477ZM26.9923 173.752C26.7669 173.752 26.5439 173.708 26.3358 173.623C26.1276 173.537 25.9387 173.412 25.7796 173.253L24.9775 172.459C24.8181 172.301 24.6916 172.114 24.6054 171.907C24.5192 171.701 24.475 171.48 24.4751 171.256C24.4752 171.033 24.5197 170.812 24.6061 170.606C24.6926 170.399 24.8192 170.212 24.9787 170.054C25.1383 169.896 25.3276 169.771 25.5361 169.686C25.7445 169.6 25.9679 169.556 26.1934 169.557C26.419 169.557 26.6423 169.601 26.8507 169.686C27.059 169.772 27.2483 169.897 27.4077 170.055L28.2074 170.847C28.4477 171.085 28.6113 171.388 28.6776 171.718C28.7438 172.048 28.7098 172.391 28.5798 172.702C28.4497 173.012 28.2295 173.278 27.9469 173.465C27.6644 173.652 27.3322 173.752 26.9923 173.752ZM18.1835 165.027C17.9577 165.028 17.734 164.984 17.5254 164.899C17.3168 164.813 17.1275 164.687 16.9684 164.529L16.1664 163.737C15.864 163.414 15.6997 162.988 15.7079 162.548C15.7161 162.108 15.8962 161.688 16.2104 161.376C16.5246 161.065 16.9484 160.886 17.3929 160.878C17.8374 160.869 18.2679 161.031 18.5941 161.331L19.3962 162.122C19.6365 162.36 19.8001 162.664 19.8663 162.994C19.9326 163.324 19.8986 163.666 19.7685 163.977C19.6385 164.288 19.4183 164.553 19.1357 164.74C18.8532 164.928 18.521 165.027 18.1811 165.027H18.1835ZM10.1339 155.714C9.8014 155.714 9.47618 155.618 9.19747 155.438C8.91877 155.259 8.69846 155.003 8.56308 154.702C8.39359 154.322 8.23365 153.927 8.08564 153.535C7.94552 153.112 7.9783 152.651 8.17691 152.252C8.37551 151.853 8.72413 151.547 9.14811 151.399C9.57208 151.251 10.0377 151.274 10.445 151.462C10.8524 151.65 11.1692 151.988 11.3275 152.405C11.4373 152.712 11.5662 153.022 11.6951 153.322C11.8112 153.581 11.8601 153.865 11.8374 154.147C11.8147 154.43 11.721 154.702 11.565 154.94C11.4089 155.178 11.1955 155.373 10.9439 155.508C10.6923 155.643 10.4106 155.714 10.1243 155.714H10.1339ZM10.2842 143.753C10.0297 143.754 9.77843 143.697 9.54903 143.588C9.3451 143.492 9.16223 143.358 9.01091 143.192C8.8596 143.026 8.74278 142.832 8.66717 142.622C8.59156 142.411 8.55862 142.188 8.57025 141.965C8.58188 141.742 8.63785 141.523 8.73495 141.321C8.91638 140.945 9.11212 140.572 9.32219 140.21C9.43265 140.013 9.58174 139.839 9.76076 139.699C9.93978 139.559 10.1452 139.455 10.3649 139.395C10.5847 139.334 10.8144 139.317 11.0407 139.346C11.2671 139.374 11.4854 139.446 11.6832 139.559C11.8809 139.672 12.054 139.822 12.1924 140.002C12.3308 140.181 12.4317 140.386 12.4893 140.605C12.5468 140.823 12.5599 141.051 12.5276 141.275C12.4954 141.498 12.4184 141.713 12.3014 141.907C12.1367 142.191 11.9816 142.486 11.8383 142.782C11.6982 143.074 11.4769 143.32 11.2004 143.493C10.9239 143.665 10.6036 143.755 10.2771 143.753H10.2842ZM18.439 134.513C18.0991 134.513 17.7669 134.413 17.4843 134.226C17.2018 134.039 16.9816 133.774 16.8515 133.463C16.7215 133.152 16.6874 132.81 16.7537 132.48C16.82 132.15 16.9836 131.846 17.2239 131.608L18.026 130.814C18.1819 130.641 18.3718 130.501 18.5842 130.404C18.7965 130.306 19.0268 130.252 19.2609 130.246C19.4949 130.24 19.7278 130.281 19.9453 130.366C20.1628 130.452 20.3603 130.581 20.5256 130.746C20.691 130.91 20.8207 131.106 20.9068 131.321C20.9929 131.537 21.0336 131.768 21.0264 131.999C21.0193 132.231 20.9644 132.459 20.8651 132.669C20.7658 132.879 20.6242 133.067 20.449 133.22L19.6469 134.015C19.4875 134.173 19.2981 134.298 19.0896 134.384C18.8811 134.47 18.6575 134.514 18.4318 134.513H18.439ZM27.2501 125.789C26.9103 125.789 26.5781 125.689 26.2955 125.502C26.013 125.315 25.7928 125.049 25.6627 124.738C25.5327 124.427 25.4986 124.085 25.5649 123.755C25.6311 123.425 25.7948 123.122 26.035 122.884L26.8371 122.092C26.9966 121.934 27.1858 121.808 27.3941 121.723C27.6025 121.637 27.8258 121.593 28.0514 121.593C28.2769 121.593 28.5003 121.637 28.7087 121.722C28.9172 121.808 29.1066 121.933 29.2661 122.091C29.4257 122.248 29.5523 122.436 29.6387 122.642C29.7252 122.848 29.7696 123.07 29.7697 123.293C29.7699 123.516 29.7256 123.737 29.6394 123.944C29.5532 124.15 29.4267 124.338 29.2673 124.496L28.4652 125.29C28.3048 125.449 28.1142 125.575 27.9045 125.66C27.6947 125.746 27.4699 125.79 27.243 125.789H27.2501ZM36.0613 117.064C35.7214 117.064 35.3892 116.964 35.1067 116.777C34.8241 116.59 34.6039 116.324 34.4739 116.013C34.3438 115.702 34.3098 115.36 34.3761 115.03C34.4424 114.7 34.606 114.397 34.8462 114.159L35.6483 113.367C35.9729 113.059 36.4063 112.889 36.8558 112.894C37.3052 112.899 37.7349 113.078 38.0527 113.393C38.3705 113.707 38.5513 114.133 38.5561 114.578C38.5609 115.023 38.3895 115.452 38.0785 115.773L37.2764 116.565C37.1162 116.724 36.9257 116.851 36.7158 116.936C36.506 117.022 36.2811 117.065 36.0541 117.064H36.0613ZM44.8725 108.339C44.5326 108.339 44.2004 108.239 43.9178 108.052C43.6353 107.865 43.4151 107.6 43.285 107.289C43.155 106.978 43.121 106.636 43.1872 106.305C43.2535 105.975 43.4171 105.672 43.6574 105.434L44.4571 104.642C44.7817 104.334 45.2151 104.165 45.6645 104.169C46.114 104.174 46.5437 104.353 46.8615 104.668C47.1793 104.983 47.36 105.408 47.3648 105.853C47.3697 106.298 47.1982 106.727 46.8873 107.049L46.0875 107.841C45.9274 108 45.7369 108.126 45.5271 108.211C45.3172 108.297 45.0923 108.341 44.8653 108.339H44.8725ZM53.686 99.6146C53.3467 99.614 53.0151 99.514 52.733 99.3271C52.451 99.1402 52.2311 98.8748 52.1012 98.5643C51.9712 98.2539 51.937 97.9123 52.0028 97.5827C52.0686 97.253 52.2315 96.95 52.4709 96.7119L53.2707 95.9176C53.429 95.754 53.6186 95.6234 53.8286 95.5333C54.0386 95.4433 54.2645 95.3956 54.4933 95.3932C54.7222 95.3908 54.9492 95.4336 55.161 95.5192C55.3729 95.6048 55.5654 95.7314 55.7272 95.8916C55.889 96.0518 56.0168 96.2424 56.1033 96.4521C56.1897 96.6619 56.2329 96.8867 56.2305 97.1132C56.228 97.3398 56.1799 97.5636 56.089 97.7715C55.998 97.9794 55.866 98.1672 55.7008 98.324L54.9011 99.1158C54.7418 99.2742 54.5525 99.3998 54.3439 99.4854C54.1354 99.571 53.9118 99.6149 53.686 99.6146ZM62.4972 90.8899C62.1573 90.8904 61.8249 90.791 61.5421 90.6043C61.2594 90.4176 61.0389 90.152 60.9088 89.8411C60.7786 89.5302 60.7446 89.188 60.8111 88.858C60.8776 88.5279 61.0415 88.2248 61.2821 87.9871L61.5495 87.72C61.874 87.4121 62.3075 87.2424 62.7569 87.2472C63.2064 87.2519 63.636 87.4308 63.9539 87.7455C64.2717 88.0603 64.4524 88.4857 64.4573 88.9308C64.4621 89.3758 64.2906 89.805 63.9797 90.1264L63.7099 90.3935C63.5496 90.5524 63.359 90.6781 63.1492 90.7633C62.9393 90.8485 62.7145 90.8916 62.4877 90.8899H62.4972Z" fill="#3A5A85"/>
<g filter="url(#filter0_d_17098_1764)">
<path d="M119.867 260.347C117.667 260.35 115.488 259.924 113.456 259.091C111.423 258.259 109.576 257.037 108.021 255.497L60.6113 208.552L63.8508 205.344L111.263 252.289C113.546 254.547 116.64 255.815 119.867 255.815C123.093 255.815 126.187 254.547 128.47 252.289L224.99 156.717C227.27 154.456 228.551 151.392 228.551 148.196C228.551 145.001 227.27 141.937 224.99 139.676L128.47 44.1062C126.187 41.8486 123.093 40.5806 119.867 40.5806C116.64 40.5806 113.546 41.8486 111.263 44.1062L64.3783 90.5308L61.1365 87.3232L108.021 40.8985C109.576 39.3576 111.423 38.1353 113.455 37.3013C115.487 36.4673 117.665 36.0381 119.865 36.0381C122.065 36.0381 124.244 36.4673 126.276 37.3013C128.308 38.1353 130.155 39.3576 131.709 40.8985L228.231 136.471C231.372 139.581 233.137 143.8 233.137 148.199C233.137 152.598 231.372 156.816 228.231 159.927L131.709 255.499C130.155 257.04 128.309 258.261 126.276 259.093C124.244 259.925 122.066 260.351 119.867 260.347Z" fill="#3A5A85"/>
</g>
<g filter="url(#filter1_d_17098_1764)">
<path d="M109.212 241.191L25.9487 158.75C24.5495 157.365 23.4395 155.72 22.6823 153.91C21.925 152.1 21.5352 150.161 21.5352 148.201C21.5352 146.242 21.925 144.302 22.6823 142.492C23.4395 140.683 24.5495 139.038 25.9487 137.653L109.212 55.2044C112.038 52.4072 115.87 50.8359 119.866 50.8359C123.862 50.8359 127.694 52.4072 130.52 55.2044L213.784 137.653C215.183 139.038 216.293 140.683 217.05 142.492C217.807 144.302 218.197 146.242 218.197 148.201C218.197 150.161 217.807 152.1 217.05 153.91C216.293 155.72 215.183 157.365 213.784 158.75L130.52 241.196C129.121 242.581 127.46 243.68 125.631 244.43C123.803 245.179 121.844 245.565 119.865 245.564C117.886 245.564 115.927 245.177 114.099 244.427C112.271 243.677 110.611 242.577 109.212 241.191Z" fill="white"/>
</g>
<g filter="url(#filter2_d_17098_1764)">
<path d="M105.869 233.759L32.8207 161.427C30.978 159.605 29.5161 157.441 28.5186 155.059C27.5212 152.677 27.0078 150.124 27.0078 147.545C27.0078 144.966 27.5212 142.413 28.5186 140.031C29.5161 137.649 30.978 135.484 32.8207 133.662L105.869 64.4484C107.71 62.6251 109.896 61.1787 112.302 60.192C114.708 59.2052 117.286 58.6973 119.89 58.6973C122.494 58.6973 125.073 59.2052 127.479 60.192C129.885 61.1787 132.071 62.6251 133.912 64.4484L206.96 133.662C208.803 135.484 210.265 137.649 211.262 140.031C212.26 142.413 212.773 144.966 212.773 147.545C212.773 150.124 212.26 152.677 211.262 155.059C210.265 157.441 208.803 159.605 206.96 161.427L133.912 233.759C132.071 235.582 129.885 237.029 127.479 238.015C125.073 239.002 122.494 239.51 119.89 239.51C117.286 239.51 114.708 239.002 112.302 238.015C109.896 237.029 107.71 235.582 105.869 233.759Z" fill="white"/>
</g>
<g filter="url(#filter3_d_17098_1764)">
<path d="M142.929 73.8122C155.723 61.1443 155.723 40.6056 142.929 27.9377C130.136 15.2698 109.394 15.2698 96.6001 27.9377C83.8067 40.6056 83.8067 61.1444 96.6001 73.8122C109.394 86.4801 130.136 86.4801 142.929 73.8122Z" fill="#3A5A85"/>
</g>
<path d="M134.449 60.4908C134.416 60.5783 134.383 60.6658 134.352 60.754C134.111 61.4328 133.493 61.8975 132.767 61.9005C130.438 61.909 128.11 61.909 125.782 61.9005C125.335 61.8967 124.907 61.7193 124.592 61.4069C124.277 61.0945 124.1 60.6724 124.101 60.2328C124.094 55.6907 124.094 51.1482 124.101 46.6056C124.101 46.1658 124.278 45.7438 124.594 45.4319C124.91 45.12 125.338 44.9435 125.786 44.9409C128.114 44.9299 130.442 44.9299 132.771 44.9409C133.119 44.9456 133.457 45.0557 133.739 45.256C134.02 45.4563 134.232 45.7372 134.346 46.0602C134.382 46.1568 134.416 46.2541 134.452 46.3514L134.449 60.4908ZM129.274 59.3594C129.552 59.3594 129.829 59.3639 130.106 59.3594C130.616 59.3496 130.994 58.9905 130.997 58.5169C131 58.0432 130.624 57.6721 130.116 57.6653C129.553 57.6578 128.988 57.6578 128.426 57.6653C128.311 57.6613 128.196 57.68 128.088 57.7204C127.98 57.7609 127.882 57.8221 127.798 57.9005C127.715 57.979 127.649 58.073 127.603 58.1771C127.557 58.2812 127.534 58.3932 127.533 58.5065C127.532 58.6198 127.555 58.7321 127.599 58.8368C127.643 58.9414 127.708 59.0363 127.791 59.1157C127.873 59.1952 127.971 59.2576 128.078 59.2993C128.185 59.3411 128.3 59.3612 128.415 59.3586C128.701 59.3647 128.988 59.3586 129.274 59.3586V59.3594ZM130.134 48.3275C130.134 48.1601 130.082 47.9966 129.987 47.8577C129.892 47.7188 129.757 47.6108 129.599 47.5474C129.441 47.4839 129.268 47.4679 129.101 47.5013C128.934 47.5348 128.78 47.6162 128.66 47.7352C128.541 47.8542 128.459 48.0055 128.427 48.1699C128.395 48.3343 128.413 48.5044 128.479 48.6586C128.546 48.8129 128.657 48.9443 128.8 49.0363C128.942 49.1283 129.109 49.1767 129.28 49.1753C129.507 49.1712 129.723 49.0803 129.882 48.9219C130.042 48.7636 130.132 48.5503 130.134 48.3275Z" fill="white"/>
<path d="M122.375 56.8008H106.736V56.4856C106.736 51.8388 106.736 47.192 106.736 42.5453C106.736 40.9161 107.833 39.8428 109.497 39.8428H129.961C131.642 39.8428 132.727 40.9116 132.727 42.5687V43.237H132.389C130.243 43.237 128.097 43.237 125.95 43.237C123.876 43.237 122.377 44.7108 122.376 46.7458C122.376 49.979 122.376 53.2123 122.376 56.4456L122.375 56.8008Z" fill="white"/>
<path d="M122.361 58.5107C122.429 59.6678 122.17 60.8256 122.862 61.9049H106.851C105.725 61.9049 105.007 61.1937 105.007 60.0819C105.007 59.8367 105 59.5916 105.007 59.3472C105.011 59.1278 105.101 58.9182 105.258 58.7625C105.416 58.6068 105.629 58.5171 105.852 58.5122C105.919 58.5122 105.987 58.5122 106.053 58.5122H122.364L122.361 58.5107Z" fill="white"/>
<defs>
<filter id="filter0_d_17098_1764" x="39.3736" y="17.632" width="215.001" height="266.785" filterUnits="userSpaceOnUse" color-interpolation-filters="sRGB">
<feFlood flood-opacity="0" result="BackgroundImageFix"/>
<feColorMatrix in="SourceAlpha" type="matrix" values="0 0 0 0 0 0 0 0 0 0 0 0 0 0 0 0 0 0 127 0" result="hardAlpha"/>
<feOffset dy="2.8317"/>
<feGaussianBlur stdDeviation="10.6189"/>
<feComposite in2="hardAlpha" operator="out"/>
<feColorMatrix type="matrix" values="0 0 0 0 0 0 0 0 0 0 0 0 0 0 0 0 0 0 0.15 0"/>
<feBlend mode="normal" in2="BackgroundImageFix" result="effect1_dropShadow_17098_1764"/>
<feBlend mode="normal" in="SourceGraphic" in2="effect1_dropShadow_17098_1764" result="shape"/>
</filter>
<filter id="filter1_d_17098_1764" x="0.297417" y="32.4299" width="239.138" height="237.204" filterUnits="userSpaceOnUse" color-interpolation-filters="sRGB">
<feFlood flood-opacity="0" result="BackgroundImageFix"/>
<feColorMatrix in="SourceAlpha" type="matrix" values="0 0 0 0 0 0 0 0 0 0 0 0 0 0 0 0 0 0 127 0" result="hardAlpha"/>
<feOffset dy="2.8317"/>
<feGaussianBlur stdDeviation="10.6189"/>
<feComposite in2="hardAlpha" operator="out"/>
<feColorMatrix type="matrix" values="0 0 0 0 0 0 0 0 0 0 0 0 0 0 0 0 0 0 0.15 0"/>
<feBlend mode="normal" in2="BackgroundImageFix" result="effect1_dropShadow_17098_1764"/>
<feBlend mode="normal" in="SourceGraphic" in2="effect1_dropShadow_17098_1764" result="shape"/>
</filter>
<filter id="filter2_d_17098_1764" x="5.77007" y="40.2912" width="228.241" height="223.288" filterUnits="userSpaceOnUse" color-interpolation-filters="sRGB">
<feFlood flood-opacity="0" result="BackgroundImageFix"/>
<feColorMatrix in="SourceAlpha" type="matrix" values="0 0 0 0 0 0 0 0 0 0 0 0 0 0 0 0 0 0 127 0" result="hardAlpha"/>
<feOffset dy="2.8317"/>
<feGaussianBlur stdDeviation="10.6189"/>
<feComposite in2="hardAlpha" operator="out"/>
<feColorMatrix type="matrix" values="0 0 0 0 0 0 0 0 0 0 0 0 0 0 0 0 0 0 0.15 0"/>
<feBlend mode="normal" in2="BackgroundImageFix" result="effect1_dropShadow_17098_1764"/>
<feBlend mode="normal" in="SourceGraphic" in2="effect1_dropShadow_17098_1764" result="shape"/>
</filter>
<filter id="filter3_d_17098_1764" x="65.7671" y="0.0304823" width="107.995" height="107.352" filterUnits="userSpaceOnUse" color-interpolation-filters="sRGB">
<feFlood flood-opacity="0" result="BackgroundImageFix"/>
<feColorMatrix in="SourceAlpha" type="matrix" values="0 0 0 0 0 0 0 0 0 0 0 0 0 0 0 0 0 0 127 0" result="hardAlpha"/>
<feOffset dy="2.8317"/>
<feGaussianBlur stdDeviation="10.6189"/>
<feComposite in2="hardAlpha" operator="out"/>
<feColorMatrix type="matrix" values="0 0 0 0 0 0 0 0 0 0 0 0 0 0 0 0 0 0 0.15 0"/>
<feBlend mode="normal" in2="BackgroundImageFix" result="effect1_dropShadow_17098_1764"/>
<feBlend mode="normal" in="SourceGraphic" in2="effect1_dropShadow_17098_1764" result="shape"/>
</filter>
</defs>
</svg>
