<svg width="255" height="285" viewBox="0 0 255 285" fill="none" xmlns="http://www.w3.org/2000/svg">
<path d="M62.2299 208.648C62.0041 208.648 61.7804 208.605 61.5719 208.519C61.3633 208.433 61.1739 208.308 61.0147 208.149L60.2127 207.357C59.9017 207.036 59.7303 206.607 59.7351 206.161C59.7399 205.716 59.9206 205.291 60.2384 204.976C60.5563 204.662 60.9859 204.483 61.4354 204.478C61.8848 204.473 62.3183 204.643 62.6428 204.951L63.4449 205.743C63.6852 205.981 63.8488 206.284 63.9151 206.614C63.9813 206.944 63.9473 207.286 63.8173 207.597C63.6872 207.908 63.467 208.174 63.1844 208.361C62.9019 208.548 62.5697 208.648 62.2299 208.648ZM53.4186 199.923C53.1929 199.923 52.9694 199.879 52.7608 199.794C52.5523 199.708 52.3629 199.583 52.2036 199.424L51.4039 198.632C51.0816 198.314 50.9004 197.881 50.9002 197.43C50.9 196.979 51.0807 196.546 51.4027 196.227C51.7246 195.908 52.1614 195.729 52.6169 195.729C53.0724 195.728 53.5094 195.907 53.8317 196.226L54.6337 197.02C54.8744 197.258 55.0383 197.561 55.1048 197.891C55.1712 198.221 55.1372 198.563 55.0071 198.874C54.877 199.185 54.6565 199.451 54.3737 199.637C54.0909 199.824 53.7585 199.924 53.4186 199.923ZM44.6147 191.198C44.1592 191.199 43.7222 191.02 43.3995 190.702L42.5999 189.908C42.4346 189.751 42.3027 189.563 42.2117 189.355C42.1208 189.147 42.0727 188.923 42.0702 188.697C42.0678 188.47 42.111 188.246 42.1974 188.036C42.2839 187.826 42.4117 187.635 42.5735 187.475C42.7353 187.315 42.9278 187.188 43.1397 187.103C43.3515 187.017 43.5785 186.974 43.8073 186.977C44.0361 186.979 44.2621 187.027 44.4721 187.117C44.6821 187.207 44.8717 187.338 45.03 187.501L45.8298 188.296C46.0704 188.533 46.2343 188.836 46.3007 189.166C46.3672 189.496 46.3332 189.839 46.2031 190.15C46.0729 190.46 45.8525 190.726 45.5697 190.913C45.2869 191.099 44.9545 191.199 44.6147 191.198ZM35.8035 182.476C35.3478 182.476 34.9108 182.296 34.5884 181.977L33.7887 181.183C33.4777 180.862 33.3063 180.432 33.3111 179.987C33.3159 179.542 33.4966 179.117 33.8144 178.802C34.1322 178.487 34.562 178.309 35.0114 178.304C35.4608 178.299 35.8943 178.469 36.2189 178.777L37.0186 179.571C37.2588 179.809 37.4224 180.112 37.4887 180.442C37.555 180.772 37.521 181.114 37.3909 181.425C37.2609 181.736 37.0406 182.002 36.7581 182.189C36.4755 182.376 36.1434 182.476 35.8035 182.476ZM26.9923 173.751C26.7669 173.751 26.5439 173.707 26.3358 173.622C26.1276 173.536 25.9387 173.411 25.7796 173.252L24.9775 172.458C24.8181 172.3 24.6916 172.113 24.6054 171.906C24.5192 171.7 24.475 171.479 24.4751 171.255C24.4752 171.032 24.5197 170.811 24.6061 170.605C24.6926 170.398 24.8192 170.211 24.9787 170.053C25.1383 169.895 25.3276 169.77 25.5361 169.685C25.7445 169.599 25.9679 169.555 26.1934 169.556C26.419 169.556 26.6423 169.6 26.8507 169.685C27.059 169.771 27.2483 169.896 27.4077 170.054L28.2074 170.846C28.4477 171.084 28.6113 171.387 28.6776 171.717C28.7438 172.047 28.7098 172.39 28.5798 172.701C28.4497 173.011 28.2295 173.277 27.9469 173.464C27.6644 173.651 27.3322 173.751 26.9923 173.751ZM18.1835 165.027C17.9577 165.027 17.734 164.983 17.5254 164.898C17.3168 164.812 17.1275 164.686 16.9684 164.528L16.1664 163.736C15.864 163.413 15.6997 162.987 15.7079 162.547C15.7161 162.107 15.8962 161.687 16.2104 161.376C16.5246 161.064 16.9484 160.885 17.3929 160.877C17.8374 160.868 18.2679 161.03 18.5941 161.33L19.3962 162.121C19.6365 162.359 19.8001 162.663 19.8663 162.993C19.9326 163.323 19.8986 163.665 19.7685 163.976C19.6385 164.287 19.4183 164.552 19.1357 164.74C18.8532 164.927 18.521 165.026 18.1811 165.027H18.1835ZM10.1339 155.713C9.8014 155.713 9.47618 155.617 9.19747 155.437C8.91877 155.258 8.69846 155.002 8.56308 154.702C8.39359 154.321 8.23365 153.926 8.08564 153.534C7.94552 153.111 7.9783 152.651 8.17691 152.251C8.37551 151.852 8.72413 151.546 9.14811 151.398C9.57208 151.25 10.0377 151.273 10.445 151.461C10.8524 151.649 11.1692 151.987 11.3275 152.404C11.4373 152.711 11.5662 153.021 11.6951 153.321C11.8112 153.58 11.8601 153.864 11.8374 154.146C11.8147 154.429 11.721 154.701 11.565 154.939C11.4089 155.177 11.1955 155.372 10.9439 155.507C10.6923 155.642 10.4106 155.713 10.1243 155.713H10.1339ZM10.2842 143.752C10.0297 143.753 9.77843 143.696 9.54903 143.587C9.3451 143.491 9.16223 143.357 9.01091 143.191C8.8596 143.025 8.74278 142.831 8.66717 142.621C8.59156 142.41 8.55862 142.187 8.57025 141.964C8.58188 141.741 8.63785 141.522 8.73495 141.32C8.91638 140.944 9.11212 140.571 9.32219 140.209C9.43265 140.012 9.58174 139.838 9.76076 139.698C9.93978 139.558 10.1452 139.454 10.3649 139.394C10.5847 139.333 10.8144 139.316 11.0407 139.345C11.2671 139.373 11.4854 139.445 11.6832 139.558C11.8809 139.671 12.054 139.821 12.1924 140.001C12.3308 140.18 12.4317 140.385 12.4893 140.604C12.5468 140.823 12.5599 141.05 12.5276 141.274C12.4954 141.497 12.4184 141.712 12.3014 141.906C12.1367 142.19 11.9816 142.485 11.8383 142.781C11.6982 143.073 11.4769 143.32 11.2004 143.492C10.9239 143.664 10.6036 143.754 10.2771 143.752H10.2842ZM18.439 134.512C18.0991 134.512 17.7669 134.412 17.4843 134.225C17.2018 134.038 16.9816 133.773 16.8515 133.462C16.7215 133.151 16.6874 132.809 16.7537 132.479C16.82 132.149 16.9836 131.845 17.2239 131.607L18.026 130.813C18.1819 130.64 18.3718 130.501 18.5842 130.403C18.7965 130.305 19.0268 130.251 19.2609 130.245C19.4949 130.239 19.7278 130.28 19.9453 130.365C20.1628 130.451 20.3603 130.58 20.5256 130.745C20.691 130.909 20.8207 131.105 20.9068 131.32C20.9929 131.536 21.0336 131.767 21.0264 131.998C21.0193 132.23 20.9644 132.458 20.8651 132.668C20.7658 132.878 20.6242 133.066 20.449 133.219L19.6469 134.014C19.4875 134.172 19.2981 134.297 19.0896 134.383C18.8811 134.469 18.6575 134.513 18.4318 134.512H18.439ZM27.2501 125.788C26.9103 125.788 26.5781 125.688 26.2955 125.501C26.013 125.314 25.7928 125.048 25.6627 124.737C25.5327 124.426 25.4986 124.084 25.5649 123.754C25.6311 123.424 25.7948 123.121 26.035 122.883L26.8371 122.091C26.9966 121.933 27.1858 121.807 27.3941 121.722C27.6025 121.636 27.8258 121.592 28.0514 121.592C28.2769 121.592 28.5003 121.636 28.7087 121.721C28.9172 121.807 29.1066 121.932 29.2661 122.09C29.4257 122.247 29.5523 122.435 29.6387 122.641C29.7252 122.847 29.7696 123.069 29.7697 123.292C29.7699 123.515 29.7256 123.736 29.6394 123.943C29.5532 124.149 29.4267 124.337 29.2673 124.495L28.4652 125.289C28.3048 125.448 28.1142 125.574 27.9045 125.659C27.6947 125.745 27.4699 125.789 27.243 125.788H27.2501ZM36.0613 117.063C35.7214 117.063 35.3892 116.963 35.1067 116.776C34.8241 116.589 34.6039 116.323 34.4739 116.012C34.3438 115.701 34.3098 115.359 34.3761 115.029C34.4424 114.699 34.606 114.396 34.8462 114.158L35.6483 113.366C35.9729 113.058 36.4063 112.888 36.8558 112.893C37.3052 112.898 37.7349 113.077 38.0527 113.392C38.3705 113.706 38.5513 114.132 38.5561 114.577C38.5609 115.022 38.3895 115.451 38.0785 115.772L37.2764 116.564C37.1162 116.723 36.9257 116.85 36.7158 116.935C36.506 117.021 36.2811 117.064 36.0541 117.063H36.0613ZM44.8725 108.338C44.5326 108.338 44.2004 108.238 43.9178 108.051C43.6353 107.864 43.4151 107.599 43.285 107.288C43.155 106.977 43.121 106.635 43.1872 106.305C43.2535 105.974 43.4171 105.671 43.6574 105.433L44.4571 104.641C44.7817 104.333 45.2151 104.164 45.6645 104.168C46.114 104.173 46.5437 104.352 46.8615 104.667C47.1793 104.982 47.36 105.407 47.3648 105.852C47.3697 106.297 47.1982 106.726 46.8873 107.048L46.0875 107.84C45.9274 107.999 45.7369 108.125 45.5271 108.21C45.3172 108.296 45.0923 108.34 44.8653 108.338H44.8725ZM53.686 99.6136C53.3467 99.613 53.0151 99.513 52.733 99.3261C52.451 99.1392 52.2311 98.8738 52.1012 98.5634C51.9712 98.2529 51.937 97.9114 52.0028 97.5817C52.0686 97.252 52.2315 96.949 52.4709 96.7109L53.2707 95.9167C53.429 95.753 53.6186 95.6224 53.8286 95.5323C54.0386 95.4423 54.2645 95.3946 54.4933 95.3922C54.7222 95.3898 54.9492 95.4326 55.161 95.5182C55.3729 95.6038 55.5654 95.7304 55.7272 95.8906C55.889 96.0508 56.0168 96.2414 56.1033 96.4512C56.1897 96.661 56.2329 96.8857 56.2305 97.1123C56.228 97.3388 56.1799 97.5626 56.089 97.7705C55.998 97.9784 55.866 98.1662 55.7008 98.323L54.9011 99.1148C54.7418 99.2732 54.5525 99.3988 54.3439 99.4844C54.1354 99.57 53.9118 99.6139 53.686 99.6136ZM62.4972 90.8889C62.1573 90.8894 61.8249 90.7901 61.5421 90.6034C61.2594 90.4166 61.0389 90.151 60.9088 89.8401C60.7786 89.5292 60.7446 89.187 60.8111 88.857C60.8776 88.5269 61.0415 88.2239 61.2821 87.9862L61.5495 87.7191C61.874 87.4112 62.3075 87.2414 62.7569 87.2462C63.2064 87.251 63.636 87.4299 63.9539 87.7446C64.2717 88.0593 64.4524 88.4847 64.4573 88.9298C64.4621 89.3748 64.2906 89.804 63.9797 90.1254L63.7099 90.3925C63.5496 90.5514 63.359 90.6771 63.1492 90.7623C62.9393 90.8476 62.7145 90.8906 62.4877 90.8889H62.4972Z" fill="#2C3E50"/>
<g filter="url(#filter0_d_17098_1736)">
<path d="M119.865 260.346C117.665 260.349 115.486 259.923 113.454 259.09C111.421 258.258 109.574 257.036 108.019 255.496L60.6094 208.551L63.8488 205.343L111.261 252.288C113.544 254.546 116.638 255.814 119.865 255.814C123.091 255.814 126.185 254.546 128.468 252.288L224.988 156.716C227.268 154.455 228.549 151.391 228.549 148.195C228.549 145 227.268 141.936 224.988 139.675L128.468 44.1052C126.185 41.8476 123.091 40.5796 119.865 40.5796C116.638 40.5796 113.544 41.8476 111.261 44.1052L64.3764 90.5298L61.1345 87.3222L108.019 40.8975C109.574 39.3567 111.421 38.1343 113.453 37.3003C115.485 36.4664 117.663 36.0371 119.863 36.0371C122.063 36.0371 124.242 36.4664 126.274 37.3003C128.306 38.1343 130.153 39.3567 131.708 40.8975L228.229 136.47C231.37 139.58 233.135 143.799 233.135 148.198C233.135 152.597 231.37 156.815 228.229 159.926L131.708 255.498C130.153 257.039 128.307 258.26 126.275 259.092C124.242 259.924 122.064 260.35 119.865 260.346Z" fill="#2C3E50"/>
</g>
<g filter="url(#filter1_d_17098_1736)">
<path d="M109.212 241.19L25.9487 158.749C24.5495 157.364 23.4395 155.719 22.6823 153.909C21.925 152.099 21.5352 150.16 21.5352 148.2C21.5352 146.241 21.925 144.301 22.6823 142.492C23.4395 140.682 24.5495 139.037 25.9487 137.652L109.212 55.2034C112.038 52.4063 115.87 50.835 119.866 50.835C123.862 50.835 127.694 52.4063 130.52 55.2034L213.784 137.652C215.183 139.037 216.293 140.682 217.05 142.492C217.807 144.301 218.197 146.241 218.197 148.2C218.197 150.16 217.807 152.099 217.05 153.909C216.293 155.719 215.183 157.364 213.784 158.749L130.52 241.195C129.121 242.58 127.46 243.679 125.631 244.429C123.803 245.178 121.844 245.564 119.865 245.563C117.886 245.563 115.927 245.176 114.099 244.426C112.271 243.676 110.611 242.576 109.212 241.19Z" fill="white"/>
</g>
<g filter="url(#filter2_d_17098_1736)">
<path d="M105.842 233.759L32.7934 161.427C30.9506 159.605 29.4887 157.441 28.4913 155.059C27.4939 152.677 26.9805 150.124 26.9805 147.545C26.9805 144.966 27.4939 142.413 28.4913 140.031C29.4887 137.649 30.9506 135.484 32.7934 133.662L105.842 64.4484C107.683 62.6251 109.869 61.1787 112.275 60.192C114.681 59.2052 117.259 58.6973 119.863 58.6973C122.467 58.6973 125.046 59.2052 127.451 60.192C129.857 61.1787 132.043 62.6251 133.884 64.4484L206.933 133.662C208.776 135.484 210.237 137.649 211.235 140.031C212.232 142.413 212.746 144.966 212.746 147.545C212.746 150.124 212.232 152.677 211.235 155.059C210.237 157.441 208.776 159.605 206.933 161.427L133.884 233.759C132.043 235.582 129.857 237.029 127.451 238.015C125.046 239.002 122.467 239.51 119.863 239.51C117.259 239.51 114.681 239.002 112.275 238.015C109.869 237.029 107.683 235.582 105.842 233.759Z" fill="white"/>
</g>
<g filter="url(#filter3_d_17098_1736)">
<path d="M143.255 73.8112C156.049 61.1433 156.049 40.6046 143.255 27.9367C130.462 15.2689 109.72 15.2688 96.9263 27.9367C84.1329 40.6046 84.1328 61.1434 96.9263 73.8113C109.72 86.4792 130.462 86.4791 143.255 73.8112Z" fill="#2C3E50"/>
</g>
<path d="M110.552 38.0029H125.739C125.753 38.013 125.764 38.0284 125.779 38.0324C126.789 38.3267 127.237 38.9073 127.237 39.9243C127.237 42.4717 127.237 45.0192 127.237 47.5667V47.8348C126.757 47.7718 126.317 47.6827 125.873 47.6646C125.426 47.6415 124.978 47.664 124.536 47.7316C120.548 48.3899 118.031 52.8313 120.13 56.5626C120.181 56.6572 120.208 56.7623 120.209 56.869C120.214 57.8578 120.209 58.8466 120.209 59.8355C120.209 59.9253 120.209 60.0151 120.209 60.1298H119.984C116.953 60.1298 113.923 60.1298 110.893 60.1298C110.789 60.1313 110.686 60.1243 110.584 60.109C109.646 59.9548 109.051 59.2469 109.051 58.2815C109.051 52.2815 109.051 46.2816 109.051 40.2816C109.051 40.0892 109.042 39.8954 109.051 39.7037C109.091 39.0206 109.419 38.5118 110.046 38.1973C110.211 38.1236 110.38 38.0587 110.552 38.0029ZM117.536 43.6342C118.69 43.6342 119.844 43.6342 120.997 43.6342C121.499 43.6342 121.866 43.2829 121.864 42.8257C121.861 42.3685 121.492 42.0313 120.987 42.0273C120.6 42.0239 120.213 42.0273 119.825 42.0273C117.914 42.0273 116.003 42.0273 114.092 42.0273C113.722 42.0273 113.436 42.1613 113.271 42.4865C112.995 43.0288 113.403 43.6329 114.051 43.6362C115.213 43.6382 116.374 43.6335 117.536 43.6335V43.6342ZM117.552 45.2431H114.117C113.565 45.2431 113.191 45.5642 113.187 46.0395C113.183 46.5149 113.559 46.8507 114.103 46.8514C116.384 46.8514 118.665 46.8514 120.946 46.8514C121.492 46.8514 121.867 46.5162 121.864 46.0409C121.86 45.5656 121.485 45.2438 120.935 45.2431H117.552ZM116.089 50.0699C116.752 50.0699 117.414 50.0699 118.077 50.0699C118.601 50.0699 118.974 49.728 118.974 49.2655C118.974 48.8029 118.599 48.4664 118.073 48.4657C116.747 48.4657 115.422 48.4657 114.096 48.4657C113.565 48.4657 113.195 48.7935 113.19 49.2601C113.185 49.7267 113.561 50.0719 114.104 50.0739C114.763 50.0713 115.426 50.0699 116.089 50.0693V50.0699Z" fill="white"/>
<path d="M122.482 63.7457C121.999 63.5446 121.845 63.1846 121.854 62.6845C121.878 61.4034 121.862 60.1222 121.862 58.8405V58.52C122.992 59.307 124.214 59.7193 125.568 59.7213C126.922 59.7234 128.153 59.3191 129.301 58.5146V58.813C129.301 60.1028 129.285 61.3926 129.309 62.6818C129.318 63.1819 129.164 63.5426 128.681 63.7437H128.267C127.439 63.2858 126.611 62.8326 125.791 62.3667C125.73 62.3243 125.657 62.3015 125.581 62.3015C125.506 62.3015 125.433 62.3243 125.372 62.3667C124.552 62.836 123.724 63.2885 122.896 63.7457H122.482Z" fill="white"/>
<path d="M121.038 53.6768C121.041 52.504 121.524 51.3806 122.38 50.5535C123.236 49.7264 124.395 49.2631 125.602 49.2656C128.105 49.2717 130.139 51.2701 130.129 53.7143C130.133 54.2985 130.018 54.8777 129.791 55.4184C129.563 55.9592 129.227 56.4506 128.802 56.8643C128.378 57.278 127.873 57.6058 127.317 57.8286C126.761 58.0515 126.165 58.1649 125.564 58.1624C124.962 58.16 124.367 58.0416 123.813 57.8142C123.259 57.5868 122.757 57.2548 122.336 56.8376C121.916 56.4204 121.584 55.9262 121.361 55.3836C121.138 54.8411 121.028 54.2609 121.038 53.6768ZM124.939 53.8276C124.748 53.7043 124.585 53.5957 124.419 53.4924C123.992 53.229 123.499 53.3175 123.241 53.7016C122.982 54.0857 123.093 54.5584 123.517 54.8372C123.893 55.0866 124.271 55.3324 124.653 55.5747C125.127 55.8757 125.584 55.7885 125.9 55.3313C126.422 54.5751 126.939 53.8156 127.458 53.0574C127.492 53.009 127.523 52.9589 127.551 52.9072C127.642 52.7486 127.674 52.5641 127.64 52.3855C127.606 52.2069 127.508 52.0454 127.365 51.9291C127.231 51.8082 127.059 51.7362 126.877 51.7256C126.695 51.7149 126.514 51.7663 126.367 51.8708C126.24 51.9702 126.132 52.0896 126.046 52.2241C125.675 52.749 125.316 53.2786 124.939 53.8276Z" fill="white"/>
<defs>
<filter id="filter0_d_17098_1736" x="39.3716" y="17.6311" width="215.001" height="266.785" filterUnits="userSpaceOnUse" color-interpolation-filters="sRGB">
<feFlood flood-opacity="0" result="BackgroundImageFix"/>
<feColorMatrix in="SourceAlpha" type="matrix" values="0 0 0 0 0 0 0 0 0 0 0 0 0 0 0 0 0 0 127 0" result="hardAlpha"/>
<feOffset dy="2.8317"/>
<feGaussianBlur stdDeviation="10.6189"/>
<feComposite in2="hardAlpha" operator="out"/>
<feColorMatrix type="matrix" values="0 0 0 0 0 0 0 0 0 0 0 0 0 0 0 0 0 0 0.15 0"/>
<feBlend mode="normal" in2="BackgroundImageFix" result="effect1_dropShadow_17098_1736"/>
<feBlend mode="normal" in="SourceGraphic" in2="effect1_dropShadow_17098_1736" result="shape"/>
</filter>
<filter id="filter1_d_17098_1736" x="0.297417" y="32.4289" width="239.138" height="237.204" filterUnits="userSpaceOnUse" color-interpolation-filters="sRGB">
<feFlood flood-opacity="0" result="BackgroundImageFix"/>
<feColorMatrix in="SourceAlpha" type="matrix" values="0 0 0 0 0 0 0 0 0 0 0 0 0 0 0 0 0 0 127 0" result="hardAlpha"/>
<feOffset dy="2.8317"/>
<feGaussianBlur stdDeviation="10.6189"/>
<feComposite in2="hardAlpha" operator="out"/>
<feColorMatrix type="matrix" values="0 0 0 0 0 0 0 0 0 0 0 0 0 0 0 0 0 0 0.15 0"/>
<feBlend mode="normal" in2="BackgroundImageFix" result="effect1_dropShadow_17098_1736"/>
<feBlend mode="normal" in="SourceGraphic" in2="effect1_dropShadow_17098_1736" result="shape"/>
</filter>
<filter id="filter2_d_17098_1736" x="5.74273" y="40.2912" width="228.241" height="223.288" filterUnits="userSpaceOnUse" color-interpolation-filters="sRGB">
<feFlood flood-opacity="0" result="BackgroundImageFix"/>
<feColorMatrix in="SourceAlpha" type="matrix" values="0 0 0 0 0 0 0 0 0 0 0 0 0 0 0 0 0 0 127 0" result="hardAlpha"/>
<feOffset dy="2.8317"/>
<feGaussianBlur stdDeviation="10.6189"/>
<feComposite in2="hardAlpha" operator="out"/>
<feColorMatrix type="matrix" values="0 0 0 0 0 0 0 0 0 0 0 0 0 0 0 0 0 0 0.15 0"/>
<feBlend mode="normal" in2="BackgroundImageFix" result="effect1_dropShadow_17098_1736"/>
<feBlend mode="normal" in="SourceGraphic" in2="effect1_dropShadow_17098_1736" result="shape"/>
</filter>
<filter id="filter3_d_17098_1736" x="66.0933" y="0.0295057" width="107.995" height="107.352" filterUnits="userSpaceOnUse" color-interpolation-filters="sRGB">
<feFlood flood-opacity="0" result="BackgroundImageFix"/>
<feColorMatrix in="SourceAlpha" type="matrix" values="0 0 0 0 0 0 0 0 0 0 0 0 0 0 0 0 0 0 127 0" result="hardAlpha"/>
<feOffset dy="2.8317"/>
<feGaussianBlur stdDeviation="10.6189"/>
<feComposite in2="hardAlpha" operator="out"/>
<feColorMatrix type="matrix" values="0 0 0 0 0 0 0 0 0 0 0 0 0 0 0 0 0 0 0.15 0"/>
<feBlend mode="normal" in2="BackgroundImageFix" result="effect1_dropShadow_17098_1736"/>
<feBlend mode="normal" in="SourceGraphic" in2="effect1_dropShadow_17098_1736" result="shape"/>
</filter>
</defs>
</svg>
