<svg width="255" height="285" viewBox="0 0 255 285" fill="none" xmlns="http://www.w3.org/2000/svg">
<path d="M62.2299 208.648C62.0041 208.649 61.7804 208.605 61.5719 208.519C61.3633 208.434 61.1739 208.308 61.0147 208.149L60.2127 207.358C59.9017 207.036 59.7303 206.607 59.7351 206.162C59.7399 205.717 59.9206 205.291 60.2384 204.977C60.5563 204.662 60.9859 204.483 61.4354 204.478C61.8848 204.474 62.3183 204.643 62.6428 204.951L63.4449 205.743C63.6852 205.981 63.8488 206.284 63.9151 206.614C63.9813 206.944 63.9473 207.287 63.8173 207.598C63.6872 207.908 63.467 208.174 63.1844 208.361C62.9019 208.548 62.5697 208.648 62.2299 208.648ZM53.4186 199.923C53.1929 199.924 52.9694 199.88 52.7608 199.794C52.5523 199.709 52.3629 199.583 52.2036 199.425L51.4039 198.633C51.0816 198.314 50.9004 197.882 50.9002 197.431C50.9 196.979 51.0807 196.547 51.4027 196.228C51.7246 195.909 52.1614 195.729 52.6169 195.729C53.0724 195.729 53.5094 195.908 53.8317 196.227L54.6338 197.021C54.8744 197.258 55.0383 197.562 55.1048 197.892C55.1712 198.222 55.1372 198.564 55.0071 198.875C54.877 199.186 54.6565 199.451 54.3737 199.638C54.0909 199.825 53.7585 199.924 53.4186 199.923ZM44.6147 191.199C44.1592 191.199 43.7222 191.021 43.3995 190.702L42.5999 189.908C42.4346 189.751 42.3027 189.564 42.2117 189.356C42.1208 189.148 42.0727 188.924 42.0702 188.697C42.0678 188.471 42.111 188.246 42.1974 188.036C42.2839 187.827 42.4117 187.636 42.5735 187.476C42.7353 187.316 42.9278 187.189 43.1397 187.103C43.3515 187.018 43.5785 186.975 43.8073 186.977C44.0361 186.98 44.2621 187.027 44.4721 187.118C44.6821 187.208 44.8717 187.338 45.03 187.502L45.8298 188.296C46.0704 188.534 46.2343 188.837 46.3007 189.167C46.3672 189.497 46.3332 189.839 46.2031 190.15C46.0729 190.461 45.8525 190.727 45.5697 190.913C45.2869 191.1 44.9545 191.199 44.6147 191.199ZM35.8035 182.476C35.3478 182.476 34.9108 182.297 34.5884 181.978L33.7887 181.183C33.4777 180.862 33.3063 180.433 33.3111 179.988C33.3159 179.543 33.4966 179.117 33.8144 178.803C34.1322 178.488 34.562 178.309 35.0114 178.304C35.4608 178.299 35.8943 178.469 36.2189 178.777L37.0186 179.571C37.2588 179.809 37.4224 180.113 37.4887 180.443C37.555 180.773 37.521 181.115 37.3909 181.426C37.2609 181.737 37.0406 182.002 36.7581 182.189C36.4755 182.376 36.1434 182.476 35.8035 182.476ZM26.9923 173.752C26.7669 173.752 26.5439 173.708 26.3358 173.622C26.1276 173.536 25.9387 173.411 25.7796 173.253L24.9775 172.459C24.8181 172.301 24.6917 172.113 24.6054 171.907C24.5192 171.7 24.475 171.479 24.4751 171.256C24.4752 171.033 24.5197 170.811 24.6061 170.605C24.6926 170.399 24.8192 170.211 24.9787 170.054C25.1383 169.896 25.3276 169.771 25.5361 169.685C25.7445 169.6 25.9679 169.556 26.1934 169.556C26.419 169.556 26.6423 169.6 26.8507 169.686C27.059 169.771 27.2483 169.897 27.4077 170.055L28.2074 170.847C28.4477 171.085 28.6113 171.388 28.6776 171.718C28.7438 172.048 28.7098 172.39 28.5798 172.701C28.4497 173.012 28.2295 173.278 27.9469 173.465C27.6644 173.652 27.3322 173.752 26.9923 173.752ZM18.1835 165.027C17.9577 165.028 17.734 164.984 17.5254 164.898C17.3168 164.813 17.1275 164.687 16.9684 164.528L16.1664 163.736C15.864 163.414 15.6997 162.988 15.7079 162.547C15.7161 162.107 15.8962 161.687 16.2104 161.376C16.5246 161.065 16.9484 160.886 17.3929 160.877C17.8374 160.869 18.2679 161.031 18.5941 161.33L19.3962 162.122C19.6365 162.36 19.8001 162.663 19.8663 162.993C19.9326 163.323 19.8986 163.665 19.7685 163.976C19.6385 164.287 19.4183 164.553 19.1357 164.74C18.8532 164.927 18.521 165.027 18.1811 165.027H18.1835ZM10.1339 155.714C9.8014 155.713 9.47618 155.617 9.19747 155.438C8.91877 155.258 8.69846 155.003 8.56308 154.702C8.39359 154.321 8.23365 153.927 8.08564 153.534C7.94552 153.111 7.9783 152.651 8.17691 152.252C8.37551 151.852 8.72413 151.546 9.14811 151.398C9.57208 151.251 10.0377 151.273 10.445 151.461C10.8524 151.649 11.1692 151.988 11.3275 152.404C11.4373 152.712 11.5662 153.021 11.6951 153.322C11.8112 153.581 11.8601 153.864 11.8374 154.147C11.8147 154.429 11.721 154.702 11.565 154.94C11.4089 155.177 11.1955 155.372 10.9439 155.508C10.6923 155.643 10.4106 155.714 10.1243 155.714H10.1339ZM10.2842 143.753C10.0297 143.753 9.77843 143.697 9.54903 143.588C9.3451 143.492 9.16223 143.357 9.01091 143.191C8.8596 143.026 8.74278 142.832 8.66717 142.621C8.59156 142.411 8.55862 142.187 8.57025 141.964C8.58188 141.741 8.63785 141.522 8.73495 141.321C8.91638 140.945 9.11212 140.571 9.32219 140.21C9.43265 140.012 9.58174 139.838 9.76076 139.698C9.93978 139.558 10.1452 139.455 10.3649 139.394C10.5847 139.334 10.8144 139.317 11.0407 139.345C11.2671 139.373 11.4854 139.446 11.6832 139.559C11.8809 139.671 12.054 139.822 12.1924 140.001C12.3308 140.181 12.4317 140.386 12.4893 140.604C12.5468 140.823 12.5599 141.051 12.5276 141.274C12.4954 141.498 12.4184 141.713 12.3014 141.907C12.1367 142.191 11.9816 142.486 11.8383 142.781C11.6982 143.074 11.4769 143.32 11.2004 143.492C10.9239 143.664 10.6036 143.755 10.2771 143.753H10.2842ZM18.439 134.513C18.0991 134.513 17.7669 134.413 17.4843 134.226C17.2018 134.039 16.9816 133.773 16.8515 133.462C16.7215 133.151 16.6874 132.809 16.7537 132.479C16.82 132.149 16.9836 131.846 17.2239 131.608L18.026 130.814C18.1819 130.641 18.3718 130.501 18.5842 130.403C18.7965 130.306 19.0268 130.252 19.2609 130.245C19.4949 130.239 19.7278 130.28 19.9453 130.366C20.1628 130.452 20.3603 130.581 20.5256 130.745C20.691 130.909 20.8207 131.105 20.9068 131.321C20.9929 131.536 21.0336 131.767 21.0264 131.999C21.0193 132.231 20.9644 132.458 20.8651 132.668C20.7658 132.878 20.6242 133.066 20.449 133.22L19.6469 134.014C19.4875 134.172 19.2981 134.298 19.0896 134.384C18.8811 134.469 18.6575 134.513 18.4318 134.513H18.439ZM27.2501 125.788C26.9103 125.788 26.5781 125.688 26.2955 125.501C26.013 125.314 25.7928 125.048 25.6627 124.738C25.5327 124.427 25.4986 124.085 25.5649 123.754C25.6311 123.424 25.7948 123.121 26.035 122.883L26.8371 122.091C26.9966 121.933 27.1858 121.808 27.3941 121.722C27.6025 121.637 27.8258 121.593 28.0514 121.593C28.2769 121.592 28.5003 121.636 28.7087 121.722C28.9172 121.807 29.1066 121.932 29.2661 122.09C29.4257 122.248 29.5523 122.435 29.6387 122.642C29.7252 122.848 29.7696 123.069 29.7698 123.292C29.7699 123.516 29.7256 123.737 29.6394 123.943C29.5532 124.15 29.4267 124.337 29.2673 124.495L28.4652 125.289C28.3048 125.448 28.1142 125.574 27.9045 125.66C27.6947 125.745 27.4699 125.789 27.243 125.788H27.2501ZM36.0613 117.064C35.7214 117.063 35.3892 116.964 35.1067 116.777C34.8241 116.59 34.6039 116.324 34.4739 116.013C34.3438 115.702 34.3098 115.36 34.3761 115.03C34.4424 114.7 34.606 114.396 34.8462 114.158L35.6483 113.367C35.9729 113.059 36.4063 112.889 36.8558 112.894C37.3052 112.898 37.7349 113.077 38.0527 113.392C38.3705 113.707 38.5513 114.132 38.5561 114.577C38.5609 115.022 38.3895 115.452 38.0785 115.773L37.2764 116.565C37.1162 116.724 36.9257 116.85 36.7158 116.936C36.506 117.021 36.2811 117.065 36.0541 117.064H36.0613ZM44.8725 108.339C44.5326 108.339 44.2004 108.239 43.9178 108.052C43.6353 107.865 43.4151 107.599 43.285 107.288C43.155 106.977 43.121 106.635 43.1872 106.305C43.2535 105.975 43.4171 105.672 43.6574 105.434L44.4571 104.642C44.7817 104.334 45.2151 104.164 45.6645 104.169C46.114 104.174 46.5437 104.353 46.8615 104.667C47.1793 104.982 47.36 105.408 47.3648 105.853C47.3697 106.298 47.1982 106.727 46.8873 107.048L46.0875 107.84C45.9274 107.999 45.7369 108.125 45.5271 108.211C45.3172 108.297 45.0923 108.34 44.8653 108.339H44.8725ZM53.686 99.6141C53.3467 99.6135 53.0151 99.5135 52.733 99.3266C52.451 99.1397 52.2311 98.8743 52.1012 98.5638C51.9712 98.2534 51.937 97.9118 52.0028 97.5822C52.0686 97.2525 52.2315 96.9495 52.4709 96.7114L53.2707 95.9171C53.429 95.7535 53.6186 95.6229 53.8286 95.5328C54.0386 95.4428 54.2645 95.3951 54.4934 95.3927C54.7221 95.3903 54.9492 95.4331 55.161 95.5187C55.3729 95.6043 55.5654 95.7309 55.7272 95.8911C55.889 96.0513 56.0168 96.2419 56.1033 96.4517C56.1897 96.6614 56.2329 96.8862 56.2305 97.1128C56.228 97.3393 56.1799 97.5631 56.089 97.771C55.998 97.9789 55.866 98.1667 55.7008 98.3235L54.9011 99.1153C54.7418 99.2737 54.5525 99.3993 54.3439 99.4849C54.1354 99.5705 53.9118 99.6144 53.686 99.6141ZM62.4972 90.8894C62.1573 90.8899 61.8249 90.7906 61.5421 90.6038C61.2594 90.4171 61.0389 90.1515 60.9088 89.8406C60.7786 89.5297 60.7446 89.1875 60.8111 88.8575C60.8776 88.5274 61.0415 88.2244 61.2821 87.9867L61.5495 87.7196C61.874 87.4117 62.3075 87.2419 62.757 87.2467C63.2064 87.2514 63.636 87.4304 63.9539 87.7451C64.2717 88.0598 64.4524 88.4852 64.4572 88.9303C64.4621 89.3753 64.2906 89.8045 63.9797 90.1259L63.7099 90.393C63.5496 90.5519 63.359 90.6776 63.1492 90.7628C62.9393 90.8481 62.7145 90.8911 62.4877 90.8894H62.4972Z" fill="#2C3E50"/>
<g filter="url(#filter0_d_224_7156)">
<path d="M119.865 260.347C117.665 260.35 115.486 259.923 113.454 259.091C111.421 258.258 109.574 257.037 108.019 255.496L60.6094 208.552L63.8488 205.344L111.261 252.289C113.544 254.546 116.638 255.814 119.865 255.814C123.091 255.814 126.185 254.546 128.468 252.289L224.988 156.716C227.268 154.456 228.549 151.391 228.549 148.196C228.549 145.001 227.268 141.936 224.988 139.676L128.468 44.1057C126.185 41.8481 123.091 40.5801 119.865 40.5801C116.638 40.5801 113.544 41.8481 111.261 44.1057L64.3764 90.5303L61.1345 87.3227L108.019 40.898C109.574 39.3572 111.421 38.1348 113.453 37.3008C115.485 36.4669 117.663 36.0376 119.863 36.0376C122.063 36.0376 124.242 36.4669 126.274 37.3008C128.306 38.1348 130.153 39.3572 131.708 40.898L228.229 136.47C231.37 139.581 233.135 143.8 233.135 148.198C233.135 152.597 231.37 156.816 228.229 159.926L131.708 255.499C130.153 257.039 128.307 258.261 126.275 259.093C124.242 259.925 122.064 260.351 119.865 260.347Z" fill="#2C3E50"/>
</g>
<g filter="url(#filter1_d_224_7156)">
<path d="M109.212 241.19L25.9487 158.749C24.5495 157.364 23.4395 155.719 22.6823 153.909C21.925 152.099 21.5352 150.16 21.5352 148.2C21.5352 146.241 21.925 144.301 22.6823 142.492C23.4395 140.682 24.5495 139.037 25.9487 137.652L109.212 55.2034C112.038 52.4063 115.87 50.835 119.866 50.835C123.862 50.835 127.694 52.4063 130.52 55.2034L213.784 137.652C215.183 139.037 216.293 140.682 217.05 142.492C217.807 144.301 218.197 146.241 218.197 148.2C218.197 150.16 217.807 152.099 217.05 153.909C216.293 155.719 215.183 157.364 213.784 158.749L130.52 241.195C129.121 242.58 127.46 243.679 125.631 244.429C123.803 245.178 121.844 245.564 119.865 245.563C117.886 245.563 115.927 245.176 114.099 244.426C112.271 243.676 110.611 242.576 109.212 241.19Z" fill="white"/>
</g>
<g filter="url(#filter2_d_224_7156)">
<path d="M105.842 233.759L32.7934 161.427C30.9506 159.605 29.4887 157.441 28.4913 155.059C27.4939 152.677 26.9805 150.124 26.9805 147.545C26.9805 144.966 27.4939 142.413 28.4913 140.031C29.4887 137.648 30.9506 135.484 32.7934 133.662L105.842 64.4484C107.683 62.6251 109.869 61.1787 112.275 60.192C114.681 59.2052 117.259 58.6973 119.863 58.6973C122.467 58.6973 125.046 59.2052 127.451 60.192C129.857 61.1787 132.043 62.6251 133.884 64.4484L206.933 133.662C208.776 135.484 210.237 137.648 211.235 140.031C212.232 142.413 212.746 144.966 212.746 147.545C212.746 150.124 212.232 152.677 211.235 155.059C210.237 157.441 208.776 159.605 206.933 161.427L133.884 233.759C132.043 235.582 129.857 237.029 127.451 238.015C125.046 239.002 122.467 239.51 119.863 239.51C117.259 239.51 114.681 239.002 112.275 238.015C109.869 237.029 107.683 235.582 105.842 233.759Z" fill="white"/>
</g>
<path d="M43.4541 149.77V137.624H45.792V147.722H49.7383V149.77H43.4541ZM53.8691 138.107C53.8691 138.488 53.7285 138.813 53.4473 139.083C53.1602 139.358 52.8203 139.496 52.4277 139.496C52.0293 139.496 51.6924 139.361 51.417 139.091C51.1416 138.822 51.0039 138.494 51.0039 138.107C51.0039 137.72 51.1416 137.389 51.417 137.114C51.6924 136.838 52.0293 136.701 52.4277 136.701C52.8262 136.701 53.166 136.835 53.4473 137.105C53.7285 137.38 53.8691 137.714 53.8691 138.107ZM51.2764 149.77V140.823H53.5791V149.77H51.2764ZM61.9727 149.515C61.2578 149.791 60.4199 149.928 59.459 149.928C56.7695 149.928 55.4248 148.484 55.4248 145.595C55.4248 144.13 55.7969 142.958 56.541 142.08C57.3438 141.136 58.4893 140.665 59.9775 140.665C60.6924 140.665 61.3457 140.767 61.9375 140.972L61.5771 142.95C61.0205 142.721 60.4639 142.607 59.9072 142.607C59.2393 142.607 58.7236 142.859 58.3604 143.363C58.0088 143.843 57.833 144.508 57.833 145.358C57.833 147.086 58.5303 147.951 59.9248 147.951C60.5518 147.951 61.1348 147.831 61.6738 147.59L61.9727 149.515ZM71.0605 144.444C71.0605 144.977 71.0312 145.408 70.9727 145.736H65.4443C65.4443 147.347 66.2676 148.153 67.9141 148.153C68.7812 148.153 69.6455 147.977 70.5068 147.625L70.7529 149.375C69.7158 149.755 68.6377 149.946 67.5186 149.946C64.5771 149.946 63.1064 148.422 63.1064 145.375C63.1064 143.999 63.4814 142.876 64.2314 142.009C65.0107 141.101 66.0508 140.647 67.3516 140.647C68.5938 140.647 69.54 141.013 70.1904 141.746C70.7705 142.408 71.0605 143.307 71.0605 144.444ZM68.7754 144.207C68.8105 142.958 68.2949 142.334 67.2285 142.334C66.1855 142.334 65.5967 142.958 65.4619 144.207H68.7754ZM78.4785 149.77V144.048C78.4785 143.064 78.1064 142.572 77.3623 142.572C76.7881 142.572 76.2988 142.856 75.8945 143.424C75.4902 143.987 75.2881 144.661 75.2881 145.446V149.77H72.9854V140.823H75.165C75.165 141.456 75.1211 141.989 75.0332 142.422H75.0596C75.6689 141.239 76.6826 140.647 78.1006 140.647C79.876 140.647 80.7637 141.593 80.7637 143.486V149.77H78.4785ZM88.7354 146.984C88.7354 147.875 88.375 148.592 87.6543 149.137C86.9336 149.676 85.9814 149.946 84.7979 149.946C84.0186 149.946 83.3506 149.87 82.7939 149.717L82.9609 147.792C83.5117 148.033 84.1475 148.153 84.8682 148.153C85.8291 148.153 86.3096 147.828 86.3096 147.177C86.3096 146.837 86.1191 146.565 85.7383 146.36C85.7031 146.342 85.2871 146.181 84.4902 145.876C83.2773 145.419 82.6709 144.623 82.6709 143.486C82.6709 142.648 82.9785 141.974 83.5938 141.464C84.2734 140.908 85.2314 140.629 86.4678 140.629C86.9893 140.629 87.5283 140.688 88.085 140.805L87.9795 142.607C87.4521 142.449 86.9131 142.37 86.3623 142.37C85.4834 142.37 85.0439 142.677 85.0439 143.292C85.0439 143.615 85.2373 143.881 85.624 144.092L86.8896 144.602C88.1201 145.088 88.7354 145.882 88.7354 146.984ZM98.1484 144.444C98.1484 144.977 98.1191 145.408 98.0605 145.736H92.5322C92.5322 147.347 93.3555 148.153 95.002 148.153C95.8691 148.153 96.7334 147.977 97.5947 147.625L97.8408 149.375C96.8037 149.755 95.7256 149.946 94.6064 149.946C91.665 149.946 90.1943 148.422 90.1943 145.375C90.1943 143.999 90.5693 142.876 91.3193 142.009C92.0986 141.101 93.1387 140.647 94.4395 140.647C95.6816 140.647 96.6279 141.013 97.2783 141.746C97.8584 142.408 98.1484 143.307 98.1484 144.444ZM95.8633 144.207C95.8984 142.958 95.3828 142.334 94.3164 142.334C93.2734 142.334 92.6846 142.958 92.5498 144.207H95.8633ZM105.54 149.77C105.54 149.26 105.575 148.762 105.646 148.276H105.61C105.077 149.407 104.137 149.972 102.789 149.972C101.723 149.972 100.905 149.591 100.337 148.83C99.7979 148.103 99.5283 147.083 99.5283 145.771C99.5283 144.242 99.9473 143.014 100.785 142.088C101.641 141.139 102.801 140.665 104.266 140.665C104.67 140.665 105.048 140.688 105.399 140.735V136.63H107.685V149.77H105.54ZM105.399 142.625C104.954 142.531 104.55 142.484 104.187 142.484C102.687 142.484 101.937 143.498 101.937 145.525C101.937 147.212 102.449 148.056 103.475 148.056C104.055 148.056 104.526 147.76 104.89 147.168C105.229 146.612 105.399 145.932 105.399 145.129V142.625ZM118.478 149.77C118.478 149.155 118.507 148.651 118.565 148.258L118.548 148.241C118.062 149.377 117.109 149.946 115.691 149.946C114.9 149.946 114.271 149.703 113.802 149.216C113.356 148.748 113.134 148.141 113.134 147.397C113.134 146.36 113.603 145.575 114.54 145.042C115.431 144.532 116.685 144.277 118.302 144.277V143.952C118.302 143.401 118.182 143.005 117.941 142.765C117.695 142.513 117.282 142.387 116.702 142.387C115.847 142.387 114.944 142.592 113.995 143.002L113.617 141.236C114.637 140.832 115.765 140.629 117.001 140.629C118.331 140.629 119.277 140.905 119.84 141.456C120.35 141.948 120.604 142.721 120.604 143.776V147.467C120.604 148.346 120.628 149.114 120.675 149.77H118.478ZM118.302 145.789C116.333 145.789 115.349 146.24 115.349 147.142C115.349 147.441 115.445 147.687 115.639 147.88C115.838 148.085 116.102 148.188 116.43 148.188C116.969 148.188 117.42 147.962 117.783 147.511C118.129 147.083 118.302 146.588 118.302 146.026V145.789ZM128.523 149.77V144.048C128.523 143.064 128.151 142.572 127.407 142.572C126.833 142.572 126.344 142.856 125.939 143.424C125.535 143.987 125.333 144.661 125.333 145.446V149.77H123.03V140.823H125.21C125.21 141.456 125.166 141.989 125.078 142.422H125.104C125.714 141.239 126.728 140.647 128.146 140.647C129.921 140.647 130.809 141.593 130.809 143.486V149.77H128.523ZM138.675 149.77C138.675 149.26 138.71 148.762 138.78 148.276H138.745C138.212 149.407 137.271 149.972 135.924 149.972C134.857 149.972 134.04 149.591 133.472 148.83C132.933 148.103 132.663 147.083 132.663 145.771C132.663 144.242 133.082 143.014 133.92 142.088C134.775 141.139 135.936 140.665 137.4 140.665C137.805 140.665 138.183 140.688 138.534 140.735V136.63H140.819V149.77H138.675ZM138.534 142.625C138.089 142.531 137.685 142.484 137.321 142.484C135.821 142.484 135.071 143.498 135.071 145.525C135.071 147.212 135.584 148.056 136.609 148.056C137.189 148.056 137.661 147.76 138.024 147.168C138.364 146.612 138.534 145.932 138.534 145.129V142.625ZM151.779 149.7C151.111 149.864 150.464 149.946 149.837 149.946C148.853 149.946 148.173 149.741 147.798 149.331C147.429 148.92 147.244 148.191 147.244 147.142V142.607H145.697V140.823H147.244V138.072L149.529 137.457V140.823H151.709V142.607H149.529V146.527C149.529 147.101 149.608 147.491 149.767 147.696C149.919 147.901 150.194 148.003 150.593 148.003C150.991 148.003 151.334 147.962 151.621 147.88L151.779 149.7ZM158.424 142.897C156.766 142.569 155.937 143.641 155.937 146.114V149.77H153.634V140.823H155.813C155.813 141.391 155.758 141.992 155.646 142.625H155.682C156.232 141.177 157.182 140.518 158.529 140.647L158.424 142.897ZM165.789 149.77C165.789 149.079 165.824 148.545 165.895 148.17H165.877C165.262 149.354 164.248 149.946 162.836 149.946C161.061 149.946 160.173 149 160.173 147.107V140.823H162.458V146.544C162.458 147.529 162.83 148.021 163.574 148.021C164.154 148.021 164.646 147.737 165.051 147.168C165.449 146.612 165.648 145.938 165.648 145.147V140.823H167.951V149.77H165.789ZM175.958 146.984C175.958 147.875 175.598 148.592 174.877 149.137C174.156 149.676 173.204 149.946 172.021 149.946C171.241 149.946 170.573 149.87 170.017 149.717L170.184 147.792C170.734 148.033 171.37 148.153 172.091 148.153C173.052 148.153 173.532 147.828 173.532 147.177C173.532 146.837 173.342 146.565 172.961 146.36C172.926 146.342 172.51 146.181 171.713 145.876C170.5 145.419 169.894 144.623 169.894 143.486C169.894 142.648 170.201 141.974 170.816 141.464C171.496 140.908 172.454 140.629 173.69 140.629C174.212 140.629 174.751 140.688 175.308 140.805L175.202 142.607C174.675 142.449 174.136 142.37 173.585 142.37C172.706 142.37 172.267 142.677 172.267 143.292C172.267 143.615 172.46 143.881 172.847 144.092L174.112 144.602C175.343 145.088 175.958 145.882 175.958 146.984ZM182.822 149.7C182.154 149.864 181.507 149.946 180.88 149.946C179.896 149.946 179.216 149.741 178.841 149.331C178.472 148.92 178.287 148.191 178.287 147.142V142.607H176.74V140.823H178.287V138.072L180.572 137.457V140.823H182.752V142.607H180.572V146.527C180.572 147.101 180.651 147.491 180.81 147.696C180.962 147.901 181.237 148.003 181.636 148.003C182.034 148.003 182.377 147.962 182.664 147.88L182.822 149.7ZM191.857 144.444C191.857 144.977 191.828 145.408 191.77 145.736H186.241C186.241 147.347 187.064 148.153 188.711 148.153C189.578 148.153 190.442 147.977 191.304 147.625L191.55 149.375C190.513 149.755 189.435 149.946 188.315 149.946C185.374 149.946 183.903 148.422 183.903 145.375C183.903 143.999 184.278 142.876 185.028 142.009C185.808 141.101 186.848 140.647 188.148 140.647C189.391 140.647 190.337 141.013 190.987 141.746C191.567 142.408 191.857 143.307 191.857 144.444ZM189.572 144.207C189.607 142.958 189.092 142.334 188.025 142.334C186.982 142.334 186.394 142.958 186.259 144.207H189.572ZM199.249 149.77C199.249 149.26 199.284 148.762 199.354 148.276H199.319C198.786 149.407 197.846 149.972 196.498 149.972C195.432 149.972 194.614 149.591 194.046 148.83C193.507 148.103 193.237 147.083 193.237 145.771C193.237 144.242 193.656 143.014 194.494 142.088C195.35 141.139 196.51 140.665 197.975 140.665C198.379 140.665 198.757 140.688 199.108 140.735V136.63H201.394V149.77H199.249ZM199.108 142.625C198.663 142.531 198.259 142.484 197.896 142.484C196.396 142.484 195.646 143.498 195.646 145.525C195.646 147.212 196.158 148.056 197.184 148.056C197.764 148.056 198.235 147.76 198.599 147.168C198.938 146.612 199.108 145.932 199.108 145.129V142.625Z" fill="#565656"/>
<g filter="url(#filter3_d_224_7156)">
<path d="M143.255 73.8117C156.049 61.1438 156.049 40.6051 143.255 27.9372C130.462 15.2693 109.72 15.2693 96.9263 27.9372C84.1329 40.6051 84.1328 61.1439 96.9263 73.8118C109.72 86.4796 130.462 86.4796 143.255 73.8117Z" fill="#2C3E50"/>
</g>
<path d="M110.552 38.0029H125.739C125.753 38.013 125.764 38.0284 125.779 38.0324C126.789 38.3267 127.237 38.9073 127.237 39.9243C127.237 42.4717 127.237 45.0192 127.237 47.5667V47.8348C126.757 47.7718 126.317 47.6827 125.873 47.6646C125.426 47.6415 124.978 47.664 124.536 47.7316C120.548 48.3899 118.031 52.8313 120.13 56.5626C120.181 56.6572 120.208 56.7623 120.209 56.869C120.214 57.8578 120.209 58.8466 120.209 59.8355C120.209 59.9253 120.209 60.0151 120.209 60.1298H119.984C116.953 60.1298 113.923 60.1298 110.893 60.1298C110.789 60.1313 110.686 60.1243 110.584 60.109C109.646 59.9548 109.051 59.2469 109.051 58.2815C109.051 52.2815 109.051 46.2816 109.051 40.2816C109.051 40.0892 109.042 39.8954 109.051 39.7037C109.091 39.0206 109.419 38.5118 110.046 38.1973C110.211 38.1236 110.38 38.0587 110.552 38.0029ZM117.536 43.6342C118.69 43.6342 119.844 43.6342 120.997 43.6342C121.499 43.6342 121.866 43.2829 121.864 42.8257C121.861 42.3685 121.492 42.0313 120.987 42.0273C120.6 42.0239 120.213 42.0273 119.825 42.0273C117.914 42.0273 116.003 42.0273 114.092 42.0273C113.722 42.0273 113.436 42.1613 113.271 42.4865C112.995 43.0288 113.403 43.6329 114.051 43.6362C115.213 43.6382 116.374 43.6335 117.536 43.6335V43.6342ZM117.552 45.2431H114.117C113.565 45.2431 113.191 45.5642 113.187 46.0395C113.183 46.5149 113.559 46.8507 114.103 46.8514C116.384 46.8514 118.665 46.8514 120.946 46.8514C121.492 46.8514 121.867 46.5162 121.864 46.0409C121.86 45.5656 121.485 45.2438 120.935 45.2431H117.552ZM116.089 50.0699C116.752 50.0699 117.414 50.0699 118.077 50.0699C118.601 50.0699 118.974 49.728 118.974 49.2655C118.974 48.8029 118.599 48.4664 118.073 48.4657C116.747 48.4657 115.422 48.4657 114.096 48.4657C113.565 48.4657 113.195 48.7935 113.19 49.2601C113.185 49.7267 113.561 50.0719 114.104 50.0739C114.763 50.0713 115.426 50.0699 116.089 50.0693V50.0699Z" fill="white"/>
<path d="M122.482 63.7457C121.999 63.5446 121.845 63.1846 121.854 62.6845C121.878 61.4034 121.862 60.1222 121.862 58.8405V58.52C122.992 59.307 124.214 59.7193 125.568 59.7213C126.922 59.7234 128.153 59.3191 129.301 58.5146V58.813C129.301 60.1028 129.285 61.3926 129.309 62.6818C129.318 63.1819 129.164 63.5426 128.681 63.7437H128.267C127.439 63.2858 126.611 62.8326 125.791 62.3667C125.73 62.3243 125.657 62.3015 125.581 62.3015C125.506 62.3015 125.433 62.3243 125.372 62.3667C124.552 62.836 123.724 63.2885 122.896 63.7457H122.482Z" fill="white"/>
<path d="M121.038 53.6768C121.041 52.504 121.524 51.3806 122.38 50.5535C123.236 49.7264 124.395 49.2631 125.602 49.2656C128.105 49.2717 130.139 51.2701 130.129 53.7143C130.133 54.2985 130.018 54.8777 129.791 55.4184C129.563 55.9592 129.227 56.4506 128.802 56.8643C128.378 57.278 127.873 57.6058 127.317 57.8286C126.761 58.0515 126.165 58.1649 125.564 58.1624C124.962 58.16 124.367 58.0416 123.813 57.8142C123.259 57.5868 122.757 57.2548 122.336 56.8376C121.916 56.4204 121.584 55.9262 121.361 55.3836C121.138 54.8411 121.028 54.2609 121.038 53.6768ZM124.939 53.8276C124.748 53.7043 124.585 53.5957 124.419 53.4924C123.992 53.229 123.499 53.3175 123.241 53.7016C122.982 54.0857 123.093 54.5584 123.517 54.8372C123.893 55.0866 124.271 55.3324 124.653 55.5747C125.127 55.8757 125.584 55.7885 125.9 55.3313C126.422 54.5751 126.939 53.8156 127.458 53.0574C127.492 53.009 127.523 52.9589 127.551 52.9072C127.642 52.7486 127.674 52.5641 127.64 52.3855C127.606 52.2069 127.508 52.0454 127.365 51.9291C127.231 51.8082 127.059 51.7362 126.877 51.7256C126.695 51.7149 126.514 51.7663 126.367 51.8708C126.24 51.9702 126.132 52.0896 126.046 52.2241C125.675 52.749 125.316 53.2786 124.939 53.8276Z" fill="white"/>
<defs>
<filter id="filter0_d_224_7156" x="39.3716" y="17.6316" width="215.001" height="266.785" filterUnits="userSpaceOnUse" color-interpolation-filters="sRGB">
<feFlood flood-opacity="0" result="BackgroundImageFix"/>
<feColorMatrix in="SourceAlpha" type="matrix" values="0 0 0 0 0 0 0 0 0 0 0 0 0 0 0 0 0 0 127 0" result="hardAlpha"/>
<feOffset dy="2.8317"/>
<feGaussianBlur stdDeviation="10.6189"/>
<feComposite in2="hardAlpha" operator="out"/>
<feColorMatrix type="matrix" values="0 0 0 0 0 0 0 0 0 0 0 0 0 0 0 0 0 0 0.15 0"/>
<feBlend mode="normal" in2="BackgroundImageFix" result="effect1_dropShadow_224_7156"/>
<feBlend mode="normal" in="SourceGraphic" in2="effect1_dropShadow_224_7156" result="shape"/>
</filter>
<filter id="filter1_d_224_7156" x="0.297417" y="32.4289" width="239.138" height="237.204" filterUnits="userSpaceOnUse" color-interpolation-filters="sRGB">
<feFlood flood-opacity="0" result="BackgroundImageFix"/>
<feColorMatrix in="SourceAlpha" type="matrix" values="0 0 0 0 0 0 0 0 0 0 0 0 0 0 0 0 0 0 127 0" result="hardAlpha"/>
<feOffset dy="2.8317"/>
<feGaussianBlur stdDeviation="10.6189"/>
<feComposite in2="hardAlpha" operator="out"/>
<feColorMatrix type="matrix" values="0 0 0 0 0 0 0 0 0 0 0 0 0 0 0 0 0 0 0.15 0"/>
<feBlend mode="normal" in2="BackgroundImageFix" result="effect1_dropShadow_224_7156"/>
<feBlend mode="normal" in="SourceGraphic" in2="effect1_dropShadow_224_7156" result="shape"/>
</filter>
<filter id="filter2_d_224_7156" x="5.74273" y="40.2912" width="228.241" height="223.288" filterUnits="userSpaceOnUse" color-interpolation-filters="sRGB">
<feFlood flood-opacity="0" result="BackgroundImageFix"/>
<feColorMatrix in="SourceAlpha" type="matrix" values="0 0 0 0 0 0 0 0 0 0 0 0 0 0 0 0 0 0 127 0" result="hardAlpha"/>
<feOffset dy="2.8317"/>
<feGaussianBlur stdDeviation="10.6189"/>
<feComposite in2="hardAlpha" operator="out"/>
<feColorMatrix type="matrix" values="0 0 0 0 0 0 0 0 0 0 0 0 0 0 0 0 0 0 0.15 0"/>
<feBlend mode="normal" in2="BackgroundImageFix" result="effect1_dropShadow_224_7156"/>
<feBlend mode="normal" in="SourceGraphic" in2="effect1_dropShadow_224_7156" result="shape"/>
</filter>
<filter id="filter3_d_224_7156" x="66.0943" y="0.0304823" width="107.993" height="107.351" filterUnits="userSpaceOnUse" color-interpolation-filters="sRGB">
<feFlood flood-opacity="0" result="BackgroundImageFix"/>
<feColorMatrix in="SourceAlpha" type="matrix" values="0 0 0 0 0 0 0 0 0 0 0 0 0 0 0 0 0 0 127 0" result="hardAlpha"/>
<feOffset dy="2.8317"/>
<feGaussianBlur stdDeviation="10.6189"/>
<feComposite in2="hardAlpha" operator="out"/>
<feColorMatrix type="matrix" values="0 0 0 0 0 0 0 0 0 0 0 0 0 0 0 0 0 0 0.15 0"/>
<feBlend mode="normal" in2="BackgroundImageFix" result="effect1_dropShadow_224_7156"/>
<feBlend mode="normal" in="SourceGraphic" in2="effect1_dropShadow_224_7156" result="shape"/>
</filter>
</defs>
</svg>
