<svg width="255" height="285" viewBox="0 0 255 285" fill="none" xmlns="http://www.w3.org/2000/svg">
<path d="M62.2025 208.433C61.9767 208.433 61.7531 208.39 61.5445 208.304C61.3359 208.218 61.1466 208.093 60.9874 207.934L60.1853 207.142C59.8744 206.821 59.703 206.392 59.7078 205.947C59.7126 205.502 59.8933 205.076 60.2111 204.761C60.5289 204.447 60.9586 204.268 61.408 204.263C61.8575 204.258 62.2909 204.428 62.6155 204.736L63.4176 205.528C63.6578 205.766 63.8214 206.069 63.8877 206.399C63.954 206.729 63.92 207.071 63.7899 207.382C63.6599 207.693 63.4397 207.959 63.1571 208.146C62.8745 208.333 62.5424 208.433 62.2025 208.433ZM53.3913 199.708C53.1656 199.708 52.942 199.665 52.7335 199.579C52.5249 199.493 52.3356 199.368 52.1762 199.209L51.3765 198.418C51.0542 198.099 50.8731 197.666 50.8728 197.215C50.8726 196.764 51.0534 196.332 51.3753 196.012C51.6973 195.693 52.1341 195.514 52.5896 195.514C53.0451 195.513 53.4821 195.692 53.8043 196.011L54.6064 196.805C54.847 197.043 55.011 197.346 55.0774 197.676C55.1439 198.006 55.1099 198.348 54.9798 198.659C54.8496 198.97 54.6291 199.236 54.3464 199.423C54.0636 199.609 53.7312 199.709 53.3913 199.708ZM44.5873 190.983C44.1319 190.984 43.6948 190.805 43.3722 190.487L42.5725 189.693C42.4073 189.536 42.2753 189.348 42.1844 189.14C42.0934 188.932 42.0453 188.709 42.0429 188.482C42.0404 188.256 42.0837 188.031 42.1701 187.821C42.2565 187.611 42.3844 187.421 42.5462 187.26C42.708 187.1 42.9005 186.974 43.1123 186.888C43.3242 186.802 43.5512 186.76 43.78 186.762C44.0088 186.764 44.2348 186.812 44.4448 186.902C44.6547 186.992 44.8444 187.123 45.0027 187.286L45.8024 188.081C46.043 188.318 46.2069 188.622 46.2734 188.952C46.3399 189.282 46.3059 189.624 46.1757 189.935C46.0456 190.246 45.8251 190.511 45.5424 190.698C45.2596 190.885 44.9272 190.984 44.5873 190.983ZM35.7762 182.261C35.3204 182.261 34.8834 182.081 34.5611 181.762L33.7613 180.968C33.4504 180.647 33.2789 180.218 33.2838 179.772C33.2886 179.327 33.4692 178.902 33.7871 178.587C34.1049 178.273 34.5346 178.094 34.9841 178.089C35.4335 178.084 35.867 178.254 36.1915 178.562L36.9912 179.356C37.2315 179.594 37.3951 179.897 37.4614 180.227C37.5276 180.557 37.4936 180.899 37.3636 181.21C37.2335 181.521 37.0133 181.787 36.7308 181.974C36.4482 182.161 36.116 182.261 35.7762 182.261ZM26.9649 173.536C26.7396 173.536 26.5165 173.492 26.3084 173.407C26.1003 173.321 25.9113 173.196 25.7523 173.038L24.9502 172.243C24.7908 172.085 24.6643 171.898 24.5781 171.691C24.4919 171.485 24.4476 171.264 24.4477 171.041C24.4478 170.817 24.4924 170.596 24.5788 170.39C24.6652 170.184 24.7918 169.996 24.9514 169.838C25.111 169.68 25.3003 169.555 25.5087 169.47C25.7172 169.384 25.9405 169.341 26.1661 169.341C26.3916 169.341 26.615 169.385 26.8233 169.47C27.0317 169.556 27.2209 169.681 27.3803 169.839L28.1801 170.631C28.4203 170.869 28.5839 171.173 28.6502 171.503C28.7165 171.833 28.6825 172.175 28.5524 172.486C28.4224 172.797 28.2021 173.062 27.9196 173.249C27.637 173.436 27.3048 173.536 26.9649 173.536ZM18.1562 164.812C17.9304 164.812 17.7067 164.769 17.4981 164.683C17.2895 164.597 17.1002 164.472 16.9411 164.313L16.139 163.521C15.8367 163.198 15.6723 162.772 15.6806 162.332C15.6888 161.892 15.8689 161.472 16.1831 161.161C16.4973 160.849 16.9211 160.671 17.3655 160.662C17.81 160.653 18.2406 160.816 18.5668 161.115L19.3689 161.907C19.6092 162.145 19.7727 162.448 19.839 162.778C19.9053 163.108 19.8713 163.45 19.7412 163.761C19.6112 164.072 19.3909 164.338 19.1084 164.525C18.8258 164.712 18.4937 164.812 18.1538 164.812H18.1562ZM10.1065 155.498C9.77406 155.498 9.44883 155.402 9.17013 155.222C8.89142 155.043 8.67112 154.787 8.53574 154.487C8.36624 154.106 8.2063 153.711 8.0583 153.319C7.91818 152.896 7.95096 152.436 8.14956 152.036C8.34817 151.637 8.69679 151.331 9.12076 151.183C9.54474 151.035 10.0103 151.058 10.4177 151.246C10.8251 151.434 11.1419 151.773 11.3001 152.189C11.4099 152.496 11.5389 152.806 11.6678 153.106C11.7839 153.365 11.8328 153.649 11.81 153.932C11.7873 154.214 11.6937 154.487 11.5376 154.724C11.3816 154.962 11.1681 155.157 10.9165 155.292C10.6649 155.427 10.3832 155.498 10.097 155.498H10.1065ZM10.2569 143.538C10.0024 143.538 9.75109 143.481 9.52168 143.372C9.31776 143.276 9.13488 143.142 8.98357 142.976C8.83226 142.81 8.71544 142.616 8.63983 142.406C8.56422 142.195 8.53127 141.972 8.5429 141.749C8.55454 141.526 8.61051 141.307 8.70761 141.105C8.88904 140.729 9.08478 140.356 9.29485 139.994C9.40531 139.797 9.5544 139.623 9.73342 139.483C9.91244 139.343 10.1178 139.24 10.3376 139.179C10.5573 139.118 10.7871 139.102 11.0134 139.13C11.2397 139.158 11.4581 139.231 11.6558 139.343C11.8536 139.456 12.0267 139.606 12.1651 139.786C12.3035 139.965 12.4044 140.171 12.4619 140.389C12.5195 140.608 12.5325 140.835 12.5003 141.059C12.468 141.283 12.3911 141.498 12.2741 141.692C12.1094 141.975 11.9542 142.271 11.811 142.566C11.6708 142.858 11.4496 143.105 11.1731 143.277C10.8966 143.449 10.5763 143.539 10.2497 143.538H10.2569ZM18.4116 134.298C18.0718 134.298 17.7395 134.198 17.457 134.011C17.1744 133.824 16.9542 133.558 16.8242 133.247C16.6941 132.936 16.6601 132.594 16.7264 132.264C16.7926 131.934 16.9563 131.631 17.1965 131.393L17.9987 130.598C18.1545 130.425 18.3445 130.286 18.5568 130.188C18.7692 130.09 18.9995 130.037 19.2335 130.03C19.4676 130.024 19.7005 130.065 19.918 130.151C20.1355 130.237 20.333 130.366 20.4983 130.53C20.6636 130.694 20.7933 130.89 20.8794 131.105C20.9656 131.321 21.0063 131.552 20.9991 131.784C20.9919 132.015 20.937 132.243 20.8377 132.453C20.7384 132.663 20.5968 132.851 20.4216 133.005L19.6195 133.799C19.4601 133.957 19.2707 134.083 19.0622 134.168C18.8537 134.254 18.6302 134.298 18.4045 134.298H18.4116ZM27.2228 125.573C26.8829 125.573 26.5507 125.473 26.2682 125.286C25.9856 125.099 25.7654 124.833 25.6354 124.522C25.5053 124.211 25.4712 123.869 25.5375 123.539C25.6038 123.209 25.7674 122.906 26.0077 122.668L26.8098 121.876C26.9692 121.718 27.1585 121.593 27.3668 121.507C27.5751 121.421 27.7985 121.377 28.024 121.377C28.2496 121.377 28.473 121.421 28.6814 121.506C28.8898 121.592 29.0792 121.717 29.2388 121.875C29.3984 122.033 29.525 122.22 29.6114 122.426C29.6978 122.633 29.7423 122.854 29.7424 123.077C29.7425 123.3 29.6982 123.522 29.612 123.728C29.5258 123.934 29.3994 124.122 29.24 124.28L28.4379 125.074C28.2775 125.233 28.0869 125.359 27.8771 125.445C27.6673 125.53 27.4425 125.574 27.2156 125.573H27.2228ZM36.0339 116.848C35.6941 116.848 35.3619 116.748 35.0793 116.561C34.7968 116.374 34.5766 116.108 34.4465 115.797C34.3165 115.487 34.2825 115.144 34.3487 114.814C34.415 114.484 34.5786 114.181 34.8189 113.943L35.621 113.151C35.9455 112.843 36.379 112.674 36.8284 112.678C37.2779 112.683 37.7075 112.862 38.0254 113.177C38.3432 113.491 38.5239 113.917 38.5287 114.362C38.5335 114.807 38.3621 115.236 38.0512 115.558L37.249 116.349C37.0889 116.509 36.8983 116.635 36.6885 116.72C36.4787 116.806 36.2537 116.849 36.0268 116.848H36.0339ZM44.8451 108.123C44.5053 108.123 44.173 108.023 43.8905 107.836C43.6079 107.649 43.3877 107.384 43.2577 107.073C43.1276 106.762 43.0936 106.42 43.1599 106.09C43.2262 105.76 43.3898 105.456 43.63 105.218L44.4298 104.427C44.7543 104.119 45.1877 103.949 45.6372 103.954C46.0866 103.958 46.5163 104.137 46.8342 104.452C47.152 104.767 47.3327 105.192 47.3375 105.637C47.3423 106.082 47.1709 106.511 46.8599 106.833L46.0602 107.625C45.9 107.784 45.7095 107.91 45.4997 107.996C45.2899 108.081 45.0649 108.125 44.838 108.123H44.8451ZM53.6587 99.3988C53.3193 99.3982 52.9877 99.2981 52.7057 99.1112C52.4236 98.9243 52.2038 98.6589 52.0738 98.3485C51.9439 98.0381 51.9097 97.6965 51.9755 97.3668C52.0413 97.0372 52.2041 96.7342 52.4436 96.496L53.2433 95.7018C53.4016 95.5382 53.5913 95.4075 53.8012 95.3175C54.0112 95.2274 54.2372 95.1798 54.466 95.1774C54.6948 95.1749 54.9218 95.2178 55.1337 95.3034C55.3455 95.3889 55.538 95.5155 55.6998 95.6758C55.8616 95.836 55.9895 96.0265 56.0759 96.2363C56.1623 96.4461 56.2056 96.6709 56.2031 96.8974C56.2007 97.124 56.1526 97.3478 56.0616 97.5557C55.9707 97.7636 55.8387 97.9514 55.6735 98.1081L54.8738 98.9C54.7145 99.0584 54.5251 99.184 54.3166 99.2696C54.108 99.3552 53.8844 99.3991 53.6587 99.3988ZM62.4698 90.674C62.13 90.6746 61.7976 90.5752 61.5148 90.3885C61.232 90.2018 61.0116 89.9362 60.8814 89.6253C60.7513 89.3144 60.7173 88.9722 60.7838 88.6421C60.8502 88.3121 61.0142 88.009 61.2548 87.7713L61.5221 87.5042C61.8467 87.1963 62.2802 87.0266 62.7296 87.0313C63.1791 87.0361 63.6087 87.215 63.9265 87.5297C64.2444 87.8444 64.4251 88.2699 64.4299 88.7149C64.4347 89.16 64.2633 89.5892 63.9524 89.9105L63.6826 90.1777C63.5223 90.3366 63.3317 90.4623 63.1218 90.5475C62.912 90.6327 62.6871 90.6757 62.4603 90.674H62.4698Z" fill="#6CA6D1"/>
<g filter="url(#filter0_d_224_1460)">
<path d="M119.839 260.131C117.64 260.135 115.461 259.708 113.428 258.875C111.395 258.043 109.549 256.821 107.994 255.281L60.584 208.336L63.8234 205.128L111.236 252.073C113.519 254.331 116.613 255.599 119.839 255.599C123.066 255.599 126.16 254.331 128.443 252.073L224.962 156.501C227.243 154.24 228.524 151.176 228.524 147.98C228.524 144.785 227.243 141.721 224.962 139.46L128.443 43.8902C126.16 41.6327 123.066 40.3646 119.839 40.3646C116.613 40.3646 113.519 41.6327 111.236 43.8902L64.351 90.3149L61.1092 87.1072L107.994 40.6826C109.549 39.1417 111.395 37.9194 113.427 37.0854C115.46 36.2514 117.638 35.8221 119.838 35.8221C122.038 35.8221 124.216 36.2514 126.248 37.0854C128.281 37.9194 130.127 39.1417 131.682 40.6826L228.204 136.255C231.345 139.366 233.11 143.584 233.11 147.983C233.11 152.382 231.345 156.6 228.204 159.711L131.682 255.283C130.128 256.824 128.282 258.045 126.249 258.877C124.217 259.709 122.038 260.135 119.839 260.131Z" fill="#6CA6D1"/>
</g>
<g filter="url(#filter1_d_224_1460)">
<path d="M109.183 240.975L25.9194 158.533C24.5202 157.148 23.4102 155.504 22.653 153.694C21.8957 151.884 21.5059 149.944 21.5059 147.985C21.5059 146.026 21.8957 144.086 22.653 142.276C23.4102 140.466 24.5202 138.822 25.9194 137.437L109.183 54.9879C112.009 52.1908 115.841 50.6195 119.837 50.6195C123.833 50.6195 127.665 52.1908 130.491 54.9879L213.754 137.437C215.153 138.822 216.263 140.466 217.021 142.276C217.778 144.086 218.168 146.026 218.168 147.985C218.168 149.944 217.778 151.884 217.021 153.694C216.263 155.504 215.153 157.148 213.754 158.533L130.491 240.98C129.092 242.365 127.43 243.464 125.602 244.213C123.774 244.963 121.815 245.348 119.836 245.348C117.857 245.347 115.898 244.961 114.07 244.211C112.242 243.46 110.581 242.361 109.183 240.975Z" fill="white"/>
</g>
<g filter="url(#filter2_d_224_1460)">
<path d="M105.816 233.543L32.768 161.212C30.9253 159.389 29.4633 157.225 28.4659 154.843C27.4685 152.461 26.9551 149.908 26.9551 147.329C26.9551 144.75 27.4685 142.197 28.4659 139.815C29.4633 137.433 30.9253 135.269 32.768 133.447L105.816 64.2328C107.658 62.4094 109.844 60.963 112.249 59.9763C114.655 58.9895 117.234 58.4816 119.838 58.4816C122.442 58.4816 125.02 58.9895 127.426 59.9763C129.832 60.963 132.018 62.4094 133.859 64.2328L206.908 133.447C208.75 135.269 210.212 137.433 211.21 139.815C212.207 142.197 212.72 144.75 212.72 147.329C212.72 149.908 212.207 152.461 211.21 154.843C210.212 157.225 208.75 159.389 206.908 161.212L133.859 233.543C132.018 235.367 129.832 236.813 127.426 237.8C125.02 238.787 122.442 239.294 119.838 239.294C117.234 239.294 114.655 238.787 112.249 237.8C109.844 236.813 107.658 235.367 105.816 233.543Z" fill="white"/>
</g>
<path d="M100.553 147.917H102.337V149.789H100.465C100.102 152.549 98.4404 153.928 95.4814 153.928C92.3115 153.928 90.7266 152.223 90.7266 148.813C90.7266 147.712 90.8701 146.639 91.1572 145.596L93.6094 145.148C93.2695 146.343 93.0996 147.495 93.0996 148.602C93.0996 150.917 93.9521 152.074 95.6572 152.074C97.3389 152.074 98.1797 150.934 98.1797 148.655V141.325H100.553V147.917ZM95.4023 143.575C95.0625 143.575 94.7725 143.458 94.5322 143.223C94.2861 142.983 94.1631 142.687 94.1631 142.336C94.1631 141.996 94.2861 141.703 94.5322 141.457C94.7725 141.217 95.0625 141.096 95.4023 141.096C95.748 141.096 96.041 141.217 96.2812 141.457C96.5273 141.703 96.6504 141.996 96.6504 142.336C96.6504 142.676 96.5273 142.968 96.2812 143.215C96.041 143.455 95.748 143.575 95.4023 143.575ZM102.073 149.789V147.917H103.102C103.518 147.917 103.852 147.958 104.104 148.04C103.436 147.553 103.102 146.695 103.102 145.465C103.102 144.246 103.488 143.232 104.262 142.424C105.117 141.539 106.289 141.096 107.777 141.096C110.49 141.096 111.847 142.476 111.847 145.236V149.789H102.073ZM109.526 145.526C109.526 143.821 108.885 142.968 107.602 142.968C106.939 142.968 106.412 143.197 106.02 143.654C105.645 144.099 105.457 144.679 105.457 145.394C105.457 147.076 106.356 147.917 108.155 147.917H109.526V145.526ZM113.842 137.097H116.215V149.789H113.842V137.097ZM111.952 134.847L113.842 133.441C114.346 133.91 114.911 134.144 115.538 134.144C116.188 134.144 116.812 133.898 117.41 133.406V135.137C116.848 135.594 116.186 135.823 115.424 135.823C114.773 135.823 114.24 135.63 113.824 135.243L112.778 135.981L111.952 134.847ZM126.867 154.377C125.145 154.377 123.841 154.066 122.956 153.445C122.165 152.888 121.77 152.144 121.77 151.213C121.77 150.24 122.209 149.402 123.088 148.699C123.609 148.283 124.544 147.776 125.892 147.178C124.462 145.819 123.261 145.005 122.288 144.735L122.49 143.039C124.336 141.709 126.07 141.044 127.693 141.044C128.959 141.044 129.926 141.34 130.594 141.931C131.191 142.459 131.49 143.147 131.49 143.997C131.49 145.286 130.805 146.399 129.434 147.337C130.166 147.723 130.904 147.917 131.648 147.917H132.844V149.789H131.385C129.896 149.789 128.563 149.343 127.386 148.453C126.19 149.039 125.452 149.426 125.171 149.613C124.521 150.047 124.195 150.501 124.195 150.975C124.195 152.007 125.174 152.522 127.131 152.522C128.057 152.522 128.959 152.446 129.838 152.294L129.979 154.087C128.936 154.28 127.898 154.377 126.867 154.377ZM124.688 143.865C125.273 144.099 126.316 144.873 127.816 146.185C128.695 145.617 129.135 144.987 129.135 144.296C129.135 143.85 128.994 143.493 128.713 143.223C128.408 142.93 127.978 142.784 127.421 142.784C126.677 142.784 125.766 143.144 124.688 143.865ZM132.571 149.789V147.917H133.6C134.016 147.917 134.35 147.958 134.602 148.04C133.934 147.553 133.6 146.695 133.6 145.465C133.6 144.246 133.986 143.232 134.76 142.424C135.615 141.539 136.787 141.096 138.275 141.096C140.988 141.096 142.345 142.476 142.345 145.236V149.789H132.571ZM140.024 145.526C140.024 143.821 139.383 142.968 138.1 142.968C137.438 142.968 136.91 143.197 136.518 143.654C136.143 144.099 135.955 144.679 135.955 145.394C135.955 147.076 136.854 147.917 138.653 147.917H140.024V145.526ZM138.047 139.743C137.701 139.743 137.408 139.626 137.168 139.391C136.922 139.145 136.799 138.849 136.799 138.504C136.799 138.164 136.922 137.871 137.168 137.625C137.408 137.384 137.701 137.264 138.047 137.264C138.387 137.264 138.677 137.384 138.917 137.625C139.163 137.871 139.286 138.164 139.286 138.504C139.286 138.843 139.163 139.136 138.917 139.383C138.677 139.623 138.387 139.743 138.047 139.743ZM144.419 147.917H149.763C149.657 145.251 148.242 143.572 145.518 142.881L146.089 140.894C148.104 141.427 149.593 142.283 150.554 143.461C151.573 144.715 152.083 146.428 152.083 148.602V149.789H144.419V147.917Z" fill="#565656"/>
<g filter="url(#filter3_d_224_1460)">
<path d="M142.968 73.7752C155.762 61.1073 155.762 40.5686 142.968 27.9007C130.175 15.2328 109.433 15.2328 96.6392 27.9007C83.8458 40.5686 83.8457 61.1074 96.6392 73.7753C109.433 86.4431 130.175 86.4431 142.968 73.7752Z" fill="#6CA6D1"/>
</g>
<path d="M109.291 59.8334V47.3797C109.299 47.368 109.312 47.3568 109.314 47.3438C109.45 46.3265 110.337 45.5506 111.49 45.5983C111.931 45.6165 112.374 45.6113 112.815 45.5983C112.972 45.5945 113.125 45.5541 113.262 45.4806C115.499 44.1995 117.721 42.8938 119.967 41.6298C121.216 40.9286 122.382 40.0826 123.739 39.5805H124.261C125.142 39.7182 125.644 40.2905 126.052 41.0246C126.874 42.4999 127.738 43.9534 128.577 45.4193C128.61 45.4853 128.659 45.5418 128.721 45.5837C128.782 45.6255 128.853 45.6512 128.927 45.6583C129.751 45.7826 130.472 46.542 130.532 47.3591C130.566 47.889 130.561 48.4188 130.565 48.9487C130.569 49.4238 130.376 49.6092 129.892 49.6092C128.94 49.6092 127.989 49.6051 127.041 49.6121C126.658 49.6067 126.274 49.624 125.892 49.664C123.647 49.9459 122.038 52.2602 122.553 54.4537C122.999 56.3576 124.59 57.6192 126.568 57.6298C127.692 57.6357 128.816 57.6298 129.94 57.6298C130.368 57.6298 130.562 57.8212 130.566 58.248C130.569 58.6748 130.592 59.1116 130.557 59.5396C130.531 59.8628 130.482 60.206 130.346 60.4939C129.972 61.2775 129.302 61.6372 128.436 61.6378C125.949 61.6413 123.461 61.6413 120.974 61.6378C117.797 61.6378 114.62 61.6378 111.444 61.6378C110.725 61.6378 110.132 61.3864 109.691 60.8136C109.463 60.5251 109.363 60.1854 109.291 59.8334ZM124.897 41.0823C124.556 40.5601 124.019 40.4459 123.462 40.7667C120.733 42.3386 118.004 43.9124 115.276 45.4882C115.236 45.5112 115.202 45.5424 115.119 45.606C115.739 45.606 116.301 45.6124 116.864 45.6012C116.999 45.5975 117.132 45.5607 117.249 45.4941C119.737 44.0671 122.222 42.6361 124.705 41.2012C124.768 41.1659 124.824 41.1264 124.897 41.0823ZM126.415 43.6885L123.133 45.5824H127.509C127.138 44.9401 126.786 44.3255 126.415 43.6885Z" fill="white"/>
<path d="M128.199 50.61C128.786 50.61 129.374 50.61 129.96 50.61C130.925 50.6147 131.566 51.2499 131.571 52.2066C131.574 53.1391 131.574 54.072 131.571 55.0053C131.571 55.9567 130.985 56.6019 130.031 56.6208C128.778 56.6461 127.522 56.6573 126.271 56.6019C124.759 56.5342 123.526 55.2508 123.476 53.782C123.424 52.1878 124.517 50.8331 126.072 50.6618C126.772 50.5841 127.489 50.6489 128.199 50.6489L128.199 50.61ZM126.511 52.6222C126.311 52.6222 126.116 52.6809 125.949 52.7909C125.783 52.9009 125.654 53.0572 125.577 53.24C125.501 53.4229 125.481 53.6241 125.52 53.8183C125.559 54.0124 125.655 54.1907 125.796 54.3307C125.938 54.4707 126.118 54.566 126.314 54.6046C126.51 54.6432 126.713 54.6234 126.898 54.5477C127.082 54.4719 127.24 54.3436 127.351 54.1791C127.462 54.0145 127.522 53.821 127.522 53.623C127.521 53.3579 127.414 53.1038 127.225 52.9165C127.035 52.7292 126.779 52.624 126.511 52.624V52.6222Z" fill="white"/>
<defs>
<filter id="filter0_d_224_1460" x="39.3462" y="17.4161" width="215.001" height="266.785" filterUnits="userSpaceOnUse" color-interpolation-filters="sRGB">
<feFlood flood-opacity="0" result="BackgroundImageFix"/>
<feColorMatrix in="SourceAlpha" type="matrix" values="0 0 0 0 0 0 0 0 0 0 0 0 0 0 0 0 0 0 127 0" result="hardAlpha"/>
<feOffset dy="2.8317"/>
<feGaussianBlur stdDeviation="10.6189"/>
<feComposite in2="hardAlpha" operator="out"/>
<feColorMatrix type="matrix" values="0 0 0 0 0 0 0 0 0 0 0 0 0 0 0 0 0 0 0.15 0"/>
<feBlend mode="normal" in2="BackgroundImageFix" result="effect1_dropShadow_224_1460"/>
<feBlend mode="normal" in="SourceGraphic" in2="effect1_dropShadow_224_1460" result="shape"/>
</filter>
<filter id="filter1_d_224_1460" x="0.26812" y="32.2135" width="239.138" height="237.204" filterUnits="userSpaceOnUse" color-interpolation-filters="sRGB">
<feFlood flood-opacity="0" result="BackgroundImageFix"/>
<feColorMatrix in="SourceAlpha" type="matrix" values="0 0 0 0 0 0 0 0 0 0 0 0 0 0 0 0 0 0 127 0" result="hardAlpha"/>
<feOffset dy="2.8317"/>
<feGaussianBlur stdDeviation="10.6189"/>
<feComposite in2="hardAlpha" operator="out"/>
<feColorMatrix type="matrix" values="0 0 0 0 0 0 0 0 0 0 0 0 0 0 0 0 0 0 0.15 0"/>
<feBlend mode="normal" in2="BackgroundImageFix" result="effect1_dropShadow_224_1460"/>
<feBlend mode="normal" in="SourceGraphic" in2="effect1_dropShadow_224_1460" result="shape"/>
</filter>
<filter id="filter2_d_224_1460" x="5.71734" y="40.0755" width="228.241" height="223.288" filterUnits="userSpaceOnUse" color-interpolation-filters="sRGB">
<feFlood flood-opacity="0" result="BackgroundImageFix"/>
<feColorMatrix in="SourceAlpha" type="matrix" values="0 0 0 0 0 0 0 0 0 0 0 0 0 0 0 0 0 0 127 0" result="hardAlpha"/>
<feOffset dy="2.8317"/>
<feGaussianBlur stdDeviation="10.6189"/>
<feComposite in2="hardAlpha" operator="out"/>
<feColorMatrix type="matrix" values="0 0 0 0 0 0 0 0 0 0 0 0 0 0 0 0 0 0 0.15 0"/>
<feBlend mode="normal" in2="BackgroundImageFix" result="effect1_dropShadow_224_1460"/>
<feBlend mode="normal" in="SourceGraphic" in2="effect1_dropShadow_224_1460" result="shape"/>
</filter>
<filter id="filter3_d_224_1460" x="65.8072" y="-0.00623035" width="107.993" height="107.352" filterUnits="userSpaceOnUse" color-interpolation-filters="sRGB">
<feFlood flood-opacity="0" result="BackgroundImageFix"/>
<feColorMatrix in="SourceAlpha" type="matrix" values="0 0 0 0 0 0 0 0 0 0 0 0 0 0 0 0 0 0 127 0" result="hardAlpha"/>
<feOffset dy="2.8317"/>
<feGaussianBlur stdDeviation="10.6189"/>
<feComposite in2="hardAlpha" operator="out"/>
<feColorMatrix type="matrix" values="0 0 0 0 0 0 0 0 0 0 0 0 0 0 0 0 0 0 0.15 0"/>
<feBlend mode="normal" in2="BackgroundImageFix" result="effect1_dropShadow_224_1460"/>
<feBlend mode="normal" in="SourceGraphic" in2="effect1_dropShadow_224_1460" result="shape"/>
</filter>
</defs>
</svg>
