<svg width="255" height="285" viewBox="0 0 255 285" fill="none" xmlns="http://www.w3.org/2000/svg">
<path d="M62.2299 208.649C62.0041 208.649 61.7804 208.605 61.5719 208.52C61.3633 208.434 61.1739 208.309 61.0147 208.15L60.2127 207.358C59.9017 207.037 59.7303 206.607 59.7351 206.162C59.7399 205.717 59.9206 205.292 60.2384 204.977C60.5563 204.663 60.9859 204.484 61.4354 204.479C61.8848 204.474 62.3183 204.644 62.6428 204.952L63.4449 205.744C63.6852 205.982 63.8488 206.285 63.9151 206.615C63.9813 206.945 63.9473 207.287 63.8173 207.598C63.6872 207.909 63.467 208.175 63.1844 208.362C62.9019 208.549 62.5697 208.649 62.2299 208.649ZM53.4186 199.924C53.1929 199.924 52.9694 199.88 52.7608 199.795C52.5523 199.709 52.3629 199.584 52.2036 199.425L51.4039 198.633C51.0816 198.315 50.9004 197.882 50.9002 197.431C50.9 196.98 51.0807 196.547 51.4027 196.228C51.7246 195.909 52.1614 195.73 52.6169 195.73C53.0724 195.729 53.5094 195.908 53.8317 196.227L54.6337 197.021C54.8744 197.259 55.0383 197.562 55.1048 197.892C55.1712 198.222 55.1372 198.564 55.0071 198.875C54.877 199.186 54.6565 199.452 54.3737 199.638C54.0909 199.825 53.7585 199.925 53.4186 199.924ZM44.6147 191.199C44.1592 191.2 43.7222 191.021 43.3995 190.703L42.5999 189.909C42.4346 189.752 42.3027 189.564 42.2117 189.356C42.1208 189.148 42.0727 188.924 42.0702 188.698C42.0678 188.471 42.111 188.247 42.1974 188.037C42.2839 187.827 42.4117 187.636 42.5735 187.476C42.7353 187.316 42.9278 187.189 43.1397 187.104C43.3515 187.018 43.5785 186.975 43.8073 186.978C44.0361 186.98 44.2621 187.028 44.4721 187.118C44.6821 187.208 44.8717 187.339 45.03 187.502L45.8298 188.297C46.0704 188.534 46.2343 188.837 46.3007 189.167C46.3672 189.497 46.3332 189.84 46.2031 190.15C46.0729 190.461 45.8525 190.727 45.5697 190.914C45.2869 191.1 44.9545 191.2 44.6147 191.199ZM35.8035 182.477C35.3478 182.477 34.9108 182.297 34.5884 181.978L33.7887 181.184C33.4777 180.863 33.3063 180.433 33.3111 179.988C33.3159 179.543 33.4966 179.118 33.8144 178.803C34.1322 178.488 34.562 178.309 35.0114 178.305C35.4608 178.3 35.8943 178.47 36.2189 178.778L37.0186 179.572C37.2588 179.81 37.4224 180.113 37.4887 180.443C37.555 180.773 37.521 181.115 37.3909 181.426C37.2609 181.737 37.0406 182.003 36.7581 182.19C36.4755 182.377 36.1434 182.477 35.8035 182.477ZM26.9923 173.752C26.7669 173.752 26.5439 173.708 26.3358 173.623C26.1276 173.537 25.9387 173.412 25.7796 173.253L24.9775 172.459C24.8181 172.301 24.6916 172.114 24.6054 171.907C24.5192 171.701 24.475 171.48 24.4751 171.256C24.4752 171.033 24.5197 170.812 24.6061 170.606C24.6926 170.399 24.8192 170.212 24.9787 170.054C25.1383 169.896 25.3276 169.771 25.5361 169.686C25.7445 169.6 25.9679 169.556 26.1934 169.557C26.419 169.557 26.6423 169.601 26.8507 169.686C27.059 169.772 27.2483 169.897 27.4077 170.055L28.2074 170.847C28.4477 171.085 28.6113 171.388 28.6776 171.718C28.7438 172.048 28.7098 172.391 28.5798 172.702C28.4497 173.012 28.2295 173.278 27.9469 173.465C27.6644 173.652 27.3322 173.752 26.9923 173.752ZM18.1835 165.027C17.9577 165.028 17.734 164.984 17.5254 164.899C17.3168 164.813 17.1275 164.687 16.9684 164.529L16.1664 163.737C15.864 163.414 15.6997 162.988 15.7079 162.548C15.7161 162.108 15.8962 161.688 16.2104 161.376C16.5246 161.065 16.9484 160.886 17.3929 160.878C17.8374 160.869 18.2679 161.031 18.5941 161.331L19.3962 162.122C19.6365 162.36 19.8001 162.664 19.8663 162.994C19.9326 163.324 19.8986 163.666 19.7685 163.977C19.6385 164.288 19.4183 164.553 19.1357 164.74C18.8532 164.928 18.521 165.027 18.1811 165.027H18.1835ZM10.1339 155.714C9.8014 155.714 9.47618 155.618 9.19747 155.438C8.91877 155.259 8.69846 155.003 8.56308 154.702C8.39359 154.322 8.23365 153.927 8.08564 153.535C7.94552 153.112 7.9783 152.651 8.17691 152.252C8.37551 151.853 8.72413 151.547 9.14811 151.399C9.57208 151.251 10.0377 151.274 10.445 151.462C10.8524 151.65 11.1692 151.988 11.3275 152.405C11.4373 152.712 11.5662 153.022 11.6951 153.322C11.8112 153.581 11.8601 153.865 11.8374 154.147C11.8147 154.43 11.721 154.702 11.565 154.94C11.4089 155.178 11.1955 155.373 10.9439 155.508C10.6923 155.643 10.4106 155.714 10.1243 155.714H10.1339ZM10.2842 143.753C10.0297 143.754 9.77843 143.697 9.54903 143.588C9.3451 143.492 9.16223 143.358 9.01091 143.192C8.8596 143.026 8.74278 142.832 8.66717 142.622C8.59156 142.411 8.55862 142.188 8.57025 141.965C8.58188 141.742 8.63785 141.523 8.73495 141.321C8.91638 140.945 9.11212 140.572 9.32219 140.21C9.43265 140.013 9.58174 139.839 9.76076 139.699C9.93978 139.559 10.1452 139.455 10.3649 139.395C10.5847 139.334 10.8144 139.317 11.0407 139.346C11.2671 139.374 11.4854 139.446 11.6832 139.559C11.8809 139.672 12.054 139.822 12.1924 140.002C12.3308 140.181 12.4317 140.386 12.4893 140.605C12.5468 140.823 12.5599 141.051 12.5276 141.275C12.4954 141.498 12.4184 141.713 12.3014 141.907C12.1367 142.191 11.9816 142.486 11.8383 142.782C11.6982 143.074 11.4769 143.32 11.2004 143.493C10.9239 143.665 10.6036 143.755 10.2771 143.753H10.2842ZM18.439 134.513C18.0991 134.513 17.7669 134.413 17.4843 134.226C17.2018 134.039 16.9816 133.774 16.8515 133.463C16.7215 133.152 16.6874 132.81 16.7537 132.48C16.82 132.15 16.9836 131.846 17.2239 131.608L18.026 130.814C18.1819 130.641 18.3718 130.501 18.5842 130.404C18.7965 130.306 19.0268 130.252 19.2609 130.246C19.4949 130.24 19.7278 130.281 19.9453 130.366C20.1628 130.452 20.3603 130.581 20.5256 130.746C20.691 130.91 20.8207 131.106 20.9068 131.321C20.9929 131.537 21.0336 131.768 21.0264 131.999C21.0193 132.231 20.9644 132.459 20.8651 132.669C20.7658 132.879 20.6242 133.067 20.449 133.22L19.6469 134.015C19.4875 134.173 19.2981 134.298 19.0896 134.384C18.8811 134.47 18.6575 134.514 18.4318 134.513H18.439ZM27.2501 125.789C26.9103 125.789 26.5781 125.689 26.2955 125.502C26.013 125.315 25.7928 125.049 25.6627 124.738C25.5327 124.427 25.4986 124.085 25.5649 123.755C25.6311 123.425 25.7948 123.122 26.035 122.884L26.8371 122.092C26.9966 121.934 27.1858 121.808 27.3941 121.723C27.6025 121.637 27.8258 121.593 28.0514 121.593C28.2769 121.593 28.5003 121.637 28.7087 121.722C28.9172 121.808 29.1066 121.933 29.2661 122.091C29.4257 122.248 29.5523 122.436 29.6387 122.642C29.7252 122.848 29.7696 123.07 29.7697 123.293C29.7699 123.516 29.7256 123.737 29.6394 123.944C29.5532 124.15 29.4267 124.338 29.2673 124.496L28.4652 125.29C28.3048 125.449 28.1142 125.575 27.9045 125.66C27.6947 125.746 27.4699 125.79 27.243 125.789H27.2501ZM36.0613 117.064C35.7214 117.064 35.3892 116.964 35.1067 116.777C34.8241 116.59 34.6039 116.324 34.4739 116.013C34.3438 115.702 34.3098 115.36 34.3761 115.03C34.4424 114.7 34.606 114.397 34.8462 114.159L35.6483 113.367C35.9729 113.059 36.4063 112.889 36.8558 112.894C37.3052 112.899 37.7349 113.078 38.0527 113.393C38.3705 113.707 38.5513 114.133 38.5561 114.578C38.5609 115.023 38.3895 115.452 38.0785 115.773L37.2764 116.565C37.1162 116.724 36.9257 116.851 36.7158 116.936C36.506 117.022 36.2811 117.065 36.0541 117.064H36.0613ZM44.8725 108.339C44.5326 108.339 44.2004 108.239 43.9178 108.052C43.6353 107.865 43.4151 107.6 43.285 107.289C43.155 106.978 43.121 106.636 43.1872 106.305C43.2535 105.975 43.4171 105.672 43.6574 105.434L44.4571 104.642C44.7817 104.334 45.2151 104.165 45.6645 104.169C46.114 104.174 46.5437 104.353 46.8615 104.668C47.1793 104.983 47.36 105.408 47.3648 105.853C47.3697 106.298 47.1982 106.727 46.8873 107.049L46.0875 107.841C45.9274 108 45.7369 108.126 45.5271 108.211C45.3172 108.297 45.0923 108.341 44.8653 108.339H44.8725ZM53.686 99.6146C53.3467 99.614 53.0151 99.514 52.733 99.3271C52.451 99.1402 52.2311 98.8748 52.1012 98.5643C51.9712 98.2539 51.937 97.9123 52.0028 97.5827C52.0686 97.253 52.2315 96.95 52.4709 96.7119L53.2707 95.9176C53.429 95.754 53.6186 95.6234 53.8286 95.5333C54.0386 95.4433 54.2645 95.3956 54.4933 95.3932C54.7222 95.3908 54.9492 95.4336 55.161 95.5192C55.3729 95.6048 55.5654 95.7314 55.7272 95.8916C55.889 96.0518 56.0168 96.2424 56.1033 96.4521C56.1897 96.6619 56.2329 96.8867 56.2305 97.1132C56.228 97.3398 56.1799 97.5636 56.089 97.7715C55.998 97.9794 55.866 98.1672 55.7008 98.324L54.9011 99.1158C54.7418 99.2742 54.5525 99.3998 54.3439 99.4854C54.1354 99.571 53.9118 99.6149 53.686 99.6146ZM62.4972 90.8899C62.1573 90.8904 61.8249 90.791 61.5421 90.6043C61.2594 90.4176 61.0389 90.152 60.9088 89.8411C60.7786 89.5302 60.7446 89.188 60.8111 88.858C60.8776 88.5279 61.0415 88.2248 61.2821 87.9871L61.5495 87.72C61.874 87.4121 62.3075 87.2424 62.7569 87.2472C63.2064 87.2519 63.636 87.4308 63.9539 87.7455C64.2717 88.0603 64.4524 88.4857 64.4573 88.9308C64.4621 89.3758 64.2906 89.805 63.9797 90.1264L63.7099 90.3935C63.5496 90.5524 63.359 90.6781 63.1492 90.7633C62.9393 90.8485 62.7145 90.8916 62.4877 90.8899H62.4972Z" fill="#B8860B"/>
<g filter="url(#filter0_d_17098_1801)">
<path d="M119.863 260.347C117.663 260.35 115.484 259.924 113.452 259.091C111.419 258.259 109.572 257.037 108.017 255.497L60.6074 208.552L63.8469 205.344L111.259 252.289C113.542 254.547 116.636 255.815 119.863 255.815C123.089 255.815 126.183 254.547 128.466 252.289L224.986 156.717C227.266 154.456 228.547 151.392 228.547 148.196C228.547 145.001 227.266 141.937 224.986 139.676L128.466 44.1062C126.183 41.8486 123.089 40.5806 119.863 40.5806C116.636 40.5806 113.542 41.8486 111.259 44.1062L64.3744 90.5308L61.1326 87.3232L108.017 40.8985C109.572 39.3576 111.419 38.1353 113.451 37.3013C115.483 36.4673 117.662 36.0381 119.861 36.0381C122.061 36.0381 124.24 36.4673 126.272 37.3013C128.304 38.1353 130.151 39.3576 131.706 40.8985L228.227 136.471C231.369 139.581 233.133 143.8 233.133 148.199C233.133 152.598 231.369 156.816 228.227 159.927L131.706 255.499C130.151 257.04 128.305 258.261 126.273 259.093C124.24 259.925 122.062 260.351 119.863 260.347Z" fill="#B8860B"/>
</g>
<g filter="url(#filter1_d_17098_1801)">
<path d="M109.208 241.19L25.9448 158.749C24.5456 157.364 23.4356 155.719 22.6783 153.909C21.9211 152.099 21.5312 150.16 21.5313 148.2C21.5312 146.241 21.9211 144.301 22.6783 142.492C23.4356 140.682 24.5456 139.037 25.9448 137.652L109.208 55.2034C112.034 52.4063 115.866 50.835 119.862 50.835C123.858 50.835 127.69 52.4063 130.516 55.2034L213.78 137.652C215.179 139.037 216.289 140.682 217.046 142.492C217.803 144.301 218.193 146.241 218.193 148.2C218.193 150.16 217.803 152.099 217.046 153.909C216.289 155.719 215.179 157.364 213.78 158.749L130.516 241.195C129.117 242.58 127.456 243.679 125.628 244.429C123.799 245.178 121.84 245.564 119.861 245.563C117.882 245.563 115.923 245.176 114.095 244.426C112.268 243.676 110.607 242.576 109.208 241.19Z" fill="white"/>
</g>
<g filter="url(#filter2_d_17098_1801)">
<path d="M105.84 233.759L32.7914 161.427C30.9487 159.605 29.4868 157.441 28.4893 155.059C27.4919 152.677 26.9785 150.124 26.9785 147.545C26.9785 144.966 27.4919 142.413 28.4893 140.031C29.4868 137.649 30.9487 135.484 32.7914 133.662L105.84 64.4484C107.681 62.6251 109.867 61.1787 112.273 60.192C114.679 59.2052 117.257 58.6973 119.861 58.6973C122.465 58.6973 125.044 59.2052 127.45 60.192C129.855 61.1787 132.041 62.6251 133.882 64.4484L206.931 133.662C208.774 135.484 210.236 137.649 211.233 140.031C212.23 142.413 212.744 144.966 212.744 147.545C212.744 150.124 212.23 152.677 211.233 155.059C210.236 157.441 208.774 159.605 206.931 161.427L133.882 233.759C132.041 235.582 129.855 237.029 127.45 238.015C125.044 239.002 122.465 239.51 119.861 239.51C117.257 239.51 114.679 239.002 112.273 238.015C109.867 237.029 107.681 235.582 105.84 233.759Z" fill="white"/>
</g>
<g filter="url(#filter3_d_17098_1801)">
<path d="M143.089 73.8122C155.883 61.1443 155.883 40.6056 143.089 27.9377C130.296 15.2698 109.554 15.2698 96.7603 27.9377C83.9669 40.6056 83.9668 61.1444 96.7603 73.8122C109.554 86.4801 130.296 86.4801 143.089 73.8122Z" fill="#B8860B"/>
</g>
<path d="M126.719 41.1221V41.816C126.719 42.973 126.719 44.1302 126.719 45.2877C126.719 45.9054 127.077 46.2502 127.719 46.251C129.061 46.251 130.404 46.251 131.747 46.251H132.092V46.5466C132.092 50.8028 132.092 55.0587 132.092 59.3143C132.092 59.8052 131.962 59.9299 131.449 59.9299H117.517C117.001 59.9299 116.869 59.8066 116.869 59.3193C116.869 53.4526 116.869 47.5854 116.869 41.7177C116.869 41.2574 117.006 41.1221 117.475 41.1221H126.719ZM124.481 47.9615H119.977C119.623 47.9615 119.557 48.0264 119.556 48.369C119.556 48.6889 119.56 49.0102 119.556 49.3301C119.552 49.5638 119.662 49.6721 119.909 49.6721C122.957 49.6721 126.005 49.6721 129.055 49.6721C129.302 49.6721 129.411 49.5631 129.408 49.3301C129.403 49.0188 129.408 48.7067 129.408 48.3954C129.408 48.0178 129.35 47.9615 128.959 47.9615H124.481ZM124.487 51.3813H119.956C119.634 51.3813 119.559 51.4525 119.557 51.756C119.557 52.0852 119.561 52.4143 119.557 52.7442C119.557 52.9743 119.653 53.0918 119.904 53.0918C122.953 53.0918 126.001 53.0918 129.05 53.0918C129.294 53.0918 129.412 52.9921 129.409 52.7556C129.405 52.435 129.409 52.1144 129.409 51.7945C129.409 51.4383 129.346 51.3813 128.966 51.3813H124.487ZM121.8 44.5418C121.176 44.5418 120.552 44.5418 119.927 44.5418C119.669 44.5418 119.549 44.643 119.553 44.8923C119.56 45.2307 119.559 45.5684 119.553 45.9068C119.553 46.137 119.65 46.2545 119.9 46.2545C121.158 46.2545 122.416 46.2545 123.675 46.2545C123.919 46.2545 124.036 46.1533 124.033 45.9175C124.032 45.5777 124.032 45.2393 124.032 44.9009C124.032 44.6159 123.95 44.5446 123.646 44.5446C123.03 44.5397 122.415 44.5418 121.8 44.5418H121.8ZM127.139 56.5109C127.764 56.5109 128.388 56.5109 129.008 56.5109C129.325 56.5109 129.399 56.436 129.402 56.1297C129.402 55.8005 129.398 55.4714 129.402 55.1422C129.405 54.9093 129.297 54.7996 129.049 54.8003C127.791 54.8031 126.533 54.8031 125.275 54.8003C125.027 54.8003 124.919 54.9093 124.923 55.1422C124.927 55.4714 124.923 55.8005 124.923 56.1297C124.923 56.4368 124.997 56.5094 125.315 56.5109C125.927 56.5123 126.532 56.5109 127.139 56.5109H127.139Z" fill="white"/>
<path d="M115.513 44.5417V46.2515H113.468C113.292 46.2515 113.114 46.2458 112.937 46.2515C112.564 46.2665 112.278 46.1162 112.057 45.8283C111.644 45.2904 111.219 44.7597 110.804 44.2246C110.714 44.1071 110.632 44.0522 110.461 44.0786C109.27 44.266 108.177 43.4972 107.948 42.3196C107.738 41.2324 108.518 40.1195 109.661 39.8973C110.551 39.722 111.313 39.9607 111.884 40.6346C112.455 41.3086 112.549 42.0488 112.183 42.8361C112.148 42.8961 112.134 42.9653 112.144 43.0335C112.153 43.1016 112.185 43.1651 112.235 43.2144C112.54 43.5858 112.836 43.9629 113.124 44.3457C113.166 44.4126 113.227 44.467 113.3 44.5027C113.373 44.5384 113.455 44.5541 113.537 44.5481C114.19 44.5338 114.84 44.5417 115.513 44.5417Z" fill="white"/>
<path d="M115.518 54.8013V56.5111H114.86C114.411 56.5111 113.962 56.4983 113.518 56.519C113.379 56.5298 113.25 56.5904 113.156 56.6885C112.833 57.0675 112.54 57.4722 112.225 57.8555C112.178 57.9022 112.148 57.9623 112.14 58.0266C112.132 58.0909 112.146 58.1559 112.181 58.2117C112.374 58.6051 112.434 59.0462 112.352 59.4736C112.271 59.901 112.051 60.2934 111.724 60.5963C111.405 60.8989 110.997 61.1022 110.554 61.1794C110.111 61.2566 109.654 61.2041 109.243 61.0287C108.827 60.8512 108.477 60.5573 108.241 60.1862C108.004 59.815 107.891 59.3841 107.918 58.9505C107.982 57.7194 109.189 56.7719 110.452 56.9699C110.517 56.9867 110.586 56.9823 110.649 56.9576C110.711 56.9328 110.763 56.8891 110.797 56.8331C111.21 56.2953 111.638 55.7645 112.049 55.2287C112.149 55.0891 112.284 54.9764 112.443 54.9015C112.602 54.8266 112.778 54.7921 112.955 54.8013C113.802 54.8077 114.647 54.8013 115.518 54.8013Z" fill="white"/>
<path d="M115.514 49.6715V51.3814H115.203C113.991 51.3814 112.78 51.3814 111.568 51.3814C111.391 51.3814 111.293 51.4213 111.198 51.5794C110.939 52.0273 110.517 52.3696 110.011 52.5419C109.506 52.7143 108.952 52.7049 108.453 52.5156C107.956 52.3332 107.545 51.9878 107.292 51.5415C107.039 51.0953 106.961 50.5776 107.074 50.0819C107.181 49.5849 107.472 49.1412 107.893 48.8315C108.315 48.5218 108.84 48.3669 109.371 48.3948C110.173 48.4347 110.792 48.8016 111.192 49.4635C111.293 49.6316 111.398 49.6737 111.583 49.6722C112.786 49.6658 113.988 49.6722 115.19 49.6722L115.514 49.6715Z" fill="white"/>
<path d="M131.52 44.9685C130.557 44.9685 129.553 44.9685 128.548 44.9685C128.249 44.9685 128.067 44.8061 128.065 44.5275C128.059 43.5593 128.065 42.5911 128.065 41.6777L131.52 44.9685Z" fill="white"/>
<defs>
<filter id="filter0_d_17098_1801" x="39.3697" y="17.632" width="215.001" height="266.785" filterUnits="userSpaceOnUse" color-interpolation-filters="sRGB">
<feFlood flood-opacity="0" result="BackgroundImageFix"/>
<feColorMatrix in="SourceAlpha" type="matrix" values="0 0 0 0 0 0 0 0 0 0 0 0 0 0 0 0 0 0 127 0" result="hardAlpha"/>
<feOffset dy="2.8317"/>
<feGaussianBlur stdDeviation="10.6189"/>
<feComposite in2="hardAlpha" operator="out"/>
<feColorMatrix type="matrix" values="0 0 0 0 0 0 0 0 0 0 0 0 0 0 0 0 0 0 0.15 0"/>
<feBlend mode="normal" in2="BackgroundImageFix" result="effect1_dropShadow_17098_1801"/>
<feBlend mode="normal" in="SourceGraphic" in2="effect1_dropShadow_17098_1801" result="shape"/>
</filter>
<filter id="filter1_d_17098_1801" x="0.29351" y="32.4289" width="239.138" height="237.204" filterUnits="userSpaceOnUse" color-interpolation-filters="sRGB">
<feFlood flood-opacity="0" result="BackgroundImageFix"/>
<feColorMatrix in="SourceAlpha" type="matrix" values="0 0 0 0 0 0 0 0 0 0 0 0 0 0 0 0 0 0 127 0" result="hardAlpha"/>
<feOffset dy="2.8317"/>
<feGaussianBlur stdDeviation="10.6189"/>
<feComposite in2="hardAlpha" operator="out"/>
<feColorMatrix type="matrix" values="0 0 0 0 0 0 0 0 0 0 0 0 0 0 0 0 0 0 0.15 0"/>
<feBlend mode="normal" in2="BackgroundImageFix" result="effect1_dropShadow_17098_1801"/>
<feBlend mode="normal" in="SourceGraphic" in2="effect1_dropShadow_17098_1801" result="shape"/>
</filter>
<filter id="filter2_d_17098_1801" x="5.74078" y="40.2912" width="228.241" height="223.288" filterUnits="userSpaceOnUse" color-interpolation-filters="sRGB">
<feFlood flood-opacity="0" result="BackgroundImageFix"/>
<feColorMatrix in="SourceAlpha" type="matrix" values="0 0 0 0 0 0 0 0 0 0 0 0 0 0 0 0 0 0 127 0" result="hardAlpha"/>
<feOffset dy="2.8317"/>
<feGaussianBlur stdDeviation="10.6189"/>
<feComposite in2="hardAlpha" operator="out"/>
<feColorMatrix type="matrix" values="0 0 0 0 0 0 0 0 0 0 0 0 0 0 0 0 0 0 0.15 0"/>
<feBlend mode="normal" in2="BackgroundImageFix" result="effect1_dropShadow_17098_1801"/>
<feBlend mode="normal" in="SourceGraphic" in2="effect1_dropShadow_17098_1801" result="shape"/>
</filter>
<filter id="filter3_d_17098_1801" x="65.9273" y="0.0304823" width="107.995" height="107.352" filterUnits="userSpaceOnUse" color-interpolation-filters="sRGB">
<feFlood flood-opacity="0" result="BackgroundImageFix"/>
<feColorMatrix in="SourceAlpha" type="matrix" values="0 0 0 0 0 0 0 0 0 0 0 0 0 0 0 0 0 0 127 0" result="hardAlpha"/>
<feOffset dy="2.8317"/>
<feGaussianBlur stdDeviation="10.6189"/>
<feComposite in2="hardAlpha" operator="out"/>
<feColorMatrix type="matrix" values="0 0 0 0 0 0 0 0 0 0 0 0 0 0 0 0 0 0 0.15 0"/>
<feBlend mode="normal" in2="BackgroundImageFix" result="effect1_dropShadow_17098_1801"/>
<feBlend mode="normal" in="SourceGraphic" in2="effect1_dropShadow_17098_1801" result="shape"/>
</filter>
</defs>
</svg>
