<svg width="255" height="285" viewBox="0 0 255 285" fill="none" xmlns="http://www.w3.org/2000/svg">
<path d="M62.1576 208.612C61.9318 208.612 61.7082 208.568 61.4996 208.483C61.291 208.397 61.1016 208.271 60.9425 208.113L60.1404 207.321C59.8295 207 59.658 206.57 59.6629 206.125C59.6677 205.68 59.8483 205.255 60.1662 204.94C60.484 204.625 60.9136 204.447 61.3631 204.442C61.8125 204.437 62.246 204.607 62.5706 204.915L63.3726 205.707C63.6129 205.945 63.7765 206.248 63.8428 206.578C63.9091 206.908 63.875 207.25 63.745 207.561C63.615 207.872 63.3947 208.138 63.1122 208.325C62.8296 208.512 62.4975 208.611 62.1576 208.612ZM53.3464 199.887C53.1206 199.887 52.8971 199.843 52.6886 199.758C52.48 199.672 52.2906 199.546 52.1313 199.388L51.3316 198.596C51.0093 198.277 50.8281 197.845 50.8279 197.394C50.8277 196.943 51.0085 196.51 51.3304 196.191C51.6524 195.872 52.0891 195.693 52.5447 195.692C53.0002 195.692 53.4372 195.871 53.7594 196.19L54.5615 196.984C54.8021 197.222 54.9661 197.525 55.0325 197.855C55.099 198.185 55.065 198.527 54.9348 198.838C54.8047 199.149 54.5842 199.415 54.3014 199.601C54.0187 199.788 53.6863 199.887 53.3464 199.887ZM44.5424 191.162C44.0869 191.163 43.6499 190.984 43.3273 190.666L42.5276 189.872C42.3624 189.715 42.2304 189.527 42.1395 189.319C42.0485 189.111 42.0004 188.887 41.9979 188.661C41.9955 188.434 42.0387 188.21 42.1252 188C42.2116 187.79 42.3395 187.599 42.5013 187.439C42.6631 187.279 42.8555 187.152 43.0674 187.067C43.2793 186.981 43.5063 186.938 43.7351 186.941C43.9639 186.943 44.1899 186.991 44.3998 187.081C44.6098 187.171 44.7995 187.302 44.9578 187.465L45.7575 188.259C45.9981 188.497 46.162 188.8 46.2285 189.13C46.2949 189.46 46.2609 189.802 46.1308 190.113C46.0006 190.424 45.7802 190.69 45.4974 190.877C45.2147 191.063 44.8823 191.163 44.5424 191.162ZM35.7312 182.44C35.2755 182.439 34.8385 182.26 34.5161 181.941L33.7164 181.147C33.4055 180.825 33.234 180.396 33.2388 179.951C33.2437 179.506 33.4243 179.081 33.7422 178.766C34.06 178.451 34.4897 178.272 34.9391 178.268C35.3886 178.263 35.822 178.433 36.1466 178.74L36.9463 179.535C37.1866 179.773 37.3502 180.076 37.4164 180.406C37.4827 180.736 37.4487 181.078 37.3186 181.389C37.1886 181.7 36.9684 181.966 36.6858 182.153C36.4033 182.34 36.0711 182.44 35.7312 182.44ZM26.92 173.715C26.6947 173.715 26.4716 173.671 26.2635 173.585C26.0554 173.5 25.8664 173.374 25.7074 173.216L24.9052 172.422C24.7458 172.264 24.6194 172.077 24.5332 171.87C24.447 171.664 24.4027 171.443 24.4028 171.219C24.4029 170.996 24.4475 170.775 24.5339 170.569C24.6203 170.362 24.7469 170.175 24.9065 170.017C25.066 169.859 25.2554 169.734 25.4638 169.649C25.6722 169.563 25.8956 169.519 26.1212 169.519C26.3467 169.52 26.5701 169.564 26.7784 169.649C26.9867 169.735 27.176 169.86 27.3354 170.018L28.1351 170.81C28.3754 171.048 28.539 171.351 28.6053 171.681C28.6716 172.011 28.6375 172.353 28.5075 172.664C28.3775 172.975 28.1572 173.241 27.8747 173.428C27.5921 173.615 27.2599 173.715 26.92 173.715ZM18.1113 164.99C17.8855 164.991 17.6617 164.947 17.4531 164.862C17.2446 164.776 17.0552 164.65 16.8962 164.492L16.0941 163.7C15.7917 163.377 15.6274 162.951 15.6356 162.511C15.6439 162.071 15.824 161.651 16.1381 161.339C16.4523 161.028 16.8761 160.849 17.3206 160.841C17.7651 160.832 18.1957 160.994 18.5219 161.293L19.324 162.085C19.5642 162.323 19.7278 162.627 19.7941 162.957C19.8604 163.287 19.8263 163.629 19.6963 163.94C19.5662 164.251 19.346 164.516 19.0635 164.703C18.7809 164.89 18.4487 164.99 18.1089 164.99H18.1113ZM10.0616 155.677C9.72914 155.676 9.40391 155.581 9.12521 155.401C8.8465 155.222 8.6262 154.966 8.49081 154.665C8.32132 154.285 8.16138 153.89 8.01337 153.498C7.87326 153.075 7.90604 152.614 8.10464 152.215C8.30324 151.816 8.65187 151.51 9.07584 151.362C9.49982 151.214 9.9654 151.237 10.3728 151.425C10.7802 151.613 11.0969 151.951 11.2552 152.368C11.365 152.675 11.4939 152.985 11.6229 153.285C11.7389 153.544 11.7878 153.828 11.7651 154.11C11.7424 154.393 11.6487 154.665 11.4927 154.903C11.3367 155.141 11.1232 155.336 10.8716 155.471C10.62 155.606 10.3383 155.677 10.0521 155.677H10.0616ZM10.212 143.716C9.95745 143.717 9.70616 143.66 9.47676 143.551C9.27284 143.455 9.08996 143.321 8.93865 143.155C8.78733 142.989 8.67052 142.795 8.5949 142.585C8.51929 142.374 8.48635 142.151 8.49798 141.928C8.50961 141.704 8.56559 141.486 8.66269 141.284C8.84411 140.908 9.03986 140.535 9.24993 140.173C9.36039 139.975 9.50948 139.802 9.6885 139.662C9.86751 139.522 10.0729 139.418 10.2926 139.358C10.5124 139.297 10.7421 139.28 10.9685 139.309C11.1948 139.337 11.4132 139.409 11.6109 139.522C11.8086 139.635 11.9818 139.785 12.1202 139.965C12.2586 140.144 12.3595 140.349 12.417 140.568C12.4745 140.786 12.4876 141.014 12.4553 141.238C12.4231 141.461 12.3462 141.676 12.2292 141.87C12.0644 142.154 11.9093 142.449 11.7661 142.745C11.6259 143.037 11.4047 143.283 11.1282 143.455C10.8517 143.627 10.5314 143.718 10.2048 143.716H10.212ZM18.3667 134.476C18.0268 134.476 17.6946 134.376 17.4121 134.189C17.1295 134.002 16.9093 133.737 16.7792 133.426C16.6492 133.115 16.6152 132.773 16.6814 132.443C16.7477 132.112 16.9113 131.809 17.1516 131.571L17.9537 130.777C18.1096 130.604 18.2995 130.464 18.5119 130.367C18.7242 130.269 18.9545 130.215 19.1886 130.209C19.4227 130.202 19.6556 130.243 19.8731 130.329C20.0905 130.415 20.288 130.544 20.4534 130.708C20.6187 130.873 20.7484 131.069 20.8345 131.284C20.9206 131.5 20.9613 131.731 20.9542 131.962C20.947 132.194 20.8921 132.422 20.7928 132.632C20.6935 132.842 20.5519 133.029 20.3767 133.183L19.5746 133.978C19.4152 134.136 19.2258 134.261 19.0173 134.347C18.8088 134.433 18.5853 134.477 18.3595 134.476H18.3667ZM27.1779 125.752C26.838 125.752 26.5058 125.652 26.2233 125.465C25.9407 125.278 25.7205 125.012 25.5905 124.701C25.4604 124.39 25.4263 124.048 25.4926 123.718C25.5589 123.388 25.7225 123.085 25.9628 122.847L26.7649 122.055C26.9243 121.897 27.1135 121.771 27.3219 121.686C27.5302 121.6 27.7536 121.556 27.9791 121.556C28.2047 121.556 28.428 121.6 28.6365 121.685C28.8449 121.77 29.0343 121.896 29.1939 122.053C29.3534 122.211 29.4801 122.399 29.5665 122.605C29.6529 122.811 29.6974 123.032 29.6975 123.256C29.6976 123.479 29.6533 123.7 29.5671 123.907C29.4809 124.113 29.3545 124.301 29.195 124.459L28.393 125.253C28.2326 125.412 28.042 125.538 27.8322 125.623C27.6224 125.709 27.3976 125.752 27.1707 125.752H27.1779ZM35.989 117.027C35.6492 117.027 35.317 116.927 35.0344 116.74C34.7519 116.553 34.5317 116.287 34.4016 115.976C34.2716 115.665 34.2375 115.323 34.3038 114.993C34.3701 114.663 34.5337 114.36 34.774 114.122L35.576 113.33C35.9006 113.022 36.3341 112.852 36.7835 112.857C37.233 112.862 37.6626 113.041 37.9804 113.355C38.2983 113.67 38.479 114.096 38.4838 114.541C38.4886 114.986 38.3172 115.415 38.0063 115.736L37.2041 116.528C37.044 116.687 36.8534 116.813 36.6436 116.899C36.4337 116.985 36.2088 117.028 35.9818 117.027H35.989ZM44.8002 108.302C44.4604 108.302 44.1281 108.202 43.8456 108.015C43.563 107.828 43.3428 107.562 43.2128 107.251C43.0827 106.941 43.0487 106.598 43.115 106.268C43.1812 105.938 43.3449 105.635 43.5851 105.397L44.3849 104.605C44.7094 104.297 45.1428 104.128 45.5923 104.132C46.0417 104.137 46.4714 104.316 46.7893 104.631C47.1071 104.945 47.2878 105.371 47.2926 105.816C47.2974 106.261 47.126 106.69 46.815 107.012L46.0153 107.803C45.8551 107.963 45.6646 108.089 45.4548 108.174C45.245 108.26 45.02 108.303 44.7931 108.302H44.8002ZM53.6138 99.5775C53.2744 99.5769 52.9428 99.4769 52.6608 99.29C52.3787 99.1031 52.1589 98.8377 52.0289 98.5272C51.899 98.2168 51.8647 97.8752 51.9305 97.5456C51.9963 97.2159 52.1592 96.9129 52.3987 96.6747L53.1984 95.8805C53.3567 95.7169 53.5464 95.5863 53.7563 95.4962C53.9663 95.4061 54.1923 95.3585 54.4211 95.3561C54.6499 95.3536 54.8769 95.3965 55.0888 95.4821C55.3006 95.5676 55.4931 95.6943 55.6549 95.8545C55.8167 96.0147 55.9446 96.2053 56.031 96.415C56.1174 96.6248 56.1607 96.8496 56.1582 97.0761C56.1558 97.3027 56.1077 97.5265 56.0167 97.7344C55.9258 97.9423 55.7938 98.1301 55.6286 98.2868L54.8289 99.0787C54.6696 99.2371 54.4802 99.3627 54.2717 99.4483C54.0631 99.5339 53.8395 99.5778 53.6138 99.5775ZM62.4249 90.8528C62.085 90.8533 61.7526 90.7539 61.4699 90.5672C61.1871 90.3805 60.9667 90.1149 60.8365 89.804C60.7064 89.4931 60.6724 89.1509 60.7388 88.8209C60.8053 88.4908 60.9693 88.1877 61.2099 87.95L61.4772 87.6829C61.8018 87.375 62.2352 87.2053 62.6847 87.2101C63.1341 87.2148 63.5638 87.3937 63.8816 87.7084C64.1994 88.0231 64.3802 88.4486 64.385 88.8936C64.3898 89.3387 64.2184 89.7679 63.9074 90.0893L63.6376 90.3564C63.4774 90.5153 63.2868 90.641 63.0769 90.7262C62.8671 90.8114 62.6422 90.8544 62.4154 90.8528H62.4249Z" fill="#B8860B"/>
<g filter="url(#filter0_d_224_7121)">
<path d="M119.79 260.31C117.591 260.313 115.412 259.887 113.379 259.054C111.347 258.222 109.5 257 107.945 255.46L60.5352 208.515L63.7746 205.307L111.187 252.252C113.47 254.51 116.564 255.778 119.79 255.778C123.017 255.778 126.111 254.51 128.394 252.252L224.913 156.68C227.194 154.419 228.475 151.355 228.475 148.159C228.475 144.964 227.194 141.9 224.913 139.639L128.394 44.0691C126.111 41.8115 123.017 40.5434 119.79 40.5434C116.564 40.5434 113.47 41.8115 111.187 44.0691L64.3022 90.4937L61.0603 87.2861L107.945 40.8614C109.5 39.3205 111.346 38.0982 113.379 37.2642C115.411 36.4302 117.589 36.001 119.789 36.001C121.989 36.001 124.167 36.4302 126.2 37.2642C128.232 38.0982 130.078 39.3205 131.633 40.8614L228.155 136.434C231.296 139.544 233.061 143.763 233.061 148.162C233.061 152.56 231.296 156.779 228.155 159.89L131.633 255.462C130.079 257.003 128.233 258.224 126.2 259.056C124.168 259.888 121.99 260.314 119.79 260.31Z" fill="#B8860B"/>
</g>
<g filter="url(#filter1_d_224_7121)">
<path d="M109.136 241.154L25.8725 158.712C24.4733 157.327 23.3634 155.683 22.6061 153.873C21.8488 152.063 21.459 150.123 21.459 148.164C21.459 146.205 21.8488 144.265 22.6061 142.455C23.3634 140.645 24.4733 139.001 25.8725 137.615L109.136 55.1668C111.962 52.3696 115.794 50.7983 119.79 50.7983C123.786 50.7983 127.618 52.3696 130.444 55.1668L213.707 137.615C215.107 139.001 216.217 140.645 216.974 142.455C217.731 144.265 218.121 146.205 218.121 148.164C218.121 150.123 217.731 152.063 216.974 153.873C216.217 155.683 215.107 157.327 213.707 158.712L130.444 241.158C129.045 242.544 127.384 243.642 125.555 244.392C123.727 245.141 121.768 245.527 119.789 245.527C117.81 245.526 115.851 245.14 114.023 244.389C112.195 243.639 110.535 242.54 109.136 241.154Z" fill="white"/>
</g>
<g filter="url(#filter2_d_224_7121)">
<path d="M105.768 233.722L32.7192 161.39C30.8764 159.568 29.4145 157.404 28.4171 155.022C27.4196 152.64 26.9062 150.086 26.9062 147.508C26.9062 144.929 27.4196 142.376 28.4171 139.993C29.4145 137.611 30.8764 135.447 32.7192 133.625L105.768 64.4113C107.609 62.588 109.795 61.1416 112.201 60.1548C114.606 59.1681 117.185 58.6602 119.789 58.6602C122.393 58.6602 124.971 59.1681 127.377 60.1548C129.783 61.1416 131.969 62.588 133.81 64.4113L206.859 133.625C208.701 135.447 210.163 137.611 211.161 139.993C212.158 142.376 212.672 144.929 212.672 147.508C212.672 150.086 212.158 152.64 211.161 155.022C210.163 157.404 208.701 159.568 206.859 161.39L133.81 233.722C131.969 235.545 129.783 236.992 127.377 237.978C124.971 238.965 122.393 239.473 119.789 239.473C117.185 239.473 114.606 238.965 112.201 237.978C109.795 236.992 107.609 235.545 105.768 233.722Z" fill="white"/>
</g>
<path d="M45.5352 156.329V144.183H52.1445V146.143H47.873V149.131H51.9248V151.038H47.873V154.316H52.1445V156.329H45.5352ZM54.5 156.329V143.189H56.8027V156.329H54.5ZM66.6025 151.003C66.6025 151.536 66.5732 151.967 66.5146 152.295H60.9863C60.9863 153.906 61.8096 154.712 63.4561 154.712C64.3232 154.712 65.1875 154.536 66.0488 154.185L66.2949 155.934C65.2578 156.314 64.1797 156.505 63.0605 156.505C60.1191 156.505 58.6484 154.981 58.6484 151.935C58.6484 150.558 59.0234 149.436 59.7734 148.568C60.5527 147.66 61.5928 147.206 62.8936 147.206C64.1357 147.206 65.082 147.572 65.7324 148.305C66.3125 148.967 66.6025 149.866 66.6025 151.003ZM64.3174 150.766C64.3525 149.518 63.8369 148.894 62.7705 148.894C61.7275 148.894 61.1387 149.518 61.0039 150.766H64.3174ZM74.5127 156.074C73.7979 156.35 72.96 156.487 71.999 156.487C69.3096 156.487 67.9648 155.043 67.9648 152.154C67.9648 150.689 68.3369 149.518 69.0811 148.639C69.8838 147.695 71.0293 147.224 72.5176 147.224C73.2324 147.224 73.8857 147.326 74.4775 147.531L74.1172 149.509C73.5605 149.28 73.0039 149.166 72.4473 149.166C71.7793 149.166 71.2637 149.418 70.9004 149.922C70.5488 150.402 70.373 151.067 70.373 151.917C70.373 153.646 71.0703 154.51 72.4648 154.51C73.0918 154.51 73.6748 154.39 74.2139 154.149L74.5127 156.074ZM81.2803 156.259C80.6123 156.423 79.9648 156.505 79.3379 156.505C78.3535 156.505 77.6738 156.3 77.2988 155.89C76.9297 155.479 76.7451 154.75 76.7451 153.701V149.166H75.1982V147.382H76.7451V144.631L79.0303 144.016V147.382H81.21V149.166H79.0303V153.086C79.0303 153.66 79.1094 154.05 79.2676 154.255C79.4199 154.46 79.6953 154.562 80.0938 154.562C80.4922 154.562 80.835 154.521 81.1221 154.439L81.2803 156.259ZM87.9248 149.456C86.2666 149.128 85.4375 150.2 85.4375 152.673V156.329H83.1348V147.382H85.3145C85.3145 147.95 85.2588 148.551 85.1475 149.184H85.1826C85.7334 147.736 86.6826 147.077 88.0303 147.206L87.9248 149.456ZM97.5049 151.688C97.5049 153.089 97.0771 154.243 96.2217 155.151C95.3604 156.054 94.2646 156.505 92.9346 156.505C90.1396 156.505 88.7422 155.005 88.7422 152.005C88.7422 150.604 89.1641 149.456 90.0078 148.56C90.8633 147.657 91.9648 147.206 93.3125 147.206C94.6309 147.206 95.6504 147.566 96.3711 148.287C97.127 149.055 97.5049 150.188 97.5049 151.688ZM95.1318 151.812C95.1318 150.036 94.4727 149.148 93.1543 149.148C92.5918 149.148 92.123 149.356 91.748 149.772C91.3262 150.247 91.1152 150.915 91.1152 151.776C91.1152 153.622 91.7832 154.545 93.1191 154.545C93.7109 154.545 94.1885 154.316 94.5518 153.859C94.9385 153.373 95.1318 152.69 95.1318 151.812ZM104.677 156.329V150.607C104.677 149.623 104.305 149.131 103.561 149.131C102.986 149.131 102.497 149.415 102.093 149.983C101.688 150.546 101.486 151.22 101.486 152.005V156.329H99.1836V147.382H101.363C101.363 148.015 101.319 148.548 101.231 148.981H101.258C101.867 147.798 102.881 147.206 104.299 147.206C106.074 147.206 106.962 148.152 106.962 150.045V156.329H104.677ZM112.024 144.666C112.024 145.047 111.884 145.372 111.603 145.642C111.315 145.917 110.976 146.055 110.583 146.055C110.185 146.055 109.848 145.92 109.572 145.65C109.297 145.381 109.159 145.053 109.159 144.666C109.159 144.279 109.297 143.948 109.572 143.673C109.848 143.397 110.185 143.26 110.583 143.26C110.981 143.26 111.321 143.395 111.603 143.664C111.884 143.939 112.024 144.273 112.024 144.666ZM109.432 156.329V147.382H111.734V156.329H109.432ZM120.128 156.074C119.413 156.35 118.575 156.487 117.614 156.487C114.925 156.487 113.58 155.043 113.58 152.154C113.58 150.689 113.952 149.518 114.696 148.639C115.499 147.695 116.645 147.224 118.133 147.224C118.848 147.224 119.501 147.326 120.093 147.531L119.732 149.509C119.176 149.28 118.619 149.166 118.062 149.166C117.395 149.166 116.879 149.418 116.516 149.922C116.164 150.402 115.988 151.067 115.988 151.917C115.988 153.646 116.686 154.51 118.08 154.51C118.707 154.51 119.29 154.39 119.829 154.149L120.128 156.074ZM131.29 156.074C130.575 156.35 129.737 156.487 128.776 156.487C126.087 156.487 124.742 155.043 124.742 152.154C124.742 150.689 125.114 149.518 125.858 148.639C126.661 147.695 127.807 147.224 129.295 147.224C130.01 147.224 130.663 147.326 131.255 147.531L130.895 149.509C130.338 149.28 129.781 149.166 129.225 149.166C128.557 149.166 128.041 149.418 127.678 149.922C127.326 150.402 127.15 151.067 127.15 151.917C127.15 153.646 127.848 154.51 129.242 154.51C129.869 154.51 130.452 154.39 130.991 154.149L131.29 156.074ZM141.169 151.688C141.169 153.089 140.741 154.243 139.886 155.151C139.024 156.054 137.929 156.505 136.599 156.505C133.804 156.505 132.406 155.005 132.406 152.005C132.406 150.604 132.828 149.456 133.672 148.56C134.527 147.657 135.629 147.206 136.977 147.206C138.295 147.206 139.314 147.566 140.035 148.287C140.791 149.055 141.169 150.188 141.169 151.688ZM138.796 151.812C138.796 150.036 138.137 149.148 136.818 149.148C136.256 149.148 135.787 149.356 135.412 149.772C134.99 150.247 134.779 150.915 134.779 151.776C134.779 153.622 135.447 154.545 136.783 154.545C137.375 154.545 137.853 154.316 138.216 153.859C138.603 153.373 138.796 152.69 138.796 151.812ZM148.341 156.329V150.607C148.341 149.623 147.969 149.131 147.225 149.131C146.65 149.131 146.161 149.415 145.757 149.983C145.353 150.546 145.15 151.22 145.15 152.005V156.329H142.848V147.382H145.027C145.027 148.015 144.983 148.548 144.896 148.981H144.922C145.531 147.798 146.545 147.206 147.963 147.206C149.738 147.206 150.626 148.152 150.626 150.045V156.329H148.341ZM157.851 156.259C157.183 156.423 156.535 156.505 155.908 156.505C154.924 156.505 154.244 156.3 153.869 155.89C153.5 155.479 153.315 154.75 153.315 153.701V149.166H151.769V147.382H153.315V144.631L155.601 144.016V147.382H157.78V149.166H155.601V153.086C155.601 153.66 155.68 154.05 155.838 154.255C155.99 154.46 156.266 154.562 156.664 154.562C157.062 154.562 157.405 154.521 157.692 154.439L157.851 156.259ZM164.495 149.456C162.837 149.128 162.008 150.2 162.008 152.673V156.329H159.705V147.382H161.885C161.885 147.95 161.829 148.551 161.718 149.184H161.753C162.304 147.736 163.253 147.077 164.601 147.206L164.495 149.456ZM170.938 156.329C170.938 155.714 170.967 155.21 171.025 154.817L171.008 154.8C170.521 155.937 169.569 156.505 168.151 156.505C167.36 156.505 166.73 156.262 166.262 155.775C165.816 155.307 165.594 154.7 165.594 153.956C165.594 152.919 166.062 152.134 167 151.601C167.891 151.091 169.145 150.836 170.762 150.836V150.511C170.762 149.96 170.642 149.564 170.401 149.324C170.155 149.072 169.742 148.946 169.162 148.946C168.307 148.946 167.404 149.151 166.455 149.562L166.077 147.795C167.097 147.391 168.225 147.188 169.461 147.188C170.791 147.188 171.737 147.464 172.3 148.015C172.81 148.507 173.064 149.28 173.064 150.335V154.026C173.064 154.905 173.088 155.673 173.135 156.329H170.938ZM170.762 152.348C168.793 152.348 167.809 152.799 167.809 153.701C167.809 154 167.905 154.246 168.099 154.439C168.298 154.645 168.562 154.747 168.89 154.747C169.429 154.747 169.88 154.521 170.243 154.07C170.589 153.643 170.762 153.147 170.762 152.585V152.348ZM181.511 156.074C180.796 156.35 179.958 156.487 178.997 156.487C176.308 156.487 174.963 155.043 174.963 152.154C174.963 150.689 175.335 149.518 176.079 148.639C176.882 147.695 178.027 147.224 179.516 147.224C180.23 147.224 180.884 147.326 181.476 147.531L181.115 149.509C180.559 149.28 180.002 149.166 179.445 149.166C178.777 149.166 178.262 149.418 177.898 149.922C177.547 150.402 177.371 151.067 177.371 151.917C177.371 153.646 178.068 154.51 179.463 154.51C180.09 154.51 180.673 154.39 181.212 154.149L181.511 156.074ZM188.278 156.259C187.61 156.423 186.963 156.505 186.336 156.505C185.352 156.505 184.672 156.3 184.297 155.89C183.928 155.479 183.743 154.75 183.743 153.701V149.166H182.196V147.382H183.743V144.631L186.028 144.016V147.382H188.208V149.166H186.028V153.086C186.028 153.66 186.107 154.05 186.266 154.255C186.418 154.46 186.693 154.562 187.092 154.562C187.49 154.562 187.833 154.521 188.12 154.439L188.278 156.259ZM195.635 153.543C195.635 154.434 195.274 155.151 194.554 155.696C193.833 156.235 192.881 156.505 191.697 156.505C190.918 156.505 190.25 156.429 189.693 156.276L189.86 154.352C190.411 154.592 191.047 154.712 191.768 154.712C192.729 154.712 193.209 154.387 193.209 153.736C193.209 153.396 193.019 153.124 192.638 152.919C192.603 152.901 192.187 152.74 191.39 152.436C190.177 151.979 189.57 151.182 189.57 150.045C189.57 149.207 189.878 148.533 190.493 148.023C191.173 147.467 192.131 147.188 193.367 147.188C193.889 147.188 194.428 147.247 194.984 147.364L194.879 149.166C194.352 149.008 193.812 148.929 193.262 148.929C192.383 148.929 191.943 149.236 191.943 149.852C191.943 150.174 192.137 150.44 192.523 150.651L193.789 151.161C195.02 151.647 195.635 152.441 195.635 153.543Z" fill="#565656"/>
<g filter="url(#filter3_d_224_7121)">
<path d="M143.017 73.7751C155.811 61.1072 155.811 40.5685 143.017 27.9006C130.224 15.2327 109.481 15.2327 96.688 27.9006C83.8946 40.5685 83.8946 61.1072 96.688 73.7751C109.481 86.443 130.224 86.443 143.017 73.7751Z" fill="#B8860B"/>
</g>
<path d="M126.647 41.0854V41.7794C126.647 42.9364 126.647 44.0936 126.647 45.2511C126.647 45.8688 127.005 46.2136 127.646 46.2143C128.989 46.2143 130.332 46.2143 131.675 46.2143H132.019V46.51C132.019 50.7661 132.019 55.022 132.019 59.2777C132.019 59.7686 131.889 59.8932 131.377 59.8932H117.445C116.928 59.8932 116.797 59.77 116.797 59.2827C116.797 53.4159 116.797 47.5487 116.797 41.6811C116.797 41.2208 116.934 41.0854 117.403 41.0854H126.647ZM124.408 47.9249H119.905C119.55 47.9249 119.485 47.9897 119.484 48.3324C119.484 48.6523 119.488 48.9736 119.484 49.2935C119.48 49.5272 119.589 49.6355 119.837 49.6355C122.885 49.6355 125.933 49.6355 128.982 49.6355C129.23 49.6355 129.339 49.5265 129.335 49.2935C129.331 48.9822 129.335 48.6701 129.335 48.3588C129.335 47.9812 129.278 47.9249 128.887 47.9249H124.408ZM124.414 51.3446H119.884C119.562 51.3446 119.487 51.4159 119.485 51.7194C119.485 52.0485 119.488 52.3777 119.485 52.7075C119.485 52.9377 119.581 53.0552 119.831 53.0552C122.88 53.0552 125.929 53.0552 128.977 53.0552C129.222 53.0552 129.34 52.9555 129.337 52.7189C129.332 52.3983 129.337 52.0777 129.337 51.7579C129.337 51.4016 129.273 51.3446 128.894 51.3446H124.414ZM121.728 44.5052C121.104 44.5052 120.48 44.5052 119.855 44.5052C119.597 44.5052 119.477 44.6063 119.481 44.8557C119.488 45.1941 119.487 45.5318 119.481 45.8702C119.481 46.1003 119.578 46.2179 119.828 46.2179C121.086 46.2179 122.344 46.2179 123.603 46.2179C123.846 46.2179 123.964 46.1167 123.961 45.8809C123.96 45.5411 123.96 45.2027 123.96 44.8643C123.96 44.5793 123.878 44.508 123.573 44.508C122.957 44.503 122.343 44.5052 121.727 44.5052H121.728ZM127.067 56.4742C127.691 56.4742 128.316 56.4742 128.936 56.4742C129.252 56.4742 129.327 56.3994 129.329 56.0931C129.329 55.7639 129.326 55.4348 129.329 55.1056C129.333 54.8727 129.225 54.7629 128.976 54.7637C127.719 54.7665 126.461 54.7665 125.202 54.7637C124.955 54.7637 124.847 54.8727 124.85 55.1056C124.855 55.4348 124.85 55.7639 124.85 56.0931C124.85 56.4001 124.925 56.4728 125.243 56.4742C125.854 56.4757 126.46 56.4742 127.066 56.4742H127.067Z" fill="white"/>
<path d="M115.441 44.505V46.2149H113.396C113.22 46.2149 113.042 46.2092 112.865 46.2149C112.491 46.2299 112.206 46.0796 111.984 45.7917C111.572 45.2538 111.146 44.7231 110.732 44.188C110.642 44.0705 110.559 44.0156 110.389 44.042C109.197 44.2293 108.104 43.4606 107.876 42.2829C107.665 41.1957 108.446 40.0829 109.588 39.8606C110.479 39.6854 111.241 39.924 111.812 40.598C112.383 41.272 112.476 42.0122 112.111 42.7995C112.076 42.8595 112.062 42.9287 112.071 42.9969C112.081 43.065 112.113 43.1284 112.163 43.1778C112.468 43.5492 112.764 43.9263 113.051 44.3091C113.094 44.376 113.155 44.4303 113.228 44.4661C113.301 44.5018 113.383 44.5175 113.465 44.5115C114.117 44.4972 114.768 44.505 115.441 44.505Z" fill="white"/>
<path d="M115.446 54.7642V56.474H114.787C114.339 56.474 113.89 56.4612 113.446 56.4819C113.307 56.4927 113.178 56.5533 113.083 56.6514C112.76 57.0304 112.467 57.4351 112.153 57.8184C112.106 57.8651 112.076 57.9251 112.068 57.9894C112.06 58.0538 112.074 58.1188 112.109 58.1746C112.302 58.568 112.362 59.0091 112.28 59.4365C112.198 59.8639 111.979 60.2563 111.652 60.5592C111.332 60.8618 110.924 61.0651 110.481 61.1423C110.038 61.2195 109.581 61.167 109.17 60.9916C108.754 60.8141 108.405 60.5202 108.168 60.1491C107.932 59.7779 107.819 59.347 107.846 58.9134C107.91 57.6823 109.117 56.7348 110.379 56.9328C110.445 56.9496 110.514 56.9452 110.576 56.9205C110.639 56.8957 110.691 56.852 110.725 56.796C111.138 56.2581 111.566 55.7274 111.977 55.1916C112.076 55.052 112.212 54.9393 112.371 54.8644C112.529 54.7895 112.706 54.7549 112.882 54.7642C113.729 54.7706 114.575 54.7642 115.446 54.7642Z" fill="white"/>
<path d="M115.442 49.6344V51.3443H115.13C113.919 51.3443 112.707 51.3443 111.495 51.3443C111.319 51.3443 111.22 51.3842 111.126 51.5423C110.867 51.9902 110.445 52.3325 109.939 52.5048C109.434 52.6772 108.88 52.6678 108.381 52.4785C107.884 52.2961 107.472 51.9506 107.219 51.5044C106.966 51.0582 106.889 50.5405 107.001 50.0448C107.108 49.5478 107.399 49.1041 107.821 48.7944C108.243 48.4847 108.767 48.3297 109.299 48.3577C110.101 48.3976 110.719 48.7645 111.119 49.4264C111.22 49.5945 111.326 49.6365 111.51 49.6351C112.713 49.6287 113.915 49.6351 115.118 49.6351L115.442 49.6344Z" fill="white"/>
<path d="M131.447 44.9319C130.484 44.9319 129.48 44.9319 128.475 44.9319C128.176 44.9319 127.995 44.7695 127.993 44.4909C127.986 43.5227 127.993 42.5545 127.993 41.6411L131.447 44.9319Z" fill="white"/>
<defs>
<filter id="filter0_d_224_7121" x="39.2974" y="17.5949" width="215.001" height="266.785" filterUnits="userSpaceOnUse" color-interpolation-filters="sRGB">
<feFlood flood-opacity="0" result="BackgroundImageFix"/>
<feColorMatrix in="SourceAlpha" type="matrix" values="0 0 0 0 0 0 0 0 0 0 0 0 0 0 0 0 0 0 127 0" result="hardAlpha"/>
<feOffset dy="2.8317"/>
<feGaussianBlur stdDeviation="10.6189"/>
<feComposite in2="hardAlpha" operator="out"/>
<feColorMatrix type="matrix" values="0 0 0 0 0 0 0 0 0 0 0 0 0 0 0 0 0 0 0.15 0"/>
<feBlend mode="normal" in2="BackgroundImageFix" result="effect1_dropShadow_224_7121"/>
<feBlend mode="normal" in="SourceGraphic" in2="effect1_dropShadow_224_7121" result="shape"/>
</filter>
<filter id="filter1_d_224_7121" x="0.221245" y="32.3923" width="239.138" height="237.204" filterUnits="userSpaceOnUse" color-interpolation-filters="sRGB">
<feFlood flood-opacity="0" result="BackgroundImageFix"/>
<feColorMatrix in="SourceAlpha" type="matrix" values="0 0 0 0 0 0 0 0 0 0 0 0 0 0 0 0 0 0 127 0" result="hardAlpha"/>
<feOffset dy="2.8317"/>
<feGaussianBlur stdDeviation="10.6189"/>
<feComposite in2="hardAlpha" operator="out"/>
<feColorMatrix type="matrix" values="0 0 0 0 0 0 0 0 0 0 0 0 0 0 0 0 0 0 0.15 0"/>
<feBlend mode="normal" in2="BackgroundImageFix" result="effect1_dropShadow_224_7121"/>
<feBlend mode="normal" in="SourceGraphic" in2="effect1_dropShadow_224_7121" result="shape"/>
</filter>
<filter id="filter2_d_224_7121" x="5.66851" y="40.2541" width="228.241" height="223.288" filterUnits="userSpaceOnUse" color-interpolation-filters="sRGB">
<feFlood flood-opacity="0" result="BackgroundImageFix"/>
<feColorMatrix in="SourceAlpha" type="matrix" values="0 0 0 0 0 0 0 0 0 0 0 0 0 0 0 0 0 0 127 0" result="hardAlpha"/>
<feOffset dy="2.8317"/>
<feGaussianBlur stdDeviation="10.6189"/>
<feComposite in2="hardAlpha" operator="out"/>
<feColorMatrix type="matrix" values="0 0 0 0 0 0 0 0 0 0 0 0 0 0 0 0 0 0 0.15 0"/>
<feBlend mode="normal" in2="BackgroundImageFix" result="effect1_dropShadow_224_7121"/>
<feBlend mode="normal" in="SourceGraphic" in2="effect1_dropShadow_224_7121" result="shape"/>
</filter>
<filter id="filter3_d_224_7121" x="65.856" y="-0.0061388" width="107.993" height="107.351" filterUnits="userSpaceOnUse" color-interpolation-filters="sRGB">
<feFlood flood-opacity="0" result="BackgroundImageFix"/>
<feColorMatrix in="SourceAlpha" type="matrix" values="0 0 0 0 0 0 0 0 0 0 0 0 0 0 0 0 0 0 127 0" result="hardAlpha"/>
<feOffset dy="2.8317"/>
<feGaussianBlur stdDeviation="10.6189"/>
<feComposite in2="hardAlpha" operator="out"/>
<feColorMatrix type="matrix" values="0 0 0 0 0 0 0 0 0 0 0 0 0 0 0 0 0 0 0.15 0"/>
<feBlend mode="normal" in2="BackgroundImageFix" result="effect1_dropShadow_224_7121"/>
<feBlend mode="normal" in="SourceGraphic" in2="effect1_dropShadow_224_7121" result="shape"/>
</filter>
</defs>
</svg>
