<svg width="255" height="285" viewBox="0 0 255 285" fill="none" xmlns="http://www.w3.org/2000/svg">
<path d="M62.2299 208.648C62.0041 208.649 61.7804 208.605 61.5719 208.52C61.3633 208.434 61.1739 208.308 61.0147 208.15L60.2127 207.358C59.9017 207.036 59.7303 206.607 59.7351 206.162C59.7399 205.717 59.9206 205.292 60.2384 204.977C60.5563 204.662 60.9859 204.483 61.4354 204.479C61.8848 204.474 62.3183 204.644 62.6428 204.951L63.4449 205.743C63.6852 205.981 63.8488 206.285 63.9151 206.615C63.9813 206.945 63.9473 207.287 63.8173 207.598C63.6872 207.909 63.467 208.174 63.1844 208.361C62.9019 208.548 62.5697 208.648 62.2299 208.648ZM53.4186 199.924C53.1929 199.924 52.9694 199.88 52.7608 199.795C52.5523 199.709 52.3629 199.583 52.2036 199.425L51.4039 198.633C51.0816 198.314 50.9004 197.882 50.9002 197.431C50.9 196.98 51.0807 196.547 51.4027 196.228C51.7246 195.909 52.1614 195.729 52.6169 195.729C53.0724 195.729 53.5094 195.908 53.8317 196.227L54.6338 197.021C54.8744 197.259 55.0383 197.562 55.1048 197.892C55.1712 198.222 55.1372 198.564 55.0071 198.875C54.877 199.186 54.6565 199.451 54.3737 199.638C54.0909 199.825 53.7585 199.924 53.4186 199.924ZM44.6147 191.199C44.1592 191.199 43.7222 191.021 43.3995 190.703L42.5999 189.908C42.4346 189.752 42.3027 189.564 42.2117 189.356C42.1208 189.148 42.0727 188.924 42.0702 188.698C42.0678 188.471 42.111 188.246 42.1974 188.037C42.2839 187.827 42.4117 187.636 42.5735 187.476C42.7353 187.316 42.9278 187.189 43.1397 187.104C43.3515 187.018 43.5785 186.975 43.8073 186.978C44.0361 186.98 44.2621 187.028 44.4721 187.118C44.6821 187.208 44.8717 187.338 45.03 187.502L45.8298 188.296C46.0704 188.534 46.2343 188.837 46.3007 189.167C46.3672 189.497 46.3332 189.839 46.2031 190.15C46.0729 190.461 45.8525 190.727 45.5697 190.913C45.2869 191.1 44.9545 191.2 44.6147 191.199ZM35.8035 182.477C35.3478 182.476 34.9108 182.297 34.5884 181.978L33.7887 181.184C33.4777 180.862 33.3063 180.433 33.3111 179.988C33.3159 179.543 33.4966 179.118 33.8144 178.803C34.1322 178.488 34.562 178.309 35.0114 178.304C35.4608 178.3 35.8943 178.469 36.2189 178.777L37.0186 179.572C37.2588 179.81 37.4224 180.113 37.4887 180.443C37.555 180.773 37.521 181.115 37.3909 181.426C37.2609 181.737 37.0406 182.003 36.7581 182.19C36.4755 182.377 36.1434 182.477 35.8035 182.477ZM26.9923 173.752C26.7669 173.752 26.5439 173.708 26.3358 173.622C26.1276 173.537 25.9387 173.411 25.7796 173.253L24.9775 172.459C24.8181 172.301 24.6917 172.113 24.6054 171.907C24.5192 171.701 24.475 171.479 24.4751 171.256C24.4752 171.033 24.5197 170.812 24.6061 170.605C24.6926 170.399 24.8192 170.212 24.9787 170.054C25.1383 169.896 25.3276 169.771 25.5361 169.685C25.7445 169.6 25.9679 169.556 26.1934 169.556C26.419 169.556 26.6423 169.6 26.8507 169.686C27.059 169.772 27.2483 169.897 27.4077 170.055L28.2074 170.847C28.4477 171.085 28.6113 171.388 28.6776 171.718C28.7438 172.048 28.7098 172.39 28.5798 172.701C28.4497 173.012 28.2295 173.278 27.9469 173.465C27.6644 173.652 27.3322 173.752 26.9923 173.752ZM18.1835 165.027C17.9577 165.028 17.734 164.984 17.5254 164.899C17.3168 164.813 17.1275 164.687 16.9684 164.528L16.1664 163.737C15.864 163.414 15.6997 162.988 15.7079 162.548C15.7161 162.107 15.8962 161.688 16.2104 161.376C16.5246 161.065 16.9484 160.886 17.3929 160.877C17.8374 160.869 18.2679 161.031 18.5941 161.33L19.3962 162.122C19.6365 162.36 19.8001 162.663 19.8663 162.993C19.9326 163.323 19.8986 163.666 19.7685 163.977C19.6385 164.287 19.4183 164.553 19.1357 164.74C18.8532 164.927 18.521 165.027 18.1811 165.027H18.1835ZM10.1339 155.714C9.8014 155.713 9.47618 155.617 9.19747 155.438C8.91877 155.258 8.69846 155.003 8.56308 154.702C8.39359 154.322 8.23365 153.927 8.08564 153.535C7.94552 153.112 7.9783 152.651 8.17691 152.252C8.37551 151.853 8.72413 151.546 9.14811 151.399C9.57208 151.251 10.0377 151.273 10.445 151.461C10.8524 151.649 11.1692 151.988 11.3275 152.405C11.4373 152.712 11.5662 153.022 11.6951 153.322C11.8112 153.581 11.8601 153.865 11.8374 154.147C11.8147 154.43 11.721 154.702 11.565 154.94C11.4089 155.177 11.1955 155.373 10.9439 155.508C10.6923 155.643 10.4106 155.714 10.1243 155.714H10.1339ZM10.2842 143.753C10.0297 143.753 9.77843 143.697 9.54903 143.588C9.3451 143.492 9.16223 143.357 9.01091 143.192C8.8596 143.026 8.74278 142.832 8.66717 142.621C8.59156 142.411 8.55862 142.188 8.57025 141.964C8.58188 141.741 8.63785 141.523 8.73495 141.321C8.91638 140.945 9.11212 140.572 9.32219 140.21C9.43265 140.012 9.58174 139.838 9.76076 139.698C9.93978 139.558 10.1452 139.455 10.3649 139.394C10.5847 139.334 10.8144 139.317 11.0407 139.345C11.2671 139.374 11.4854 139.446 11.6832 139.559C11.8809 139.671 12.054 139.822 12.1924 140.001C12.3308 140.181 12.4317 140.386 12.4893 140.605C12.5468 140.823 12.5599 141.051 12.5276 141.275C12.4954 141.498 12.4184 141.713 12.3014 141.907C12.1367 142.191 11.9816 142.486 11.8383 142.782C11.6982 143.074 11.4769 143.32 11.2004 143.492C10.9239 143.664 10.6036 143.755 10.2771 143.753H10.2842ZM18.439 134.513C18.0991 134.513 17.7669 134.413 17.4843 134.226C17.2018 134.039 16.9816 133.773 16.8515 133.462C16.7215 133.152 16.6874 132.809 16.7537 132.479C16.82 132.149 16.9836 131.846 17.2239 131.608L18.026 130.814C18.1819 130.641 18.3718 130.501 18.5842 130.403C18.7965 130.306 19.0268 130.252 19.2609 130.246C19.4949 130.239 19.7278 130.28 19.9453 130.366C20.1628 130.452 20.3603 130.581 20.5256 130.745C20.691 130.909 20.8207 131.105 20.9068 131.321C20.9929 131.537 21.0336 131.767 21.0264 131.999C21.0193 132.231 20.9644 132.459 20.8651 132.669C20.7658 132.879 20.6242 133.066 20.449 133.22L19.6469 134.014C19.4875 134.173 19.2981 134.298 19.0896 134.384C18.8811 134.469 18.6575 134.513 18.4318 134.513H18.439ZM27.2501 125.788C26.9103 125.788 26.5781 125.688 26.2955 125.501C26.013 125.314 25.7928 125.049 25.6627 124.738C25.5327 124.427 25.4986 124.085 25.5649 123.755C25.6311 123.425 25.7948 123.121 26.035 122.883L26.8371 122.091C26.9966 121.933 27.1858 121.808 27.3941 121.723C27.6025 121.637 27.8258 121.593 28.0514 121.593C28.2769 121.593 28.5003 121.637 28.7087 121.722C28.9172 121.807 29.1066 121.932 29.2661 122.09C29.4257 122.248 29.5523 122.436 29.6387 122.642C29.7252 122.848 29.7696 123.069 29.7698 123.293C29.7699 123.516 29.7256 123.737 29.6394 123.944C29.5532 124.15 29.4267 124.337 29.2673 124.495L28.4652 125.29C28.3048 125.449 28.1142 125.574 27.9045 125.66C27.6947 125.746 27.4699 125.789 27.243 125.788H27.2501ZM36.0613 117.064C35.7214 117.064 35.3892 116.964 35.1067 116.777C34.8241 116.59 34.6039 116.324 34.4739 116.013C34.3438 115.702 34.3098 115.36 34.3761 115.03C34.4424 114.7 34.606 114.397 34.8462 114.159L35.6483 113.367C35.9729 113.059 36.4063 112.889 36.8558 112.894C37.3052 112.899 37.7349 113.078 38.0527 113.392C38.3705 113.707 38.5513 114.132 38.5561 114.577C38.5609 115.023 38.3895 115.452 38.0785 115.773L37.2764 116.565C37.1162 116.724 36.9257 116.85 36.7158 116.936C36.506 117.022 36.2811 117.065 36.0541 117.064H36.0613ZM44.8725 108.339C44.5326 108.339 44.2004 108.239 43.9178 108.052C43.6353 107.865 43.4151 107.599 43.285 107.288C43.155 106.977 43.121 106.635 43.1872 106.305C43.2535 105.975 43.4171 105.672 43.6574 105.434L44.4571 104.642C44.7817 104.334 45.2151 104.164 45.6645 104.169C46.114 104.174 46.5437 104.353 46.8615 104.668C47.1793 104.982 47.36 105.408 47.3648 105.853C47.3697 106.298 47.1982 106.727 46.8873 107.048L46.0875 107.84C45.9274 107.999 45.7369 108.126 45.5271 108.211C45.3172 108.297 45.0923 108.34 44.8653 108.339H44.8725ZM53.686 99.6143C53.3467 99.6137 53.0151 99.5137 52.733 99.3268C52.451 99.1399 52.2311 98.8745 52.1012 98.564C51.9712 98.2536 51.937 97.912 52.0028 97.5824C52.0686 97.2527 52.2315 96.9497 52.4709 96.7116L53.2707 95.9173C53.429 95.7537 53.6186 95.6231 53.8286 95.533C54.0386 95.443 54.2645 95.3953 54.4934 95.3929C54.7221 95.3905 54.9492 95.4333 55.161 95.5189C55.3729 95.6045 55.5654 95.7311 55.7272 95.8913C55.889 96.0515 56.0168 96.2421 56.1033 96.4519C56.1897 96.6616 56.2329 96.8864 56.2305 97.113C56.228 97.3395 56.1799 97.5633 56.089 97.7712C55.998 97.9791 55.866 98.1669 55.7008 98.3237L54.9011 99.1155C54.7418 99.2739 54.5525 99.3995 54.3439 99.4851C54.1354 99.5707 53.9118 99.6146 53.686 99.6143ZM62.4972 90.8896C62.1573 90.8901 61.8249 90.7908 61.5421 90.604C61.2594 90.4173 61.0389 90.1517 60.9088 89.8408C60.7786 89.5299 60.7446 89.1877 60.8111 88.8577C60.8776 88.5276 61.0415 88.2246 61.2821 87.9869L61.5495 87.7198C61.874 87.4119 62.3075 87.2421 62.757 87.2469C63.2064 87.2517 63.636 87.4306 63.9539 87.7453C64.2717 88.06 64.4524 88.4854 64.4572 88.9305C64.4621 89.3755 64.2906 89.8047 63.9797 90.1261L63.7099 90.3932C63.5496 90.5521 63.359 90.6778 63.1492 90.763C62.9393 90.8483 62.7145 90.8913 62.4877 90.8896H62.4972Z" fill="#2C3E50"/>
<g filter="url(#filter0_d_224_1482)">
<path d="M119.865 260.347C117.665 260.35 115.486 259.923 113.454 259.091C111.421 258.259 109.574 257.037 108.019 255.496L60.6094 208.552L63.8488 205.344L111.261 252.289C113.544 254.546 116.638 255.814 119.865 255.814C123.091 255.814 126.185 254.546 128.468 252.289L224.988 156.716C227.268 154.456 228.549 151.391 228.549 148.196C228.549 145.001 227.268 141.936 224.988 139.676L128.468 44.1058C126.185 41.8482 123.091 40.5802 119.865 40.5802C116.638 40.5802 113.544 41.8482 111.261 44.1058L64.3764 90.5305L61.1345 87.3228L108.019 40.8981C109.574 39.3573 111.421 38.1349 113.453 37.301C115.485 36.467 117.663 36.0377 119.863 36.0377C122.063 36.0377 124.242 36.467 126.274 37.301C128.306 38.1349 130.153 39.3573 131.708 40.8981L228.229 136.471C231.37 139.581 233.135 143.8 233.135 148.198C233.135 152.597 231.37 156.816 228.229 159.926L131.708 255.499C130.153 257.039 128.307 258.261 126.275 259.093C124.242 259.925 122.064 260.351 119.865 260.347Z" fill="#2C3E50"/>
</g>
<g filter="url(#filter1_d_224_1482)">
<path d="M109.212 241.191L25.9487 158.749C24.5495 157.364 23.4395 155.719 22.6823 153.909C21.925 152.1 21.5352 150.16 21.5352 148.201C21.5352 146.241 21.925 144.302 22.6823 142.492C23.4395 140.682 24.5495 139.037 25.9487 137.652L109.212 55.2035C112.038 52.4064 115.87 50.8351 119.866 50.8351C123.862 50.8351 127.694 52.4064 130.52 55.2035L213.784 137.652C215.183 139.037 216.293 140.682 217.05 142.492C217.807 144.302 218.197 146.241 218.197 148.201C218.197 150.16 217.807 152.1 217.05 153.909C216.293 155.719 215.183 157.364 213.784 158.749L130.52 241.195C129.121 242.58 127.46 243.679 125.631 244.429C123.803 245.178 121.844 245.564 119.865 245.563C117.886 245.563 115.927 245.176 114.099 244.426C112.271 243.676 110.611 242.576 109.212 241.191Z" fill="white"/>
</g>
<g filter="url(#filter2_d_224_1482)">
<path d="M105.842 233.759L32.7934 161.427C30.9506 159.605 29.4887 157.441 28.4913 155.059C27.4939 152.677 26.9805 150.123 26.9805 147.545C26.9805 144.966 27.4939 142.413 28.4913 140.03C29.4887 137.648 30.9506 135.484 32.7934 133.662L105.842 64.4483C107.683 62.625 109.869 61.1786 112.275 60.1918C114.681 59.205 117.259 58.6971 119.863 58.6971C122.467 58.6971 125.046 59.205 127.451 60.1918C129.857 61.1786 132.043 62.625 133.884 64.4483L206.933 133.662C208.776 135.484 210.237 137.648 211.235 140.03C212.232 142.413 212.746 144.966 212.746 147.545C212.746 150.123 212.232 152.677 211.235 155.059C210.237 157.441 208.776 159.605 206.933 161.427L133.884 233.759C132.043 235.582 129.857 237.029 127.451 238.015C125.046 239.002 122.467 239.51 119.863 239.51C117.259 239.51 114.681 239.002 112.275 238.015C109.869 237.029 107.683 235.582 105.842 233.759Z" fill="white"/>
</g>
<path d="M64.6104 149.77C61.3936 149.77 59.7852 148.378 59.7852 145.595C59.7852 144.318 60.166 143.269 60.9277 142.449C61.7832 141.535 62.9932 141.078 64.5576 141.078C65.9697 141.078 67.2236 141.286 68.3193 141.702V147.898H70.0771V149.77H64.6104ZM66.0166 143.275C65.5596 143.058 64.9883 142.95 64.3027 142.95C63.6406 142.95 63.1162 143.178 62.7295 143.635C62.3486 144.081 62.1582 144.661 62.1582 145.375C62.1582 147.057 63.0605 147.898 64.8652 147.898H66.0166V143.275ZM65.8145 139.944C65.4805 139.944 65.1992 139.824 64.9707 139.583C64.7422 139.349 64.6279 139.062 64.6279 138.722C64.6279 138.382 64.7422 138.092 64.9707 137.852C65.2051 137.612 65.4863 137.492 65.8145 137.492C66.1484 137.492 66.4297 137.612 66.6582 137.852C66.8867 138.086 67.001 138.376 67.001 138.722C67.001 139.056 66.8867 139.343 66.6582 139.583C66.4297 139.824 66.1484 139.944 65.8145 139.944ZM62.8262 139.944C62.4922 139.944 62.2109 139.824 61.9824 139.583C61.7539 139.349 61.6396 139.062 61.6396 138.722C61.6396 138.382 61.7539 138.092 61.9824 137.852C62.2168 137.612 62.498 137.492 62.8262 137.492C63.166 137.492 63.4531 137.612 63.6875 137.852C63.916 138.086 64.0303 138.376 64.0303 138.722C64.0303 139.056 63.916 139.343 63.6875 139.583C63.4531 139.824 63.166 139.944 62.8262 139.944ZM69.8135 149.77V147.898H70.8418C71.2578 147.898 71.5918 147.939 71.8438 148.021C71.1758 147.535 70.8418 146.676 70.8418 145.446C70.8418 144.227 71.2285 143.213 72.002 142.405C72.8574 141.52 74.0293 141.078 75.5176 141.078C78.2305 141.078 79.5869 142.457 79.5869 145.217V149.77H69.8135ZM77.2666 145.507C77.2666 143.802 76.625 142.95 75.3418 142.95C74.6797 142.95 74.1523 143.178 73.7598 143.635C73.3848 144.081 73.1973 144.661 73.1973 145.375C73.1973 147.057 74.0967 147.898 75.8955 147.898H77.2666V145.507ZM76.7832 139.944C76.4492 139.944 76.168 139.824 75.9395 139.583C75.7051 139.349 75.5879 139.062 75.5879 138.722C75.5879 138.382 75.7051 138.092 75.9395 137.852C76.168 137.612 76.4492 137.492 76.7832 137.492C77.1113 137.492 77.3926 137.612 77.627 137.852C77.8555 138.086 77.9697 138.376 77.9697 138.722C77.9697 139.056 77.8555 139.343 77.627 139.583C77.3926 139.824 77.1113 139.944 76.7832 139.944ZM73.7949 139.944C73.4609 139.944 73.1797 139.824 72.9512 139.583C72.7168 139.349 72.5996 139.062 72.5996 138.722C72.5996 138.382 72.7168 138.092 72.9512 137.852C73.1797 137.612 73.4609 137.492 73.7949 137.492C74.1348 137.492 74.4189 137.612 74.6475 137.852C74.8818 138.086 74.999 138.376 74.999 138.722C74.999 139.056 74.8818 139.343 74.6475 139.583C74.4131 139.824 74.1289 139.944 73.7949 139.944ZM84.3506 154.305C83.4482 154.305 82.5342 154.226 81.6084 154.068L81.7578 152.125C82.6953 152.331 83.6299 152.433 84.5615 152.433C86.6416 152.433 87.6816 151.636 87.6816 150.042V149.77H86.2754C83.0586 149.77 81.4502 148.378 81.4502 145.595C81.4502 144.318 81.8311 143.269 82.5928 142.449C83.4482 141.535 84.6582 141.078 86.2227 141.078C87.6348 141.078 88.8887 141.286 89.9844 141.702V147.898H91.7422V149.77H89.9844V149.805C89.9844 151.141 89.5479 152.202 88.6748 152.987C87.7021 153.866 86.2607 154.305 84.3506 154.305ZM87.6816 143.275C87.2246 143.058 86.6533 142.95 85.9678 142.95C85.3057 142.95 84.7812 143.178 84.3945 143.635C84.0137 144.081 83.8232 144.661 83.8232 145.375C83.8232 147.057 84.7256 147.898 86.5303 147.898H87.6816V143.275ZM91.4873 147.898H94.0098V141.306H96.3828V149.77H91.4873V147.898ZM94.8359 137.386C94.5312 137.386 94.2705 137.275 94.0537 137.052C93.8428 136.835 93.7373 136.569 93.7373 136.252C93.7373 135.936 93.8428 135.669 94.0537 135.453C94.2705 135.23 94.5312 135.119 94.8359 135.119C95.1465 135.119 95.4102 135.23 95.627 135.453C95.8438 135.669 95.9521 135.936 95.9521 136.252C95.9521 136.569 95.8438 136.835 95.627 137.052C95.4102 137.275 95.1465 137.386 94.8359 137.386ZM96.3477 139.944C96.0078 139.944 95.7207 139.824 95.4863 139.583C95.2578 139.349 95.1436 139.062 95.1436 138.722C95.1436 138.382 95.2578 138.092 95.4863 137.852C95.7207 137.612 96.0078 137.492 96.3477 137.492C96.6816 137.492 96.9629 137.612 97.1914 137.852C97.4199 138.086 97.5342 138.376 97.5342 138.722C97.5342 139.056 97.4199 139.343 97.1914 139.583C96.957 139.824 96.6758 139.944 96.3477 139.944ZM93.3594 139.944C93.0254 139.944 92.7441 139.824 92.5156 139.583C92.2871 139.349 92.1729 139.062 92.1729 138.722C92.1729 138.382 92.2871 138.092 92.5156 137.852C92.75 137.612 93.0312 137.492 93.3594 137.492C93.6934 137.492 93.9746 137.612 94.2031 137.852C94.4316 138.086 94.5459 138.376 94.5459 138.722C94.5459 139.056 94.4316 139.343 94.2031 139.583C93.9688 139.824 93.6875 139.944 93.3594 139.944ZM101.05 154.305C100.147 154.305 99.2334 154.226 98.3076 154.068L98.457 152.125C99.3945 152.331 100.329 152.433 101.261 152.433C103.341 152.433 104.381 151.636 104.381 150.042V149.77H102.975C99.7578 149.77 98.1494 148.378 98.1494 145.595C98.1494 144.318 98.5303 143.269 99.292 142.449C100.147 141.535 101.357 141.078 102.922 141.078C104.334 141.078 105.588 141.286 106.684 141.702V147.898H108.441V149.77H106.684V149.805C106.684 151.141 106.247 152.202 105.374 152.987C104.401 153.866 102.96 154.305 101.05 154.305ZM104.381 143.275C103.924 143.058 103.353 142.95 102.667 142.95C102.005 142.95 101.48 143.178 101.094 143.635C100.713 144.081 100.522 144.661 100.522 145.375C100.522 147.057 101.425 147.898 103.229 147.898H104.381V143.275ZM108.187 149.77V147.898H109.215C109.631 147.898 109.965 147.939 110.217 148.021C109.549 147.535 109.215 146.676 109.215 145.446C109.215 144.227 109.602 143.213 110.375 142.405C111.23 141.52 112.402 141.078 113.891 141.078C116.604 141.078 117.96 142.457 117.96 145.217V149.77H108.187ZM115.64 145.507C115.64 143.802 114.998 142.95 113.715 142.95C113.053 142.95 112.525 143.178 112.133 143.635C111.758 144.081 111.57 144.661 111.57 145.375C111.57 147.057 112.47 147.898 114.269 147.898H115.64V145.507ZM122.17 154.305C121.268 154.305 120.354 154.226 119.428 154.068L119.577 152.125C120.515 152.331 121.449 152.433 122.381 152.433C124.461 152.433 125.501 151.636 125.501 150.042V149.77H124.095C120.878 149.77 119.27 148.378 119.27 145.595C119.27 144.318 119.65 143.269 120.412 142.449C121.268 141.535 122.478 141.078 124.042 141.078C125.454 141.078 126.708 141.286 127.804 141.702V149.805C127.804 151.141 127.367 152.202 126.494 152.987C125.521 153.866 124.08 154.305 122.17 154.305ZM125.501 143.275C125.044 143.058 124.473 142.95 123.787 142.95C123.125 142.95 122.601 143.178 122.214 143.635C121.833 144.081 121.643 144.661 121.643 145.375C121.643 147.057 122.545 147.898 124.35 147.898H125.501V143.275ZM138.157 149.77C134.94 149.77 133.332 148.378 133.332 145.595C133.332 144.318 133.713 143.269 134.475 142.449C135.33 141.535 136.54 141.078 138.104 141.078C139.517 141.078 140.771 141.286 141.866 141.702V147.898H143.624V149.77H138.157ZM139.563 143.275C139.106 143.058 138.535 142.95 137.85 142.95C137.188 142.95 136.663 143.178 136.276 143.635C135.896 144.081 135.705 144.661 135.705 145.375C135.705 147.057 136.607 147.898 138.412 147.898H139.563V143.275ZM139.361 139.944C139.027 139.944 138.746 139.824 138.518 139.583C138.289 139.349 138.175 139.062 138.175 138.722C138.175 138.382 138.289 138.092 138.518 137.852C138.752 137.612 139.033 137.492 139.361 137.492C139.695 137.492 139.977 137.612 140.205 137.852C140.434 138.086 140.548 138.376 140.548 138.722C140.548 139.056 140.434 139.343 140.205 139.583C139.977 139.824 139.695 139.944 139.361 139.944ZM136.373 139.944C136.039 139.944 135.758 139.824 135.529 139.583C135.301 139.349 135.187 139.062 135.187 138.722C135.187 138.382 135.301 138.092 135.529 137.852C135.764 137.612 136.045 137.492 136.373 137.492C136.713 137.492 137 137.612 137.234 137.852C137.463 138.086 137.577 138.376 137.577 138.722C137.577 139.056 137.463 139.343 137.234 139.583C137 139.824 136.713 139.944 136.373 139.944ZM143.36 147.898H145.769V141.306H148.15V141.763C148.15 142.771 148.077 143.659 147.931 144.426H147.966C148.353 143.366 148.977 142.534 149.838 141.93C150.646 141.362 151.54 141.078 152.519 141.078C153.755 141.078 154.701 141.441 155.357 142.167C156.002 142.876 156.324 143.875 156.324 145.165C156.324 146.266 156.063 147.177 155.542 147.898H157.44V149.77H143.36V147.898ZM151.024 147.898C152.923 147.898 153.872 147.034 153.872 145.305C153.872 143.747 153.26 142.967 152.035 142.967C151.098 142.967 150.248 143.471 149.486 144.479C148.766 145.434 148.309 146.574 148.115 147.898H151.024ZM157.054 147.898H164.023C164.082 147.417 164.111 146.96 164.111 146.527C164.111 145.355 163.848 144.494 163.32 143.943C162.758 143.363 161.844 143.073 160.578 143.073C159.91 143.073 159.222 143.123 158.513 143.222V141.368C159.356 141.256 160.124 141.201 160.815 141.201C162.802 141.201 164.249 141.643 165.157 142.528C166.03 143.372 166.467 144.675 166.467 146.439C166.467 147.435 166.364 148.545 166.159 149.77H157.054V147.898ZM161.316 139.794C160.977 139.794 160.687 139.677 160.446 139.443C160.2 139.203 160.077 138.907 160.077 138.555C160.077 138.215 160.2 137.922 160.446 137.676C160.687 137.436 160.977 137.316 161.316 137.316C161.662 137.316 161.955 137.436 162.195 137.676C162.441 137.922 162.564 138.215 162.564 138.555C162.564 138.895 162.441 139.188 162.195 139.434C161.955 139.674 161.662 139.794 161.316 139.794ZM167.776 154.34C167.249 154.34 166.745 154.282 166.265 154.165L166.44 152.275C166.938 152.415 167.425 152.486 167.899 152.486C168.55 152.486 169.027 152.31 169.332 151.958C169.678 151.56 169.851 150.898 169.851 149.972V141.306H172.224V147.898H173.99V149.77H172.224V149.84C172.224 152.84 170.741 154.34 167.776 154.34ZM173.718 149.77V147.898H174.746C175.162 147.898 175.496 147.939 175.748 148.021C175.08 147.535 174.746 146.676 174.746 145.446C174.746 144.227 175.133 143.213 175.906 142.405C176.762 141.52 177.934 141.078 179.422 141.078C182.135 141.078 183.491 142.457 183.491 145.217V149.77H173.718ZM181.171 145.507C181.171 143.802 180.529 142.95 179.246 142.95C178.584 142.95 178.057 143.178 177.664 143.635C177.289 144.081 177.102 144.661 177.102 145.375C177.102 147.057 178.001 147.898 179.8 147.898H181.171V145.507Z" fill="#565656"/>
<g filter="url(#filter3_d_224_1482)">
<path d="M143.255 73.8116C156.049 61.1437 156.049 40.605 143.255 27.9371C130.462 15.2692 109.72 15.2692 96.9263 27.9371C84.1329 40.605 84.1328 61.1437 96.9263 73.8116C109.72 86.4795 130.462 86.4795 143.255 73.8116Z" fill="#2C3E50"/>
</g>
<path d="M110.552 38.0031H125.739C125.753 38.0131 125.764 38.0285 125.779 38.0325C126.789 38.3268 127.237 38.9074 127.237 39.9244C127.237 42.4719 127.237 45.0193 127.237 47.5668V47.835C126.757 47.772 126.317 47.6828 125.873 47.6647C125.426 47.6417 124.978 47.6641 124.536 47.7317C120.548 48.3901 118.031 52.8314 120.13 56.5628C120.181 56.6573 120.208 56.7624 120.209 56.8691C120.214 57.8579 120.209 58.8468 120.209 59.8356C120.209 59.9254 120.209 60.0153 120.209 60.1299H119.984C116.953 60.1299 113.923 60.1299 110.893 60.1299C110.789 60.1314 110.686 60.1245 110.584 60.1091C109.646 59.9549 109.051 59.247 109.051 58.2816C109.051 52.2817 109.051 46.2817 109.051 40.2817C109.051 40.0893 109.042 39.8956 109.051 39.7038C109.091 39.0207 109.419 38.5119 110.046 38.1975C110.211 38.1237 110.38 38.0588 110.552 38.0031ZM117.536 43.6343C118.69 43.6343 119.844 43.6343 120.997 43.6343C121.499 43.6343 121.866 43.283 121.864 42.8258C121.861 42.3686 121.492 42.0314 120.987 42.0274C120.6 42.024 120.213 42.0274 119.825 42.0274C117.914 42.0274 116.003 42.0274 114.092 42.0274C113.722 42.0274 113.436 42.1615 113.271 42.4866C112.995 43.029 113.403 43.633 114.051 43.6363C115.213 43.6383 116.374 43.6336 117.536 43.6336V43.6343ZM117.552 45.2432H114.117C113.565 45.2432 113.191 45.5644 113.187 46.0397C113.183 46.515 113.559 46.8508 114.103 46.8515C116.384 46.8515 118.665 46.8515 120.946 46.8515C121.492 46.8515 121.867 46.5163 121.864 46.041C121.86 45.5657 121.485 45.2439 120.935 45.2432H117.552ZM116.089 50.07C116.752 50.07 117.414 50.07 118.077 50.07C118.601 50.07 118.974 49.7281 118.974 49.2656C118.974 48.803 118.599 48.4665 118.073 48.4658C116.747 48.4658 115.422 48.4658 114.096 48.4658C113.565 48.4658 113.195 48.7936 113.19 49.2602C113.185 49.7268 113.561 50.0721 114.104 50.0741C114.763 50.0714 115.426 50.07 116.089 50.0694V50.07Z" fill="white"/>
<path d="M122.482 63.7458C121.999 63.5447 121.845 63.1847 121.854 62.6846C121.878 61.4035 121.862 60.1224 121.862 58.8406V58.5201C122.992 59.3072 124.214 59.7195 125.568 59.7215C126.922 59.7235 128.153 59.3192 129.301 58.5148V58.8131C129.301 60.1029 129.285 61.3927 129.309 62.6819C129.318 63.182 129.164 63.5427 128.681 63.7438H128.267C127.439 63.2859 126.611 62.8327 125.791 62.3668C125.73 62.3244 125.657 62.3017 125.581 62.3017C125.506 62.3017 125.433 62.3244 125.372 62.3668C124.552 62.8361 123.724 63.2886 122.896 63.7458H122.482Z" fill="white"/>
<path d="M121.038 53.6768C121.041 52.504 121.524 51.3806 122.38 50.5535C123.236 49.7263 124.395 49.2631 125.602 49.2656C128.105 49.2716 130.139 51.2701 130.129 53.7143C130.133 54.2985 130.018 54.8777 129.791 55.4184C129.563 55.9591 129.227 56.4506 128.802 56.8643C128.378 57.278 127.873 57.6058 127.317 57.8286C126.761 58.0514 126.165 58.1649 125.564 58.1624C124.962 58.1599 124.367 58.0415 123.813 57.8141C123.259 57.5867 122.757 57.2548 122.336 56.8376C121.916 56.4204 121.584 55.9262 121.361 55.3836C121.138 54.841 121.028 54.2609 121.038 53.6768ZM124.939 53.8276C124.748 53.7042 124.585 53.5956 124.419 53.4924C123.992 53.2289 123.499 53.3174 123.241 53.7016C122.982 54.0857 123.093 54.5583 123.517 54.8372C123.893 55.0866 124.271 55.3324 124.653 55.5746C125.127 55.8756 125.584 55.7885 125.9 55.3313C126.422 54.5751 126.939 53.8155 127.458 53.0573C127.492 53.009 127.523 52.9589 127.551 52.9071C127.642 52.7486 127.674 52.564 127.64 52.3854C127.606 52.2068 127.508 52.0454 127.365 51.929C127.231 51.8081 127.059 51.7362 126.877 51.7255C126.695 51.7149 126.514 51.7662 126.367 51.8707C126.24 51.9701 126.132 52.0896 126.046 52.224C125.675 52.7489 125.316 53.2785 124.939 53.8276Z" fill="white"/>
<defs>
<filter id="filter0_d_224_1482" x="39.3716" y="17.6317" width="215.001" height="266.785" filterUnits="userSpaceOnUse" color-interpolation-filters="sRGB">
<feFlood flood-opacity="0" result="BackgroundImageFix"/>
<feColorMatrix in="SourceAlpha" type="matrix" values="0 0 0 0 0 0 0 0 0 0 0 0 0 0 0 0 0 0 127 0" result="hardAlpha"/>
<feOffset dy="2.8317"/>
<feGaussianBlur stdDeviation="10.6189"/>
<feComposite in2="hardAlpha" operator="out"/>
<feColorMatrix type="matrix" values="0 0 0 0 0 0 0 0 0 0 0 0 0 0 0 0 0 0 0.15 0"/>
<feBlend mode="normal" in2="BackgroundImageFix" result="effect1_dropShadow_224_1482"/>
<feBlend mode="normal" in="SourceGraphic" in2="effect1_dropShadow_224_1482" result="shape"/>
</filter>
<filter id="filter1_d_224_1482" x="0.297417" y="32.429" width="239.138" height="237.204" filterUnits="userSpaceOnUse" color-interpolation-filters="sRGB">
<feFlood flood-opacity="0" result="BackgroundImageFix"/>
<feColorMatrix in="SourceAlpha" type="matrix" values="0 0 0 0 0 0 0 0 0 0 0 0 0 0 0 0 0 0 127 0" result="hardAlpha"/>
<feOffset dy="2.8317"/>
<feGaussianBlur stdDeviation="10.6189"/>
<feComposite in2="hardAlpha" operator="out"/>
<feColorMatrix type="matrix" values="0 0 0 0 0 0 0 0 0 0 0 0 0 0 0 0 0 0 0.15 0"/>
<feBlend mode="normal" in2="BackgroundImageFix" result="effect1_dropShadow_224_1482"/>
<feBlend mode="normal" in="SourceGraphic" in2="effect1_dropShadow_224_1482" result="shape"/>
</filter>
<filter id="filter2_d_224_1482" x="5.74273" y="40.2911" width="228.241" height="223.288" filterUnits="userSpaceOnUse" color-interpolation-filters="sRGB">
<feFlood flood-opacity="0" result="BackgroundImageFix"/>
<feColorMatrix in="SourceAlpha" type="matrix" values="0 0 0 0 0 0 0 0 0 0 0 0 0 0 0 0 0 0 127 0" result="hardAlpha"/>
<feOffset dy="2.8317"/>
<feGaussianBlur stdDeviation="10.6189"/>
<feComposite in2="hardAlpha" operator="out"/>
<feColorMatrix type="matrix" values="0 0 0 0 0 0 0 0 0 0 0 0 0 0 0 0 0 0 0.15 0"/>
<feBlend mode="normal" in2="BackgroundImageFix" result="effect1_dropShadow_224_1482"/>
<feBlend mode="normal" in="SourceGraphic" in2="effect1_dropShadow_224_1482" result="shape"/>
</filter>
<filter id="filter3_d_224_1482" x="66.0943" y="0.0301466" width="107.993" height="107.352" filterUnits="userSpaceOnUse" color-interpolation-filters="sRGB">
<feFlood flood-opacity="0" result="BackgroundImageFix"/>
<feColorMatrix in="SourceAlpha" type="matrix" values="0 0 0 0 0 0 0 0 0 0 0 0 0 0 0 0 0 0 127 0" result="hardAlpha"/>
<feOffset dy="2.8317"/>
<feGaussianBlur stdDeviation="10.6189"/>
<feComposite in2="hardAlpha" operator="out"/>
<feColorMatrix type="matrix" values="0 0 0 0 0 0 0 0 0 0 0 0 0 0 0 0 0 0 0.15 0"/>
<feBlend mode="normal" in2="BackgroundImageFix" result="effect1_dropShadow_224_1482"/>
<feBlend mode="normal" in="SourceGraphic" in2="effect1_dropShadow_224_1482" result="shape"/>
</filter>
</defs>
</svg>
