<svg width="255" height="285" viewBox="0 0 255 285" fill="none" xmlns="http://www.w3.org/2000/svg">
<path d="M62.2299 208.523C62.0041 208.523 61.7804 208.48 61.5719 208.394C61.3633 208.308 61.1739 208.183 61.0147 208.024L60.2127 207.232C59.9017 206.911 59.7303 206.482 59.7351 206.036C59.7399 205.591 59.9206 205.166 60.2384 204.851C60.5563 204.537 60.9859 204.358 61.4354 204.353C61.8848 204.348 62.3183 204.518 62.6428 204.826L63.4449 205.618C63.6852 205.856 63.8488 206.159 63.9151 206.489C63.9813 206.819 63.9473 207.161 63.8173 207.472C63.6872 207.783 63.467 208.049 63.1844 208.236C62.9019 208.423 62.5697 208.523 62.2299 208.523ZM53.4186 199.798C53.1929 199.798 52.9694 199.754 52.7608 199.669C52.5523 199.583 52.3629 199.458 52.2036 199.299L51.4039 198.507C51.0816 198.189 50.9004 197.756 50.9002 197.305C50.9 196.854 51.0807 196.421 51.4027 196.102C51.7246 195.783 52.1614 195.604 52.6169 195.604C53.0724 195.603 53.5094 195.782 53.8317 196.101L54.6337 196.895C54.8744 197.133 55.0383 197.436 55.1048 197.766C55.1712 198.096 55.1372 198.438 55.0071 198.749C54.877 199.06 54.6565 199.326 54.3737 199.512C54.0909 199.699 53.7585 199.799 53.4186 199.798ZM44.6147 191.073C44.1592 191.074 43.7222 190.895 43.3995 190.577L42.5999 189.783C42.4346 189.626 42.3027 189.438 42.2117 189.23C42.1208 189.022 42.0727 188.798 42.0702 188.572C42.0678 188.345 42.111 188.121 42.1974 187.911C42.2839 187.701 42.4117 187.51 42.5735 187.35C42.7353 187.19 42.9278 187.063 43.1397 186.978C43.3515 186.892 43.5785 186.849 43.8073 186.852C44.0361 186.854 44.2621 186.902 44.4721 186.992C44.6821 187.082 44.8717 187.213 45.03 187.376L45.8298 188.171C46.0704 188.408 46.2343 188.711 46.3007 189.041C46.3672 189.371 46.3332 189.714 46.2031 190.025C46.0729 190.335 45.8525 190.601 45.5697 190.788C45.2869 190.974 44.9545 191.074 44.6147 191.073ZM35.8035 182.351C35.3478 182.351 34.9108 182.171 34.5884 181.852L33.7887 181.058C33.4777 180.737 33.3063 180.307 33.3111 179.862C33.3159 179.417 33.4966 178.992 33.8144 178.677C34.1322 178.362 34.562 178.184 35.0114 178.179C35.4608 178.174 35.8943 178.344 36.2189 178.652L37.0186 179.446C37.2588 179.684 37.4224 179.987 37.4887 180.317C37.555 180.647 37.521 180.989 37.3909 181.3C37.2609 181.611 37.0406 181.877 36.7581 182.064C36.4755 182.251 36.1434 182.351 35.8035 182.351ZM26.9923 173.626C26.7669 173.626 26.5439 173.582 26.3358 173.497C26.1276 173.411 25.9387 173.286 25.7796 173.127L24.9775 172.333C24.8181 172.175 24.6916 171.988 24.6054 171.781C24.5192 171.575 24.475 171.354 24.4751 171.13C24.4752 170.907 24.5197 170.686 24.6061 170.48C24.6926 170.273 24.8192 170.086 24.9787 169.928C25.1383 169.77 25.3276 169.645 25.5361 169.56C25.7445 169.474 25.9679 169.43 26.1934 169.431C26.419 169.431 26.6423 169.475 26.8507 169.56C27.059 169.646 27.2483 169.771 27.4077 169.929L28.2074 170.721C28.4477 170.959 28.6113 171.262 28.6776 171.592C28.7438 171.922 28.7098 172.265 28.5798 172.576C28.4497 172.886 28.2295 173.152 27.9469 173.339C27.6644 173.526 27.3322 173.626 26.9923 173.626ZM18.1835 164.902C17.9577 164.902 17.734 164.858 17.5254 164.773C17.3168 164.687 17.1275 164.561 16.9684 164.403L16.1664 163.611C15.864 163.288 15.6997 162.862 15.7079 162.422C15.7161 161.982 15.8962 161.562 16.2104 161.251C16.5246 160.939 16.9484 160.76 17.3929 160.752C17.8374 160.743 18.2679 160.905 18.5941 161.205L19.3962 161.996C19.6365 162.234 19.8001 162.538 19.8663 162.868C19.9326 163.198 19.8986 163.54 19.7685 163.851C19.6385 164.162 19.4183 164.427 19.1357 164.615C18.8532 164.802 18.521 164.901 18.1811 164.902H18.1835ZM10.1339 155.588C9.8014 155.588 9.47618 155.492 9.19747 155.312C8.91877 155.133 8.69846 154.877 8.56308 154.577C8.39359 154.196 8.23365 153.801 8.08564 153.409C7.94552 152.986 7.9783 152.526 8.17691 152.126C8.37551 151.727 8.72413 151.421 9.14811 151.273C9.57208 151.125 10.0377 151.148 10.445 151.336C10.8524 151.524 11.1692 151.862 11.3275 152.279C11.4373 152.586 11.5662 152.896 11.6951 153.196C11.8112 153.455 11.8601 153.739 11.8374 154.021C11.8147 154.304 11.721 154.576 11.565 154.814C11.4089 155.052 11.1955 155.247 10.9439 155.382C10.6923 155.517 10.4106 155.588 10.1243 155.588H10.1339ZM10.2842 143.627C10.0297 143.628 9.77843 143.571 9.54903 143.462C9.3451 143.366 9.16223 143.232 9.01091 143.066C8.8596 142.9 8.74278 142.706 8.66717 142.496C8.59156 142.285 8.55862 142.062 8.57025 141.839C8.58188 141.616 8.63785 141.397 8.73495 141.195C8.91638 140.819 9.11212 140.446 9.32219 140.084C9.43265 139.887 9.58174 139.713 9.76076 139.573C9.93978 139.433 10.1452 139.329 10.3649 139.269C10.5847 139.208 10.8144 139.191 11.0407 139.22C11.2671 139.248 11.4854 139.32 11.6832 139.433C11.8809 139.546 12.054 139.696 12.1924 139.876C12.3308 140.055 12.4317 140.26 12.4893 140.479C12.5468 140.698 12.5599 140.925 12.5276 141.149C12.4954 141.372 12.4184 141.587 12.3014 141.781C12.1367 142.065 11.9816 142.36 11.8383 142.656C11.6982 142.948 11.4769 143.195 11.2004 143.367C10.9239 143.539 10.6036 143.629 10.2771 143.627H10.2842ZM18.439 134.387C18.0991 134.387 17.7669 134.287 17.4843 134.1C17.2018 133.913 16.9816 133.648 16.8515 133.337C16.7215 133.026 16.6874 132.684 16.7537 132.354C16.82 132.024 16.9836 131.72 17.2239 131.482L18.026 130.688C18.1819 130.515 18.3718 130.376 18.5842 130.278C18.7965 130.18 19.0268 130.126 19.2609 130.12C19.4949 130.114 19.7278 130.155 19.9453 130.24C20.1628 130.326 20.3603 130.455 20.5256 130.62C20.691 130.784 20.8207 130.98 20.9068 131.195C20.9929 131.411 21.0336 131.642 21.0264 131.873C21.0193 132.105 20.9644 132.333 20.8651 132.543C20.7658 132.753 20.6242 132.941 20.449 133.094L19.6469 133.889C19.4875 134.047 19.2981 134.172 19.0896 134.258C18.8811 134.344 18.6575 134.388 18.4318 134.387H18.439ZM27.2501 125.663C26.9103 125.663 26.5781 125.563 26.2955 125.376C26.013 125.189 25.7928 124.923 25.6627 124.612C25.5327 124.301 25.4986 123.959 25.5649 123.629C25.6311 123.299 25.7948 122.996 26.035 122.758L26.8371 121.966C26.9966 121.808 27.1858 121.682 27.3941 121.597C27.6025 121.511 27.8258 121.467 28.0514 121.467C28.2769 121.467 28.5003 121.511 28.7087 121.596C28.9172 121.682 29.1066 121.807 29.2661 121.965C29.4257 122.122 29.5523 122.31 29.6387 122.516C29.7252 122.722 29.7696 122.944 29.7697 123.167C29.7699 123.39 29.7256 123.611 29.6394 123.818C29.5532 124.024 29.4267 124.212 29.2673 124.37L28.4652 125.164C28.3048 125.323 28.1142 125.449 27.9045 125.534C27.6947 125.62 27.4699 125.664 27.243 125.663H27.2501ZM36.0613 116.938C35.7214 116.938 35.3892 116.838 35.1067 116.651C34.8241 116.464 34.6039 116.198 34.4739 115.887C34.3438 115.576 34.3098 115.234 34.3761 114.904C34.4424 114.574 34.606 114.271 34.8462 114.033L35.6483 113.241C35.9729 112.933 36.4063 112.763 36.8558 112.768C37.3052 112.773 37.7349 112.952 38.0527 113.267C38.3705 113.581 38.5513 114.007 38.5561 114.452C38.5609 114.897 38.3895 115.326 38.0785 115.647L37.2764 116.439C37.1162 116.598 36.9257 116.725 36.7158 116.81C36.506 116.896 36.2811 116.939 36.0541 116.938H36.0613ZM44.8725 108.213C44.5326 108.213 44.2004 108.113 43.9178 107.926C43.6353 107.739 43.4151 107.474 43.285 107.163C43.155 106.852 43.121 106.51 43.1872 106.18C43.2535 105.849 43.4171 105.546 43.6574 105.308L44.4571 104.516C44.7817 104.208 45.2151 104.039 45.6645 104.043C46.114 104.048 46.5437 104.227 46.8615 104.542C47.1793 104.857 47.36 105.282 47.3648 105.727C47.3697 106.172 47.1982 106.601 46.8873 106.923L46.0875 107.715C45.9274 107.874 45.7369 108 45.5271 108.085C45.3172 108.171 45.0923 108.215 44.8653 108.213H44.8725ZM53.686 99.4886C53.3467 99.488 53.0151 99.388 52.733 99.2011C52.451 99.0142 52.2311 98.7488 52.1012 98.4384C51.9712 98.1279 51.937 97.7864 52.0028 97.4567C52.0686 97.127 52.2315 96.824 52.4709 96.5859L53.2707 95.7917C53.429 95.628 53.6186 95.4974 53.8286 95.4073C54.0386 95.3173 54.2645 95.2696 54.4933 95.2672C54.7222 95.2648 54.9492 95.3076 55.161 95.3932C55.3729 95.4788 55.5654 95.6054 55.7272 95.7656C55.889 95.9258 56.0168 96.1164 56.1033 96.3262C56.1897 96.536 56.2329 96.7607 56.2305 96.9873C56.228 97.2138 56.1799 97.4376 56.089 97.6455C55.998 97.8534 55.866 98.0412 55.7008 98.198L54.9011 98.9898C54.7418 99.1482 54.5525 99.2738 54.3439 99.3594C54.1354 99.445 53.9118 99.4889 53.686 99.4886ZM62.4972 90.7639C62.1573 90.7644 61.8249 90.6651 61.5421 90.4784C61.2594 90.2916 61.0389 90.026 60.9088 89.7151C60.7786 89.4042 60.7446 89.062 60.8111 88.732C60.8776 88.4019 61.0415 88.0989 61.2821 87.8612L61.5495 87.5941C61.874 87.2862 62.3075 87.1164 62.7569 87.1212C63.2064 87.126 63.636 87.3049 63.9539 87.6196C64.2717 87.9343 64.4524 88.3597 64.4573 88.8048C64.4621 89.2498 64.2906 89.679 63.9797 90.0004L63.7099 90.2675C63.5496 90.4264 63.359 90.5521 63.1492 90.6373C62.9393 90.7226 62.7145 90.7656 62.4877 90.7639H62.4972Z" fill="#666666"/>
<g filter="url(#filter0_d_17098_1775)">
<path d="M119.865 260.221C117.665 260.224 115.486 259.798 113.454 258.965C111.421 258.133 109.574 256.911 108.019 255.371L60.6094 208.426L63.8488 205.218L111.261 252.163C113.544 254.421 116.638 255.689 119.865 255.689C123.091 255.689 126.185 254.421 128.468 252.163L224.988 156.591C227.268 154.33 228.549 151.266 228.549 148.07C228.549 144.875 227.268 141.811 224.988 139.55L128.468 43.9802C126.185 41.7226 123.091 40.4546 119.865 40.4546C116.638 40.4546 113.544 41.7226 111.261 43.9802L64.3764 90.4048L61.1345 87.1972L108.019 40.7725C109.574 39.2317 111.421 38.0093 113.453 37.1753C115.485 36.3414 117.663 35.9121 119.863 35.9121C122.063 35.9121 124.242 36.3414 126.274 37.1753C128.306 38.0093 130.153 39.2317 131.708 40.7725L228.229 136.345C231.37 139.455 233.135 143.674 233.135 148.073C233.135 152.472 231.37 156.69 228.229 159.801L131.708 255.373C130.153 256.914 128.307 258.135 126.275 258.967C124.242 259.799 122.064 260.225 119.865 260.221Z" fill="#666666"/>
</g>
<g filter="url(#filter1_d_17098_1775)">
<path d="M109.208 241.064L25.9448 158.623C24.5456 157.238 23.4356 155.593 22.6783 153.783C21.9211 151.973 21.5312 150.034 21.5313 148.074C21.5312 146.115 21.9211 144.175 22.6783 142.366C23.4356 140.556 24.5456 138.911 25.9448 137.526L109.208 55.0774C112.034 52.2803 115.866 50.709 119.862 50.709C123.858 50.709 127.69 52.2803 130.516 55.0774L213.78 137.526C215.179 138.911 216.289 140.556 217.046 142.366C217.803 144.175 218.193 146.115 218.193 148.074C218.193 150.034 217.803 151.973 217.046 153.783C216.289 155.593 215.179 157.238 213.78 158.623L130.516 241.069C129.117 242.454 127.456 243.553 125.628 244.303C123.799 245.052 121.84 245.438 119.861 245.437C117.882 245.437 115.923 245.05 114.095 244.3C112.268 243.55 110.607 242.45 109.208 241.064Z" fill="white"/>
</g>
<g filter="url(#filter2_d_17098_1775)">
<path d="M105.84 233.633L32.7914 161.301C30.9487 159.479 29.4868 157.315 28.4893 154.933C27.4919 152.551 26.9785 149.998 26.9785 147.419C26.9785 144.84 27.4919 142.287 28.4893 139.905C29.4868 137.523 30.9487 135.359 32.7914 133.536L105.84 64.3225C107.681 62.4991 109.867 61.0528 112.273 60.066C114.679 59.0792 117.257 58.5713 119.861 58.5713C122.465 58.5713 125.044 59.0792 127.449 60.066C129.855 61.0528 132.041 62.4991 133.882 64.3225L206.931 133.536C208.774 135.359 210.236 137.523 211.233 139.905C212.23 142.287 212.744 144.84 212.744 147.419C212.744 149.998 212.23 152.551 211.233 154.933C210.236 157.315 208.774 159.479 206.931 161.301L133.882 233.633C132.041 235.456 129.855 236.903 127.449 237.889C125.044 238.876 122.465 239.384 119.861 239.384C117.257 239.384 114.679 238.876 112.273 237.889C109.867 236.903 107.681 235.456 105.84 233.633Z" fill="white"/>
</g>
<g filter="url(#filter3_d_17098_1775)">
<path d="M143.628 73.8112C156.422 61.1433 156.422 40.6046 143.628 27.9367C130.835 15.2689 110.093 15.2688 97.2994 27.9367C84.5059 40.6046 84.5059 61.1434 97.2993 73.8113C110.093 86.4792 130.835 86.4791 143.628 73.8112Z" fill="#666666"/>
</g>
<path d="M113.94 48.2069H117.13V50.3146C115.752 50.5667 114.999 51.3506 115.011 52.5141C115.024 53.6437 115.79 54.4178 117.135 54.6521V58.8746H113.405C113.405 58.3945 113.384 57.9081 113.413 57.4244C113.43 57.1313 113.314 56.9638 113.101 56.7847C112.037 55.8939 110.917 55.0467 109.948 54.0561C108.432 52.5043 107.689 50.5658 107.535 48.4046C107.535 48.3521 107.535 48.2986 107.535 48.2185H111.8C111.8 47.8737 111.8 47.5557 111.8 47.2385C111.806 46.5562 112.246 46.076 112.866 46.0742C113.486 46.0724 113.936 46.5553 113.936 47.2323C113.942 47.537 113.94 47.8479 113.94 48.2069Z" fill="white"/>
<path d="M118.588 53.5501C118.177 53.5501 117.828 53.5555 117.479 53.5501C116.825 53.5377 116.332 53.073 116.334 52.482C116.336 51.891 116.826 51.4299 117.485 51.4184C117.833 51.413 118.182 51.4184 118.569 51.4184V48.2203H121.941C121.941 47.8803 121.941 47.5634 121.941 47.2456C121.946 46.5603 122.4 46.0805 123.05 46.0743C123.699 46.068 124.18 46.5549 124.184 47.2554C124.184 47.5554 124.184 47.8553 124.184 48.1954H127.534C127.507 49.0382 127.355 49.8732 127.081 50.6751C126.519 52.3602 125.456 53.8541 124.021 54.976C123.24 55.5955 122.453 56.2076 121.661 56.8123C121.461 56.9645 121.363 57.1132 121.375 57.3668C121.398 57.8635 121.381 58.3611 121.381 58.8746H118.588V53.5501Z" fill="white"/>
<path d="M124.165 42.8686V40.0127C123.791 40.0127 123.445 40.0175 123.099 40.0127C122.424 40.0013 121.924 39.5015 121.934 38.8532C121.943 38.2049 122.434 37.7404 123.098 37.7299C123.445 37.7299 123.792 37.7299 124.173 37.7299C124.173 37.0102 124.173 36.3229 124.173 35.6356C124.173 35.0558 124.355 34.874 124.931 34.874H132.387C132.955 34.874 133.134 35.0644 133.134 35.647C133.134 37.801 133.134 39.9549 133.134 42.1089C133.134 42.6867 132.947 42.8705 132.374 42.8705C131.919 42.8705 131.464 42.8705 131.009 42.8705C130.976 42.8664 130.943 42.8594 130.91 42.8495C130.85 42.0956 130.56 41.4454 129.924 40.9961C129.499 40.6921 128.983 40.5508 128.466 40.5972C127.346 40.6857 126.547 41.5492 126.395 42.8743H124.164L124.165 42.8686Z" fill="white"/>
<path d="M117.135 45.239V46.8543H115.018C114.798 45.4436 113.963 44.6387 112.767 44.6718C111.645 44.703 110.814 45.5575 110.669 46.8745H107.535C107.613 42.614 111.541 37.857 117.126 38.0819V40.8014C116.446 40.8555 115.858 41.1198 115.434 41.6953C115.123 42.1085 114.969 42.6225 115 43.1427C115.052 44.2606 115.863 45.0646 117.135 45.239Z" fill="white"/>
<path d="M117.568 60.4753C119.054 60.4753 120.541 60.472 122.026 60.4799C122.208 60.4799 122.449 60.5057 122.555 60.5862C122.679 60.6793 122.769 60.8621 122.721 60.9757C122.673 61.0892 122.447 61.1796 122.275 61.2555C122.197 61.2899 122.063 61.2674 121.955 61.2674H113.147C113.075 61.2674 113.002 61.2674 112.93 61.2674C112.567 61.2516 112.324 61.0846 112.334 60.8601C112.344 60.6463 112.581 60.4852 112.93 60.4793C113.437 60.4713 113.945 60.4793 114.452 60.4793L117.568 60.4753Z" fill="white"/>
<path d="M120.337 65.2754C120.11 66.1905 118.885 66.8801 117.517 66.8754C116.168 66.8707 114.948 66.1736 114.736 65.2754H120.337Z" fill="white"/>
<path d="M117.536 63.6744C116.55 63.6744 115.563 63.6744 114.578 63.6744C114.171 63.6744 113.936 63.5265 113.934 63.2747C113.931 63.0229 114.168 62.875 114.572 62.875C116.544 62.875 118.517 62.875 120.49 62.875C120.896 62.875 121.132 63.0236 121.134 63.2747C121.136 63.5259 120.899 63.6744 120.495 63.6744C119.509 63.6758 118.522 63.6744 117.536 63.6744Z" fill="white"/>
<defs>
<filter id="filter0_d_17098_1775" x="39.3716" y="17.5061" width="215.001" height="266.785" filterUnits="userSpaceOnUse" color-interpolation-filters="sRGB">
<feFlood flood-opacity="0" result="BackgroundImageFix"/>
<feColorMatrix in="SourceAlpha" type="matrix" values="0 0 0 0 0 0 0 0 0 0 0 0 0 0 0 0 0 0 127 0" result="hardAlpha"/>
<feOffset dy="2.8317"/>
<feGaussianBlur stdDeviation="10.6189"/>
<feComposite in2="hardAlpha" operator="out"/>
<feColorMatrix type="matrix" values="0 0 0 0 0 0 0 0 0 0 0 0 0 0 0 0 0 0 0.15 0"/>
<feBlend mode="normal" in2="BackgroundImageFix" result="effect1_dropShadow_17098_1775"/>
<feBlend mode="normal" in="SourceGraphic" in2="effect1_dropShadow_17098_1775" result="shape"/>
</filter>
<filter id="filter1_d_17098_1775" x="0.29351" y="32.3029" width="239.138" height="237.204" filterUnits="userSpaceOnUse" color-interpolation-filters="sRGB">
<feFlood flood-opacity="0" result="BackgroundImageFix"/>
<feColorMatrix in="SourceAlpha" type="matrix" values="0 0 0 0 0 0 0 0 0 0 0 0 0 0 0 0 0 0 127 0" result="hardAlpha"/>
<feOffset dy="2.8317"/>
<feGaussianBlur stdDeviation="10.6189"/>
<feComposite in2="hardAlpha" operator="out"/>
<feColorMatrix type="matrix" values="0 0 0 0 0 0 0 0 0 0 0 0 0 0 0 0 0 0 0.15 0"/>
<feBlend mode="normal" in2="BackgroundImageFix" result="effect1_dropShadow_17098_1775"/>
<feBlend mode="normal" in="SourceGraphic" in2="effect1_dropShadow_17098_1775" result="shape"/>
</filter>
<filter id="filter2_d_17098_1775" x="5.74078" y="40.1652" width="228.241" height="223.288" filterUnits="userSpaceOnUse" color-interpolation-filters="sRGB">
<feFlood flood-opacity="0" result="BackgroundImageFix"/>
<feColorMatrix in="SourceAlpha" type="matrix" values="0 0 0 0 0 0 0 0 0 0 0 0 0 0 0 0 0 0 127 0" result="hardAlpha"/>
<feOffset dy="2.8317"/>
<feGaussianBlur stdDeviation="10.6189"/>
<feComposite in2="hardAlpha" operator="out"/>
<feColorMatrix type="matrix" values="0 0 0 0 0 0 0 0 0 0 0 0 0 0 0 0 0 0 0.15 0"/>
<feBlend mode="normal" in2="BackgroundImageFix" result="effect1_dropShadow_17098_1775"/>
<feBlend mode="normal" in="SourceGraphic" in2="effect1_dropShadow_17098_1775" result="shape"/>
</filter>
<filter id="filter3_d_17098_1775" x="66.4664" y="0.0295057" width="107.995" height="107.352" filterUnits="userSpaceOnUse" color-interpolation-filters="sRGB">
<feFlood flood-opacity="0" result="BackgroundImageFix"/>
<feColorMatrix in="SourceAlpha" type="matrix" values="0 0 0 0 0 0 0 0 0 0 0 0 0 0 0 0 0 0 127 0" result="hardAlpha"/>
<feOffset dy="2.8317"/>
<feGaussianBlur stdDeviation="10.6189"/>
<feComposite in2="hardAlpha" operator="out"/>
<feColorMatrix type="matrix" values="0 0 0 0 0 0 0 0 0 0 0 0 0 0 0 0 0 0 0.15 0"/>
<feBlend mode="normal" in2="BackgroundImageFix" result="effect1_dropShadow_17098_1775"/>
<feBlend mode="normal" in="SourceGraphic" in2="effect1_dropShadow_17098_1775" result="shape"/>
</filter>
</defs>
</svg>
