<svg width="255" height="285" viewBox="0 0 255 285" fill="none" xmlns="http://www.w3.org/2000/svg">
<path d="M62.2299 208.47C62.0041 208.471 61.7804 208.427 61.5719 208.341C61.3633 208.256 61.1739 208.13 61.0147 207.971L60.2127 207.179C59.9017 206.858 59.7303 206.429 59.7351 205.984C59.7399 205.539 59.9206 205.113 60.2384 204.799C60.5563 204.484 60.9859 204.305 61.4354 204.3C61.8848 204.295 62.3183 204.465 62.6428 204.773L63.4449 205.565C63.6852 205.803 63.8488 206.106 63.9151 206.436C63.9813 206.766 63.9473 207.108 63.8173 207.419C63.6872 207.73 63.467 207.996 63.1844 208.183C62.9019 208.37 62.5697 208.47 62.2299 208.47ZM53.4186 199.745C53.1929 199.746 52.9694 199.702 52.7608 199.616C52.5523 199.53 52.3629 199.405 52.2036 199.247L51.4039 198.455C51.0816 198.136 50.9004 197.703 50.9002 197.252C50.9 196.801 51.0807 196.369 51.4027 196.05C51.7246 195.73 52.1614 195.551 52.6169 195.551C53.0724 195.551 53.5094 195.73 53.8317 196.048L54.6337 196.843C54.8744 197.08 55.0383 197.383 55.1048 197.713C55.1712 198.043 55.1372 198.386 55.0071 198.696C54.877 199.007 54.6565 199.273 54.3737 199.46C54.0909 199.646 53.7585 199.746 53.4186 199.745ZM44.6147 191.021C44.1592 191.021 43.7222 190.843 43.3995 190.524L42.5999 189.73C42.4346 189.573 42.3027 189.385 42.2117 189.177C42.1208 188.97 42.0727 188.746 42.0702 188.519C42.0678 188.293 42.111 188.068 42.1974 187.858C42.2839 187.648 42.4117 187.458 42.5735 187.298C42.7353 187.137 42.9278 187.011 43.1397 186.925C43.3515 186.84 43.5785 186.797 43.8073 186.799C44.0361 186.802 44.2621 186.849 44.4721 186.939C44.6821 187.029 44.8717 187.16 45.03 187.324L45.8298 188.118C46.0704 188.356 46.2343 188.659 46.3007 188.989C46.3672 189.319 46.3332 189.661 46.2031 189.972C46.0729 190.283 45.8525 190.548 45.5697 190.735C45.2869 190.922 44.9545 191.021 44.6147 191.021ZM35.8035 182.298C35.3478 182.298 34.9108 182.118 34.5884 181.799L33.7887 181.005C33.4777 180.684 33.3063 180.255 33.3111 179.81C33.3159 179.365 33.4966 178.939 33.8144 178.624C34.1322 178.31 34.562 178.131 35.0114 178.126C35.4608 178.121 35.8943 178.291 36.2189 178.599L37.0186 179.393C37.2588 179.631 37.4224 179.934 37.4887 180.264C37.555 180.594 37.521 180.937 37.3909 181.248C37.2609 181.558 37.0406 181.824 36.7581 182.011C36.4755 182.198 36.1434 182.298 35.8035 182.298ZM26.9923 173.573C26.7669 173.573 26.5439 173.529 26.3358 173.444C26.1276 173.358 25.9387 173.233 25.7796 173.075L24.9775 172.281C24.8181 172.123 24.6916 171.935 24.6054 171.729C24.5192 171.522 24.475 171.301 24.4751 171.078C24.4752 170.854 24.5197 170.633 24.6061 170.427C24.6926 170.221 24.8192 170.033 24.9787 169.875C25.1383 169.718 25.3276 169.592 25.5361 169.507C25.7445 169.422 25.9679 169.378 26.1934 169.378C26.419 169.378 26.6423 169.422 26.8507 169.508C27.059 169.593 27.2483 169.719 27.4077 169.877L28.2074 170.668C28.4477 170.906 28.6113 171.21 28.6776 171.54C28.7438 171.87 28.7098 172.212 28.5798 172.523C28.4497 172.834 28.2295 173.099 27.9469 173.286C27.6644 173.474 27.3322 173.573 26.9923 173.573ZM18.1835 164.849C17.9577 164.849 17.734 164.806 17.5254 164.72C17.3168 164.635 17.1275 164.509 16.9684 164.35L16.1664 163.558C15.864 163.235 15.6997 162.809 15.7079 162.369C15.7161 161.929 15.8962 161.509 16.2104 161.198C16.5246 160.886 16.9484 160.708 17.3929 160.699C17.8374 160.69 18.2679 160.853 18.5941 161.152L19.3962 161.944C19.6365 162.182 19.8001 162.485 19.8663 162.815C19.9326 163.145 19.8986 163.487 19.7685 163.798C19.6385 164.109 19.4183 164.375 19.1357 164.562C18.8532 164.749 18.521 164.849 18.1811 164.849H18.1835ZM10.1339 155.535C9.8014 155.535 9.47618 155.439 9.19747 155.259C8.91877 155.08 8.69846 154.824 8.56308 154.524C8.39359 154.143 8.23365 153.748 8.08564 153.356C7.94552 152.933 7.9783 152.473 8.17691 152.074C8.37551 151.674 8.72413 151.368 9.14811 151.22C9.57208 151.072 10.0377 151.095 10.445 151.283C10.8524 151.471 11.1692 151.81 11.3275 152.226C11.4373 152.533 11.5662 152.843 11.6951 153.143C11.8112 153.402 11.8601 153.686 11.8374 153.969C11.8147 154.251 11.721 154.524 11.565 154.761C11.4089 154.999 11.1955 155.194 10.9439 155.329C10.6923 155.465 10.4106 155.535 10.1243 155.535H10.1339ZM10.2842 143.575C10.0297 143.575 9.77843 143.518 9.54903 143.409C9.3451 143.314 9.16223 143.179 9.01091 143.013C8.8596 142.847 8.74278 142.654 8.66717 142.443C8.59156 142.232 8.55862 142.009 8.57025 141.786C8.58188 141.563 8.63785 141.344 8.73495 141.142C8.91638 140.767 9.11212 140.393 9.32219 140.031C9.43265 139.834 9.58174 139.66 9.76076 139.52C9.93978 139.38 10.1452 139.277 10.3649 139.216C10.5847 139.155 10.8144 139.139 11.0407 139.167C11.2671 139.195 11.4854 139.268 11.6832 139.38C11.8809 139.493 12.054 139.643 12.1924 139.823C12.3308 140.003 12.4317 140.208 12.4893 140.426C12.5468 140.645 12.5599 140.873 12.5276 141.096C12.4954 141.32 12.4184 141.535 12.3014 141.729C12.1367 142.012 11.9816 142.308 11.8383 142.603C11.6982 142.895 11.4769 143.142 11.2004 143.314C10.9239 143.486 10.6036 143.576 10.2771 143.575H10.2842ZM18.439 134.335C18.0991 134.335 17.7669 134.235 17.4843 134.048C17.2018 133.861 16.9816 133.595 16.8515 133.284C16.7215 132.973 16.6874 132.631 16.7537 132.301C16.82 131.971 16.9836 131.668 17.2239 131.43L18.026 130.635C18.1819 130.462 18.3718 130.323 18.5842 130.225C18.7965 130.127 19.0268 130.074 19.2609 130.067C19.4949 130.061 19.7278 130.102 19.9453 130.188C20.1628 130.274 20.3603 130.403 20.5256 130.567C20.691 130.731 20.8207 130.927 20.9068 131.143C20.9929 131.358 21.0336 131.589 21.0264 131.821C21.0193 132.052 20.9644 132.28 20.8651 132.49C20.7658 132.7 20.6242 132.888 20.449 133.042L19.6469 133.836C19.4875 133.994 19.2981 134.12 19.0896 134.205C18.8811 134.291 18.6575 134.335 18.4318 134.335H18.439ZM27.2501 125.61C26.9103 125.61 26.5781 125.51 26.2955 125.323C26.013 125.136 25.7928 124.87 25.6627 124.559C25.5327 124.248 25.4986 123.906 25.5649 123.576C25.6311 123.246 25.7948 122.943 26.035 122.705L26.8371 121.913C26.9966 121.755 27.1858 121.63 27.3941 121.544C27.6025 121.459 27.8258 121.414 28.0514 121.414C28.2769 121.414 28.5003 121.458 28.7087 121.543C28.9172 121.629 29.1066 121.754 29.2661 121.912C29.4257 122.07 29.5523 122.257 29.6387 122.463C29.7252 122.67 29.7696 122.891 29.7697 123.114C29.7699 123.338 29.7256 123.559 29.6394 123.765C29.5532 123.971 29.4267 124.159 29.2673 124.317L28.4652 125.111C28.3048 125.27 28.1142 125.396 27.9045 125.482C27.6947 125.567 27.4699 125.611 27.243 125.61H27.2501ZM36.0613 116.885C35.7214 116.885 35.3892 116.785 35.1067 116.598C34.8241 116.411 34.6039 116.146 34.4739 115.835C34.3438 115.524 34.3098 115.182 34.3761 114.852C34.4424 114.521 34.606 114.218 34.8462 113.98L35.6483 113.188C35.9729 112.88 36.4063 112.711 36.8558 112.715C37.3052 112.72 37.7349 112.899 38.0527 113.214C38.3705 113.529 38.5513 113.954 38.5561 114.399C38.5609 114.844 38.3895 115.273 38.0785 115.595L37.2764 116.387C37.1162 116.546 36.9257 116.672 36.7158 116.757C36.506 116.843 36.2811 116.887 36.0541 116.885H36.0613ZM44.8725 108.161C44.5326 108.16 44.2004 108.061 43.9178 107.874C43.6353 107.687 43.4151 107.421 43.285 107.11C43.155 106.799 43.121 106.457 43.1872 106.127C43.2535 105.797 43.4171 105.494 43.6574 105.256L44.4571 104.464C44.7817 104.156 45.2151 103.986 45.6645 103.991C46.114 103.996 46.5437 104.174 46.8615 104.489C47.1793 104.804 47.36 105.229 47.3648 105.674C47.3697 106.119 47.1982 106.549 46.8873 106.87L46.0875 107.662C45.9274 107.821 45.7369 107.947 45.5271 108.033C45.3172 108.118 45.0923 108.162 44.8653 108.161H44.8725ZM53.686 99.4359C53.3467 99.4353 53.0151 99.3353 52.733 99.1484C52.451 98.9615 52.2311 98.6961 52.1012 98.3856C51.9712 98.0752 51.937 97.7336 52.0028 97.404C52.0686 97.0743 52.2315 96.7713 52.4709 96.5331L53.2707 95.7389C53.429 95.5753 53.6186 95.4447 53.8286 95.3546C54.0386 95.2645 54.2645 95.2169 54.4933 95.2145C54.7222 95.212 54.9492 95.2549 55.161 95.3405C55.3729 95.426 55.5654 95.5527 55.7272 95.7129C55.889 95.8731 56.0168 96.0637 56.1033 96.2734C56.1897 96.4832 56.2329 96.708 56.2305 96.9345C56.228 97.1611 56.1799 97.3849 56.089 97.5928C55.998 97.8007 55.866 97.9885 55.7008 98.1452L54.9011 98.9371C54.7418 99.0955 54.5525 99.2211 54.3439 99.3067C54.1354 99.3923 53.9118 99.4362 53.686 99.4359ZM62.4972 90.7112C62.1573 90.7117 61.8249 90.6123 61.5421 90.4256C61.2594 90.2389 61.0389 89.9733 60.9088 89.6624C60.7786 89.3515 60.7446 89.0093 60.8111 88.6793C60.8776 88.3492 61.0415 88.0461 61.2821 87.8084L61.5495 87.5413C61.874 87.2334 62.3075 87.0637 62.7569 87.0685C63.2064 87.0732 63.636 87.2521 63.9539 87.5668C64.2717 87.8815 64.4524 88.307 64.4573 88.752C64.4621 89.1971 64.2906 89.6263 63.9797 89.9477L63.7099 90.2148C63.5496 90.3737 63.359 90.4994 63.1492 90.5846C62.9393 90.6698 62.7145 90.7128 62.4877 90.7112H62.4972Z" fill="#6CA6D1"/>
<g filter="url(#filter0_d_17098_1791)">
<path d="M119.867 260.168C117.667 260.171 115.488 259.744 113.456 258.912C111.423 258.079 109.576 256.858 108.021 255.317L60.6113 208.372L63.8508 205.165L111.263 252.109C113.546 254.367 116.64 255.635 119.867 255.635C123.093 255.635 126.187 254.367 128.47 252.109L224.99 156.537C227.27 154.277 228.551 151.212 228.551 148.017C228.551 144.821 227.27 141.757 224.99 139.496L128.47 43.9265C126.187 41.6689 123.093 40.4009 119.867 40.4009C116.64 40.4009 113.546 41.6689 111.263 43.9265L64.3783 90.3511L61.1365 87.1435L108.021 40.7188C109.576 39.178 111.423 37.9556 113.455 37.1216C115.487 36.2877 117.665 35.8584 119.865 35.8584C122.065 35.8584 124.244 36.2877 126.276 37.1216C128.308 37.9556 130.155 39.178 131.709 40.7188L228.231 136.291C231.372 139.402 233.137 143.62 233.137 148.019C233.137 152.418 231.372 156.636 228.231 159.747L131.709 255.319C130.155 256.86 128.309 258.082 126.276 258.914C124.244 259.746 122.066 260.172 119.867 260.168Z" fill="#6CA6D1"/>
</g>
<g filter="url(#filter1_d_17098_1791)">
<path d="M109.21 241.012L25.9467 158.57C24.5475 157.185 23.4376 155.541 22.6803 153.731C21.923 151.921 21.5332 149.981 21.5332 148.022C21.5332 146.063 21.923 144.123 22.6803 142.313C23.4376 140.503 24.5475 138.858 25.9467 137.473L109.21 55.0247C112.036 52.2276 115.868 50.6562 119.864 50.6562C123.86 50.6563 127.692 52.2276 130.518 55.0247L213.782 137.473C215.181 138.858 216.291 140.503 217.048 142.313C217.805 144.123 218.195 146.063 218.195 148.022C218.195 149.981 217.805 151.921 217.048 153.731C216.291 155.541 215.181 157.185 213.782 158.57L130.518 241.016C129.119 242.402 127.458 243.5 125.63 244.25C123.801 244.999 121.842 245.385 119.863 245.384C117.884 245.384 115.925 244.998 114.097 244.247C112.269 243.497 110.609 242.398 109.21 241.012Z" fill="white"/>
</g>
<g filter="url(#filter2_d_17098_1791)">
<path d="M105.844 233.58L32.7953 161.249C30.9526 159.426 29.4907 157.262 28.4933 154.88C27.4958 152.498 26.9824 149.945 26.9824 147.366C26.9824 144.787 27.4958 142.234 28.4933 139.852C29.4907 137.47 30.9526 135.306 32.7953 133.484L105.844 64.2697C107.685 62.4464 109.871 61 112.277 60.0132C114.683 59.0265 117.261 58.5186 119.865 58.5186C122.469 58.5186 125.048 59.0265 127.453 60.0132C129.859 61 132.045 62.4464 133.886 64.2697L206.935 133.484C208.778 135.306 210.239 137.47 211.237 139.852C212.234 142.234 212.748 144.787 212.748 147.366C212.748 149.945 212.234 152.498 211.237 154.88C210.239 157.262 208.778 159.426 206.935 161.249L133.886 233.58C132.045 235.404 129.859 236.85 127.453 237.837C125.048 238.824 122.469 239.331 119.865 239.331C117.261 239.331 114.683 238.824 112.277 237.837C109.871 236.85 107.685 235.404 105.844 233.58Z" fill="white"/>
</g>
<g filter="url(#filter3_d_17098_1791)">
<path d="M142.996 73.8122C155.789 61.1443 155.789 40.6056 142.996 27.9377C130.202 15.2698 109.46 15.2698 96.6665 27.9377C83.8731 40.6056 83.8731 61.1444 96.6665 73.8122C109.46 86.4801 130.202 86.4801 142.996 73.8122Z" fill="#6CA6D1"/>
</g>
<path d="M109.318 59.8701V47.4165C109.326 47.4047 109.34 47.3935 109.341 47.3805C109.477 46.3632 110.364 45.5873 111.517 45.635C111.958 45.6533 112.401 45.648 112.843 45.635C112.999 45.6312 113.152 45.5908 113.289 45.5173C115.526 44.2362 117.748 42.9305 119.994 41.6665C121.243 40.9653 122.409 40.1194 123.767 39.6172H124.289C125.169 39.7549 125.671 40.3272 126.079 41.0613C126.901 42.5366 127.765 43.9901 128.604 45.456C128.637 45.522 128.687 45.5786 128.748 45.6204C128.809 45.6622 128.88 45.6879 128.954 45.6951C129.779 45.8193 130.5 46.5787 130.559 47.3959C130.594 47.9257 130.588 48.4555 130.592 48.9854C130.596 49.4605 130.403 49.6459 129.919 49.6459C128.968 49.6459 128.016 49.6418 127.069 49.6489C126.685 49.6434 126.301 49.6607 125.919 49.7007C123.674 49.9827 122.066 52.2969 122.58 54.4904C123.026 56.3943 124.617 57.6559 126.595 57.6665C127.719 57.6724 128.843 57.6665 129.967 57.6665C130.396 57.6665 130.59 57.8579 130.593 58.2847C130.597 58.7115 130.62 59.1483 130.585 59.5763C130.559 59.8995 130.51 60.2427 130.373 60.5306C130 61.3142 129.329 61.6739 128.463 61.6745C125.976 61.678 123.488 61.678 121.001 61.6745C117.824 61.6745 114.648 61.6745 111.472 61.6745C110.752 61.6745 110.159 61.4231 109.718 60.8503C109.491 60.5618 109.39 60.2221 109.318 59.8701ZM124.925 41.119C124.583 40.5968 124.046 40.4826 123.49 40.8034C120.76 42.3753 118.031 43.9491 115.303 45.5249C115.264 45.5479 115.229 45.5791 115.147 45.6427C115.766 45.6427 116.328 45.6491 116.891 45.638C117.026 45.6342 117.159 45.5974 117.277 45.5308C119.764 44.1038 122.25 42.6728 124.733 41.2379C124.795 41.2026 124.852 41.1631 124.925 41.119ZM126.443 43.7252L123.161 45.6191H127.536C127.166 44.9768 126.814 44.3622 126.443 43.7252Z" fill="white"/>
<path d="M128.227 50.6465C128.814 50.6465 129.401 50.6465 129.988 50.6465C130.953 50.6512 131.593 51.2864 131.598 52.2431C131.601 53.1756 131.601 54.1085 131.598 55.0418C131.598 55.9932 131.012 56.6384 130.058 56.6572C128.805 56.6826 127.549 56.6937 126.298 56.6384C124.786 56.5707 123.553 55.2873 123.504 53.8185C123.451 52.2242 124.545 50.8696 126.099 50.6983C126.8 50.6206 127.517 50.6853 128.226 50.6853L128.227 50.6465ZM126.538 52.6587C126.338 52.6587 126.143 52.7174 125.977 52.8274C125.811 52.9373 125.681 53.0936 125.604 53.2765C125.528 53.4594 125.508 53.6606 125.547 53.8548C125.586 54.0489 125.682 54.2272 125.824 54.3672C125.965 54.5072 126.145 54.6025 126.341 54.6411C126.537 54.6797 126.74 54.6599 126.925 54.5841C127.11 54.5084 127.268 54.3801 127.379 54.2155C127.49 54.051 127.549 53.8575 127.549 53.6595C127.548 53.3944 127.442 53.1403 127.252 52.953C127.063 52.7657 126.806 52.6605 126.538 52.6605V52.6587Z" fill="white"/>
<defs>
<filter id="filter0_d_17098_1791" x="39.3736" y="17.4524" width="215.001" height="266.785" filterUnits="userSpaceOnUse" color-interpolation-filters="sRGB">
<feFlood flood-opacity="0" result="BackgroundImageFix"/>
<feColorMatrix in="SourceAlpha" type="matrix" values="0 0 0 0 0 0 0 0 0 0 0 0 0 0 0 0 0 0 127 0" result="hardAlpha"/>
<feOffset dy="2.8317"/>
<feGaussianBlur stdDeviation="10.6189"/>
<feComposite in2="hardAlpha" operator="out"/>
<feColorMatrix type="matrix" values="0 0 0 0 0 0 0 0 0 0 0 0 0 0 0 0 0 0 0.15 0"/>
<feBlend mode="normal" in2="BackgroundImageFix" result="effect1_dropShadow_17098_1791"/>
<feBlend mode="normal" in="SourceGraphic" in2="effect1_dropShadow_17098_1791" result="shape"/>
</filter>
<filter id="filter1_d_17098_1791" x="0.295464" y="32.2502" width="239.138" height="237.204" filterUnits="userSpaceOnUse" color-interpolation-filters="sRGB">
<feFlood flood-opacity="0" result="BackgroundImageFix"/>
<feColorMatrix in="SourceAlpha" type="matrix" values="0 0 0 0 0 0 0 0 0 0 0 0 0 0 0 0 0 0 127 0" result="hardAlpha"/>
<feOffset dy="2.8317"/>
<feGaussianBlur stdDeviation="10.6189"/>
<feComposite in2="hardAlpha" operator="out"/>
<feColorMatrix type="matrix" values="0 0 0 0 0 0 0 0 0 0 0 0 0 0 0 0 0 0 0.15 0"/>
<feBlend mode="normal" in2="BackgroundImageFix" result="effect1_dropShadow_17098_1791"/>
<feBlend mode="normal" in="SourceGraphic" in2="effect1_dropShadow_17098_1791" result="shape"/>
</filter>
<filter id="filter2_d_17098_1791" x="5.74468" y="40.1125" width="228.241" height="223.288" filterUnits="userSpaceOnUse" color-interpolation-filters="sRGB">
<feFlood flood-opacity="0" result="BackgroundImageFix"/>
<feColorMatrix in="SourceAlpha" type="matrix" values="0 0 0 0 0 0 0 0 0 0 0 0 0 0 0 0 0 0 127 0" result="hardAlpha"/>
<feOffset dy="2.8317"/>
<feGaussianBlur stdDeviation="10.6189"/>
<feComposite in2="hardAlpha" operator="out"/>
<feColorMatrix type="matrix" values="0 0 0 0 0 0 0 0 0 0 0 0 0 0 0 0 0 0 0.15 0"/>
<feBlend mode="normal" in2="BackgroundImageFix" result="effect1_dropShadow_17098_1791"/>
<feBlend mode="normal" in="SourceGraphic" in2="effect1_dropShadow_17098_1791" result="shape"/>
</filter>
<filter id="filter3_d_17098_1791" x="65.8335" y="0.0304823" width="107.995" height="107.352" filterUnits="userSpaceOnUse" color-interpolation-filters="sRGB">
<feFlood flood-opacity="0" result="BackgroundImageFix"/>
<feColorMatrix in="SourceAlpha" type="matrix" values="0 0 0 0 0 0 0 0 0 0 0 0 0 0 0 0 0 0 127 0" result="hardAlpha"/>
<feOffset dy="2.8317"/>
<feGaussianBlur stdDeviation="10.6189"/>
<feComposite in2="hardAlpha" operator="out"/>
<feColorMatrix type="matrix" values="0 0 0 0 0 0 0 0 0 0 0 0 0 0 0 0 0 0 0.15 0"/>
<feBlend mode="normal" in2="BackgroundImageFix" result="effect1_dropShadow_17098_1791"/>
<feBlend mode="normal" in="SourceGraphic" in2="effect1_dropShadow_17098_1791" result="shape"/>
</filter>
</defs>
</svg>
