<svg width="255" height="285" viewBox="0 0 255 285" fill="none" xmlns="http://www.w3.org/2000/svg">
<path d="M62.0951 208.649C61.8693 208.649 61.6457 208.605 61.4371 208.52C61.2285 208.434 61.0391 208.309 60.88 208.15L60.0779 207.358C59.767 207.037 59.5955 206.607 59.6004 206.162C59.6052 205.717 59.7858 205.292 60.1037 204.977C60.4215 204.663 60.8511 204.484 61.3006 204.479C61.75 204.474 62.1835 204.644 62.5081 204.952L63.3101 205.744C63.5504 205.982 63.714 206.285 63.7803 206.615C63.8466 206.945 63.8125 207.287 63.6825 207.598C63.5525 207.909 63.3322 208.175 63.0497 208.362C62.7671 208.549 62.435 208.649 62.0951 208.649ZM53.2839 199.924C53.0581 199.924 52.8346 199.88 52.6261 199.795C52.4175 199.709 52.2281 199.584 52.0688 199.425L51.2691 198.633C50.9468 198.315 50.7656 197.882 50.7654 197.431C50.7652 196.98 50.946 196.547 51.2679 196.228C51.5899 195.909 52.0266 195.73 52.4822 195.729C52.9377 195.729 53.3747 195.908 53.6969 196.227L54.499 197.021C54.7396 197.259 54.9036 197.562 54.97 197.892C55.0365 198.222 55.0025 198.564 54.8723 198.875C54.7422 199.186 54.5217 199.452 54.2389 199.638C53.9562 199.825 53.6238 199.925 53.2839 199.924ZM44.4799 191.199C44.0244 191.2 43.5874 191.021 43.2648 190.703L42.4651 189.909C42.2999 189.752 42.1679 189.564 42.077 189.356C41.986 189.148 41.9379 188.924 41.9354 188.698C41.933 188.471 41.9762 188.247 42.0627 188.037C42.1491 187.827 42.277 187.636 42.4388 187.476C42.6006 187.316 42.793 187.189 43.0049 187.104C43.2168 187.018 43.4438 186.975 43.6726 186.978C43.9014 186.98 44.1274 187.028 44.3373 187.118C44.5473 187.208 44.737 187.339 44.8953 187.502L45.695 188.297C45.9356 188.534 46.0995 188.837 46.166 189.167C46.2324 189.497 46.1984 189.84 46.0683 190.15C45.9381 190.461 45.7177 190.727 45.4349 190.914C45.1522 191.1 44.8198 191.2 44.4799 191.199ZM35.6687 182.477C35.213 182.477 34.776 182.297 34.4536 181.978L33.6539 181.184C33.343 180.863 33.1715 180.433 33.1763 179.988C33.1812 179.543 33.3618 179.118 33.6797 178.803C33.9975 178.488 34.4272 178.309 34.8766 178.305C35.3261 178.3 35.7595 178.47 36.0841 178.778L36.8838 179.572C37.1241 179.81 37.2877 180.113 37.3539 180.443C37.4202 180.773 37.3862 181.115 37.2561 181.426C37.1261 181.737 36.9059 182.003 36.6233 182.19C36.3408 182.377 36.0086 182.477 35.6687 182.477ZM26.8575 173.752C26.6322 173.752 26.4091 173.708 26.201 173.623C25.9929 173.537 25.8039 173.412 25.6449 173.253L24.8427 172.459C24.6833 172.301 24.5569 172.114 24.4707 171.907C24.3845 171.701 24.3402 171.48 24.3403 171.256C24.3404 171.033 24.385 170.812 24.4714 170.606C24.5578 170.399 24.6844 170.212 24.844 170.054C25.0035 169.896 25.1929 169.771 25.4013 169.686C25.6097 169.6 25.8331 169.556 26.0587 169.557C26.2842 169.557 26.5076 169.601 26.7159 169.686C26.9242 169.772 27.1135 169.897 27.2729 170.055L28.0726 170.847C28.3129 171.085 28.4765 171.388 28.5428 171.718C28.6091 172.048 28.575 172.391 28.445 172.702C28.315 173.012 28.0947 173.278 27.8122 173.465C27.5296 173.652 27.1974 173.752 26.8575 173.752ZM18.0488 165.027C17.823 165.028 17.5992 164.984 17.3906 164.899C17.1821 164.813 16.9927 164.687 16.8337 164.529L16.0316 163.737C15.7292 163.414 15.5649 162.988 15.5731 162.548C15.5814 162.108 15.7615 161.688 16.0756 161.376C16.3898 161.065 16.8136 160.886 17.2581 160.878C17.7026 160.869 18.1332 161.031 18.4594 161.331L19.2615 162.122C19.5017 162.36 19.6653 162.664 19.7316 162.994C19.7979 163.324 19.7638 163.666 19.6338 163.977C19.5037 164.288 19.2835 164.553 19.001 164.74C18.7184 164.928 18.3862 165.027 18.0464 165.027H18.0488ZM9.99911 155.714C9.66664 155.714 9.34141 155.618 9.06271 155.438C8.784 155.259 8.5637 155.003 8.42831 154.702C8.25882 154.322 8.09888 153.927 7.95087 153.535C7.81076 153.112 7.84354 152.651 8.04214 152.252C8.24074 151.853 8.58937 151.547 9.01334 151.399C9.43732 151.251 9.9029 151.274 10.3103 151.462C10.7177 151.65 11.0344 151.988 11.1927 152.405C11.3025 152.712 11.4314 153.022 11.5604 153.322C11.6764 153.581 11.7253 153.865 11.7026 154.147C11.6799 154.43 11.5862 154.702 11.4302 154.94C11.2742 155.178 11.0607 155.373 10.8091 155.508C10.5575 155.643 10.2758 155.714 9.98956 155.714H9.99911ZM10.1495 143.753C9.89495 143.754 9.64366 143.697 9.41426 143.588C9.21034 143.492 9.02746 143.358 8.87615 143.192C8.72483 143.026 8.60802 142.832 8.5324 142.622C8.45679 142.411 8.42385 142.188 8.43548 141.965C8.44711 141.742 8.50309 141.523 8.60019 141.321C8.78161 140.945 8.97736 140.572 9.18743 140.21C9.29789 140.013 9.44698 139.839 9.626 139.699C9.80501 139.559 10.0104 139.455 10.2301 139.395C10.4499 139.334 10.6796 139.317 10.906 139.346C11.1323 139.374 11.3507 139.446 11.5484 139.559C11.7461 139.672 11.9193 139.822 12.0577 140.002C12.1961 140.181 12.297 140.386 12.3545 140.605C12.412 140.823 12.4251 141.051 12.3928 141.275C12.3606 141.498 12.2837 141.713 12.1667 141.907C12.0019 142.191 11.8468 142.486 11.7036 142.782C11.5634 143.074 11.3422 143.32 11.0657 143.493C10.7892 143.665 10.4689 143.755 10.1423 143.753H10.1495ZM18.3042 134.513C17.9643 134.513 17.6321 134.413 17.3496 134.226C17.067 134.039 16.8468 133.774 16.7167 133.463C16.5867 133.152 16.5527 132.81 16.6189 132.48C16.6852 132.15 16.8488 131.846 17.0891 131.608L17.8912 130.814C18.0471 130.641 18.237 130.501 18.4494 130.404C18.6617 130.306 18.892 130.252 19.1261 130.246C19.3602 130.24 19.5931 130.281 19.8106 130.366C20.028 130.452 20.2255 130.581 20.3909 130.746C20.5562 130.91 20.6859 131.106 20.772 131.321C20.8581 131.537 20.8988 131.768 20.8917 131.999C20.8845 132.231 20.8296 132.459 20.7303 132.669C20.631 132.879 20.4894 133.067 20.3142 133.22L19.5121 134.015C19.3527 134.173 19.1633 134.298 18.9548 134.384C18.7463 134.47 18.5228 134.514 18.297 134.513H18.3042ZM27.1154 125.789C26.7755 125.789 26.4433 125.689 26.1608 125.502C25.8782 125.315 25.658 125.049 25.528 124.738C25.3979 124.427 25.3638 124.085 25.4301 123.755C25.4964 123.425 25.66 123.122 25.9003 122.884L26.7024 122.092C26.8618 121.934 27.051 121.808 27.2594 121.723C27.4677 121.637 27.6911 121.593 27.9166 121.593C28.1422 121.593 28.3655 121.637 28.574 121.722C28.7824 121.808 28.9718 121.933 29.1314 122.091C29.2909 122.248 29.4176 122.436 29.504 122.642C29.5904 122.848 29.6349 123.07 29.635 123.293C29.6351 123.516 29.5908 123.737 29.5046 123.944C29.4184 124.15 29.292 124.338 29.1325 124.496L28.3305 125.29C28.1701 125.449 27.9795 125.575 27.7697 125.66C27.5599 125.746 27.3351 125.79 27.1082 125.789H27.1154ZM35.9265 117.064C35.5867 117.064 35.2545 116.964 34.9719 116.777C34.6894 116.59 34.4692 116.324 34.3391 116.013C34.2091 115.702 34.175 115.36 34.2413 115.03C34.3076 114.7 34.4712 114.397 34.7115 114.159L35.5135 113.367C35.8381 113.059 36.2716 112.889 36.721 112.894C37.1705 112.899 37.6001 113.078 37.9179 113.393C38.2358 113.707 38.4165 114.133 38.4213 114.578C38.4261 115.023 38.2547 115.452 37.9438 115.773L37.1416 116.565C36.9815 116.724 36.7909 116.851 36.5811 116.936C36.3712 117.022 36.1463 117.065 35.9193 117.064H35.9265ZM44.7377 108.339C44.3979 108.339 44.0656 108.239 43.7831 108.052C43.5005 107.865 43.2803 107.6 43.1503 107.289C43.0202 106.978 42.9862 106.636 43.0525 106.305C43.1187 105.975 43.2824 105.672 43.5226 105.434L44.3224 104.642C44.6469 104.334 45.0803 104.165 45.5298 104.169C45.9792 104.174 46.4089 104.353 46.7268 104.668C47.0446 104.983 47.2253 105.408 47.2301 105.853C47.2349 106.298 47.0635 106.727 46.7525 107.049L45.9528 107.841C45.7926 108 45.6021 108.126 45.3923 108.211C45.1825 108.297 44.9575 108.341 44.7306 108.339H44.7377ZM53.5513 99.6146C53.2119 99.614 52.8803 99.514 52.5983 99.3271C52.3162 99.1402 52.0964 98.8748 51.9664 98.5643C51.8365 98.2539 51.8022 97.9123 51.868 97.5827C51.9338 97.253 52.0967 96.95 52.3362 96.7119L53.1359 95.9176C53.2942 95.754 53.4839 95.6234 53.6938 95.5333C53.9038 95.4433 54.1298 95.3956 54.3586 95.3932C54.5874 95.3908 54.8144 95.4336 55.0263 95.5192C55.2381 95.6048 55.4306 95.7314 55.5924 95.8916C55.7542 96.0518 55.8821 96.2424 55.9685 96.4521C56.0549 96.6619 56.0982 96.8867 56.0957 97.1132C56.0933 97.3398 56.0452 97.5636 55.9542 97.7715C55.8633 97.9794 55.7313 98.1672 55.5661 98.324L54.7664 99.1158C54.6071 99.2742 54.4177 99.3998 54.2092 99.4854C54.0006 99.571 53.777 99.6149 53.5513 99.6146ZM62.3624 90.8899C62.0225 90.8904 61.6901 90.791 61.4074 90.6043C61.1246 90.4176 60.9042 90.152 60.774 89.8411C60.6439 89.5302 60.6099 89.188 60.6763 88.858C60.7428 88.5279 60.9068 88.2248 61.1474 87.9871L61.4147 87.72C61.7393 87.4121 62.1727 87.2424 62.6222 87.2472C63.0716 87.2519 63.5013 87.4308 63.8191 87.7455C64.1369 88.0603 64.3177 88.4857 64.3225 88.9308C64.3273 89.3758 64.1559 89.805 63.8449 90.1264L63.5751 90.3935C63.4149 90.5524 63.2243 90.6781 63.0144 90.7633C62.8046 90.8485 62.5797 90.8916 62.3529 90.8899H62.3624Z" fill="#666666"/>
<g filter="url(#filter0_d_224_7184)">
<path d="M119.73 260.347C117.53 260.35 115.352 259.923 113.319 259.091C111.286 258.258 109.439 257.037 107.885 255.496L60.4746 208.552L63.7141 205.344L111.126 252.289C113.409 254.546 116.504 255.814 119.73 255.814C122.956 255.814 126.05 254.546 128.333 252.289L224.853 156.716C227.133 154.456 228.415 151.391 228.415 148.196C228.415 145.001 227.133 141.936 224.853 139.676L128.333 44.1057C126.05 41.8481 122.956 40.5801 119.73 40.5801C116.504 40.5801 113.409 41.8481 111.126 44.1057L64.2416 90.5303L60.9998 87.3227L107.885 40.898C109.44 39.3572 111.286 38.1348 113.318 37.3008C115.35 36.4669 117.529 36.0376 119.729 36.0376C121.928 36.0376 124.107 36.4669 126.139 37.3008C128.171 38.1348 130.018 39.3572 131.573 40.898L228.095 136.47C231.236 139.581 233 143.8 233 148.198C233 152.597 231.236 156.816 228.095 159.926L131.573 255.499C130.019 257.039 128.172 258.261 126.14 259.093C124.107 259.925 121.929 260.351 119.73 260.347Z" fill="#666666"/>
</g>
<g filter="url(#filter1_d_224_7184)">
<path d="M109.073 241.19L25.81 158.749C24.4108 157.364 23.3009 155.719 22.5436 153.909C21.7863 152.099 21.3965 150.16 21.3965 148.2C21.3965 146.241 21.7863 144.301 22.5436 142.492C23.3009 140.682 24.4108 139.037 25.81 137.652L109.073 55.2034C111.899 52.4063 115.732 50.835 119.727 50.835C123.723 50.835 127.555 52.4063 130.382 55.2034L213.645 137.652C215.044 139.037 216.154 140.682 216.911 142.492C217.669 144.301 218.058 146.241 218.058 148.2C218.058 150.16 217.669 152.099 216.911 153.909C216.154 155.719 215.044 157.364 213.645 158.749L130.382 241.195C128.982 242.58 127.321 243.679 125.493 244.429C123.665 245.178 121.705 245.564 119.726 245.563C117.748 245.563 115.789 245.176 113.961 244.426C112.133 243.676 110.472 242.576 109.073 241.19Z" fill="white"/>
</g>
<g filter="url(#filter2_d_224_7184)">
<path d="M105.705 233.759L32.6567 161.427C30.8139 159.605 29.352 157.441 28.3546 155.059C27.3571 152.677 26.8438 150.124 26.8438 147.545C26.8438 144.966 27.3571 142.413 28.3546 140.031C29.352 137.648 30.8139 135.484 32.6567 133.662L105.705 64.4484C107.546 62.6251 109.732 61.1787 112.138 60.192C114.544 59.2052 117.122 58.6973 119.726 58.6973C122.33 58.6973 124.909 59.2052 127.315 60.192C129.721 61.1787 131.906 62.6251 133.748 64.4484L206.796 133.662C208.639 135.484 210.101 137.648 211.098 140.031C212.096 142.413 212.609 144.966 212.609 147.545C212.609 150.124 212.096 152.677 211.098 155.059C210.101 157.441 208.639 159.605 206.796 161.427L133.748 233.759C131.906 235.582 129.721 237.029 127.315 238.015C124.909 239.002 122.33 239.51 119.726 239.51C117.122 239.51 114.544 239.002 112.138 238.015C109.732 237.029 107.546 235.582 105.705 233.759Z" fill="white"/>
</g>
<path d="M92.9941 155L92.168 152.513H87.5625L86.71 155H84.3545L88.5469 142.854H91.3066L95.5869 155H92.9941ZM90.3311 147.046C90.1201 146.407 89.959 145.848 89.8477 145.367H89.8301C89.6367 146.088 89.4785 146.647 89.3555 147.046L88.1162 150.658H91.5703L90.3311 147.046ZM96.8789 155V141.86H99.1816V155H96.8789ZM101.748 155V141.86H104.051V155H101.748ZM106.081 150.931V149.076H110.511V150.931H106.081ZM115.134 143.337C115.134 143.718 114.993 144.043 114.712 144.312C114.425 144.588 114.085 144.726 113.692 144.726C113.294 144.726 112.957 144.591 112.682 144.321C112.406 144.052 112.269 143.724 112.269 143.337C112.269 142.95 112.406 142.619 112.682 142.344C112.957 142.068 113.294 141.931 113.692 141.931C114.091 141.931 114.431 142.065 114.712 142.335C114.993 142.61 115.134 142.944 115.134 143.337ZM112.541 155V146.053H114.844V155H112.541ZM122.815 155V149.278C122.815 148.294 122.443 147.802 121.699 147.802C121.125 147.802 120.636 148.086 120.231 148.654C119.827 149.217 119.625 149.891 119.625 150.676V155H117.322V146.053H119.502C119.502 146.686 119.458 147.219 119.37 147.652H119.396C120.006 146.469 121.02 145.877 122.438 145.877C124.213 145.877 125.101 146.823 125.101 148.716V155H122.815ZM127.157 150.931V149.076H131.587V150.931H127.157ZM141.729 150.359C141.729 151.76 141.302 152.914 140.446 153.822C139.585 154.725 138.489 155.176 137.159 155.176C134.364 155.176 132.967 153.676 132.967 150.676C132.967 149.275 133.389 148.127 134.232 147.23C135.088 146.328 136.189 145.877 137.537 145.877C138.855 145.877 139.875 146.237 140.596 146.958C141.352 147.726 141.729 148.859 141.729 150.359ZM139.356 150.482C139.356 148.707 138.697 147.819 137.379 147.819C136.816 147.819 136.348 148.027 135.973 148.443C135.551 148.918 135.34 149.586 135.34 150.447C135.34 152.293 136.008 153.216 137.344 153.216C137.936 153.216 138.413 152.987 138.776 152.53C139.163 152.044 139.356 151.361 139.356 150.482ZM148.901 155V149.278C148.901 148.294 148.529 147.802 147.785 147.802C147.211 147.802 146.722 148.086 146.317 148.654C145.913 149.217 145.711 149.891 145.711 150.676V155H143.408V146.053H145.588C145.588 146.686 145.544 147.219 145.456 147.652H145.482C146.092 146.469 147.105 145.877 148.523 145.877C150.299 145.877 151.187 146.823 151.187 148.716V155H148.901ZM160.978 149.674C160.978 150.207 160.948 150.638 160.89 150.966H155.361C155.361 152.577 156.185 153.383 157.831 153.383C158.698 153.383 159.562 153.207 160.424 152.855L160.67 154.604C159.633 154.985 158.555 155.176 157.436 155.176C154.494 155.176 153.023 153.652 153.023 150.605C153.023 149.229 153.398 148.106 154.148 147.239C154.928 146.331 155.968 145.877 157.269 145.877C158.511 145.877 159.457 146.243 160.107 146.976C160.688 147.638 160.978 148.537 160.978 149.674ZM158.692 149.437C158.728 148.188 158.212 147.564 157.146 147.564C156.103 147.564 155.514 148.188 155.379 149.437H158.692Z" fill="#565656"/>
<g filter="url(#filter3_d_224_7184)">
<path d="M143.494 73.9372C156.287 61.2693 156.287 40.7306 143.494 28.0627C130.7 15.3948 109.958 15.3948 97.1646 28.0627C84.3712 40.7306 84.3711 61.2694 97.1646 73.9372C109.958 86.6051 130.7 86.6051 143.494 73.9372Z" fill="#666666"/>
</g>
<path d="M113.806 48.3329H116.995V50.4406C115.617 50.6927 114.864 51.4766 114.877 52.64C114.889 53.7696 115.655 54.5438 117.001 54.7781V59.0006H113.271C113.271 58.5205 113.249 58.0341 113.279 57.5503C113.296 57.2572 113.18 57.0898 112.967 56.9107C111.903 56.0199 110.782 55.1727 109.813 54.1821C108.297 52.6303 107.555 50.6918 107.4 48.5306C107.4 48.4781 107.4 48.4246 107.4 48.3444H111.666C111.666 47.9997 111.666 47.6817 111.666 47.3645C111.671 46.6821 112.111 46.202 112.731 46.2002C113.351 46.1984 113.801 46.6813 113.801 47.3583C113.807 47.663 113.806 47.9739 113.806 48.3329Z" fill="white"/>
<path d="M118.454 53.6756C118.042 53.6756 117.693 53.681 117.344 53.6756C116.69 53.6632 116.197 53.1985 116.199 52.6075C116.201 52.0165 116.691 51.5554 117.35 51.5439C117.698 51.5385 118.047 51.5439 118.434 51.5439V48.3458H121.806C121.806 48.0058 121.806 47.6889 121.806 47.3711C121.811 46.6858 122.265 46.206 122.915 46.1998C123.565 46.1935 124.045 46.6804 124.05 47.3809C124.05 47.6809 124.05 47.9808 124.05 48.3208H127.4C127.373 49.1637 127.22 49.9987 126.946 50.8006C126.384 52.4857 125.321 53.9796 123.886 55.1015C123.105 55.721 122.319 56.3331 121.526 56.9378C121.326 57.09 121.228 57.2386 121.24 57.4923C121.263 57.989 121.247 58.4865 121.247 59.0001H118.454V53.6756Z" fill="white"/>
<path d="M124.03 42.9941V40.1382C123.657 40.1382 123.31 40.1429 122.964 40.1382C122.289 40.1268 121.79 39.627 121.799 38.9787C121.808 38.3304 122.299 37.8659 122.963 37.8554C123.31 37.8554 123.658 37.8554 124.038 37.8554C124.038 37.1357 124.038 36.4484 124.038 35.7611C124.038 35.1813 124.22 34.9995 124.796 34.9995H132.252C132.82 34.9995 132.999 35.1899 132.999 35.7725C132.999 37.9265 132.999 40.0804 132.999 42.2344C132.999 42.8122 132.812 42.996 132.239 42.996C131.784 42.996 131.329 42.996 130.875 42.996C130.841 42.9919 130.808 42.9849 130.776 42.975C130.715 42.2211 130.426 41.5709 129.789 41.1216C129.364 40.8175 128.848 40.6763 128.332 40.7227C127.211 40.8112 126.412 41.6746 126.26 42.9998H124.029L124.03 42.9941Z" fill="white"/>
<path d="M117.001 45.3645V46.9798H114.884C114.664 45.5691 113.829 44.7642 112.632 44.7973C111.511 44.8285 110.679 45.6829 110.534 47H107.4C107.479 42.7395 111.406 37.9825 116.992 38.2074V40.9269C116.311 40.981 115.723 41.2453 115.299 41.8208C114.989 42.234 114.834 42.748 114.865 43.2682C114.917 44.3861 115.729 45.1901 117.001 45.3645Z" fill="white"/>
<path d="M117.434 60.6013C118.919 60.6013 120.406 60.598 121.891 60.6059C122.073 60.6059 122.314 60.6316 122.42 60.7122C122.544 60.8052 122.635 60.9881 122.586 61.1016C122.538 61.2152 122.312 61.3056 122.14 61.3815C122.062 61.4158 121.928 61.3934 121.82 61.3934H113.012C112.94 61.3934 112.867 61.3934 112.795 61.3934C112.432 61.3776 112.189 61.2106 112.2 60.9861C112.209 60.7722 112.446 60.6112 112.795 60.6052C113.302 60.5973 113.81 60.6052 114.317 60.6052L117.434 60.6013Z" fill="white"/>
<path d="M120.202 65.4004C119.975 66.3155 118.75 67.0051 117.382 67.0004C116.034 66.9957 114.813 66.2986 114.602 65.4004H120.202Z" fill="white"/>
<path d="M117.401 63.7999C116.415 63.7999 115.428 63.7999 114.443 63.7999C114.036 63.7999 113.801 63.652 113.799 63.4002C113.796 63.1484 114.033 63.0005 114.437 63.0005C116.41 63.0005 118.382 63.0005 120.355 63.0005C120.761 63.0005 120.997 63.149 120.999 63.4002C121.001 63.6514 120.764 63.7999 120.36 63.7999C119.374 63.8013 118.387 63.7999 117.401 63.7999Z" fill="white"/>
<defs>
<filter id="filter0_d_224_7184" x="39.2369" y="17.6316" width="215.001" height="266.785" filterUnits="userSpaceOnUse" color-interpolation-filters="sRGB">
<feFlood flood-opacity="0" result="BackgroundImageFix"/>
<feColorMatrix in="SourceAlpha" type="matrix" values="0 0 0 0 0 0 0 0 0 0 0 0 0 0 0 0 0 0 127 0" result="hardAlpha"/>
<feOffset dy="2.8317"/>
<feGaussianBlur stdDeviation="10.6189"/>
<feComposite in2="hardAlpha" operator="out"/>
<feColorMatrix type="matrix" values="0 0 0 0 0 0 0 0 0 0 0 0 0 0 0 0 0 0 0.15 0"/>
<feBlend mode="normal" in2="BackgroundImageFix" result="effect1_dropShadow_224_7184"/>
<feBlend mode="normal" in="SourceGraphic" in2="effect1_dropShadow_224_7184" result="shape"/>
</filter>
<filter id="filter1_d_224_7184" x="0.158745" y="32.4289" width="239.138" height="237.204" filterUnits="userSpaceOnUse" color-interpolation-filters="sRGB">
<feFlood flood-opacity="0" result="BackgroundImageFix"/>
<feColorMatrix in="SourceAlpha" type="matrix" values="0 0 0 0 0 0 0 0 0 0 0 0 0 0 0 0 0 0 127 0" result="hardAlpha"/>
<feOffset dy="2.8317"/>
<feGaussianBlur stdDeviation="10.6189"/>
<feComposite in2="hardAlpha" operator="out"/>
<feColorMatrix type="matrix" values="0 0 0 0 0 0 0 0 0 0 0 0 0 0 0 0 0 0 0.15 0"/>
<feBlend mode="normal" in2="BackgroundImageFix" result="effect1_dropShadow_224_7184"/>
<feBlend mode="normal" in="SourceGraphic" in2="effect1_dropShadow_224_7184" result="shape"/>
</filter>
<filter id="filter2_d_224_7184" x="5.60601" y="40.2912" width="228.241" height="223.288" filterUnits="userSpaceOnUse" color-interpolation-filters="sRGB">
<feFlood flood-opacity="0" result="BackgroundImageFix"/>
<feColorMatrix in="SourceAlpha" type="matrix" values="0 0 0 0 0 0 0 0 0 0 0 0 0 0 0 0 0 0 127 0" result="hardAlpha"/>
<feOffset dy="2.8317"/>
<feGaussianBlur stdDeviation="10.6189"/>
<feComposite in2="hardAlpha" operator="out"/>
<feColorMatrix type="matrix" values="0 0 0 0 0 0 0 0 0 0 0 0 0 0 0 0 0 0 0.15 0"/>
<feBlend mode="normal" in2="BackgroundImageFix" result="effect1_dropShadow_224_7184"/>
<feBlend mode="normal" in="SourceGraphic" in2="effect1_dropShadow_224_7184" result="shape"/>
</filter>
<filter id="filter3_d_224_7184" x="66.3326" y="0.155971" width="107.993" height="107.351" filterUnits="userSpaceOnUse" color-interpolation-filters="sRGB">
<feFlood flood-opacity="0" result="BackgroundImageFix"/>
<feColorMatrix in="SourceAlpha" type="matrix" values="0 0 0 0 0 0 0 0 0 0 0 0 0 0 0 0 0 0 127 0" result="hardAlpha"/>
<feOffset dy="2.8317"/>
<feGaussianBlur stdDeviation="10.6189"/>
<feComposite in2="hardAlpha" operator="out"/>
<feColorMatrix type="matrix" values="0 0 0 0 0 0 0 0 0 0 0 0 0 0 0 0 0 0 0.15 0"/>
<feBlend mode="normal" in2="BackgroundImageFix" result="effect1_dropShadow_224_7184"/>
<feBlend mode="normal" in="SourceGraphic" in2="effect1_dropShadow_224_7184" result="shape"/>
</filter>
</defs>
</svg>
