<svg width="255" height="285" viewBox="0 0 255 285" fill="none" xmlns="http://www.w3.org/2000/svg">
<path d="M62.1088 208.612C61.883 208.612 61.6593 208.568 61.4508 208.483C61.2422 208.397 61.0528 208.271 60.8937 208.113L60.0916 207.321C59.7806 207 59.6092 206.57 59.614 206.125C59.6188 205.68 59.7995 205.255 60.1173 204.94C60.4352 204.625 60.8648 204.447 61.3143 204.442C61.7637 204.437 62.1972 204.607 62.5217 204.915L63.3238 205.707C63.5641 205.945 63.7277 206.248 63.794 206.578C63.8602 206.908 63.8262 207.25 63.6962 207.561C63.5661 207.872 63.3459 208.138 63.0634 208.325C62.7808 208.512 62.4486 208.611 62.1088 208.612ZM53.2975 199.887C53.0718 199.887 52.8483 199.843 52.6397 199.758C52.4312 199.672 52.2418 199.546 52.0825 199.388L51.2828 198.596C50.9605 198.277 50.7793 197.845 50.7791 197.394C50.7789 196.943 50.9596 196.51 51.2816 196.191C51.6035 195.872 52.0403 195.693 52.4958 195.692C52.9514 195.692 53.3883 195.871 53.7106 196.19L54.5127 196.984C54.7533 197.222 54.9172 197.525 54.9837 197.855C55.0501 198.185 55.0161 198.527 54.886 198.838C54.7559 199.149 54.5354 199.415 54.2526 199.601C53.9698 199.788 53.6374 199.887 53.2975 199.887ZM44.4936 191.162C44.0381 191.163 43.6011 190.984 43.2785 190.666L42.4788 189.872C42.3135 189.715 42.1816 189.527 42.0906 189.319C41.9997 189.111 41.9516 188.887 41.9491 188.661C41.9467 188.434 41.9899 188.21 42.0763 188C42.1628 187.79 42.2906 187.599 42.4524 187.439C42.6142 187.279 42.8067 187.152 43.0186 187.067C43.2304 186.981 43.4574 186.938 43.6862 186.941C43.9151 186.943 44.141 186.991 44.351 187.081C44.561 187.171 44.7506 187.302 44.9089 187.465L45.7087 188.259C45.9493 188.497 46.1132 188.8 46.1796 189.13C46.2461 189.46 46.2121 189.802 46.082 190.113C45.9518 190.424 45.7314 190.69 45.4486 190.877C45.1658 191.063 44.8334 191.163 44.4936 191.162ZM35.6824 182.44C35.2267 182.439 34.7897 182.26 34.4673 181.941L33.6676 181.147C33.3566 180.825 33.1852 180.396 33.19 179.951C33.1948 179.506 33.3755 179.081 33.6933 178.766C34.0112 178.451 34.4409 178.272 34.8903 178.268C35.3398 178.263 35.7732 178.433 36.0978 178.74L36.8975 179.535C37.1377 179.773 37.3013 180.076 37.3676 180.406C37.4339 180.736 37.3999 181.078 37.2698 181.389C37.1398 181.7 36.9196 181.966 36.637 182.153C36.3545 182.34 36.0223 182.44 35.6824 182.44ZM26.8712 173.715C26.6459 173.715 26.4228 173.671 26.2147 173.585C26.0066 173.5 25.8176 173.374 25.6585 173.216L24.8564 172.422C24.697 172.264 24.5706 172.077 24.4843 171.87C24.3981 171.664 24.3539 171.443 24.354 171.219C24.3541 170.996 24.3986 170.775 24.485 170.569C24.5715 170.362 24.6981 170.175 24.8576 170.017C25.0172 169.859 25.2066 169.734 25.415 169.649C25.6234 169.563 25.8468 169.519 26.0723 169.519C26.2979 169.52 26.5212 169.564 26.7296 169.649C26.9379 169.735 27.1272 169.86 27.2866 170.018L28.0863 170.81C28.3266 171.048 28.4902 171.351 28.5565 171.681C28.6227 172.011 28.5887 172.353 28.4587 172.664C28.3286 172.975 28.1084 173.241 27.8258 173.428C27.5433 173.615 27.2111 173.715 26.8712 173.715ZM18.0624 164.99C17.8366 164.991 17.6129 164.947 17.4043 164.862C17.1957 164.776 17.0064 164.65 16.8473 164.492L16.0453 163.7C15.7429 163.377 15.5786 162.951 15.5868 162.511C15.595 162.071 15.7751 161.651 16.0893 161.339C16.4035 161.028 16.8273 160.849 17.2718 160.841C17.7163 160.832 18.1468 160.994 18.473 161.293L19.2752 162.085C19.5154 162.323 19.679 162.627 19.7453 162.957C19.8115 163.287 19.7775 163.629 19.6475 163.94C19.5174 164.251 19.2972 164.516 19.0146 164.703C18.7321 164.89 18.3999 164.99 18.06 164.99H18.0624ZM10.0128 155.677C9.68031 155.676 9.35508 155.581 9.07638 155.401C8.79767 155.222 8.57737 154.966 8.44199 154.665C8.27249 154.285 8.11255 153.89 7.96455 153.498C7.82443 153.075 7.85721 152.614 8.05581 152.215C8.25442 151.816 8.60304 151.51 9.02701 151.362C9.45099 151.214 9.91657 151.237 10.324 151.425C10.7313 151.613 11.0481 151.951 11.2064 152.368C11.3162 152.675 11.4451 152.985 11.574 153.285C11.6901 153.544 11.739 153.828 11.7163 154.11C11.6936 154.393 11.5999 154.665 11.4439 154.903C11.2878 155.141 11.0744 155.336 10.8228 155.471C10.5712 155.606 10.2895 155.677 10.0032 155.677H10.0128ZM10.1632 143.716C9.90862 143.717 9.65734 143.66 9.42793 143.551C9.22401 143.455 9.04113 143.321 8.88982 143.155C8.73851 142.989 8.62169 142.795 8.54608 142.585C8.47047 142.374 8.43752 142.151 8.44915 141.928C8.46079 141.704 8.51676 141.486 8.61386 141.284C8.79529 140.908 8.99103 140.535 9.2011 140.173C9.31156 139.975 9.46065 139.802 9.63967 139.662C9.81869 139.522 10.0241 139.418 10.2438 139.358C10.4636 139.297 10.6933 139.28 10.9196 139.309C11.146 139.337 11.3644 139.409 11.5621 139.522C11.7598 139.635 11.933 139.785 12.0713 139.965C12.2097 140.144 12.3106 140.349 12.3682 140.568C12.4257 140.786 12.4388 141.014 12.4065 141.238C12.3743 141.461 12.2974 141.676 12.1803 141.87C12.0156 142.154 11.8605 142.449 11.7172 142.745C11.5771 143.037 11.3558 143.283 11.0793 143.455C10.8028 143.627 10.4825 143.718 10.156 143.716H10.1632ZM18.3179 134.476C17.978 134.476 17.6458 134.376 17.3632 134.189C17.0807 134.002 16.8605 133.737 16.7304 133.426C16.6004 133.115 16.5663 132.773 16.6326 132.443C16.6989 132.112 16.8625 131.809 17.1028 131.571L17.9049 130.777C18.0608 130.604 18.2507 130.464 18.4631 130.367C18.6754 130.269 18.9057 130.215 19.1398 130.209C19.3738 130.202 19.6067 130.243 19.8242 130.329C20.0417 130.415 20.2392 130.544 20.4045 130.708C20.5699 130.873 20.6996 131.069 20.7857 131.284C20.8718 131.5 20.9125 131.731 20.9053 131.962C20.8982 132.194 20.8433 132.422 20.744 132.632C20.6447 132.842 20.5031 133.029 20.3279 133.183L19.5258 133.978C19.3664 134.136 19.177 134.261 18.9685 134.347C18.76 134.433 18.5364 134.477 18.3107 134.476H18.3179ZM27.129 125.752C26.7892 125.752 26.457 125.652 26.1744 125.465C25.8919 125.278 25.6717 125.012 25.5416 124.701C25.4116 124.39 25.3775 124.048 25.4438 123.718C25.51 123.388 25.6737 123.085 25.9139 122.847L26.7161 122.055C26.8755 121.897 27.0647 121.771 27.273 121.686C27.4814 121.6 27.7047 121.556 27.9303 121.556C28.1558 121.556 28.3792 121.6 28.5876 121.685C28.7961 121.77 28.9855 121.896 29.145 122.053C29.3046 122.211 29.4312 122.399 29.5176 122.605C29.6041 122.811 29.6485 123.032 29.6487 123.256C29.6488 123.479 29.6045 123.7 29.5183 123.907C29.4321 124.113 29.3056 124.301 29.1462 124.459L28.3441 125.253C28.1837 125.412 27.9931 125.538 27.7834 125.623C27.5736 125.709 27.3488 125.752 27.1219 125.752H27.129ZM35.9402 117.027C35.6003 117.027 35.2681 116.927 34.9856 116.74C34.703 116.553 34.4828 116.287 34.3528 115.976C34.2227 115.665 34.1887 115.323 34.255 114.993C34.3213 114.663 34.4849 114.36 34.7251 114.122L35.5272 113.33C35.8518 113.022 36.2852 112.852 36.7347 112.857C37.1841 112.862 37.6138 113.041 37.9316 113.355C38.2494 113.67 38.4302 114.096 38.435 114.541C38.4398 114.986 38.2684 115.415 37.9574 115.736L37.1553 116.528C36.9951 116.687 36.8046 116.813 36.5947 116.899C36.3849 116.985 36.16 117.028 35.933 117.027H35.9402ZM44.7514 108.302C44.4115 108.302 44.0793 108.202 43.7967 108.015C43.5142 107.828 43.294 107.562 43.1639 107.251C43.0339 106.941 42.9999 106.598 43.0661 106.268C43.1324 105.938 43.296 105.635 43.5363 105.397L44.336 104.605C44.6606 104.297 45.094 104.128 45.5434 104.132C45.9929 104.137 46.4226 104.316 46.7404 104.631C47.0583 104.945 47.2389 105.371 47.2437 105.816C47.2486 106.261 47.0771 106.69 46.7662 107.012L45.9664 107.803C45.8063 107.963 45.6158 108.089 45.406 108.174C45.1961 108.26 44.9712 108.303 44.7442 108.302H44.7514ZM53.5649 99.5775C53.2256 99.5769 52.894 99.4769 52.6119 99.29C52.3299 99.1031 52.11 98.8377 51.9801 98.5272C51.8501 98.2168 51.8159 97.8752 51.8817 97.5456C51.9475 97.2159 52.1104 96.9129 52.3498 96.6747L53.1496 95.8805C53.3079 95.7169 53.4975 95.5863 53.7075 95.4962C53.9175 95.4061 54.1435 95.3585 54.3723 95.3561C54.6011 95.3536 54.8281 95.3965 55.0399 95.4821C55.2518 95.5676 55.4443 95.6943 55.6061 95.8545C55.7679 96.0147 55.8957 96.2053 55.9822 96.415C56.0686 96.6248 56.1118 96.8496 56.1094 97.0761C56.1069 97.3027 56.0588 97.5265 55.9679 97.7344C55.8769 97.9423 55.745 98.1301 55.5797 98.2868L54.7801 99.0787C54.6207 99.2371 54.4314 99.3627 54.2228 99.4483C54.0143 99.5339 53.7907 99.5778 53.5649 99.5775ZM62.3761 90.8528C62.0362 90.8533 61.7038 90.7539 61.421 90.5672C61.1383 90.3805 60.9178 90.1149 60.7877 89.804C60.6576 89.4931 60.6236 89.1509 60.69 88.8209C60.7565 88.4908 60.9204 88.1877 61.161 87.95L61.4284 87.6829C61.7529 87.375 62.1864 87.2053 62.6359 87.2101C63.0853 87.2148 63.515 87.3937 63.8328 87.7084C64.1506 88.0231 64.3313 88.4486 64.3362 88.8936C64.341 89.3387 64.1695 89.7679 63.8586 90.0893L63.5888 90.3564C63.4285 90.5153 63.2379 90.641 63.0281 90.7262C62.8182 90.8114 62.5934 90.8544 62.3666 90.8528H62.3761Z" fill="#B0B0B0"/>
<g filter="url(#filter0_d_224_7107)">
<path d="M119.745 260.31C117.546 260.313 115.367 259.887 113.334 259.054C111.302 258.222 109.455 257 107.9 255.46L60.4902 208.515L63.7297 205.307L111.142 252.252C113.425 254.51 116.519 255.778 119.745 255.778C122.972 255.778 126.066 254.51 128.349 252.252L224.868 156.68C227.149 154.419 228.43 151.355 228.43 148.159C228.43 144.964 227.149 141.9 224.868 139.639L128.349 44.0691C126.066 41.8115 122.972 40.5434 119.745 40.5434C116.519 40.5434 113.425 41.8115 111.142 44.0691L64.2573 90.4937L61.0154 87.2861L107.9 40.8614C109.455 39.3205 111.301 38.0982 113.334 37.2642C115.366 36.4302 117.544 36.001 119.744 36.001C121.944 36.001 124.122 36.4302 126.155 37.2642C128.187 38.0982 130.033 39.3205 131.588 40.8614L228.11 136.434C231.251 139.544 233.016 143.763 233.016 148.162C233.016 152.56 231.251 156.779 228.11 159.89L131.588 255.462C130.034 257.003 128.188 258.224 126.155 259.056C124.123 259.888 121.945 260.314 119.745 260.31Z" fill="#B0B0B0"/>
</g>
<g filter="url(#filter1_d_224_7107)">
<path d="M109.089 241.154L25.8256 158.712C24.4264 157.327 23.3165 155.683 22.5592 153.873C21.8019 152.063 21.4121 150.123 21.4121 148.164C21.4121 146.205 21.8019 144.265 22.5592 142.455C23.3165 140.645 24.4264 139.001 25.8256 137.615L109.089 55.1668C111.915 52.3696 115.747 50.7983 119.743 50.7983C123.739 50.7983 127.571 52.3696 130.397 55.1668L213.661 137.615C215.06 139.001 216.17 140.645 216.927 142.455C217.684 144.265 218.074 146.205 218.074 148.164C218.074 150.123 217.684 152.063 216.927 153.873C216.17 155.683 215.06 157.327 213.661 158.712L130.397 241.158C128.998 242.544 127.337 243.642 125.508 244.392C123.68 245.141 121.721 245.527 119.742 245.527C117.763 245.526 115.804 245.14 113.976 244.389C112.148 243.639 110.488 242.54 109.089 241.154Z" fill="white"/>
</g>
<g filter="url(#filter2_d_224_7107)">
<path d="M105.723 233.722L32.6743 161.391C30.8315 159.568 29.3696 157.404 28.3722 155.022C27.3747 152.64 26.8613 150.087 26.8613 147.508C26.8613 144.929 27.3747 142.376 28.3722 139.994C29.3696 137.612 30.8315 135.448 32.6743 133.626L105.723 64.4118C107.564 62.5885 109.75 61.1421 112.156 60.1553C114.562 59.1685 117.14 58.6606 119.744 58.6606C122.348 58.6606 124.927 59.1685 127.332 60.1553C129.738 61.1421 131.924 62.5885 133.765 64.4118L206.814 133.626C208.657 135.448 210.118 137.612 211.116 139.994C212.113 142.376 212.627 144.929 212.627 147.508C212.627 150.087 212.113 152.64 211.116 155.022C210.118 157.404 208.657 159.568 206.814 161.391L133.765 233.722C131.924 235.546 129.738 236.992 127.332 237.979C124.927 238.966 122.348 239.474 119.744 239.474C117.14 239.474 114.562 238.966 112.156 237.979C109.75 236.992 107.564 235.546 105.723 233.722Z" fill="white"/>
</g>
<path d="M73.8936 139.816V142.928H77.8223V144.853H73.8936V149.968H71.5557V137.821H78.0508V139.816H73.8936ZM82.2871 138.305C82.2871 138.686 82.1465 139.011 81.8652 139.28C81.5781 139.556 81.2383 139.693 80.8457 139.693C80.4473 139.693 80.1104 139.559 79.835 139.289C79.5596 139.02 79.4219 138.691 79.4219 138.305C79.4219 137.918 79.5596 137.587 79.835 137.312C80.1104 137.036 80.4473 136.898 80.8457 136.898C81.2441 136.898 81.584 137.033 81.8652 137.303C82.1465 137.578 82.2871 137.912 82.2871 138.305ZM79.6943 149.968V141.021H81.9971V149.968H79.6943ZM89.6436 149.968L87.9121 146.962L86.1807 149.968H83.4297L86.5059 145.45L83.6055 141.021H86.3652L88.0879 143.974L89.8369 141.021H92.3945L89.582 145.433L92.5352 149.968H89.6436ZM101.219 144.642C101.219 145.175 101.189 145.605 101.131 145.934H95.6025C95.6025 147.545 96.4258 148.351 98.0723 148.351C98.9395 148.351 99.8037 148.175 100.665 147.823L100.911 149.572C99.874 149.953 98.7959 150.144 97.6768 150.144C94.7354 150.144 93.2646 148.62 93.2646 145.573C93.2646 144.196 93.6396 143.074 94.3896 142.207C95.1689 141.299 96.209 140.845 97.5098 140.845C98.752 140.845 99.6982 141.211 100.349 141.943C100.929 142.605 101.219 143.505 101.219 144.642ZM98.9336 144.404C98.9688 143.156 98.4531 142.532 97.3867 142.532C96.3438 142.532 95.7549 143.156 95.6201 144.404H98.9336ZM108.61 149.968C108.61 149.458 108.646 148.96 108.716 148.474H108.681C108.147 149.604 107.207 150.17 105.859 150.17C104.793 150.17 103.976 149.789 103.407 149.027C102.868 148.301 102.599 147.281 102.599 145.969C102.599 144.439 103.018 143.212 103.855 142.286C104.711 141.337 105.871 140.862 107.336 140.862C107.74 140.862 108.118 140.886 108.47 140.933V136.828H110.755V149.968H108.61ZM108.47 142.822C108.024 142.729 107.62 142.682 107.257 142.682C105.757 142.682 105.007 143.695 105.007 145.723C105.007 147.41 105.52 148.254 106.545 148.254C107.125 148.254 107.597 147.958 107.96 147.366C108.3 146.81 108.47 146.13 108.47 145.327V142.822ZM124.94 145.02C124.94 146.602 124.542 147.835 123.745 148.72C122.919 149.634 121.744 150.091 120.221 150.091C119.787 150.091 119.403 150.067 119.069 150.021V154.31H116.767V141.021H118.911C118.911 141.63 118.879 142.128 118.814 142.515H118.858C119.397 141.401 120.332 140.845 121.662 140.845C122.717 140.845 123.528 141.208 124.097 141.935C124.659 142.661 124.94 143.689 124.94 145.02ZM122.523 145.266C122.523 143.578 122.014 142.734 120.994 142.734C120.414 142.734 119.942 143.03 119.579 143.622C119.239 144.185 119.069 144.867 119.069 145.67V148.148C119.433 148.26 119.834 148.315 120.273 148.315C121.773 148.315 122.523 147.299 122.523 145.266ZM131.453 143.095C129.795 142.767 128.966 143.839 128.966 146.312V149.968H126.663V141.021H128.843C128.843 141.589 128.787 142.189 128.676 142.822H128.711C129.262 141.375 130.211 140.716 131.559 140.845L131.453 143.095ZM135.725 138.305C135.725 138.686 135.584 139.011 135.303 139.28C135.016 139.556 134.676 139.693 134.283 139.693C133.885 139.693 133.548 139.559 133.272 139.289C132.997 139.02 132.859 138.691 132.859 138.305C132.859 137.918 132.997 137.587 133.272 137.312C133.548 137.036 133.885 136.898 134.283 136.898C134.682 136.898 135.021 137.033 135.303 137.303C135.584 137.578 135.725 137.912 135.725 138.305ZM133.132 149.968V141.021H135.435V149.968H133.132ZM143.828 149.713C143.113 149.988 142.275 150.126 141.314 150.126C138.625 150.126 137.28 148.682 137.28 145.793C137.28 144.328 137.652 143.156 138.396 142.277C139.199 141.334 140.345 140.862 141.833 140.862C142.548 140.862 143.201 140.965 143.793 141.17L143.433 143.147C142.876 142.919 142.319 142.805 141.763 142.805C141.095 142.805 140.579 143.057 140.216 143.561C139.864 144.041 139.688 144.706 139.688 145.556C139.688 147.284 140.386 148.148 141.78 148.148C142.407 148.148 142.99 148.028 143.529 147.788L143.828 149.713ZM152.916 144.642C152.916 145.175 152.887 145.605 152.828 145.934H147.3C147.3 147.545 148.123 148.351 149.77 148.351C150.637 148.351 151.501 148.175 152.362 147.823L152.608 149.572C151.571 149.953 150.493 150.144 149.374 150.144C146.433 150.144 144.962 148.62 144.962 145.573C144.962 144.196 145.337 143.074 146.087 142.207C146.866 141.299 147.906 140.845 149.207 140.845C150.449 140.845 151.396 141.211 152.046 141.943C152.626 142.605 152.916 143.505 152.916 144.642ZM150.631 144.404C150.666 143.156 150.15 142.532 149.084 142.532C148.041 142.532 147.452 143.156 147.317 144.404H150.631ZM160.36 147.182C160.36 148.072 160 148.79 159.279 149.335C158.559 149.874 157.606 150.144 156.423 150.144C155.644 150.144 154.976 150.067 154.419 149.915L154.586 147.99C155.137 148.23 155.772 148.351 156.493 148.351C157.454 148.351 157.935 148.025 157.935 147.375C157.935 147.035 157.744 146.763 157.363 146.558C157.328 146.54 156.912 146.379 156.115 146.074C154.902 145.617 154.296 144.82 154.296 143.684C154.296 142.846 154.604 142.172 155.219 141.662C155.898 141.105 156.856 140.827 158.093 140.827C158.614 140.827 159.153 140.886 159.71 141.003L159.604 142.805C159.077 142.646 158.538 142.567 157.987 142.567C157.108 142.567 156.669 142.875 156.669 143.49C156.669 143.812 156.862 144.079 157.249 144.29L158.515 144.8C159.745 145.286 160.36 146.08 160.36 147.182Z" fill="#565656"/>
<g filter="url(#filter3_d_224_7107)">
<path d="M143.298 73.7751C156.092 61.1072 156.092 40.5685 143.298 27.9006C130.505 15.2327 109.763 15.2327 96.9693 27.9006C84.1758 40.5685 84.1758 61.1072 96.9692 73.7751C109.763 86.443 130.505 86.443 143.298 73.7751Z" fill="#B0B0B0"/>
</g>
<path d="M127.41 40.0666C128.122 39.1966 128.598 38.1562 128.79 37.0469L129.748 37.1766C129.325 39.1715 128.502 40.8558 126.674 41.89C126.512 41.9818 126.394 41.9889 126.227 41.8711C126.126 41.8007 126.011 41.7516 125.891 41.7266C125.77 41.7016 125.646 41.7013 125.525 41.7256C125.404 41.75 125.289 41.7985 125.188 41.8684C125.086 41.9382 125 42.0279 124.933 42.132C124.795 42.3398 124.745 42.5942 124.793 42.8394C124.841 43.0845 124.984 43.3005 125.191 43.4399C125.399 43.5766 125.652 43.627 125.896 43.5802C126.141 43.5334 126.357 43.3932 126.5 43.1892C126.609 43.0443 126.748 42.9252 126.907 42.8405C127.62 42.4712 128.262 41.979 128.805 41.3864C128.851 41.4939 128.868 41.6078 128.933 41.6766C129.721 42.5079 130.512 43.3344 131.304 44.1563C132.155 45.0371 132.565 46.0864 132.565 47.3136C132.56 52.2351 132.56 57.157 132.565 62.0796C132.565 63.6412 131.578 64.6304 130.021 64.6304H121.404C119.867 64.6304 118.876 63.6357 118.876 62.0938C118.876 57.1613 118.876 52.2293 118.876 47.2978C118.865 46.7188 118.97 46.1434 119.185 45.6058C119.399 45.0681 119.719 44.579 120.125 44.1673C121.333 42.9085 122.569 41.6734 123.728 40.3719C124.818 39.1447 126.315 39.0688 127.41 40.0666ZM125.485 50.2029V51.3099C124.118 51.5266 123.45 52.186 123.468 53.2812C123.485 54.3336 124.177 54.9915 125.47 55.1639V57.0134C124.895 57.0664 124.595 56.8157 124.367 56.1009H123.474C123.458 56.5124 123.591 56.9158 123.849 57.2364C124.252 57.7677 124.811 57.9891 125.495 57.9955V59.123H126.431V58.0216C127.787 57.8065 128.454 57.1573 128.448 56.0788C128.443 55.0002 127.75 54.3455 126.445 54.1668V52.3173C127.023 52.2667 127.317 52.5126 127.549 53.2298H128.443C128.456 52.8085 128.315 52.3969 128.049 52.0714C127.645 51.5535 127.092 51.3423 126.42 51.336V50.2029H125.485Z" fill="white"/>
<path d="M118.081 63.4338C117.6 63.1554 117.108 62.8724 116.617 62.5869C114.806 61.5326 112.994 60.4802 111.184 59.4296C109.816 58.6333 109.458 57.2946 110.246 55.9219C112.688 51.6736 115.128 47.4246 117.568 43.1747C118.205 42.0621 119.116 41.3355 120.355 41.0152C120.925 40.8674 121.489 40.6989 122.056 40.5361C122.127 40.5163 122.2 40.506 122.336 40.4775C122.228 40.5993 122.166 40.6728 122.1 40.7416C121.211 41.6657 120.323 42.5882 119.435 43.5092C118.439 44.5458 117.937 45.7841 117.932 47.2256C117.932 52.196 117.934 57.1668 117.938 62.1378C117.939 62.5671 118.031 62.9973 118.081 63.4338Z" fill="white"/>
<path d="M108.841 56.7563C108.203 56.1316 107.491 55.5038 106.862 54.8009C106.069 53.9113 106.136 52.5734 106.941 51.6902C106.995 51.6324 107.05 51.5755 107.105 51.5201C110.562 48.0489 114.019 44.5758 117.475 41.1008C117.575 40.9824 117.666 40.8563 117.747 40.7236L117.848 40.8185C117.803 40.8976 117.758 40.9822 117.712 41.0629C114.961 45.8399 112.212 50.6177 109.464 55.3963C109.212 55.8359 109.039 56.3206 108.841 56.7563Z" fill="white"/>
<path d="M125.474 52.2992V54.1779C125.306 54.2061 125.132 54.185 124.975 54.1171C124.818 54.0493 124.683 53.9376 124.588 53.7952C124.477 53.6548 124.412 53.4841 124.4 53.3057C124.389 53.1273 124.431 52.9495 124.522 52.7958C124.717 52.4312 125.039 52.2786 125.474 52.2992Z" fill="white"/>
<path d="M126.439 57.0276V55.1536C126.615 55.1258 126.795 55.151 126.957 55.226C127.118 55.3011 127.254 55.4225 127.347 55.575C127.451 55.7204 127.508 55.8941 127.512 56.073C127.515 56.2519 127.464 56.4276 127.366 56.5769C127.161 56.909 126.852 57.0671 126.439 57.0276Z" fill="white"/>
<defs>
<filter id="filter0_d_224_7107" x="39.2525" y="17.5949" width="215.001" height="266.785" filterUnits="userSpaceOnUse" color-interpolation-filters="sRGB">
<feFlood flood-opacity="0" result="BackgroundImageFix"/>
<feColorMatrix in="SourceAlpha" type="matrix" values="0 0 0 0 0 0 0 0 0 0 0 0 0 0 0 0 0 0 127 0" result="hardAlpha"/>
<feOffset dy="2.8317"/>
<feGaussianBlur stdDeviation="10.6189"/>
<feComposite in2="hardAlpha" operator="out"/>
<feColorMatrix type="matrix" values="0 0 0 0 0 0 0 0 0 0 0 0 0 0 0 0 0 0 0.15 0"/>
<feBlend mode="normal" in2="BackgroundImageFix" result="effect1_dropShadow_224_7107"/>
<feBlend mode="normal" in="SourceGraphic" in2="effect1_dropShadow_224_7107" result="shape"/>
</filter>
<filter id="filter1_d_224_7107" x="0.17437" y="32.3923" width="239.138" height="237.204" filterUnits="userSpaceOnUse" color-interpolation-filters="sRGB">
<feFlood flood-opacity="0" result="BackgroundImageFix"/>
<feColorMatrix in="SourceAlpha" type="matrix" values="0 0 0 0 0 0 0 0 0 0 0 0 0 0 0 0 0 0 127 0" result="hardAlpha"/>
<feOffset dy="2.8317"/>
<feGaussianBlur stdDeviation="10.6189"/>
<feComposite in2="hardAlpha" operator="out"/>
<feColorMatrix type="matrix" values="0 0 0 0 0 0 0 0 0 0 0 0 0 0 0 0 0 0 0.15 0"/>
<feBlend mode="normal" in2="BackgroundImageFix" result="effect1_dropShadow_224_7107"/>
<feBlend mode="normal" in="SourceGraphic" in2="effect1_dropShadow_224_7107" result="shape"/>
</filter>
<filter id="filter2_d_224_7107" x="5.62359" y="40.2546" width="228.241" height="223.288" filterUnits="userSpaceOnUse" color-interpolation-filters="sRGB">
<feFlood flood-opacity="0" result="BackgroundImageFix"/>
<feColorMatrix in="SourceAlpha" type="matrix" values="0 0 0 0 0 0 0 0 0 0 0 0 0 0 0 0 0 0 127 0" result="hardAlpha"/>
<feOffset dy="2.8317"/>
<feGaussianBlur stdDeviation="10.6189"/>
<feComposite in2="hardAlpha" operator="out"/>
<feColorMatrix type="matrix" values="0 0 0 0 0 0 0 0 0 0 0 0 0 0 0 0 0 0 0.15 0"/>
<feBlend mode="normal" in2="BackgroundImageFix" result="effect1_dropShadow_224_7107"/>
<feBlend mode="normal" in="SourceGraphic" in2="effect1_dropShadow_224_7107" result="shape"/>
</filter>
<filter id="filter3_d_224_7107" x="66.1373" y="-0.0061388" width="107.993" height="107.351" filterUnits="userSpaceOnUse" color-interpolation-filters="sRGB">
<feFlood flood-opacity="0" result="BackgroundImageFix"/>
<feColorMatrix in="SourceAlpha" type="matrix" values="0 0 0 0 0 0 0 0 0 0 0 0 0 0 0 0 0 0 127 0" result="hardAlpha"/>
<feOffset dy="2.8317"/>
<feGaussianBlur stdDeviation="10.6189"/>
<feComposite in2="hardAlpha" operator="out"/>
<feColorMatrix type="matrix" values="0 0 0 0 0 0 0 0 0 0 0 0 0 0 0 0 0 0 0.15 0"/>
<feBlend mode="normal" in2="BackgroundImageFix" result="effect1_dropShadow_224_7107"/>
<feBlend mode="normal" in="SourceGraphic" in2="effect1_dropShadow_224_7107" result="shape"/>
</filter>
</defs>
</svg>
