<svg width="255" height="285" viewBox="0 0 255 285" fill="none" xmlns="http://www.w3.org/2000/svg">
<path d="M62.2299 208.649C62.0041 208.649 61.7804 208.605 61.5719 208.52C61.3633 208.434 61.1739 208.309 61.0147 208.15L60.2127 207.358C59.9017 207.037 59.7303 206.607 59.7351 206.162C59.7399 205.717 59.9206 205.292 60.2384 204.977C60.5563 204.663 60.9859 204.484 61.4354 204.479C61.8848 204.474 62.3183 204.644 62.6428 204.952L63.4449 205.744C63.6852 205.982 63.8488 206.285 63.9151 206.615C63.9813 206.945 63.9473 207.287 63.8173 207.598C63.6872 207.909 63.467 208.175 63.1844 208.362C62.9019 208.549 62.5697 208.649 62.2299 208.649ZM53.4186 199.924C53.1929 199.924 52.9694 199.88 52.7608 199.795C52.5523 199.709 52.3629 199.584 52.2036 199.425L51.4039 198.633C51.0816 198.315 50.9004 197.882 50.9002 197.431C50.9 196.98 51.0807 196.547 51.4027 196.228C51.7246 195.909 52.1614 195.73 52.6169 195.73C53.0724 195.729 53.5094 195.908 53.8317 196.227L54.6337 197.021C54.8744 197.259 55.0383 197.562 55.1048 197.892C55.1712 198.222 55.1372 198.564 55.0071 198.875C54.877 199.186 54.6565 199.452 54.3737 199.638C54.0909 199.825 53.7585 199.925 53.4186 199.924ZM44.6147 191.199C44.1592 191.2 43.7222 191.021 43.3995 190.703L42.5999 189.909C42.4346 189.752 42.3027 189.564 42.2117 189.356C42.1208 189.148 42.0727 188.924 42.0702 188.698C42.0678 188.471 42.111 188.247 42.1974 188.037C42.2839 187.827 42.4117 187.636 42.5735 187.476C42.7353 187.316 42.9278 187.189 43.1397 187.104C43.3515 187.018 43.5785 186.975 43.8073 186.978C44.0361 186.98 44.2621 187.028 44.4721 187.118C44.6821 187.208 44.8717 187.339 45.03 187.502L45.8298 188.297C46.0704 188.534 46.2343 188.837 46.3007 189.167C46.3672 189.497 46.3332 189.84 46.2031 190.15C46.0729 190.461 45.8525 190.727 45.5697 190.914C45.2869 191.1 44.9545 191.2 44.6147 191.199ZM35.8035 182.477C35.3478 182.477 34.9108 182.297 34.5884 181.978L33.7887 181.184C33.4777 180.863 33.3063 180.433 33.3111 179.988C33.3159 179.543 33.4966 179.118 33.8144 178.803C34.1322 178.488 34.562 178.309 35.0114 178.305C35.4608 178.3 35.8943 178.47 36.2189 178.778L37.0186 179.572C37.2588 179.81 37.4224 180.113 37.4887 180.443C37.555 180.773 37.521 181.115 37.3909 181.426C37.2609 181.737 37.0406 182.003 36.7581 182.19C36.4755 182.377 36.1434 182.477 35.8035 182.477ZM26.9923 173.752C26.7669 173.752 26.5439 173.708 26.3358 173.623C26.1276 173.537 25.9387 173.412 25.7796 173.253L24.9775 172.459C24.8181 172.301 24.6916 172.114 24.6054 171.907C24.5192 171.701 24.475 171.48 24.4751 171.256C24.4752 171.033 24.5197 170.812 24.6061 170.606C24.6926 170.399 24.8192 170.212 24.9787 170.054C25.1383 169.896 25.3276 169.771 25.5361 169.686C25.7445 169.6 25.9679 169.556 26.1934 169.557C26.419 169.557 26.6423 169.601 26.8507 169.686C27.059 169.772 27.2483 169.897 27.4077 170.055L28.2074 170.847C28.4477 171.085 28.6113 171.388 28.6776 171.718C28.7438 172.048 28.7098 172.391 28.5798 172.702C28.4497 173.012 28.2295 173.278 27.9469 173.465C27.6644 173.652 27.3322 173.752 26.9923 173.752ZM18.1835 165.027C17.9577 165.028 17.734 164.984 17.5254 164.899C17.3168 164.813 17.1275 164.687 16.9684 164.529L16.1664 163.737C15.864 163.414 15.6997 162.988 15.7079 162.548C15.7161 162.108 15.8962 161.688 16.2104 161.376C16.5246 161.065 16.9484 160.886 17.3929 160.878C17.8374 160.869 18.2679 161.031 18.5941 161.331L19.3962 162.122C19.6365 162.36 19.8001 162.664 19.8663 162.994C19.9326 163.324 19.8986 163.666 19.7685 163.977C19.6385 164.288 19.4183 164.553 19.1357 164.74C18.8532 164.928 18.521 165.027 18.1811 165.027H18.1835ZM10.1339 155.714C9.8014 155.714 9.47618 155.618 9.19747 155.438C8.91877 155.259 8.69846 155.003 8.56308 154.702C8.39359 154.322 8.23365 153.927 8.08564 153.535C7.94552 153.112 7.9783 152.651 8.17691 152.252C8.37551 151.853 8.72413 151.547 9.14811 151.399C9.57208 151.251 10.0377 151.274 10.445 151.462C10.8524 151.65 11.1692 151.988 11.3275 152.405C11.4373 152.712 11.5662 153.022 11.6951 153.322C11.8112 153.581 11.8601 153.865 11.8374 154.147C11.8147 154.43 11.721 154.702 11.565 154.94C11.4089 155.178 11.1955 155.373 10.9439 155.508C10.6923 155.643 10.4106 155.714 10.1243 155.714H10.1339ZM10.2842 143.753C10.0297 143.754 9.77843 143.697 9.54903 143.588C9.3451 143.492 9.16223 143.358 9.01091 143.192C8.8596 143.026 8.74278 142.832 8.66717 142.622C8.59156 142.411 8.55862 142.188 8.57025 141.965C8.58188 141.742 8.63785 141.523 8.73495 141.321C8.91638 140.945 9.11212 140.572 9.32219 140.21C9.43265 140.013 9.58174 139.839 9.76076 139.699C9.93978 139.559 10.1452 139.455 10.3649 139.395C10.5847 139.334 10.8144 139.317 11.0407 139.346C11.2671 139.374 11.4854 139.446 11.6832 139.559C11.8809 139.672 12.054 139.822 12.1924 140.002C12.3308 140.181 12.4317 140.386 12.4893 140.605C12.5468 140.823 12.5599 141.051 12.5276 141.275C12.4954 141.498 12.4184 141.713 12.3014 141.907C12.1367 142.191 11.9816 142.486 11.8383 142.782C11.6982 143.074 11.4769 143.32 11.2004 143.493C10.9239 143.665 10.6036 143.755 10.2771 143.753H10.2842ZM18.439 134.513C18.0991 134.513 17.7669 134.413 17.4843 134.226C17.2018 134.039 16.9816 133.774 16.8515 133.463C16.7215 133.152 16.6874 132.81 16.7537 132.48C16.82 132.15 16.9836 131.846 17.2239 131.608L18.026 130.814C18.1819 130.641 18.3718 130.501 18.5842 130.404C18.7965 130.306 19.0268 130.252 19.2609 130.246C19.4949 130.24 19.7278 130.281 19.9453 130.366C20.1628 130.452 20.3603 130.581 20.5256 130.746C20.691 130.91 20.8207 131.106 20.9068 131.321C20.9929 131.537 21.0336 131.768 21.0264 131.999C21.0193 132.231 20.9644 132.459 20.8651 132.669C20.7658 132.879 20.6242 133.067 20.449 133.22L19.6469 134.015C19.4875 134.173 19.2981 134.298 19.0896 134.384C18.8811 134.47 18.6575 134.514 18.4318 134.513H18.439ZM27.2501 125.789C26.9103 125.789 26.5781 125.689 26.2955 125.502C26.013 125.315 25.7928 125.049 25.6627 124.738C25.5327 124.427 25.4986 124.085 25.5649 123.755C25.6311 123.425 25.7948 123.122 26.035 122.884L26.8371 122.092C26.9966 121.934 27.1858 121.808 27.3941 121.723C27.6025 121.637 27.8258 121.593 28.0514 121.593C28.2769 121.593 28.5003 121.637 28.7087 121.722C28.9172 121.808 29.1066 121.933 29.2661 122.091C29.4257 122.248 29.5523 122.436 29.6387 122.642C29.7252 122.848 29.7696 123.07 29.7697 123.293C29.7699 123.516 29.7256 123.737 29.6394 123.944C29.5532 124.15 29.4267 124.338 29.2673 124.496L28.4652 125.29C28.3048 125.449 28.1142 125.575 27.9045 125.66C27.6947 125.746 27.4699 125.79 27.243 125.789H27.2501ZM36.0613 117.064C35.7214 117.064 35.3892 116.964 35.1067 116.777C34.8241 116.59 34.6039 116.324 34.4739 116.013C34.3438 115.702 34.3098 115.36 34.3761 115.03C34.4424 114.7 34.606 114.397 34.8462 114.159L35.6483 113.367C35.9729 113.059 36.4063 112.889 36.8558 112.894C37.3052 112.899 37.7349 113.078 38.0527 113.393C38.3705 113.707 38.5513 114.133 38.5561 114.578C38.5609 115.023 38.3895 115.452 38.0785 115.773L37.2764 116.565C37.1162 116.724 36.9257 116.851 36.7158 116.936C36.506 117.022 36.2811 117.065 36.0541 117.064H36.0613ZM44.8725 108.339C44.5326 108.339 44.2004 108.239 43.9178 108.052C43.6353 107.865 43.4151 107.6 43.285 107.289C43.155 106.978 43.121 106.636 43.1872 106.305C43.2535 105.975 43.4171 105.672 43.6574 105.434L44.4571 104.642C44.7817 104.334 45.2151 104.165 45.6645 104.169C46.114 104.174 46.5437 104.353 46.8615 104.668C47.1793 104.983 47.36 105.408 47.3648 105.853C47.3697 106.298 47.1982 106.727 46.8873 107.049L46.0875 107.841C45.9274 108 45.7369 108.126 45.5271 108.211C45.3172 108.297 45.0923 108.341 44.8653 108.339H44.8725ZM53.686 99.6146C53.3467 99.614 53.0151 99.514 52.733 99.3271C52.451 99.1402 52.2311 98.8748 52.1012 98.5643C51.9712 98.2539 51.937 97.9123 52.0028 97.5827C52.0686 97.253 52.2315 96.95 52.4709 96.7119L53.2707 95.9176C53.429 95.754 53.6186 95.6234 53.8286 95.5333C54.0386 95.4433 54.2645 95.3956 54.4933 95.3932C54.7222 95.3908 54.9492 95.4336 55.161 95.5192C55.3729 95.6048 55.5654 95.7314 55.7272 95.8916C55.889 96.0518 56.0168 96.2424 56.1033 96.4521C56.1897 96.6619 56.2329 96.8867 56.2305 97.1132C56.228 97.3398 56.1799 97.5636 56.089 97.7715C55.998 97.9794 55.866 98.1672 55.7008 98.324L54.9011 99.1158C54.7418 99.2742 54.5525 99.3998 54.3439 99.4854C54.1354 99.571 53.9118 99.6149 53.686 99.6146ZM62.4972 90.8899C62.1573 90.8904 61.8249 90.791 61.5421 90.6043C61.2594 90.4176 61.0389 90.152 60.9088 89.8411C60.7786 89.5302 60.7446 89.188 60.8111 88.858C60.8776 88.5279 61.0415 88.2248 61.2821 87.9871L61.5495 87.72C61.874 87.4121 62.3075 87.2424 62.7569 87.2472C63.2064 87.2519 63.636 87.4308 63.9539 87.7455C64.2717 88.0603 64.4524 88.4857 64.4573 88.9308C64.4621 89.3758 64.2906 89.805 63.9797 90.1264L63.7099 90.3935C63.5496 90.5524 63.359 90.6781 63.1492 90.7633C62.9393 90.8485 62.7145 90.8916 62.4877 90.8899H62.4972Z" fill="#6B7F6B"/>
<g filter="url(#filter0_d_17098_1747)">
<path d="M119.865 260.346C117.665 260.349 115.486 259.923 113.454 259.09C111.421 258.258 109.574 257.036 108.019 255.496L60.6094 208.551L63.8488 205.343L111.261 252.288C113.544 254.546 116.638 255.814 119.865 255.814C123.091 255.814 126.185 254.546 128.468 252.288L224.988 156.716C227.268 154.455 228.549 151.391 228.549 148.195C228.549 145 227.268 141.936 224.988 139.675L128.468 44.1052C126.185 41.8476 123.091 40.5796 119.865 40.5796C116.638 40.5796 113.544 41.8476 111.261 44.1052L64.3764 90.5298L61.1345 87.3222L108.019 40.8975C109.574 39.3567 111.421 38.1343 113.453 37.3003C115.485 36.4664 117.663 36.0371 119.863 36.0371C122.063 36.0371 124.242 36.4664 126.274 37.3003C128.306 38.1343 130.153 39.3567 131.708 40.8975L228.229 136.47C231.37 139.58 233.135 143.799 233.135 148.198C233.135 152.597 231.37 156.815 228.229 159.926L131.708 255.498C130.153 257.039 128.307 258.26 126.275 259.092C124.242 259.924 122.064 260.35 119.865 260.346Z" fill="#6B7F6B"/>
</g>
<g filter="url(#filter1_d_17098_1747)">
<path d="M109.208 241.19L25.9448 158.749C24.5456 157.364 23.4356 155.719 22.6783 153.909C21.9211 152.099 21.5312 150.16 21.5313 148.2C21.5312 146.241 21.9211 144.301 22.6783 142.492C23.4356 140.682 24.5456 139.037 25.9448 137.652L109.208 55.2034C112.034 52.4063 115.866 50.835 119.862 50.835C123.858 50.835 127.69 52.4063 130.516 55.2034L213.78 137.652C215.179 139.037 216.289 140.682 217.046 142.492C217.803 144.301 218.193 146.241 218.193 148.2C218.193 150.16 217.803 152.099 217.046 153.909C216.289 155.719 215.179 157.364 213.78 158.749L130.516 241.195C129.117 242.58 127.456 243.679 125.628 244.429C123.799 245.178 121.84 245.564 119.861 245.563C117.882 245.563 115.923 245.176 114.095 244.426C112.268 243.676 110.607 242.576 109.208 241.19Z" fill="white"/>
</g>
<g filter="url(#filter2_d_17098_1747)">
<path d="M105.84 233.759L32.7914 161.427C30.9487 159.605 29.4868 157.441 28.4893 155.059C27.4919 152.677 26.9785 150.124 26.9785 147.545C26.9785 144.966 27.4919 142.413 28.4893 140.031C29.4868 137.649 30.9487 135.484 32.7914 133.662L105.84 64.4484C107.681 62.6251 109.867 61.1787 112.273 60.192C114.679 59.2052 117.257 58.6973 119.861 58.6973C122.465 58.6973 125.044 59.2052 127.449 60.192C129.855 61.1787 132.041 62.6251 133.882 64.4484L206.931 133.662C208.774 135.484 210.236 137.649 211.233 140.031C212.23 142.413 212.744 144.966 212.744 147.545C212.744 150.124 212.23 152.677 211.233 155.059C210.236 157.441 208.774 159.605 206.931 161.427L133.882 233.759C132.041 235.582 129.855 237.029 127.449 238.015C125.044 239.002 122.465 239.51 119.861 239.51C117.257 239.51 114.679 239.002 112.273 238.015C109.867 237.029 107.681 235.582 105.84 233.759Z" fill="white"/>
</g>
<g filter="url(#filter3_d_17098_1747)">
<path d="M143.091 73.8112C155.885 61.1433 155.885 40.6046 143.091 27.9367C130.298 15.2689 109.556 15.2688 96.7622 27.9367C83.9688 40.6046 83.9688 61.1434 96.7622 73.8113C109.556 86.4792 130.298 86.4791 143.091 73.8112Z" fill="#6B7F6B"/>
</g>
<path d="M116.003 55.2201C116.272 55.0181 116.548 54.7934 116.843 54.5938C116.947 54.5412 117.067 54.5302 117.179 54.5632C117.368 54.618 117.536 54.7535 117.727 54.7887C118.127 54.8607 118.215 55.1097 118.228 55.4526C118.238 55.6937 118.287 55.9325 118.321 56.1831H121.717C121.766 55.8386 121.802 55.4902 121.872 55.1488C121.905 55.0396 121.982 54.9479 122.085 54.8936C122.33 54.7668 122.598 54.6807 122.847 54.5585C122.99 54.4881 123.087 54.4857 123.219 54.593C123.485 54.813 123.768 55.0134 124.019 55.2021L126.442 52.822C126.243 52.5731 126.012 52.274 125.766 51.9812C125.655 51.8512 125.629 51.7385 125.719 51.5897C125.792 51.4839 125.843 51.365 125.868 51.2398C125.924 50.8014 126.206 50.6871 126.604 50.6777C126.871 50.6714 127.136 50.6182 127.42 50.5845C127.439 50.4835 127.456 50.3927 127.477 50.2713C127.733 50.2713 127.991 50.2713 128.247 50.2713C129.207 50.2713 129.776 49.7147 129.778 48.7791C129.778 48.0166 129.778 47.2532 129.778 46.4899V46.2057C130.767 46.1439 131.624 46.9776 131.632 48.0064C131.642 49.3859 131.632 50.7653 131.632 52.1448C131.632 53.9841 131.632 55.8232 131.632 57.662V58.0002H108.426C108.421 57.9313 108.412 57.8655 108.412 57.7998C108.412 54.5523 108.412 51.3045 108.412 48.0565C108.412 46.9972 109.177 46.2198 110.268 46.1885V46.5016C110.268 47.2845 110.264 48.0675 110.268 48.8504C110.273 49.6967 110.853 50.2651 111.713 50.2752C111.992 50.2752 112.273 50.2752 112.568 50.2752C112.585 50.3817 112.6 50.4733 112.617 50.5821C113.017 50.6338 113.411 50.6737 113.801 50.7442C113.91 50.7804 114.003 50.8548 114.06 50.9532C114.132 51.066 114.14 51.221 114.209 51.333C114.444 51.6868 114.359 51.9687 114.069 52.2513C113.881 52.4353 113.735 52.6623 113.582 52.8565L116.003 55.2201Z" fill="white"/>
<path d="M122.879 44.6323L123.964 43.8134L125.22 45.0457L124.432 46.0424C124.686 46.6436 124.918 47.2105 125.169 47.7694C125.201 47.8399 125.333 47.8939 125.426 47.908C125.779 47.962 126.136 47.9973 126.509 48.0411V49.7776C126.155 49.823 125.802 49.8559 125.452 49.9209C125.406 49.9333 125.362 49.9556 125.326 49.9861C125.289 50.0167 125.259 50.0548 125.239 50.0978C125.022 50.6913 124.82 51.2902 124.584 51.9713C124.748 52.1803 124.984 52.4786 125.197 52.7487L123.932 53.9865C123.742 53.844 123.502 53.6733 123.273 53.4847C123.158 53.3907 123.078 53.3891 122.935 53.4549C122.37 53.7148 121.79 53.9434 121.221 54.1948C121.177 54.2141 121.138 54.2419 121.106 54.2765C121.074 54.3111 121.049 54.3517 121.034 54.396C120.975 54.6723 120.947 54.955 120.903 55.2572H119.139C119.097 54.9636 119.059 54.6739 119.009 54.3874C119.001 54.3491 118.985 54.3129 118.962 54.2812C118.938 54.2495 118.909 54.2229 118.874 54.2034C118.223 53.9466 117.567 53.7007 116.852 53.4283C116.641 53.5849 116.349 53.8041 116.072 54.0108L114.824 52.7769L115.455 51.9729C115.223 51.3004 115.019 50.692 114.799 50.0892C114.777 50.0469 114.746 50.0098 114.707 49.9805C114.669 49.9511 114.625 49.9303 114.578 49.9193C114.239 49.8582 113.893 49.8261 113.535 49.7745V48.0482C113.887 48.0035 114.231 47.9495 114.575 47.9205C114.768 47.9041 114.856 47.8313 114.928 47.6457C115.127 47.1275 115.363 46.6225 115.61 46.051C115.383 45.755 115.099 45.3957 114.831 45.0504L116.09 43.8189C116.387 44.0459 116.72 44.2886 117.042 44.5486C117.169 44.6503 117.263 44.6425 117.412 44.576C117.844 44.3818 118.286 44.2049 118.733 44.0514C118.893 43.9974 118.961 43.9348 118.979 43.7782C119.024 43.3711 119.081 42.9655 119.139 42.5459H120.906C120.957 42.9475 121.01 43.3421 121.054 43.7383C121.073 43.9105 121.134 43.9958 121.325 44.0561C121.833 44.2166 122.327 44.4241 122.879 44.6323ZM120.013 51.8045C120.56 51.8076 121.095 51.6519 121.551 51.3572C122.007 51.0624 122.363 50.6418 122.575 50.1486C122.787 49.6554 122.844 49.1118 122.74 48.5866C122.636 48.0614 122.375 47.5782 121.99 47.1983C121.606 46.8183 121.115 46.5586 120.579 46.452C120.044 46.3455 119.488 46.3968 118.982 46.5997C118.476 46.8025 118.044 47.1476 117.738 47.5914C117.433 48.0352 117.269 48.5576 117.268 49.0926C117.265 49.4474 117.334 49.7992 117.471 50.1278C117.607 50.4564 117.809 50.7554 118.064 51.0074C118.319 51.2594 118.623 51.4596 118.957 51.5964C119.292 51.7332 119.651 51.8039 120.013 51.8045Z" fill="white"/>
<path d="M108.411 58.9512H131.655C131.63 59.3959 131.649 59.8296 131.576 60.2461C131.427 61.0486 130.686 61.6311 129.854 61.66C129.755 61.66 129.655 61.66 129.555 61.66H110.496C109.148 61.66 108.411 60.9335 108.41 59.608L108.411 58.9512Z" fill="white"/>
<path d="M124.198 62.5986V63.946H124.535C125.045 63.946 125.553 63.9398 126.062 63.9499C126.122 63.9488 126.182 63.9594 126.238 63.9812C126.294 64.0031 126.345 64.0356 126.388 64.077C126.431 64.1183 126.465 64.1676 126.488 64.2221C126.511 64.2765 126.523 64.3349 126.523 64.3938C126.523 64.642 126.343 64.8229 126.068 64.8432C125.979 64.8495 125.888 64.8432 125.799 64.8432H114.245C114.195 64.8432 114.145 64.8432 114.095 64.8432C113.727 64.8377 113.52 64.6741 113.523 64.3899C113.527 64.1057 113.735 63.9452 114.104 63.9437C114.67 63.9437 115.237 63.9437 115.838 63.9437V62.5986H124.198Z" fill="white"/>
<path d="M127.465 49.3693V48.4658L127.922 48.4376V48.1245C127.922 46.6182 127.922 45.1116 127.922 43.6047C127.922 43.135 128.066 42.9917 128.544 42.9909C129.042 42.9909 129.541 42.9839 130.04 42.9909C130.226 42.9949 130.338 42.9565 130.436 42.778C130.584 42.5085 130.822 42.297 131.11 42.1791C131.398 42.0612 131.719 42.044 132.019 42.1305C132.323 42.2178 132.588 42.4039 132.77 42.6582C132.952 42.9125 133.039 43.2198 133.019 43.5296C133.002 43.8297 132.885 44.1159 132.684 44.3436C132.484 44.5714 132.212 44.7278 131.911 44.7885C131.621 44.8474 131.318 44.8117 131.05 44.6869C130.782 44.5622 130.562 44.3551 130.425 44.0972C130.342 43.9406 130.256 43.8897 130.083 43.8976C129.764 43.9133 129.443 43.9133 129.124 43.8976C128.899 43.8858 128.835 43.9602 128.836 44.1794C128.845 45.6763 128.841 47.1732 128.84 48.6702C128.84 49.2573 128.725 49.3677 128.121 49.3685L127.465 49.3693Z" fill="white"/>
<path d="M112.127 48.4325L112.58 48.4607V49.3328C112.231 49.3328 111.875 49.3657 111.529 49.3227C111.257 49.289 111.209 49.0463 111.209 48.8012C111.209 47.5588 111.209 46.3171 111.209 45.0754V43.9143H109.723C109.559 44.2831 109.286 44.5955 108.851 44.7372C108.516 44.8471 108.151 44.828 107.831 44.6838C107.51 44.5397 107.258 44.2813 107.125 43.9613C106.994 43.6461 106.987 43.2943 107.106 42.9746C107.226 42.6549 107.462 42.3902 107.77 42.2319C108.082 42.0689 108.447 42.0314 108.787 42.1273C109.127 42.2231 109.415 42.4449 109.59 42.7455C109.701 42.9365 109.812 42.9983 110.028 42.9913C110.536 42.9741 111.044 42.9843 111.553 42.9866C111.97 42.9866 112.126 43.1432 112.126 43.5566C112.126 45.0702 112.126 46.5859 112.126 48.1037L112.127 48.4325Z" fill="white"/>
<path d="M112.517 39.3453C113.284 39.3453 114.032 39.3453 114.779 39.3453C115.203 39.3453 115.361 39.4956 115.362 39.905C115.362 40.9228 115.369 41.9406 115.356 42.9584C115.345 43.0976 115.289 43.2298 115.196 43.3357C114.986 43.5808 114.747 43.8055 114.453 44.1014V40.2472C113.808 40.2472 113.202 40.2385 112.598 40.2581C112.523 40.2581 112.443 40.4077 112.384 40.5C112.238 40.7409 112.019 40.9314 111.758 41.0453C111.496 41.1591 111.205 41.1908 110.925 41.1358C110.629 41.0779 110.361 40.9279 110.16 40.7081C109.959 40.4883 109.836 40.2107 109.81 39.9168C109.786 39.6425 109.847 39.3674 109.985 39.1277C110.124 38.8881 110.333 38.6951 110.586 38.5741C111.321 38.2226 112.061 38.5138 112.517 39.3453Z" fill="white"/>
<path d="M125.599 40.254V44.0903C125.271 43.7646 124.996 43.5023 124.737 43.2291C124.687 43.1751 124.682 43.067 124.682 42.9833C124.679 41.9561 124.679 40.9289 124.682 39.9017C124.682 39.5103 124.842 39.3537 125.242 39.3537C125.93 39.3537 126.618 39.3482 127.307 39.3537C127.373 39.362 127.441 39.3485 127.499 39.3154C127.556 39.2822 127.602 39.2313 127.627 39.1705C127.769 38.8982 128.002 38.6818 128.288 38.5573C128.573 38.4328 128.894 38.4078 129.196 38.4862C129.492 38.5648 129.754 38.7359 129.941 38.9735C130.129 39.211 130.232 39.502 130.236 39.8023C130.236 40.1083 130.132 40.4056 129.94 40.6469C129.748 40.8882 129.478 41.0594 129.175 41.1333C128.555 41.2898 127.95 41.0189 127.61 40.4388C127.57 40.3707 127.5 40.2697 127.441 40.2689C126.841 40.2494 126.234 40.254 125.599 40.254Z" fill="white"/>
<path d="M120.49 41.6118H119.551V40.6128C119.551 40.0945 119.542 39.5762 119.556 39.0587C119.567 38.9847 119.553 38.9092 119.515 38.8443C119.477 38.7795 119.418 38.729 119.347 38.701C119.075 38.5598 118.861 38.3328 118.738 38.057C118.615 37.7812 118.592 37.4728 118.671 37.1821C118.747 36.8866 118.924 36.6251 119.171 36.4403C119.419 36.2555 119.723 36.1582 120.035 36.1643C120.341 36.1641 120.639 36.2641 120.881 36.4485C121.123 36.6329 121.295 36.8911 121.37 37.1821C121.45 37.4727 121.426 37.781 121.303 38.0568C121.181 38.3327 120.966 38.5597 120.695 38.701C120.526 38.791 120.485 38.8881 120.486 39.0634C120.495 39.9027 120.49 40.7443 120.49 41.6118Z" fill="white"/>
<defs>
<filter id="filter0_d_17098_1747" x="39.3716" y="17.6311" width="215.001" height="266.785" filterUnits="userSpaceOnUse" color-interpolation-filters="sRGB">
<feFlood flood-opacity="0" result="BackgroundImageFix"/>
<feColorMatrix in="SourceAlpha" type="matrix" values="0 0 0 0 0 0 0 0 0 0 0 0 0 0 0 0 0 0 127 0" result="hardAlpha"/>
<feOffset dy="2.8317"/>
<feGaussianBlur stdDeviation="10.6189"/>
<feComposite in2="hardAlpha" operator="out"/>
<feColorMatrix type="matrix" values="0 0 0 0 0 0 0 0 0 0 0 0 0 0 0 0 0 0 0.15 0"/>
<feBlend mode="normal" in2="BackgroundImageFix" result="effect1_dropShadow_17098_1747"/>
<feBlend mode="normal" in="SourceGraphic" in2="effect1_dropShadow_17098_1747" result="shape"/>
</filter>
<filter id="filter1_d_17098_1747" x="0.29351" y="32.4289" width="239.138" height="237.204" filterUnits="userSpaceOnUse" color-interpolation-filters="sRGB">
<feFlood flood-opacity="0" result="BackgroundImageFix"/>
<feColorMatrix in="SourceAlpha" type="matrix" values="0 0 0 0 0 0 0 0 0 0 0 0 0 0 0 0 0 0 127 0" result="hardAlpha"/>
<feOffset dy="2.8317"/>
<feGaussianBlur stdDeviation="10.6189"/>
<feComposite in2="hardAlpha" operator="out"/>
<feColorMatrix type="matrix" values="0 0 0 0 0 0 0 0 0 0 0 0 0 0 0 0 0 0 0.15 0"/>
<feBlend mode="normal" in2="BackgroundImageFix" result="effect1_dropShadow_17098_1747"/>
<feBlend mode="normal" in="SourceGraphic" in2="effect1_dropShadow_17098_1747" result="shape"/>
</filter>
<filter id="filter2_d_17098_1747" x="5.74078" y="40.2912" width="228.241" height="223.288" filterUnits="userSpaceOnUse" color-interpolation-filters="sRGB">
<feFlood flood-opacity="0" result="BackgroundImageFix"/>
<feColorMatrix in="SourceAlpha" type="matrix" values="0 0 0 0 0 0 0 0 0 0 0 0 0 0 0 0 0 0 127 0" result="hardAlpha"/>
<feOffset dy="2.8317"/>
<feGaussianBlur stdDeviation="10.6189"/>
<feComposite in2="hardAlpha" operator="out"/>
<feColorMatrix type="matrix" values="0 0 0 0 0 0 0 0 0 0 0 0 0 0 0 0 0 0 0.15 0"/>
<feBlend mode="normal" in2="BackgroundImageFix" result="effect1_dropShadow_17098_1747"/>
<feBlend mode="normal" in="SourceGraphic" in2="effect1_dropShadow_17098_1747" result="shape"/>
</filter>
<filter id="filter3_d_17098_1747" x="65.9293" y="0.0295057" width="107.995" height="107.352" filterUnits="userSpaceOnUse" color-interpolation-filters="sRGB">
<feFlood flood-opacity="0" result="BackgroundImageFix"/>
<feColorMatrix in="SourceAlpha" type="matrix" values="0 0 0 0 0 0 0 0 0 0 0 0 0 0 0 0 0 0 127 0" result="hardAlpha"/>
<feOffset dy="2.8317"/>
<feGaussianBlur stdDeviation="10.6189"/>
<feComposite in2="hardAlpha" operator="out"/>
<feColorMatrix type="matrix" values="0 0 0 0 0 0 0 0 0 0 0 0 0 0 0 0 0 0 0.15 0"/>
<feBlend mode="normal" in2="BackgroundImageFix" result="effect1_dropShadow_17098_1747"/>
<feBlend mode="normal" in="SourceGraphic" in2="effect1_dropShadow_17098_1747" result="shape"/>
</filter>
</defs>
</svg>
