<svg width="255" height="285" viewBox="0 0 255 285" fill="none" xmlns="http://www.w3.org/2000/svg">
<path d="M62.2025 208.433C61.9767 208.433 61.7531 208.39 61.5445 208.304C61.3359 208.218 61.1466 208.093 60.9874 207.934L60.1853 207.142C59.8744 206.821 59.703 206.392 59.7078 205.947C59.7126 205.502 59.8933 205.076 60.2111 204.761C60.5289 204.447 60.9586 204.268 61.408 204.263C61.8575 204.258 62.2909 204.428 62.6155 204.736L63.4176 205.528C63.6578 205.766 63.8214 206.069 63.8877 206.399C63.954 206.729 63.92 207.071 63.7899 207.382C63.6599 207.693 63.4397 207.959 63.1571 208.146C62.8745 208.333 62.5424 208.433 62.2025 208.433ZM53.3913 199.708C53.1656 199.708 52.942 199.665 52.7335 199.579C52.5249 199.493 52.3356 199.368 52.1762 199.209L51.3765 198.418C51.0542 198.099 50.8731 197.666 50.8728 197.215C50.8726 196.764 51.0534 196.332 51.3753 196.012C51.6973 195.693 52.1341 195.514 52.5896 195.514C53.0451 195.513 53.4821 195.692 53.8043 196.011L54.6064 196.805C54.847 197.043 55.011 197.346 55.0774 197.676C55.1439 198.006 55.1099 198.348 54.9798 198.659C54.8496 198.97 54.6291 199.236 54.3464 199.423C54.0636 199.609 53.7312 199.709 53.3913 199.708ZM44.5873 190.983C44.1319 190.984 43.6948 190.805 43.3722 190.487L42.5725 189.693C42.4073 189.536 42.2753 189.348 42.1844 189.14C42.0934 188.932 42.0453 188.709 42.0429 188.482C42.0404 188.256 42.0837 188.031 42.1701 187.821C42.2565 187.611 42.3844 187.421 42.5462 187.26C42.708 187.1 42.9005 186.974 43.1123 186.888C43.3242 186.802 43.5512 186.76 43.78 186.762C44.0088 186.764 44.2348 186.812 44.4448 186.902C44.6547 186.992 44.8444 187.123 45.0027 187.286L45.8024 188.081C46.043 188.318 46.2069 188.622 46.2734 188.952C46.3399 189.282 46.3059 189.624 46.1757 189.935C46.0456 190.246 45.8251 190.511 45.5424 190.698C45.2596 190.885 44.9272 190.984 44.5873 190.983ZM35.7762 182.261C35.3204 182.261 34.8834 182.081 34.5611 181.762L33.7613 180.968C33.4504 180.647 33.2789 180.218 33.2838 179.772C33.2886 179.327 33.4692 178.902 33.7871 178.587C34.1049 178.273 34.5346 178.094 34.9841 178.089C35.4335 178.084 35.867 178.254 36.1915 178.562L36.9912 179.356C37.2315 179.594 37.3951 179.897 37.4614 180.227C37.5276 180.557 37.4936 180.899 37.3636 181.21C37.2335 181.521 37.0133 181.787 36.7308 181.974C36.4482 182.161 36.116 182.261 35.7762 182.261ZM26.9649 173.536C26.7396 173.536 26.5165 173.492 26.3084 173.407C26.1003 173.321 25.9113 173.196 25.7523 173.038L24.9502 172.243C24.7908 172.085 24.6643 171.898 24.5781 171.691C24.4919 171.485 24.4476 171.264 24.4477 171.041C24.4478 170.817 24.4924 170.596 24.5788 170.39C24.6652 170.184 24.7918 169.996 24.9514 169.838C25.111 169.68 25.3003 169.555 25.5087 169.47C25.7172 169.384 25.9405 169.341 26.1661 169.341C26.3916 169.341 26.615 169.385 26.8233 169.47C27.0317 169.556 27.2209 169.681 27.3803 169.839L28.1801 170.631C28.4203 170.869 28.5839 171.173 28.6502 171.503C28.7165 171.833 28.6825 172.175 28.5524 172.486C28.4224 172.797 28.2021 173.062 27.9196 173.249C27.637 173.436 27.3048 173.536 26.9649 173.536ZM18.1562 164.812C17.9304 164.812 17.7067 164.769 17.4981 164.683C17.2895 164.597 17.1002 164.472 16.9411 164.313L16.139 163.521C15.8367 163.198 15.6723 162.772 15.6806 162.332C15.6888 161.892 15.8689 161.472 16.1831 161.161C16.4973 160.849 16.9211 160.671 17.3655 160.662C17.81 160.653 18.2406 160.816 18.5668 161.115L19.3689 161.907C19.6092 162.145 19.7727 162.448 19.839 162.778C19.9053 163.108 19.8713 163.45 19.7412 163.761C19.6112 164.072 19.3909 164.338 19.1084 164.525C18.8258 164.712 18.4937 164.812 18.1538 164.812H18.1562ZM10.1065 155.498C9.77406 155.498 9.44883 155.402 9.17013 155.222C8.89142 155.043 8.67112 154.787 8.53574 154.487C8.36624 154.106 8.2063 153.711 8.0583 153.319C7.91818 152.896 7.95096 152.436 8.14956 152.036C8.34817 151.637 8.69679 151.331 9.12076 151.183C9.54474 151.035 10.0103 151.058 10.4177 151.246C10.8251 151.434 11.1419 151.773 11.3001 152.189C11.4099 152.496 11.5389 152.806 11.6678 153.106C11.7839 153.365 11.8328 153.649 11.81 153.932C11.7873 154.214 11.6937 154.487 11.5376 154.724C11.3816 154.962 11.1681 155.157 10.9165 155.292C10.6649 155.427 10.3832 155.498 10.097 155.498H10.1065ZM10.2569 143.538C10.0024 143.538 9.75109 143.481 9.52168 143.372C9.31776 143.276 9.13488 143.142 8.98357 142.976C8.83226 142.81 8.71544 142.616 8.63983 142.406C8.56422 142.195 8.53127 141.972 8.5429 141.749C8.55454 141.526 8.61051 141.307 8.70761 141.105C8.88904 140.729 9.08478 140.356 9.29485 139.994C9.40531 139.797 9.5544 139.623 9.73342 139.483C9.91244 139.343 10.1178 139.24 10.3376 139.179C10.5573 139.118 10.7871 139.102 11.0134 139.13C11.2397 139.158 11.4581 139.231 11.6558 139.343C11.8536 139.456 12.0267 139.606 12.1651 139.786C12.3035 139.965 12.4044 140.171 12.4619 140.389C12.5195 140.608 12.5325 140.835 12.5003 141.059C12.468 141.283 12.3911 141.498 12.2741 141.692C12.1094 141.975 11.9542 142.271 11.811 142.566C11.6708 142.858 11.4496 143.105 11.1731 143.277C10.8966 143.449 10.5763 143.539 10.2497 143.538H10.2569ZM18.4116 134.298C18.0718 134.298 17.7395 134.198 17.457 134.011C17.1744 133.824 16.9542 133.558 16.8242 133.247C16.6941 132.936 16.6601 132.594 16.7264 132.264C16.7926 131.934 16.9563 131.631 17.1965 131.393L17.9987 130.598C18.1545 130.425 18.3445 130.286 18.5568 130.188C18.7692 130.09 18.9995 130.037 19.2335 130.03C19.4676 130.024 19.7005 130.065 19.918 130.151C20.1355 130.237 20.333 130.366 20.4983 130.53C20.6636 130.694 20.7933 130.89 20.8794 131.105C20.9656 131.321 21.0063 131.552 20.9991 131.784C20.9919 132.015 20.937 132.243 20.8377 132.453C20.7384 132.663 20.5968 132.851 20.4216 133.005L19.6195 133.799C19.4601 133.957 19.2707 134.083 19.0622 134.168C18.8537 134.254 18.6302 134.298 18.4045 134.298H18.4116ZM27.2228 125.573C26.8829 125.573 26.5507 125.473 26.2682 125.286C25.9856 125.099 25.7654 124.833 25.6354 124.522C25.5053 124.211 25.4712 123.869 25.5375 123.539C25.6038 123.209 25.7674 122.906 26.0077 122.668L26.8098 121.876C26.9692 121.718 27.1585 121.593 27.3668 121.507C27.5751 121.421 27.7985 121.377 28.024 121.377C28.2496 121.377 28.473 121.421 28.6814 121.506C28.8898 121.592 29.0792 121.717 29.2388 121.875C29.3984 122.033 29.525 122.22 29.6114 122.426C29.6978 122.633 29.7423 122.854 29.7424 123.077C29.7425 123.3 29.6982 123.522 29.612 123.728C29.5258 123.934 29.3994 124.122 29.24 124.28L28.4379 125.074C28.2775 125.233 28.0869 125.359 27.8771 125.445C27.6673 125.53 27.4425 125.574 27.2156 125.573H27.2228ZM36.0339 116.848C35.6941 116.848 35.3619 116.748 35.0793 116.561C34.7968 116.374 34.5766 116.108 34.4465 115.797C34.3165 115.487 34.2825 115.144 34.3487 114.814C34.415 114.484 34.5786 114.181 34.8189 113.943L35.621 113.151C35.9455 112.843 36.379 112.674 36.8284 112.678C37.2779 112.683 37.7075 112.862 38.0254 113.177C38.3432 113.491 38.5239 113.917 38.5287 114.362C38.5335 114.807 38.3621 115.236 38.0512 115.558L37.249 116.349C37.0889 116.509 36.8983 116.635 36.6885 116.72C36.4787 116.806 36.2537 116.849 36.0268 116.848H36.0339ZM44.8451 108.123C44.5053 108.123 44.173 108.023 43.8905 107.836C43.6079 107.649 43.3877 107.384 43.2577 107.073C43.1276 106.762 43.0936 106.42 43.1599 106.09C43.2262 105.76 43.3898 105.456 43.63 105.218L44.4298 104.427C44.7543 104.119 45.1877 103.949 45.6372 103.954C46.0866 103.958 46.5163 104.137 46.8342 104.452C47.152 104.767 47.3327 105.192 47.3375 105.637C47.3423 106.082 47.1709 106.511 46.8599 106.833L46.0602 107.625C45.9 107.784 45.7095 107.91 45.4997 107.996C45.2899 108.081 45.0649 108.125 44.838 108.123H44.8451ZM53.6587 99.3988C53.3193 99.3982 52.9877 99.2981 52.7057 99.1112C52.4236 98.9243 52.2038 98.6589 52.0738 98.3485C51.9439 98.0381 51.9097 97.6965 51.9755 97.3668C52.0413 97.0372 52.2041 96.7342 52.4436 96.496L53.2433 95.7018C53.4016 95.5382 53.5913 95.4075 53.8012 95.3175C54.0112 95.2274 54.2372 95.1798 54.466 95.1774C54.6948 95.1749 54.9218 95.2178 55.1337 95.3034C55.3455 95.3889 55.538 95.5155 55.6998 95.6758C55.8616 95.836 55.9895 96.0265 56.0759 96.2363C56.1623 96.4461 56.2056 96.6709 56.2031 96.8974C56.2007 97.124 56.1526 97.3478 56.0616 97.5557C55.9707 97.7636 55.8387 97.9514 55.6735 98.1081L54.8738 98.9C54.7145 99.0584 54.5251 99.184 54.3166 99.2696C54.108 99.3552 53.8844 99.3991 53.6587 99.3988ZM62.4698 90.674C62.13 90.6746 61.7976 90.5752 61.5148 90.3885C61.232 90.2018 61.0116 89.9362 60.8814 89.6253C60.7513 89.3144 60.7173 88.9722 60.7838 88.6421C60.8502 88.3121 61.0142 88.009 61.2548 87.7713L61.5221 87.5042C61.8467 87.1963 62.2802 87.0266 62.7296 87.0313C63.1791 87.0361 63.6087 87.215 63.9265 87.5297C64.2444 87.8444 64.4251 88.2699 64.4299 88.7149C64.4347 89.16 64.2633 89.5892 63.9524 89.9105L63.6826 90.1777C63.5223 90.3366 63.3317 90.4623 63.1218 90.5475C62.912 90.6327 62.6871 90.6757 62.4603 90.674H62.4698Z" fill="#6CA6D1"/>
<g filter="url(#filter0_d_224_7134)">
<path d="M119.839 260.131C117.64 260.135 115.461 259.708 113.428 258.875C111.395 258.043 109.549 256.822 107.994 255.281L60.584 208.336L63.8234 205.129L111.236 252.073C113.519 254.331 116.613 255.599 119.839 255.599C123.066 255.599 126.16 254.331 128.443 252.073L224.962 156.501C227.243 154.24 228.524 151.176 228.524 147.981C228.524 144.785 227.243 141.721 224.962 139.46L128.443 43.8903C126.16 41.6328 123.066 40.3647 119.839 40.3647C116.613 40.3647 113.519 41.6328 111.236 43.8903L64.351 90.315L61.1092 87.1073L107.994 40.6827C109.549 39.1418 111.395 37.9195 113.427 37.0855C115.46 36.2515 117.638 35.8223 119.838 35.8223C122.038 35.8223 124.216 36.2515 126.248 37.0855C128.281 37.9195 130.127 39.1418 131.682 40.6827L228.204 136.255C231.345 139.366 233.11 143.584 233.11 147.983C233.11 152.382 231.345 156.6 228.204 159.711L131.682 255.283C130.128 256.824 128.282 258.045 126.249 258.877C124.217 259.709 122.038 260.136 119.839 260.131Z" fill="#6CA6D1"/>
</g>
<g filter="url(#filter1_d_224_7134)">
<path d="M109.183 240.975L25.9194 158.533C24.5202 157.148 23.4102 155.503 22.653 153.694C21.8957 151.884 21.5059 149.944 21.5059 147.985C21.5059 146.026 21.8957 144.086 22.653 142.276C23.4102 140.466 24.5202 138.821 25.9194 137.436L109.183 54.9876C112.009 52.1905 115.841 50.6191 119.837 50.6191C123.833 50.6191 127.665 52.1905 130.491 54.9876L213.754 137.436C215.153 138.821 216.263 140.466 217.021 142.276C217.778 144.086 218.168 146.026 218.168 147.985C218.168 149.944 217.778 151.884 217.021 153.694C216.263 155.503 215.153 157.148 213.754 158.533L130.491 240.979C129.092 242.365 127.43 243.463 125.602 244.213C123.774 244.962 121.815 245.348 119.836 245.347C117.857 245.347 115.898 244.96 114.07 244.21C112.242 243.46 110.581 242.36 109.183 240.975Z" fill="white"/>
</g>
<g filter="url(#filter2_d_224_7134)">
<path d="M105.816 233.543L32.768 161.211C30.9253 159.389 29.4633 157.225 28.4659 154.843C27.4685 152.461 26.9551 149.908 26.9551 147.329C26.9551 144.75 27.4685 142.197 28.4659 139.815C29.4633 137.433 30.9253 135.269 32.768 133.446L105.816 64.2326C107.658 62.4093 109.844 60.9629 112.249 59.9761C114.655 58.9893 117.234 58.4814 119.838 58.4814C122.442 58.4814 125.02 58.9893 127.426 59.9761C129.832 60.9629 132.018 62.4093 133.859 64.2326L206.908 133.446C208.75 135.269 210.212 137.433 211.21 139.815C212.207 142.197 212.72 144.75 212.72 147.329C212.72 149.908 212.207 152.461 211.21 154.843C210.212 157.225 208.75 159.389 206.908 161.211L133.859 233.543C132.018 235.366 129.832 236.813 127.426 237.8C125.02 238.786 122.442 239.294 119.838 239.294C117.234 239.294 114.655 238.786 112.249 237.8C109.844 236.813 107.658 235.366 105.816 233.543Z" fill="white"/>
</g>
<path d="M66.6191 146.062C66.6191 147.199 66.1885 148.133 65.3271 148.866C64.4482 149.616 63.3145 149.991 61.9258 149.991C60.8652 149.991 59.9277 149.882 59.1133 149.666L59.3682 147.416C60.2002 147.761 61.082 147.934 62.0137 147.934C63.373 147.934 64.0527 147.407 64.0527 146.352C64.0527 145.848 63.7861 145.435 63.2529 145.113C63.1123 145.031 62.5264 144.776 61.4951 144.348C59.79 143.651 58.9375 142.567 58.9375 141.096C58.9375 139.995 59.3359 139.116 60.1328 138.459C60.9531 137.78 62.084 137.44 63.5254 137.44C64.252 137.44 64.9844 137.519 65.7227 137.677L65.5117 139.725C64.8086 139.497 64.1113 139.382 63.4199 139.382C62.0898 139.382 61.4248 139.869 61.4248 140.841C61.4248 141.31 61.6943 141.706 62.2334 142.028C62.3506 142.098 62.9482 142.362 64.0264 142.819C65.7549 143.557 66.6191 144.638 66.6191 146.062ZM76.0322 144.462C76.0322 144.996 76.0029 145.426 75.9443 145.754H70.416C70.416 147.366 71.2393 148.171 72.8857 148.171C73.7529 148.171 74.6172 147.996 75.4785 147.644L75.7246 149.393C74.6875 149.774 73.6094 149.964 72.4902 149.964C69.5488 149.964 68.0781 148.441 68.0781 145.394C68.0781 144.017 68.4531 142.895 69.2031 142.028C69.9824 141.12 71.0225 140.666 72.3232 140.666C73.5654 140.666 74.5117 141.032 75.1621 141.764C75.7422 142.426 76.0322 143.326 76.0322 144.462ZM73.7471 144.225C73.7822 142.977 73.2666 142.353 72.2002 142.353C71.1572 142.353 70.5684 142.977 70.4336 144.225H73.7471ZM83.9424 149.534C83.2275 149.809 82.3896 149.947 81.4287 149.947C78.7393 149.947 77.3945 148.502 77.3945 145.614C77.3945 144.149 77.7666 142.977 78.5107 142.098C79.3135 141.155 80.459 140.683 81.9473 140.683C82.6621 140.683 83.3154 140.786 83.9072 140.991L83.5469 142.968C82.9902 142.74 82.4336 142.625 81.877 142.625C81.209 142.625 80.6934 142.877 80.3301 143.381C79.9785 143.862 79.8027 144.527 79.8027 145.376C79.8027 147.105 80.5 147.969 81.8945 147.969C82.5215 147.969 83.1045 147.849 83.6436 147.609L83.9424 149.534ZM91.3779 149.789C91.3779 149.097 91.4131 148.564 91.4834 148.189H91.4658C90.8506 149.373 89.8369 149.964 88.4248 149.964C86.6494 149.964 85.7617 149.018 85.7617 147.125V140.841H88.0469V146.563C88.0469 147.547 88.4189 148.04 89.1631 148.04C89.7432 148.04 90.2354 147.755 90.6396 147.187C91.0381 146.63 91.2373 145.957 91.2373 145.166V140.841H93.54V149.789H91.3779ZM100.817 142.916C99.1592 142.587 98.3301 143.66 98.3301 146.132V149.789H96.0273V140.841H98.207C98.207 141.41 98.1514 142.01 98.04 142.643H98.0752C98.626 141.196 99.5752 140.537 100.923 140.666L100.817 142.916ZM109.606 144.462C109.606 144.996 109.577 145.426 109.519 145.754H103.99C103.99 147.366 104.813 148.171 106.46 148.171C107.327 148.171 108.191 147.996 109.053 147.644L109.299 149.393C108.262 149.774 107.184 149.964 106.064 149.964C103.123 149.964 101.652 148.441 101.652 145.394C101.652 144.017 102.027 142.895 102.777 142.028C103.557 141.12 104.597 140.666 105.897 140.666C107.14 140.666 108.086 141.032 108.736 141.764C109.316 142.426 109.606 143.326 109.606 144.462ZM107.321 144.225C107.356 142.977 106.841 142.353 105.774 142.353C104.731 142.353 104.143 142.977 104.008 144.225H107.321ZM123.221 144.84C123.221 146.422 122.822 147.656 122.025 148.541C121.199 149.455 120.024 149.912 118.501 149.912C118.067 149.912 117.684 149.888 117.35 149.841V154.13H115.047V140.841H117.191C117.191 141.451 117.159 141.949 117.095 142.335H117.139C117.678 141.222 118.612 140.666 119.942 140.666C120.997 140.666 121.809 141.029 122.377 141.755C122.939 142.482 123.221 143.51 123.221 144.84ZM120.804 145.086C120.804 143.399 120.294 142.555 119.274 142.555C118.694 142.555 118.223 142.851 117.859 143.443C117.52 144.005 117.35 144.688 117.35 145.491V147.969C117.713 148.081 118.114 148.136 118.554 148.136C120.054 148.136 120.804 147.12 120.804 145.086ZM129.971 149.789C129.971 149.173 130 148.669 130.059 148.277L130.041 148.259C129.555 149.396 128.603 149.964 127.185 149.964C126.394 149.964 125.764 149.721 125.295 149.235C124.85 148.766 124.627 148.16 124.627 147.416C124.627 146.378 125.096 145.593 126.033 145.06C126.924 144.55 128.178 144.295 129.795 144.295V143.97C129.795 143.419 129.675 143.024 129.435 142.784C129.188 142.532 128.775 142.406 128.195 142.406C127.34 142.406 126.438 142.611 125.488 143.021L125.11 141.254C126.13 140.85 127.258 140.648 128.494 140.648C129.824 140.648 130.771 140.923 131.333 141.474C131.843 141.966 132.098 142.74 132.098 143.794V147.486C132.098 148.365 132.121 149.132 132.168 149.789H129.971ZM129.795 145.807C127.826 145.807 126.842 146.258 126.842 147.161C126.842 147.459 126.938 147.706 127.132 147.899C127.331 148.104 127.595 148.207 127.923 148.207C128.462 148.207 128.913 147.981 129.276 147.53C129.622 147.102 129.795 146.607 129.795 146.044V145.807ZM138.602 150.29C138.033 151.795 137.397 152.847 136.694 153.445C136.038 153.996 135.174 154.271 134.102 154.271C133.662 154.271 133.243 154.23 132.845 154.148L133.117 152.162C133.498 152.285 133.876 152.346 134.251 152.346C135.2 152.346 135.877 151.757 136.281 150.58L136.571 149.789L133.258 140.841H135.833L137.037 144.26C137.301 145.075 137.535 145.898 137.74 146.73H137.758C137.957 145.921 138.244 144.972 138.619 143.882L139.683 140.841H142.152L138.602 150.29ZM154.29 149.789V144.137C154.29 143.106 153.936 142.59 153.227 142.59C152.693 142.59 152.225 142.857 151.82 143.39C151.387 143.958 151.17 144.665 151.17 145.508V149.789H148.902V144.12C148.902 143.1 148.551 142.59 147.848 142.59C147.303 142.59 146.828 142.866 146.424 143.417C146.002 143.991 145.791 144.688 145.791 145.508V149.789H143.488V140.841H145.668C145.668 141.404 145.633 141.937 145.562 142.441L145.58 142.458C146.166 141.263 147.147 140.666 148.524 140.666C149.872 140.666 150.695 141.257 150.994 142.441C151.562 141.257 152.535 140.666 153.912 140.666C155.699 140.666 156.593 141.656 156.593 143.636V149.789H154.29ZM166.366 144.462C166.366 144.996 166.337 145.426 166.278 145.754H160.75C160.75 147.366 161.573 148.171 163.22 148.171C164.087 148.171 164.951 147.996 165.812 147.644L166.059 149.393C165.021 149.774 163.943 149.964 162.824 149.964C159.883 149.964 158.412 148.441 158.412 145.394C158.412 144.017 158.787 142.895 159.537 142.028C160.316 141.12 161.356 140.666 162.657 140.666C163.899 140.666 164.846 141.032 165.496 141.764C166.076 142.426 166.366 143.326 166.366 144.462ZM164.081 144.225C164.116 142.977 163.601 142.353 162.534 142.353C161.491 142.353 160.902 142.977 160.768 144.225H164.081ZM173.784 149.789V144.067C173.784 143.083 173.412 142.59 172.668 142.59C172.094 142.59 171.604 142.875 171.2 143.443C170.796 144.005 170.594 144.679 170.594 145.464V149.789H168.291V140.841H170.471C170.471 141.474 170.427 142.007 170.339 142.441H170.365C170.975 141.257 171.988 140.666 173.406 140.666C175.182 140.666 176.069 141.612 176.069 143.504V149.789H173.784ZM183.294 149.718C182.626 149.882 181.979 149.964 181.352 149.964C180.367 149.964 179.688 149.759 179.312 149.349C178.943 148.939 178.759 148.209 178.759 147.161V142.625H177.212V140.841H178.759V138.09L181.044 137.475V140.841H183.224V142.625H181.044V146.545C181.044 147.12 181.123 147.509 181.281 147.714C181.434 147.919 181.709 148.022 182.107 148.022C182.506 148.022 182.849 147.981 183.136 147.899L183.294 149.718Z" fill="#565656"/>
<g filter="url(#filter3_d_224_7134)">
<path d="M142.968 73.7751C155.762 61.1072 155.762 40.5685 142.968 27.9006C130.175 15.2327 109.433 15.2327 96.6392 27.9006C83.8458 40.5685 83.8457 61.1072 96.6392 73.7751C109.433 86.443 130.175 86.443 142.968 73.7751Z" fill="#6CA6D1"/>
</g>
<path d="M109.291 59.8335V47.3798C109.299 47.3681 109.312 47.3569 109.314 47.3439C109.45 46.3266 110.337 45.5507 111.49 45.5984C111.931 45.6166 112.374 45.6113 112.815 45.5984C112.972 45.5945 113.125 45.5542 113.262 45.4806C115.499 44.1996 117.721 42.8938 119.967 41.6299C121.216 40.9287 122.382 40.0827 123.739 39.5806H124.261C125.142 39.7183 125.644 40.2906 126.052 41.0247C126.874 42.5 127.738 43.9535 128.577 45.4194C128.61 45.4854 128.659 45.5419 128.721 45.5838C128.782 45.6256 128.853 45.6513 128.927 45.6584C129.751 45.7827 130.472 46.5421 130.532 47.3592C130.566 47.8891 130.561 48.4189 130.565 48.9488C130.569 49.4238 130.376 49.6093 129.892 49.6093C128.94 49.6093 127.989 49.6052 127.041 49.6122C126.658 49.6068 126.274 49.6241 125.892 49.664C123.647 49.946 122.038 52.2603 122.553 54.4538C122.999 56.3577 124.59 57.6193 126.568 57.6299C127.692 57.6358 128.816 57.6299 129.94 57.6299C130.368 57.6299 130.562 57.8213 130.566 58.2481C130.569 58.6749 130.592 59.1117 130.557 59.5397C130.531 59.8629 130.482 60.2061 130.346 60.494C129.972 61.2776 129.302 61.6373 128.436 61.6379C125.949 61.6414 123.461 61.6414 120.974 61.6379C117.797 61.6379 114.62 61.6379 111.444 61.6379C110.725 61.6379 110.132 61.3865 109.691 60.8137C109.463 60.5252 109.363 60.1855 109.291 59.8335ZM124.897 41.0824C124.556 40.5602 124.019 40.446 123.462 40.7668C120.733 42.3387 118.004 43.9125 115.276 45.4883C115.236 45.5113 115.202 45.5425 115.119 45.606C115.739 45.606 116.301 45.6125 116.864 45.6013C116.999 45.5976 117.132 45.5608 117.249 45.4942C119.737 44.0671 122.222 42.6362 124.705 41.2013C124.768 41.166 124.824 41.1265 124.897 41.0824ZM126.415 43.6886L123.133 45.5825H127.509C127.138 44.9402 126.786 44.3256 126.415 43.6886Z" fill="white"/>
<path d="M128.199 50.6104C128.786 50.6104 129.374 50.6104 129.96 50.6104C130.925 50.6151 131.566 51.2503 131.571 52.2069C131.574 53.1395 131.574 54.0724 131.571 55.0057C131.571 55.957 130.985 56.6023 130.031 56.6211C128.778 56.6464 127.522 56.6576 126.271 56.6023C124.759 56.5346 123.526 55.2512 123.476 53.7823C123.424 52.1881 124.517 50.8335 126.072 50.6622C126.772 50.5844 127.489 50.6492 128.199 50.6492L128.199 50.6104ZM126.511 52.6226C126.311 52.6226 126.116 52.6813 125.949 52.7912C125.783 52.9012 125.654 53.0575 125.577 53.2404C125.501 53.4233 125.481 53.6245 125.52 53.8186C125.559 54.0128 125.655 54.1911 125.796 54.3311C125.938 54.471 126.118 54.5664 126.314 54.605C126.51 54.6436 126.713 54.6238 126.898 54.548C127.082 54.4723 127.24 54.344 127.351 54.1794C127.462 54.0148 127.522 53.8213 127.522 53.6234C127.521 53.3583 127.414 53.1042 127.225 52.9168C127.035 52.7295 126.779 52.6243 126.511 52.6243V52.6226Z" fill="white"/>
<defs>
<filter id="filter0_d_224_7134" x="39.3462" y="17.4162" width="215.001" height="266.785" filterUnits="userSpaceOnUse" color-interpolation-filters="sRGB">
<feFlood flood-opacity="0" result="BackgroundImageFix"/>
<feColorMatrix in="SourceAlpha" type="matrix" values="0 0 0 0 0 0 0 0 0 0 0 0 0 0 0 0 0 0 127 0" result="hardAlpha"/>
<feOffset dy="2.8317"/>
<feGaussianBlur stdDeviation="10.6189"/>
<feComposite in2="hardAlpha" operator="out"/>
<feColorMatrix type="matrix" values="0 0 0 0 0 0 0 0 0 0 0 0 0 0 0 0 0 0 0.15 0"/>
<feBlend mode="normal" in2="BackgroundImageFix" result="effect1_dropShadow_224_7134"/>
<feBlend mode="normal" in="SourceGraphic" in2="effect1_dropShadow_224_7134" result="shape"/>
</filter>
<filter id="filter1_d_224_7134" x="0.26812" y="32.2131" width="239.138" height="237.204" filterUnits="userSpaceOnUse" color-interpolation-filters="sRGB">
<feFlood flood-opacity="0" result="BackgroundImageFix"/>
<feColorMatrix in="SourceAlpha" type="matrix" values="0 0 0 0 0 0 0 0 0 0 0 0 0 0 0 0 0 0 127 0" result="hardAlpha"/>
<feOffset dy="2.8317"/>
<feGaussianBlur stdDeviation="10.6189"/>
<feComposite in2="hardAlpha" operator="out"/>
<feColorMatrix type="matrix" values="0 0 0 0 0 0 0 0 0 0 0 0 0 0 0 0 0 0 0.15 0"/>
<feBlend mode="normal" in2="BackgroundImageFix" result="effect1_dropShadow_224_7134"/>
<feBlend mode="normal" in="SourceGraphic" in2="effect1_dropShadow_224_7134" result="shape"/>
</filter>
<filter id="filter2_d_224_7134" x="5.71734" y="40.0754" width="228.241" height="223.288" filterUnits="userSpaceOnUse" color-interpolation-filters="sRGB">
<feFlood flood-opacity="0" result="BackgroundImageFix"/>
<feColorMatrix in="SourceAlpha" type="matrix" values="0 0 0 0 0 0 0 0 0 0 0 0 0 0 0 0 0 0 127 0" result="hardAlpha"/>
<feOffset dy="2.8317"/>
<feGaussianBlur stdDeviation="10.6189"/>
<feComposite in2="hardAlpha" operator="out"/>
<feColorMatrix type="matrix" values="0 0 0 0 0 0 0 0 0 0 0 0 0 0 0 0 0 0 0.15 0"/>
<feBlend mode="normal" in2="BackgroundImageFix" result="effect1_dropShadow_224_7134"/>
<feBlend mode="normal" in="SourceGraphic" in2="effect1_dropShadow_224_7134" result="shape"/>
</filter>
<filter id="filter3_d_224_7134" x="65.8072" y="-0.0061388" width="107.993" height="107.351" filterUnits="userSpaceOnUse" color-interpolation-filters="sRGB">
<feFlood flood-opacity="0" result="BackgroundImageFix"/>
<feColorMatrix in="SourceAlpha" type="matrix" values="0 0 0 0 0 0 0 0 0 0 0 0 0 0 0 0 0 0 127 0" result="hardAlpha"/>
<feOffset dy="2.8317"/>
<feGaussianBlur stdDeviation="10.6189"/>
<feComposite in2="hardAlpha" operator="out"/>
<feColorMatrix type="matrix" values="0 0 0 0 0 0 0 0 0 0 0 0 0 0 0 0 0 0 0.15 0"/>
<feBlend mode="normal" in2="BackgroundImageFix" result="effect1_dropShadow_224_7134"/>
<feBlend mode="normal" in="SourceGraphic" in2="effect1_dropShadow_224_7134" result="shape"/>
</filter>
</defs>
</svg>
