<svg width="255" height="285" viewBox="0 0 255 285" fill="none" xmlns="http://www.w3.org/2000/svg">
<path d="M62.1849 208.648C61.9591 208.649 61.7355 208.605 61.5269 208.52C61.3184 208.434 61.129 208.308 60.9698 208.15L60.1678 207.358C59.8568 207.036 59.6854 206.607 59.6902 206.162C59.695 205.717 59.8757 205.292 60.1935 204.977C60.5113 204.662 60.941 204.483 61.3904 204.479C61.8399 204.474 62.2733 204.644 62.5979 204.951L63.4 205.743C63.6402 205.981 63.8039 206.285 63.8701 206.615C63.9364 206.945 63.9024 207.287 63.7723 207.598C63.6423 207.909 63.4221 208.174 63.1395 208.361C62.857 208.548 62.5248 208.648 62.1849 208.648ZM53.3737 199.924C53.148 199.924 52.9244 199.88 52.7159 199.795C52.5074 199.709 52.318 199.583 52.1587 199.425L51.3589 198.633C51.0367 198.314 50.8555 197.882 50.8553 197.431C50.855 196.98 51.0358 196.547 51.3578 196.228C51.6797 195.909 52.1165 195.729 52.572 195.729C53.0275 195.729 53.4645 195.908 53.7868 196.227L54.5888 197.021C54.8294 197.259 54.9934 197.562 55.0599 197.892C55.1263 198.222 55.0923 198.564 54.9622 198.875C54.832 199.186 54.6116 199.451 54.3288 199.638C54.046 199.825 53.7136 199.924 53.3737 199.924ZM44.5697 191.199C44.1143 191.2 43.6772 191.021 43.3546 190.703L42.5549 189.908C42.3897 189.752 42.2577 189.564 42.1668 189.356C42.0758 189.148 42.0277 188.924 42.0253 188.698C42.0228 188.471 42.0661 188.246 42.1525 188.037C42.2389 187.827 42.3668 187.636 42.5286 187.476C42.6904 187.316 42.8829 187.189 43.0947 187.104C43.3066 187.018 43.5336 186.975 43.7624 186.978C43.9912 186.98 44.2172 187.028 44.4272 187.118C44.6371 187.208 44.8268 187.338 44.9851 187.502L45.7848 188.296C46.0255 188.534 46.1894 188.837 46.2558 189.167C46.3223 189.497 46.2883 189.839 46.1581 190.15C46.028 190.461 45.8076 190.727 45.5248 190.913C45.242 191.1 44.9096 191.2 44.5697 191.199ZM35.7586 182.477C35.3028 182.476 34.8658 182.297 34.5435 181.978L33.7437 181.184C33.4328 180.862 33.2614 180.433 33.2662 179.988C33.271 179.543 33.4517 179.118 33.7695 178.803C34.0873 178.488 34.517 178.309 34.9665 178.304C35.4159 178.3 35.8494 178.469 36.174 178.777L36.9736 179.572C37.2139 179.81 37.3775 180.113 37.4438 180.443C37.5101 180.773 37.476 181.115 37.346 181.426C37.2159 181.737 36.9957 182.003 36.7132 182.19C36.4306 182.377 36.0984 182.477 35.7586 182.477ZM26.9474 173.752C26.722 173.752 26.4989 173.708 26.2908 173.622C26.0827 173.537 25.8937 173.411 25.7347 173.253L24.9326 172.459C24.7732 172.301 24.6467 172.113 24.5605 171.907C24.4743 171.701 24.43 171.479 24.4301 171.256C24.4303 171.033 24.4748 170.812 24.5612 170.605C24.6476 170.399 24.7742 170.212 24.9338 170.054C25.0934 169.896 25.2827 169.771 25.4912 169.685C25.6996 169.6 25.923 169.556 26.1485 169.556C26.3741 169.556 26.5974 169.601 26.8057 169.686C27.0141 169.772 27.2033 169.897 27.3627 170.055L28.1625 170.847C28.4027 171.085 28.5664 171.388 28.6326 171.718C28.6989 172.048 28.6649 172.39 28.5348 172.701C28.4048 173.012 28.1846 173.278 27.902 173.465C27.6195 173.652 27.2872 173.752 26.9474 173.752ZM18.1386 165.027C17.9128 165.028 17.6891 164.984 17.4805 164.899C17.2719 164.813 17.0826 164.687 16.9235 164.528L16.1214 163.737C15.8191 163.414 15.6548 162.988 15.663 162.548C15.6712 162.108 15.8513 161.688 16.1655 161.376C16.4797 161.065 16.9035 160.886 17.348 160.878C17.7924 160.869 18.223 161.031 18.5492 161.33L19.3513 162.122C19.5916 162.36 19.7551 162.663 19.8214 162.993C19.8877 163.324 19.8537 163.666 19.7236 163.977C19.5936 164.287 19.3734 164.553 19.0908 164.74C18.8083 164.927 18.4761 165.027 18.1362 165.027H18.1386ZM10.089 155.714C9.75648 155.713 9.43126 155.617 9.15255 155.438C8.87385 155.258 8.65354 155.003 8.51816 154.702C8.34867 154.322 8.18872 153.927 8.04072 153.535C7.9006 153.112 7.93338 152.651 8.13199 152.252C8.33059 151.853 8.67921 151.546 9.10319 151.399C9.52716 151.251 9.99274 151.273 10.4001 151.461C10.8075 151.65 11.1243 151.988 11.2826 152.405C11.3924 152.712 11.5213 153.022 11.6502 153.322C11.7663 153.581 11.8152 153.865 11.7925 154.147C11.7697 154.43 11.6761 154.702 11.5201 154.94C11.364 155.177 11.1505 155.373 10.899 155.508C10.6474 155.643 10.3656 155.714 10.0794 155.714H10.089ZM10.2393 143.753C9.98479 143.754 9.73351 143.697 9.5041 143.588C9.30018 143.492 9.11731 143.357 8.96599 143.192C8.81468 143.026 8.69786 142.832 8.62225 142.621C8.54664 142.411 8.5137 142.188 8.52533 141.965C8.53696 141.741 8.59293 141.523 8.69003 141.321C8.87146 140.945 9.0672 140.572 9.27727 140.21C9.38773 140.012 9.53682 139.838 9.71584 139.698C9.89486 139.558 10.1002 139.455 10.32 139.394C10.5397 139.334 10.7695 139.317 10.9958 139.345C11.2221 139.374 11.4405 139.446 11.6383 139.559C11.836 139.671 12.0091 139.822 12.1475 140.001C12.2859 140.181 12.3868 140.386 12.4443 140.605C12.5019 140.823 12.5149 141.051 12.4827 141.275C12.4504 141.498 12.3735 141.713 12.2565 141.907C12.0918 142.191 11.9366 142.486 11.7934 142.782C11.6533 143.074 11.432 143.32 11.1555 143.492C10.879 143.664 10.5587 143.755 10.2322 143.753H10.2393ZM18.3941 134.513C18.0542 134.513 17.722 134.413 17.4394 134.226C17.1569 134.039 16.9366 133.773 16.8066 133.463C16.6765 133.152 16.6425 132.809 16.7088 132.479C16.7751 132.149 16.9387 131.846 17.1789 131.608L17.9811 130.814C18.137 130.641 18.3269 130.501 18.5392 130.404C18.7516 130.306 18.9819 130.252 19.2159 130.246C19.45 130.239 19.6829 130.28 19.9004 130.366C20.1179 130.452 20.3154 130.581 20.4807 130.745C20.646 130.909 20.7757 131.105 20.8619 131.321C20.948 131.537 20.9887 131.767 20.9815 131.999C20.9743 132.231 20.9194 132.459 20.8201 132.669C20.7208 132.879 20.5792 133.066 20.4041 133.22L19.6019 134.014C19.4425 134.173 19.2532 134.298 19.0446 134.384C18.8361 134.469 18.6126 134.513 18.3869 134.513H18.3941ZM27.2052 125.788C26.8653 125.788 26.5332 125.688 26.2506 125.501C25.9681 125.314 25.7478 125.049 25.6178 124.738C25.4878 124.427 25.4537 124.085 25.5199 123.755C25.5862 123.425 25.7498 123.121 25.9901 122.883L26.7922 122.092C26.9516 121.934 27.1409 121.808 27.3492 121.723C27.5576 121.637 27.7809 121.593 28.0065 121.593C28.232 121.593 28.4554 121.637 28.6638 121.722C28.8722 121.807 29.0617 121.932 29.2212 122.09C29.3808 122.248 29.5074 122.436 29.5938 122.642C29.6802 122.848 29.7247 123.069 29.7248 123.293C29.7249 123.516 29.6807 123.737 29.5945 123.944C29.5082 124.15 29.3818 124.337 29.2224 124.495L28.4203 125.29C28.2599 125.449 28.0693 125.575 27.8595 125.66C27.6498 125.746 27.4249 125.789 27.198 125.788H27.2052ZM36.0164 117.064C35.6765 117.064 35.3443 116.964 35.0618 116.777C34.7792 116.59 34.559 116.324 34.429 116.013C34.2989 115.702 34.2649 115.36 34.3312 115.03C34.3974 114.7 34.561 114.397 34.8013 114.159L35.6034 113.367C35.9279 113.059 36.3614 112.889 36.8109 112.894C37.2603 112.899 37.69 113.078 38.0078 113.392C38.3256 113.707 38.5063 114.132 38.5112 114.578C38.516 115.023 38.3445 115.452 38.0336 115.773L37.2315 116.565C37.0713 116.724 36.8808 116.85 36.6709 116.936C36.4611 117.022 36.2361 117.065 36.0092 117.064H36.0164ZM44.8276 108.339C44.4877 108.339 44.1555 108.239 43.8729 108.052C43.5904 107.865 43.3701 107.599 43.2401 107.288C43.1101 106.977 43.076 106.635 43.1423 106.305C43.2086 105.975 43.3722 105.672 43.6125 105.434L44.4122 104.642C44.7368 104.334 45.1702 104.164 45.6196 104.169C46.0691 104.174 46.4988 104.353 46.8166 104.668C47.1344 104.982 47.3151 105.408 47.3199 105.853C47.3247 106.298 47.1533 106.727 46.8424 107.048L46.0426 107.84C45.8825 108 45.692 108.126 45.4821 108.211C45.2723 108.297 45.0474 108.34 44.8204 108.339H44.8276ZM53.6411 99.6143C53.3017 99.6138 52.9701 99.5137 52.6881 99.3268C52.4061 99.1399 52.1862 98.8745 52.0563 98.5641C51.9263 98.2537 51.8921 97.9121 51.9579 97.5824C52.0237 97.2528 52.1866 96.9497 52.426 96.7116L53.2257 95.9174C53.384 95.7538 53.5737 95.6231 53.7837 95.5331C53.9936 95.443 54.2196 95.3954 54.4484 95.3929C54.6772 95.3905 54.9042 95.4333 55.1161 95.5189C55.328 95.6045 55.5204 95.7311 55.6822 95.8913C55.844 96.0515 55.9719 96.2421 56.0583 96.4519C56.1448 96.6617 56.188 96.8864 56.1856 97.113C56.1831 97.3396 56.135 97.5633 56.0441 97.7712C55.9531 97.9791 55.8211 98.167 55.6559 98.3237L54.8562 99.1156C54.6969 99.2739 54.5075 99.3995 54.299 99.4851C54.0905 99.5707 53.8669 99.6147 53.6411 99.6143ZM62.4523 90.8896C62.1124 90.8902 61.78 90.7908 61.4972 90.6041C61.2144 90.4174 60.994 90.1517 60.8639 89.8408C60.7337 89.5299 60.6997 89.1878 60.7662 88.8577C60.8326 88.5277 60.9966 88.2246 61.2372 87.9869L61.5046 87.7198C61.8291 87.4119 62.2626 87.2422 62.712 87.2469C63.1615 87.2517 63.5911 87.4306 63.909 87.7453C64.2268 88.06 64.4075 88.4855 64.4123 88.9305C64.4171 89.3755 64.2457 89.8047 63.9348 90.1261L63.665 90.3932C63.5047 90.5521 63.3141 90.6779 63.1043 90.7631C62.8944 90.8483 62.6696 90.8913 62.4428 90.8896H62.4523Z" fill="#6B7F6B"/>
<g filter="url(#filter0_d_224_1493)">
<path d="M119.82 260.347C117.62 260.35 115.441 259.923 113.409 259.091C111.376 258.259 109.529 257.037 107.974 255.496L60.5645 208.552L63.8039 205.344L111.216 252.289C113.499 254.546 116.593 255.814 119.82 255.814C123.046 255.814 126.14 254.546 128.423 252.289L224.943 156.716C227.223 154.456 228.504 151.391 228.504 148.196C228.504 145.001 227.223 141.936 224.943 139.676L128.423 44.1058C126.14 41.8482 123.046 40.5802 119.82 40.5802C116.593 40.5802 113.499 41.8482 111.216 44.1058L64.3315 90.5305L61.0896 87.3228L107.974 40.8981C109.529 39.3573 111.376 38.1349 113.408 37.301C115.44 36.467 117.619 36.0377 119.818 36.0377C122.018 36.0377 124.197 36.467 126.229 37.301C128.261 38.1349 130.108 39.3573 131.663 40.8981L228.185 136.471C231.326 139.581 233.09 143.8 233.09 148.198C233.09 152.597 231.326 156.816 228.185 159.926L131.663 255.499C130.108 257.039 128.262 258.261 126.23 259.093C124.197 259.925 122.019 260.351 119.82 260.347Z" fill="#6B7F6B"/>
</g>
<g filter="url(#filter1_d_224_1493)">
<path d="M109.163 241.19L25.8999 158.749C24.5006 157.364 23.3907 155.719 22.6334 153.909C21.8761 152.1 21.4863 150.16 21.4863 148.201C21.4863 146.241 21.8761 144.302 22.6334 142.492C23.3907 140.682 24.5006 139.037 25.8999 137.652L109.163 55.2035C111.989 52.4064 115.822 50.8351 119.817 50.8351C123.813 50.8351 127.645 52.4064 130.471 55.2035L213.735 137.652C215.134 139.037 216.244 140.682 217.001 142.492C217.758 144.302 218.148 146.241 218.148 148.201C218.148 150.16 217.758 152.1 217.001 153.909C216.244 155.719 215.134 157.364 213.735 158.749L130.471 241.195C129.072 242.58 127.411 243.679 125.583 244.429C123.754 245.178 121.795 245.564 119.816 245.563C117.838 245.563 115.878 245.176 114.05 244.426C112.223 243.676 110.562 242.576 109.163 241.19Z" fill="white"/>
</g>
<g filter="url(#filter2_d_224_1493)">
<path d="M105.795 233.759L32.7465 161.427C30.9038 159.605 29.4419 157.441 28.4444 155.059C27.447 152.677 26.9336 150.123 26.9336 147.545C26.9336 144.966 27.447 142.413 28.4444 140.03C29.4419 137.648 30.9038 135.484 32.7465 133.662L105.795 64.4483C107.636 62.625 109.822 61.1786 112.228 60.1918C114.634 59.205 117.212 58.6971 119.816 58.6971C122.42 58.6971 124.999 59.205 127.405 60.1918C129.81 61.1786 131.996 62.625 133.838 64.4483L206.886 133.662C208.729 135.484 210.191 137.648 211.188 140.03C212.185 142.413 212.699 144.966 212.699 147.545C212.699 150.123 212.185 152.677 211.188 155.059C210.191 157.441 208.729 159.605 206.886 161.427L133.838 233.759C131.996 235.582 129.81 237.029 127.405 238.015C124.999 239.002 122.42 239.51 119.816 239.51C117.212 239.51 114.634 239.002 112.228 238.015C109.822 237.029 107.636 235.582 105.795 233.759Z" fill="white"/>
</g>
<path d="M74.6914 137.954H77.0645V148.773H78.7607V150.645H76.9766C76.5898 153.405 75.0107 154.785 72.2393 154.785C69.1455 154.785 67.5986 153.08 67.5986 149.67C67.5986 148.568 67.7422 147.496 68.0293 146.453L70.4814 146.005C70.1416 147.2 69.9717 148.351 69.9717 149.459C69.9717 151.773 70.7949 152.93 72.4414 152.93C73.9414 152.93 74.6914 151.773 74.6914 149.459V137.954ZM78.4971 150.645V148.773H79.5254C79.9414 148.773 80.2754 148.814 80.5273 148.896C79.8594 148.41 79.5254 147.552 79.5254 146.321C79.5254 145.102 79.9121 144.089 80.6855 143.28C81.541 142.395 82.7129 141.953 84.2012 141.953C86.9141 141.953 88.2705 143.333 88.2705 146.093V150.645H78.4971ZM85.9502 146.383C85.9502 144.677 85.3086 143.825 84.0254 143.825C83.3633 143.825 82.8359 144.053 82.4434 144.51C82.0684 144.956 81.8809 145.536 81.8809 146.251C81.8809 147.932 82.7803 148.773 84.5791 148.773H85.9502V146.383ZM91.0479 137.954H93.4209V148.773H95.2227V150.645H91.0479V137.954ZM94.9502 148.773H100.294C100.188 146.049 98.7178 144.355 95.8818 143.693V141.953L103.019 137.488V139.844L98.624 142.489C101.114 143.62 102.438 145.715 102.597 148.773H104.056V150.645H94.9502V148.773ZM103.792 148.773H106.024V137.954H108.397V150.645H103.792V148.773ZM111.456 137.954H113.829V148.773H115.631V150.645H111.456V137.954ZM115.358 148.773H117.881V142.181H120.254V150.645H115.358V148.773ZM117.731 154.592C117.392 154.592 117.099 154.471 116.853 154.231C116.612 153.991 116.492 153.695 116.492 153.344C116.492 153.004 116.612 152.711 116.853 152.465C117.099 152.224 117.392 152.104 117.731 152.104C118.077 152.104 118.37 152.224 118.61 152.465C118.856 152.705 118.979 152.998 118.979 153.344C118.979 153.689 118.856 153.982 118.61 154.222C118.37 154.469 118.077 154.592 117.731 154.592ZM130.599 150.645C127.382 150.645 125.773 149.254 125.773 146.47C125.773 145.193 126.154 144.144 126.916 143.324C127.771 142.41 128.981 141.953 130.546 141.953C131.958 141.953 133.212 142.161 134.308 142.577V148.773H136.065V150.645H130.599ZM132.005 144.15C131.548 143.933 130.977 143.825 130.291 143.825C129.629 143.825 129.104 144.053 128.718 144.51C128.337 144.956 128.146 145.536 128.146 146.251C128.146 147.932 129.049 148.773 130.854 148.773H132.005V144.15ZM131.803 140.819C131.469 140.819 131.188 140.699 130.959 140.459C130.73 140.224 130.616 139.937 130.616 139.597C130.616 139.258 130.73 138.968 130.959 138.727C131.193 138.487 131.475 138.367 131.803 138.367C132.137 138.367 132.418 138.487 132.646 138.727C132.875 138.962 132.989 139.252 132.989 139.597C132.989 139.931 132.875 140.219 132.646 140.459C132.418 140.699 132.137 140.819 131.803 140.819ZM128.814 140.819C128.48 140.819 128.199 140.699 127.971 140.459C127.742 140.224 127.628 139.937 127.628 139.597C127.628 139.258 127.742 138.968 127.971 138.727C128.205 138.487 128.486 138.367 128.814 138.367C129.154 138.367 129.441 138.487 129.676 138.727C129.904 138.962 130.019 139.252 130.019 139.597C130.019 139.931 129.904 140.219 129.676 140.459C129.441 140.699 129.154 140.819 128.814 140.819ZM135.802 148.773H138.324V142.181H140.697V148.773H142.297V150.645H135.802V148.773ZM137.674 140.819C137.34 140.819 137.059 140.699 136.83 140.459C136.602 140.224 136.487 139.937 136.487 139.597C136.487 139.258 136.602 138.968 136.83 138.727C137.064 138.487 137.346 138.367 137.674 138.367C138.014 138.367 138.301 138.487 138.535 138.727C138.764 138.962 138.878 139.252 138.878 139.597C138.878 139.931 138.764 140.219 138.535 140.459C138.301 140.699 138.014 140.819 137.674 140.819ZM140.662 140.819C140.328 140.819 140.047 140.699 139.818 140.459C139.59 140.224 139.476 139.937 139.476 139.597C139.476 139.258 139.59 138.968 139.818 138.727C140.053 138.487 140.334 138.367 140.662 138.367C140.996 138.367 141.277 138.487 141.506 138.727C141.734 138.962 141.849 139.252 141.849 139.597C141.849 139.931 141.734 140.219 141.506 140.459C141.271 140.699 140.99 140.819 140.662 140.819ZM158.311 140.819C157.977 140.819 157.695 140.699 157.467 140.459C157.238 140.224 157.124 139.937 157.124 139.597C157.124 139.258 157.238 138.968 157.467 138.727C157.701 138.487 157.982 138.367 158.311 138.367C158.645 138.367 158.926 138.487 159.154 138.727C159.383 138.962 159.497 139.252 159.497 139.597C159.497 139.931 159.383 140.219 159.154 140.459C158.92 140.699 158.639 140.819 158.311 140.819ZM155.322 140.819C154.988 140.819 154.707 140.699 154.479 140.459C154.25 140.224 154.136 139.937 154.136 139.597C154.136 139.258 154.25 138.968 154.479 138.727C154.713 138.487 154.994 138.367 155.322 138.367C155.662 138.367 155.949 138.487 156.184 138.727C156.412 138.962 156.526 139.252 156.526 139.597C156.526 139.931 156.412 140.219 156.184 140.459C155.949 140.699 155.662 140.819 155.322 140.819ZM150.207 146.383C150.207 144.677 149.565 143.825 148.282 143.825C147.62 143.825 147.093 144.053 146.7 144.51C146.325 144.956 146.138 145.536 146.138 146.251C146.138 147.932 147.037 148.773 148.836 148.773H150.207V146.383ZM148.836 150.645C146.896 150.645 145.552 150.177 144.802 149.239C144.438 150.177 143.486 150.645 141.945 150.645H141.673V148.773C142.376 148.773 142.895 148.6 143.229 148.255C143.598 147.874 143.782 147.229 143.782 146.321C143.782 145.102 144.169 144.089 144.942 143.28C145.798 142.395 146.97 141.953 148.458 141.953C151.171 141.953 152.527 143.333 152.527 146.093V148.773H155.973V142.181H158.346V150.645H148.836ZM162.951 155.18C162.049 155.18 161.135 155.101 160.209 154.943L160.358 153.001C161.296 153.206 162.23 153.308 163.162 153.308C165.242 153.308 166.282 152.511 166.282 150.918V150.645H164.876C161.659 150.645 160.051 149.254 160.051 146.47C160.051 145.193 160.432 144.144 161.193 143.324C162.049 142.41 163.259 141.953 164.823 141.953C166.235 141.953 167.489 142.161 168.585 142.577V148.773H170.343V150.645H168.585V150.68C168.585 152.016 168.148 153.077 167.275 153.862C166.303 154.741 164.861 155.18 162.951 155.18ZM166.282 144.15C165.825 143.933 165.254 143.825 164.568 143.825C163.906 143.825 163.382 144.053 162.995 144.51C162.614 144.956 162.424 145.536 162.424 146.251C162.424 147.932 163.326 148.773 165.131 148.773H166.282V144.15ZM162.23 139.43C162.676 139.43 163.01 139.454 163.232 139.501C163.01 139.389 162.898 139.155 162.898 138.798C162.898 138.235 163.095 137.775 163.487 137.418C163.95 136.996 164.624 136.785 165.509 136.785C165.796 136.785 166.147 136.814 166.563 136.873L166.353 138.226C166.054 138.168 165.752 138.138 165.447 138.138C164.873 138.138 164.586 138.341 164.586 138.745C164.586 139.202 164.999 139.43 165.825 139.43H166.854V140.784H162.23V139.43ZM170.079 150.645V148.773H171.107C171.523 148.773 171.857 148.814 172.109 148.896C171.441 148.41 171.107 147.552 171.107 146.321C171.107 145.102 171.494 144.089 172.268 143.28C173.123 142.395 174.295 141.953 175.783 141.953C178.496 141.953 179.853 143.333 179.853 146.093V150.645H170.079ZM177.532 146.383C177.532 144.677 176.891 143.825 175.607 143.825C174.945 143.825 174.418 144.053 174.025 144.51C173.65 144.956 173.463 145.536 173.463 146.251C173.463 147.932 174.362 148.773 176.161 148.773H177.532V146.383Z" fill="#565656"/>
<g filter="url(#filter3_d_224_1493)">
<path d="M143.046 73.8116C155.84 61.1437 155.84 40.605 143.046 27.9371C130.253 15.2693 109.511 15.2692 96.7173 27.9371C83.9239 40.605 83.9239 61.1438 96.7173 73.8117C109.511 86.4796 130.253 86.4795 143.046 73.8116Z" fill="#6B7F6B"/>
</g>
<path d="M115.958 55.2204C116.227 55.0185 116.503 54.7938 116.798 54.5941C116.902 54.5416 117.022 54.5306 117.134 54.5636C117.323 54.6184 117.491 54.7538 117.682 54.7891C118.082 54.8611 118.17 55.1101 118.183 55.453C118.193 55.6941 118.242 55.9329 118.276 56.1834H121.673C121.721 55.8389 121.757 55.4906 121.827 55.1492C121.861 55.04 121.937 54.9482 122.04 54.894C122.285 54.7671 122.553 54.681 122.802 54.5589C122.945 54.4884 123.042 54.4861 123.174 54.5933C123.44 54.8133 123.723 55.0138 123.974 55.2024L126.397 52.8224C126.198 52.5734 125.967 52.2744 125.721 51.9816C125.61 51.8516 125.584 51.7389 125.674 51.5901C125.747 51.4843 125.798 51.3653 125.823 51.2402C125.879 50.8017 126.161 50.6874 126.559 50.678C126.826 50.6718 127.092 50.6185 127.375 50.5849C127.394 50.4839 127.411 50.393 127.432 50.2717C127.688 50.2717 127.946 50.2717 128.202 50.2717C129.162 50.2717 129.731 49.7151 129.733 48.7795C129.733 48.0169 129.733 47.2536 129.733 46.4903V46.2061C130.722 46.1442 131.579 46.978 131.587 48.0068C131.597 49.3862 131.587 50.7657 131.587 52.1452C131.587 53.9845 131.587 55.8235 131.587 57.6623V58.0005H108.381C108.376 57.9317 108.367 57.8659 108.367 57.8001C108.367 54.5526 108.367 51.3049 108.367 48.0569C108.367 46.9976 109.132 46.2202 110.223 46.1888V46.502C110.223 47.2849 110.219 48.0678 110.223 48.8507C110.228 49.697 110.808 50.2654 111.669 50.2756C111.947 50.2756 112.228 50.2756 112.523 50.2756C112.54 50.3821 112.555 50.4737 112.572 50.5825C112.972 50.6342 113.366 50.6741 113.756 50.7446C113.865 50.7808 113.958 50.8552 114.015 50.9536C114.087 51.0663 114.095 51.2214 114.165 51.3333C114.399 51.6872 114.314 51.969 114.025 52.2517C113.836 52.4357 113.69 52.6627 113.537 52.8569L115.958 55.2204Z" fill="white"/>
<path d="M122.834 44.6325L123.919 43.8135L125.175 45.0458L124.388 46.0425C124.641 46.6438 124.873 47.2106 125.124 47.7696C125.156 47.84 125.288 47.8941 125.381 47.9081C125.734 47.9622 126.091 47.9974 126.464 48.0412V49.7777C126.11 49.8231 125.757 49.856 125.407 49.921C125.361 49.9334 125.317 49.9557 125.281 49.9863C125.244 50.0168 125.214 50.055 125.194 50.0979C124.977 50.6914 124.775 51.2903 124.539 51.9714C124.703 52.1805 124.939 52.4788 125.152 52.7489L123.887 53.9866C123.697 53.8441 123.457 53.6735 123.228 53.4848C123.113 53.3908 123.034 53.3893 122.89 53.455C122.325 53.715 121.745 53.9436 121.176 54.1949C121.132 54.2142 121.093 54.242 121.061 54.2766C121.029 54.3112 121.004 54.3519 120.989 54.3961C120.93 54.6725 120.902 54.9551 120.858 55.2573H119.094C119.052 54.9637 119.014 54.674 118.964 54.3875C118.956 54.3492 118.94 54.313 118.917 54.2813C118.894 54.2496 118.864 54.2231 118.829 54.2035C118.178 53.9467 117.523 53.7009 116.807 53.4284C116.596 53.585 116.304 53.8042 116.027 54.0109L114.779 52.777L115.41 51.973C115.178 51.3005 114.975 50.6922 114.754 50.0893C114.732 50.047 114.701 50.0099 114.663 49.9806C114.624 49.9513 114.58 49.9304 114.533 49.9194C114.194 49.8584 113.849 49.8263 113.49 49.7746V48.0483C113.842 48.0037 114.186 47.9496 114.53 47.9207C114.723 47.9042 114.811 47.8314 114.883 47.6459C115.082 47.1276 115.318 46.6226 115.566 46.0511C115.338 45.7552 115.055 45.3958 114.786 45.0505L116.045 43.819C116.342 44.0461 116.675 44.2888 116.997 44.5487C117.124 44.6505 117.218 44.6426 117.367 44.5761C117.799 44.3819 118.242 44.205 118.689 44.0515C118.849 43.9975 118.916 43.9349 118.934 43.7783C118.979 43.3712 119.036 42.9657 119.094 42.546H120.861C120.912 42.9477 120.965 43.3422 121.009 43.7384C121.028 43.9106 121.089 43.996 121.281 44.0562C121.788 44.2167 122.282 44.4242 122.834 44.6325ZM119.968 51.8047C120.515 51.8078 121.05 51.6521 121.506 51.3573C121.962 51.0625 122.318 50.6419 122.53 50.1487C122.742 49.6555 122.799 49.1119 122.695 48.5867C122.591 48.0615 122.33 47.5784 121.946 47.1984C121.561 46.8184 121.07 46.5587 120.534 46.4521C119.999 46.3456 119.443 46.397 118.937 46.5998C118.431 46.8026 117.999 47.1477 117.693 47.5915C117.388 48.0353 117.224 48.5577 117.223 49.0927C117.22 49.4475 117.289 49.7993 117.426 50.1279C117.563 50.4566 117.764 50.7555 118.019 51.0075C118.275 51.2595 118.578 51.4597 118.912 51.5965C119.247 51.7333 119.606 51.8041 119.968 51.8047Z" fill="white"/>
<path d="M108.366 58.9512H131.611C131.585 59.3959 131.604 59.8296 131.531 60.2461C131.382 61.0486 130.641 61.6311 129.81 61.66C129.71 61.66 129.61 61.66 129.51 61.66H110.451C109.103 61.66 108.366 60.9335 108.365 59.608L108.366 58.9512Z" fill="white"/>
<path d="M124.153 62.5985V63.9459H124.49C125 63.9459 125.508 63.9396 126.017 63.9498C126.077 63.9487 126.137 63.9593 126.193 63.9811C126.249 64.0029 126.3 64.0355 126.343 64.0768C126.386 64.1182 126.42 64.1675 126.443 64.2219C126.466 64.2764 126.478 64.3348 126.478 64.3937C126.478 64.6419 126.298 64.8227 126.023 64.8431C125.934 64.8494 125.843 64.8431 125.754 64.8431H114.2C114.15 64.8431 114.1 64.8431 114.05 64.8431C113.682 64.8376 113.475 64.674 113.479 64.3898C113.482 64.1056 113.69 63.9451 114.059 63.9435C114.625 63.9435 115.192 63.9435 115.793 63.9435V62.5985H124.153Z" fill="white"/>
<path d="M127.42 49.369V48.4656L127.877 48.4374V48.1242C127.877 46.6179 127.877 45.1113 127.877 43.6045C127.877 43.1348 128.021 42.9915 128.499 42.9907C128.997 42.9907 129.496 42.9837 129.995 42.9907C130.181 42.9946 130.293 42.9563 130.391 42.7778C130.539 42.5083 130.777 42.2968 131.065 42.1788C131.353 42.0609 131.674 42.0438 131.974 42.1303C132.278 42.2175 132.543 42.4036 132.725 42.6579C132.907 42.9122 132.995 43.2196 132.974 43.5293C132.957 43.8294 132.84 44.1157 132.639 44.3434C132.439 44.5711 132.167 44.7275 131.866 44.7883C131.576 44.8471 131.273 44.8115 131.005 44.6867C130.737 44.5619 130.518 44.3549 130.381 44.097C130.297 43.9404 130.211 43.8895 130.038 43.8973C129.719 43.9131 129.398 43.9131 129.079 43.8973C128.854 43.8856 128.79 43.9599 128.791 44.1792C128.8 45.6761 128.796 47.173 128.795 48.6699C128.795 49.2571 128.68 49.3675 128.076 49.3683L127.42 49.369Z" fill="white"/>
<path d="M112.082 48.4327L112.535 48.4609V49.3331C112.186 49.3331 111.83 49.366 111.484 49.3229C111.212 49.2892 111.164 49.0465 111.164 48.8015C111.164 47.559 111.164 46.3173 111.164 45.0756V43.9146H109.678C109.514 44.2833 109.241 44.5957 108.806 44.7374C108.471 44.8473 108.106 44.8282 107.786 44.6841C107.465 44.5399 107.213 44.2816 107.08 43.9616C106.949 43.6463 106.942 43.2946 107.062 42.9749C107.181 42.6552 107.417 42.3904 107.725 42.2321C108.037 42.0691 108.402 42.0316 108.742 42.1275C109.082 42.2234 109.37 42.4451 109.545 42.7457C109.656 42.9367 109.767 42.9986 109.983 42.9915C110.491 42.9743 110.999 42.9845 111.508 42.9868C111.925 42.9868 112.081 43.1434 112.081 43.5568C112.081 45.0704 112.081 46.5861 112.081 48.1039L112.082 48.4327Z" fill="white"/>
<path d="M112.472 39.3456C113.239 39.3456 113.987 39.3456 114.734 39.3456C115.158 39.3456 115.316 39.4959 115.317 39.9054C115.317 40.9231 115.324 41.9409 115.311 42.9587C115.3 43.0979 115.244 43.2301 115.151 43.3361C114.941 43.5811 114.703 43.8058 114.408 44.1017V40.2475C113.763 40.2475 113.157 40.2389 112.553 40.2584C112.478 40.2584 112.398 40.408 112.339 40.5004C112.193 40.7412 111.974 40.9317 111.713 41.0456C111.451 41.1595 111.16 41.1911 110.88 41.1361C110.584 41.0783 110.316 40.9282 110.115 40.7084C109.914 40.4886 109.791 40.211 109.765 39.9171C109.741 39.6428 109.802 39.3677 109.94 39.1281C110.079 38.8884 110.288 38.6954 110.541 38.5744C111.276 38.2229 112.016 38.5141 112.472 39.3456Z" fill="white"/>
<path d="M125.554 40.2537V44.0899C125.226 43.7642 124.951 43.502 124.692 43.2287C124.642 43.1747 124.637 43.0667 124.637 42.9829C124.634 41.9557 124.634 40.9285 124.637 39.9014C124.637 39.5099 124.797 39.3533 125.197 39.3533C125.886 39.3533 126.573 39.3479 127.262 39.3533C127.328 39.3616 127.396 39.3481 127.454 39.315C127.512 39.2819 127.557 39.2309 127.582 39.1701C127.724 38.8978 127.958 38.6814 128.243 38.557C128.528 38.4325 128.849 38.4074 129.151 38.4859C129.447 38.5645 129.709 38.7355 129.896 38.9731C130.084 39.2106 130.187 39.5017 130.191 39.8019C130.191 40.1079 130.087 40.4053 129.895 40.6465C129.703 40.8878 129.433 41.059 129.13 41.1329C128.51 41.2895 127.905 41.0186 127.565 40.4384C127.525 40.3703 127.455 40.2693 127.396 40.2686C126.796 40.249 126.189 40.2537 125.554 40.2537Z" fill="white"/>
<path d="M120.446 41.6119H119.506V40.6129C119.506 40.0946 119.497 39.5764 119.511 39.0589C119.523 38.9849 119.508 38.9094 119.47 38.8445C119.432 38.7796 119.373 38.7291 119.302 38.7011C119.03 38.5599 118.816 38.333 118.693 38.0571C118.57 37.7813 118.547 37.4729 118.626 37.1822C118.702 36.8867 118.879 36.6252 119.126 36.4404C119.374 36.2556 119.678 36.1583 119.99 36.1645C120.296 36.1642 120.594 36.2642 120.836 36.4486C121.078 36.633 121.25 36.8912 121.325 37.1822C121.405 37.4728 121.381 37.7811 121.259 38.057C121.136 38.3328 120.922 38.5598 120.65 38.7011C120.482 38.7911 120.44 38.8882 120.442 39.0636C120.45 39.9028 120.446 40.7445 120.446 41.6119Z" fill="white"/>
<defs>
<filter id="filter0_d_224_1493" x="39.3267" y="17.6317" width="215.001" height="266.785" filterUnits="userSpaceOnUse" color-interpolation-filters="sRGB">
<feFlood flood-opacity="0" result="BackgroundImageFix"/>
<feColorMatrix in="SourceAlpha" type="matrix" values="0 0 0 0 0 0 0 0 0 0 0 0 0 0 0 0 0 0 127 0" result="hardAlpha"/>
<feOffset dy="2.8317"/>
<feGaussianBlur stdDeviation="10.6189"/>
<feComposite in2="hardAlpha" operator="out"/>
<feColorMatrix type="matrix" values="0 0 0 0 0 0 0 0 0 0 0 0 0 0 0 0 0 0 0.15 0"/>
<feBlend mode="normal" in2="BackgroundImageFix" result="effect1_dropShadow_224_1493"/>
<feBlend mode="normal" in="SourceGraphic" in2="effect1_dropShadow_224_1493" result="shape"/>
</filter>
<filter id="filter1_d_224_1493" x="0.248589" y="32.429" width="239.138" height="237.204" filterUnits="userSpaceOnUse" color-interpolation-filters="sRGB">
<feFlood flood-opacity="0" result="BackgroundImageFix"/>
<feColorMatrix in="SourceAlpha" type="matrix" values="0 0 0 0 0 0 0 0 0 0 0 0 0 0 0 0 0 0 127 0" result="hardAlpha"/>
<feOffset dy="2.8317"/>
<feGaussianBlur stdDeviation="10.6189"/>
<feComposite in2="hardAlpha" operator="out"/>
<feColorMatrix type="matrix" values="0 0 0 0 0 0 0 0 0 0 0 0 0 0 0 0 0 0 0.15 0"/>
<feBlend mode="normal" in2="BackgroundImageFix" result="effect1_dropShadow_224_1493"/>
<feBlend mode="normal" in="SourceGraphic" in2="effect1_dropShadow_224_1493" result="shape"/>
</filter>
<filter id="filter2_d_224_1493" x="5.69585" y="40.2911" width="228.241" height="223.288" filterUnits="userSpaceOnUse" color-interpolation-filters="sRGB">
<feFlood flood-opacity="0" result="BackgroundImageFix"/>
<feColorMatrix in="SourceAlpha" type="matrix" values="0 0 0 0 0 0 0 0 0 0 0 0 0 0 0 0 0 0 127 0" result="hardAlpha"/>
<feOffset dy="2.8317"/>
<feGaussianBlur stdDeviation="10.6189"/>
<feComposite in2="hardAlpha" operator="out"/>
<feColorMatrix type="matrix" values="0 0 0 0 0 0 0 0 0 0 0 0 0 0 0 0 0 0 0.15 0"/>
<feBlend mode="normal" in2="BackgroundImageFix" result="effect1_dropShadow_224_1493"/>
<feBlend mode="normal" in="SourceGraphic" in2="effect1_dropShadow_224_1493" result="shape"/>
</filter>
<filter id="filter3_d_224_1493" x="65.8853" y="0.0301771" width="107.993" height="107.352" filterUnits="userSpaceOnUse" color-interpolation-filters="sRGB">
<feFlood flood-opacity="0" result="BackgroundImageFix"/>
<feColorMatrix in="SourceAlpha" type="matrix" values="0 0 0 0 0 0 0 0 0 0 0 0 0 0 0 0 0 0 127 0" result="hardAlpha"/>
<feOffset dy="2.8317"/>
<feGaussianBlur stdDeviation="10.6189"/>
<feComposite in2="hardAlpha" operator="out"/>
<feColorMatrix type="matrix" values="0 0 0 0 0 0 0 0 0 0 0 0 0 0 0 0 0 0 0.15 0"/>
<feBlend mode="normal" in2="BackgroundImageFix" result="effect1_dropShadow_224_1493"/>
<feBlend mode="normal" in="SourceGraphic" in2="effect1_dropShadow_224_1493" result="shape"/>
</filter>
</defs>
</svg>
