<svg width="255" height="285" viewBox="0 0 255 285" fill="none" xmlns="http://www.w3.org/2000/svg">
<path d="M62.1849 208.649C61.9591 208.649 61.7355 208.605 61.5269 208.52C61.3184 208.434 61.129 208.309 60.9698 208.15L60.1678 207.358C59.8568 207.037 59.6854 206.607 59.6902 206.162C59.695 205.717 59.8757 205.292 60.1935 204.977C60.5113 204.663 60.941 204.484 61.3904 204.479C61.8399 204.474 62.2733 204.644 62.5979 204.952L63.4 205.744C63.6402 205.982 63.8039 206.285 63.8701 206.615C63.9364 206.945 63.9024 207.287 63.7723 207.598C63.6423 207.909 63.4221 208.175 63.1395 208.362C62.857 208.549 62.5248 208.649 62.1849 208.649ZM53.3737 199.924C53.148 199.924 52.9244 199.88 52.7159 199.795C52.5074 199.709 52.318 199.584 52.1587 199.425L51.3589 198.633C51.0367 198.315 50.8555 197.882 50.8553 197.431C50.855 196.98 51.0358 196.547 51.3578 196.228C51.6797 195.909 52.1165 195.73 52.572 195.729C53.0275 195.729 53.4645 195.908 53.7868 196.227L54.5888 197.021C54.8294 197.259 54.9934 197.562 55.0599 197.892C55.1263 198.222 55.0923 198.564 54.9622 198.875C54.832 199.186 54.6116 199.452 54.3288 199.638C54.046 199.825 53.7136 199.925 53.3737 199.924ZM44.5697 191.199C44.1143 191.2 43.6772 191.021 43.3546 190.703L42.5549 189.909C42.3897 189.752 42.2577 189.564 42.1668 189.356C42.0758 189.148 42.0277 188.924 42.0253 188.698C42.0228 188.471 42.0661 188.247 42.1525 188.037C42.2389 187.827 42.3668 187.636 42.5286 187.476C42.6904 187.316 42.8829 187.189 43.0947 187.104C43.3066 187.018 43.5336 186.975 43.7624 186.978C43.9912 186.98 44.2172 187.028 44.4272 187.118C44.6371 187.208 44.8268 187.339 44.9851 187.502L45.7848 188.297C46.0255 188.534 46.1894 188.837 46.2558 189.167C46.3223 189.497 46.2883 189.84 46.1581 190.15C46.028 190.461 45.8076 190.727 45.5248 190.914C45.242 191.1 44.9096 191.2 44.5697 191.199ZM35.7586 182.477C35.3028 182.477 34.8658 182.297 34.5435 181.978L33.7437 181.184C33.4328 180.863 33.2614 180.433 33.2662 179.988C33.271 179.543 33.4517 179.118 33.7695 178.803C34.0873 178.488 34.517 178.309 34.9665 178.305C35.4159 178.3 35.8494 178.47 36.174 178.778L36.9736 179.572C37.2139 179.81 37.3775 180.113 37.4438 180.443C37.5101 180.773 37.476 181.115 37.346 181.426C37.2159 181.737 36.9957 182.003 36.7132 182.19C36.4306 182.377 36.0984 182.477 35.7586 182.477ZM26.9474 173.752C26.722 173.752 26.4989 173.708 26.2908 173.623C26.0827 173.537 25.8937 173.412 25.7347 173.253L24.9326 172.459C24.7732 172.301 24.6467 172.114 24.5605 171.907C24.4743 171.701 24.43 171.48 24.4301 171.256C24.4303 171.033 24.4748 170.812 24.5612 170.606C24.6476 170.399 24.7742 170.212 24.9338 170.054C25.0934 169.896 25.2827 169.771 25.4912 169.686C25.6996 169.6 25.923 169.556 26.1485 169.557C26.3741 169.557 26.5974 169.601 26.8057 169.686C27.0141 169.772 27.2033 169.897 27.3627 170.055L28.1625 170.847C28.4027 171.085 28.5664 171.388 28.6326 171.718C28.6989 172.048 28.6649 172.391 28.5348 172.702C28.4048 173.012 28.1846 173.278 27.902 173.465C27.6195 173.652 27.2872 173.752 26.9474 173.752ZM18.1386 165.027C17.9128 165.028 17.6891 164.984 17.4805 164.899C17.2719 164.813 17.0826 164.687 16.9235 164.529L16.1214 163.737C15.8191 163.414 15.6548 162.988 15.663 162.548C15.6712 162.108 15.8513 161.688 16.1655 161.376C16.4797 161.065 16.9035 160.886 17.348 160.878C17.7924 160.869 18.223 161.031 18.5492 161.331L19.3513 162.122C19.5916 162.36 19.7551 162.664 19.8214 162.994C19.8877 163.324 19.8537 163.666 19.7236 163.977C19.5936 164.288 19.3734 164.553 19.0908 164.74C18.8083 164.928 18.4761 165.027 18.1362 165.027H18.1386ZM10.089 155.714C9.75648 155.714 9.43126 155.618 9.15255 155.438C8.87385 155.259 8.65354 155.003 8.51816 154.702C8.34867 154.322 8.18872 153.927 8.04072 153.535C7.9006 153.112 7.93338 152.651 8.13199 152.252C8.33059 151.853 8.67921 151.547 9.10319 151.399C9.52716 151.251 9.99274 151.274 10.4001 151.462C10.8075 151.65 11.1243 151.988 11.2826 152.405C11.3924 152.712 11.5213 153.022 11.6502 153.322C11.7663 153.581 11.8152 153.865 11.7925 154.147C11.7697 154.43 11.6761 154.702 11.5201 154.94C11.364 155.178 11.1505 155.373 10.899 155.508C10.6474 155.643 10.3656 155.714 10.0794 155.714H10.089ZM10.2393 143.753C9.98479 143.754 9.73351 143.697 9.5041 143.588C9.30018 143.492 9.11731 143.358 8.96599 143.192C8.81468 143.026 8.69786 142.832 8.62225 142.622C8.54664 142.411 8.5137 142.188 8.52533 141.965C8.53696 141.742 8.59293 141.523 8.69003 141.321C8.87146 140.945 9.0672 140.572 9.27727 140.21C9.38773 140.013 9.53682 139.839 9.71584 139.699C9.89486 139.559 10.1002 139.455 10.32 139.395C10.5397 139.334 10.7695 139.317 10.9958 139.346C11.2221 139.374 11.4405 139.446 11.6383 139.559C11.836 139.672 12.0091 139.822 12.1475 140.002C12.2859 140.181 12.3868 140.386 12.4443 140.605C12.5019 140.823 12.5149 141.051 12.4827 141.275C12.4504 141.498 12.3735 141.713 12.2565 141.907C12.0918 142.191 11.9366 142.486 11.7934 142.782C11.6533 143.074 11.432 143.32 11.1555 143.493C10.879 143.665 10.5587 143.755 10.2322 143.753H10.2393ZM18.3941 134.513C18.0542 134.513 17.722 134.413 17.4394 134.226C17.1569 134.039 16.9366 133.774 16.8066 133.463C16.6765 133.152 16.6425 132.81 16.7088 132.48C16.7751 132.15 16.9387 131.846 17.1789 131.608L17.9811 130.814C18.137 130.641 18.3269 130.501 18.5392 130.404C18.7516 130.306 18.9819 130.252 19.2159 130.246C19.45 130.24 19.6829 130.281 19.9004 130.366C20.1179 130.452 20.3154 130.581 20.4807 130.746C20.646 130.91 20.7757 131.106 20.8619 131.321C20.948 131.537 20.9887 131.768 20.9815 131.999C20.9743 132.231 20.9194 132.459 20.8201 132.669C20.7208 132.879 20.5792 133.067 20.4041 133.22L19.6019 134.015C19.4425 134.173 19.2532 134.298 19.0446 134.384C18.8361 134.47 18.6126 134.514 18.3869 134.513H18.3941ZM27.2052 125.789C26.8653 125.789 26.5332 125.689 26.2506 125.502C25.9681 125.315 25.7478 125.049 25.6178 124.738C25.4878 124.427 25.4537 124.085 25.5199 123.755C25.5862 123.425 25.7498 123.122 25.9901 122.884L26.7922 122.092C26.9516 121.934 27.1409 121.808 27.3492 121.723C27.5576 121.637 27.7809 121.593 28.0065 121.593C28.232 121.593 28.4554 121.637 28.6638 121.722C28.8722 121.808 29.0617 121.933 29.2212 122.091C29.3808 122.248 29.5074 122.436 29.5938 122.642C29.6802 122.848 29.7247 123.07 29.7248 123.293C29.7249 123.516 29.6807 123.737 29.5945 123.944C29.5082 124.15 29.3818 124.338 29.2224 124.496L28.4203 125.29C28.2599 125.449 28.0693 125.575 27.8595 125.66C27.6498 125.746 27.4249 125.79 27.198 125.789H27.2052ZM36.0164 117.064C35.6765 117.064 35.3443 116.964 35.0618 116.777C34.7792 116.59 34.559 116.324 34.429 116.013C34.2989 115.702 34.2649 115.36 34.3312 115.03C34.3974 114.7 34.561 114.397 34.8013 114.159L35.6034 113.367C35.9279 113.059 36.3614 112.889 36.8109 112.894C37.2603 112.899 37.69 113.078 38.0078 113.393C38.3256 113.707 38.5063 114.133 38.5112 114.578C38.516 115.023 38.3445 115.452 38.0336 115.773L37.2315 116.565C37.0713 116.724 36.8808 116.851 36.6709 116.936C36.4611 117.022 36.2361 117.065 36.0092 117.064H36.0164ZM44.8276 108.339C44.4877 108.339 44.1555 108.239 43.8729 108.052C43.5904 107.865 43.3701 107.6 43.2401 107.289C43.1101 106.978 43.076 106.636 43.1423 106.305C43.2086 105.975 43.3722 105.672 43.6125 105.434L44.4122 104.642C44.7368 104.334 45.1702 104.165 45.6196 104.169C46.0691 104.174 46.4988 104.353 46.8166 104.668C47.1344 104.983 47.3151 105.408 47.3199 105.853C47.3247 106.298 47.1533 106.727 46.8424 107.049L46.0426 107.841C45.8825 108 45.692 108.126 45.4821 108.211C45.2723 108.297 45.0474 108.341 44.8204 108.339H44.8276ZM53.6411 99.6146C53.3017 99.614 52.9701 99.514 52.6881 99.3271C52.4061 99.1402 52.1862 98.8748 52.0563 98.5643C51.9263 98.2539 51.8921 97.9123 51.9579 97.5827C52.0237 97.253 52.1866 96.95 52.426 96.7119L53.2257 95.9176C53.384 95.754 53.5737 95.6234 53.7837 95.5333C53.9936 95.4433 54.2196 95.3956 54.4484 95.3932C54.6772 95.3908 54.9042 95.4336 55.1161 95.5192C55.328 95.6048 55.5204 95.7314 55.6822 95.8916C55.844 96.0518 55.9719 96.2424 56.0583 96.4521C56.1448 96.6619 56.188 96.8867 56.1856 97.1132C56.1831 97.3398 56.135 97.5636 56.0441 97.7715C55.9531 97.9794 55.8211 98.1672 55.6559 98.324L54.8562 99.1158C54.6969 99.2742 54.5075 99.3998 54.299 99.4854C54.0905 99.571 53.8669 99.6149 53.6411 99.6146ZM62.4523 90.8899C62.1124 90.8904 61.78 90.791 61.4972 90.6043C61.2144 90.4176 60.994 90.152 60.8639 89.8411C60.7337 89.5302 60.6997 89.188 60.7662 88.858C60.8326 88.5279 60.9966 88.2248 61.2372 87.9871L61.5046 87.72C61.8291 87.4121 62.2626 87.2424 62.712 87.2472C63.1615 87.2519 63.5911 87.4308 63.909 87.7455C64.2268 88.0603 64.4075 88.4857 64.4123 88.9308C64.4171 89.3758 64.2457 89.805 63.9348 90.1264L63.665 90.3935C63.5047 90.5524 63.3141 90.6781 63.1043 90.7633C62.8944 90.8485 62.6696 90.8916 62.4428 90.8899H62.4523Z" fill="#6B7F6B"/>
<g filter="url(#filter0_d_224_7167)">
<path d="M119.82 260.347C117.62 260.35 115.441 259.923 113.409 259.091C111.376 258.258 109.529 257.037 107.974 255.496L60.5645 208.552L63.8039 205.344L111.216 252.289C113.499 254.546 116.593 255.814 119.82 255.814C123.046 255.814 126.14 254.546 128.423 252.289L224.943 156.716C227.223 154.456 228.504 151.391 228.504 148.196C228.504 145.001 227.223 141.936 224.943 139.676L128.423 44.1057C126.14 41.8481 123.046 40.5801 119.82 40.5801C116.593 40.5801 113.499 41.8481 111.216 44.1057L64.3315 90.5303L61.0896 87.3227L107.974 40.898C109.529 39.3572 111.376 38.1348 113.408 37.3008C115.44 36.4669 117.619 36.0376 119.818 36.0376C122.018 36.0376 124.197 36.4669 126.229 37.3008C128.261 38.1348 130.108 39.3572 131.663 40.898L228.185 136.47C231.326 139.581 233.09 143.8 233.09 148.198C233.09 152.597 231.326 156.816 228.185 159.926L131.663 255.499C130.108 257.039 128.262 258.261 126.23 259.093C124.197 259.925 122.019 260.351 119.82 260.347Z" fill="#6B7F6B"/>
</g>
<g filter="url(#filter1_d_224_7167)">
<path d="M109.163 241.19L25.8999 158.749C24.5006 157.364 23.3907 155.719 22.6334 153.909C21.8761 152.099 21.4863 150.16 21.4863 148.2C21.4863 146.241 21.8761 144.301 22.6334 142.492C23.3907 140.682 24.5006 139.037 25.8999 137.652L109.163 55.2034C111.989 52.4063 115.822 50.835 119.817 50.835C123.813 50.835 127.645 52.4063 130.471 55.2034L213.735 137.652C215.134 139.037 216.244 140.682 217.001 142.492C217.758 144.301 218.148 146.241 218.148 148.2C218.148 150.16 217.758 152.099 217.001 153.909C216.244 155.719 215.134 157.364 213.735 158.749L130.471 241.195C129.072 242.58 127.411 243.679 125.583 244.429C123.754 245.178 121.795 245.564 119.816 245.563C117.838 245.563 115.878 245.176 114.05 244.426C112.223 243.676 110.562 242.576 109.163 241.19Z" fill="white"/>
</g>
<g filter="url(#filter2_d_224_7167)">
<path d="M105.795 233.759L32.7465 161.427C30.9038 159.605 29.4419 157.441 28.4444 155.059C27.447 152.677 26.9336 150.124 26.9336 147.545C26.9336 144.966 27.447 142.413 28.4444 140.031C29.4419 137.648 30.9038 135.484 32.7465 133.662L105.795 64.4484C107.636 62.6251 109.822 61.1787 112.228 60.192C114.634 59.2052 117.212 58.6973 119.816 58.6973C122.42 58.6973 124.999 59.2052 127.405 60.192C129.81 61.1787 131.996 62.6251 133.838 64.4484L206.886 133.662C208.729 135.484 210.191 137.648 211.188 140.031C212.185 142.413 212.699 144.966 212.699 147.545C212.699 150.124 212.185 152.677 211.188 155.059C210.191 157.441 208.729 159.605 206.886 161.427L133.838 233.759C131.996 235.582 129.81 237.029 127.405 238.015C124.999 239.002 122.42 239.51 119.816 239.51C117.212 239.51 114.634 239.002 112.228 238.015C109.822 237.029 107.636 235.582 105.795 233.759Z" fill="white"/>
</g>
<path d="M63.4688 140.494V143.605H67.3975V145.53H63.4688V150.646H61.1309V138.499H67.626V140.494H63.4688ZM74.833 150.646C74.833 149.954 74.8682 149.421 74.9385 149.046H74.9209C74.3057 150.229 73.292 150.821 71.8799 150.821C70.1045 150.821 69.2168 149.875 69.2168 147.982V141.698H71.502V147.42C71.502 148.404 71.874 148.896 72.6182 148.896C73.1982 148.896 73.6904 148.612 74.0947 148.044C74.4932 147.487 74.6924 146.813 74.6924 146.022V141.698H76.9951V150.646H74.833ZM79.5703 150.646V137.506H81.873V150.646H79.5703ZM84.4395 150.646V137.506H86.7422V150.646H84.4395ZM93.3516 151.146C92.7832 152.652 92.1475 153.704 91.4443 154.302C90.7881 154.853 89.9238 155.128 88.8516 155.128C88.4121 155.128 87.9932 155.087 87.5947 155.005L87.8672 153.019C88.248 153.142 88.626 153.203 89.001 153.203C89.9502 153.203 90.627 152.614 91.0312 151.437L91.3213 150.646L88.0078 141.698H90.583L91.7871 145.117C92.0508 145.932 92.2852 146.755 92.4902 147.587H92.5078C92.707 146.778 92.9941 145.829 93.3691 144.739L94.4326 141.698H96.9023L93.3516 151.146ZM106.482 150.646C106.482 150.03 106.512 149.526 106.57 149.134L106.553 149.116C106.066 150.253 105.114 150.821 103.696 150.821C102.905 150.821 102.275 150.578 101.807 150.092C101.361 149.623 101.139 149.017 101.139 148.272C101.139 147.235 101.607 146.45 102.545 145.917C103.436 145.407 104.689 145.152 106.307 145.152V144.827C106.307 144.276 106.187 143.881 105.946 143.641C105.7 143.389 105.287 143.263 104.707 143.263C103.852 143.263 102.949 143.468 102 143.878L101.622 142.111C102.642 141.707 103.77 141.505 105.006 141.505C106.336 141.505 107.282 141.78 107.845 142.331C108.354 142.823 108.609 143.597 108.609 144.651V148.343C108.609 149.222 108.633 149.989 108.68 150.646H106.482ZM106.307 146.664C104.338 146.664 103.354 147.115 103.354 148.018C103.354 148.316 103.45 148.562 103.644 148.756C103.843 148.961 104.106 149.063 104.435 149.063C104.974 149.063 105.425 148.838 105.788 148.387C106.134 147.959 106.307 147.464 106.307 146.901V146.664ZM116.511 150.646C116.511 149.954 116.546 149.421 116.616 149.046H116.599C115.983 150.229 114.97 150.821 113.558 150.821C111.782 150.821 110.895 149.875 110.895 147.982V141.698H113.18V147.42C113.18 148.404 113.552 148.896 114.296 148.896C114.876 148.896 115.368 148.612 115.772 148.044C116.171 147.487 116.37 146.813 116.37 146.022V141.698H118.673V150.646H116.511ZM125.95 150.575C125.282 150.739 124.635 150.821 124.008 150.821C123.023 150.821 122.344 150.616 121.969 150.206C121.6 149.796 121.415 149.066 121.415 148.018V143.482H119.868V141.698H121.415V138.947L123.7 138.332V141.698H125.88V143.482H123.7V147.402C123.7 147.977 123.779 148.366 123.938 148.571C124.09 148.776 124.365 148.879 124.764 148.879C125.162 148.879 125.505 148.838 125.792 148.756L125.95 150.575ZM135.776 146.005C135.776 147.405 135.349 148.56 134.493 149.468C133.632 150.37 132.536 150.821 131.206 150.821C128.411 150.821 127.014 149.321 127.014 146.321C127.014 144.921 127.436 143.772 128.279 142.876C129.135 141.974 130.236 141.522 131.584 141.522C132.902 141.522 133.922 141.883 134.643 142.604C135.398 143.371 135.776 144.505 135.776 146.005ZM133.403 146.128C133.403 144.353 132.744 143.465 131.426 143.465C130.863 143.465 130.395 143.673 130.02 144.089C129.598 144.563 129.387 145.231 129.387 146.093C129.387 147.938 130.055 148.861 131.391 148.861C131.982 148.861 132.46 148.633 132.823 148.176C133.21 147.689 133.403 147.007 133.403 146.128ZM148.257 150.646V144.994C148.257 143.963 147.902 143.447 147.193 143.447C146.66 143.447 146.191 143.714 145.787 144.247C145.354 144.815 145.137 145.521 145.137 146.365V150.646H142.869V144.977C142.869 143.957 142.518 143.447 141.814 143.447C141.27 143.447 140.795 143.723 140.391 144.273C139.969 144.848 139.758 145.545 139.758 146.365V150.646H137.455V141.698H139.635C139.635 142.261 139.6 142.794 139.529 143.298L139.547 143.315C140.133 142.12 141.114 141.522 142.491 141.522C143.839 141.522 144.662 142.114 144.961 143.298C145.529 142.114 146.502 141.522 147.879 141.522C149.666 141.522 150.56 142.513 150.56 144.493V150.646H148.257ZM157.793 150.646C157.793 150.03 157.822 149.526 157.881 149.134L157.863 149.116C157.377 150.253 156.425 150.821 155.007 150.821C154.216 150.821 153.586 150.578 153.117 150.092C152.672 149.623 152.449 149.017 152.449 148.272C152.449 147.235 152.918 146.45 153.855 145.917C154.746 145.407 156 145.152 157.617 145.152V144.827C157.617 144.276 157.497 143.881 157.257 143.641C157.011 143.389 156.598 143.263 156.018 143.263C155.162 143.263 154.26 143.468 153.311 143.878L152.933 142.111C153.952 141.707 155.08 141.505 156.316 141.505C157.646 141.505 158.593 141.78 159.155 142.331C159.665 142.823 159.92 143.597 159.92 144.651V148.343C159.92 149.222 159.943 149.989 159.99 150.646H157.793ZM157.617 146.664C155.648 146.664 154.664 147.115 154.664 148.018C154.664 148.316 154.761 148.562 154.954 148.756C155.153 148.961 155.417 149.063 155.745 149.063C156.284 149.063 156.735 148.838 157.099 148.387C157.444 147.959 157.617 147.464 157.617 146.901V146.664ZM167.153 150.575C166.485 150.739 165.838 150.821 165.211 150.821C164.227 150.821 163.547 150.616 163.172 150.206C162.803 149.796 162.618 149.066 162.618 148.018V143.482H161.071V141.698H162.618V138.947L164.903 138.332V141.698H167.083V143.482H164.903V147.402C164.903 147.977 164.982 148.366 165.141 148.571C165.293 148.776 165.568 148.879 165.967 148.879C166.365 148.879 166.708 148.838 166.995 148.756L167.153 150.575ZM176.188 145.319C176.188 145.853 176.159 146.283 176.101 146.611H170.572C170.572 148.223 171.396 149.028 173.042 149.028C173.909 149.028 174.773 148.853 175.635 148.501L175.881 150.25C174.844 150.631 173.766 150.821 172.646 150.821C169.705 150.821 168.234 149.298 168.234 146.251C168.234 144.874 168.609 143.752 169.359 142.885C170.139 141.977 171.179 141.522 172.479 141.522C173.722 141.522 174.668 141.889 175.318 142.621C175.898 143.283 176.188 144.183 176.188 145.319ZM173.903 145.082C173.938 143.834 173.423 143.21 172.356 143.21C171.313 143.21 170.725 143.834 170.59 145.082H173.903ZM183.58 150.646C183.58 150.136 183.615 149.638 183.686 149.151H183.65C183.117 150.282 182.177 150.848 180.829 150.848C179.763 150.848 178.945 150.467 178.377 149.705C177.838 148.979 177.568 147.959 177.568 146.646C177.568 145.117 177.987 143.89 178.825 142.964C179.681 142.015 180.841 141.54 182.306 141.54C182.71 141.54 183.088 141.563 183.439 141.61V137.506H185.725V150.646H183.58ZM183.439 143.5C182.994 143.406 182.59 143.359 182.227 143.359C180.727 143.359 179.977 144.373 179.977 146.4C179.977 148.088 180.489 148.932 181.515 148.932C182.095 148.932 182.566 148.636 182.93 148.044C183.27 147.487 183.439 146.808 183.439 146.005V143.5Z" fill="#565656"/>
<g filter="url(#filter3_d_224_7167)">
<path d="M143.046 73.8117C155.84 61.1438 155.84 40.6051 143.046 27.9372C130.253 15.2693 109.511 15.2693 96.7173 27.9372C83.9239 40.6051 83.9239 61.1439 96.7173 73.8118C109.511 86.4796 130.253 86.4796 143.046 73.8117Z" fill="#6B7F6B"/>
</g>
<path d="M115.958 55.2201C116.227 55.0181 116.503 54.7934 116.798 54.5938C116.902 54.5412 117.022 54.5302 117.134 54.5632C117.323 54.618 117.491 54.7535 117.682 54.7887C118.082 54.8607 118.17 55.1097 118.183 55.4526C118.193 55.6937 118.242 55.9325 118.276 56.1831H121.673C121.721 55.8386 121.757 55.4902 121.827 55.1488C121.861 55.0396 121.937 54.9479 122.04 54.8936C122.285 54.7668 122.553 54.6807 122.802 54.5585C122.945 54.4881 123.042 54.4857 123.174 54.593C123.44 54.813 123.723 55.0134 123.974 55.2021L126.397 52.822C126.198 52.5731 125.967 52.274 125.721 51.9812C125.61 51.8512 125.584 51.7385 125.674 51.5897C125.747 51.4839 125.798 51.365 125.823 51.2398C125.879 50.8014 126.161 50.6871 126.559 50.6777C126.826 50.6714 127.092 50.6182 127.375 50.5845C127.394 50.4835 127.411 50.3927 127.432 50.2713C127.688 50.2713 127.946 50.2713 128.202 50.2713C129.162 50.2713 129.731 49.7147 129.733 48.7791C129.733 48.0166 129.733 47.2532 129.733 46.4899V46.2057C130.722 46.1439 131.579 46.9776 131.587 48.0064C131.597 49.3859 131.587 50.7653 131.587 52.1448C131.587 53.9841 131.587 55.8232 131.587 57.662V58.0002H108.381C108.376 57.9313 108.367 57.8655 108.367 57.7998C108.367 54.5523 108.367 51.3045 108.367 48.0565C108.367 46.9972 109.132 46.2198 110.223 46.1885V46.5016C110.223 47.2845 110.219 48.0675 110.223 48.8504C110.228 49.6967 110.808 50.2651 111.669 50.2752C111.947 50.2752 112.228 50.2752 112.523 50.2752C112.54 50.3817 112.555 50.4733 112.572 50.5821C112.972 50.6338 113.366 50.6737 113.756 50.7442C113.865 50.7804 113.958 50.8548 114.015 50.9532C114.087 51.066 114.095 51.221 114.165 51.333C114.399 51.6868 114.314 51.9687 114.025 52.2513C113.836 52.4353 113.69 52.6623 113.537 52.8565L115.958 55.2201Z" fill="white"/>
<path d="M122.834 44.6323L123.919 43.8134L125.175 45.0457L124.388 46.0424C124.641 46.6436 124.873 47.2105 125.124 47.7694C125.156 47.8399 125.288 47.8939 125.381 47.908C125.734 47.962 126.091 47.9973 126.464 48.0411V49.7776C126.11 49.823 125.757 49.8559 125.407 49.9209C125.361 49.9333 125.317 49.9556 125.281 49.9861C125.244 50.0167 125.214 50.0548 125.194 50.0978C124.977 50.6913 124.775 51.2902 124.539 51.9713C124.703 52.1803 124.939 52.4786 125.152 52.7487L123.887 53.9865C123.697 53.844 123.457 53.6733 123.228 53.4847C123.113 53.3907 123.034 53.3891 122.89 53.4549C122.325 53.7148 121.745 53.9434 121.176 54.1948C121.132 54.2141 121.093 54.2419 121.061 54.2765C121.029 54.3111 121.004 54.3517 120.989 54.396C120.93 54.6723 120.902 54.955 120.858 55.2572H119.094C119.052 54.9636 119.014 54.6739 118.964 54.3874C118.956 54.3491 118.94 54.3129 118.917 54.2812C118.894 54.2495 118.864 54.2229 118.829 54.2034C118.178 53.9466 117.523 53.7007 116.807 53.4283C116.596 53.5849 116.304 53.8041 116.027 54.0108L114.779 52.7769L115.41 51.9729C115.178 51.3004 114.975 50.692 114.754 50.0892C114.732 50.0469 114.701 50.0098 114.663 49.9805C114.624 49.9511 114.58 49.9303 114.533 49.9193C114.194 49.8582 113.849 49.8261 113.49 49.7745V48.0482C113.842 48.0035 114.186 47.9495 114.53 47.9205C114.723 47.9041 114.811 47.8313 114.883 47.6457C115.082 47.1275 115.318 46.6225 115.566 46.051C115.338 45.755 115.055 45.3957 114.786 45.0504L116.045 43.8189C116.342 44.0459 116.675 44.2886 116.997 44.5486C117.124 44.6503 117.218 44.6425 117.367 44.576C117.799 44.3818 118.242 44.2049 118.689 44.0514C118.849 43.9974 118.916 43.9348 118.934 43.7782C118.979 43.3711 119.036 42.9655 119.094 42.5459H120.861C120.912 42.9475 120.965 43.3421 121.009 43.7383C121.028 43.9105 121.089 43.9958 121.281 44.0561C121.788 44.2166 122.282 44.4241 122.834 44.6323ZM119.968 51.8045C120.515 51.8076 121.05 51.6519 121.506 51.3572C121.962 51.0624 122.318 50.6418 122.53 50.1486C122.742 49.6554 122.799 49.1118 122.695 48.5866C122.591 48.0614 122.33 47.5782 121.946 47.1983C121.561 46.8183 121.07 46.5586 120.534 46.452C119.999 46.3455 119.443 46.3968 118.937 46.5997C118.431 46.8025 117.999 47.1476 117.693 47.5914C117.388 48.0352 117.224 48.5576 117.223 49.0926C117.22 49.4474 117.289 49.7992 117.426 50.1278C117.563 50.4564 117.764 50.7554 118.019 51.0074C118.275 51.2594 118.578 51.4596 118.912 51.5964C119.247 51.7332 119.606 51.8039 119.968 51.8045Z" fill="white"/>
<path d="M108.366 58.9512H131.611C131.585 59.3959 131.604 59.8296 131.531 60.2461C131.382 61.0486 130.641 61.6311 129.81 61.66C129.71 61.66 129.61 61.66 129.51 61.66H110.451C109.103 61.66 108.366 60.9335 108.365 59.608L108.366 58.9512Z" fill="white"/>
<path d="M124.153 62.5986V63.946H124.49C125 63.946 125.508 63.9398 126.017 63.9499C126.077 63.9488 126.137 63.9594 126.193 63.9812C126.249 64.0031 126.3 64.0356 126.343 64.077C126.386 64.1183 126.42 64.1676 126.443 64.2221C126.466 64.2765 126.478 64.3349 126.478 64.3938C126.478 64.642 126.298 64.8229 126.023 64.8432C125.934 64.8495 125.843 64.8432 125.754 64.8432H114.2C114.15 64.8432 114.1 64.8432 114.05 64.8432C113.682 64.8377 113.475 64.6741 113.479 64.3899C113.482 64.1057 113.69 63.9452 114.059 63.9437C114.625 63.9437 115.192 63.9437 115.793 63.9437V62.5986H124.153Z" fill="white"/>
<path d="M127.42 49.3688V48.4653L127.877 48.4371V48.124C127.877 46.6177 127.877 45.1111 127.877 43.6043C127.877 43.1345 128.021 42.9912 128.499 42.9905C128.997 42.9905 129.496 42.9834 129.995 42.9905C130.181 42.9944 130.293 42.956 130.391 42.7775C130.539 42.508 130.777 42.2965 131.065 42.1786C131.353 42.0607 131.674 42.0435 131.974 42.13C132.278 42.2173 132.543 42.4034 132.725 42.6577C132.907 42.912 132.995 43.2193 132.974 43.5291C132.957 43.8292 132.84 44.1154 132.639 44.3431C132.439 44.5709 132.167 44.7273 131.866 44.788C131.576 44.8469 131.273 44.8112 131.005 44.6865C130.737 44.5617 130.518 44.3546 130.381 44.0967C130.297 43.9401 130.211 43.8892 130.038 43.8971C129.719 43.9128 129.398 43.9128 129.079 43.8971C128.854 43.8853 128.79 43.9597 128.791 44.1789C128.8 45.6758 128.796 47.1727 128.795 48.6697C128.795 49.2568 128.68 49.3672 128.076 49.368L127.42 49.3688Z" fill="white"/>
<path d="M112.082 48.4325L112.535 48.4607V49.3328C112.186 49.3328 111.83 49.3657 111.484 49.3227C111.212 49.289 111.164 49.0463 111.164 48.8012C111.164 47.5588 111.164 46.3171 111.164 45.0754V43.9143H109.678C109.514 44.2831 109.241 44.5955 108.806 44.7372C108.471 44.8471 108.106 44.828 107.786 44.6838C107.465 44.5397 107.213 44.2813 107.08 43.9613C106.949 43.6461 106.942 43.2943 107.062 42.9746C107.181 42.6549 107.417 42.3902 107.725 42.2319C108.037 42.0689 108.402 42.0314 108.742 42.1273C109.082 42.2231 109.37 42.4449 109.545 42.7455C109.656 42.9365 109.767 42.9983 109.983 42.9913C110.491 42.9741 110.999 42.9843 111.508 42.9866C111.925 42.9866 112.081 43.1432 112.081 43.5566C112.081 45.0702 112.081 46.5859 112.081 48.1037L112.082 48.4325Z" fill="white"/>
<path d="M112.472 39.3453C113.239 39.3453 113.987 39.3453 114.734 39.3453C115.158 39.3453 115.316 39.4956 115.317 39.905C115.317 40.9228 115.324 41.9406 115.311 42.9584C115.3 43.0976 115.244 43.2298 115.151 43.3357C114.941 43.5808 114.703 43.8055 114.408 44.1014V40.2472C113.763 40.2472 113.157 40.2385 112.553 40.2581C112.478 40.2581 112.398 40.4077 112.339 40.5C112.193 40.7409 111.974 40.9314 111.713 41.0453C111.451 41.1591 111.16 41.1908 110.88 41.1358C110.584 41.0779 110.316 40.9279 110.115 40.7081C109.914 40.4883 109.791 40.2107 109.765 39.9168C109.741 39.6425 109.802 39.3674 109.94 39.1277C110.079 38.8881 110.288 38.6951 110.541 38.5741C111.276 38.2226 112.016 38.5138 112.472 39.3453Z" fill="white"/>
<path d="M125.554 40.2536V44.0898C125.226 43.7641 124.951 43.5018 124.692 43.2286C124.642 43.1746 124.637 43.0665 124.637 42.9828C124.634 41.9556 124.634 40.9284 124.637 39.9013C124.637 39.5098 124.797 39.3532 125.197 39.3532C125.886 39.3532 126.573 39.3477 127.262 39.3532C127.328 39.3615 127.396 39.348 127.454 39.3149C127.512 39.2817 127.557 39.2308 127.582 39.17C127.724 38.8977 127.958 38.6813 128.243 38.5568C128.528 38.4324 128.849 38.4073 129.151 38.4858C129.447 38.5644 129.709 38.7354 129.896 38.973C130.084 39.2105 130.187 39.5015 130.191 39.8018C130.191 40.1078 130.087 40.4052 129.895 40.6464C129.703 40.8877 129.433 41.0589 129.13 41.1328C128.51 41.2893 127.905 41.0185 127.565 40.4383C127.525 40.3702 127.455 40.2692 127.396 40.2684C126.796 40.2489 126.189 40.2536 125.554 40.2536Z" fill="white"/>
<path d="M120.446 41.6118H119.506V40.6128C119.506 40.0945 119.497 39.5762 119.511 39.0587C119.523 38.9847 119.508 38.9092 119.47 38.8443C119.432 38.7795 119.373 38.729 119.302 38.701C119.03 38.5598 118.816 38.3328 118.693 38.057C118.57 37.7812 118.547 37.4728 118.626 37.1821C118.702 36.8866 118.879 36.6251 119.126 36.4403C119.374 36.2555 119.678 36.1582 119.99 36.1643C120.296 36.1641 120.594 36.2641 120.836 36.4485C121.078 36.6329 121.25 36.8911 121.325 37.1821C121.405 37.4727 121.381 37.781 121.259 38.0568C121.136 38.3327 120.922 38.5597 120.65 38.701C120.482 38.791 120.44 38.8881 120.442 39.0634C120.45 39.9027 120.446 40.7443 120.446 41.6118Z" fill="white"/>
<defs>
<filter id="filter0_d_224_7167" x="39.3267" y="17.6316" width="215.001" height="266.785" filterUnits="userSpaceOnUse" color-interpolation-filters="sRGB">
<feFlood flood-opacity="0" result="BackgroundImageFix"/>
<feColorMatrix in="SourceAlpha" type="matrix" values="0 0 0 0 0 0 0 0 0 0 0 0 0 0 0 0 0 0 127 0" result="hardAlpha"/>
<feOffset dy="2.8317"/>
<feGaussianBlur stdDeviation="10.6189"/>
<feComposite in2="hardAlpha" operator="out"/>
<feColorMatrix type="matrix" values="0 0 0 0 0 0 0 0 0 0 0 0 0 0 0 0 0 0 0.15 0"/>
<feBlend mode="normal" in2="BackgroundImageFix" result="effect1_dropShadow_224_7167"/>
<feBlend mode="normal" in="SourceGraphic" in2="effect1_dropShadow_224_7167" result="shape"/>
</filter>
<filter id="filter1_d_224_7167" x="0.248589" y="32.4289" width="239.138" height="237.204" filterUnits="userSpaceOnUse" color-interpolation-filters="sRGB">
<feFlood flood-opacity="0" result="BackgroundImageFix"/>
<feColorMatrix in="SourceAlpha" type="matrix" values="0 0 0 0 0 0 0 0 0 0 0 0 0 0 0 0 0 0 127 0" result="hardAlpha"/>
<feOffset dy="2.8317"/>
<feGaussianBlur stdDeviation="10.6189"/>
<feComposite in2="hardAlpha" operator="out"/>
<feColorMatrix type="matrix" values="0 0 0 0 0 0 0 0 0 0 0 0 0 0 0 0 0 0 0.15 0"/>
<feBlend mode="normal" in2="BackgroundImageFix" result="effect1_dropShadow_224_7167"/>
<feBlend mode="normal" in="SourceGraphic" in2="effect1_dropShadow_224_7167" result="shape"/>
</filter>
<filter id="filter2_d_224_7167" x="5.69585" y="40.2912" width="228.241" height="223.288" filterUnits="userSpaceOnUse" color-interpolation-filters="sRGB">
<feFlood flood-opacity="0" result="BackgroundImageFix"/>
<feColorMatrix in="SourceAlpha" type="matrix" values="0 0 0 0 0 0 0 0 0 0 0 0 0 0 0 0 0 0 127 0" result="hardAlpha"/>
<feOffset dy="2.8317"/>
<feGaussianBlur stdDeviation="10.6189"/>
<feComposite in2="hardAlpha" operator="out"/>
<feColorMatrix type="matrix" values="0 0 0 0 0 0 0 0 0 0 0 0 0 0 0 0 0 0 0.15 0"/>
<feBlend mode="normal" in2="BackgroundImageFix" result="effect1_dropShadow_224_7167"/>
<feBlend mode="normal" in="SourceGraphic" in2="effect1_dropShadow_224_7167" result="shape"/>
</filter>
<filter id="filter3_d_224_7167" x="65.8853" y="0.0304823" width="107.993" height="107.351" filterUnits="userSpaceOnUse" color-interpolation-filters="sRGB">
<feFlood flood-opacity="0" result="BackgroundImageFix"/>
<feColorMatrix in="SourceAlpha" type="matrix" values="0 0 0 0 0 0 0 0 0 0 0 0 0 0 0 0 0 0 127 0" result="hardAlpha"/>
<feOffset dy="2.8317"/>
<feGaussianBlur stdDeviation="10.6189"/>
<feComposite in2="hardAlpha" operator="out"/>
<feColorMatrix type="matrix" values="0 0 0 0 0 0 0 0 0 0 0 0 0 0 0 0 0 0 0.15 0"/>
<feBlend mode="normal" in2="BackgroundImageFix" result="effect1_dropShadow_224_7167"/>
<feBlend mode="normal" in="SourceGraphic" in2="effect1_dropShadow_224_7167" result="shape"/>
</filter>
</defs>
</svg>
