<svg width="1232" height="330" viewBox="0 0 1232 330" fill="none" xmlns="http://www.w3.org/2000/svg">
<path d="M801.819 20.5098H1217C1223.63 20.5098 1229 25.8823 1229 32.5098V297.435C1229 304.062 1223.63 309.435 1217 309.435H241" stroke="#EEEEEE" stroke-width="2" stroke-miterlimit="10"/>
<path d="M167.668 306.514H15C8.37257 306.514 3 301.142 3 294.514V32.5098C3 25.8824 8.37258 20.5098 15 20.5098H295" stroke="#EEEEEE" stroke-width="2" stroke-miterlimit="10"/>
<path d="M1116.69 308L668.719 308.771" stroke="#EEEEEE" stroke-width="5" stroke-miterlimit="10"/>
<path d="M416 20.5098H1217C1223.63 20.5098 1229 25.8823 1229 32.5098V263.394" stroke="#EEEEEE" stroke-width="5" stroke-miterlimit="10"/>
<path d="M3 221.294V32.5098C3 25.8823 8.37258 20.5098 15 20.5098H89" stroke="#EEEEEE" stroke-width="5" stroke-miterlimit="10"/>
<path d="M141.157 306.053H15C8.3726 306.053 3 300.68 3 294.053V280.262" stroke="#EEEEEE" stroke-width="5" stroke-miterlimit="10"/>
<path d="M378.35 17.8807C376.992 26.9745 372.993 35.3677 366.931 41.8503L363.708 39.2578C367.585 34.8459 369.572 30.9041 369.67 27.4322C369.565 25.4764 368.217 24.0892 365.646 23.2705C364.888 23.0431 364.087 22.7474 363.224 22.4063C361.281 21.5676 359.628 20.0964 358.496 18.1972C357.363 16.298 356.807 14.0651 356.904 11.8088C356.894 9.99986 357.284 8.2145 358.041 6.60096C358.778 4.59775 360.07 2.88909 361.74 1.70861C363.411 0.528136 365.378 -0.0665348 367.374 0.00591401C368.818 -0.0209856 370.253 0.273181 371.587 0.870103C376.348 2.71975 378.729 7.06337 378.729 13.901C378.713 15.2371 378.586 16.5691 378.35 17.8807ZM352.458 17.8807C351.092 26.9763 347.086 35.3689 341.019 41.8503L337.817 39.2578C341.679 34.8459 343.659 30.9041 343.758 27.4322C343.758 25.4764 342.304 24.0892 339.734 23.2705C338.997 23.0431 338.196 22.7474 337.332 22.4063C335.386 21.5733 333.73 20.1034 332.596 18.2028C331.463 16.3023 330.909 14.0664 331.012 11.8088C331.004 10.0027 331.386 8.21937 332.129 6.60096C332.868 4.59969 334.161 2.8929 335.831 1.71285C337.5 0.532793 339.467 -0.0632232 341.461 0.00591401C342.906 -0.0209856 344.34 0.273181 345.675 0.870103C350.394 2.71975 352.753 7.06337 352.753 13.901C352.755 15.234 352.657 16.565 352.458 17.8807Z" fill="#0F898C"/>
<path d="M180.279 311.97C181.65 302.876 185.655 294.484 191.719 288L194.921 290.593C191.073 295.004 189.092 298.946 188.98 302.418C188.98 304.374 190.434 305.784 193.004 306.58C193.741 306.807 194.563 307.103 195.405 307.444C197.352 308.277 199.008 309.747 200.142 311.647C201.275 313.548 201.829 315.784 201.726 318.042C201.734 319.848 201.352 321.631 200.609 323.249C199.873 325.255 198.582 326.967 196.912 328.151C195.242 329.335 193.274 329.934 191.276 329.867C189.83 329.887 188.396 329.585 187.063 328.98C182.344 327.131 179.984 322.794 179.984 315.972C179.982 314.631 180.081 313.293 180.279 311.97ZM206.192 311.97C207.564 302.881 211.56 294.492 217.61 288L220.833 290.593C216.971 295.004 214.991 298.946 214.892 302.418C214.998 304.374 216.325 305.784 218.916 306.58C219.654 306.807 220.454 307.103 221.318 307.444C223.264 308.277 224.921 309.747 226.054 311.647C227.187 313.548 227.741 315.784 227.638 318.042C227.648 319.85 227.258 321.636 226.5 323.249C225.767 325.257 224.477 326.97 222.806 328.155C221.135 329.34 219.166 329.938 217.168 329.867C215.722 329.887 214.287 329.585 212.954 328.98C208.235 327.131 205.876 322.794 205.876 315.972C205.881 314.631 205.986 313.292 206.192 311.97Z" fill="#EEEEEE"/>
</svg>
