<svg width="25" height="34" viewBox="0 0 25 34" fill="none" xmlns="http://www.w3.org/2000/svg">
<path d="M2.68627 33.129C1.98251 32.7259 1.86848 32.4363 2.09058 31.6251C3.71368 25.673 5.33479 19.721 6.95392 13.769C7.02795 13.494 7.14539 13.3737 7.42365 13.3092C8.7231 13.0076 10.0174 12.6767 11.3143 12.3613C11.3739 12.3467 11.436 12.339 11.5288 12.3218V12.6879C11.5288 14.4066 11.5688 16.1254 11.5143 17.8441C11.4803 18.9115 11.3237 19.9779 11.1875 21.0401C10.8701 23.5323 10.5323 26.0159 10.2038 28.5047C10.0455 29.6949 9.87787 30.8851 9.73916 32.0779C9.68045 32.5858 9.45153 32.9373 8.99201 33.1358L2.68627 33.129Z" fill="#502A74"/>
<path d="M15.9984 33.129C15.4879 32.9184 15.3057 32.5085 15.2368 31.9766C14.7404 28.138 14.2335 24.2995 13.7161 20.4609C13.5459 19.1934 13.4285 17.9284 13.4549 16.6462C13.4847 15.2093 13.4617 13.7724 13.4617 12.2952L15.0292 12.6845C15.9142 12.9036 16.7984 13.1253 17.6851 13.335C17.7621 13.3459 17.8337 13.3813 17.8895 13.4359C17.9454 13.4906 17.9825 13.5618 17.9957 13.6392C19.6409 19.6944 21.2893 25.7487 22.9407 31.8021C23.1109 32.4234 22.9509 32.7397 22.305 33.1264L15.9984 33.129Z" fill="#502A74"/>
<path d="M3.13189 0.128906C3.24848 0.236328 3.37102 0.338593 3.4825 0.452031C6.08762 3.08745 8.69331 5.72286 11.2996 8.35828C11.3786 8.42712 11.4408 8.51338 11.4815 8.61038C11.5223 8.70738 11.5404 8.81254 11.5344 8.91773C11.5149 9.36719 11.5285 9.81836 11.5285 10.2927C11.4247 10.3245 11.3285 10.3589 11.2289 10.3787C8.04912 11.1687 4.86874 11.9568 1.68778 12.7428C0.535562 13.0281 -0.220106 12.2659 0.0607168 11.0997C0.888434 7.61807 1.71927 4.13674 2.55323 0.655703C2.59748 0.470078 2.72342 0.304219 2.81363 0.128906H3.13189Z" fill="#502A74"/>
<path d="M22.1776 0.128906C22.2687 0.314531 22.398 0.490703 22.4457 0.6875C23.2864 4.17656 24.1215 7.66677 24.9509 11.1581C25.2062 12.2255 24.4497 13.0135 23.3979 12.7566C20.1506 11.9671 16.9078 11.1682 13.6695 10.3598C13.6083 10.3443 13.5496 10.3177 13.4628 10.2859C13.4628 9.77023 13.4559 9.24344 13.4687 8.71922C13.4833 8.61623 13.5322 8.52135 13.6074 8.45023C16.2835 5.73633 18.9623 3.02471 21.644 0.31539C21.7104 0.248359 21.787 0.190781 21.8593 0.128906H22.1776Z" fill="#502A74"/>
<path d="M19.1234 0.128906L12.4908 6.81141C10.2817 4.58161 8.07512 2.35411 5.87109 0.128906H19.1234Z" fill="#502A74"/>
</svg>
