<svg width="32" height="33" viewBox="0 0 32 33" fill="none" xmlns="http://www.w3.org/2000/svg">
<path d="M0 16.1289V2.56641C0.0241667 2.47724 0.0491663 2.38891 0.0724996 2.29974C0.275 1.51557 0.710832 0.896406 1.42333 0.508906C1.7375 0.338073 2.0975 0.253073 2.4375 0.128906H16C16.0162 0.141681 16.0342 0.152064 16.0533 0.159739C17.6783 0.573906 18.4375 1.54724 18.4375 3.23391C18.4375 7.34502 18.4375 11.4561 18.4375 15.5672C18.4375 17.3689 17.245 18.5589 15.4433 18.5606C13.84 18.5606 12.2367 18.5606 10.6333 18.5606C10.4258 18.5606 10.3042 18.6072 10.195 18.8047C9.12333 20.7389 7.4725 21.8731 5.3125 22.2839C4.66083 22.4072 4.1575 21.9931 4.13917 21.3297C4.13 21.0181 4.13917 20.7056 4.13917 20.3931C4.13917 19.7922 4.13917 19.1922 4.13917 18.5597C3.64667 18.5597 3.19083 18.5706 2.73583 18.5597C2.16035 18.5413 1.60431 18.3471 1.14248 18.0033C0.680643 17.6594 0.335168 17.1824 0.152501 16.6364C0.0883348 16.4689 0.0475 16.2981 0 16.1289ZM12 8.01891C12.1883 8.01891 12.3533 8.01891 12.5192 8.01891C12.685 8.01891 12.8525 8.02391 13.0192 8.01891C13.2131 8.01342 13.4002 7.94657 13.5537 7.82797C13.7072 7.70937 13.8191 7.54514 13.8733 7.35891C14.0608 6.73141 13.6133 6.16057 12.9092 6.15141C12.1075 6.14057 11.305 6.15141 10.5033 6.14724C10.3942 6.14724 10.285 6.13641 10.1508 6.12891C10.1508 5.93057 10.1575 5.76474 10.1508 5.59974C10.125 5.05057 9.74167 4.65557 9.23417 4.64557C8.72667 4.63557 8.3125 5.04224 8.285 5.6039C8.27667 5.7764 8.285 5.94891 8.285 6.13474C8.1575 6.14057 8.07583 6.14724 7.99417 6.14807C7.18167 6.14807 6.37 6.14807 5.5575 6.14807C4.95083 6.15307 4.5225 6.54641 4.51917 7.08474C4.51583 7.62307 4.93583 8.01391 5.54917 8.02057C5.83917 8.02057 6.1325 8.02057 6.43917 8.02057C6.58583 9.32224 6.97083 10.5131 7.7725 11.5622C7.04083 11.9237 6.2439 12.1343 5.42917 12.1814C4.8875 12.2222 4.49917 12.6406 4.52167 13.1422C4.52745 13.2703 4.55913 13.3959 4.61479 13.5114C4.67044 13.6269 4.74892 13.7299 4.84549 13.8143C4.94206 13.8986 5.05471 13.9625 5.17666 14.0021C5.2986 14.0417 5.4273 14.0562 5.555 14.0447C6.77833 13.9731 7.935 13.6614 8.99 13.0256C9.0577 12.9741 9.14039 12.9463 9.22542 12.9463C9.31044 12.9463 9.39313 12.9741 9.46083 13.0256C10.5167 13.6589 11.6733 13.9714 12.8967 14.0422C13.0218 14.0533 13.1479 14.0394 13.2676 14.0014C13.3873 13.9634 13.4983 13.902 13.5941 13.8207C13.6899 13.7395 13.7686 13.64 13.8257 13.5282C13.8828 13.4163 13.9171 13.2942 13.9267 13.1689C13.9692 12.6589 13.5733 12.2264 13.02 12.1772C12.8433 12.1614 12.6658 12.1506 12.4917 12.1231C11.8658 12.0247 11.2583 11.8672 10.6792 11.5522C11.4775 10.4997 11.8492 9.30974 12 8.01891Z" fill="#1C2A33"/>
<path d="M29.5628 32.1289H16.0003C15.9745 32.1111 15.9465 32.0968 15.917 32.0864C14.3761 31.7197 13.5645 30.6972 13.5645 29.1156C13.5645 26.345 13.5645 23.5745 13.5645 20.8039V20.4381C14.2911 20.4381 14.9861 20.4464 15.6803 20.4381C16.6465 20.4367 17.5867 20.1247 18.362 19.5481C19.6203 18.6114 20.2711 17.3489 20.307 15.7797C20.322 15.0956 20.307 14.4106 20.307 13.7406C20.357 13.7181 20.3753 13.7022 20.3903 13.7022C20.7236 13.7022 21.057 13.6839 21.3903 13.7022C21.5961 13.7131 21.6986 13.6406 21.7986 13.4606C22.8703 11.5247 24.5228 10.3914 26.6811 9.9789C27.337 9.85307 27.8361 10.2639 27.8578 10.9289C27.8661 11.1681 27.8578 11.4081 27.8578 11.6481C27.8578 12.3214 27.8578 12.9947 27.8578 13.6997C28.3486 13.6997 28.8053 13.6797 29.2595 13.6997C30.3695 13.7581 31.197 14.2831 31.6978 15.2831C31.832 15.5489 31.8961 15.8489 31.9928 16.1331V29.6914C31.9703 29.7697 31.9453 29.8489 31.9253 29.9281C31.7253 30.7372 31.2786 31.3706 30.5411 31.7614C30.2428 31.9272 29.8928 32.0097 29.5628 32.1289ZM27.4836 26.5864C27.4516 26.4511 27.4084 26.3187 27.3545 26.1906C26.1261 23.7245 24.895 21.2603 23.6611 18.7981C23.477 18.4281 23.1886 18.2106 22.7761 18.2147C22.3786 18.2147 22.097 18.4306 21.9178 18.7897C20.6828 21.2642 19.4464 23.7381 18.2086 26.2114C17.9586 26.7114 18.1253 27.2614 18.5878 27.5014C19.0711 27.7514 19.6053 27.5747 19.8778 27.0581C20.0711 26.6906 20.2395 26.3081 20.4461 25.9481C20.4818 25.8931 20.5291 25.8467 20.5847 25.812C20.6403 25.7773 20.7028 25.7552 20.7678 25.7472C22.1103 25.7331 23.4536 25.7414 24.797 25.7339C24.8726 25.7259 24.9488 25.744 25.0128 25.7852C25.0768 25.8264 25.1247 25.8883 25.1486 25.9606C25.3336 26.3556 25.527 26.7481 25.7378 27.1272C25.8369 27.313 25.9975 27.4586 26.192 27.5391C26.3866 27.6197 26.603 27.6302 26.8045 27.5689C27.2003 27.4631 27.4886 27.0814 27.4836 26.5864Z" fill="#1C2A33"/>
<path d="M0 21.5039C0.0298753 21.4651 0.0576914 21.4248 0.0833333 21.3831C0.314167 20.9523 0.719166 20.7481 1.14 20.8531C1.595 20.9656 1.8675 21.3123 1.87583 21.8106C1.90167 23.3531 2.38667 24.7323 3.36667 25.9248C4.48 27.2798 5.91917 28.0631 7.655 28.3039C7.7575 28.3181 7.86167 28.3164 8.03667 28.3264C7.92417 28.2031 7.84833 28.1264 7.77917 28.0448C7.61565 27.8653 7.52732 27.6299 7.53244 27.3872C7.53756 27.1445 7.63573 26.913 7.80667 26.7406C7.97393 26.5713 8.20049 26.4736 8.43843 26.4684C8.67638 26.4631 8.90705 26.5505 9.08167 26.7123C9.75222 27.3511 10.4072 28.0064 11.0467 28.6781C11.207 28.8481 11.2944 29.0741 11.2902 29.3077C11.286 29.5413 11.1905 29.764 11.0242 29.9281C10.395 30.5806 9.75083 31.2181 9.10083 31.8448C8.9725 31.9689 8.785 32.0314 8.625 32.1231H8.3125C8.29004 32.1028 8.26512 32.0855 8.23833 32.0714C7.46917 31.7848 7.29667 31.0389 7.8625 30.4414C7.92083 30.3789 7.97167 30.3098 8.04667 30.2198C7.95833 30.2064 7.91917 30.1973 7.88 30.1948C4.39083 29.9331 1.46334 27.6414 0.403336 24.3156C0.216669 23.7264 0.132501 23.1048 0.000834147 22.4981L0 21.5039Z" fill="#1C2A33"/>
<path d="M31.9993 10.6289C31.8593 10.9622 31.6902 11.2631 31.3077 11.3714C30.7002 11.5431 30.131 11.1214 30.1135 10.4589C30.0793 9.19307 29.7585 8.01641 29.0752 6.94391C27.951 5.17807 25.9585 3.98724 23.956 3.92141C24.0535 4.02891 24.1227 4.1039 24.1935 4.18224C24.5368 4.57557 24.5318 5.12724 24.1835 5.48307C24.0983 5.57173 23.9962 5.64247 23.8833 5.69114C23.7704 5.73982 23.6489 5.76546 23.526 5.76654C23.403 5.76763 23.2811 5.74415 23.1673 5.69747C23.0536 5.6508 22.9503 5.58187 22.8635 5.49474C22.2191 4.87307 21.5857 4.24002 20.9635 3.59557C20.8762 3.51181 20.8068 3.41128 20.7594 3.30001C20.712 3.18874 20.6875 3.06903 20.6875 2.94807C20.6875 2.82711 20.712 2.70741 20.7594 2.59614C20.8068 2.48487 20.8762 2.38433 20.9635 2.30057C21.5868 1.65724 22.2227 1.02641 22.8643 0.40224C22.9868 0.283073 23.161 0.218073 23.311 0.128906H23.7485C23.77 0.149551 23.7938 0.167719 23.8193 0.183072C24.5268 0.516406 24.6618 1.21724 24.1268 1.78141C24.0668 1.84557 24.011 1.91307 23.9302 2.00474C24.0752 2.02391 24.1802 2.04057 24.2793 2.05057C27.9635 2.39891 30.936 5.00391 31.7677 8.62641C31.871 9.07974 31.9227 9.54307 31.9985 10.0039L31.9993 10.6289Z" fill="#1C2A33"/>
<path d="M8.33594 8.03467H10.0551C10.0984 8.658 9.68927 9.77634 9.20594 10.3372C8.69677 9.65717 8.4476 8.8955 8.33594 8.03467Z" fill="#1C2A33"/>
<path d="M21.4863 23.8407L22.7838 21.2466C23.2247 22.1282 23.6447 22.9666 24.0813 23.8407H21.4863Z" fill="#1C2A33"/>
</svg>
