<svg width="30" height="29" viewBox="0 0 30 29" fill="none" xmlns="http://www.w3.org/2000/svg">
<path d="M28.8936 18.2702L24.7307 17.0183L20.8871 15.8499C20.4461 15.6913 19.9686 15.6646 19.5128 15.7733C19.057 15.882 18.6425 16.1213 18.32 16.462C17.9764 16.7827 17.736 17.1989 17.6297 17.6573C17.5234 18.1157 17.556 18.5955 17.7233 19.0352C18.3061 20.9548 18.8751 22.8743 19.4579 24.7938C19.4579 24.9051 19.5272 25.0303 19.5827 25.2111H3.94445C3.41659 25.223 2.89189 25.1262 2.40287 24.9266C1.91386 24.727 1.47091 24.4289 1.10149 24.0508C0.732059 23.6726 0.444016 23.2225 0.255175 22.7282C0.0663335 22.2339 -0.0192875 21.7061 0.0036377 21.1773V4.13806C-0.0178851 3.60622 0.0707658 3.07567 0.263983 2.57988C0.4572 2.08409 0.750789 1.63381 1.12626 1.25744C1.50173 0.881057 1.95094 0.586746 2.44554 0.393062C2.94013 0.199378 3.46939 0.110522 3.99994 0.132097H24.8973C25.429 0.110391 25.9595 0.199625 26.4551 0.394147C26.9507 0.588669 27.4006 0.88424 27.7762 1.26214C28.1519 1.64003 28.4452 2.09202 28.6375 2.58947C28.8299 3.08692 28.9171 3.61899 28.8936 4.15197C28.8936 8.72822 28.8936 13.3184 28.8936 17.9086V18.2702ZM27.0064 6.69742C27.0064 5.68202 27.0064 4.68053 27.0064 3.69295C26.938 3.28812 26.755 2.91152 26.4791 2.608C26.2722 2.38576 26.0166 2.21478 25.7324 2.10857C25.4482 2.00235 25.1433 1.96381 24.8418 1.99598H3.75019C3.31069 2.01018 2.88992 2.17777 2.56057 2.46982C2.23122 2.76188 2.01397 3.16005 1.9463 3.59558C1.86304 4.61098 1.9463 5.64029 1.9463 6.68351L27.0064 6.69742Z" fill="#80C343"/>
<path d="M30.0033 20.9407C30.0082 21.154 29.9388 21.3622 29.8071 21.5297C29.6754 21.6973 29.4897 21.8136 29.2818 21.8588C28.1301 22.2622 26.9783 22.6516 25.8128 23.0272C25.5995 23.0837 25.4049 23.1959 25.249 23.3522C25.093 23.5086 24.9811 23.7036 24.9247 23.9174C24.5639 25.0719 24.1615 26.2125 23.773 27.367C23.7307 27.5817 23.6143 27.7746 23.4443 27.9119C23.2743 28.0493 23.0616 28.1222 22.8433 28.1181C22.6247 28.1212 22.4122 28.0457 22.2442 27.9054C22.0762 27.7651 21.9639 27.5692 21.9275 27.3531L19.2633 18.59C19.1932 18.4136 19.1769 18.2203 19.2164 18.0347C19.2559 17.849 19.3495 17.6792 19.4853 17.5468C19.6171 17.4193 19.783 17.333 19.9629 17.2984C20.1427 17.2638 20.3288 17.2825 20.4982 17.3521L29.2124 20.0088C29.7535 20.1757 30.0033 20.4678 30.0033 20.9407Z" fill="#80C343"/>
<path d="M5.08277 3.51221C5.30137 3.51917 5.50912 3.60933 5.66378 3.76436C5.81844 3.91939 5.90839 4.12765 5.91534 4.34678C5.91535 4.45756 5.89336 4.56723 5.85065 4.66941C5.80795 4.77158 5.74538 4.86421 5.6666 4.94189C5.58781 5.01957 5.49439 5.08075 5.39177 5.12187C5.28915 5.16298 5.17939 5.1832 5.0689 5.18136C4.85155 5.1779 4.64384 5.09075 4.48884 4.93797C4.33384 4.78519 4.24343 4.57848 4.23633 4.36069C4.2399 4.13678 4.33023 3.92304 4.4882 3.76469C4.64617 3.60633 4.85939 3.51579 5.08277 3.51221Z" fill="#80C343"/>
<path d="M7.19188 4.33287C7.19552 4.11395 7.28484 3.90523 7.44058 3.75171C7.59632 3.59819 7.806 3.51218 8.02443 3.51221C8.13497 3.51399 8.24404 3.53783 8.34529 3.58232C8.44654 3.62681 8.53794 3.69107 8.61415 3.77135C8.69035 3.85163 8.74985 3.94631 8.78916 4.04989C8.82848 4.15346 8.84683 4.26385 8.84313 4.3746C8.84135 4.48358 8.81792 4.59111 8.77424 4.69091C8.73055 4.79072 8.66747 4.8808 8.58867 4.95591C8.50988 5.03101 8.41695 5.08962 8.31531 5.12833C8.21367 5.16704 8.10536 5.18507 7.99669 5.18136C7.88798 5.17957 7.78069 5.1561 7.68113 5.11231C7.58156 5.06851 7.4917 5.00528 7.41678 4.92629C7.34186 4.8473 7.28339 4.75415 7.24477 4.65226C7.20616 4.55038 7.18818 4.4418 7.19188 4.33287Z" fill="#80C343"/>
<path d="M11.7845 4.33287C11.7882 4.4418 11.7703 4.55038 11.7316 4.65226C11.693 4.75415 11.6346 4.8473 11.5596 4.92629C11.4847 5.00528 11.3948 5.06851 11.2953 5.11231C11.1957 5.1561 11.0884 5.17957 10.9797 5.18136C10.8722 5.18507 10.765 5.16751 10.6642 5.12966C10.5635 5.09182 10.4712 5.03444 10.3926 4.9608C10.314 4.88717 10.2506 4.79872 10.2061 4.70053C10.1616 4.60233 10.1369 4.4963 10.1333 4.38851C10.1296 4.27707 10.1478 4.16599 10.187 4.06163C10.2261 3.95726 10.2854 3.86165 10.3614 3.78026C10.4375 3.69888 10.5288 3.63332 10.6301 3.58732C10.7314 3.54132 10.8408 3.5158 10.952 3.51221C11.1693 3.51566 11.377 3.60281 11.532 3.75559C11.687 3.90838 11.7774 4.11508 11.7845 4.33287Z" fill="#80C343"/>
</svg>
