<svg width="33" height="35" viewBox="0 0 33 35" fill="none" xmlns="http://www.w3.org/2000/svg">
<path d="M13.6943 17.6549C11.4557 15.4387 9.18322 13.19 6.92969 10.963L14.2133 3.75342L20.9779 10.4454L13.6943 17.6549Z" fill="#8C1ECB"/>
<path d="M19.2524 13.4568L21.3744 15.3197C24.9131 18.4308 28.4512 21.5426 31.9885 24.655C33.0974 25.6332 33.3116 27.1211 32.5395 28.2883C31.5223 29.8255 29.3514 29.9849 28.0782 28.5973C26.9106 27.318 25.7649 26.0258 24.6103 24.7386L16.9391 16.1877C16.8574 16.0962 16.7787 16.0007 16.7109 15.922L19.2524 13.4568Z" fill="#8C1ECB"/>
<path d="M9.58109 34.1289H1.08302C0.237195 34.1289 0.00307479 33.8957 0.00307479 33.0543C0.00307479 32.513 -0.00688764 31.9717 0.00905246 31.4315C0.0219861 30.8471 0.264835 30.2907 0.686097 29.8803C1.10736 29.4699 1.6739 29.2377 2.26557 29.233C7.1366 29.2231 12.007 29.2231 16.8767 29.233C18.1419 29.233 19.1342 30.2171 19.1681 31.4797C19.184 31.9954 19.173 32.512 19.173 33.0287C19.173 33.8927 18.9369 34.1309 18.0772 34.1309L9.58109 34.1289Z" fill="#8C1ECB"/>
<path d="M2.53576 28.4802C2.53576 28.0757 2.51683 27.7067 2.53576 27.3396C2.60749 26.1469 3.5609 25.1962 4.76637 25.1893C7.98428 25.1696 11.2019 25.1696 14.4191 25.1893C15.6485 25.1972 16.6168 26.2098 16.6467 27.4242C16.6557 27.7667 16.6467 28.1131 16.6467 28.4792L2.53576 28.4802Z" fill="#8C1ECB"/>
<path d="M4.98216 10.834C5.20717 10.8272 5.43115 10.8666 5.64 10.9496C5.84884 11.0326 6.03802 11.1574 6.1956 11.3162C8.58662 13.6781 10.9756 16.0439 13.3627 18.4136C13.526 18.5711 13.6556 18.7594 13.7438 18.9673C13.832 19.1752 13.8771 19.3985 13.8762 19.624C13.8754 19.8494 13.8287 20.0724 13.739 20.2797C13.6492 20.4869 13.5182 20.6743 13.3537 20.8306C13.1972 20.9904 13.0098 21.1175 12.8028 21.2047C12.5957 21.2918 12.373 21.337 12.1479 21.3378C11.9228 21.3385 11.6999 21.2947 11.4922 21.2089C11.2845 21.1232 11.0964 20.9972 10.9388 20.8385C8.5305 18.4746 6.13251 16.1013 3.74481 13.7184C3.20982 13.185 3.11916 12.5237 3.42202 11.8427C3.71492 11.1824 4.25988 10.8645 4.98216 10.834Z" fill="#8C1ECB"/>
<path d="M15.8026 0.129954C16.0274 0.121906 16.2515 0.160286 16.4604 0.242641C16.6694 0.324995 16.8586 0.449513 17.0161 0.608232C19.4157 2.97994 21.8127 5.35492 24.207 7.73319C24.8875 8.41321 24.8476 9.4603 24.1752 10.1246C24.0175 10.283 23.8295 10.4089 23.6221 10.4948C23.4147 10.5807 23.1921 10.6249 22.9672 10.6249C22.7423 10.6249 22.5197 10.5807 22.3123 10.4948C22.1049 10.4089 21.9169 10.283 21.7592 10.1246C19.3523 7.76271 16.954 5.38904 14.5643 3.00355C14.0402 2.48099 13.9426 1.8305 14.2265 1.16032C14.5105 0.490139 15.0614 0.151605 15.8026 0.129954Z" fill="#8C1ECB"/>
</svg>
