<svg width="32" height="35" viewBox="0 0 32 35" fill="none" xmlns="http://www.w3.org/2000/svg">
<path d="M0.0166062 21.2257C0.0166062 17.9148 0.0548549 14.5954 0.000350214 11.2817C-0.0245116 9.54771 1.27691 8.22998 3.08321 8.24227C8.27455 8.27633 13.4668 8.25362 18.6591 8.25457C20.5276 8.25457 21.7057 9.4219 21.7066 11.2722V31.1243C21.7066 32.9557 20.5266 34.1306 18.6859 34.1306C13.4343 34.1306 8.18307 34.1306 2.93213 34.1306C1.4911 34.1306 0.362759 33.2527 0.0749359 31.9057C0.0287905 31.6396 0.00988917 31.3696 0.0185187 31.0997C0.0159688 27.8084 0.0153312 24.517 0.0166062 21.2257ZM10.8764 16.0285C13.1714 16.0285 15.4663 16.0285 17.7612 16.0285C18.4086 16.0285 18.6065 15.8289 18.6094 15.1828C18.6094 14.4658 18.6142 13.7488 18.6094 13.0317C18.6046 12.4764 18.3885 12.256 17.8358 12.256C13.1905 12.256 8.54452 12.256 3.89792 12.256C3.34713 12.256 3.11955 12.4849 3.11572 13.0289C3.11572 13.7223 3.11572 14.4157 3.11572 15.11C3.11572 15.8431 3.30219 16.0285 4.03848 16.0295L10.8764 16.0285ZM16.1835 23.5537C15.7799 23.5537 15.3764 23.5443 14.9729 23.5537C14.5904 23.5651 14.3418 23.7949 14.315 24.161C14.2949 24.4539 14.2949 24.7479 14.315 25.0408C14.3389 25.3946 14.577 25.6453 14.9318 25.6528C15.7503 25.6698 16.5691 25.6698 17.3883 25.6528C17.7622 25.6453 17.9926 25.3851 18.0089 25.0124C18.0194 24.7551 18.0175 24.4959 18.0089 24.2377C17.9965 23.8053 17.7593 23.5641 17.3223 23.5518C16.9398 23.5452 16.5593 23.5537 16.1796 23.5537H16.1835ZM10.864 23.5537H9.68593C9.26519 23.5764 9.02709 23.8072 9.01658 24.2159C9.00829 24.4738 9.00829 24.7321 9.01658 24.9906C9.02996 25.4012 9.26711 25.6528 9.68593 25.6594C10.4681 25.6714 11.2513 25.6714 12.0354 25.6594C12.4475 25.6538 12.6923 25.405 12.7162 24.9973C12.7296 24.7636 12.7248 24.5243 12.7162 24.2935C12.7038 23.7997 12.4628 23.5603 11.9675 23.5528C11.5965 23.548 11.2283 23.5528 10.8602 23.5528L10.864 23.5537ZM5.59043 23.5537C5.1869 23.5537 4.78338 23.5452 4.37985 23.5537C3.99736 23.5641 3.74683 23.7808 3.71815 24.1525C3.69424 24.4567 3.69424 24.7622 3.71815 25.0663C3.71986 25.1464 3.73768 25.2253 3.77055 25.2985C3.80343 25.3718 3.8507 25.4377 3.90962 25.4927C3.96854 25.5476 4.03793 25.5904 4.11374 25.6186C4.18954 25.6467 4.27025 25.6596 4.35116 25.6566C5.15822 25.6698 5.96527 25.6717 6.77137 25.6566C7.14812 25.649 7.37857 25.4002 7.40056 25.0247C7.41586 24.7674 7.41395 24.5082 7.40534 24.2509C7.38908 23.7949 7.1529 23.5632 6.69296 23.5528C6.32194 23.5471 5.95475 23.5528 5.5866 23.5537H5.59043ZM16.1701 21.1737C16.5736 21.1737 16.9771 21.186 17.3797 21.1737C17.7622 21.1595 17.9879 20.9211 18.0041 20.5436C18.0146 20.2863 18.0118 20.0271 18.0041 19.7689C17.9926 19.3319 17.7651 19.0925 17.3204 19.0869C16.5376 19.0755 15.7548 19.0755 14.9719 19.0869C14.5569 19.0935 14.3217 19.3413 14.3026 19.7557C14.2921 20.0016 14.293 20.2485 14.3026 20.4945C14.3198 20.9296 14.555 21.1651 14.9939 21.1774C15.3879 21.185 15.779 21.1737 16.1701 21.1737ZM16.1844 28.0357C15.7809 28.0357 15.3774 28.0253 14.9748 28.0357C14.5722 28.0461 14.3303 28.2788 14.3054 28.6686C14.2878 28.9496 14.2878 29.2314 14.3054 29.5124C14.3294 29.8709 14.5627 30.1121 14.9203 30.1187C15.7375 30.1339 16.5558 30.1339 17.3749 30.1187C17.7574 30.1121 17.9831 29.8671 17.9993 29.4897C18.0099 29.2324 18.007 28.9732 17.9993 28.7159C17.9879 28.2788 17.7612 28.0461 17.3156 28.0319C16.9437 28.0281 16.5631 28.0386 16.1844 28.0386V28.0357ZM10.8573 19.0793H9.75478C9.73088 19.0793 9.70697 19.0793 9.68402 19.0793C9.25563 19.1039 9.02614 19.3252 9.01466 19.7415C9.00638 19.9994 9.00638 20.2576 9.01466 20.5162C9.02805 20.9296 9.25946 21.168 9.68402 21.1737C10.4662 21.185 11.249 21.185 12.0325 21.1737C12.4513 21.168 12.6904 20.9296 12.7124 20.5115C12.7267 20.2537 12.7267 19.9954 12.7124 19.7377C12.6904 19.3243 12.4542 19.0916 12.0335 19.0755C11.6414 19.0698 11.2494 19.0793 10.8573 19.0793ZM10.8372 30.1358H11.9761H12.0468C12.4465 30.1093 12.6856 29.8889 12.7086 29.4953C12.7272 29.2144 12.7272 28.9325 12.7086 28.6515C12.6837 28.3072 12.459 28.0622 12.1233 28.0546C11.2819 28.0367 10.4394 28.0348 9.59796 28.0546C9.23938 28.0632 9.02423 28.3157 9.01562 28.6837C9.0051 28.942 9.00701 29.2002 9.01562 29.4585C9.02805 29.8945 9.25468 30.1206 9.70314 30.1358C10.078 30.1433 10.4576 30.1348 10.8372 30.1358ZM5.55696 21.1737H6.7312C7.15577 21.15 7.38239 20.9343 7.40056 20.5115C7.41443 20.2421 7.41443 19.9721 7.40056 19.7027C7.37761 19.3243 7.15481 19.0897 6.76563 19.0831C5.95985 19.0686 5.15344 19.0686 4.34638 19.0831C3.96389 19.0906 3.73727 19.3186 3.71145 19.7055C3.69233 19.9865 3.69233 20.2684 3.71145 20.5493C3.73918 20.9476 3.9725 21.1595 4.38081 21.1718C4.77382 21.185 5.16587 21.1737 5.55696 21.1737ZM5.55696 30.131H6.66236H6.73312C7.15959 30.1045 7.38144 29.8908 7.40247 29.4689C7.41395 29.2106 7.4149 28.9524 7.40247 28.6951C7.38335 28.2873 7.16628 28.0509 6.7618 28.0433C5.95603 28.0281 5.14993 28.0281 4.34351 28.0433C3.96103 28.0509 3.73631 28.2807 3.7105 28.6676C3.69376 28.937 3.69376 29.2071 3.7105 29.4764C3.73472 29.8996 3.96103 30.1175 4.38941 30.1301C4.77668 30.1433 5.16778 30.1348 5.55983 30.1348L5.55696 30.131Z" fill="#37A592"/>
<path d="M22.8512 20.4688C22.8512 18.7065 22.8464 16.9441 22.8636 15.1827C22.8636 15.0881 23.0348 14.9633 23.1505 14.9226C24.8717 14.3238 25.9962 13.1735 26.4275 11.4121C26.6725 10.4043 26.5786 9.34487 26.1602 8.39455C25.7417 7.44423 25.0215 6.65478 24.1086 6.14589C23.1999 5.63077 22.1466 5.42188 21.1074 5.5507C20.0682 5.67953 19.0995 6.13909 18.3474 6.86009C18.2599 6.95036 18.1538 7.02105 18.0364 7.06739C17.919 7.11373 17.7929 7.13465 17.6666 7.12875C16.4235 7.11456 15.1718 7.12213 13.9249 7.12213H13.4688C13.6734 6.71536 13.8331 6.35116 14.0358 6.01251C14.092 5.93195 14.1239 5.83725 14.1278 5.73944C14.1317 5.64163 14.1074 5.54474 14.0578 5.46006C13.8665 5.08167 13.6925 4.69572 13.5395 4.30219C13.5223 4.24271 13.5189 4.18013 13.5297 4.11917C13.5404 4.05821 13.565 4.00047 13.6017 3.95029C14.1352 3.39879 14.6927 2.86905 15.2272 2.32039C15.3716 2.17187 15.4892 2.17187 15.6614 2.25323C16.0563 2.44242 16.455 2.62405 16.8643 2.77919C17.0014 2.81917 17.1482 2.81149 17.2803 2.75743C17.9955 2.47931 18.7057 2.18859 19.4107 1.88524C19.5524 1.82163 19.6683 1.71266 19.7397 1.57591C19.9204 1.18144 20.0696 0.77184 20.2178 0.364127C20.2333 0.29112 20.2761 0.226593 20.3376 0.183448C20.3991 0.140304 20.4748 0.121722 20.5496 0.131419C21.3101 0.142771 22.0703 0.142771 22.8302 0.131419C23.0272 0.131419 23.1295 0.184393 23.1955 0.371695C23.3379 0.782246 23.4881 1.1909 23.6688 1.58632C23.7439 1.72109 23.8628 1.82677 24.0063 1.88619C24.7076 2.19205 25.4171 2.48404 26.1349 2.76216C26.2679 2.8145 26.415 2.82017 26.5518 2.77824C26.9716 2.61742 27.3741 2.4112 27.7949 2.25039C27.8554 2.2333 27.919 2.23004 27.981 2.24085C28.0429 2.25167 28.1016 2.27628 28.1525 2.31282C28.71 2.84067 29.2474 3.39028 29.8001 3.92097C29.9301 4.04678 29.9569 4.148 29.8756 4.31544C29.6844 4.70612 29.5017 5.10154 29.3478 5.50736C29.3013 5.65414 29.3064 5.81216 29.3621 5.95575C29.6413 6.66428 29.9359 7.36619 30.2428 8.06336C30.2978 8.19504 30.3967 8.30418 30.523 8.3727C30.9332 8.55432 31.3654 8.6896 31.7756 8.87122C31.8314 8.90122 31.8794 8.94355 31.9159 8.99491C31.9523 9.04627 31.9763 9.10527 31.986 9.16731C32.0042 9.93071 31.986 10.695 32.0003 11.4584C32.0003 11.6647 31.9162 11.7422 31.7374 11.8075C31.3243 11.9522 30.9112 12.1027 30.5106 12.2805C30.3932 12.3427 30.3011 12.4429 30.2495 12.5643C29.9397 13.2725 29.6407 13.9858 29.3526 14.7041C29.3006 14.8374 29.2966 14.9843 29.3411 15.1203C29.5017 15.5365 29.7083 15.9348 29.8699 16.35C29.8872 16.4098 29.8904 16.4727 29.8793 16.5338C29.8682 16.595 29.843 16.6528 29.8058 16.7029C29.2722 17.2541 28.7262 17.7936 28.1678 18.3214C28.1138 18.3615 28.0513 18.3888 27.985 18.4012C27.9187 18.4137 27.8504 18.411 27.7853 18.3933C27.3751 18.242 26.985 18.0367 26.5757 17.8835C26.4292 17.838 26.2714 17.843 26.1282 17.8977C25.4117 18.1739 24.7012 18.464 23.9968 18.7679C23.8547 18.831 23.7387 18.9401 23.6678 19.0773C23.4881 19.4727 23.3532 19.887 23.1897 20.2881C23.1286 20.3862 23.0532 20.4748 22.966 20.5511L22.8512 20.4688Z" fill="#37A592"/>
</svg>
