<svg width="39" height="12" viewBox="0 0 39 12" fill="none" xmlns="http://www.w3.org/2000/svg">
<path d="M4.45592 11.2151C5.44739 11.2493 6.41444 10.9195 7.15544 10.2946C7.39576 10.0707 7.58569 9.80299 7.71375 9.50762C7.84182 9.21228 7.90533 8.89543 7.9005 8.57617C7.90347 8.27845 7.84392 7.98318 7.72526 7.70749C7.60664 7.43179 7.43129 7.18118 7.20944 6.97029C6.68436 6.5019 6.02175 6.1952 5.309 6.09062L3.97542 5.84516C3.43551 5.74285 3.11157 5.48202 3.11157 5.12405C3.11157 4.64839 3.59748 4.32109 4.37493 4.32109C4.80887 4.30514 5.2319 4.45217 5.55193 4.73024C5.7316 4.91574 5.84498 5.15017 5.87589 5.40021L7.79793 4.99107C7.73663 4.47232 7.48429 3.99065 7.08528 3.63067C6.35215 2.98905 5.38348 2.64404 4.38576 2.66919C3.45592 2.64149 2.54881 2.94433 1.8428 3.51816C1.58535 3.74357 1.38037 4.01736 1.24092 4.32204C1.10148 4.62675 1.03064 4.95561 1.03294 5.2877C1.02333 5.56512 1.07343 5.84146 1.18017 6.09998C1.28691 6.35847 1.44807 6.59369 1.65383 6.7913C2.15992 7.2354 2.78594 7.5381 3.46251 7.66582L4.77448 7.96245C5.43316 8.10567 5.72471 8.3358 5.72471 8.74494C5.72471 9.25636 5.2442 9.54786 4.45052 9.54786C4.20573 9.55916 3.96108 9.52279 3.73171 9.44098C3.50234 9.35917 3.29312 9.23369 3.11697 9.07225C2.9065 8.87147 2.7832 8.60318 2.77143 8.32046L0.800781 8.72961C0.86109 9.27872 1.12511 9.78976 1.54585 10.1718C1.93335 10.5175 2.39003 10.786 2.88891 10.9617C3.3878 11.1374 3.91879 11.2166 4.45052 11.1947L4.45592 11.2151ZM19.0279 11.1947C19.5677 11.2089 20.1051 11.1217 20.6092 10.9383C21.1133 10.7548 21.5741 10.4787 21.965 10.1258C22.465 9.67555 22.8254 9.10428 23.007 8.4739L20.9824 7.83459C20.8878 8.16054 20.7012 8.45585 20.4425 8.68868C20.062 9.02807 19.5558 9.21181 19.0333 9.2001C18.7486 9.20302 18.466 9.15256 18.2019 9.05162C17.9379 8.95067 17.6975 8.80127 17.4946 8.61197C17.0693 8.15033 16.8471 7.55178 16.8737 6.93962C16.8444 6.31969 17.0732 5.71367 17.5108 5.2519C17.9192 4.87896 18.4661 4.6732 19.0333 4.6791C19.2858 4.6716 19.5372 4.7131 19.7721 4.80105C20.007 4.889 20.2204 5.02154 20.3993 5.19052C20.6518 5.43401 20.8372 5.73261 20.9392 6.05994L22.9962 5.40534C22.8242 4.7961 22.4917 4.23826 22.0298 3.7841C21.6263 3.42117 21.1509 3.13759 20.631 2.94974C20.1111 2.76189 19.5571 2.67348 19.0009 2.68965C18.4227 2.68314 17.8487 2.78508 17.3122 2.9896C16.7757 3.19411 16.2872 3.49715 15.8749 3.88127C15.0535 4.71544 14.5995 5.81523 14.6055 6.9559C14.6115 8.09661 15.0772 9.19206 15.9073 10.0184C16.7438 10.7894 17.8662 11.2191 19.0333 11.2151L19.0279 11.1947ZM12.0524 11.2151C12.7002 11.2401 13.3385 11.0602 13.8665 10.7037V8.95464C13.5267 9.17509 13.1228 9.28954 12.7111 9.28194C12.5559 9.30902 12.396 9.29972 12.2455 9.25483C12.095 9.20991 11.9584 9.13078 11.8476 9.02433C11.7369 8.91786 11.6553 8.78736 11.61 8.64413C11.5648 8.50094 11.5573 8.34944 11.5881 8.20282V0.700195H9.31508V2.91467H13.8773V5.00641H9.31508V8.72448C9.28398 9.38028 9.52638 10.0214 9.98995 10.5094C10.2685 10.7519 10.5953 10.9393 10.9514 11.0604C11.3074 11.1816 11.6854 11.2342 12.0632 11.2151" fill="#0F898C"/>
<path d="M25.3438 8.86058V3.15309H26.161V3.6045C26.2905 3.4188 26.4548 3.27109 26.6408 3.17296C26.8268 3.07483 27.0295 3.02896 27.2331 3.03894C28.1734 3.03894 28.85 3.9262 28.85 5.19741C28.85 6.46862 28.1953 7.38184 27.2331 7.38184C27.0288 7.39056 26.8256 7.34309 26.6395 7.24314C26.4535 7.14316 26.2896 6.99348 26.161 6.80588V8.88135L25.3438 8.86058ZM26.161 4.70967V5.7474C26.2378 5.96468 26.3671 6.15043 26.5328 6.28147C26.6984 6.41249 26.8931 6.483 27.0925 6.48419C27.6373 6.48419 27.9976 6.00164 27.9976 5.22335C27.9976 4.44506 27.6373 3.97289 27.0925 3.97289C26.8928 3.96948 26.697 4.03755 26.5307 4.16814C26.3644 4.29873 26.2355 4.48573 26.161 4.7045" fill="#0F898C"/>
<path d="M30.0207 5.47765C30.0073 5.21236 30.113 4.95311 30.3146 4.75625C30.5163 4.55939 30.7977 4.44081 31.0977 4.42625L32.6446 4.25317V4.08011C32.6516 4.0389 32.6478 3.99682 32.6336 3.95711C32.6193 3.91739 32.5949 3.8811 32.5623 3.85102C32.5297 3.82093 32.4897 3.79786 32.4454 3.78357C32.4011 3.76927 32.3537 3.76415 32.3068 3.76858H30.3487V3.03735H32.3068C33.0901 3.03735 33.5258 3.37484 33.5258 3.98059V6.45119H32.6446V6.0185C32.4963 6.19114 32.3021 6.32883 32.0792 6.4194C31.8564 6.50995 31.6117 6.55057 31.3669 6.53772C31.1969 6.55349 31.025 6.53748 30.8624 6.49072C30.6999 6.44396 30.5502 6.36752 30.4233 6.26632C30.2963 6.16512 30.1948 6.04145 30.1255 5.90335C30.0561 5.76524 30.0204 5.61579 30.0207 5.46468V5.47765ZM31.5921 5.89736C31.811 5.9015 32.0267 5.84986 32.2134 5.7486C32.4 5.64731 32.5497 5.50069 32.6446 5.32621V4.89356L31.4648 5.04065C31.1368 5.07958 30.9753 5.23103 30.9753 5.47334C30.9753 5.71562 31.2054 5.90599 31.6117 5.90599" fill="#0F898C"/>
<path d="M34.8605 7.9755H35.5102C35.6109 7.98663 35.7116 7.95494 35.7922 7.88676C35.8728 7.81862 35.9274 7.71902 35.9449 7.60794L36.0644 7.24038L34.6934 3.03735H35.6201L36.4703 5.96188L37.2871 3.03735H38.1996L36.6949 7.86365C36.4897 8.5295 36.2172 8.8811 35.558 8.8811H34.8605V7.9755Z" fill="#0F898C"/>
</svg>
