<svg width="28" height="21" viewBox="0 0 28 21" fill="none" xmlns="http://www.w3.org/2000/svg">
<path d="M2 0H12C12.5304 0 13.0391 0.221249 13.4142 0.615076C13.7893 1.0089 14 1.54305 14 2.1C14 2.65695 13.7893 3.1911 13.4142 3.58492C13.0391 3.97875 12.5304 4.2 12 4.2H2C1.46957 4.2 0.960859 3.97875 0.585786 3.58492C0.210714 3.1911 0 2.65695 0 2.1C0 1.54305 0.210714 1.0089 0.585786 0.615076C0.960859 0.221249 1.46957 0 2 0ZM16 16.8H26C26.5304 16.8 27.0391 17.0212 27.4142 17.4151C27.7893 17.8089 28 18.343 28 18.9C28 19.457 27.7893 19.9911 27.4142 20.3849C27.0391 20.7787 26.5304 21 26 21H16C15.4696 21 14.9609 20.7787 14.5858 20.3849C14.2107 19.9911 14 19.457 14 18.9C14 18.343 14.2107 17.8089 14.5858 17.4151C14.9609 17.0212 15.4696 16.8 16 16.8ZM2 8.4H26C26.5304 8.4 27.0391 8.62125 27.4142 9.01508C27.7893 9.4089 28 9.94304 28 10.5C28 11.057 27.7893 11.5911 27.4142 11.9849C27.0391 12.3787 26.5304 12.6 26 12.6H2C1.46957 12.6 0.960859 12.3787 0.585786 11.9849C0.210714 11.5911 0 11.057 0 10.5C0 9.94304 0.210714 9.4089 0.585786 9.01508C0.960859 8.62125 1.46957 8.4 2 8.4Z" fill="#0F898C"/>
</svg>
