<svg width="48" height="42" viewBox="0 0 48 42" fill="none" xmlns="http://www.w3.org/2000/svg">
<path d="M47.3498 17.8807C45.9917 26.9745 41.9934 35.3677 35.9315 41.8503L32.7082 39.2578C36.5845 34.8459 38.5719 30.9041 38.6702 27.4322C38.5649 25.4764 37.2166 24.0892 34.6464 23.2705C33.888 23.0431 33.0875 22.7474 32.2237 22.4063C30.2809 21.5676 28.6282 20.0964 27.4956 18.1972C26.363 16.298 25.8066 14.0651 25.9036 11.8088C25.8937 9.99986 26.2836 8.2145 27.0412 6.60096C27.7779 4.59775 29.0699 2.88909 30.7404 1.70861C32.4109 0.528136 34.3784 -0.0665348 36.3739 0.005914C37.8184 -0.0209856 39.2525 0.273181 40.5873 0.870103C45.3484 2.71975 47.729 7.06337 47.729 13.901C47.7132 15.2371 47.5863 16.5691 47.3498 17.8807ZM21.4584 17.8807C20.0917 26.9763 16.0863 35.3689 10.0191 41.8503L6.81684 39.2578C10.6791 34.8459 12.6594 30.9041 12.7578 27.4322C12.7578 25.4764 11.3041 24.0892 8.73394 23.2705C7.9966 23.0431 7.19609 22.7474 6.33234 22.4063C4.38579 21.5733 2.72963 20.1034 1.59618 18.2028C0.462731 16.3023 -0.0911526 14.0664 0.0122351 11.8088C0.00370608 10.0027 0.386041 8.21937 1.12878 6.60096C1.8681 4.59969 3.16065 2.8929 4.83056 1.71285C6.50046 0.532793 8.46659 -0.0632232 10.4615 0.005914C11.906 -0.0209856 13.3402 0.273181 14.6749 0.870103C19.3939 2.71975 21.7534 7.06337 21.7534 13.901C21.7554 15.234 21.6567 16.565 21.4584 17.8807Z" fill="#0F898C"/>
</svg>
