<svg width="199" height="179" viewBox="0 0 199 179" fill="none" xmlns="http://www.w3.org/2000/svg">
<g clip-path="url(#clip0_224_5981)">
<path d="M41.0742 135.107C42.7458 144.949 50.1645 153.598 59.6409 156.759C59.4578 151.343 57.0579 145.625 53.4759 142.412C49.8939 139.199 45.4482 137.127 41.0742 135.107Z" fill="#EBEBEB" fill-opacity="0.3"/>
<path d="M61.512 153.475C62.7159 157.354 65.1545 160.734 68.4571 163.102C69.7705 159.627 68.7079 154.716 67.4223 151.232C66.1368 147.749 64.0274 144.639 61.8702 141.613C60.4584 145.422 60.3326 149.588 61.512 153.475Z" fill="#EBEBEB" fill-opacity="0.3"/>
<path d="M49.0039 143.936C56.1063 154.233 64.9637 163.203 75.1724 170.439" stroke="#E0E0E0" stroke-linecap="round" stroke-linejoin="round"/>
<path d="M69.8984 166.271C66.7549 160.148 64.35 153.675 62.7344 146.985" stroke="#E0E0E0" stroke-linecap="round" stroke-linejoin="round"/>
<path d="M60.3514 163.066C63.7149 163.473 66.8535 164.965 69.2905 167.317C66.6358 168.908 62.4449 168.772 59.3922 168.243C56.3395 167.715 53.47 166.442 50.6641 165.126C53.5814 163.401 56.9838 162.677 60.3514 163.066Z" fill="#EBEBEB" fill-opacity="0.3"/>
<path d="M51.5175 155.042C54.6268 155.416 57.5283 156.796 59.78 158.971C57.3243 160.442 53.4518 160.315 50.626 159.825C47.8002 159.336 45.1535 158.163 42.5625 156.947C45.26 155.353 48.4045 154.685 51.5175 155.042Z" fill="#EBEBEB" fill-opacity="0.3"/>
<path d="M71.736 167.909C66.3621 166.29 60.8124 165.323 55.207 165.031" stroke="#E0E0E0" stroke-linecap="round" stroke-linejoin="round"/>
<path d="M51.2656 157.507C54.8715 158.037 58.4535 158.7 62.0116 159.495" stroke="#E0E0E0" stroke-linecap="round" stroke-linejoin="round"/>
<path d="M151.817 135.752C150.145 145.594 142.726 154.242 133.25 157.404C133.433 151.988 135.833 146.27 139.415 143.061C142.997 139.852 147.443 137.772 151.817 135.752Z" fill="#EBEBEB" fill-opacity="0.18"/>
<path d="M131.379 154.135C130.177 158.015 127.74 161.397 124.438 163.766C123.124 160.291 124.187 155.38 125.472 151.896C126.758 148.413 128.867 145.299 131.024 142.277C132.435 146.085 132.559 150.25 131.379 154.135Z" fill="#EBEBEB" fill-opacity="0.18"/>
<path d="M143.883 144.592C136.78 154.887 127.921 163.855 117.711 171.087L143.883 144.592Z" fill="#EBEBEB" fill-opacity="0.18"/>
<path d="M143.883 144.592C136.78 154.887 127.921 163.855 117.711 171.087" stroke="#E0E0E0" stroke-linecap="round" stroke-linejoin="round"/>
<path d="M122.98 166.919C126.122 160.796 128.526 154.322 130.144 147.634L122.98 166.919Z" fill="#EBEBEB" fill-opacity="0.18"/>
<path d="M122.98 166.919C126.122 160.796 128.526 154.322 130.144 147.634" stroke="#E0E0E0" stroke-linecap="round" stroke-linejoin="round"/>
<path d="M132.533 163.71C129.168 164.116 126.029 165.61 123.594 167.965C126.248 169.556 130.439 169.421 133.492 168.888C136.545 168.355 139.414 167.09 142.22 165.774C139.302 164.051 135.901 163.326 132.533 163.71Z" fill="#EBEBEB" fill-opacity="0.18"/>
<path d="M141.372 155.686C138.263 156.06 135.361 157.44 133.109 159.615C135.565 161.086 139.438 160.963 142.263 160.469C145.089 159.976 147.736 158.807 150.327 157.591C147.629 155.998 144.485 155.329 141.372 155.686Z" fill="#EBEBEB" fill-opacity="0.18"/>
<path d="M121.156 168.558C126.529 166.93 132.079 165.959 137.685 165.667L121.156 168.558Z" fill="#EBEBEB" fill-opacity="0.18"/>
<path d="M121.156 168.558C126.529 166.93 132.079 165.959 137.685 165.667" stroke="#E0E0E0" stroke-linecap="round" stroke-linejoin="round"/>
<path d="M141.625 158.151C138.019 158.682 134.437 159.344 130.879 160.14L141.625 158.151Z" fill="#EBEBEB" fill-opacity="0.18"/>
<path d="M141.625 158.151C138.019 158.682 134.437 159.344 130.879 160.14" stroke="#E0E0E0" stroke-linecap="round" stroke-linejoin="round"/>
<path d="M176.681 139.792H104.742C103.457 139.792 102.41 138.552 102.41 137.009V12.7845C102.41 11.2575 103.457 10.001 104.742 10.001H176.681C177.966 10.001 179.013 11.2416 179.013 12.7845V137.037C179.013 138.552 177.966 139.792 176.681 139.792ZM104.742 10.1362C103.513 10.1362 102.51 11.3291 102.51 12.7845V137.037C102.51 138.496 103.513 139.685 104.742 139.685H176.681C177.915 139.685 178.914 138.492 178.914 137.037V12.7845C178.914 11.3251 177.915 10.1362 176.681 10.1362H104.742Z" fill="#E0E0E0"/>
<path d="M93.7239 139.792H21.7894C20.4999 139.792 19.4531 138.552 19.4531 137.009V12.7845C19.4531 11.2575 20.4999 10.001 21.7894 10.001H93.7239C95.0134 10.001 96.0562 11.2416 96.0562 12.7845V137.037C96.0562 138.552 95.0134 139.792 93.7239 139.792ZM21.7894 10.1362C20.5556 10.1362 19.5526 11.3291 19.5526 12.7845V137.037C19.5526 138.496 20.5556 139.685 21.7894 139.685H93.7239C94.9577 139.685 95.9567 138.492 95.9567 137.037V12.7845C95.9567 11.3251 94.9577 10.1362 93.7239 10.1362H21.7894Z" fill="#E0E0E0"/>
<path d="M199 169.532H0V169.631H199V169.532Z" fill="#E0E0E0"/>
<path d="M26.9583 175.206H20.5664V175.306H26.9583V175.206Z" fill="#E0E0E0"/>
<path d="M89.1057 174.129H67.8008V174.228H89.1057V174.129Z" fill="#E0E0E0"/>
<path d="M41.783 178.9H27.3555V179H41.783V178.9Z" fill="#E0E0E0"/>
<path d="M167.772 174.077H150.582V174.176H167.772V174.077Z" fill="#E0E0E0"/>
<path d="M173.84 174.077H171.32V174.176H173.84V174.077Z" fill="#E0E0E0"/>
<path d="M147.3 176.554H125.852V176.654H147.3V176.554Z" fill="#E0E0E0"/>
<path d="M38.7656 126.829H51.0877C52.5494 126.829 53.7344 125.645 53.7344 124.185V115.413C53.7344 113.952 52.5494 112.768 51.0877 112.768H38.7656C37.3039 112.768 36.1189 113.952 36.1189 115.413V124.185C36.1189 125.645 37.3039 126.829 38.7656 126.829Z" fill="#369A9C"/>
<path d="M47.9609 119.719C47.9609 119.96 48.0326 120.196 48.1669 120.397C48.3011 120.598 48.4919 120.754 48.7152 120.847C48.9385 120.939 49.1842 120.963 49.4212 120.916C49.6582 120.869 49.8759 120.753 50.0468 120.582C50.2177 120.411 50.334 120.194 50.3812 119.957C50.4283 119.72 50.4041 119.475 50.3116 119.252C50.2192 119.029 50.0626 118.838 49.8616 118.704C49.6607 118.57 49.4245 118.498 49.1828 118.498C48.8587 118.498 48.548 118.627 48.3188 118.856C48.0897 119.085 47.9609 119.395 47.9609 119.719Z" fill="white"/>
<path d="M43.7031 119.719C43.7031 119.96 43.7748 120.196 43.9091 120.397C44.0433 120.598 44.2341 120.754 44.4574 120.847C44.6807 120.939 44.9263 120.963 45.1634 120.916C45.4004 120.869 45.6181 120.753 45.789 120.582C45.9599 120.411 46.0762 120.194 46.1234 119.957C46.1705 119.72 46.1463 119.475 46.0538 119.252C45.9614 119.029 45.8048 118.838 45.6038 118.704C45.4029 118.57 45.1667 118.498 44.925 118.498C44.7644 118.498 44.6053 118.529 44.4568 118.59C44.3083 118.651 44.1734 118.741 44.0598 118.854C43.9463 118.968 43.8563 119.103 43.7951 119.251C43.7339 119.399 43.7026 119.558 43.7031 119.719Z" fill="white"/>
<path d="M39.4805 119.719C39.4805 119.96 39.5521 120.196 39.6864 120.397C39.8207 120.598 40.0115 120.754 40.2348 120.847C40.458 120.939 40.7037 120.963 40.9407 120.916C41.1777 120.869 41.3954 120.753 41.5663 120.582C41.7372 120.411 41.8536 120.194 41.9007 119.957C41.9479 119.72 41.9237 119.475 41.8312 119.252C41.7387 119.029 41.5821 118.838 41.3812 118.704C41.1802 118.57 40.944 118.498 40.7023 118.498C40.5417 118.498 40.3826 118.529 40.2341 118.59C40.0856 118.651 39.9507 118.741 39.8372 118.854C39.7236 118.968 39.6336 119.103 39.5724 119.251C39.5112 119.399 39.4799 119.558 39.4805 119.719Z" fill="white"/>
<path d="M49.7582 113.838V110.167L45.7344 113.838H49.7582Z" fill="#E6E6E6"/>
<path d="M157.27 116.088H144.947C143.486 116.088 142.301 117.272 142.301 118.733V127.505C142.301 128.965 143.486 130.149 144.947 130.149H157.27C158.731 130.149 159.916 128.965 159.916 127.505V118.733C159.916 117.272 158.731 116.088 157.27 116.088Z" fill="#E6E6E6" fill-opacity="0.18"/>
<path d="M154.141 123.035C154.14 123.277 154.211 123.513 154.345 123.714C154.478 123.916 154.669 124.073 154.892 124.166C155.115 124.259 155.361 124.284 155.598 124.237C155.836 124.19 156.054 124.074 156.225 123.904C156.396 123.733 156.513 123.516 156.561 123.279C156.608 123.042 156.584 122.796 156.492 122.573C156.399 122.35 156.243 122.159 156.042 122.024C155.841 121.89 155.604 121.818 155.362 121.818C155.039 121.819 154.73 121.948 154.501 122.176C154.272 122.404 154.143 122.712 154.141 123.035Z" fill="white"/>
<path d="M149.887 123.035C149.886 123.277 149.957 123.513 150.091 123.714C150.224 123.916 150.415 124.073 150.638 124.166C150.861 124.259 151.107 124.284 151.345 124.237C151.582 124.19 151.8 124.074 151.971 123.904C152.142 123.733 152.259 123.516 152.307 123.279C152.354 123.042 152.33 122.796 152.238 122.573C152.145 122.35 151.989 122.159 151.788 122.024C151.587 121.89 151.35 121.818 151.109 121.818C150.785 121.818 150.475 121.946 150.246 122.175C150.017 122.403 149.888 122.712 149.887 123.035Z" fill="white"/>
<path d="M145.668 123.035C145.667 123.277 145.738 123.513 145.872 123.714C146.006 123.916 146.196 124.073 146.419 124.166C146.643 124.259 146.888 124.284 147.126 124.237C147.363 124.19 147.581 124.074 147.752 123.904C147.924 123.733 148.04 123.516 148.088 123.279C148.135 123.042 148.111 122.796 148.019 122.573C147.927 122.35 147.77 122.159 147.569 122.024C147.368 121.89 147.132 121.818 146.89 121.818C146.567 121.819 146.257 121.948 146.028 122.176C145.8 122.404 145.67 122.712 145.668 123.035Z" fill="white"/>
<path d="M146.277 117.158V113.484L150.297 117.158H146.277Z" fill="#E6E6E6" fill-opacity="0.18"/>
<path d="M24.1202 112.462H32.6931C34.1549 112.462 35.3398 111.278 35.3398 109.818V104.04C35.3398 102.579 34.1549 101.395 32.6931 101.395H24.1202C22.6585 101.395 21.4735 102.579 21.4735 104.04V109.818C21.4735 111.278 22.6585 112.462 24.1202 112.462Z" fill="#369A9C"/>
<path d="M30.7969 106.863C30.7969 107.053 30.8534 107.239 30.9592 107.397C31.065 107.556 31.2155 107.679 31.3915 107.752C31.5675 107.825 31.7611 107.844 31.9479 107.807C32.1348 107.769 32.3064 107.678 32.4411 107.543C32.5758 107.409 32.6675 107.237 32.7047 107.05C32.7419 106.864 32.7228 106.67 32.6499 106.494C32.577 106.319 32.4535 106.168 32.2951 106.063C32.1368 105.957 31.9505 105.9 31.76 105.9C31.6334 105.9 31.5079 105.924 31.3908 105.973C31.2737 106.021 31.1674 106.092 31.0778 106.181C30.9883 106.271 30.9173 106.377 30.8691 106.494C30.8209 106.611 30.7964 106.736 30.7969 106.863Z" fill="white"/>
<path d="M27.4609 106.863C27.4609 107.053 27.5174 107.239 27.6233 107.397C27.7291 107.556 27.8795 107.679 28.0555 107.752C28.2315 107.825 28.4252 107.844 28.612 107.807C28.7988 107.769 28.9705 107.678 29.1052 107.543C29.2399 107.409 29.3316 107.237 29.3688 107.05C29.4059 106.864 29.3869 106.67 29.314 106.494C29.2411 106.319 29.1176 106.168 28.9592 106.063C28.8008 105.957 28.6146 105.9 28.4241 105.9C28.2975 105.9 28.172 105.924 28.0549 105.973C27.9378 106.021 27.8314 106.092 27.7419 106.181C27.6523 106.271 27.5814 106.377 27.5332 106.494C27.485 106.611 27.4604 106.736 27.4609 106.863Z" fill="white"/>
<path d="M24.1211 106.863C24.1211 107.054 24.1779 107.24 24.2843 107.399C24.3907 107.557 24.5418 107.68 24.7185 107.753C24.8952 107.825 25.0894 107.844 25.2766 107.806C25.4638 107.767 25.6353 107.675 25.7696 107.539C25.9038 107.403 25.9945 107.231 26.0303 107.043C26.0662 106.856 26.0454 106.662 25.9706 106.486C25.8959 106.311 25.7706 106.161 25.6106 106.057C25.4507 105.953 25.2633 105.898 25.0723 105.9C24.8186 105.903 24.5761 106.005 24.3978 106.185C24.2195 106.366 24.12 106.609 24.1211 106.863Z" fill="white"/>
<path d="M32.211 102.235V99.3438L29.0469 102.235H32.211Z" fill="#E6E6E6"/>
<path d="M182.38 12.2114H173.807C172.345 12.2114 171.16 13.3953 171.16 14.8558V20.6336C171.16 22.094 172.345 23.2779 173.807 23.2779H182.38C183.842 23.2779 185.026 22.094 185.026 20.6336V14.8558C185.026 13.3953 183.842 12.2114 182.38 12.2114Z" fill="#E6E6E6" fill-opacity="0.42"/>
<path d="M175.704 17.8061C175.704 17.6157 175.647 17.4297 175.541 17.2714C175.436 17.1132 175.285 16.9898 175.109 16.917C174.933 16.8442 174.739 16.8251 174.553 16.8622C174.366 16.8994 174.194 16.991 174.059 17.1256C173.925 17.2602 173.833 17.4316 173.796 17.6183C173.759 17.805 173.778 17.9985 173.851 18.1743C173.924 18.3501 174.047 18.5004 174.205 18.6062C174.364 18.7119 174.55 18.7684 174.74 18.7684C174.867 18.7684 174.992 18.7435 175.109 18.6951C175.226 18.6467 175.332 18.5759 175.422 18.4865C175.511 18.3971 175.582 18.2911 175.63 18.1743C175.679 18.0576 175.704 17.9324 175.704 17.8061Z" fill="white"/>
<path d="M179.051 17.806C179.051 17.6156 178.995 17.4293 178.889 17.271C178.783 17.1127 178.632 16.9893 178.456 16.9166C178.28 16.8439 178.086 16.8251 177.899 16.8625C177.712 16.9 177.54 16.992 177.406 17.127C177.271 17.262 177.18 17.4338 177.143 17.6208C177.106 17.8077 177.126 18.0013 177.199 18.1771C177.273 18.3528 177.397 18.5028 177.556 18.6081C177.715 18.7134 177.901 18.7691 178.092 18.7683C178.218 18.7683 178.343 18.7434 178.46 18.695C178.577 18.6466 178.683 18.5757 178.772 18.4863C178.861 18.3968 178.931 18.2907 178.979 18.174C179.027 18.0573 179.052 17.9322 179.051 17.806Z" fill="white"/>
<path d="M182.379 17.8065C182.379 17.6162 182.323 17.4302 182.217 17.2719C182.111 17.1137 181.961 16.9903 181.785 16.9175C181.609 16.8447 181.415 16.8256 181.228 16.8627C181.042 16.8999 180.87 16.9915 180.735 17.1261C180.601 17.2607 180.509 17.4321 180.472 17.6188C180.434 17.8055 180.454 17.999 180.526 18.1748C180.599 18.3506 180.723 18.5009 180.881 18.6067C181.04 18.7124 181.226 18.7688 181.416 18.7688C181.543 18.7694 181.668 18.7448 181.785 18.6967C181.903 18.6485 182.009 18.5776 182.099 18.4882C182.188 18.3987 182.259 18.2924 182.307 18.1754C182.355 18.0584 182.38 17.9331 182.379 17.8065Z" fill="white"/>
<path d="M174.289 22.4351V25.3299L177.457 22.4351H174.289Z" fill="#E6E6E6"/>
<path d="M27.9601 14.9751L36.533 14.9751C37.9947 14.9751 39.1797 13.7912 39.1797 12.3308V6.55297C39.1797 5.09254 37.9947 3.90863 36.533 3.90863L27.9601 3.90863C26.4983 3.90863 25.3134 5.09254 25.3134 6.55297V12.3308C25.3134 13.7912 26.4983 14.9751 27.9601 14.9751Z" fill="#E6E6E6" fill-opacity="0.28"/>
<path d="M34.625 9.50722C34.625 9.3169 34.6815 9.13085 34.7873 8.9726C34.8932 8.81435 35.0436 8.69101 35.2196 8.61817C35.3956 8.54534 35.5892 8.52628 35.7761 8.56341C35.9629 8.60054 36.1345 8.69219 36.2692 8.82677C36.4039 8.96135 36.4957 9.13282 36.5328 9.31949C36.57 9.50616 36.5509 9.69964 36.478 9.87548C36.4051 10.0513 36.2817 10.2016 36.1233 10.3073C35.9649 10.4131 35.7787 10.4695 35.5882 10.4695C35.3327 10.4695 35.0877 10.3681 34.9071 10.1877C34.7265 10.0072 34.625 9.76244 34.625 9.50722Z" fill="white"/>
<path d="M31.2813 9.50719C31.2813 9.31653 31.338 9.13017 31.4441 8.97175C31.5503 8.81333 31.7012 8.69 31.8777 8.6174C32.0541 8.54481 32.2482 8.52622 32.4353 8.564C32.6223 8.60178 32.7939 8.69423 32.9283 8.8296C33.0627 8.96498 33.1538 9.13719 33.19 9.32438C33.2263 9.51157 33.2061 9.7053 33.132 9.88099C33.0578 10.0567 32.9331 10.2064 32.7737 10.3112C32.6143 10.416 32.4273 10.4711 32.2365 10.4695C31.9824 10.4674 31.7394 10.3651 31.5605 10.1848C31.3816 10.0046 31.2812 9.76104 31.2813 9.50719Z" fill="white"/>
<path d="M27.9609 9.50722C27.9609 9.3169 28.0174 9.13085 28.1233 8.9726C28.2291 8.81435 28.3795 8.69101 28.5555 8.61817C28.7315 8.54534 28.9252 8.52628 29.112 8.56341C29.2988 8.60054 29.4705 8.69219 29.6052 8.82677C29.7399 8.96135 29.8316 9.13282 29.8688 9.31949C29.9059 9.50616 29.8868 9.69964 29.8139 9.87548C29.741 10.0513 29.6176 10.2016 29.4592 10.3073C29.3008 10.4131 29.1146 10.4695 28.9241 10.4695C28.6687 10.4695 28.4237 10.3681 28.243 10.1877C28.0624 10.0072 27.9609 9.76244 27.9609 9.50722Z" fill="white"/>
<path d="M36.0469 14.1362V17.0271L32.8828 14.1362H36.0469Z" fill="#E6E6E6"/>
<path d="M167.112 84.8892H172.525C173.987 84.8892 175.172 83.7053 175.172 82.2448V78.9881C175.172 77.5277 173.987 76.3438 172.525 76.3438H167.112C165.651 76.3438 164.466 77.5277 164.466 78.9881V82.2448C164.466 83.7053 165.651 84.8892 167.112 84.8892Z" fill="#E6E6E6" fill-opacity="0.24"/>
<path d="M171.66 80.6704C171.659 80.5232 171.702 80.379 171.784 80.2562C171.865 80.1334 171.981 80.0375 172.117 79.9806C172.253 79.9237 172.403 79.9084 172.547 79.9367C172.692 79.9649 172.825 80.0354 172.929 80.1392C173.034 80.2431 173.105 80.3756 173.134 80.5199C173.163 80.6643 173.149 80.814 173.092 80.9501C173.036 81.0862 172.941 81.2026 172.818 81.2844C172.696 81.3663 172.552 81.41 172.404 81.41C172.208 81.41 172.019 81.3322 171.88 81.1937C171.74 81.0551 171.661 80.8669 171.66 80.6704Z" fill="white"/>
<path d="M169.074 80.6699C169.073 80.5227 169.116 80.3785 169.198 80.2557C169.279 80.1329 169.395 80.037 169.531 79.9801C169.667 79.9232 169.817 79.9079 169.961 79.9362C170.106 79.9644 170.239 80.0349 170.343 80.1387C170.448 80.2426 170.519 80.3751 170.548 80.5194C170.577 80.6638 170.563 80.8135 170.506 80.9496C170.45 81.0857 170.355 81.2021 170.232 81.284C170.11 81.3658 169.966 81.4096 169.818 81.4096C169.622 81.4096 169.433 81.3318 169.294 81.1932C169.154 81.0546 169.075 80.8665 169.074 80.6699Z" fill="white"/>
<path d="M166.508 80.6704C166.507 80.523 166.55 80.3787 166.632 80.2558C166.713 80.1329 166.829 80.037 166.965 79.9802C167.102 79.9234 167.252 79.9084 167.396 79.9369C167.541 79.9655 167.674 80.0364 167.778 80.1406C167.883 80.2449 167.954 80.3777 167.982 80.5224C168.011 80.667 167.996 80.8168 167.939 80.9528C167.882 81.0889 167.786 81.205 167.663 81.2864C167.54 81.3678 167.396 81.4108 167.248 81.41C167.052 81.409 166.864 81.3307 166.726 81.1923C166.587 81.0538 166.509 80.8663 166.508 80.6704Z" fill="white"/>
<path d="M172.752 84.2451V86.4759L170.309 84.2451H172.752Z" fill="#E6E6E6"/>
<path d="M99.4987 178.38C146.729 178.38 185.017 176.539 185.017 174.268C185.017 171.997 146.729 170.156 99.4987 170.156C52.2683 170.156 13.9805 171.997 13.9805 174.268C13.9805 176.539 52.2683 178.38 99.4987 178.38Z" fill="#F5F5F5" fill-opacity="0.39"/>
<path d="M18.4119 170.224H180.589C180.624 170.218 180.657 170.2 180.68 170.173C180.703 170.145 180.716 170.111 180.716 170.075C180.716 170.039 180.703 170.004 180.68 169.977C180.657 169.95 180.624 169.932 180.589 169.926H18.4119C18.3765 169.932 18.3444 169.95 18.3211 169.977C18.2979 170.004 18.2852 170.039 18.2852 170.075C18.2852 170.111 18.2979 170.145 18.3211 170.173C18.3444 170.2 18.3765 170.218 18.4119 170.224Z" fill="black"/>
<path d="M95.9572 124.339C128.329 124.339 154.571 98.1205 154.571 65.778C154.571 33.4355 128.329 7.2168 95.9572 7.2168C63.5859 7.2168 37.3438 33.4355 37.3438 65.778C37.3438 98.1205 63.5859 124.339 95.9572 124.339Z" fill="#27DEBF"/>
<path opacity="0.4" d="M95.9572 124.339C128.329 124.339 154.571 98.1205 154.571 65.778C154.571 33.4355 128.329 7.2168 95.9572 7.2168C63.5859 7.2168 37.3438 33.4355 37.3438 65.778C37.3438 98.1205 63.5859 124.339 95.9572 124.339Z" fill="white"/>
<path opacity="0.2" d="M65.2695 115.682C71.694 119.666 78.8535 122.32 86.3237 123.488C95.045 124.995 103.996 124.475 112.484 121.969C111.578 121.737 110.652 121.592 109.718 121.536C109.177 121.496 109.042 120.86 108.492 120.812C107.338 120.812 105.726 121.082 104.58 121.13C103.688 121.17 102.797 121.583 102.017 121.639C99.9473 121.786 98.4627 121.969 98.4627 121.969L97.2926 121.528L96.612 120.45L95.2588 119.937L93.7584 120.196L92.4848 119.715L91.7166 118.86L90.0968 118.108L88.851 118.597L87.657 118.474L85.9934 119.15L85.5954 119.901L83.9158 120.581L83.1198 120.092L81.301 119.746L77.5598 116.756L75.9399 117.106L72.7042 115.698H71.9559L70.6903 115.142H67.2993L66.364 115.698L65.2695 115.682Z" fill="white"/>
<path opacity="0.5" d="M49.7497 101.972L52.862 104.286L53.9008 105.789L55.3257 107.105L57.0211 106.91L57.9206 108.175L59.1703 108.692L61.2041 106.401L60.1653 104.811L59.7673 102.004L59.0151 101.208L58.6529 99.6773L57.3117 98.2577L55.9545 97.9316L55.2779 97.1801L53.5426 97.0091L53.2043 94.9771L53.6501 94.0347L53.3914 93.8001L53.5983 93.3706L54.1396 93.0326L54.8162 91.6767L53.5983 86.6663L53.9486 85.2507L53.467 84.5469L54.0998 82.0616L54.9993 81.1391L55.3456 79.7831L56.8102 78.7413L57.3475 77.4211L59.6241 76.7809L60.0221 75.9299L62.1076 75.3454L63.417 75.743L65.2637 75.2261L67.8786 71.7427L68.396 69.8141L67.405 68.6411L68.599 66.6529L69.2079 66.7244L69.5223 65.5315H73.6695L74.553 64.764L74.951 63.7143L75.6276 63.1178L76.6585 62.9349L77.7291 62.0004V58.6125L77.0525 57.4195L77.0206 52.9261L77.6972 51.5742V49.0412L79.2574 46.695L79.6992 46.9853L81.3668 44.4802L80.1051 42.5953L80.2723 39.2074L77.8843 38.5314L77.3152 37.9946L76.6983 38.3604L75.6834 37.3464L75.4923 36.2608L75.0107 35.8155L74.6645 33.7835L72.9212 33.8312L71.3491 32.34L68.9412 32.8212L69.0686 33.6165L65.8488 34.8094L64.412 33.7398L62.6489 34.0937L61.9723 33.1155L60.4439 33.4535L60.0459 34.6186L58.3186 34.9645L56.5555 33.6125L55.6043 35.4934L53.658 35.891L53.1844 35.2866L52.0382 35.5451L51.3576 36.3404L50.0044 36.6187L51.3576 34.6305L50.876 33.5688H52.5038L52.8461 32.0418L51.8272 30.3478L52.8461 28.9959L53.861 28.3159L54.9675 29.0436L57.5903 27.3019V25.8187L58.649 24.4627L60.6827 24.1128L60.3643 22.3234L63.226 21.2259L64.2448 22.3234H65.415L65.4985 20.526L66.3463 20.2079L66.6647 19.015L64.4757 18.8122L66.2587 17.8578L65.6418 17.0864L65.7095 15.6509C57.6699 20.4942 50.3069 27.6001 46.307 34.8412C39.9345 45.1392 36.859 57.1349 37.4913 69.2256C38.0087 81.318 42.2951 92.2055 49.7497 101.972Z" fill="white"/>
<path opacity="0.5" d="M122.983 111.985L119.146 109.316L118.84 108.191L118.044 108L117.646 103.765L116.336 102.636L115.322 100.202V97.8164L113.925 96.7984L115.322 91.3268L116.535 89.2392L117.889 89.0841L118.521 87.9866L118.203 86.3722L120.161 82.9842V75.1427L119.19 73.4805L119.313 68.2117L118.283 67.7306L117.037 68.4066L112.472 66.2792V65.0186L110.084 63.9012L109.769 60.5133L110.645 58.1274L109.356 56.0955L108.882 51.0533L112.464 46.0748L114.701 46.4526L115.27 44.3808L114.593 42.9851L115.652 42.8976L117.642 41.3587L117.92 40.0028L118.82 39.3268L120.909 38.8575L121.59 39.4978L121.156 40.3567L122.107 41.2037L125.431 39.9829L133.287 42.4165L132.889 37.0562L130 34.1256L131.158 33.2706L132.428 33.37L132.527 30.7853L128.292 30.5468L127.059 28.8766L124.921 28.7574L123.795 27.1668L121.761 26.7055L121.144 23.8106L119.449 23.8981L118.919 22.8682L115.489 23.0392L114.717 24.1367L112.798 24.2322L112.953 26.1846L110.741 25.8426L109.387 24.4071L107.354 24.5105L105.594 21.9815L103.784 21.7707L102.59 20.4187L103.521 19.0628L103.043 18.3868L104.209 17.8818L104.412 16.7922L107.127 16.6172L108.38 16.0764L109.805 16.3468L111.712 15.6669L111.095 14.9153L111.672 14.6648L107.202 14.132L107.019 12.939L105.75 12.4619L106.474 11.1099L104.448 10.585L102.414 12.4937L100.054 11.9409L97.7498 12.8953L96.9777 14.3865L95.9588 14.4819L94.8803 16.0725L95.4653 17.2972L94.7449 18.7765L92.7947 19.0469L91.6007 17.9971L90.5699 18.9872L89.1331 16.6968L89.2884 16.0168L87.8715 14.7841L87.2944 12.3982L85.6148 12.7959L87.4257 10.3663L83.3542 10.8395L82.8408 10.3941L82.1642 10.9945L80.8945 9.98055L81.798 9.47952L81.3084 9.05006C93.4474 6.07169 105.666 6.66419 116.571 11.1258C124.492 13.9359 131.664 18.5198 137.538 24.5264L137.271 27.5724L139.619 28.7653L141.076 32.4316L139.623 33.378L138.62 31.6602L138.326 34.9964L136.515 36.1377L138.903 38.6388L137.757 40.6708H136.622L135.719 41.9353L136.356 45.5459L142.326 49.8166L143.05 51.8963L144.738 53.4869L145.641 56.4255L144.364 57.9922L143.687 58.8512L143.946 60.0441L148.63 59.1295L149.729 59.6822L154.055 65.464L154.509 68.9792L151.118 76.2282L148.407 77.0235L147.472 78.7811L148.149 79.7434L143.898 87.6963L142.485 88.1974L141.196 90.6071L135.719 93.9155L136.077 96.0548L133.813 99.3831L129.618 99.4229L127.584 101.157L129.013 103.069L129.411 106.115L128.141 110.31L127.301 110.581L126.684 110.784L126.386 111.786L125.029 112.235L122.983 111.985Z" fill="white"/>
<path opacity="0.5" d="M63.2848 103.948L63.1495 103.455L62.0868 102.91L61.5774 101.097L62.234 100.214L61.9515 99.2003L62.5724 98.8662L62.4848 98.1028L64.1524 98.0153L61.4699 96.0668L60.4789 96.7309L59.2928 96.3213V95.3908L58.2461 95.0528L59.2928 93.3509V92.2534L60.7177 90.9412L59.6869 89.7124L60.1923 89.1518L59.9177 88.1895H62.0311L62.7156 88.8853L65.2668 90.6429L65.8678 92.0904L66.6956 92.9334L66.9145 93.665L67.7225 94.1462L68.2837 96.0827L67.7464 96.5241L67.8817 96.9973L67.5314 98.1147L67.4001 101.908L66.222 102.282L65.9116 103.272L63.2848 103.948Z" fill="white"/>
<path opacity="0.5" d="M67.8828 22.4386L68.3047 21.5757L68.7584 18.5417L69.6499 18.82L69.8649 18.3747L68.6788 17.3567L69.0848 16.2592L68.8738 15.6826L69.8649 14.776H72.2369L73.025 14.5771L73.5941 14.8992L75.4607 13.9688L75.6956 14.776H76.6468L76.3085 16.8477L75.7513 17.9253L76.3085 18.8001L73.813 21.699L73.427 22.4386L70.9633 22.9476L70.8479 23.9099L69.8649 24.4706L67.8828 22.4386Z" fill="white"/>
<path opacity="0.5" d="M97.1719 20.2357L97.9878 19.2217H99.8862V21.0827L98.5291 22.9476L97.1719 22.1006V20.2357Z" fill="white"/>
<path opacity="0.5" d="M114.522 27.1866L114.924 26.6538L115.032 26.0096L115.593 25.262L116.11 25.0751L116.556 24.4707L117.034 25.0592L118.088 25.1944L118.769 27.1866L120.62 26.6935L121.113 28.1847L120.62 28.6221V29.2186H118.936L118.184 29.9304L118.634 30.3121L118.335 30.6143L118.57 30.8171L117.683 31.6124L117.499 31.4613L117.201 31.7754L116.353 31.6601L115.708 32.2685L115.255 31.9782L114.753 32.2685L114.128 31.2506H112.556L112.202 30.9523H111.37L109.75 29.6043L109.667 28.8488L109.098 28.3716L109.571 27.6399L110.455 27.5246L111.235 27.7712L111.728 27.5803L112.556 27.7036L113.165 28.3716L113.504 28.0734L114.021 28.1171L114.522 27.1866Z" fill="white"/>
<path opacity="0.5" d="M141.434 40.9137L143.981 39.5537L146.397 40.0587L148.303 42.2219L148.255 43.3671L148.9 44.1306V46.0353L148.132 46.091L147.71 47.1805H145.171V44.6396L143.085 44.2618L142.476 41.9515L141.434 40.9137Z" fill="white"/>
<path opacity="0.5" d="M105.256 25.6636L107.175 26.8486V29.7275L105.256 31.2505L104.89 30.8648L104.198 30.9483L103.107 28.9879L102.598 28.455L102.984 28.0534L103.071 27.3019L104.245 26.0692L104.986 25.9459L105.256 25.6636Z" fill="white"/>
<path opacity="0.5" d="M61.0392 25.6636L63.9009 24.4707L65.266 25.0672L66.4719 28.3716L65.7317 28.5346L64.6292 29.5804L62.8382 29.9662L62.086 29.3299L61.0392 29.5566L58.5 28.3716L59.292 26.2522L60.4223 26.3198L61.0392 25.6636Z" fill="white"/>
<path opacity="0.5" d="M80.8892 12.4463L83.2653 13.1223L84.7896 15.6831L82.8355 17.3572H79.6992V13.9693L80.8892 12.4463Z" fill="white"/>
<path opacity="0.2" d="M154.576 70.8721C154.576 70.8721 147.348 106.732 110.195 115.166C73.0418 123.6 41.4844 87.1278 41.4844 87.1278C52.0831 115.019 83.9709 131.429 114.836 121.361C137.824 112.979 151.364 95.0569 154.576 70.8721Z" fill="#27DEBF"/>
<path d="M176.486 87.7446H147.718C146.213 87.7446 144.992 88.9641 144.992 90.4685V100.378C144.992 101.882 146.213 103.102 147.718 103.102H176.486C177.992 103.102 179.212 101.882 179.212 100.378V90.4685C179.212 88.9641 177.992 87.7446 176.486 87.7446Z" fill="#27DEBF"/>
<path d="M153.148 97.431C152.581 97.5214 152.007 97.564 151.433 97.5583C151.064 97.5654 150.695 97.5415 150.331 97.4867C150.064 97.4593 149.817 97.3345 149.637 97.1364C149.457 96.9382 149.357 96.6806 149.355 96.4131C149.39 95.9577 149.595 95.5319 149.929 95.2201L150.259 95.3911C149.973 95.6505 149.795 96.0084 149.761 96.3932C149.761 96.7193 149.98 97.0175 150.466 97.1249C150.769 97.179 151.077 97.2016 151.385 97.1925C151.967 97.1958 152.548 97.1452 153.121 97.0414L153.148 97.431ZM150.617 94.5879C150.93 94.3417 151.265 94.1235 151.616 93.9357C151.186 93.9874 150.207 94.0113 149.582 94.0033C149.582 93.896 149.582 93.7091 149.582 93.6057C150.656 93.6383 151.731 93.5784 152.794 93.4268L152.842 93.8244C152.145 93.9921 151.497 94.3188 150.947 94.7788L150.617 94.5879Z" fill="white"/>
<path d="M153.738 97.6178C154.156 96.4249 154.849 94.4367 155.068 93.8323C155.175 93.5301 155.322 93.1006 155.362 92.9614L155.971 93.1165C155.943 93.196 155.864 93.2239 155.752 93.2239C155.442 93.9953 154.956 95.3115 154.753 95.8762C154.901 95.6833 155.087 95.5226 155.299 95.4036C155.511 95.2847 155.745 95.2101 155.987 95.1843C156.477 95.1843 156.711 95.5143 156.695 96.0392V96.7112C156.695 97.1327 156.914 97.3634 157.28 97.3634C157.79 97.3634 158.256 96.7828 158.514 95.8125C158.631 95.8917 158.753 95.9621 158.88 96.0233C158.57 97.0969 158.013 97.7729 157.265 97.7729C157.136 97.7856 157.007 97.7706 156.885 97.7288C156.763 97.687 156.651 97.6196 156.557 97.5309C156.464 97.4423 156.39 97.3346 156.342 97.2151C156.294 97.0957 156.272 96.9672 156.278 96.8385C156.278 96.7311 156.278 96.2142 156.278 96.0949C156.278 95.741 156.134 95.5541 155.88 95.5541C155.231 95.5541 154.578 96.4965 154.439 96.8623C154.359 97.0572 154.236 97.419 154.128 97.7451L153.738 97.6178Z" fill="white"/>
<path d="M160.523 93.1961C160.523 93.2597 160.452 93.2915 160.34 93.2876C160.16 94.1204 160.06 94.9686 160.042 95.8206C160.032 96.1931 160.056 96.5657 160.113 96.934C160.221 96.6596 160.464 96.0671 160.543 95.8722L160.778 96.1188C160.547 96.6874 160.38 97.0095 160.3 97.26C160.272 97.3462 160.256 97.4359 160.253 97.5265C160.253 97.5862 160.264 97.6454 160.284 97.7014L159.886 97.773C159.703 97.1445 159.619 96.4909 159.64 95.8365C159.661 94.9164 159.761 93.9998 159.938 93.0967L160.523 93.1961ZM164.105 97.3117C163.902 97.3117 163.707 97.3117 163.488 97.3117C163.137 97.3156 162.786 97.2957 162.438 97.2521C161.745 97.1487 161.423 96.7669 161.423 96.3176C161.462 95.9018 161.652 95.5146 161.956 95.2281L162.322 95.3871C162.053 95.6078 161.88 95.9243 161.841 96.2699C161.841 96.926 162.8 96.926 163.385 96.926C163.624 96.926 163.874 96.926 164.113 96.8982L164.105 97.3117ZM161.498 93.8721C162.321 93.8569 163.141 93.7852 163.954 93.6574L163.99 94.055C163.168 94.1724 162.34 94.2427 161.51 94.2658L161.498 93.8721Z" fill="white"/>
<path d="M168.999 93.9156C168.203 94.1019 167.392 94.2111 166.575 94.2417C166.54 94.7481 166.45 95.2493 166.308 95.7368C166.766 95.3798 167.321 95.1703 167.9 95.1364C168.74 95.1364 169.254 95.5897 169.254 96.3492C169.254 97.4705 168.123 97.8483 166.288 97.892C166.268 97.7644 166.23 97.6401 166.177 97.5222C167.793 97.4864 168.844 97.2121 168.844 96.3611C168.844 95.8521 168.505 95.5062 167.853 95.5062C167.518 95.5178 167.19 95.6004 166.89 95.7485C166.59 95.8966 166.326 96.1068 166.113 96.3651L165.715 96.1782C165.898 95.9794 166.081 95.1721 166.169 94.2496H164.848V93.852H166.201C166.225 93.5299 166.233 93.172 166.233 92.834L166.834 92.8897C166.834 92.9851 166.754 93.001 166.651 93.0129C166.651 93.2953 166.623 93.5816 166.603 93.848C167.382 93.8148 168.156 93.6988 168.911 93.502L168.999 93.9156Z" fill="white"/>
<path d="M170.56 97.6935C170.375 97.0478 170.294 96.3765 170.322 95.7053C170.34 94.8217 170.442 93.9417 170.624 93.0769L171.169 93.1842C171.16 93.2149 171.14 93.2415 171.113 93.2595C171.086 93.2776 171.054 93.2861 171.022 93.2836C170.824 94.0776 170.714 94.8912 170.696 95.7093C170.685 96.0653 170.702 96.4216 170.747 96.775C170.871 96.437 171.098 95.8962 171.217 95.6337L171.468 95.8683C171.216 96.3445 171.022 96.8491 170.891 97.3714C170.893 97.4642 170.912 97.5559 170.946 97.6418L170.56 97.6935ZM171.993 94.3772C172.467 94.3772 172.94 94.3772 173.414 94.3573C173.39 93.8722 173.374 93.4546 173.362 93.0371H173.931C173.931 93.0928 173.876 93.1365 173.784 93.1524C173.784 93.5143 173.804 93.8801 173.812 94.3096C174.188 94.2757 174.559 94.1997 174.919 94.0829L174.97 94.4806C174.599 94.5877 174.217 94.6556 173.832 94.6834C173.852 95.3077 173.88 95.9678 173.9 96.3296C174.319 96.5028 174.708 96.7432 175.05 97.0414L174.827 97.4032C174.561 97.1406 174.253 96.9242 173.916 96.763C173.916 97.2402 173.82 97.7731 172.976 97.7731C172.316 97.7731 171.874 97.4589 171.874 96.9778C171.874 96.4012 172.455 96.1467 172.976 96.1467C173.157 96.1467 173.336 96.1721 173.51 96.2222C173.51 95.8683 173.458 95.2758 173.43 94.7231C173.255 94.7231 173.032 94.7231 172.857 94.7231H172.001L171.993 94.3772ZM173.537 96.5921C173.358 96.5302 173.17 96.4953 172.98 96.4887C172.638 96.4887 172.224 96.6159 172.224 96.9698C172.224 97.3237 172.562 97.443 172.976 97.443C173.39 97.443 173.545 97.2402 173.545 96.7869L173.537 96.5921Z" fill="white"/>
<path d="M155.854 101.288L152.762 102.044C152.865 102.902 153.206 103.714 153.745 104.391C154.284 105.067 155 105.58 155.814 105.873C155.542 104.355 155.556 102.801 155.854 101.288Z" fill="#27DEBF"/>
<path d="M56.8617 21.8706H16.2497C14.744 21.8706 13.5234 23.0901 13.5234 24.5945V42.5561C13.5234 44.0605 14.744 45.28 16.2497 45.28H56.8617C58.3674 45.28 59.588 44.0605 59.588 42.5561V24.5945C59.588 23.0901 58.3674 21.8706 56.8617 21.8706Z" fill="#27DEBF"/>
<path opacity="0.2" d="M56.8617 21.8706H16.2497C14.744 21.8706 13.5234 23.0901 13.5234 24.5945V42.5561C13.5234 44.0605 14.744 45.28 16.2497 45.28H56.8617C58.3674 45.28 59.588 44.0605 59.588 42.5561V24.5945C59.588 23.0901 58.3674 21.8706 56.8617 21.8706Z" fill="black"/>
<path d="M18.1172 37.1997L18.8614 35.5454C19.7847 36.1804 20.8769 36.5252 21.9977 36.5356C23.3031 36.5356 23.8325 36.1022 23.8325 35.5176C23.8325 33.7401 18.3082 34.9609 18.3082 31.4338C18.3082 29.8233 19.6097 28.4793 22.3121 28.4793C23.4663 28.4563 24.6051 28.7463 25.6075 29.3183L24.9309 30.9884C24.1296 30.515 23.219 30.2575 22.2882 30.2409C20.9868 30.2409 20.4853 30.73 20.4853 31.3264C20.4853 33.0761 26.0095 31.8712 26.0095 35.3546C26.0095 36.9452 24.6921 38.2972 21.9778 38.2972C20.4773 38.2972 18.957 37.8478 18.1172 37.1997Z" fill="#27DEBF"/>
<path d="M33.8318 33.9709V38.1343H31.8418V37.2277C31.4438 37.8917 30.6876 38.2417 29.617 38.2417C27.9056 38.2417 26.8867 37.2953 26.8867 36.0308C26.8867 34.7662 27.7981 33.8477 30.023 33.8477H31.7065C31.7065 32.941 31.1612 32.4122 30.023 32.4122C29.2668 32.4064 28.5288 32.6434 27.9175 33.0882L27.1574 31.6129C28.0948 31.0107 29.1914 30.7032 30.3055 30.7301C32.5463 30.7301 33.8318 31.76 33.8318 33.9709ZM31.7145 35.828V35.0844H30.2498C29.2588 35.0844 28.9444 35.4502 28.9444 35.9393C28.9444 36.4284 29.3941 36.8181 30.1384 36.8181C30.4732 36.8444 30.8077 36.7624 31.0923 36.5841C31.3768 36.4057 31.5964 36.1406 31.7184 35.828H31.7145Z" fill="#27DEBF"/>
<path d="M35.7461 28.082H37.8635V38.1425H35.7461V28.082Z" fill="#27DEBF"/>
<path d="M47.1875 30.8373V38.1341H45.1975V37.2672C44.9126 37.583 44.5627 37.8336 44.1718 38.0017C43.781 38.1699 43.3583 38.2516 42.9329 38.2414C41.0981 38.2414 39.8086 37.2115 39.8086 34.9608V30.8373H41.926V34.6507C41.926 35.8715 42.4712 36.4123 43.4065 36.4123C44.3418 36.4123 45.0901 35.7879 45.0901 34.424V30.8174L47.1875 30.8373Z" fill="#27DEBF"/>
<path d="M53.8651 37.7799C53.349 38.1041 52.7469 38.2648 52.1378 38.2412C50.4145 38.2412 49.4115 37.3624 49.4115 35.6247V32.6264H48.2852V31.0001H49.4115V29.2266H51.5289V31.0001H53.3318V32.6264H51.5129V35.5968C51.496 35.7224 51.5073 35.8502 51.5461 35.9708C51.5849 36.0914 51.6501 36.2019 51.7371 36.2941C51.8241 36.3863 51.9305 36.4579 52.0487 36.5038C52.1669 36.5497 52.2939 36.5686 52.4204 36.5591C52.7275 36.5649 53.0281 36.4699 53.2761 36.2887L53.8651 37.7799Z" fill="#27DEBF"/>
<path d="M52.5015 43.2241L47.7852 44.3495C47.9435 45.6565 48.4619 46.8939 49.2827 47.9239C50.1034 48.9539 51.1943 49.7359 52.4338 50.1829C52.0243 47.8792 52.0473 45.5195 52.5015 43.2241Z" fill="#27DEBF"/>
<g opacity="0.2">
<path d="M52.5015 43.2241L47.7852 44.3495C47.9435 45.6565 48.4619 46.8939 49.2827 47.9239C50.1034 48.9539 51.1943 49.7359 52.4338 50.1829C52.0243 47.8792 52.0473 45.5195 52.5015 43.2241Z" fill="black"/>
</g>
<path d="M55.9809 83.8955H33.5974C32.0917 83.8955 30.8711 85.115 30.8711 86.6194V95.3159C30.8711 96.8202 32.0917 98.0398 33.5974 98.0398H55.9809C57.4866 98.0398 58.7072 96.8202 58.7072 95.3159V86.6194C58.7072 85.115 57.4866 83.8955 55.9809 83.8955Z" fill="#27DEBF"/>
<path opacity="0.2" d="M55.9809 83.8955H33.5974C32.0917 83.8955 30.8711 85.115 30.8711 86.6194V95.3159C30.8711 96.8202 32.0917 98.0398 33.5974 98.0398H55.9809C57.4866 98.0398 58.7072 96.8202 58.7072 95.3159V86.6194C58.7072 85.115 57.4866 83.8955 55.9809 83.8955Z" fill="black"/>
<path d="M40.5424 87.7285V93.9H39.1136V91.3709H36.3276V93.9H34.8789V87.7285H36.3077V90.1621H39.0937V87.7285H40.5424Z" fill="#27DEBF"/>
<path d="M41.5547 91.5338C41.5547 90.1063 42.6571 89.0923 44.1656 89.0923C45.674 89.0923 46.7725 90.1063 46.7725 91.5338C46.7725 92.9614 45.678 93.9754 44.1656 93.9754C42.6532 93.9754 41.5547 92.9614 41.5547 91.5338ZM45.3755 91.5338C45.3568 91.2971 45.2692 91.071 45.1235 90.8835C44.9778 90.6959 44.7804 90.555 44.5555 90.4781C44.3307 90.4013 44.0882 90.3918 43.8581 90.451C43.6279 90.5101 43.4201 90.6352 43.2602 90.8109C43.1004 90.9866 42.9954 91.2052 42.9584 91.4397C42.9213 91.6743 42.9538 91.9145 43.0517 92.1309C43.1496 92.3472 43.3088 92.5302 43.5095 92.6573C43.7103 92.7844 43.9439 92.85 44.1815 92.8461C44.3485 92.8463 44.5138 92.8116 44.6665 92.7441C44.8193 92.6766 44.9562 92.5778 45.0683 92.4541C45.1805 92.3304 45.2654 92.1846 45.3176 92.0261C45.3699 91.8676 45.3882 91.6999 45.3715 91.5338H45.3755Z" fill="#27DEBF"/>
<path d="M47.6875 87.3623H49.0646V93.9036H47.6875V87.3623Z" fill="#27DEBF"/>
<path d="M54.5249 91.1962V93.9042H53.2394V93.3156C53.0789 93.5449 52.8598 93.727 52.6051 93.8431C52.3503 93.9591 52.0691 94.0049 51.7906 93.9757C50.6802 93.9757 50.0195 93.3594 50.0195 92.5363C50.0195 91.7131 50.6086 91.1206 52.0573 91.1206H53.1518C53.1518 90.5281 52.7976 90.1822 52.0573 90.1822C51.5655 90.1796 51.0857 90.3342 50.6882 90.6236L50.1947 89.6653C50.8048 89.2764 51.5168 89.0771 52.2404 89.0926C53.705 89.0926 54.5249 89.7607 54.5249 91.1962ZM53.1518 92.3891V91.904H52.2046C51.5638 91.904 51.3608 92.1426 51.3608 92.4607C51.3608 92.7788 51.6513 93.0333 52.1369 93.0333C52.3534 93.0527 52.5704 93.0021 52.756 92.889C52.9416 92.7759 53.0859 92.6062 53.1677 92.405L53.1518 92.3891Z" fill="#27DEBF"/>
<path d="M54.42 96.7988L51.5703 97.4788C51.6657 98.2686 51.979 99.0163 52.4752 99.6384C52.9714 100.261 53.631 100.733 54.3802 101.002C54.1327 99.6105 54.1462 98.1853 54.42 96.7988Z" fill="#27DEBF"/>
<g opacity="0.2">
<path d="M54.42 96.7988L51.5703 97.4788C51.6657 98.2686 51.979 99.0163 52.4752 99.6384C52.9714 100.261 53.631 100.733 54.3802 101.002C54.1327 99.6105 54.1462 98.1853 54.42 96.7988Z" fill="black"/>
</g>
<path d="M75.7672 56.1357H47.6286C46.1229 56.1357 44.9023 57.3553 44.9023 58.8596V71.2025C44.9023 72.7069 46.1229 73.9264 47.6286 73.9264H75.7672C77.2729 73.9264 78.4935 72.7069 78.4935 71.2025V58.8596C78.4935 57.3553 77.2729 56.1357 75.7672 56.1357Z" fill="#27DEBF"/>
<path d="M55.5758 61.2812V68.4945H53.9082V65.54H50.6287V68.4945H48.9531V61.2812H50.6247V64.1284H53.9042V61.2812H55.5758Z" fill="white"/>
<path d="M62.5809 66.176H58.386C58.5372 66.8679 59.1263 67.2894 59.978 67.2894C60.234 67.3 60.4894 67.2578 60.7284 67.1654C60.9674 67.0731 61.1848 66.9325 61.367 66.7526L62.2227 67.6791C61.9307 67.9876 61.5743 68.2281 61.1788 68.3834C60.7832 68.5387 60.3583 68.6051 59.9342 68.5778C58.0159 68.5778 56.7502 67.3849 56.7502 65.7227C56.7454 65.3381 56.8194 64.9567 56.9677 64.6017C57.116 64.2468 57.3353 63.926 57.6123 63.6589C57.8893 63.3918 58.2181 63.1842 58.5784 63.0488C58.9387 62.9134 59.3229 62.8531 59.7074 62.8716C60.0908 62.8511 60.4743 62.9112 60.8331 63.0481C61.1919 63.1849 61.518 63.3954 61.7903 63.6659C62.0626 63.9365 62.275 64.2611 62.414 64.6188C62.5529 64.9765 62.6152 65.3593 62.5968 65.7426C62.6128 65.8579 62.5929 66.0448 62.5809 66.176ZM58.3621 65.2376H61.0964C61.0437 64.9133 60.8772 64.6183 60.6267 64.4054C60.3762 64.1925 60.0581 64.0756 59.7292 64.0756C59.4004 64.0756 59.0823 64.1925 58.8318 64.4054C58.5813 64.6183 58.4148 64.9133 58.3621 65.2376Z" fill="white"/>
<path d="M63.6797 60.8516H65.2717V68.4943H63.6797V60.8516Z" fill="white"/>
<path d="M66.793 60.8516H68.385V68.4943H66.793V60.8516Z" fill="white"/>
<path d="M69.4844 65.7227C69.4844 64.0526 70.7739 62.8716 72.537 62.8716C74.3002 62.8716 75.5778 64.0645 75.5778 65.7227C75.5778 67.3809 74.3002 68.5778 72.537 68.5778C70.7739 68.5778 69.4844 67.3928 69.4844 65.7227ZM73.9499 65.7227C73.9282 65.4464 73.8263 65.1825 73.6566 64.9632C73.4869 64.744 73.2569 64.579 72.9947 64.4885C72.7326 64.398 72.4496 64.386 72.1807 64.4538C71.9118 64.5216 71.6685 64.6664 71.4807 64.8704C71.2929 65.0744 71.1689 65.3287 71.1237 65.6021C71.0785 65.8755 71.1141 66.1562 71.2263 66.4097C71.3384 66.6631 71.5222 66.8784 71.7551 67.029C71.9879 67.1796 72.2597 67.2591 72.537 67.2576C72.734 67.2602 72.9293 67.2213 73.1101 67.1434C73.291 67.0655 73.4534 66.9504 73.5867 66.8055C73.72 66.6607 73.8213 66.4894 73.8839 66.3028C73.9465 66.1162 73.969 65.9186 73.9499 65.7227Z" fill="white"/>
<path d="M74.5234 72.3633L70.9414 73.2182C71.0618 74.2117 71.456 75.1523 72.08 75.9352C72.7041 76.718 73.5334 77.3124 74.4756 77.652C74.1611 75.9015 74.1773 74.1077 74.5234 72.3633Z" fill="#27DEBF"/>
<path d="M143.185 58.2075H118.418C116.912 58.2075 115.691 59.427 115.691 60.9314V70.8407C115.691 72.3451 116.912 73.5646 118.418 73.5646H143.185C144.691 73.5646 145.912 72.3451 145.912 70.8407V60.9314C145.912 59.427 144.691 58.2075 143.185 58.2075Z" fill="#27DEBF"/>
<path d="M124.911 62.6489V68.8761H123.466V66.3232H120.636V68.8761H119.191V62.6489H120.636V65.1024H123.466V62.6489H124.911Z" fill="white"/>
<path d="M130.545 66.1444V68.8762H129.244V68.2797C129.084 68.512 128.864 68.6967 128.608 68.8144C128.351 68.932 128.068 68.9781 127.787 68.9478C126.665 68.9478 125.996 68.3235 125.996 67.4964C125.996 66.6693 126.593 66.0649 128.054 66.0649H129.156C129.156 65.4684 128.802 65.1224 128.054 65.1224C127.557 65.117 127.072 65.2733 126.673 65.5678L126.167 64.5976C126.783 64.2032 127.502 64.001 128.233 64.017C129.682 64.017 130.545 64.693 130.545 66.1444ZM129.156 67.3652V66.8761H128.205C127.552 66.8761 127.349 67.1146 127.349 67.4328C127.349 67.7509 127.644 68.0133 128.145 68.0133C128.357 68.0214 128.567 67.9633 128.744 67.8471C128.922 67.731 129.059 67.5626 129.136 67.3652H129.156Z" fill="white"/>
<path d="M131.781 62.2793H133.17V68.8802H131.781V62.2793Z" fill="white"/>
<path d="M134.461 62.2793H135.85V68.8802H134.461V62.2793Z" fill="white"/>
<path d="M136.785 66.4825C136.785 65.043 137.896 64.0171 139.42 64.0171C140.944 64.0171 142.047 65.043 142.047 66.4825C142.047 67.922 140.94 68.9479 139.42 68.9479C137.9 68.9479 136.785 67.922 136.785 66.4825ZM140.638 66.4825C140.618 66.2451 140.53 66.0185 140.384 65.8305C140.238 65.6424 140.04 65.501 139.814 65.4236C139.589 65.3462 139.346 65.3362 139.115 65.3947C138.884 65.4533 138.675 65.5778 138.513 65.7532C138.352 65.9286 138.245 66.1471 138.207 66.3821C138.168 66.6171 138.198 66.8583 138.294 67.0762C138.391 67.2941 138.548 67.4792 138.748 67.609C138.948 67.7387 139.182 67.8074 139.42 67.8066C139.59 67.8111 139.76 67.779 139.917 67.7125C140.074 67.6461 140.215 67.5468 140.33 67.4213C140.446 67.2958 140.533 67.1471 140.586 66.9852C140.639 66.8233 140.657 66.6518 140.638 66.4825Z" fill="white"/>
<path d="M126.565 71.7471L123.473 72.4827C123.576 73.3405 123.916 74.1527 124.454 74.8288C124.992 75.505 125.708 76.0185 126.521 76.312C126.253 74.8008 126.268 73.2529 126.565 71.7471Z" fill="#27DEBF"/>
<path d="M62.1428 0H46.4099C44.9042 0 43.6836 1.21952 43.6836 2.72387V11.6749C43.6836 13.1792 44.9042 14.3987 46.4099 14.3987H62.1428C63.6485 14.3987 64.8691 13.1792 64.8691 11.6749V2.72387C64.8691 1.21952 63.6485 0 62.1428 0Z" fill="#27DEBF"/>
<path d="M47.7611 6.16756C47.5063 6.62299 47.2162 7.05776 46.8934 7.46786C46.7838 7.30952 46.6627 7.15934 46.5312 7.01852C47.4438 5.79721 48.1262 4.42011 48.5451 2.95459L49.2376 3.16534C49.2058 3.24885 49.1302 3.26475 49.0386 3.2568C48.8113 3.9341 48.5455 4.59792 48.2426 5.24503L48.4854 5.31263C48.4854 5.36034 48.4297 5.40408 48.3183 5.41204V10.7047H47.7611V6.16756ZM53.4803 6.36639C53.548 6.0602 53.6316 5.5711 53.7072 5.14164H52.0435V10.0128C52.0435 10.6132 51.8286 10.7206 50.6585 10.7206C50.6148 10.521 50.5438 10.3283 50.4476 10.148C50.6585 10.148 50.8456 10.148 51.0167 10.148H51.3431C51.4505 10.148 51.4863 10.1122 51.4863 10.0048V5.14164H50.1491C49.9297 5.70542 49.6409 6.23972 49.2894 6.73222C49.1599 6.60353 49.0172 6.4889 48.8635 6.39024C49.5494 5.36387 50.018 4.20825 50.2406 2.99435L50.9331 3.18125C50.9331 3.23692 50.8575 3.27271 50.75 3.26475C50.6429 3.72775 50.51 4.18442 50.352 4.63265H54.0455H54.336C54.2519 5.25127 54.1269 5.86365 53.9619 6.4658L53.4803 6.36639ZM50.8098 6.64076C50.7921 6.67392 50.7647 6.70087 50.7313 6.71794C50.6978 6.73502 50.6599 6.74139 50.6227 6.7362C50.3849 7.73425 49.9609 8.67857 49.373 9.51971C49.2343 9.4128 49.0865 9.31833 48.9312 9.23738C49.5111 8.39846 49.9171 7.45202 50.1252 6.45387L50.8098 6.64076ZM53.8385 9.45211C53.5893 8.44669 53.2051 7.47959 52.6963 6.57714L53.1898 6.40217C53.7201 7.29169 54.122 8.25153 54.3838 9.25329L53.8385 9.45211Z" fill="white"/>
<path d="M57.8153 4.70011L58.1297 4.78362L58.0819 4.89893C58.02 6.12812 57.7509 7.33806 57.2859 8.47774C57.6458 8.74473 57.9742 9.05155 58.265 9.39232L57.9227 9.84962C57.6547 9.53578 57.356 9.24939 57.0312 8.99468C56.6467 9.71389 56.0746 10.3157 55.3755 10.7364C55.2765 10.5712 55.159 10.4178 55.0253 10.2791C55.6953 9.90103 56.2403 9.33579 56.5934 8.6527C56.2877 8.42172 55.9702 8.20671 55.6422 8.00852L55.5427 8.37833L55.0651 8.12781C55.276 7.39217 55.5347 6.33443 55.7775 5.25681H54.9258V4.72397H55.877C56.0123 4.09967 56.1277 3.49525 56.2272 2.9624L56.9158 3.03C56.9158 3.08965 56.8601 3.12146 56.7486 3.12941C56.6571 3.60659 56.5417 4.14738 56.4143 4.71999H57.7118L57.8153 4.70011ZM56.3108 5.24886C56.1357 6.04415 55.9447 6.80763 55.7695 7.49158C56.1198 7.68643 56.478 7.91706 56.8282 8.15167C57.2058 7.225 57.4394 6.24608 57.5207 5.24886H56.3108ZM62.6788 6.68436V7.22516H60.6649V10.0087C60.6649 10.6489 60.4142 10.7483 58.9376 10.7324C58.8851 10.5406 58.8145 10.3542 58.7267 10.1757H59.7296C60.0162 10.1757 60.0998 10.1757 60.0998 10.0007V7.21721H58.0541V6.68436H60.0998V5.26477H60.3744C60.8352 4.85894 61.2491 4.40278 61.6082 3.90482H58.3963V3.39583H62.0341L62.1455 3.36402L62.5873 3.6384C62.5537 3.68164 62.5057 3.7113 62.452 3.7219C61.938 4.43581 61.3378 5.08358 60.6649 5.65048V6.68436H62.6788Z" fill="white"/>
<path d="M53.8702 12.6968L50.9688 13.3887C51.068 14.1912 51.388 14.9505 51.8932 15.5823C52.3983 16.214 53.0689 16.6935 53.8304 16.9675C53.5803 15.5536 53.5938 14.1058 53.8702 12.6968Z" fill="#27DEBF"/>
<path d="M179.944 57.9927H164.211C162.705 57.9927 161.484 59.2122 161.484 60.7165V67.2817C161.484 68.786 162.705 70.0055 164.211 70.0055H179.944C181.449 70.0055 182.67 68.786 182.67 67.2817V60.7165C182.67 59.2122 181.449 57.9927 179.944 57.9927Z" fill="#27DEBF"/>
<path opacity="0.2" d="M179.944 57.9927H164.211C162.705 57.9927 161.484 59.2122 161.484 60.7165V67.2817C161.484 68.786 162.705 70.0055 164.211 70.0055H179.944C181.449 70.0055 182.67 68.786 182.67 67.2817V60.7165C182.67 59.2122 181.449 57.9927 179.944 57.9927Z" fill="black"/>
<path d="M165.72 63.9016C165.287 63.9016 165.072 64.0925 165.072 64.2078C165.187 64.9236 165.357 65.6296 165.581 66.3193C165.609 66.4408 165.625 66.5646 165.629 66.6891C165.623 66.8961 165.592 67.1017 165.537 67.3015H165.442C165.442 66.8084 165.115 65.9694 164.861 65.0985C164.817 64.943 164.791 64.7828 164.785 64.6213C164.787 64.4324 164.822 64.2453 164.889 64.0686C164.951 63.8567 165.076 63.6684 165.247 63.5278C165.213 63.3494 165.193 63.1686 165.187 62.987C165.2 62.7989 165.279 62.6213 165.41 62.486C165.506 62.3842 165.637 62.323 165.776 62.315C165.96 62.3127 166.139 62.3777 166.278 62.4979C166.53 62.721 166.737 62.9911 166.887 63.2932C166.921 63.378 166.938 63.4684 166.938 63.5596C166.924 63.7145 166.878 63.8647 166.803 64.001C166.445 63.9384 166.083 63.9052 165.72 63.9016ZM166.516 63.4244C166.29 63.1063 166.047 62.8001 165.669 62.8001C165.587 62.8015 165.507 62.8163 165.43 62.8439V63.0626C165.409 63.1979 165.376 63.3309 165.33 63.4602C165.504 63.4053 165.686 63.3798 165.868 63.3847C166.077 63.3908 166.285 63.4188 166.489 63.4682L166.516 63.4244Z" fill="#27DEBF"/>
<path d="M168.965 62.4658L169.248 63.0305C169.379 63.2746 169.447 63.5484 169.443 63.8258V64.2672C169.41 64.6973 169.235 65.1042 168.945 65.4243C168.87 65.5331 168.772 65.6247 168.659 65.6932C168.546 65.7618 168.42 65.8056 168.288 65.8219C167.928 65.7978 167.578 65.6873 167.27 65.4999L167.313 65.3567C167.454 65.4077 167.602 65.4333 167.751 65.4323C168.065 65.3897 168.36 65.2623 168.607 65.064C168.853 64.8657 169.04 64.6039 169.148 64.3069C169.175 64.2496 169.19 64.1873 169.192 64.124C169.185 64.0486 169.166 63.9747 169.136 63.9053C169.001 63.5871 168.841 63.28 168.659 62.9867C168.75 62.8078 168.842 62.6368 168.941 62.4658H168.965Z" fill="#27DEBF"/>
<path d="M171.993 63.2536C171.645 63.0998 171.27 63.0199 170.89 63.0189C170.795 63.0131 170.7 63.0291 170.613 63.0656C170.525 63.1022 170.447 63.1583 170.385 63.2297L170.464 63.5796L170.353 63.9097H170.309L170.078 63.2496C170.084 63.1433 170.111 63.0393 170.158 62.9437C170.205 62.8481 170.271 62.7629 170.352 62.6932C170.432 62.6235 170.526 62.5707 170.627 62.5378C170.729 62.505 170.836 62.4928 170.942 62.502C171.394 62.5408 171.836 62.6636 172.243 62.8639C172.459 62.9536 172.69 62.9983 172.924 62.9951H173.27L173.035 63.4166C172.674 63.4805 172.319 63.5722 171.973 63.691C171.105 64.0329 170.504 64.526 170.504 65.0787C170.504 65.9456 171.376 66.4466 172.494 66.4466C172.836 66.4453 173.176 66.4147 173.513 66.3552V66.3989C173.313 66.5819 173.097 66.7469 172.868 66.892C172.621 66.9427 172.369 66.968 172.116 66.9676C171.073 66.9676 170.202 66.4347 170.202 65.2776C170.232 64.7893 170.424 64.3249 170.747 63.9577C171.071 63.5905 171.508 63.3414 171.989 63.2496L171.993 63.2536Z" fill="#27DEBF"/>
<path d="M175.915 64.7847C174.813 64.7847 173.969 64.3592 173.969 63.3333C173.965 62.9826 174.045 62.6362 174.204 62.3232L174.363 62.3948C174.292 62.5998 174.253 62.8144 174.248 63.0311C174.248 63.8701 175.043 64.224 176.035 64.224C176.492 64.2189 176.948 64.1588 177.392 64.045C177.568 64.0036 177.74 63.945 177.905 63.8701C177.937 63.8701 177.945 63.8383 177.945 63.8263C177.867 63.4643 177.733 63.1168 177.547 62.7964C177.634 62.6309 177.733 62.4727 177.845 62.3232H177.865C178.091 62.7128 178.226 63.1474 178.263 63.5957C178.263 63.8433 178.189 64.0853 178.052 64.2916C177.384 64.6084 176.655 64.7767 175.915 64.7847ZM176.054 65.5362C176.227 65.6696 176.387 65.8187 176.532 65.9816C176.443 66.1304 176.332 66.2645 176.202 66.3792C176.046 66.2281 175.891 66.0929 175.732 65.9498C175.82 65.8106 175.915 65.6635 176.035 65.5362H176.054Z" fill="#27DEBF"/>
<path d="M179.017 64.6886C179.052 64.4117 179.067 64.1326 179.061 63.8536V63.4559C179.061 62.6924 178.982 61.587 178.918 60.8633C179.04 60.707 179.173 60.5595 179.316 60.4219H179.352C179.435 61.3325 179.455 62.3862 179.455 63.3565C179.455 63.611 179.455 63.8615 179.427 64.0444C179.395 64.303 179.27 64.5413 179.077 64.7164L179.017 64.6886Z" fill="#27DEBF"/>
<path d="M171.675 68.3037L168.773 68.9956C168.872 69.7977 169.192 70.5567 169.696 71.1884C170.201 71.8201 170.87 72.2999 171.631 72.5744C171.38 71.1605 171.395 69.7122 171.675 68.3037Z" fill="#27DEBF"/>
<g opacity="0.2">
<path d="M171.675 68.3037L168.773 68.9956C168.872 69.7977 169.192 70.5567 169.696 71.1884C170.201 71.8201 170.87 72.2999 171.631 72.5744C171.38 71.1605 171.395 69.7122 171.675 68.3037Z" fill="black"/>
</g>
<path d="M169.898 27.3184H132.996C131.49 27.3184 130.27 28.5379 130.27 30.0422V47.1688C130.27 48.6732 131.49 49.8927 132.996 49.8927H169.898C171.404 49.8927 172.625 48.6732 172.625 47.1688V30.0422C172.625 28.5379 171.404 27.3184 169.898 27.3184Z" fill="#27DEBF"/>
<path opacity="0.2" d="M169.898 27.3184H132.996C131.49 27.3184 130.27 28.5379 130.27 30.0422V47.1688C130.27 48.6732 131.49 49.8927 132.996 49.8927H169.898C171.404 49.8927 172.625 48.6732 172.625 47.1688V30.0422C172.625 28.5379 171.404 27.3184 169.898 27.3184Z" fill="black"/>
<path d="M134.84 38.4207C134.84 35.6611 136.961 33.6888 139.815 33.6888C140.525 33.6589 141.232 33.7892 141.885 34.0701C142.537 34.351 143.118 34.7752 143.584 35.3112L142.223 36.5637C141.942 36.2255 141.59 35.954 141.191 35.769C140.793 35.584 140.358 35.49 139.918 35.4941C139.16 35.522 138.441 35.8428 137.914 36.389C137.387 36.9351 137.093 37.6642 137.093 38.4227C137.093 39.1813 137.387 39.9103 137.914 40.4565C138.441 41.0027 139.16 41.3234 139.918 41.3514C140.359 41.3558 140.796 41.2604 141.195 41.0724C141.594 40.8844 141.945 40.6087 142.223 40.2658L143.584 41.5224C143.119 42.0633 142.537 42.4915 141.882 42.7746C141.227 43.0578 140.516 43.1884 139.803 43.1567C136.961 43.1607 134.84 41.2043 134.84 38.4207Z" fill="#27DEBF"/>
<path d="M144.617 33.8477C144.62 33.6879 144.656 33.5305 144.723 33.3853C144.79 33.24 144.886 33.11 145.005 33.0034C145.124 32.8967 145.263 32.8157 145.415 32.7653C145.567 32.7149 145.728 32.6962 145.887 32.7104C146.044 32.6939 146.202 32.7099 146.353 32.7572C146.503 32.8045 146.642 32.8823 146.761 32.9856C146.88 33.0889 146.977 33.2155 147.045 33.3577C147.113 33.4998 147.151 33.6544 147.156 33.8119C147.136 34.1316 146.996 34.4318 146.763 34.6527C146.531 34.8735 146.224 34.9987 145.903 35.0032C145.583 35.0077 145.272 34.8912 145.034 34.677C144.795 34.4628 144.647 34.1667 144.617 33.8477ZM144.864 35.9671H146.906V43.0014H144.872L144.864 35.9671Z" fill="#27DEBF"/>
<path d="M155.034 38.9893V43.0016H153.124V42.1267C152.726 42.7669 152.013 43.1089 150.978 43.1089C149.331 43.1089 148.348 42.1904 148.348 40.9775C148.348 39.7647 149.223 38.87 151.372 38.87H152.992C152.992 37.9952 152.471 37.4862 151.372 37.4862C150.643 37.479 149.931 37.7078 149.343 38.1384L148.61 36.7148C149.515 36.1347 150.573 35.8383 151.647 35.8638C153.792 35.8638 155.034 36.8579 155.034 38.9893ZM152.992 40.7787V40.059H151.591C150.636 40.059 150.338 40.4129 150.338 40.8821C150.338 41.3513 150.767 41.7331 151.488 41.7331C151.808 41.7549 152.126 41.6741 152.397 41.5024C152.667 41.3307 152.876 41.0772 152.992 40.7787Z" fill="#27DEBF"/>
<path d="M156.434 39.4858C156.434 37.3664 158.069 35.8633 160.306 35.8633C162.543 35.8633 164.171 37.3664 164.171 39.4858C164.171 41.6053 162.547 43.1084 160.306 43.1084C158.065 43.1084 156.434 41.6013 156.434 39.4858ZM162.101 39.4858C162.101 38.269 161.329 37.5374 160.306 37.5374C159.283 37.5374 158.503 38.269 158.503 39.4858C158.503 40.7026 159.299 41.4343 160.306 41.4343C161.313 41.4343 162.101 40.6986 162.101 39.4858Z" fill="#27DEBF"/>
<path d="M165.23 41.9159C165.249 41.5954 165.389 41.2939 165.622 41.0734C165.856 40.8528 166.165 40.73 166.486 40.73C166.807 40.73 167.117 40.8528 167.35 41.0734C167.584 41.2939 167.724 41.5954 167.742 41.9159C167.724 42.2364 167.584 42.5379 167.35 42.7584C167.117 42.9789 166.807 43.1018 166.486 43.1018C166.165 43.1018 165.856 42.9789 165.622 42.7584C165.389 42.5379 165.249 42.2364 165.23 41.9159ZM165.27 33.8477H167.702L167.304 39.8123H165.684L165.27 33.8477Z" fill="#27DEBF"/>
<path d="M137.516 47.3237L142.065 48.4093C141.911 49.6694 141.41 50.8622 140.619 51.8549C139.827 52.8476 138.774 53.6013 137.579 54.032C137.974 51.8113 137.953 49.5366 137.516 47.3237Z" fill="#27DEBF"/>
<g opacity="0.2">
<path d="M137.516 47.3237L142.065 48.4093C141.911 49.6694 141.41 50.8622 140.619 51.8549C139.827 52.8476 138.774 53.6013 137.579 54.032C137.974 51.8113 137.953 49.5366 137.516 47.3237Z" fill="black"/>
</g>
<path d="M160.303 1.67773H124.765C123.26 1.67773 122.039 2.89725 122.039 4.4016V15.3885C122.039 16.8929 123.26 18.1124 124.765 18.1124H160.303C161.808 18.1124 163.029 16.8929 163.029 15.3885V4.4016C163.029 2.89725 161.808 1.67773 160.303 1.67773Z" fill="#27DEBF"/>
<path d="M131.341 10.5852C131.341 11.806 130.374 12.4701 128.766 12.4701H126.02L127.241 6.36621H129.773C130.907 6.36621 131.603 6.79964 131.603 7.63868C131.611 8.03274 131.481 8.4171 131.235 8.72558C130.99 9.03405 130.644 9.24732 130.258 9.32867C130.564 9.36262 130.846 9.51109 131.047 9.74423C131.248 9.97736 131.353 10.2779 131.341 10.5852ZM130.895 10.5852C130.895 9.83765 130.366 9.54737 129.351 9.54737H127.042L126.537 12.0684H128.806C130.147 12.0843 130.891 11.5634 130.891 10.5852H130.895ZM127.118 9.16563H129.204C130.33 9.16563 131.142 8.66858 131.142 7.69037C131.142 7.04619 130.608 6.73205 129.693 6.73205H127.608L127.118 9.16563Z" fill="white"/>
<path d="M132.359 10.6132C132.34 10.2599 132.394 9.90641 132.517 9.57454C132.64 9.24266 132.829 8.93943 133.074 8.68351C133.318 8.42759 133.613 8.22441 133.939 8.08646C134.265 7.94852 134.616 7.87874 134.97 7.88142C136.2 7.88142 136.984 8.61309 136.984 9.77421C137.004 10.1272 136.951 10.4804 136.828 10.812C136.706 11.1437 136.516 11.4467 136.272 11.7024C136.028 11.9581 135.733 12.161 135.408 12.2985C135.082 12.436 134.731 12.5053 134.377 12.5021C133.147 12.5021 132.359 11.7783 132.359 10.6132ZM136.55 9.81795C136.55 8.8477 135.957 8.291 134.934 8.291C133.704 8.291 132.797 9.2692 132.797 10.6013C132.797 11.5676 133.39 12.1283 134.413 12.1283C135.643 12.1124 136.55 11.1421 136.55 9.79012V9.81795Z" fill="white"/>
<path d="M142.485 9.33653C142.484 9.50355 142.467 9.67012 142.433 9.83359L141.911 12.47H141.474L141.999 9.83359C142.029 9.69101 142.043 9.54576 142.043 9.40015C142.043 8.69235 141.613 8.27482 140.757 8.27482C139.718 8.27482 138.986 8.85936 138.767 9.99264L138.27 12.47H137.836L138.743 7.91694H139.169L138.994 8.77983C139.211 8.48407 139.498 8.247 139.829 8.09008C140.161 7.93315 140.526 7.86134 140.893 7.88115C141.935 7.88115 142.485 8.44183 142.485 9.33653Z" fill="white"/>
<path d="M141.754 13.8979L141.981 13.5678C142.179 13.7393 142.435 13.8289 142.697 13.8183C143.223 13.8183 143.545 13.54 143.676 12.8878L144.667 7.91728H145.105L144.102 12.9236C143.935 13.7746 143.473 14.1961 142.681 14.1961C142.346 14.21 142.018 14.1043 141.754 13.8979ZM144.818 6.48575C144.818 6.38029 144.86 6.27915 144.935 6.20458C145.01 6.13001 145.111 6.08811 145.216 6.08811C145.26 6.08652 145.304 6.09362 145.345 6.10899C145.386 6.12437 145.423 6.14772 145.455 6.17768C145.487 6.20764 145.512 6.24363 145.53 6.28354C145.548 6.32346 145.558 6.36651 145.559 6.4102C145.559 6.51566 145.517 6.61681 145.442 6.69138C145.368 6.76595 145.266 6.80785 145.161 6.80785C145.117 6.80999 145.073 6.80327 145.032 6.7881C144.991 6.77292 144.953 6.7496 144.921 6.71953C144.889 6.68946 144.864 6.65326 144.846 6.61309C144.828 6.57292 144.819 6.52961 144.818 6.48575Z" fill="white"/>
<path d="M145.969 10.6132C145.95 10.2599 146.003 9.90641 146.126 9.57454C146.249 9.24266 146.438 8.93943 146.683 8.68351C146.928 8.42759 147.222 8.22441 147.548 8.08646C147.874 7.94852 148.225 7.87874 148.579 7.88142C149.809 7.88142 150.597 8.61309 150.597 9.77421C150.617 10.1275 150.564 10.4811 150.441 10.813C150.318 11.1449 150.129 11.4481 149.884 11.7039C149.639 11.9596 149.345 12.1624 149.018 12.2997C148.692 12.437 148.341 12.5059 147.986 12.5021C146.757 12.5021 145.969 11.7783 145.969 10.6132ZM150.16 9.81795C150.16 8.8477 149.567 8.291 148.544 8.291C147.314 8.291 146.406 9.2692 146.406 10.6013C146.406 11.5676 146.999 12.1283 148.022 12.1283C149.252 12.1124 150.16 11.1421 150.16 9.79012V9.81795Z" fill="white"/>
<path d="M156.363 7.91699L155.456 12.47H155.03L155.205 11.6032C154.993 11.8975 154.711 12.134 154.384 12.2911C154.057 12.4481 153.696 12.5206 153.334 12.5018C152.307 12.5018 151.742 11.9451 151.742 11.0465C151.743 10.8795 151.76 10.7129 151.794 10.5494L152.319 7.91699H152.753L152.232 10.5494C152.201 10.6931 152.186 10.8398 152.188 10.9868C152.188 11.6906 152.606 12.1121 153.454 12.1121C154.484 12.1121 155.209 11.5276 155.444 10.3943L155.937 7.91699H156.363Z" fill="white"/>
<path d="M160.37 7.88121L160.29 8.31067C160.238 8.31067 160.202 8.31067 160.151 8.31067C159.12 8.31067 158.439 8.931 158.197 10.1438L157.727 12.482H157.289L158.197 7.92893H158.622L158.431 8.88726C158.63 8.55725 158.916 8.28861 159.258 8.11105C159.6 7.9335 159.985 7.85395 160.37 7.88121Z" fill="white"/>
<path d="M128.109 15.9575L131.922 16.8642C131.795 17.922 131.375 18.9235 130.71 19.7564C130.045 20.5894 129.161 21.2209 128.157 21.5802C128.492 19.7194 128.475 17.8125 128.109 15.9575Z" fill="#27DEBF"/>
<path d="M112.682 10.8281H77.1443C75.6386 10.8281 74.418 12.0476 74.418 13.552V27.0242C74.418 28.5286 75.6386 29.7481 77.1443 29.7481H112.682C114.187 29.7481 115.408 28.5286 115.408 27.0242V13.552C115.408 12.0476 114.187 10.8281 112.682 10.8281Z" fill="#27DEBF"/>
<path d="M78.1328 23.2144L78.7338 21.8783C79.4796 22.392 80.3632 22.6691 81.2691 22.6736C82.3198 22.6736 82.7496 22.3236 82.7496 21.8544C82.7496 20.4189 78.2841 21.4051 78.2841 18.554C78.2841 17.2497 79.3388 16.1681 81.5198 16.1681C82.4539 16.1489 83.3757 16.3839 84.1864 16.8481L83.6372 18.1961C82.9926 17.8157 82.2603 17.6089 81.5118 17.5956C80.4571 17.5956 80.0512 17.9933 80.0512 18.4704C80.0512 19.8861 84.5167 18.9079 84.5167 21.7272C84.5167 23.0076 83.4501 24.113 81.2571 24.113C80.1484 24.1384 79.0583 23.8248 78.1328 23.2144Z" fill="white"/>
<path d="M90.8342 20.6097V23.9738H89.2422V23.2381C88.9238 23.7749 88.3108 24.0612 87.4432 24.0612C86.0621 24.0612 85.2383 23.2938 85.2383 22.2718C85.2383 21.2499 85.9706 20.5262 87.7656 20.5262H89.1228C89.1228 19.7905 88.685 19.365 87.7656 19.365C87.154 19.3596 86.5569 19.5505 86.0621 19.9098L85.4492 18.7169C86.2073 18.2322 87.0927 17.9844 87.9924 18.0051C89.7914 17.9892 90.8342 18.8203 90.8342 20.6097ZM89.1228 22.1168V21.5084H87.9606C87.1646 21.5084 86.9099 21.8026 86.9099 22.1963C86.9099 22.59 87.2721 22.9081 87.873 22.9081C88.1383 22.925 88.4022 22.8576 88.6267 22.7154C88.8512 22.5733 89.0249 22.3637 89.1228 22.1168Z" fill="white"/>
<path d="M92.3789 15.8423H94.0903V23.9741H92.3789V15.8423Z" fill="white"/>
<path d="M100.901 20.6096V23.9737H99.3086V23.238C98.9902 23.7749 98.3772 24.0612 97.5096 24.0612C96.1285 24.0612 95.3047 23.2937 95.3047 22.2718C95.3047 21.2498 96.033 20.5261 97.832 20.5261H99.1892C99.1892 19.7904 98.7514 19.365 97.832 19.365C97.2216 19.3595 96.6258 19.5505 96.1325 19.9097L95.5156 18.7168C96.274 18.2328 97.1592 17.9851 98.0588 18.005C99.8578 17.9891 100.901 18.8202 100.901 20.6096ZM99.1892 22.1167V21.5083H98.019C97.223 21.5083 96.9643 21.8025 96.9643 22.1962C96.9643 22.5899 97.3265 22.908 97.9275 22.908C98.1947 22.9276 98.4613 22.8614 98.6882 22.719C98.9152 22.5767 99.0907 22.3657 99.1892 22.1167Z" fill="white"/>
<path d="M112.419 20.5982V23.9742H110.708V20.8607C110.708 19.9063 110.282 19.4689 109.589 19.4689C108.821 19.4689 108.284 19.962 108.284 21.0157V23.9742H106.572V20.8607C106.572 19.9063 106.174 19.4689 105.454 19.4689C104.734 19.4689 104.161 19.962 104.161 21.0157V23.9742H102.449V18.0771H104.085V18.7571C104.319 18.5029 104.606 18.3026 104.926 18.1701C105.245 18.0376 105.59 17.976 105.936 17.9897C106.313 17.968 106.69 18.0437 107.031 18.2094C107.371 18.3751 107.662 18.6253 107.878 18.9361C108.136 18.6247 108.463 18.3762 108.831 18.2094C109.2 18.0427 109.602 17.9621 110.007 17.9738C111.408 17.9897 112.419 18.8009 112.419 20.5982Z" fill="white"/>
<path d="M80.4922 27.5928L84.305 28.5034C84.1762 29.5602 83.7564 30.5605 83.0923 31.3931C82.4283 32.2257 81.5461 32.8579 80.5439 33.2195C80.8771 31.357 80.8595 29.4488 80.4922 27.5928Z" fill="#27DEBF"/>
<path d="M35.9123 59.2334H16.1794C14.6737 59.2334 13.4531 60.4529 13.4531 61.9573V70.9083C13.4531 72.4126 14.6737 73.6321 16.1794 73.6321H35.9123C37.418 73.6321 38.6386 72.4126 38.6386 70.9083V61.9573C38.6386 60.4529 37.418 59.2334 35.9123 59.2334Z" fill="#27DEBF"/>
<path opacity="0.2" d="M35.9123 59.2334H16.1794C14.6737 59.2334 13.4531 60.4529 13.4531 61.9573V70.9083C13.4531 72.4126 14.6737 73.6321 16.1794 73.6321H35.9123C37.418 73.6321 38.6386 72.4126 38.6386 70.9083V61.9573C38.6386 60.4529 37.418 59.2334 35.9123 59.2334Z" fill="white"/>
<path d="M27.6436 71.9297L24.7422 72.6176C24.8415 73.4201 25.1615 74.1794 25.6666 74.8112C26.1718 75.443 26.8423 75.9225 27.6038 76.1964C27.3518 74.784 27.3653 73.3371 27.6436 71.9297Z" fill="#27DEBF"/>
<g opacity="0.2">
<path d="M27.6436 71.9297L24.7422 72.6176C24.8415 73.4201 25.1615 74.1794 25.6666 74.8112C26.1718 75.443 26.8423 75.9225 27.6038 76.1964C27.3518 74.784 27.3653 73.3371 27.6436 71.9297Z" fill="white"/>
</g>
<path d="M20.5783 64.3389L19.7425 68.5102H19.44L19.838 66.5219H17.052L16.654 68.5102H16.3516L17.1874 64.3389H17.4898L17.1157 66.2555H19.9017L20.2997 64.3428L20.5783 64.3389Z" fill="white"/>
<path d="M24.4887 65.4007L23.8798 68.5103H23.5932L23.7126 67.9019C23.5599 68.1042 23.3611 68.2671 23.1326 68.3771C22.9042 68.487 22.6527 68.5409 22.3992 68.5342C22.2233 68.5498 22.046 68.5275 21.8794 68.4687C21.7128 68.4099 21.5608 68.3161 21.4336 68.1936C21.3064 68.0711 21.2071 67.9227 21.1423 67.7585C21.0775 67.5943 21.0487 67.4181 21.058 67.2418C21.0433 67.0021 21.0779 66.762 21.1597 66.5362C21.2415 66.3104 21.3688 66.1038 21.5336 65.929C21.6985 65.7543 21.8974 65.6151 22.1182 65.5201C22.3389 65.4252 22.5768 65.3764 22.8171 65.3769C23.0827 65.346 23.3507 65.4085 23.5752 65.5536C23.7996 65.6987 23.9664 65.9174 24.047 66.1721L24.2022 65.3769L24.4887 65.4007ZM23.9116 66.6891C23.9223 66.5438 23.9004 66.398 23.8477 66.2622C23.795 66.1264 23.7127 66.004 23.6068 65.9039C23.5009 65.8038 23.374 65.7284 23.2354 65.6834C23.0967 65.6383 22.9498 65.6246 22.8052 65.6433C22.6027 65.6454 22.4028 65.689 22.2179 65.7715C22.0329 65.8539 21.8668 65.9733 21.7299 66.1224C21.593 66.2715 21.4882 66.447 21.4219 66.6382C21.3556 66.8294 21.3293 67.0321 21.3445 67.2339C21.334 67.3788 21.3558 67.5242 21.4082 67.6597C21.4607 67.7952 21.5427 67.9173 21.6481 68.0174C21.7536 68.1174 21.8799 68.1928 22.0181 68.2382C22.1562 68.2835 22.3027 68.2977 22.447 68.2797C22.65 68.2786 22.8506 68.2358 23.0363 68.1538C23.222 68.0719 23.3888 67.9525 23.5262 67.8033C23.6637 67.654 23.7688 67.478 23.8352 67.2863C23.9015 67.0946 23.9275 66.8913 23.9116 66.6891Z" fill="white"/>
<path d="M28.5678 66.6535C28.5813 66.8936 28.5456 67.1339 28.4629 67.3597C28.3802 67.5856 28.2522 67.7921 28.0867 67.9667C27.9213 68.1414 27.7219 68.2804 27.5007 68.3753C27.2795 68.4701 27.0413 68.5189 26.8007 68.5185C26.5346 68.5496 26.266 68.4872 26.0409 68.3421C25.8158 68.197 25.6482 67.9782 25.5669 67.7232L25.4116 68.5185H25.1211L26.0007 64.0967H26.2992L25.9251 65.9934C26.0783 65.7983 26.275 65.6417 26.4996 65.536C26.7242 65.4304 26.9704 65.3787 27.2186 65.385C27.3929 65.3692 27.5687 65.3905 27.7342 65.4476C27.8997 65.5046 28.0513 65.5961 28.1788 65.716C28.3063 65.8359 28.4069 65.9815 28.474 66.1431C28.541 66.3047 28.573 66.4787 28.5678 66.6535ZM28.2613 66.6734C28.2719 66.5285 28.2501 66.3831 28.1976 66.2476C28.1451 66.1121 28.0632 65.99 27.9577 65.8899C27.8523 65.7899 27.7259 65.7145 27.5878 65.6691C27.4496 65.6238 27.3031 65.6096 27.1589 65.6276C26.9562 65.6292 26.756 65.6724 26.5708 65.7546C26.3856 65.8368 26.2193 65.9563 26.0822 66.1055C25.9452 66.2547 25.8404 66.4305 25.7743 66.6219C25.7083 66.8133 25.6823 67.0163 25.6982 67.2182C25.6874 67.3638 25.7093 67.5101 25.7623 67.6462C25.8152 67.7823 25.8979 67.905 26.0043 68.0051C26.1106 68.1053 26.238 68.1805 26.3772 68.2253C26.5163 68.2701 26.6637 68.2833 26.8086 68.264C27.009 68.2612 27.2067 68.2177 27.3897 68.1359C27.5726 68.0541 27.7369 67.9359 27.8726 67.7885C28.0082 67.6411 28.1123 67.4676 28.1784 67.2786C28.2446 67.0896 28.2714 66.8891 28.2573 66.6893L28.2613 66.6734Z" fill="white"/>
<path d="M32.5397 65.4004L31.9189 68.51H31.6323L31.7517 67.9016C31.599 68.1038 31.4001 68.2667 31.1717 68.3767C30.9432 68.4867 30.6918 68.5406 30.4383 68.5338C30.2623 68.5494 30.085 68.5271 29.9185 68.4683C29.7519 68.4096 29.5998 68.3158 29.4727 68.1932C29.3455 68.0707 29.2462 67.9223 29.1814 67.7581C29.1165 67.5939 29.0878 67.4177 29.097 67.2415C29.0824 67.0018 29.117 66.7616 29.1988 66.5358C29.2806 66.3101 29.4079 66.1034 29.5727 65.9287C29.7375 65.7539 29.9365 65.6148 30.1572 65.5198C30.378 65.4248 30.6159 65.3761 30.8562 65.3765C31.1216 65.3464 31.3893 65.4092 31.6136 65.5542C31.8378 65.6993 32.0048 65.9175 32.086 66.1718L32.2412 65.3765L32.5397 65.4004ZM31.9587 66.6887C31.9692 66.5438 31.9474 66.3984 31.8949 66.2629C31.8424 66.1274 31.7605 66.0053 31.6551 65.9052C31.5496 65.8052 31.4233 65.7298 31.2851 65.6844C31.147 65.6391 31.0005 65.6249 30.8562 65.6429C30.6537 65.6451 30.4538 65.6887 30.2689 65.7711C30.0839 65.8535 29.9178 65.973 29.7809 66.122C29.644 66.2711 29.5392 66.4467 29.4729 66.6379C29.4066 66.829 29.3803 67.0318 29.3955 67.2335C29.385 67.3784 29.4068 67.5238 29.4593 67.6593C29.5117 67.7948 29.5937 67.917 29.6991 68.017C29.8046 68.117 29.9309 68.1924 30.0691 68.2378C30.2072 68.2832 30.3537 68.2973 30.498 68.2793C30.7007 68.2778 30.9008 68.2345 31.0861 68.1523C31.2713 68.0701 31.4376 67.9507 31.5746 67.8015C31.7116 67.6523 31.8164 67.4765 31.8825 67.285C31.9486 67.0936 31.9745 66.8906 31.9587 66.6887Z" fill="white"/>
<path d="M35.2773 65.3772L35.2256 65.6675H35.13C34.4256 65.6675 33.9599 66.089 33.7928 66.9201L33.4704 68.5106H33.1719L33.7928 65.4011H34.0873L33.9559 66.0572C34.0915 65.8327 34.2869 65.6502 34.5202 65.5302C34.7535 65.4101 35.0156 65.3571 35.2773 65.3772Z" fill="white"/>
<path d="M36.0857 65.4008H36.3842L35.7633 68.5104H35.4648L36.0857 65.4008ZM36.1892 64.4226C36.1887 64.388 36.1951 64.3537 36.2081 64.3216C36.2211 64.2895 36.2404 64.2603 36.2649 64.2359C36.2894 64.2114 36.3186 64.1921 36.3507 64.1791C36.3828 64.1661 36.4172 64.1597 36.4519 64.1602C36.4817 64.1597 36.5113 64.165 36.539 64.1759C36.5667 64.1868 36.592 64.2031 36.6135 64.2238C36.6349 64.2444 36.6521 64.2691 36.6639 64.2964C36.6758 64.3237 36.6822 64.3531 36.6827 64.3829C36.6833 64.4178 36.6767 64.4525 36.6635 64.4849C36.6502 64.5172 36.6305 64.5466 36.6056 64.5711C36.5807 64.5956 36.551 64.6149 36.5184 64.6276C36.4859 64.6404 36.451 64.6464 36.4161 64.6453C36.3865 64.6458 36.357 64.6405 36.3295 64.6295C36.302 64.6186 36.277 64.6022 36.2559 64.5815C36.2348 64.5608 36.218 64.5361 36.2065 64.5088C36.1951 64.4815 36.1892 64.4522 36.1892 64.4226Z" fill="white"/>
<path opacity="0.2" d="M71.8604 97.8168L71.8047 141.657L76.8434 142.019L82.0651 135.16L80.4453 95.9399L71.8604 97.8168Z" fill="black"/>
<path d="M78.9861 136.666C76.5503 140.297 75.0061 154.533 73.4141 170.069H96.2115C98.7109 152.97 100.896 136.551 100.956 136.309L78.9861 136.666Z" fill="#27DEBF"/>
<path opacity="0.2" d="M78.9861 136.666C76.5503 140.297 75.0061 154.533 73.4141 170.069H96.2115C98.7109 152.97 100.896 136.551 100.956 136.309L78.9861 136.666Z" fill="black"/>
<path d="M114.901 134.69H92.2148C92.2148 134.69 96.3063 151.499 98.9012 170.081H118.865C117.731 149.598 115.725 134.062 114.901 134.69Z" fill="#27DEBF"/>
<path opacity="0.2" d="M114.901 134.69H92.2148C92.2148 134.69 96.3063 151.499 98.9012 170.081H118.865C117.731 149.598 115.725 134.062 114.901 134.69Z" fill="black"/>
<g opacity="0.3">
<path d="M78.3143 153.976C78.3497 153.97 78.3819 153.952 78.4051 153.925C78.4283 153.898 78.4411 153.863 78.4411 153.827C78.4411 153.791 78.4283 153.757 78.4051 153.729C78.3819 153.702 78.3497 153.684 78.3143 153.678C78.2789 153.684 78.2467 153.702 78.2235 153.729C78.2002 153.757 78.1875 153.791 78.1875 153.827C78.1875 153.863 78.2002 153.898 78.2235 153.925C78.2467 153.952 78.2789 153.97 78.3143 153.976Z" fill="black"/>
</g>
<g opacity="0.3">
<path d="M78.036 152.97C80.5911 150.971 82.3504 148.127 82.9991 144.95C83.0349 144.763 82.7483 144.683 82.7085 144.874C82.0724 148 80.3407 150.796 77.8251 152.76C77.6738 152.875 77.8887 153.086 78.036 152.97Z" fill="black"/>
</g>
<g opacity="0.3">
<path d="M113.232 144.954C114.147 147.654 115.482 150.193 117.188 152.477C117.299 152.629 117.558 152.477 117.447 152.326C115.755 150.063 114.429 147.549 113.518 144.874C113.459 144.696 113.168 144.771 113.232 144.954Z" fill="black"/>
</g>
<path opacity="0.2" d="M116.357 140.722C116.357 140.722 109.376 146.739 96.4328 145.164C83.4898 143.589 77.5039 140.464 77.5039 140.464C77.9411 138.942 78.4647 137.445 79.072 135.982L116.11 137.692L116.357 140.722Z" fill="black"/>
<path d="M112.094 92.4485C112.595 93.2955 121.678 111.428 131.007 110.533C139.249 109.738 144.089 85.7124 144.089 85.7124L138.708 84.1218C138.708 84.1218 132.137 100.803 130.044 100.207C127.258 98.4092 123.317 90.1263 119.632 83.3066L112.094 92.4485Z" fill="#FDBBB5"/>
<path d="M101.029 74.316C101.029 74.0575 111.326 74.5824 112.492 76.4712C113.658 78.36 118.788 133.128 118.912 138.051C119.039 143.124 88.1741 146.588 76.4609 137.915C76.4609 137.915 78.7375 97.2362 78.3116 90.0667C78.0683 85.6658 78.5606 81.2552 79.7683 77.016L91.3302 74.654L101.029 74.316Z" fill="#27DEBF"/>
<path d="M102.72 81.0442C104.312 86.325 111.596 101.376 111.596 101.376L126.409 93.0452C126.409 93.0452 120.368 82.0543 115.333 78.0142C108.738 72.7851 100.651 74.2326 102.72 81.0442Z" fill="#27DEBF"/>
<path opacity="0.2" d="M82.2641 88.834C82.8053 91.2517 80.5487 105.392 77.9219 108.108C77.9219 104.557 78.5109 97.7691 78.0453 94.0074L82.2641 88.834Z" fill="black"/>
<path opacity="0.2" d="M115.398 99.236L114.18 85.7559L119.632 96.8541L115.398 99.236Z" fill="black"/>
<path opacity="0.6" d="M76.9531 115.194C76.9531 115.194 101.394 119.079 116.833 113.767L117.939 125.696C117.939 125.696 101.092 132.885 75.2656 126.32L76.9531 115.194Z" fill="white"/>
<g opacity="0.3">
<path d="M115.559 98.6758C114.91 94.1784 114.687 89.6333 114.038 85.132C114.011 84.9451 113.724 85.0246 113.752 85.2115C114.401 89.7128 114.62 94.2579 115.268 98.7553C115.296 98.9462 115.587 98.8627 115.559 98.6758Z" fill="black"/>
</g>
<path opacity="0.3" d="M82.5296 104.151L80.3963 118.164L79.668 139.792C79.668 139.792 76.882 138.599 76.2969 137.637C75.7119 136.675 76.6631 104.108 77.2203 102.947C77.7775 101.785 82.5296 104.151 82.5296 104.151Z" fill="black"/>
<path d="M78.835 83.6484C77.6632 83.8348 76.5689 84.3514 75.6806 85.1374C74.7924 85.9235 74.147 86.9464 73.8202 88.0861C71.5556 96.4366 68.5348 113.786 68.0771 118.979C67.6552 123.727 71.7904 146.814 71.7904 146.814L76.861 145.566C76.861 145.566 77.2032 118.8 77.5177 117.281C79.0539 109.873 82.1424 101.534 83.6508 96.0867C84.9642 91.3468 84.4468 85.7718 81.5972 84.0778C80.7572 83.6102 79.7775 83.4578 78.835 83.6484Z" fill="#FDBBB5"/>
<path d="M73.1601 83.6646C70.5413 90.3093 67.6797 100.787 67.6797 100.787L82.5291 104.151C84.2245 98.9143 86.3459 93.2041 85.8404 87.7206C85.0683 80.2687 84.3479 75.6521 79.7669 77.016C77.4466 77.7039 74.7044 79.7478 73.1601 83.6646Z" fill="#27DEBF"/>
<path d="M78.6894 149.761C78.5501 149.439 78.367 149.057 78.164 148.644L76.6437 145.045L71.6408 146.21C72.1025 147.701 71.6408 149.324 71.5811 150.497C71.4537 152.381 72.9423 153.948 72.799 154.763C72.401 156.938 70.1602 160.462 71.2707 161.098C72.3811 161.734 74.3512 157.611 74.3512 157.611C74.3512 157.611 72.791 162.283 73.8417 162.851C75.2944 163.647 75.4337 163.034 75.4337 163.034C75.784 163.365 76.1877 163.634 76.6277 163.83C77.2009 164.096 78.9481 160.553 79.2028 156.525C79.2028 156.525 79.4217 157.813 79.6008 159.913C79.6685 160.756 79.2028 161.75 79.5252 162.724C79.9948 164.088 81.7699 161.674 81.7221 159.269C81.6744 156.863 79.955 152.7 78.6894 149.761Z" fill="#FDBBB5"/>
<path d="M75.3937 163.046C76.0632 161.83 76.564 160.529 76.8822 159.177C77.1358 157.593 77.094 155.975 76.7588 154.406C76.723 154.215 76.4364 154.294 76.4683 154.481C76.8022 156.028 76.8386 157.625 76.5757 159.185C76.2572 160.473 75.7743 161.715 75.1389 162.879C75.0514 163.05 75.3101 163.201 75.3937 163.031V163.046Z" fill="#D7504D"/>
<path d="M74.4268 157.786C74.5621 157.122 74.7292 156.458 74.8248 155.798C74.9202 155.194 74.8213 154.576 74.5422 154.032C74.4506 153.865 74.1919 154.032 74.2875 154.183C74.5468 154.715 74.6264 155.316 74.5143 155.897C74.4268 156.509 74.2795 157.114 74.1561 157.718C74.1163 157.905 74.4029 157.985 74.4427 157.798L74.4268 157.786Z" fill="#D7504D"/>
<g opacity="0.3">
<path d="M67.6617 100.93L80.6445 103.873L82.5111 104.294C82.5299 104.3 82.5496 104.301 82.5691 104.299C82.5885 104.297 82.6073 104.291 82.6244 104.281C82.6414 104.271 82.6564 104.259 82.6684 104.243C82.6803 104.228 82.6891 104.21 82.6942 104.191L84.6086 92.532L84.8792 90.8739C84.911 90.687 84.6245 90.6035 84.5926 90.7943L82.6584 102.441L82.3877 104.111L82.5708 104.008L69.588 101.066L67.7214 100.644C67.5344 100.6 67.4548 100.891 67.6418 100.93H67.6617Z" fill="black"/>
</g>
<g opacity="0.3">
<path d="M88.0759 122.828C94.2516 119.239 99.9529 114.891 105.047 109.885C106.49 108.461 107.882 106.99 109.222 105.471C109.349 105.328 109.138 105.113 109.011 105.26C104.312 110.596 98.9642 115.324 93.0907 119.333C91.4138 120.476 89.6984 121.555 87.9446 122.57C87.9158 122.592 87.8962 122.625 87.8894 122.66C87.8826 122.696 87.8889 122.733 87.9074 122.765C87.9258 122.796 87.9551 122.82 87.9897 122.832C88.0244 122.844 88.062 122.842 88.0958 122.828H88.0759Z" fill="black"/>
</g>
<path d="M84.814 46.2223C84.6341 45.0071 84.8216 43.766 85.3523 42.6579C85.883 41.5499 86.7328 40.6254 87.7927 40.003C88.8527 39.3806 90.0745 39.0886 91.3017 39.1644C92.5288 39.2402 93.7053 39.6804 94.6804 40.4286C95.1859 39.7327 96.3759 38.5756 97.8286 38.7903C98.5813 38.9621 99.3117 39.2196 100.006 39.5578C100.381 39.0116 100.84 38.5284 101.367 38.1263C102.382 37.3747 104.209 37.5338 105.164 38.3569C106.119 39.18 106.616 40.1622 106.027 41.2756C107.404 41.058 108.813 41.3223 110.017 42.0238C111.221 42.7252 112.146 43.8207 112.634 45.1248C113.534 47.7533 111.373 50.9145 108.897 52.179C108.626 53.8213 107.85 56.2231 107.58 57.8693L87.3731 57.4717C87.1025 55.9845 85.8448 51.9603 85.5742 50.4692C85.2826 50.5505 84.9772 50.5702 84.6776 50.5268C84.3781 50.4834 84.0908 50.3779 83.8344 50.2171C83.578 50.0564 83.358 49.8438 83.1886 49.5932C83.0192 49.3425 82.904 49.0593 82.8506 48.7616C82.7971 48.4639 82.8065 48.1583 82.8781 47.8644C82.9497 47.5705 83.082 47.2948 83.2665 47.055C83.451 46.8152 83.6836 46.6166 83.9494 46.4718C84.2152 46.327 84.5083 46.2393 84.81 46.2144L84.814 46.2223Z" fill="#263238"/>
<path d="M104.804 54.4817C108.64 55.5951 108.211 50.2945 106.977 47.8768C104.875 43.6856 100.967 53.3722 104.804 54.4817Z" fill="#263238"/>
<path d="M99.3411 79.2265C94.9631 79.31 92.4796 78.1966 89.5742 74.9399C90.4938 74.0494 91.1576 72.9289 91.4966 71.6951C92.268 68.873 92.552 65.94 92.3363 63.0225C92.2488 61.3364 92.0737 59.6544 91.8189 57.9883L96.0537 61.913L100.734 66.1917C100.452 67.1016 100.241 68.0323 100.105 68.9752C99.763 71.6235 99.0267 73.3493 102.41 74.3235C103.265 75.9897 102.919 79.0714 99.3411 79.2265Z" fill="#FDBBB5"/>
<path opacity="0.2" d="M93.2383 67.8462C93.2383 67.8462 95.1208 72.0453 99.8212 71.1904L99.9008 69.9975L93.2383 67.8462Z" fill="black"/>
<path d="M89.6417 50.3061C90.0336 49.1666 90.6463 48.1155 91.4449 47.2127C92.2436 46.3099 93.2124 45.5733 94.2962 45.0448C95.3799 44.5164 96.5572 44.2065 97.7609 44.1329C98.9646 44.0592 100.171 44.2233 101.311 44.6158C107.922 46.8983 109.271 56.6962 108.109 62.7206C106.811 69.4289 98.752 72.9043 93.4864 68.0609C89.9761 64.84 89.9044 60.9351 89.2 54.3303C89.0445 52.9727 89.1955 51.5977 89.6417 50.3061Z" fill="#FDBBB5"/>
<path d="M97.9088 61.2094C97.8796 61.1797 97.8633 61.1397 97.8633 61.0981C97.8633 61.0564 97.8796 61.0165 97.9088 60.9867C97.9397 60.9582 97.9802 60.9424 98.0222 60.9424C98.0643 60.9424 98.1048 60.9582 98.1357 60.9867C98.5738 61.4978 99.1267 61.8982 99.7492 62.1553C100.372 62.4123 101.046 62.5188 101.718 62.466C101.744 62.458 101.771 62.458 101.797 62.466C101.82 62.4691 101.842 62.477 101.861 62.4891C101.881 62.5012 101.898 62.5173 101.91 62.5363C101.923 62.5554 101.932 62.5769 101.936 62.5995C101.94 62.6221 101.939 62.6453 101.933 62.6675C101.928 62.6897 101.917 62.7105 101.903 62.7285C101.889 62.7465 101.871 62.7613 101.851 62.772C101.83 62.7826 101.808 62.7888 101.785 62.7902C101.762 62.7916 101.739 62.7882 101.718 62.7801C101.483 62.796 101.248 62.796 101.013 62.7801C100.416 62.7442 99.832 62.5863 99.2981 62.3161C98.7641 62.046 98.2913 61.6693 97.9088 61.2094Z" fill="#263238"/>
<path d="M98.4877 55.9172C98.5514 56.6688 99.0887 57.2175 99.5902 57.138C100.092 57.0585 100.386 56.3865 100.275 55.6389C100.163 54.8913 99.6618 54.3386 99.1723 54.4141C98.6827 54.4897 98.3763 55.1538 98.4877 55.9172Z" fill="#263238"/>
<path d="M104.623 55.4036C104.683 56.1591 105.236 56.7039 105.726 56.6283C106.215 56.5528 106.522 55.8768 106.406 55.1252C106.291 54.3737 105.794 53.8289 105.304 53.9045C104.814 53.98 104.516 54.6918 104.623 55.4036Z" fill="#263238"/>
<path d="M107.46 51.3C107.409 51.3385 107.349 51.3632 107.286 51.3716C107.222 51.3799 107.158 51.3717 107.098 51.3477C106.703 51.166 106.271 51.0793 105.836 51.0945C105.401 51.1097 104.976 51.2263 104.595 51.4352C104.557 51.4613 104.515 51.4797 104.47 51.4895C104.425 51.4992 104.379 51.5 104.334 51.4919C104.289 51.4838 104.246 51.4669 104.207 51.4421C104.169 51.4174 104.135 51.3853 104.109 51.3477C104.083 51.3101 104.065 51.2677 104.055 51.223C104.045 51.1783 104.044 51.132 104.052 51.087C104.061 51.0419 104.077 50.9989 104.102 50.9604C104.127 50.9219 104.159 50.8887 104.197 50.8626C104.672 50.5865 105.207 50.4287 105.756 50.4024C106.306 50.3761 106.853 50.4821 107.353 50.7114C107.395 50.7277 107.434 50.7522 107.466 50.7834C107.499 50.8146 107.525 50.8521 107.543 50.8935C107.562 50.9349 107.571 50.9795 107.572 51.0247C107.573 51.0699 107.565 51.1148 107.548 51.1568C107.525 51.2081 107.496 51.2562 107.46 51.3Z" fill="#263238"/>
<path d="M97.1137 53.0658C97.044 53.074 96.9734 53.0616 96.9107 53.03C96.8418 52.9707 96.7986 52.8869 96.7905 52.7963C96.7823 52.7058 96.8097 52.6156 96.8669 52.5449C97.2175 52.12 97.6651 51.7855 98.1722 51.5696C98.6792 51.3536 99.2307 51.2626 99.7803 51.3043C99.8265 51.3095 99.871 51.3241 99.9113 51.3473C99.9515 51.3705 99.9865 51.4017 100.014 51.4391C100.042 51.4764 100.061 51.519 100.072 51.5642C100.082 51.6094 100.083 51.6563 100.075 51.7019C100.061 51.7936 100.011 51.8762 99.9368 51.9313C99.8622 51.9865 99.7687 52.0098 99.6768 51.9962C99.241 51.9743 98.8061 52.055 98.4072 52.2318C98.0083 52.4087 97.6566 52.6766 97.3804 53.0141C97.3415 53.0399 97.2979 53.0577 97.2522 53.0665C97.2064 53.0754 97.1594 53.0752 97.1137 53.0658Z" fill="#263238"/>
<path d="M101.707 61.9889C100.291 61.7837 98.9346 61.2809 97.7272 60.5137C97.6365 60.7414 97.5802 60.9812 97.5601 61.2255C97.5104 61.6598 97.5692 62.0997 97.7312 62.5059C98.0615 63.337 98.9252 64.176 101.007 64.4941C101.16 64.5263 101.316 64.5489 101.472 64.5617C101.739 63.7219 102.065 62.902 102.447 62.1082C102.447 62.1082 102.177 62.0764 101.707 61.9889Z" fill="#263238"/>
<path d="M97.7726 60.5098C97.6815 60.7373 97.6252 60.9773 97.6055 61.2215C98.1268 61.9135 99.4681 62.3906 101.434 62.7048L101.741 61.985C100.328 61.7796 98.9758 61.2767 97.7726 60.5098Z" fill="white"/>
<path d="M99.9949 63.3168C99.2953 62.9243 98.5332 62.6553 97.7422 62.5215C98.0725 63.3526 98.9362 64.1916 101.018 64.5097C100.809 64.0155 100.452 63.5986 99.9949 63.3168Z" fill="#FF3636"/>
<path d="M103.391 55.1216C104.358 56.799 105.554 58.334 106.945 59.6826C106.588 60.0313 106.159 60.2975 105.688 60.4624C105.217 60.6273 104.715 60.6868 104.218 60.6369L103.391 55.1216Z" fill="#D7504D"/>
<path d="M88.8915 45.5779C89.0334 45.1408 89.2591 44.7356 89.5562 44.3849C89.9091 44.0483 90.3316 43.7931 90.794 43.6374C92.8849 42.8652 95.1391 42.642 97.3411 42.9892C99.5336 43.3296 101.662 44 103.653 44.9774C104.885 45.5063 106.016 46.2435 106.997 47.1565C107.977 48.0843 108.55 49.3627 108.589 50.7115C108.594 50.82 108.568 50.9279 108.513 51.0216C108.39 51.1847 108.139 51.1608 107.944 51.1091C106.595 50.7632 102.447 50.9262 102.185 48.0671C101.998 48.3534 102.153 47.7251 102.185 48.0671C99.7967 48.5165 99.5579 48.2103 97.162 47.7132C97.3789 48.0287 97.4797 48.4096 97.447 48.791C97.4144 49.1725 97.2503 49.5307 96.9829 49.8048C96.7048 50.0677 96.3618 50.2518 95.9891 50.3385C95.6163 50.4251 95.2271 50.4111 94.8615 50.2979C94.8615 51.2761 94.8138 52.314 94.2765 53.1331C93.9143 53.6779 93.174 54.0954 92.6128 53.7614C92.6884 54.3817 92.7322 55.0055 92.7442 55.6303C92.8007 56.2335 92.6804 56.84 92.3979 57.376C91.9942 57.8858 91.4528 58.2694 90.8377 58.4815L87.3712 53.7694C87.3641 50.9682 87.8797 48.1902 88.8915 45.5779Z" fill="#263238"/>
<path d="M85.6168 59.8654C86.3098 61.5556 87.6451 62.9026 89.3301 63.6112C91.5709 64.5337 92.9718 62.6012 92.5977 60.3386C92.2435 58.3305 90.6674 55.368 88.2993 55.4276C85.9312 55.4873 84.777 57.7817 85.6168 59.8654Z" fill="#FDBBB5"/>
<g opacity="0.3">
<path d="M87.6124 57.7901C87.7044 57.6732 87.83 57.5874 87.9724 57.544C88.1147 57.5006 88.2668 57.5019 88.4084 57.5475C88.7439 57.6622 89.0376 57.874 89.2522 58.1559C89.7208 58.6978 90.0185 59.366 90.1079 60.0765C90.1079 60.2634 90.4263 60.2674 90.4064 60.0765C90.3045 59.2259 89.9304 58.4309 89.3398 57.8099C89.0693 57.4976 88.6972 57.2905 88.289 57.2254C88.1118 57.202 87.9315 57.2265 87.767 57.2965C87.6025 57.3664 87.4598 57.4792 87.3537 57.623C87.2463 57.7821 87.505 57.9292 87.6124 57.7742V57.7901Z" fill="black"/>
</g>
<g opacity="0.3">
<path d="M94.9579 50.0951C94.3576 49.9451 93.82 49.6097 93.4216 49.1368C93.403 49.1185 93.3801 49.1054 93.355 49.0986C93.3299 49.0918 93.3035 49.0916 93.2783 49.098C93.2531 49.1044 93.2299 49.1172 93.2111 49.1351C93.1923 49.1531 93.1784 49.1755 93.1708 49.2004C93.0855 49.7319 92.807 50.2132 92.3887 50.5524C91.9703 50.8915 91.4415 51.0646 90.9033 51.0385C90.3652 51.0124 89.8557 50.789 89.4721 50.4109C89.0886 50.0329 88.8581 49.5269 88.8247 48.9896C88.8247 48.8584 88.6098 48.763 88.5461 48.9141C88.2761 49.5231 87.7991 50.0169 87.1995 50.308C86.6 50.5992 85.9166 50.6688 85.2705 50.5047C85.2517 50.4994 85.2321 50.498 85.2127 50.5003C85.1933 50.5027 85.1746 50.5089 85.1576 50.5185C85.1406 50.5281 85.1256 50.5409 85.1136 50.5563C85.1016 50.5717 85.0927 50.5893 85.0875 50.6081C85.0822 50.6269 85.0808 50.6465 85.0831 50.6659C85.0855 50.6852 85.0917 50.7039 85.1013 50.7209C85.1109 50.7379 85.1238 50.7528 85.1391 50.7649C85.1545 50.7769 85.1721 50.7858 85.1909 50.791C85.8992 50.9736 86.6493 50.9011 87.3094 50.5862C87.9695 50.2713 88.4975 49.7342 88.8008 49.0692L88.5262 48.9936C88.5588 49.6037 88.8152 50.1805 89.2464 50.6137C89.6777 51.0469 90.2535 51.3062 90.864 51.3421C91.4744 51.378 92.0767 51.188 92.5559 50.8083C93.035 50.4287 93.3573 49.886 93.4614 49.2839L93.2106 49.3515C93.6456 49.8607 94.2285 50.222 94.8783 50.3854C94.9163 50.3959 94.9569 50.391 94.9912 50.3716C95.0256 50.3522 95.0508 50.32 95.0613 50.282C95.0719 50.244 95.0669 50.2034 95.0475 50.1691C95.0281 50.1348 94.9959 50.1096 94.9579 50.0991V50.0951Z" fill="black"/>
</g>
<path opacity="0.2" d="M97.5156 160.967L97.6868 156.879L104.218 152.863L101.683 159.889L102.371 170.077H98.9166L97.5156 160.967Z" fill="black"/>
<path d="M149.423 73.0159C148.476 73.2306 147.485 76.543 147.485 76.543C147.409 76.2487 149.308 70.5545 148.679 70.1807C148.229 69.9063 147.616 70.0773 147.178 70.9203C146.844 71.5685 145.169 76.0897 145.109 76.3164C145.109 76.3164 146.215 72.5666 146.653 70.7493C146.848 69.954 146.474 69.5842 146.295 69.5564C145.602 69.4649 144.93 71.1231 144.93 71.1231C144.93 71.1231 145.021 69.8745 144.054 70.5266C143.087 71.1788 140.492 78.0819 139.855 78.6227C139.218 79.1635 138.617 78.07 138.096 77.0957C137.575 76.1215 136.289 74.5707 136.285 76.1096C136.281 77.6485 136.902 79.243 137.033 81.3028C137.125 82.794 138.096 84.0346 138.625 84.6073L143.919 86.5716C144.556 86.0865 145.929 84.2772 146.454 83.3388C147.342 81.7482 148.36 78.3443 149.085 76.71C149.853 74.9286 150.37 72.8091 149.423 73.0159Z" fill="#FDBBB5"/>
<path d="M142.249 77.0839C142.938 77.4815 143.674 77.7758 144.387 78.1098C145.122 78.4149 145.817 78.8088 146.456 79.2829C146.603 79.4022 146.818 79.1914 146.667 79.0721C145.417 78.0542 143.793 77.6048 142.4 76.8294C142.229 76.734 142.082 76.9924 142.249 77.0839Z" fill="#D7504D"/>
<path d="M143.007 77.2348C143.544 75.1949 144.201 73.1987 144.929 71.2224C144.993 71.0434 144.706 70.9639 144.639 71.1429C143.91 73.1311 143.258 75.1193 142.72 77.1553C142.71 77.1932 142.715 77.2338 142.734 77.2681C142.753 77.3024 142.786 77.3276 142.824 77.3382C142.862 77.3487 142.902 77.3437 142.937 77.3244C142.971 77.305 142.996 77.2727 143.007 77.2348Z" fill="#D7504D"/>
<path d="M144.592 77.7555L145.212 75.8905C145.272 75.7076 144.986 75.632 144.926 75.811L144.305 77.6759C144.245 77.8589 144.532 77.9384 144.592 77.7555Z" fill="#D7504D"/>
<path d="M146.417 78.9485C146.791 78.0789 147.145 77.2001 147.48 76.3121C147.547 76.1331 147.261 76.0576 147.193 76.2365C146.867 77.0954 146.522 77.949 146.158 78.7974C146.083 78.9723 146.341 79.1234 146.417 78.9485Z" fill="#D7504D"/>
<path d="M139.932 79.3779C140.402 79.9456 140.716 80.6259 140.843 81.3517C140.97 82.0775 140.906 82.8239 140.656 83.5173C140.592 83.7003 140.879 83.7758 140.947 83.5969C141.21 82.8529 141.274 82.0534 141.135 81.2769C140.995 80.5003 140.656 79.7733 140.151 79.1671C140.027 79.02 139.816 79.2307 139.94 79.3779H139.932Z" fill="#D7504D"/>
</g>
<defs>
<clipPath id="clip0_224_5981">
<rect width="199" height="179" fill="white"/>
</clipPath>
</defs>
</svg>
