<svg width="255" height="286" viewBox="0 0 255 286" fill="none" xmlns="http://www.w3.org/2000/svg">
<path d="M63.7944 208.108C63.5746 208.108 63.3569 208.065 63.1539 207.981C62.9508 207.897 62.7664 207.773 62.6115 207.617L61.8306 206.839C61.5279 206.523 61.361 206.101 61.3657 205.663C61.3704 205.226 61.5463 204.807 61.8557 204.498C62.1651 204.188 62.5834 204.013 63.021 204.008C63.4585 204.003 63.8805 204.17 64.1965 204.473L64.9773 205.251C65.2112 205.485 65.3705 205.783 65.435 206.108C65.4995 206.432 65.4664 206.769 65.3398 207.074C65.2132 207.38 64.9988 207.641 64.7238 207.825C64.4487 208.009 64.1253 208.107 63.7944 208.108ZM55.2164 199.53C54.9967 199.53 54.7791 199.487 54.576 199.403C54.373 199.318 54.1887 199.195 54.0336 199.039L53.255 198.261C52.9413 197.947 52.7649 197.522 52.7647 197.079C52.7644 196.635 52.9404 196.21 53.2539 195.896C53.5673 195.582 53.9925 195.406 54.4359 195.406C54.8794 195.405 55.3048 195.581 55.6186 195.895L56.3994 196.676C56.6336 196.909 56.7932 197.207 56.858 197.532C56.9227 197.856 56.8896 198.193 56.7629 198.498C56.6362 198.804 56.4215 199.065 56.1462 199.249C55.8709 199.432 55.5473 199.53 55.2164 199.53ZM46.6455 190.952C46.2021 190.952 45.7766 190.777 45.4625 190.464L44.684 189.683C44.5232 189.529 44.3947 189.344 44.3062 189.14C44.2176 188.935 44.1708 188.715 44.1684 188.492C44.166 188.27 44.2081 188.049 44.2923 187.842C44.3764 187.636 44.5009 187.449 44.6584 187.291C44.8159 187.134 45.0033 187.009 45.2096 186.925C45.4158 186.841 45.6368 186.799 45.8595 186.801C46.0823 186.804 46.3023 186.85 46.5067 186.939C46.7111 187.028 46.8958 187.156 47.0499 187.317L47.8284 188.098C48.0627 188.331 48.2222 188.629 48.2869 188.954C48.3516 189.278 48.3185 189.615 48.1919 189.92C48.0652 190.226 47.8506 190.487 47.5753 190.671C47.3 190.854 46.9764 190.952 46.6455 190.952ZM38.0676 182.376C37.6239 182.376 37.1985 182.199 36.8846 181.886L36.1061 181.105C35.8033 180.789 35.6364 180.367 35.6411 179.929C35.6458 179.492 35.8217 179.073 36.1311 178.764C36.4405 178.455 36.8589 178.279 37.2964 178.274C37.734 178.269 38.156 178.436 38.4719 178.739L39.2505 179.52C39.4844 179.754 39.6436 180.052 39.7082 180.376C39.7727 180.701 39.7396 181.037 39.613 181.343C39.4864 181.649 39.272 181.91 38.9969 182.094C38.7218 182.278 38.3984 182.376 38.0676 182.376ZM29.4896 173.798C29.2702 173.798 29.053 173.755 28.8504 173.671C28.6478 173.586 28.4638 173.463 28.309 173.308L27.5281 172.527C27.3729 172.371 27.2498 172.187 27.1659 171.984C27.082 171.781 27.0389 171.564 27.039 171.344C27.0391 171.125 27.0825 170.907 27.1666 170.704C27.2507 170.502 27.374 170.317 27.5293 170.162C27.6847 170.007 27.869 169.884 28.0719 169.8C28.2748 169.716 28.4923 169.673 28.7119 169.673C28.9314 169.673 29.1489 169.716 29.3517 169.801C29.5545 169.885 29.7388 170.008 29.894 170.163L30.6725 170.942C30.9064 171.176 31.0657 171.474 31.1302 171.798C31.1948 172.123 31.1616 172.459 31.035 172.765C30.9084 173.071 30.694 173.332 30.419 173.516C30.1439 173.7 29.8204 173.798 29.4896 173.798ZM20.914 165.22C20.6942 165.221 20.4764 165.178 20.2733 165.094C20.0702 165.009 19.8859 164.886 19.731 164.73L18.9502 163.951C18.6558 163.634 18.4959 163.215 18.5039 162.782C18.5119 162.349 18.6872 161.937 18.9931 161.631C19.299 161.324 19.7116 161.149 20.1443 161.14C20.577 161.132 20.9961 161.291 21.3137 161.585L22.0946 162.364C22.3285 162.598 22.4877 162.896 22.5523 163.22C22.6168 163.545 22.5836 163.881 22.457 164.187C22.3304 164.493 22.116 164.754 21.841 164.938C21.5659 165.122 21.2425 165.22 20.9117 165.22H20.914ZM13.0774 156.063C12.7537 156.063 12.4371 155.969 12.1658 155.792C11.8944 155.616 11.68 155.364 11.5482 155.069C11.3832 154.695 11.2275 154.306 11.0834 153.921C10.947 153.505 10.9789 153.052 11.1722 152.66C11.3656 152.267 11.705 151.966 12.1177 151.821C12.5305 151.675 12.9837 151.698 13.3803 151.882C13.7769 152.067 14.0853 152.4 14.2394 152.81C14.3463 153.112 14.4718 153.416 14.5973 153.712C14.7103 153.966 14.7579 154.245 14.7358 154.523C14.7137 154.801 14.6225 155.069 14.4706 155.302C14.3187 155.536 14.1109 155.728 13.866 155.861C13.621 155.994 13.3468 156.063 13.0681 156.063H13.0774ZM13.2238 144.304C12.976 144.304 12.7314 144.249 12.508 144.141C12.3095 144.047 12.1315 143.915 11.9842 143.752C11.8368 143.589 11.7231 143.398 11.6495 143.191C11.5759 142.984 11.5438 142.765 11.5552 142.545C11.5665 142.326 11.621 142.111 11.7155 141.913C11.8921 141.543 12.0827 141.176 12.2872 140.82C12.3947 140.626 12.5399 140.455 12.7142 140.317C12.8884 140.18 13.0884 140.078 13.3023 140.019C13.5162 139.959 13.7399 139.943 13.9603 139.97C14.1806 139.998 14.3932 140.069 14.5857 140.18C14.7782 140.291 14.9467 140.439 15.0815 140.615C15.2162 140.792 15.3144 140.993 15.3704 141.208C15.4265 141.423 15.4392 141.647 15.4078 141.867C15.3764 142.087 15.3015 142.298 15.1876 142.489C15.0272 142.768 14.8762 143.058 14.7367 143.349C14.6003 143.636 14.3849 143.878 14.1157 144.047C13.8465 144.217 13.5347 144.306 13.2168 144.304H13.2238ZM21.1627 135.219C20.8318 135.219 20.5084 135.121 20.2333 134.937C19.9582 134.753 19.7438 134.492 19.6172 134.186C19.4906 133.881 19.4575 133.544 19.522 133.22C19.5865 132.895 19.7458 132.597 19.9797 132.363L20.7606 131.582C20.9124 131.412 21.0973 131.275 21.304 131.179C21.5107 131.083 21.7349 131.03 21.9628 131.024C22.1907 131.017 22.4174 131.058 22.6291 131.142C22.8409 131.227 23.0331 131.353 23.1941 131.515C23.355 131.676 23.4813 131.869 23.5652 132.081C23.649 132.293 23.6886 132.52 23.6816 132.748C23.6747 132.975 23.6212 133.199 23.5245 133.406C23.4279 133.612 23.29 133.797 23.1195 133.948L22.3386 134.729C22.1834 134.885 21.999 135.008 21.796 135.092C21.593 135.176 21.3754 135.219 21.1557 135.219H21.1627ZM29.7406 126.641C29.4097 126.641 29.0863 126.543 28.8113 126.359C28.5362 126.175 28.3218 125.914 28.1952 125.608C28.0686 125.303 28.0354 124.966 28.0999 124.642C28.1645 124.317 28.3237 124.019 28.5576 123.785L29.3385 123.007C29.4937 122.851 29.678 122.728 29.8808 122.644C30.0836 122.56 30.3011 122.516 30.5206 122.516C30.7402 122.516 30.9577 122.559 31.1606 122.643C31.3635 122.727 31.5479 122.85 31.7032 123.005C31.8586 123.161 31.9818 123.345 32.066 123.548C32.1501 123.751 32.1934 123.968 32.1935 124.188C32.1936 124.407 32.1505 124.625 32.0666 124.827C31.9827 125.03 31.8596 125.215 31.7044 125.37L30.9235 126.151C30.7674 126.307 30.5818 126.431 30.3776 126.515C30.1734 126.599 29.9545 126.642 29.7336 126.641H29.7406ZM38.3185 118.063C37.9877 118.063 37.6643 117.965 37.3892 117.781C37.1141 117.597 36.8997 117.336 36.7731 117.03C36.6465 116.725 36.6134 116.388 36.6779 116.064C36.7424 115.739 36.9017 115.441 37.1356 115.207L37.9165 114.429C38.2324 114.126 38.6544 113.959 39.092 113.964C39.5295 113.968 39.9478 114.144 40.2572 114.454C40.5666 114.763 40.7426 115.181 40.7473 115.619C40.752 116.057 40.5851 116.479 40.2824 116.795L39.5015 117.573C39.3455 117.73 39.16 117.854 38.9558 117.938C38.7515 118.022 38.5325 118.065 38.3115 118.063H38.3185ZM46.8965 109.485C46.5656 109.485 46.2422 109.387 45.9671 109.203C45.6921 109.019 45.4777 108.758 45.3511 108.452C45.2245 108.147 45.1913 107.81 45.2558 107.486C45.3204 107.161 45.4797 106.863 45.7136 106.629L46.4921 105.851C46.8081 105.548 47.23 105.381 47.6676 105.386C48.1051 105.39 48.5235 105.566 48.8329 105.876C49.1423 106.185 49.3182 106.603 49.3229 107.041C49.3276 107.479 49.1607 107.901 48.858 108.217L48.0794 108.995C47.9235 109.152 47.738 109.276 47.5337 109.36C47.3295 109.444 47.1105 109.487 46.8895 109.485H46.8965ZM55.4768 100.908C55.1464 100.907 54.8235 100.809 54.549 100.625C54.2744 100.441 54.0604 100.18 53.9339 99.8749C53.8074 99.5697 53.774 99.2339 53.8381 98.9098C53.9022 98.5857 54.0607 98.2878 54.2938 98.0536L55.0724 97.2728C55.2265 97.1119 55.4111 96.9834 55.6155 96.8949C55.8199 96.8064 56.04 96.7595 56.2627 96.7571C56.4855 96.7547 56.7065 96.7969 56.9127 96.881C57.119 96.9651 57.3064 97.0896 57.4639 97.2471C57.6214 97.4046 57.7459 97.592 57.83 97.7983C57.9141 98.0045 57.9562 98.2255 57.9539 98.4483C57.9515 98.671 57.9046 98.891 57.8161 99.0954C57.7276 99.2998 57.5991 99.4845 57.4382 99.6386L56.6597 100.417C56.5046 100.573 56.3202 100.696 56.1172 100.78C55.9142 100.865 55.6965 100.908 55.4768 100.908ZM64.0547 92.3296C63.7238 92.3301 63.4002 92.2324 63.1249 92.0488C62.8496 91.8653 62.635 91.6041 62.5083 91.2984C62.3816 90.9928 62.3485 90.6563 62.4132 90.3318C62.4779 90.0074 62.6376 89.7094 62.8718 89.4757L63.1321 89.2131C63.448 88.9103 63.87 88.7435 64.3076 88.7481C64.7451 88.7528 65.1634 88.9287 65.4728 89.2381C65.7822 89.5476 65.9582 89.9659 65.9629 90.4034C65.9676 90.841 65.8007 91.2629 65.498 91.5789L65.2353 91.8415C65.0793 91.9978 64.8937 92.1214 64.6894 92.2051C64.4851 92.2889 64.2662 92.3312 64.0454 92.3296H64.0547Z" fill="#666666"/>
<g filter="url(#filter0_d_17098_2420)">
<path d="M119.904 258.936C117.762 258.939 115.641 258.52 113.662 257.701C111.683 256.883 109.886 255.682 108.372 254.167L62.2168 208.012L65.3705 204.859L111.528 251.014C113.75 253.233 116.763 254.48 119.904 254.48C123.045 254.48 126.057 253.233 128.279 251.014L222.244 157.049C224.464 154.827 225.711 151.814 225.711 148.672C225.711 145.531 224.464 142.518 222.244 140.295L128.279 46.3327C126.057 44.1132 123.045 42.8664 119.904 42.8664C116.763 42.8664 113.75 44.1132 111.528 46.3327L65.8841 91.9765L62.7281 88.8228L108.372 43.1791C109.886 41.6641 111.683 40.4623 113.662 39.6424C115.64 38.8224 117.761 38.4004 119.902 38.4004C122.044 38.4004 124.165 38.8224 126.143 39.6424C128.122 40.4623 129.919 41.6641 131.433 43.1791L225.4 137.144C228.458 140.202 230.176 144.35 230.176 148.674C230.176 152.999 228.458 157.147 225.4 160.205L131.433 254.17C129.92 255.684 128.122 256.885 126.144 257.703C124.165 258.521 122.045 258.94 119.904 258.936Z" fill="#666666"/>
</g>
<g filter="url(#filter1_d_17098_2420)">
<path d="M109.53 240.103L28.4705 159.048C27.1084 157.686 26.0278 156.069 25.2906 154.29C24.5533 152.51 24.1738 150.603 24.1738 148.677C24.1738 146.751 24.5533 144.843 25.2906 143.064C26.0278 141.285 27.1084 139.668 28.4705 138.306L109.53 57.2442C112.281 54.4941 116.012 52.9492 119.902 52.9492C123.792 52.9492 127.523 54.4941 130.274 57.2442L211.334 138.306C212.696 139.668 213.776 141.285 214.514 143.064C215.251 144.843 215.63 146.751 215.63 148.677C215.63 150.603 215.251 152.51 214.514 154.29C213.776 156.069 212.696 157.686 211.334 159.048L130.274 240.107C128.912 241.469 127.295 242.549 125.515 243.286C123.735 244.023 121.827 244.402 119.901 244.402C117.975 244.401 116.067 244.021 114.288 243.284C112.508 242.546 110.892 241.465 109.53 240.103Z" fill="white"/>
</g>
<g filter="url(#filter2_d_17098_2420)">
<path d="M106.282 232.796L35.1669 161.681C33.3729 159.889 31.9497 157.762 30.9787 155.419C30.0076 153.077 29.5078 150.567 29.5078 148.032C29.5078 145.496 30.0076 142.986 30.9787 140.644C31.9497 138.302 33.3729 136.174 35.1669 134.383L106.282 66.3331C108.074 64.5405 110.202 63.1185 112.545 62.1483C114.887 61.1781 117.397 60.6787 119.932 60.6787C122.467 60.6787 124.977 61.1781 127.319 62.1483C129.662 63.1185 131.79 64.5405 133.582 66.3331L204.697 134.383C206.491 136.174 207.914 138.302 208.885 140.644C209.856 142.986 210.356 145.496 210.356 148.032C210.356 150.567 209.856 153.077 208.885 155.419C207.914 157.762 206.491 159.889 204.697 161.681L133.582 232.796C131.79 234.588 129.662 236.01 127.319 236.98C124.977 237.951 122.467 238.45 119.932 238.45C117.397 238.45 114.887 237.951 112.545 236.98C110.202 236.01 108.074 234.588 106.282 232.796Z" fill="white"/>
</g>
<g filter="url(#filter3_d_17098_2420)">
<path d="M141.975 75.6549C154.429 63.2001 154.429 43.0069 141.975 30.5521C129.52 18.0973 109.327 18.0973 96.8718 30.5521C84.417 43.0069 84.4169 63.2001 96.8717 75.6549C109.327 88.1097 129.52 88.1097 141.975 75.6549Z" fill="#666666"/>
</g>
<path d="M130.91 62.2475C131.216 62.2475 131.465 62.496 131.465 62.8027V63.3139C131.465 63.7851 131.083 64.1671 130.612 64.1671H117.921C117.449 64.1671 117.068 63.7851 117.068 63.3139V62.8026C117.068 62.496 117.316 62.2475 117.623 62.2475V62.2475C117.887 62.2475 118.108 62.0582 118.208 61.8142C118.568 60.9425 119.427 60.3278 120.427 60.3278H128.105C129.106 60.3278 129.964 60.9425 130.324 61.8142C130.425 62.0582 130.646 62.2475 130.91 62.2475V62.2475ZM121.731 43.1187C122.064 42.7855 122.064 42.2453 121.731 41.9121L121.581 41.7625C121.248 41.4293 120.708 41.4293 120.375 41.7625L114.008 48.1289C113.675 48.4621 113.675 49.0023 114.008 49.3355L114.158 49.4851C114.491 49.8183 115.031 49.8183 115.364 49.4851L121.731 43.1187ZM120.553 53.9128C120.886 54.246 121.426 54.246 121.76 53.9128L126.188 49.4842C126.521 49.1511 126.521 48.6109 126.188 48.2777L123.34 45.43C123.007 45.0968 122.467 45.0968 122.134 45.43L117.705 49.8585C117.372 50.1917 117.372 50.7319 117.705 51.0651L117.856 51.2157C118.189 51.5489 118.189 52.0891 117.856 52.4223L109.054 61.2238C108.721 61.557 108.721 62.0972 109.054 62.4303L109.205 62.581C109.538 62.9141 110.078 62.9141 110.412 62.581L119.213 53.7795C119.546 53.4463 120.087 53.4463 120.42 53.7795L120.553 53.9128ZM122.313 57.6407C122.647 57.9739 123.187 57.9739 123.52 57.6407L129.886 51.2743C130.219 50.9411 130.219 50.401 129.885 50.0678L129.735 49.9172C129.402 49.584 128.861 49.584 128.528 49.9172L122.163 56.2836C121.83 56.6168 121.83 57.1569 122.163 57.4901L122.313 57.6407Z" fill="white"/>
<defs>
<filter id="filter0_d_17098_2420" x="38.3394" y="17.7066" width="215.714" height="268.291" filterUnits="userSpaceOnUse" color-interpolation-filters="sRGB">
<feFlood flood-opacity="0" result="BackgroundImageFix"/>
<feColorMatrix in="SourceAlpha" type="matrix" values="0 0 0 0 0 0 0 0 0 0 0 0 0 0 0 0 0 0 127 0" result="hardAlpha"/>
<feOffset dy="3.18366"/>
<feGaussianBlur stdDeviation="11.9387"/>
<feComposite in2="hardAlpha" operator="out"/>
<feColorMatrix type="matrix" values="0 0 0 0 0 0 0 0 0 0 0 0 0 0 0 0 0 0 0.15 0"/>
<feBlend mode="normal" in2="BackgroundImageFix" result="effect1_dropShadow_17098_2420"/>
<feBlend mode="normal" in="SourceGraphic" in2="effect1_dropShadow_17098_2420" result="shape"/>
</filter>
<filter id="filter1_d_17098_2420" x="0.296389" y="32.2554" width="239.211" height="239.207" filterUnits="userSpaceOnUse" color-interpolation-filters="sRGB">
<feFlood flood-opacity="0" result="BackgroundImageFix"/>
<feColorMatrix in="SourceAlpha" type="matrix" values="0 0 0 0 0 0 0 0 0 0 0 0 0 0 0 0 0 0 127 0" result="hardAlpha"/>
<feOffset dy="3.18366"/>
<feGaussianBlur stdDeviation="11.9387"/>
<feComposite in2="hardAlpha" operator="out"/>
<feColorMatrix type="matrix" values="0 0 0 0 0 0 0 0 0 0 0 0 0 0 0 0 0 0 0.15 0"/>
<feBlend mode="normal" in2="BackgroundImageFix" result="effect1_dropShadow_17098_2420"/>
<feBlend mode="normal" in="SourceGraphic" in2="effect1_dropShadow_17098_2420" result="shape"/>
</filter>
<filter id="filter2_d_17098_2420" x="5.63037" y="39.9849" width="228.604" height="225.526" filterUnits="userSpaceOnUse" color-interpolation-filters="sRGB">
<feFlood flood-opacity="0" result="BackgroundImageFix"/>
<feColorMatrix in="SourceAlpha" type="matrix" values="0 0 0 0 0 0 0 0 0 0 0 0 0 0 0 0 0 0 127 0" result="hardAlpha"/>
<feOffset dy="3.18366"/>
<feGaussianBlur stdDeviation="11.9387"/>
<feComposite in2="hardAlpha" operator="out"/>
<feColorMatrix type="matrix" values="0 0 0 0 0 0 0 0 0 0 0 0 0 0 0 0 0 0 0.15 0"/>
<feBlend mode="normal" in2="BackgroundImageFix" result="effect1_dropShadow_17098_2420"/>
<feBlend mode="normal" in="SourceGraphic" in2="effect1_dropShadow_17098_2420" result="shape"/>
</filter>
<filter id="filter3_d_17098_2420" x="63.6528" y="0.517157" width="111.54" height="111.54" filterUnits="userSpaceOnUse" color-interpolation-filters="sRGB">
<feFlood flood-opacity="0" result="BackgroundImageFix"/>
<feColorMatrix in="SourceAlpha" type="matrix" values="0 0 0 0 0 0 0 0 0 0 0 0 0 0 0 0 0 0 127 0" result="hardAlpha"/>
<feOffset dy="3.18366"/>
<feGaussianBlur stdDeviation="11.9387"/>
<feComposite in2="hardAlpha" operator="out"/>
<feColorMatrix type="matrix" values="0 0 0 0 0 0 0 0 0 0 0 0 0 0 0 0 0 0 0.15 0"/>
<feBlend mode="normal" in2="BackgroundImageFix" result="effect1_dropShadow_17098_2420"/>
<feBlend mode="normal" in="SourceGraphic" in2="effect1_dropShadow_17098_2420" result="shape"/>
</filter>
</defs>
</svg>
