<svg width="255" height="286" viewBox="0 0 255 286" fill="none" xmlns="http://www.w3.org/2000/svg">
<path d="M63.7944 208.108C63.5746 208.109 63.3569 208.066 63.1539 207.982C62.9508 207.898 62.7664 207.774 62.6115 207.618L61.8306 206.84C61.5279 206.524 61.361 206.102 61.3657 205.664C61.3704 205.227 61.5463 204.808 61.8557 204.499C62.1651 204.189 62.5834 204.013 63.021 204.009C63.4585 204.004 63.8805 204.171 64.1965 204.474L64.9773 205.252C65.2112 205.486 65.3705 205.784 65.435 206.109C65.4995 206.433 65.4664 206.77 65.3398 207.075C65.2132 207.381 64.9988 207.642 64.7238 207.826C64.4487 208.01 64.1253 208.108 63.7944 208.108ZM55.2164 199.531C54.9967 199.531 54.7791 199.488 54.576 199.404C54.373 199.319 54.1887 199.196 54.0336 199.04L53.255 198.262C52.9413 197.948 52.7649 197.523 52.7647 197.08C52.7644 196.636 52.9404 196.211 53.2539 195.897C53.5673 195.583 53.9925 195.407 54.4359 195.407C54.8794 195.406 55.3048 195.582 55.6186 195.896L56.3994 196.677C56.6336 196.91 56.7932 197.208 56.858 197.533C56.9227 197.857 56.8896 198.194 56.7629 198.499C56.6362 198.805 56.4215 199.066 56.1462 199.25C55.8709 199.433 55.5473 199.531 55.2164 199.531ZM46.6455 190.953C46.2021 190.953 45.7766 190.778 45.4625 190.465L44.684 189.684C44.5232 189.53 44.3947 189.345 44.3062 189.141C44.2176 188.936 44.1708 188.716 44.1684 188.493C44.166 188.271 44.2081 188.05 44.2923 187.843C44.3764 187.637 44.5009 187.45 44.6584 187.292C44.8159 187.135 45.0033 187.01 45.2096 186.926C45.4158 186.842 45.6368 186.8 45.8595 186.802C46.0823 186.805 46.3023 186.851 46.5067 186.94C46.7111 187.029 46.8958 187.157 47.0499 187.318L47.8284 188.099C48.0627 188.332 48.2222 188.63 48.2869 188.955C48.3516 189.279 48.3185 189.616 48.1919 189.921C48.0652 190.227 47.8506 190.488 47.5753 190.672C47.3 190.855 46.9764 190.953 46.6455 190.953ZM38.0676 182.377C37.6239 182.377 37.1985 182.2 36.8846 181.887L36.1061 181.106C35.8033 180.79 35.6364 180.368 35.6411 179.93C35.6458 179.493 35.8217 179.074 36.1311 178.765C36.4405 178.456 36.8589 178.28 37.2964 178.275C37.734 178.27 38.156 178.437 38.4719 178.74L39.2505 179.521C39.4844 179.755 39.6436 180.053 39.7082 180.377C39.7727 180.702 39.7396 181.038 39.613 181.344C39.4864 181.65 39.272 181.911 38.9969 182.095C38.7218 182.279 38.3984 182.377 38.0676 182.377ZM29.4896 173.799C29.2702 173.799 29.053 173.756 28.8504 173.672C28.6478 173.587 28.4638 173.464 28.309 173.309L27.5281 172.528C27.3729 172.372 27.2498 172.188 27.1659 171.985C27.082 171.782 27.0389 171.565 27.039 171.345C27.0391 171.126 27.0825 170.908 27.1666 170.705C27.2507 170.503 27.374 170.318 27.5293 170.163C27.6847 170.008 27.869 169.885 28.0719 169.801C28.2748 169.717 28.4923 169.674 28.7119 169.674C28.9314 169.674 29.1489 169.717 29.3517 169.802C29.5545 169.886 29.7388 170.009 29.894 170.164L30.6725 170.943C30.9064 171.177 31.0657 171.475 31.1302 171.799C31.1948 172.124 31.1616 172.46 31.035 172.766C30.9084 173.072 30.694 173.333 30.419 173.517C30.1439 173.701 29.8204 173.799 29.4896 173.799ZM20.914 165.221C20.6942 165.222 20.4764 165.179 20.2733 165.095C20.0702 165.01 19.8859 164.887 19.731 164.731L18.9502 163.952C18.6558 163.635 18.4959 163.216 18.5039 162.783C18.5119 162.35 18.6872 161.938 18.9931 161.631C19.299 161.325 19.7116 161.15 20.1443 161.141C20.577 161.133 20.9961 161.292 21.3137 161.586L22.0946 162.365C22.3285 162.599 22.4877 162.897 22.5523 163.221C22.6168 163.546 22.5836 163.882 22.457 164.188C22.3304 164.494 22.116 164.755 21.841 164.939C21.5659 165.123 21.2425 165.221 20.9117 165.221H20.914ZM13.0774 156.064C12.7537 156.064 12.4371 155.97 12.1658 155.793C11.8944 155.617 11.68 155.365 11.5482 155.07C11.3832 154.696 11.2275 154.307 11.0834 153.922C10.947 153.506 10.9789 153.053 11.1722 152.661C11.3656 152.268 11.705 151.967 12.1177 151.822C12.5305 151.676 12.9837 151.699 13.3803 151.883C13.7769 152.068 14.0853 152.401 14.2394 152.811C14.3463 153.113 14.4718 153.417 14.5973 153.713C14.7103 153.967 14.7579 154.246 14.7358 154.524C14.7137 154.802 14.6225 155.07 14.4706 155.303C14.3187 155.537 14.1109 155.729 13.866 155.862C13.621 155.995 13.3468 156.064 13.0681 156.064H13.0774ZM13.2238 144.305C12.976 144.305 12.7314 144.25 12.508 144.142C12.3095 144.048 12.1315 143.916 11.9842 143.753C11.8368 143.59 11.7231 143.399 11.6495 143.192C11.5759 142.985 11.5438 142.766 11.5552 142.546C11.5665 142.327 11.621 142.112 11.7155 141.913C11.8921 141.544 12.0827 141.177 12.2872 140.821C12.3947 140.627 12.5399 140.456 12.7142 140.318C12.8884 140.181 13.0884 140.079 13.3023 140.019C13.5162 139.96 13.7399 139.943 13.9603 139.971C14.1806 139.999 14.3932 140.07 14.5857 140.181C14.7782 140.292 14.9467 140.44 15.0815 140.616C15.2162 140.793 15.3144 140.994 15.3704 141.209C15.4265 141.424 15.4392 141.648 15.4078 141.868C15.3764 142.088 15.3015 142.299 15.1876 142.49C15.0272 142.769 14.8762 143.059 14.7367 143.35C14.6003 143.637 14.3849 143.879 14.1157 144.048C13.8465 144.218 13.5347 144.307 13.2168 144.305H13.2238ZM21.1627 135.22C20.8318 135.22 20.5084 135.122 20.2333 134.938C19.9582 134.754 19.7438 134.493 19.6172 134.187C19.4906 133.882 19.4575 133.545 19.522 133.221C19.5865 132.896 19.7458 132.598 19.9797 132.364L20.7606 131.583C20.9124 131.413 21.0973 131.276 21.304 131.18C21.5107 131.084 21.7349 131.031 21.9628 131.025C22.1907 131.018 22.4174 131.059 22.6291 131.143C22.8409 131.228 23.0331 131.354 23.1941 131.516C23.355 131.677 23.4813 131.87 23.5652 132.082C23.649 132.294 23.6886 132.521 23.6816 132.749C23.6747 132.976 23.6212 133.2 23.5245 133.407C23.4279 133.613 23.29 133.798 23.1195 133.949L22.3386 134.73C22.1834 134.886 21.999 135.009 21.796 135.093C21.593 135.177 21.3754 135.22 21.1557 135.22H21.1627ZM29.7406 126.642C29.4097 126.642 29.0863 126.544 28.8113 126.36C28.5362 126.176 28.3218 125.915 28.1952 125.609C28.0686 125.304 28.0354 124.967 28.0999 124.643C28.1645 124.318 28.3237 124.02 28.5576 123.786L29.3385 123.008C29.4937 122.852 29.678 122.729 29.8808 122.645C30.0836 122.561 30.3011 122.517 30.5206 122.517C30.7402 122.517 30.9577 122.56 31.1606 122.644C31.3635 122.728 31.5479 122.851 31.7032 123.006C31.8586 123.162 31.9818 123.346 32.066 123.549C32.1501 123.752 32.1934 123.969 32.1935 124.189C32.1936 124.408 32.1505 124.626 32.0666 124.828C31.9827 125.031 31.8596 125.216 31.7044 125.371L30.9235 126.152C30.7674 126.308 30.5818 126.432 30.3776 126.516C30.1734 126.6 29.9545 126.643 29.7336 126.642H29.7406ZM38.3185 118.064C37.9877 118.064 37.6643 117.966 37.3892 117.782C37.1141 117.598 36.8997 117.337 36.7731 117.031C36.6465 116.726 36.6134 116.389 36.6779 116.065C36.7424 115.74 36.9017 115.442 37.1356 115.208L37.9165 114.43C38.2324 114.127 38.6544 113.96 39.092 113.965C39.5295 113.969 39.9478 114.145 40.2572 114.455C40.5666 114.764 40.7426 115.182 40.7473 115.62C40.752 116.058 40.5851 116.48 40.2824 116.795L39.5015 117.574C39.3455 117.731 39.16 117.855 38.9558 117.939C38.7515 118.023 38.5325 118.066 38.3115 118.064H38.3185ZM46.8965 109.486C46.5656 109.486 46.2422 109.388 45.9671 109.204C45.6921 109.02 45.4777 108.759 45.3511 108.453C45.2245 108.148 45.1913 107.811 45.2558 107.487C45.3204 107.162 45.4797 106.864 45.7136 106.63L46.4921 105.852C46.8081 105.549 47.23 105.382 47.6676 105.387C48.1051 105.391 48.5235 105.567 48.8329 105.877C49.1423 106.186 49.3182 106.604 49.3229 107.042C49.3276 107.48 49.1607 107.902 48.858 108.218L48.0794 108.996C47.9235 109.153 47.738 109.277 47.5337 109.361C47.3295 109.445 47.1105 109.488 46.8895 109.486H46.8965ZM55.4768 100.908C55.1464 100.908 54.8235 100.81 54.549 100.626C54.2744 100.442 54.0604 100.181 53.9339 99.8759C53.8074 99.5707 53.774 99.2349 53.8381 98.9108C53.9022 98.5866 54.0607 98.2887 54.2938 98.0546L55.0724 97.2737C55.2265 97.1129 55.4111 96.9844 55.6155 96.8959C55.8199 96.8073 56.04 96.7605 56.2627 96.7581C56.4855 96.7557 56.7065 96.7978 56.9127 96.882C57.119 96.9661 57.3064 97.0906 57.4639 97.2481C57.6214 97.4056 57.7459 97.593 57.83 97.7993C57.9141 98.0055 57.9562 98.2265 57.9539 98.4492C57.9515 98.672 57.9046 98.892 57.8161 99.0964C57.7276 99.3008 57.5991 99.4855 57.4382 99.6396L56.6597 100.418C56.5046 100.574 56.3202 100.697 56.1172 100.781C55.9142 100.866 55.6965 100.909 55.4768 100.908ZM64.0547 92.3305C63.7238 92.3311 63.4002 92.2334 63.1249 92.0498C62.8496 91.8662 62.635 91.6051 62.5083 91.2994C62.3816 90.9937 62.3485 90.6573 62.4132 90.3328C62.4779 90.0083 62.6376 89.7104 62.8718 89.4767L63.1321 89.214C63.448 88.9113 63.87 88.7444 64.3076 88.7491C64.7451 88.7538 65.1634 88.9297 65.4728 89.2391C65.7822 89.5485 65.9582 89.9668 65.9629 90.4044C65.9676 90.8419 65.8007 91.2639 65.498 91.5799L65.2353 91.8425C65.0793 91.9987 64.8937 92.1223 64.6894 92.2061C64.4851 92.2899 64.2662 92.3322 64.0454 92.3305H64.0547Z" fill="#B8860B"/>
<g filter="url(#filter0_d_17098_2409)">
<path d="M119.904 258.937C117.762 258.94 115.641 258.521 113.662 257.702C111.683 256.884 109.886 255.683 108.372 254.168L62.2168 208.013L65.3705 204.86L111.528 251.015C113.75 253.234 116.763 254.481 119.904 254.481C123.045 254.481 126.057 253.234 128.279 251.015L222.244 157.05C224.464 154.828 225.711 151.815 225.711 148.673C225.711 145.532 224.464 142.519 222.244 140.296L128.279 46.3337C126.057 44.1141 123.045 42.8674 119.904 42.8674C116.763 42.8674 113.75 44.1141 111.528 46.3337L65.8841 91.9774L62.7281 88.8238L108.372 43.18C109.886 41.6651 111.683 40.4633 113.662 39.6433C115.64 38.8234 117.761 38.4014 119.902 38.4014C122.044 38.4014 124.165 38.8234 126.143 39.6433C128.122 40.4633 129.919 41.6651 131.433 43.18L225.4 137.145C228.458 140.203 230.176 144.351 230.176 148.675C230.176 153 228.458 157.148 225.4 160.206L131.433 254.171C129.92 255.685 128.122 256.886 126.144 257.704C124.165 258.522 122.045 258.941 119.904 258.937Z" fill="#B8860B"/>
</g>
<g filter="url(#filter1_d_17098_2409)">
<path d="M109.53 240.104L28.4705 159.049C27.1084 157.687 26.0278 156.07 25.2906 154.291C24.5533 152.511 24.1738 150.604 24.1738 148.678C24.1738 146.752 24.5533 144.844 25.2906 143.065C26.0278 141.285 27.1084 139.669 28.4705 138.307L109.53 57.2451C112.281 54.4951 116.012 52.9502 119.902 52.9502C123.792 52.9502 127.523 54.4951 130.274 57.2451L211.334 138.307C212.696 139.669 213.776 141.285 214.514 143.065C215.251 144.844 215.63 146.752 215.63 148.678C215.63 150.604 215.251 152.511 214.514 154.291C213.776 156.07 212.696 157.687 211.334 159.049L130.274 240.108C128.912 241.47 127.295 242.55 125.515 243.287C123.735 244.024 121.827 244.403 119.901 244.403C117.975 244.402 116.067 244.022 114.288 243.285C112.508 242.547 110.892 241.466 109.53 240.104Z" fill="white"/>
</g>
<g filter="url(#filter2_d_17098_2409)">
<path d="M106.251 232.797L35.1356 161.682C33.3416 159.89 31.9184 157.762 30.9474 155.42C29.9764 153.078 29.4766 150.568 29.4766 148.033C29.4766 145.497 29.9764 142.987 30.9474 140.645C31.9184 138.303 33.3416 136.175 35.1356 134.384L106.251 66.3341C108.043 64.5415 110.171 63.1194 112.513 62.1492C114.855 61.179 117.366 60.6797 119.901 60.6797C122.436 60.6797 124.946 61.179 127.288 62.1492C129.63 63.1194 131.758 64.5415 133.551 66.3341L204.666 134.384C206.46 136.175 207.883 138.303 208.854 140.645C209.825 142.987 210.325 145.497 210.325 148.033C210.325 150.568 209.825 153.078 208.854 155.42C207.883 157.762 206.46 159.89 204.666 161.682L133.551 232.797C131.758 234.589 129.63 236.011 127.288 236.981C124.946 237.952 122.436 238.451 119.901 238.451C117.366 238.451 114.855 237.952 112.513 236.981C110.171 236.011 108.043 234.589 106.251 232.797Z" fill="white"/>
</g>
<g filter="url(#filter3_d_17098_2409)">
<path d="M142.541 75.6559C154.996 63.2011 154.996 43.0079 142.541 30.5531C130.086 18.0983 109.893 18.0983 97.4382 30.5531C84.9834 43.0078 84.9833 63.2011 97.4381 75.6559C109.893 88.1107 130.086 88.1107 142.541 75.6559Z" fill="#B8860B"/>
</g>
<path fill-rule="evenodd" clip-rule="evenodd" d="M120.016 53.5615C120.235 53.5615 120.444 53.6484 120.599 53.8031C120.754 53.9578 120.841 54.1677 120.841 54.3864V55.2113H121.666C121.884 55.2113 122.094 55.2983 122.249 55.453C122.404 55.6077 122.49 55.8175 122.49 56.0362C122.49 56.255 122.404 56.4648 122.249 56.6195C122.094 56.7742 121.884 56.8612 121.666 56.8612H120.841V57.6861C120.841 57.9048 120.754 58.1147 120.599 58.2694C120.444 58.4241 120.235 58.511 120.016 58.511C119.797 58.511 119.587 58.4241 119.432 58.2694C119.278 58.1147 119.191 57.9048 119.191 57.6861V56.8612H118.366C118.147 56.8612 117.937 56.7742 117.783 56.6195C117.628 56.4648 117.541 56.255 117.541 56.0362C117.541 55.8175 117.628 55.6077 117.783 55.453C117.937 55.2983 118.147 55.2113 118.366 55.2113H119.191V54.3864C119.191 54.1677 119.278 53.9578 119.432 53.8031C119.587 53.6484 119.797 53.5615 120.016 53.5615Z" fill="white"/>
<path fill-rule="evenodd" clip-rule="evenodd" d="M119.957 42.0127C118.968 42.0127 118.145 42.0127 117.491 42.1007C116.801 42.1931 116.177 42.3977 115.676 42.8981C115.175 43.3996 114.97 44.0233 114.878 44.7129C114.79 45.3673 114.79 46.1922 114.79 47.1799V47.2657C112.567 47.3383 111.232 47.5979 110.305 48.5262C109.016 49.8141 109.016 51.8885 109.016 56.0361C109.016 60.1838 109.016 62.2581 110.305 63.5461C111.594 64.8341 113.667 64.8352 117.815 64.8352H122.214C126.362 64.8352 128.436 64.8352 129.724 63.5461C131.012 62.257 131.013 60.1838 131.013 56.0361C131.013 51.8885 131.013 49.8141 129.724 48.5262C128.797 47.5979 127.462 47.3383 125.239 47.2657V47.1799C125.239 46.1922 125.239 45.3673 125.151 44.714C125.058 44.0233 124.854 43.3996 124.352 42.8992C123.852 42.3977 123.228 42.1931 122.538 42.1007C121.884 42.0127 121.059 42.0127 120.072 42.0127H119.957ZM123.589 47.2393V47.2371C123.589 46.1768 123.587 45.4641 123.516 44.9329C123.447 44.4258 123.329 44.2081 123.186 44.0651C123.043 43.9221 122.826 43.8044 122.318 43.7351C121.787 43.6647 121.075 43.6625 120.014 43.6625C118.954 43.6625 118.241 43.6647 117.71 43.7362C117.203 43.8044 116.985 43.9221 116.842 44.0662C116.699 44.2103 116.582 44.4258 116.512 44.9329C116.443 45.4641 116.44 46.1768 116.44 47.2371V47.2393C116.87 47.2378 117.329 47.2371 117.815 47.2371H122.214C122.7 47.2371 123.158 47.2378 123.589 47.2393ZM124.414 56.0361C124.414 57.203 123.95 58.322 123.125 59.1471C122.3 59.9721 121.181 60.4357 120.014 60.4357C118.848 60.4357 117.729 59.9721 116.903 59.1471C116.078 58.322 115.615 57.203 115.615 56.0361C115.615 54.8693 116.078 53.7503 116.903 52.9252C117.729 52.1001 118.848 51.6366 120.014 51.6366C121.181 51.6366 122.3 52.1001 123.125 52.9252C123.95 53.7503 124.414 54.8693 124.414 56.0361Z" fill="white"/>
<defs>
<filter id="filter0_d_17098_2409" x="38.3394" y="17.7076" width="215.714" height="268.291" filterUnits="userSpaceOnUse" color-interpolation-filters="sRGB">
<feFlood flood-opacity="0" result="BackgroundImageFix"/>
<feColorMatrix in="SourceAlpha" type="matrix" values="0 0 0 0 0 0 0 0 0 0 0 0 0 0 0 0 0 0 127 0" result="hardAlpha"/>
<feOffset dy="3.18366"/>
<feGaussianBlur stdDeviation="11.9387"/>
<feComposite in2="hardAlpha" operator="out"/>
<feColorMatrix type="matrix" values="0 0 0 0 0 0 0 0 0 0 0 0 0 0 0 0 0 0 0.15 0"/>
<feBlend mode="normal" in2="BackgroundImageFix" result="effect1_dropShadow_17098_2409"/>
<feBlend mode="normal" in="SourceGraphic" in2="effect1_dropShadow_17098_2409" result="shape"/>
</filter>
<filter id="filter1_d_17098_2409" x="0.296389" y="32.2564" width="239.211" height="239.207" filterUnits="userSpaceOnUse" color-interpolation-filters="sRGB">
<feFlood flood-opacity="0" result="BackgroundImageFix"/>
<feColorMatrix in="SourceAlpha" type="matrix" values="0 0 0 0 0 0 0 0 0 0 0 0 0 0 0 0 0 0 127 0" result="hardAlpha"/>
<feOffset dy="3.18366"/>
<feGaussianBlur stdDeviation="11.9387"/>
<feComposite in2="hardAlpha" operator="out"/>
<feColorMatrix type="matrix" values="0 0 0 0 0 0 0 0 0 0 0 0 0 0 0 0 0 0 0.15 0"/>
<feBlend mode="normal" in2="BackgroundImageFix" result="effect1_dropShadow_17098_2409"/>
<feBlend mode="normal" in="SourceGraphic" in2="effect1_dropShadow_17098_2409" result="shape"/>
</filter>
<filter id="filter2_d_17098_2409" x="5.59912" y="39.9859" width="228.604" height="225.526" filterUnits="userSpaceOnUse" color-interpolation-filters="sRGB">
<feFlood flood-opacity="0" result="BackgroundImageFix"/>
<feColorMatrix in="SourceAlpha" type="matrix" values="0 0 0 0 0 0 0 0 0 0 0 0 0 0 0 0 0 0 127 0" result="hardAlpha"/>
<feOffset dy="3.18366"/>
<feGaussianBlur stdDeviation="11.9387"/>
<feComposite in2="hardAlpha" operator="out"/>
<feColorMatrix type="matrix" values="0 0 0 0 0 0 0 0 0 0 0 0 0 0 0 0 0 0 0.15 0"/>
<feBlend mode="normal" in2="BackgroundImageFix" result="effect1_dropShadow_17098_2409"/>
<feBlend mode="normal" in="SourceGraphic" in2="effect1_dropShadow_17098_2409" result="shape"/>
</filter>
<filter id="filter3_d_17098_2409" x="64.2192" y="0.518133" width="111.54" height="111.54" filterUnits="userSpaceOnUse" color-interpolation-filters="sRGB">
<feFlood flood-opacity="0" result="BackgroundImageFix"/>
<feColorMatrix in="SourceAlpha" type="matrix" values="0 0 0 0 0 0 0 0 0 0 0 0 0 0 0 0 0 0 127 0" result="hardAlpha"/>
<feOffset dy="3.18366"/>
<feGaussianBlur stdDeviation="11.9387"/>
<feComposite in2="hardAlpha" operator="out"/>
<feColorMatrix type="matrix" values="0 0 0 0 0 0 0 0 0 0 0 0 0 0 0 0 0 0 0.15 0"/>
<feBlend mode="normal" in2="BackgroundImageFix" result="effect1_dropShadow_17098_2409"/>
<feBlend mode="normal" in="SourceGraphic" in2="effect1_dropShadow_17098_2409" result="shape"/>
</filter>
</defs>
</svg>
