<svg width="255" height="287" viewBox="0 0 255 287" fill="none" xmlns="http://www.w3.org/2000/svg">
<path d="M63.7944 208.519C63.5746 208.519 63.3569 208.476 63.1539 208.392C62.9508 208.308 62.7664 208.184 62.6115 208.028L61.8306 207.25C61.5279 206.934 61.361 206.512 61.3657 206.074C61.3704 205.637 61.5463 205.218 61.8557 204.909C62.1651 204.6 62.5834 204.424 63.021 204.419C63.4585 204.414 63.8805 204.581 64.1965 204.884L64.9773 205.662C65.2112 205.896 65.3705 206.195 65.435 206.519C65.4995 206.844 65.4664 207.18 65.3398 207.486C65.2132 207.791 64.9988 208.053 64.7238 208.236C64.4487 208.42 64.1253 208.519 63.7944 208.519ZM55.2164 199.941C54.9967 199.941 54.7791 199.898 54.576 199.814C54.373 199.73 54.1887 199.606 54.0336 199.45L53.255 198.672C52.9413 198.358 52.7649 197.933 52.7647 197.49C52.7644 197.046 52.9404 196.621 53.2539 196.307C53.5673 195.993 53.9925 195.817 54.4359 195.817C54.8794 195.817 55.3048 195.993 55.6186 196.306L56.3994 197.087C56.6336 197.321 56.7932 197.618 56.858 197.943C56.9227 198.267 56.8896 198.604 56.7629 198.91C56.6362 199.215 56.4215 199.476 56.1462 199.66C55.8709 199.844 55.5473 199.941 55.2164 199.941ZM46.6455 191.363C46.2021 191.363 45.7766 191.188 45.4625 190.875L44.684 190.094C44.5232 189.94 44.3947 189.755 44.3062 189.551C44.2176 189.346 44.1708 189.126 44.1684 188.903C44.166 188.681 44.2081 188.46 44.2923 188.253C44.3764 188.047 44.5009 187.86 44.6584 187.702C44.8159 187.545 45.0033 187.42 45.2096 187.336C45.4158 187.252 45.6368 187.21 45.8595 187.212C46.0823 187.215 46.3023 187.262 46.5067 187.35C46.7111 187.439 46.8958 187.567 47.0499 187.728L47.8284 188.509C48.0627 188.743 48.2222 189.041 48.2869 189.365C48.3516 189.69 48.3185 190.026 48.1919 190.332C48.0652 190.637 47.8506 190.898 47.5753 191.082C47.3 191.266 46.9764 191.363 46.6455 191.363ZM38.0676 182.787C37.6239 182.787 37.1985 182.61 36.8846 182.297L36.1061 181.516C35.8033 181.2 35.6364 180.778 35.6411 180.34C35.6458 179.903 35.8217 179.485 36.1311 179.175C36.4405 178.866 36.8589 178.69 37.2964 178.685C37.734 178.68 38.156 178.847 38.4719 179.15L39.2505 179.931C39.4844 180.165 39.6436 180.463 39.7082 180.788C39.7727 181.112 39.7396 181.448 39.613 181.754C39.4864 182.06 39.272 182.321 38.9969 182.505C38.7218 182.689 38.3984 182.787 38.0676 182.787ZM29.4896 174.209C29.2702 174.209 29.053 174.166 28.8504 174.082C28.6478 173.998 28.4638 173.874 28.309 173.719L27.5281 172.938C27.3729 172.783 27.2498 172.598 27.1659 172.395C27.082 172.192 27.0389 171.975 27.039 171.755C27.0391 171.536 27.0825 171.318 27.1666 171.116C27.2507 170.913 27.374 170.728 27.5293 170.573C27.6847 170.418 27.869 170.295 28.0719 170.211C28.2748 170.127 28.4923 170.084 28.7119 170.084C28.9314 170.084 29.1489 170.128 29.3517 170.212C29.5545 170.296 29.7388 170.419 29.894 170.574L30.6725 171.353C30.9064 171.587 31.0657 171.885 31.1302 172.21C31.1948 172.534 31.1616 172.87 31.035 173.176C30.9084 173.482 30.694 173.743 30.419 173.927C30.1439 174.111 29.8204 174.209 29.4896 174.209ZM20.914 165.631C20.6942 165.632 20.4764 165.589 20.2733 165.505C20.0702 165.421 19.8859 165.297 19.731 165.141L18.9502 164.362C18.6558 164.045 18.4959 163.626 18.5039 163.193C18.5119 162.761 18.6872 162.348 18.9931 162.042C19.299 161.735 19.7116 161.56 20.1443 161.551C20.577 161.543 20.9961 161.702 21.3137 161.996L22.0946 162.775C22.3285 163.009 22.4877 163.307 22.5523 163.632C22.6168 163.956 22.5836 164.292 22.457 164.598C22.3304 164.904 22.116 165.165 21.841 165.349C21.5659 165.533 21.2425 165.631 20.9117 165.631H20.914ZM13.0774 156.475C12.7537 156.474 12.4371 156.38 12.1658 156.203C11.8944 156.027 11.68 155.776 11.5482 155.48C11.3832 155.106 11.2275 154.718 11.0834 154.332C10.947 153.916 10.9789 153.463 11.1722 153.071C11.3656 152.678 11.705 152.377 12.1177 152.232C12.5305 152.087 12.9837 152.109 13.3803 152.294C13.7769 152.479 14.0853 152.811 14.2394 153.221C14.3463 153.523 14.4718 153.828 14.5973 154.123C14.7103 154.377 14.7579 154.656 14.7358 154.934C14.7137 155.212 14.6225 155.48 14.4706 155.713C14.3187 155.947 14.1109 156.139 13.866 156.272C13.621 156.405 13.3468 156.475 13.0681 156.475H13.0774ZM13.2238 144.715C12.976 144.715 12.7314 144.66 12.508 144.552C12.3095 144.458 12.1315 144.326 11.9842 144.163C11.8368 144 11.7231 143.809 11.6495 143.602C11.5759 143.395 11.5438 143.176 11.5552 142.956C11.5665 142.737 11.621 142.522 11.7155 142.324C11.8921 141.954 12.0827 141.587 12.2872 141.231C12.3947 141.037 12.5399 140.866 12.7142 140.728C12.8884 140.591 13.0884 140.489 13.3023 140.43C13.5162 140.37 13.7399 140.354 13.9603 140.381C14.1806 140.409 14.3932 140.48 14.5857 140.591C14.7782 140.702 14.9467 140.85 15.0815 141.026C15.2162 141.203 15.3144 141.405 15.3704 141.619C15.4265 141.834 15.4392 142.058 15.4078 142.278C15.3764 142.498 15.3015 142.709 15.1876 142.9C15.0272 143.179 14.8762 143.469 14.7367 143.76C14.6003 144.047 14.3849 144.289 14.1157 144.459C13.8465 144.628 13.5347 144.717 13.2168 144.715H13.2238ZM21.1627 135.63C20.8318 135.63 20.5084 135.532 20.2333 135.348C19.9582 135.164 19.7438 134.903 19.6172 134.597C19.4906 134.292 19.4575 133.955 19.522 133.631C19.5865 133.306 19.7458 133.008 19.9797 132.774L20.7606 131.993C20.9124 131.823 21.0973 131.686 21.304 131.59C21.5107 131.494 21.7349 131.441 21.9628 131.435C22.1907 131.428 22.4174 131.469 22.6291 131.553C22.8409 131.638 23.0331 131.765 23.1941 131.926C23.355 132.087 23.4813 132.28 23.5652 132.492C23.649 132.704 23.6886 132.931 23.6816 133.159C23.6747 133.387 23.6212 133.611 23.5245 133.817C23.4279 134.023 23.29 134.208 23.1195 134.359L22.3386 135.14C22.1834 135.296 21.999 135.419 21.796 135.503C21.593 135.587 21.3754 135.631 21.1557 135.63H21.1627ZM29.7406 127.053C29.4097 127.052 29.0863 126.954 28.8113 126.77C28.5362 126.586 28.3218 126.325 28.1952 126.019C28.0686 125.714 28.0354 125.377 28.0999 125.053C28.1645 124.728 28.3237 124.43 28.5576 124.196L29.3385 123.418C29.4937 123.262 29.678 123.139 29.8808 123.055C30.0836 122.971 30.3011 122.928 30.5206 122.927C30.7402 122.927 30.9577 122.97 31.1606 123.054C31.3635 123.138 31.5479 123.261 31.7032 123.417C31.8586 123.572 31.9818 123.756 32.066 123.959C32.1501 124.162 32.1934 124.379 32.1935 124.599C32.1936 124.818 32.1505 125.036 32.0666 125.239C31.9827 125.442 31.8596 125.626 31.7044 125.781L30.9235 126.562C30.7674 126.718 30.5818 126.842 30.3776 126.926C30.1734 127.01 29.9545 127.053 29.7336 127.053H29.7406ZM38.3185 118.475C37.9877 118.474 37.6643 118.376 37.3892 118.192C37.1141 118.009 36.8997 117.747 36.7731 117.442C36.6465 117.136 36.6134 116.799 36.6779 116.475C36.7424 116.15 36.9017 115.852 37.1356 115.618L37.9165 114.84C38.2324 114.537 38.6544 114.37 39.092 114.375C39.5295 114.38 39.9478 114.555 40.2572 114.865C40.5666 115.174 40.7426 115.593 40.7473 116.03C40.752 116.468 40.5851 116.89 40.2824 117.206L39.5015 117.984C39.3455 118.141 39.16 118.265 38.9558 118.349C38.7515 118.433 38.5325 118.476 38.3115 118.475H38.3185ZM46.8965 109.897C46.5656 109.896 46.2422 109.798 45.9671 109.614C45.6921 109.431 45.4777 109.169 45.3511 108.864C45.2245 108.558 45.1913 108.222 45.2558 107.897C45.3204 107.572 45.4797 107.274 45.7136 107.04L46.4921 106.262C46.8081 105.959 47.23 105.792 47.6676 105.797C48.1051 105.802 48.5235 105.978 48.8329 106.287C49.1423 106.596 49.3182 107.015 49.3229 107.452C49.3276 107.89 49.1607 108.312 48.858 108.628L48.0794 109.406C47.9235 109.563 47.738 109.687 47.5337 109.771C47.3295 109.855 47.1105 109.898 46.8895 109.897H46.8965ZM55.4768 101.319C55.1464 101.318 54.8235 101.22 54.549 101.036C54.2744 100.852 54.0604 100.591 53.9339 100.286C53.8074 99.9809 53.774 99.645 53.8381 99.3209C53.9022 98.9968 54.0607 98.6989 54.2938 98.4648L55.0724 97.6839C55.2265 97.523 55.4111 97.3946 55.6155 97.306C55.8199 97.2175 56.04 97.1706 56.2627 97.1683C56.4855 97.1659 56.7065 97.208 56.9127 97.2921C57.119 97.3763 57.3064 97.5008 57.4639 97.6583C57.6214 97.8158 57.7459 98.0032 57.83 98.2094C57.9141 98.4157 57.9562 98.6366 57.9539 98.8594C57.9515 99.0821 57.9046 99.3022 57.8161 99.5066C57.7276 99.711 57.5991 99.8956 57.4382 100.05L56.6597 100.828C56.5046 100.984 56.3202 101.107 56.1172 101.192C55.9142 101.276 55.6965 101.319 55.4768 101.319ZM64.0547 92.7407C63.7238 92.7412 63.4002 92.6435 63.1249 92.46C62.8496 92.2764 62.635 92.0152 62.5083 91.7096C62.3816 91.4039 62.3485 91.0675 62.4132 90.743C62.4779 90.4185 62.6376 90.1205 62.8718 89.8868L63.1321 89.6242C63.448 89.3215 63.87 89.1546 64.3076 89.1593C64.7451 89.164 65.1634 89.3399 65.4728 89.6493C65.7822 89.9587 65.9582 90.377 65.9629 90.8145C65.9676 91.2521 65.8007 91.6741 65.498 91.99L65.2353 92.2527C65.0793 92.4089 64.8937 92.5325 64.6894 92.6163C64.4851 92.7001 64.2662 92.7424 64.0454 92.7407H64.0547Z" fill="#6CA6D1"/>
<g filter="url(#filter0_d_17098_2391)">
<path d="M119.904 259.347C117.762 259.351 115.641 258.931 113.662 258.113C111.683 257.294 109.886 256.093 108.372 254.579L62.2168 208.423L65.3705 205.27L111.528 251.425C113.75 253.644 116.763 254.891 119.904 254.891C123.045 254.891 126.057 253.644 128.279 251.425L222.244 157.46C224.464 155.238 225.711 152.225 225.711 149.083C225.711 145.942 224.464 142.929 222.244 140.706L128.279 46.7439C126.057 44.5243 123.045 43.2776 119.904 43.2776C116.763 43.2776 113.75 44.5243 111.528 46.7439L65.8841 92.3876L62.7281 89.2339L108.372 43.5902C109.886 42.0752 111.683 40.8735 113.662 40.0535C115.64 39.2336 117.761 38.8115 119.902 38.8115C122.044 38.8115 124.165 39.2336 126.143 40.0535C128.122 40.8735 129.919 42.0752 131.433 43.5902L225.4 137.555C228.458 140.613 230.176 144.761 230.176 149.086C230.176 153.41 228.458 157.558 225.4 160.616L131.433 254.581C129.92 256.096 128.122 257.296 126.144 258.114C124.165 258.932 122.045 259.352 119.904 259.347Z" fill="#6CA6D1"/>
</g>
<g filter="url(#filter1_d_17098_2391)">
<path d="M109.53 240.513L28.4705 159.458C27.1084 158.096 26.0278 156.479 25.2906 154.7C24.5533 152.92 24.1738 151.013 24.1738 149.087C24.1738 147.161 24.5533 145.254 25.2906 143.474C26.0278 141.695 27.1084 140.078 28.4705 138.716L109.53 57.6543C112.281 54.9043 116.012 53.3594 119.902 53.3594C123.792 53.3594 127.523 54.9043 130.274 57.6543L211.334 138.716C212.696 140.078 213.776 141.695 214.514 143.474C215.251 145.254 215.63 147.161 215.63 149.087C215.63 151.013 215.251 152.92 214.514 154.7C213.776 156.479 212.696 158.096 211.334 159.458L130.274 240.517C128.912 241.879 127.295 242.96 125.515 243.696C123.735 244.433 121.827 244.812 119.901 244.812C117.975 244.811 116.067 244.432 114.288 243.694C112.508 242.956 110.892 241.875 109.53 240.513Z" fill="white"/>
</g>
<g filter="url(#filter2_d_17098_2391)">
<path d="M106.251 233.207L35.1356 162.092C33.3416 160.3 31.9184 158.173 30.9474 155.831C29.9764 153.489 29.4766 150.978 29.4766 148.443C29.4766 145.907 29.9764 143.397 30.9474 141.055C31.9184 138.713 33.3416 136.585 35.1356 134.794L106.251 66.7443C108.043 64.9516 110.171 63.5296 112.513 62.5594C114.855 61.5892 117.366 61.0898 119.901 61.0898C122.436 61.0898 124.946 61.5892 127.288 62.5594C129.63 63.5296 131.758 64.9516 133.551 66.7443L204.666 134.794C206.46 136.585 207.883 138.713 208.854 141.055C209.825 143.397 210.325 145.907 210.325 148.443C210.325 150.978 209.825 153.489 208.854 155.831C207.883 158.173 206.46 160.3 204.666 162.092L133.551 233.207C131.758 234.999 129.63 236.421 127.288 237.392C124.946 238.362 122.436 238.861 119.901 238.861C117.366 238.861 114.855 238.362 112.513 237.392C110.171 236.421 108.043 234.999 106.251 233.207Z" fill="white"/>
</g>
<g filter="url(#filter3_d_17098_2391)">
<path d="M142.643 75.6559C155.097 63.2011 155.097 43.0079 142.643 30.5531C130.188 18.0983 109.995 18.0983 97.5397 30.5531C85.0849 43.0078 85.0849 63.2011 97.5397 75.6559C109.994 88.1107 130.188 88.1107 142.643 75.6559Z" fill="#6CA6D1"/>
</g>
<path d="M127.458 64.1959H125.539C123.417 64.1959 121.699 62.4778 121.699 60.3566V53.6379C121.699 51.5167 123.417 49.7986 125.539 49.7986H127.458C129.579 49.7986 131.297 51.5167 131.297 53.6379V60.3566C131.297 62.4778 129.579 64.1959 127.458 64.1959ZM119.78 54.5977H116.9L116.66 54.3193C116.295 53.8874 115.758 53.6379 115.192 53.6379H110.661C109.337 53.6379 108.262 54.7129 108.262 56.0374C108.262 57.362 109.337 58.437 110.661 58.437H119.78V54.5977ZM115.201 51.7182C116.142 51.7182 117.044 52.0637 117.745 52.678H119.876C120.336 49.9617 122.697 47.8789 125.548 47.8789H127.468C128.14 47.8789 128.783 48.0037 129.387 48.2149V45.9593C129.387 43.3102 127.237 41.1602 124.588 41.1602H114.98C112.331 41.1602 110.181 43.3102 110.181 45.9593V51.8238C110.489 51.7566 110.815 51.7182 111.141 51.7182H115.201Z" fill="white"/>
<defs>
<filter id="filter0_d_17098_2391" x="38.3394" y="18.1177" width="215.714" height="268.291" filterUnits="userSpaceOnUse" color-interpolation-filters="sRGB">
<feFlood flood-opacity="0" result="BackgroundImageFix"/>
<feColorMatrix in="SourceAlpha" type="matrix" values="0 0 0 0 0 0 0 0 0 0 0 0 0 0 0 0 0 0 127 0" result="hardAlpha"/>
<feOffset dy="3.18366"/>
<feGaussianBlur stdDeviation="11.9387"/>
<feComposite in2="hardAlpha" operator="out"/>
<feColorMatrix type="matrix" values="0 0 0 0 0 0 0 0 0 0 0 0 0 0 0 0 0 0 0.15 0"/>
<feBlend mode="normal" in2="BackgroundImageFix" result="effect1_dropShadow_17098_2391"/>
<feBlend mode="normal" in="SourceGraphic" in2="effect1_dropShadow_17098_2391" result="shape"/>
</filter>
<filter id="filter1_d_17098_2391" x="0.296389" y="32.6656" width="239.211" height="239.207" filterUnits="userSpaceOnUse" color-interpolation-filters="sRGB">
<feFlood flood-opacity="0" result="BackgroundImageFix"/>
<feColorMatrix in="SourceAlpha" type="matrix" values="0 0 0 0 0 0 0 0 0 0 0 0 0 0 0 0 0 0 127 0" result="hardAlpha"/>
<feOffset dy="3.18366"/>
<feGaussianBlur stdDeviation="11.9387"/>
<feComposite in2="hardAlpha" operator="out"/>
<feColorMatrix type="matrix" values="0 0 0 0 0 0 0 0 0 0 0 0 0 0 0 0 0 0 0.15 0"/>
<feBlend mode="normal" in2="BackgroundImageFix" result="effect1_dropShadow_17098_2391"/>
<feBlend mode="normal" in="SourceGraphic" in2="effect1_dropShadow_17098_2391" result="shape"/>
</filter>
<filter id="filter2_d_17098_2391" x="5.59912" y="40.3961" width="228.604" height="225.526" filterUnits="userSpaceOnUse" color-interpolation-filters="sRGB">
<feFlood flood-opacity="0" result="BackgroundImageFix"/>
<feColorMatrix in="SourceAlpha" type="matrix" values="0 0 0 0 0 0 0 0 0 0 0 0 0 0 0 0 0 0 127 0" result="hardAlpha"/>
<feOffset dy="3.18366"/>
<feGaussianBlur stdDeviation="11.9387"/>
<feComposite in2="hardAlpha" operator="out"/>
<feColorMatrix type="matrix" values="0 0 0 0 0 0 0 0 0 0 0 0 0 0 0 0 0 0 0.15 0"/>
<feBlend mode="normal" in2="BackgroundImageFix" result="effect1_dropShadow_17098_2391"/>
<feBlend mode="normal" in="SourceGraphic" in2="effect1_dropShadow_17098_2391" result="shape"/>
</filter>
<filter id="filter3_d_17098_2391" x="64.3208" y="0.518133" width="111.54" height="111.54" filterUnits="userSpaceOnUse" color-interpolation-filters="sRGB">
<feFlood flood-opacity="0" result="BackgroundImageFix"/>
<feColorMatrix in="SourceAlpha" type="matrix" values="0 0 0 0 0 0 0 0 0 0 0 0 0 0 0 0 0 0 127 0" result="hardAlpha"/>
<feOffset dy="3.18366"/>
<feGaussianBlur stdDeviation="11.9387"/>
<feComposite in2="hardAlpha" operator="out"/>
<feColorMatrix type="matrix" values="0 0 0 0 0 0 0 0 0 0 0 0 0 0 0 0 0 0 0.15 0"/>
<feBlend mode="normal" in2="BackgroundImageFix" result="effect1_dropShadow_17098_2391"/>
<feBlend mode="normal" in="SourceGraphic" in2="effect1_dropShadow_17098_2391" result="shape"/>
</filter>
</defs>
</svg>
