<svg width="255" height="287" viewBox="0 0 255 287" fill="none" xmlns="http://www.w3.org/2000/svg">
<path d="M63.7944 208.423C63.5746 208.424 63.3569 208.38 63.1539 208.296C62.9508 208.212 62.7664 208.088 62.6115 207.933L61.8306 207.154C61.5279 206.838 61.361 206.416 61.3657 205.979C61.3704 205.541 61.5463 205.123 61.8557 204.813C62.1651 204.504 62.5834 204.328 63.021 204.323C63.4585 204.319 63.8805 204.485 64.1965 204.788L64.9773 205.567C65.2112 205.801 65.3705 206.099 65.435 206.423C65.4995 206.748 65.4664 207.084 65.3398 207.39C65.2132 207.696 64.9988 207.957 64.7238 208.141C64.4487 208.325 64.1253 208.423 63.7944 208.423ZM55.2164 199.845C54.9967 199.845 54.7791 199.802 54.576 199.718C54.373 199.634 54.1887 199.51 54.0336 199.355L53.255 198.576C52.9413 198.263 52.7649 197.837 52.7647 197.394C52.7644 196.951 52.9404 196.525 53.2539 196.211C53.5673 195.898 53.9925 195.721 54.4359 195.721C54.8794 195.721 55.3048 195.897 55.6186 196.21L56.3994 196.991C56.6336 197.225 56.7932 197.523 56.858 197.847C56.9227 198.172 56.8896 198.508 56.7629 198.814C56.6362 199.12 56.4215 199.381 56.1462 199.564C55.8709 199.748 55.5473 199.846 55.2164 199.845ZM46.6455 191.267C46.2021 191.268 45.7766 191.092 45.4625 190.779L44.684 189.998C44.5232 189.844 44.3947 189.659 44.3062 189.455C44.2176 189.251 44.1708 189.031 44.1684 188.808C44.166 188.585 44.2081 188.364 44.2923 188.158C44.3764 187.952 44.5009 187.764 44.6584 187.607C44.8159 187.449 45.0033 187.325 45.2096 187.241C45.4158 187.156 45.6368 187.114 45.8595 187.117C46.0823 187.119 46.3023 187.166 46.5067 187.254C46.7111 187.343 46.8958 187.471 47.0499 187.632L47.8284 188.413C48.0627 188.647 48.2222 188.945 48.2869 189.269C48.3516 189.594 48.3185 189.93 48.1919 190.236C48.0652 190.542 47.8506 190.803 47.5753 190.986C47.3 191.17 46.9764 191.268 46.6455 191.267ZM38.0676 182.691C37.6239 182.691 37.1985 182.515 36.8846 182.201L36.1061 181.42C35.8033 181.104 35.6364 180.682 35.6411 180.245C35.6458 179.807 35.8217 179.389 36.1311 179.079C36.4405 178.77 36.8589 178.594 37.2964 178.589C37.734 178.585 38.156 178.752 38.4719 179.054L39.2505 179.835C39.4844 180.069 39.6436 180.367 39.7082 180.692C39.7727 181.016 39.7396 181.353 39.613 181.658C39.4864 181.964 39.272 182.225 38.9969 182.409C38.7218 182.593 38.3984 182.691 38.0676 182.691ZM29.4896 174.113C29.2702 174.113 29.053 174.07 28.8504 173.986C28.6478 173.902 28.4638 173.779 28.309 173.623L27.5281 172.842C27.3729 172.687 27.2498 172.502 27.1659 172.3C27.082 172.097 27.0389 171.879 27.039 171.66C27.0391 171.44 27.0825 171.223 27.1666 171.02C27.2507 170.817 27.374 170.633 27.5293 170.478C27.6847 170.322 27.869 170.199 28.0719 170.115C28.2748 170.031 28.4923 169.988 28.7119 169.988C28.9314 169.988 29.1489 170.032 29.3517 170.116C29.5545 170.2 29.7388 170.323 29.894 170.479L30.6725 171.257C30.9064 171.491 31.0657 171.789 31.1302 172.114C31.1948 172.438 31.1616 172.775 31.035 173.08C30.9084 173.386 30.694 173.647 30.419 173.831C30.1439 174.015 29.8204 174.113 29.4896 174.113ZM20.914 165.536C20.6942 165.536 20.4764 165.493 20.2733 165.409C20.0702 165.325 19.8859 165.201 19.731 165.045L18.9502 164.267C18.6558 163.949 18.4959 163.53 18.5039 163.098C18.5119 162.665 18.6872 162.252 18.9931 161.946C19.299 161.64 19.7116 161.464 20.1443 161.456C20.577 161.447 20.9961 161.607 21.3137 161.901L22.0946 162.679C22.3285 162.913 22.4877 163.211 22.5523 163.536C22.6168 163.86 22.5836 164.197 22.457 164.502C22.3304 164.808 22.116 165.069 21.841 165.253C21.5659 165.437 21.2425 165.535 20.9117 165.536H20.914ZM13.0774 156.379C12.7537 156.378 12.4371 156.284 12.1658 156.108C11.8944 155.931 11.68 155.68 11.5482 155.384C11.3832 155.01 11.2275 154.622 11.0834 154.236C10.947 153.82 10.9789 153.368 11.1722 152.975C11.3656 152.583 11.705 152.281 12.1177 152.136C12.5305 151.991 12.9837 152.013 13.3803 152.198C13.7769 152.383 14.0853 152.716 14.2394 153.125C14.3463 153.427 14.4718 153.732 14.5973 154.027C14.7103 154.282 14.7579 154.561 14.7358 154.838C14.7137 155.116 14.6225 155.384 14.4706 155.618C14.3187 155.851 14.1109 156.043 13.866 156.176C13.621 156.309 13.3468 156.379 13.0681 156.379H13.0774ZM13.2238 144.619C12.976 144.62 12.7314 144.564 12.508 144.457C12.3095 144.363 12.1315 144.23 11.9842 144.067C11.8368 143.904 11.7231 143.714 11.6495 143.507C11.5759 143.3 11.5438 143.08 11.5552 142.861C11.5665 142.641 11.621 142.426 11.7155 142.228C11.8921 141.858 12.0827 141.491 12.2872 141.136C12.3947 140.941 12.5399 140.77 12.7142 140.633C12.8884 140.495 13.0884 140.394 13.3023 140.334C13.5162 140.274 13.7399 140.258 13.9603 140.286C14.1806 140.313 14.3932 140.385 14.5857 140.495C14.7782 140.606 14.9467 140.754 15.0815 140.931C15.2162 141.107 15.3144 141.309 15.3704 141.524C15.4265 141.739 15.4392 141.963 15.4078 142.182C15.3764 142.402 15.3015 142.614 15.1876 142.804C15.0272 143.083 14.8762 143.374 14.7367 143.664C14.6003 143.951 14.3849 144.194 14.1157 144.363C13.8465 144.532 13.5347 144.621 13.2168 144.619H13.2238ZM21.1627 135.535C20.8318 135.535 20.5084 135.436 20.2333 135.253C19.9582 135.069 19.7438 134.807 19.6172 134.502C19.4906 134.196 19.4575 133.86 19.522 133.535C19.5865 133.211 19.7458 132.913 19.9797 132.679L20.7606 131.898C20.9124 131.728 21.0973 131.59 21.304 131.494C21.5107 131.398 21.7349 131.345 21.9628 131.339C22.1907 131.333 22.4174 131.373 22.6291 131.458C22.8409 131.542 23.0331 131.669 23.1941 131.83C23.355 131.992 23.4813 132.184 23.5652 132.396C23.649 132.608 23.6886 132.835 23.6816 133.063C23.6747 133.291 23.6212 133.515 23.5245 133.721C23.4279 133.928 23.29 134.112 23.1195 134.264L22.3386 135.044C22.1834 135.2 21.999 135.323 21.796 135.408C21.593 135.492 21.3754 135.535 21.1557 135.535H21.1627ZM29.7406 126.957C29.4097 126.957 29.0863 126.858 28.8113 126.675C28.5362 126.491 28.3218 126.229 28.1952 125.924C28.0686 125.618 28.0354 125.282 28.0999 124.957C28.1645 124.633 28.3237 124.335 28.5576 124.101L29.3385 123.322C29.4937 123.167 29.678 123.043 29.8808 122.959C30.0836 122.875 30.3011 122.832 30.5206 122.832C30.7402 122.832 30.9577 122.875 31.1606 122.959C31.3635 123.043 31.5479 123.166 31.7032 123.321C31.8586 123.476 31.9818 123.66 32.066 123.863C32.1501 124.066 32.1934 124.283 32.1935 124.503C32.1936 124.723 32.1505 124.94 32.0666 125.143C31.9827 125.346 31.8596 125.53 31.7044 125.686L30.9235 126.466C30.7674 126.623 30.5818 126.746 30.3776 126.831C30.1734 126.915 29.9545 126.958 29.7336 126.957H29.7406ZM38.3185 118.379C37.9877 118.379 37.6643 118.281 37.3892 118.097C37.1141 117.913 36.8997 117.652 36.7731 117.346C36.6465 117.04 36.6134 116.704 36.6779 116.379C36.7424 116.055 36.9017 115.757 37.1356 115.523L37.9165 114.744C38.2324 114.441 38.6544 114.274 39.092 114.279C39.5295 114.284 39.9478 114.46 40.2572 114.769C40.5666 115.079 40.7426 115.497 40.7473 115.934C40.752 116.372 40.5851 116.794 40.2824 117.11L39.5015 117.888C39.3455 118.045 39.16 118.169 38.9558 118.253C38.7515 118.337 38.5325 118.38 38.3115 118.379H38.3185ZM46.8965 109.801C46.5656 109.801 46.2422 109.703 45.9671 109.519C45.6921 109.335 45.4777 109.074 45.3511 108.768C45.2245 108.462 45.1913 108.126 45.2558 107.801C45.3204 107.477 45.4797 107.179 45.7136 106.945L46.4921 106.166C46.8081 105.863 47.23 105.697 47.6676 105.701C48.1051 105.706 48.5235 105.882 48.8329 106.191C49.1423 106.501 49.3182 106.919 49.3229 107.356C49.3276 107.794 49.1607 108.216 48.858 108.532L48.0794 109.311C47.9235 109.467 47.738 109.591 47.5337 109.675C47.3295 109.759 47.1105 109.802 46.8895 109.801H46.8965ZM55.4768 101.223C55.1464 101.222 54.8235 101.124 54.549 100.94C54.2744 100.757 54.0604 100.496 53.9339 100.19C53.8074 99.8852 53.774 99.5493 53.8381 99.2252C53.9022 98.9011 54.0607 98.6032 54.2938 98.3691L55.0724 97.5882C55.2265 97.4273 55.4111 97.2989 55.6155 97.2103C55.8199 97.1218 56.04 97.0749 56.2627 97.0726C56.4855 97.0702 56.7065 97.1123 56.9127 97.1964C57.119 97.2806 57.3064 97.4051 57.4639 97.5626C57.6214 97.7201 57.7459 97.9075 57.83 98.1137C57.9141 98.32 57.9562 98.5409 57.9539 98.7637C57.9515 98.9864 57.9046 99.2065 57.8161 99.4109C57.7276 99.6153 57.5991 99.7999 57.4382 99.954L56.6597 100.733C56.5046 100.888 56.3202 101.012 56.1172 101.096C55.9142 101.18 55.6965 101.223 55.4768 101.223ZM64.0547 92.645C63.7238 92.6455 63.4002 92.5478 63.1249 92.3643C62.8496 92.1807 62.635 91.9195 62.5083 91.6139C62.3816 91.3082 62.3485 90.9718 62.4132 90.6473C62.4779 90.3228 62.6376 90.0248 62.8718 89.7911L63.1321 89.5285C63.448 89.2258 63.87 89.0589 64.3076 89.0636C64.7451 89.0683 65.1634 89.2442 65.4728 89.5536C65.7822 89.863 65.9582 90.2813 65.9629 90.7188C65.9676 91.1564 65.8007 91.5784 65.498 91.8943L65.2353 92.157C65.0793 92.3132 64.8937 92.4368 64.6894 92.5206C64.4851 92.6044 64.2662 92.6467 64.0454 92.645H64.0547Z" fill="#3A5A85"/>
<g filter="url(#filter0_d_17098_2439)">
<path d="M119.904 259.252C117.762 259.255 115.641 258.835 113.662 258.017C111.683 257.199 109.886 255.998 108.372 254.483L62.2168 208.328L65.3705 205.174L111.528 251.329C113.75 253.549 116.763 254.795 119.904 254.795C123.045 254.795 126.057 253.549 128.279 251.329L222.244 157.364C224.464 155.142 225.711 152.129 225.711 148.987C225.711 145.846 224.464 142.833 222.244 140.611L128.279 46.6482C126.057 44.4286 123.045 43.1819 119.904 43.1819C116.763 43.1819 113.75 44.4286 111.528 46.6482L65.8841 92.2919L62.7281 89.1382L108.372 43.4945C109.886 41.9795 111.683 40.7777 113.662 39.9578C115.64 39.1379 117.761 38.7158 119.902 38.7158C122.044 38.7158 124.165 39.1379 126.143 39.9578C128.122 40.7777 129.919 41.9795 131.433 43.4945L225.4 137.459C228.458 140.517 230.176 144.665 230.176 148.99C230.176 153.315 228.458 157.462 225.4 160.52L131.433 254.485C129.92 256 128.122 257.201 126.144 258.019C124.165 258.837 122.045 259.256 119.904 259.252Z" fill="#3A5A85"/>
</g>
<g filter="url(#filter1_d_17098_2439)">
<path d="M109.53 240.418L28.4705 159.363C27.1084 158.001 26.0278 156.385 25.2906 154.605C24.5533 152.826 24.1738 150.918 24.1738 148.992C24.1738 147.066 24.5533 145.159 25.2906 143.379C26.0278 141.6 27.1084 139.983 28.4705 138.621L109.53 57.5596C112.281 54.8095 116.012 53.2646 119.902 53.2646C123.792 53.2646 127.523 54.8095 130.274 57.5596L211.334 138.621C212.696 139.983 213.776 141.6 214.514 143.379C215.251 145.159 215.63 147.066 215.63 148.992C215.63 150.918 215.251 152.826 214.514 154.605C213.776 156.385 212.696 158.001 211.334 159.363L130.274 240.423C128.912 241.785 127.295 242.865 125.515 243.602C123.735 244.339 121.827 244.718 119.901 244.717C117.975 244.717 116.067 244.337 114.288 243.599C112.508 242.862 110.892 241.781 109.53 240.418Z" fill="white"/>
</g>
<g filter="url(#filter2_d_17098_2439)">
<path d="M106.251 233.111L35.1356 161.996C33.3416 160.205 31.9184 158.077 30.9474 155.735C29.9764 153.393 29.4766 150.882 29.4766 148.347C29.4766 145.812 29.9764 143.301 30.9474 140.959C31.9184 138.617 33.3416 136.49 35.1356 134.698L106.251 66.6486C108.043 64.8559 110.171 63.4339 112.513 62.4637C114.855 61.4935 117.366 60.9941 119.901 60.9941C122.436 60.9941 124.946 61.4935 127.288 62.4637C129.63 63.4339 131.758 64.8559 133.551 66.6486L204.666 134.698C206.46 136.49 207.883 138.617 208.854 140.959C209.825 143.301 210.325 145.812 210.325 148.347C210.325 150.882 209.825 153.393 208.854 155.735C207.883 158.077 206.46 160.205 204.666 161.996L133.551 233.111C131.758 234.904 129.63 236.326 127.288 237.296C124.946 238.266 122.436 238.765 119.901 238.765C117.366 238.765 114.855 238.266 112.513 237.296C110.171 236.326 108.043 234.904 106.251 233.111Z" fill="white"/>
</g>
<g filter="url(#filter3_d_17098_2439)">
<path d="M142.684 75.6539C155.138 63.1991 155.138 43.0059 142.684 30.5511C130.229 18.0963 110.036 18.0963 97.5807 30.5511C85.1259 43.0059 85.1259 63.1991 97.5807 75.6539C110.035 88.1087 130.229 88.1087 142.684 75.6539Z" fill="#3A5A85"/>
</g>
<path d="M123.871 54.0264C123.441 54.6003 122.883 55.0661 122.241 55.3869C121.599 55.7078 120.892 55.8748 120.174 55.8748C119.457 55.8748 118.749 55.7078 118.108 55.3869C117.466 55.0661 116.908 54.6003 116.477 54.0264C116.115 54.5147 115.659 54.926 115.136 55.2363C114.613 55.5466 114.034 55.7497 113.432 55.8338C112.83 55.9178 112.217 55.8811 111.629 55.7259C111.041 55.5706 110.49 55.2998 110.008 54.9293V59.5717C110.009 60.7968 110.497 61.9714 111.363 62.8377C112.229 63.704 113.404 64.1913 114.629 64.1928H125.72C126.945 64.1913 128.119 63.704 128.986 62.8377C129.852 61.9714 130.339 60.7968 130.341 59.5717V54.9266C129.859 55.2972 129.308 55.5681 128.72 55.7236C128.132 55.8791 127.519 55.9161 126.917 55.8323C126.315 55.7485 125.736 55.5457 125.213 55.2356C124.69 54.9256 124.234 54.5145 123.871 54.0264Z" fill="white"/>
<path d="M129.139 44.9055C128.96 44.0821 128.504 43.3452 127.846 42.8184C127.189 42.2916 126.37 42.0068 125.527 42.0118H124.795V44.7844C124.795 45.0296 124.698 45.2646 124.525 45.438C124.351 45.6113 124.116 45.7087 123.871 45.7087C123.626 45.7087 123.391 45.6113 123.218 45.438C123.044 45.2646 122.947 45.0296 122.947 44.7844V42.0118H117.402V44.7844C117.402 45.0296 117.304 45.2646 117.131 45.438C116.958 45.6113 116.722 45.7087 116.477 45.7087C116.232 45.7087 115.997 45.6113 115.824 45.438C115.651 45.2646 115.553 45.0296 115.553 44.7844V42.0118H114.821C113.978 42.0068 113.16 42.2917 112.502 42.8188C111.844 43.3458 111.388 44.0829 111.209 44.9064L110.028 50.2374L110.008 51.2725C110.009 51.6366 110.082 51.9969 110.222 52.3328C110.363 52.6688 110.568 52.9737 110.826 53.2303C111.348 53.7486 112.054 54.0384 112.79 54.0359C113.154 54.0347 113.514 53.9618 113.85 53.8213C114.186 53.6809 114.491 53.4756 114.748 53.2173C115.004 52.959 115.207 52.6526 115.346 52.3158C115.484 51.9789 115.554 51.6181 115.553 51.254C115.553 51.0089 115.651 50.7738 115.824 50.6005C115.997 50.4272 116.232 50.3298 116.477 50.3298C116.722 50.3298 116.958 50.4272 117.131 50.6005C117.304 50.7738 117.402 51.0089 117.402 51.254C117.402 51.9894 117.694 52.6946 118.214 53.2146C118.734 53.7345 119.439 54.0267 120.174 54.0267C120.91 54.0267 121.615 53.7345 122.135 53.2146C122.655 52.6946 122.947 51.9894 122.947 51.254C122.947 51.0089 123.044 50.7738 123.218 50.6005C123.391 50.4272 123.626 50.3298 123.871 50.3298C124.116 50.3298 124.351 50.4272 124.525 50.6005C124.698 50.7738 124.795 51.0089 124.795 51.254C124.795 51.9894 125.087 52.6946 125.607 53.2146C126.127 53.7345 126.833 54.0267 127.568 54.0267C128.303 54.0267 129.009 53.7345 129.529 53.2146C130.049 52.6946 130.341 51.9894 130.341 51.254V50.4287L129.139 44.9055Z" fill="white"/>
<defs>
<filter id="filter0_d_17098_2439" x="38.3394" y="18.022" width="215.714" height="268.291" filterUnits="userSpaceOnUse" color-interpolation-filters="sRGB">
<feFlood flood-opacity="0" result="BackgroundImageFix"/>
<feColorMatrix in="SourceAlpha" type="matrix" values="0 0 0 0 0 0 0 0 0 0 0 0 0 0 0 0 0 0 127 0" result="hardAlpha"/>
<feOffset dy="3.18366"/>
<feGaussianBlur stdDeviation="11.9387"/>
<feComposite in2="hardAlpha" operator="out"/>
<feColorMatrix type="matrix" values="0 0 0 0 0 0 0 0 0 0 0 0 0 0 0 0 0 0 0.15 0"/>
<feBlend mode="normal" in2="BackgroundImageFix" result="effect1_dropShadow_17098_2439"/>
<feBlend mode="normal" in="SourceGraphic" in2="effect1_dropShadow_17098_2439" result="shape"/>
</filter>
<filter id="filter1_d_17098_2439" x="0.296389" y="32.5709" width="239.211" height="239.207" filterUnits="userSpaceOnUse" color-interpolation-filters="sRGB">
<feFlood flood-opacity="0" result="BackgroundImageFix"/>
<feColorMatrix in="SourceAlpha" type="matrix" values="0 0 0 0 0 0 0 0 0 0 0 0 0 0 0 0 0 0 127 0" result="hardAlpha"/>
<feOffset dy="3.18366"/>
<feGaussianBlur stdDeviation="11.9387"/>
<feComposite in2="hardAlpha" operator="out"/>
<feColorMatrix type="matrix" values="0 0 0 0 0 0 0 0 0 0 0 0 0 0 0 0 0 0 0.15 0"/>
<feBlend mode="normal" in2="BackgroundImageFix" result="effect1_dropShadow_17098_2439"/>
<feBlend mode="normal" in="SourceGraphic" in2="effect1_dropShadow_17098_2439" result="shape"/>
</filter>
<filter id="filter2_d_17098_2439" x="5.59912" y="40.3004" width="228.604" height="225.526" filterUnits="userSpaceOnUse" color-interpolation-filters="sRGB">
<feFlood flood-opacity="0" result="BackgroundImageFix"/>
<feColorMatrix in="SourceAlpha" type="matrix" values="0 0 0 0 0 0 0 0 0 0 0 0 0 0 0 0 0 0 127 0" result="hardAlpha"/>
<feOffset dy="3.18366"/>
<feGaussianBlur stdDeviation="11.9387"/>
<feComposite in2="hardAlpha" operator="out"/>
<feColorMatrix type="matrix" values="0 0 0 0 0 0 0 0 0 0 0 0 0 0 0 0 0 0 0.15 0"/>
<feBlend mode="normal" in2="BackgroundImageFix" result="effect1_dropShadow_17098_2439"/>
<feBlend mode="normal" in="SourceGraphic" in2="effect1_dropShadow_17098_2439" result="shape"/>
</filter>
<filter id="filter3_d_17098_2439" x="64.3618" y="0.51618" width="111.54" height="111.54" filterUnits="userSpaceOnUse" color-interpolation-filters="sRGB">
<feFlood flood-opacity="0" result="BackgroundImageFix"/>
<feColorMatrix in="SourceAlpha" type="matrix" values="0 0 0 0 0 0 0 0 0 0 0 0 0 0 0 0 0 0 127 0" result="hardAlpha"/>
<feOffset dy="3.18366"/>
<feGaussianBlur stdDeviation="11.9387"/>
<feComposite in2="hardAlpha" operator="out"/>
<feColorMatrix type="matrix" values="0 0 0 0 0 0 0 0 0 0 0 0 0 0 0 0 0 0 0.15 0"/>
<feBlend mode="normal" in2="BackgroundImageFix" result="effect1_dropShadow_17098_2439"/>
<feBlend mode="normal" in="SourceGraphic" in2="effect1_dropShadow_17098_2439" result="shape"/>
</filter>
</defs>
</svg>
