<svg width="255" height="287" viewBox="0 0 255 287" fill="none" xmlns="http://www.w3.org/2000/svg">
<path d="M63.7944 208.517C63.5746 208.517 63.3569 208.474 63.1539 208.39C62.9508 208.306 62.7664 208.182 62.6115 208.026L61.8306 207.248C61.5279 206.932 61.361 206.51 61.3657 206.072C61.3704 205.635 61.5463 205.216 61.8557 204.907C62.1651 204.598 62.5834 204.422 63.021 204.417C63.4585 204.412 63.8805 204.579 64.1965 204.882L64.9773 205.66C65.2112 205.895 65.3705 206.193 65.435 206.517C65.4995 206.842 65.4664 207.178 65.3398 207.484C65.2132 207.789 64.9988 208.051 64.7238 208.235C64.4487 208.418 64.1253 208.517 63.7944 208.517ZM55.2164 199.939C54.9967 199.939 54.7791 199.896 54.576 199.812C54.373 199.728 54.1887 199.604 54.0336 199.448L53.255 198.67C52.9413 198.356 52.7649 197.931 52.7647 197.488C52.7644 197.044 52.9404 196.619 53.2539 196.305C53.5673 195.991 53.9925 195.815 54.4359 195.815C54.8794 195.815 55.3048 195.991 55.6186 196.304L56.3994 197.085C56.6336 197.319 56.7932 197.617 56.858 197.941C56.9227 198.266 56.8896 198.602 56.7629 198.908C56.6362 199.213 56.4215 199.474 56.1462 199.658C55.8709 199.842 55.5473 199.939 55.2164 199.939ZM46.6455 191.361C46.2021 191.361 45.7766 191.186 45.4625 190.873L44.684 190.092C44.5232 189.938 44.3947 189.753 44.3062 189.549C44.2176 189.344 44.1708 189.124 44.1684 188.902C44.166 188.679 44.2081 188.458 44.2923 188.252C44.3764 188.045 44.5009 187.858 44.6584 187.7C44.8159 187.543 45.0033 187.418 45.2096 187.334C45.4158 187.25 45.6368 187.208 45.8595 187.21C46.0823 187.213 46.3023 187.26 46.5067 187.348C46.7111 187.437 46.8958 187.565 47.0499 187.726L47.8284 188.507C48.0627 188.741 48.2222 189.039 48.2869 189.363C48.3516 189.688 48.3185 190.024 48.1919 190.33C48.0652 190.635 47.8506 190.896 47.5753 191.08C47.3 191.264 46.9764 191.361 46.6455 191.361ZM38.0676 182.785C37.6239 182.785 37.1985 182.608 36.8846 182.295L36.1061 181.514C35.8033 181.198 35.6364 180.776 35.6411 180.338C35.6458 179.901 35.8217 179.483 36.1311 179.173C36.4405 178.864 36.8589 178.688 37.2964 178.683C37.734 178.678 38.156 178.845 38.4719 179.148L39.2505 179.929C39.4844 180.163 39.6436 180.461 39.7082 180.786C39.7727 181.11 39.7396 181.446 39.613 181.752C39.4864 182.058 39.272 182.319 38.9969 182.503C38.7218 182.687 38.3984 182.785 38.0676 182.785ZM29.4896 174.207C29.2702 174.207 29.053 174.164 28.8504 174.08C28.6478 173.996 28.4638 173.872 28.309 173.717L27.5281 172.936C27.3729 172.781 27.2498 172.596 27.1659 172.393C27.082 172.19 27.0389 171.973 27.039 171.753C27.0391 171.534 27.0825 171.316 27.1666 171.114C27.2507 170.911 27.374 170.726 27.5293 170.571C27.6847 170.416 27.869 170.293 28.0719 170.209C28.2748 170.125 28.4923 170.082 28.7119 170.082C28.9314 170.082 29.1489 170.126 29.3517 170.21C29.5545 170.294 29.7388 170.417 29.894 170.572L30.6725 171.351C30.9064 171.585 31.0657 171.883 31.1302 172.208C31.1948 172.532 31.1616 172.869 31.035 173.174C30.9084 173.48 30.694 173.741 30.419 173.925C30.1439 174.109 29.8204 174.207 29.4896 174.207ZM20.914 165.629C20.6942 165.63 20.4764 165.587 20.2733 165.503C20.0702 165.419 19.8859 165.295 19.731 165.139L18.9502 164.36C18.6558 164.043 18.4959 163.624 18.5039 163.191C18.5119 162.759 18.6872 162.346 18.9931 162.04C19.299 161.734 19.7116 161.558 20.1443 161.549C20.577 161.541 20.9961 161.7 21.3137 161.994L22.0946 162.773C22.3285 163.007 22.4877 163.305 22.5523 163.63C22.6168 163.954 22.5836 164.291 22.457 164.596C22.3304 164.902 22.116 165.163 21.841 165.347C21.5659 165.531 21.2425 165.629 20.9117 165.629H20.914ZM13.0774 156.473C12.7537 156.472 12.4371 156.378 12.1658 156.201C11.8944 156.025 11.68 155.774 11.5482 155.478C11.3832 155.104 11.2275 154.716 11.0834 154.33C10.947 153.914 10.9789 153.461 11.1722 153.069C11.3656 152.676 11.705 152.375 12.1177 152.23C12.5305 152.085 12.9837 152.107 13.3803 152.292C13.7769 152.477 14.0853 152.809 14.2394 153.219C14.3463 153.521 14.4718 153.826 14.5973 154.121C14.7103 154.375 14.7579 154.654 14.7358 154.932C14.7137 155.21 14.6225 155.478 14.4706 155.711C14.3187 155.945 14.1109 156.137 13.866 156.27C13.621 156.403 13.3468 156.473 13.0681 156.473H13.0774ZM13.2238 144.713C12.976 144.713 12.7314 144.658 12.508 144.55C12.3095 144.456 12.1315 144.324 11.9842 144.161C11.8368 143.998 11.7231 143.807 11.6495 143.6C11.5759 143.393 11.5438 143.174 11.5552 142.954C11.5665 142.735 11.621 142.52 11.7155 142.322C11.8921 141.952 12.0827 141.585 12.2872 141.229C12.3947 141.035 12.5399 140.864 12.7142 140.726C12.8884 140.589 13.0884 140.487 13.3023 140.428C13.5162 140.368 13.7399 140.352 13.9603 140.379C14.1806 140.407 14.3932 140.478 14.5857 140.589C14.7782 140.7 14.9467 140.848 15.0815 141.024C15.2162 141.201 15.3144 141.403 15.3704 141.618C15.4265 141.832 15.4392 142.056 15.4078 142.276C15.3764 142.496 15.3015 142.707 15.1876 142.898C15.0272 143.177 14.8762 143.467 14.7367 143.758C14.6003 144.045 14.3849 144.287 14.1157 144.457C13.8465 144.626 13.5347 144.715 13.2168 144.713H13.2238ZM21.1627 135.628C20.8318 135.628 20.5084 135.53 20.2333 135.346C19.9582 135.162 19.7438 134.901 19.6172 134.595C19.4906 134.29 19.4575 133.953 19.522 133.629C19.5865 133.304 19.7458 133.006 19.9797 132.772L20.7606 131.991C20.9124 131.821 21.0973 131.684 21.304 131.588C21.5107 131.492 21.7349 131.439 21.9628 131.433C22.1907 131.426 22.4174 131.467 22.6291 131.551C22.8409 131.636 23.0331 131.763 23.1941 131.924C23.355 132.085 23.4813 132.278 23.5652 132.49C23.649 132.702 23.6886 132.929 23.6816 133.157C23.6747 133.385 23.6212 133.609 23.5245 133.815C23.4279 134.021 23.29 134.206 23.1195 134.357L22.3386 135.138C22.1834 135.294 21.999 135.417 21.796 135.501C21.593 135.585 21.3754 135.629 21.1557 135.628H21.1627ZM29.7406 127.051C29.4097 127.05 29.0863 126.952 28.8113 126.768C28.5362 126.585 28.3218 126.323 28.1952 126.018C28.0686 125.712 28.0354 125.375 28.0999 125.051C28.1645 124.726 28.3237 124.428 28.5576 124.194L29.3385 123.416C29.4937 123.26 29.678 123.137 29.8808 123.053C30.0836 122.969 30.3011 122.926 30.5206 122.925C30.7402 122.925 30.9577 122.968 31.1606 123.052C31.3635 123.136 31.5479 123.259 31.7032 123.415C31.8586 123.57 31.9818 123.754 32.066 123.957C32.1501 124.16 32.1934 124.377 32.1935 124.597C32.1936 124.816 32.1505 125.034 32.0666 125.237C31.9827 125.44 31.8596 125.624 31.7044 125.779L30.9235 126.56C30.7674 126.716 30.5818 126.84 30.3776 126.924C30.1734 127.008 29.9545 127.051 29.7336 127.051H29.7406ZM38.3185 118.473C37.9877 118.472 37.6643 118.374 37.3892 118.19C37.1141 118.007 36.8997 117.745 36.7731 117.44C36.6465 117.134 36.6134 116.798 36.6779 116.473C36.7424 116.149 36.9017 115.85 37.1356 115.616L37.9165 114.838C38.2324 114.535 38.6544 114.368 39.092 114.373C39.5295 114.378 39.9478 114.554 40.2572 114.863C40.5666 115.172 40.7426 115.591 40.7473 116.028C40.752 116.466 40.5851 116.888 40.2824 117.204L39.5015 117.982C39.3455 118.139 39.16 118.263 38.9558 118.347C38.7515 118.431 38.5325 118.474 38.3115 118.473H38.3185ZM46.8965 109.895C46.5656 109.895 46.2422 109.796 45.9671 109.612C45.6921 109.429 45.4777 109.167 45.3511 108.862C45.2245 108.556 45.1913 108.22 45.2558 107.895C45.3204 107.571 45.4797 107.272 45.7136 107.038L46.4921 106.26C46.8081 105.957 47.23 105.79 47.6676 105.795C48.1051 105.8 48.5235 105.976 48.8329 106.285C49.1423 106.594 49.3182 107.013 49.3229 107.45C49.3276 107.888 49.1607 108.31 48.858 108.626L48.0794 109.404C47.9235 109.561 47.738 109.685 47.5337 109.769C47.3295 109.853 47.1105 109.896 46.8895 109.895H46.8965ZM55.4768 101.317C55.1464 101.316 54.8235 101.218 54.549 101.034C54.2744 100.85 54.0604 100.589 53.9339 100.284C53.8074 99.9789 53.774 99.6431 53.8381 99.319C53.9022 98.9948 54.0607 98.6969 54.2938 98.4628L55.0724 97.6819C55.2265 97.5211 55.4111 97.3926 55.6155 97.3041C55.8199 97.2155 56.04 97.1687 56.2627 97.1663C56.4855 97.1639 56.7065 97.206 56.9127 97.2902C57.119 97.3743 57.3064 97.4988 57.4639 97.6563C57.6214 97.8138 57.7459 98.0012 57.83 98.2075C57.9141 98.4137 57.9562 98.6347 57.9539 98.8574C57.9515 99.0802 57.9046 99.3002 57.8161 99.5046C57.7276 99.709 57.5991 99.8937 57.4382 100.048L56.6597 100.826C56.5046 100.982 56.3202 101.106 56.1172 101.19C55.9142 101.274 55.6965 101.317 55.4768 101.317ZM64.0547 92.7387C63.7238 92.7393 63.4002 92.6416 63.1249 92.458C62.8496 92.2744 62.635 92.0133 62.5083 91.7076C62.3816 91.4019 62.3485 91.0655 62.4132 90.741C62.4779 90.4165 62.6376 90.1186 62.8718 89.8849L63.1321 89.6222C63.448 89.3195 63.87 89.1526 64.3076 89.1573C64.7451 89.162 65.1634 89.3379 65.4728 89.6473C65.7822 89.9567 65.9582 90.375 65.9629 90.8126C65.9676 91.2501 65.8007 91.6721 65.498 91.9881L65.2353 92.2507C65.0793 92.4069 64.8937 92.5305 64.6894 92.6143C64.4851 92.6981 64.2662 92.7404 64.0454 92.7387H64.0547Z" fill="#2C3E50"/>
<g filter="url(#filter0_d_17098_2429)">
<path d="M119.904 259.345C117.762 259.349 115.641 258.929 113.662 258.111C111.683 257.292 109.886 256.091 108.372 254.577L62.2168 208.422L65.3705 205.268L111.528 251.423C113.75 253.642 116.763 254.889 119.904 254.889C123.045 254.889 126.057 253.642 128.279 251.423L222.244 157.458C224.464 155.236 225.711 152.223 225.711 149.081C225.711 145.94 224.464 142.927 222.244 140.704L128.279 46.7419C126.057 44.5223 123.045 43.2756 119.904 43.2756C116.763 43.2756 113.75 44.5223 111.528 46.7419L65.8841 92.3857L62.7281 89.232L108.372 43.5882C109.886 42.0733 111.683 40.8715 113.662 40.0516C115.64 39.2316 117.761 38.8096 119.902 38.8096C122.044 38.8096 124.165 39.2316 126.143 40.0516C128.122 40.8715 129.919 42.0733 131.433 43.5882L225.4 137.553C228.458 140.611 230.176 144.759 230.176 149.084C230.176 153.408 228.458 157.556 225.4 160.614L131.433 254.579C129.92 256.094 128.122 257.295 126.144 258.113C124.165 258.931 122.045 259.35 119.904 259.345Z" fill="#2C3E50"/>
</g>
<g filter="url(#filter1_d_17098_2429)">
<path d="M109.53 240.512L28.4705 159.457C27.1084 158.095 26.0278 156.478 25.2906 154.699C24.5533 152.919 24.1738 151.012 24.1738 149.086C24.1738 147.16 24.5533 145.253 25.2906 143.473C26.0278 141.694 27.1084 140.077 28.4705 138.715L109.53 57.6533C112.281 54.9033 116.012 53.3584 119.902 53.3584C123.792 53.3584 127.523 54.9033 130.274 57.6533L211.334 138.715C212.696 140.077 213.776 141.694 214.514 143.473C215.251 145.253 215.63 147.16 215.63 149.086C215.63 151.012 215.251 152.919 214.514 154.699C213.776 156.478 212.696 158.095 211.334 159.457L130.274 240.516C128.912 241.878 127.295 242.959 125.515 243.695C123.735 244.432 121.827 244.811 119.901 244.811C117.975 244.811 116.067 244.431 114.288 243.693C112.508 242.955 110.892 241.874 109.53 240.512Z" fill="white"/>
</g>
<g filter="url(#filter2_d_17098_2429)">
<path d="M106.251 233.205L35.1356 162.09C33.3416 160.298 31.9184 158.171 30.9474 155.829C29.9764 153.487 29.4766 150.976 29.4766 148.441C29.4766 145.906 29.9764 143.395 30.9474 141.053C31.9184 138.711 33.3416 136.583 35.1356 134.792L106.251 66.7423C108.043 64.9497 110.171 63.5276 112.513 62.5574C114.855 61.5872 117.366 61.0879 119.901 61.0879C122.436 61.0879 124.946 61.5872 127.288 62.5574C129.63 63.5276 131.758 64.9497 133.551 66.7423L204.666 134.792C206.46 136.583 207.883 138.711 208.854 141.053C209.825 143.395 210.325 145.906 210.325 148.441C210.325 150.976 209.825 153.487 208.854 155.829C207.883 158.171 206.46 160.298 204.666 162.09L133.551 233.205C131.758 234.997 129.63 236.419 127.288 237.39C124.946 238.36 122.436 238.859 119.901 238.859C117.366 238.859 114.855 238.36 112.513 237.39C110.171 236.419 108.043 234.997 106.251 233.205Z" fill="white"/>
</g>
<g filter="url(#filter3_d_17098_2429)">
<path d="M143.09 75.6539C155.545 63.1991 155.545 43.0059 143.09 30.5511C130.635 18.0963 110.442 18.0963 97.987 30.5511C85.5322 43.0059 85.5322 63.1991 97.987 75.6539C110.442 88.1087 130.635 88.1087 143.09 75.6539Z" fill="#2C3E50"/>
</g>
<path d="M117.134 45.2819C117.134 43.0046 120.596 41.1582 124.866 41.1582C129.136 41.1582 132.598 43.0046 132.598 45.2819C132.598 47.5592 129.136 49.4056 124.866 49.4056C120.596 49.4056 117.134 47.5592 117.134 45.2819ZM124.866 51.4674C123.807 51.4674 122.803 51.3489 121.885 51.1427C120.484 50.0922 118.188 49.4056 115.587 49.4056C111.317 49.4056 107.855 51.252 107.855 53.5293C107.855 55.8066 111.317 57.6529 115.587 57.6529C119.857 57.6529 123.319 55.8066 123.319 53.5293C123.319 53.4994 123.312 53.4705 123.311 53.4406H123.319V55.5911C123.319 57.8684 119.857 59.7148 115.587 59.7148C111.317 59.7148 107.855 57.8684 107.855 55.5911V57.6529C107.855 59.9303 111.317 61.7766 115.587 61.7766C119.857 61.7766 123.319 59.9303 123.319 57.6529V59.7148C123.319 61.9921 119.857 63.8385 115.587 63.8385C111.317 63.8385 107.855 61.9921 107.855 59.7148V61.7766C107.855 64.0539 111.317 65.9003 115.587 65.9003C119.857 65.9003 123.319 64.0539 123.319 61.7766V61.6942C123.819 61.7478 124.336 61.7766 124.866 61.7766C129.136 61.7766 132.598 59.9303 132.598 57.6529V55.5911C132.598 57.7756 129.41 59.5591 125.381 59.7014V57.6395C129.41 57.4973 132.598 55.7148 132.598 53.5293V51.4674C132.598 53.6519 129.41 55.4354 125.381 55.5777V53.5159C129.41 53.3736 132.598 51.5911 132.598 49.4056V47.3437C132.598 49.621 129.136 51.4674 124.866 51.4674Z" fill="white"/>
<defs>
<filter id="filter0_d_17098_2429" x="38.3394" y="18.1158" width="215.714" height="268.291" filterUnits="userSpaceOnUse" color-interpolation-filters="sRGB">
<feFlood flood-opacity="0" result="BackgroundImageFix"/>
<feColorMatrix in="SourceAlpha" type="matrix" values="0 0 0 0 0 0 0 0 0 0 0 0 0 0 0 0 0 0 127 0" result="hardAlpha"/>
<feOffset dy="3.18366"/>
<feGaussianBlur stdDeviation="11.9387"/>
<feComposite in2="hardAlpha" operator="out"/>
<feColorMatrix type="matrix" values="0 0 0 0 0 0 0 0 0 0 0 0 0 0 0 0 0 0 0.15 0"/>
<feBlend mode="normal" in2="BackgroundImageFix" result="effect1_dropShadow_17098_2429"/>
<feBlend mode="normal" in="SourceGraphic" in2="effect1_dropShadow_17098_2429" result="shape"/>
</filter>
<filter id="filter1_d_17098_2429" x="0.296389" y="32.6646" width="239.211" height="239.207" filterUnits="userSpaceOnUse" color-interpolation-filters="sRGB">
<feFlood flood-opacity="0" result="BackgroundImageFix"/>
<feColorMatrix in="SourceAlpha" type="matrix" values="0 0 0 0 0 0 0 0 0 0 0 0 0 0 0 0 0 0 127 0" result="hardAlpha"/>
<feOffset dy="3.18366"/>
<feGaussianBlur stdDeviation="11.9387"/>
<feComposite in2="hardAlpha" operator="out"/>
<feColorMatrix type="matrix" values="0 0 0 0 0 0 0 0 0 0 0 0 0 0 0 0 0 0 0.15 0"/>
<feBlend mode="normal" in2="BackgroundImageFix" result="effect1_dropShadow_17098_2429"/>
<feBlend mode="normal" in="SourceGraphic" in2="effect1_dropShadow_17098_2429" result="shape"/>
</filter>
<filter id="filter2_d_17098_2429" x="5.59912" y="40.3941" width="228.604" height="225.526" filterUnits="userSpaceOnUse" color-interpolation-filters="sRGB">
<feFlood flood-opacity="0" result="BackgroundImageFix"/>
<feColorMatrix in="SourceAlpha" type="matrix" values="0 0 0 0 0 0 0 0 0 0 0 0 0 0 0 0 0 0 127 0" result="hardAlpha"/>
<feOffset dy="3.18366"/>
<feGaussianBlur stdDeviation="11.9387"/>
<feComposite in2="hardAlpha" operator="out"/>
<feColorMatrix type="matrix" values="0 0 0 0 0 0 0 0 0 0 0 0 0 0 0 0 0 0 0.15 0"/>
<feBlend mode="normal" in2="BackgroundImageFix" result="effect1_dropShadow_17098_2429"/>
<feBlend mode="normal" in="SourceGraphic" in2="effect1_dropShadow_17098_2429" result="shape"/>
</filter>
<filter id="filter3_d_17098_2429" x="64.7681" y="0.51618" width="111.54" height="111.54" filterUnits="userSpaceOnUse" color-interpolation-filters="sRGB">
<feFlood flood-opacity="0" result="BackgroundImageFix"/>
<feColorMatrix in="SourceAlpha" type="matrix" values="0 0 0 0 0 0 0 0 0 0 0 0 0 0 0 0 0 0 127 0" result="hardAlpha"/>
<feOffset dy="3.18366"/>
<feGaussianBlur stdDeviation="11.9387"/>
<feComposite in2="hardAlpha" operator="out"/>
<feColorMatrix type="matrix" values="0 0 0 0 0 0 0 0 0 0 0 0 0 0 0 0 0 0 0.15 0"/>
<feBlend mode="normal" in2="BackgroundImageFix" result="effect1_dropShadow_17098_2429"/>
<feBlend mode="normal" in="SourceGraphic" in2="effect1_dropShadow_17098_2429" result="shape"/>
</filter>
</defs>
</svg>
