<svg width="304" height="271" viewBox="0 0 304 271" fill="none" xmlns="http://www.w3.org/2000/svg">
<g filter="url(#filter0_d_224_6307)">
<line x1="19" y1="72.2744" x2="284.775" y2="72.2744" stroke="white" stroke-width="0.922828"/>
</g>
<rect x="19" y="72.7358" width="265.775" height="42.4501" fill="white"/>
<path d="M210.99 73.4914H208.042C208.042 41.9321 182.365 16.2583 150.809 16.2583C119.253 16.2583 93.5551 41.9286 93.5551 73.4914H90.5898C90.5898 40.2955 117.596 13.2861 150.795 13.2861C183.995 13.2861 210.99 40.2955 210.99 73.4914Z" fill="#0F898C"/>
<g filter="url(#filter1_d_224_6307)">
<path d="M96.7127 74.8549C97.0628 88.7327 102.735 101.945 112.554 111.758C122.374 121.57 135.59 127.232 149.468 127.573C180.159 128.31 205.49 103.086 204.878 72.3913C204.68 62.5418 201.796 52.9333 196.537 44.6026C191.279 36.272 183.845 29.5354 175.038 25.1198C171.287 23.229 167.325 21.7866 163.236 20.8224C159.517 19.9486 155.717 19.4708 151.897 19.3969C121.175 18.7913 95.9376 44.1398 96.7127 74.8549Z" fill="url(#paint0_linear_224_6307)"/>
</g>
<path d="M187.086 109.782C207.211 89.6565 207.277 57.0925 187.233 37.0482C167.188 17.0038 134.624 17.0696 114.499 37.195C94.3735 57.3204 94.3077 89.8844 114.352 109.929C134.396 129.973 166.96 129.907 187.086 109.782Z" fill="#F9F9F9"/>
<path d="M142.651 59.9856C145.361 59.9856 147.557 61.2824 149.24 63.8758C150.641 66.0252 151.342 68.5836 151.342 71.5508C151.342 75.1022 150.455 77.9526 148.679 80.1021C147.09 82.0413 145.081 83.0109 142.651 83.0109C139.824 83.0109 137.628 81.7726 136.062 79.296C134.731 77.2166 134.065 74.6349 134.065 71.5508C134.065 68.093 134.941 65.2542 136.693 63.0347C138.259 61.002 140.244 59.9856 142.651 59.9856ZM142.721 64.1912C140.361 64.1912 139.181 66.5743 139.181 71.3406C139.181 73.7471 139.52 75.6395 140.198 77.018C140.805 78.2563 141.611 78.8755 142.616 78.8755C143.737 78.8755 144.614 78.2096 145.244 76.8778C145.899 75.5461 146.226 73.7003 146.226 71.3406C146.226 66.5743 145.057 64.1912 142.721 64.1912ZM163.659 60.4062V82.5903H158.718V66.0486C158.414 66.2589 157.959 66.5393 157.351 66.8897C156.51 67.3804 155.891 67.7775 155.494 68.0813C155.19 67.5439 154.688 66.6911 153.987 65.5229L153.846 65.3126C153.636 64.9622 153.426 64.6117 153.216 64.2613C154.01 63.6538 155.202 62.8127 156.79 61.738L157.176 61.4926C157.83 61.0253 158.344 60.6632 158.718 60.4062H163.659Z" fill="#0F898C"/>
<path d="M112.301 222.218C112.037 222.614 111.627 223.208 111.069 224C109.896 223.487 108.847 223.23 107.923 223.23C106.706 223.23 106.097 223.685 106.097 224.594C106.097 225.005 106.237 225.327 106.515 225.562C106.794 225.797 107.373 226.083 108.253 226.42C109.837 227.036 110.974 227.703 111.663 228.422C112.367 229.141 112.719 230.006 112.719 231.018C112.719 232.441 112.184 233.541 111.113 234.318C110.233 234.949 109.141 235.264 107.835 235.264C106.295 235.264 104.653 234.707 102.907 233.592L104.183 231.81C105.034 232.382 106.127 232.668 107.461 232.668C108.972 232.668 109.727 232.059 109.727 230.842C109.727 230.05 108.913 229.375 107.285 228.818C104.66 227.938 103.347 226.53 103.347 224.594C103.347 223.421 103.787 222.489 104.667 221.8C105.489 221.14 106.581 220.81 107.945 220.81C109.5 220.81 110.952 221.279 112.301 222.218ZM124.448 230.908H117.584C117.643 231.583 117.914 232.147 118.398 232.602C118.897 233.042 119.483 233.262 120.158 233.262C121.111 233.262 122.109 232.969 123.15 232.382L123.854 233.856C122.798 234.795 121.478 235.264 119.894 235.264C118.193 235.264 116.865 234.78 115.912 233.812C115.003 232.903 114.548 231.649 114.548 230.05C114.548 228.481 115.061 227.183 116.088 226.156C117.012 225.217 118.185 224.748 119.608 224.748C121.192 224.748 122.424 225.283 123.304 226.354C124.067 227.263 124.448 228.444 124.448 229.896V230.908ZM117.43 228.862H121.676C121.603 227.425 120.906 226.706 119.586 226.706C118.31 226.706 117.591 227.425 117.43 228.862ZM129.56 220.81V235H126.788V222.262L129.56 220.81ZM141.786 230.908H134.922C134.981 231.583 135.252 232.147 135.736 232.602C136.235 233.042 136.821 233.262 137.496 233.262C138.449 233.262 139.447 232.969 140.488 232.382L141.192 233.856C140.136 234.795 138.816 235.264 137.232 235.264C135.531 235.264 134.203 234.78 133.25 233.812C132.341 232.903 131.886 231.649 131.886 230.05C131.886 228.481 132.399 227.183 133.426 226.156C134.35 225.217 135.523 224.748 136.946 224.748C138.53 224.748 139.762 225.283 140.642 226.354C141.405 227.263 141.786 228.444 141.786 229.896V230.908ZM134.768 228.862H139.014C138.941 227.425 138.244 226.706 136.924 226.706C135.648 226.706 134.929 227.425 134.768 228.862ZM152.508 233.724C151.467 234.751 150.235 235.264 148.812 235.264C147.111 235.264 145.761 234.721 144.764 233.636C143.899 232.683 143.466 231.487 143.466 230.05C143.466 228.437 144.023 227.117 145.138 226.09C146.106 225.195 147.287 224.748 148.68 224.748C150.22 224.748 151.459 225.232 152.398 226.2L151.562 227.696C150.814 227.036 150 226.706 149.12 226.706C148.299 226.706 147.624 227.029 147.096 227.674C146.568 228.305 146.304 229.119 146.304 230.116C146.304 231.04 146.561 231.803 147.074 232.404C147.602 232.991 148.269 233.284 149.076 233.284C150.044 233.284 150.873 232.925 151.562 232.206L152.508 233.724ZM160.859 227.234H157.999V232.184C157.999 232.917 158.241 233.284 158.725 233.284C159.165 233.284 159.715 233.093 160.375 232.712L161.299 234.12C160.257 234.941 159.106 235.352 157.845 235.352C156.085 235.352 155.205 234.384 155.205 232.448V227.234H153.819V225.012H155.227V223.23C155.96 222.834 156.891 222.343 158.021 221.756V225.012H160.859V227.234ZM171.5 223.384H167.474V221.074H178.738V223.384H174.404V235H171.5V223.384ZM180.564 222.328L183.336 220.81V226.2C183.57 225.745 184.054 225.357 184.788 225.034C185.272 224.829 185.726 224.726 186.152 224.726C187.428 224.726 188.352 225.078 188.924 225.782C189.51 226.471 189.804 227.586 189.804 229.126V235H187.032V229.236C187.032 227.799 186.416 227.08 185.184 227.08C184.289 227.08 183.673 227.329 183.336 227.828V235H180.564V222.328ZM201.921 230.908H195.057C195.115 231.583 195.387 232.147 195.871 232.602C196.369 233.042 196.956 233.262 197.631 233.262C198.584 233.262 199.581 232.969 200.623 232.382L201.327 233.856C200.271 234.795 198.951 235.264 197.367 235.264C195.665 235.264 194.338 234.78 193.385 233.812C192.475 232.903 192.021 231.649 192.021 230.05C192.021 228.481 192.534 227.183 193.561 226.156C194.485 225.217 195.658 224.748 197.081 224.748C198.665 224.748 199.897 225.283 200.777 226.354C201.539 227.263 201.921 228.444 201.921 229.896V230.908ZM194.903 228.862H199.149C199.075 227.425 198.379 226.706 197.059 226.706C195.783 226.706 195.064 227.425 194.903 228.862ZM101.172 248.218C100.908 248.614 100.498 249.208 99.9403 250C98.767 249.487 97.7183 249.23 96.7943 249.23C95.577 249.23 94.9683 249.685 94.9683 250.594C94.9683 251.005 95.1077 251.327 95.3863 251.562C95.665 251.797 96.2443 252.083 97.1243 252.42C98.7083 253.036 99.845 253.703 100.534 254.422C101.238 255.141 101.59 256.006 101.59 257.018C101.59 258.441 101.055 259.541 99.9843 260.318C99.1043 260.949 98.0117 261.264 96.7063 261.264C95.1663 261.264 93.5237 260.707 91.7783 259.592L93.0543 257.81C93.905 258.382 94.9977 258.668 96.3323 258.668C97.843 258.668 98.5983 258.059 98.5983 256.842C98.5983 256.05 97.7843 255.375 96.1563 254.818C93.531 253.938 92.2183 252.53 92.2183 250.594C92.2183 249.421 92.6583 248.489 93.5383 247.8C94.3597 247.14 95.4523 246.81 96.8163 246.81C98.371 246.81 99.823 247.279 101.172 248.218ZM113.319 256.908H106.455C106.514 257.583 106.785 258.147 107.269 258.602C107.768 259.042 108.355 259.262 109.029 259.262C109.983 259.262 110.98 258.969 112.021 258.382L112.725 259.856C111.669 260.795 110.349 261.264 108.765 261.264C107.064 261.264 105.737 260.78 104.783 259.812C103.874 258.903 103.419 257.649 103.419 256.05C103.419 254.481 103.933 253.183 104.959 252.156C105.883 251.217 107.057 250.748 108.479 250.748C110.063 250.748 111.295 251.283 112.175 252.354C112.938 253.263 113.319 254.444 113.319 255.896V256.908ZM106.301 254.862H110.547C110.474 253.425 109.777 252.706 108.457 252.706C107.181 252.706 106.463 253.425 106.301 254.862ZM118.013 251.012L118.277 251.892C118.424 251.584 118.703 251.32 119.113 251.1C119.539 250.865 119.971 250.748 120.411 250.748C121.731 250.748 122.714 251.371 123.359 252.618L121.027 253.894C120.543 253.337 120.03 253.058 119.487 253.058C118.989 253.058 118.622 253.315 118.387 253.828V261H115.659V251.012H118.013ZM130.276 261H128.12L124.226 251.012H127.02L129.154 257.612L131.42 251.012H134.324L133.906 252.046L133.422 253.234C132.058 256.607 131.009 259.196 130.276 261ZM138.839 251.012V261H136.045V251.012H138.839ZM135.715 248.46C135.715 247.991 135.877 247.587 136.199 247.25C136.537 246.898 136.933 246.722 137.387 246.722C137.871 246.722 138.282 246.891 138.619 247.228C138.971 247.565 139.147 247.976 139.147 248.46C139.147 248.973 138.979 249.391 138.641 249.714C138.319 250.037 137.901 250.198 137.387 250.198C136.903 250.198 136.5 250.037 136.177 249.714C135.869 249.377 135.715 248.959 135.715 248.46ZM150.08 259.724C149.039 260.751 147.807 261.264 146.384 261.264C144.683 261.264 143.334 260.721 142.336 259.636C141.471 258.683 141.038 257.487 141.038 256.05C141.038 254.437 141.596 253.117 142.71 252.09C143.678 251.195 144.859 250.748 146.252 250.748C147.792 250.748 149.032 251.232 149.97 252.2L149.134 253.696C148.386 253.036 147.572 252.706 146.692 252.706C145.871 252.706 145.196 253.029 144.668 253.674C144.14 254.305 143.876 255.119 143.876 256.116C143.876 257.04 144.133 257.803 144.646 258.404C145.174 258.991 145.842 259.284 146.648 259.284C147.616 259.284 148.445 258.925 149.134 258.206L150.08 259.724ZM161.423 256.908H154.559C154.617 257.583 154.889 258.147 155.373 258.602C155.871 259.042 156.458 259.262 157.133 259.262C158.086 259.262 159.083 258.969 160.125 258.382L160.829 259.856C159.773 260.795 158.453 261.264 156.869 261.264C155.167 261.264 153.84 260.78 152.887 259.812C151.977 258.903 151.523 257.649 151.523 256.05C151.523 254.481 152.036 253.183 153.063 252.156C153.987 251.217 155.16 250.748 156.583 250.748C158.167 250.748 159.399 251.283 160.279 252.354C161.041 253.263 161.423 254.444 161.423 255.896V256.908ZM154.405 254.862H158.651C158.577 253.425 157.881 252.706 156.561 252.706C155.285 252.706 154.566 253.425 154.405 254.862ZM171.908 249.384H167.882V247.074H179.146V249.384H174.812V261H171.908V249.384ZM189.909 251.012C189.322 252.655 188.516 254.862 187.489 257.634C186.741 259.702 186.154 261.308 185.729 262.452C185.04 264.285 184.072 265.202 182.825 265.202C181.857 265.202 180.86 264.784 179.833 263.948C180.126 263.449 180.376 263.009 180.581 262.628C181.124 262.98 181.6 263.156 182.011 263.156C182.612 263.156 183.148 262.437 183.617 261H183.089L179.591 251.012H182.341C182.502 251.496 182.752 252.251 183.089 253.278L183.221 253.63C183.852 255.537 184.306 256.937 184.585 257.832L187.137 251.012H189.909ZM193.826 251.012L194.09 251.958C194.706 251.151 195.571 250.748 196.686 250.748C198.255 250.748 199.48 251.276 200.36 252.332C201.108 253.241 201.482 254.4 201.482 255.808C201.482 257.656 200.924 259.079 199.81 260.076C198.93 260.868 197.852 261.264 196.576 261.264C196.194 261.264 195.791 261.183 195.366 261.022C194.94 260.861 194.64 260.677 194.464 260.472V264.916H191.736V251.012H193.826ZM194.464 254.906V257.458C194.464 257.971 194.64 258.411 194.992 258.778C195.358 259.145 195.784 259.328 196.268 259.328C196.928 259.328 197.478 259.013 197.918 258.382C198.358 257.751 198.578 256.967 198.578 256.028C198.578 255.031 198.38 254.239 197.984 253.652C197.602 253.051 197.082 252.75 196.422 252.75C195.908 252.75 195.454 252.97 195.058 253.41C194.662 253.835 194.464 254.334 194.464 254.906ZM213.05 256.908H206.186C206.244 257.583 206.516 258.147 207 258.602C207.498 259.042 208.085 259.262 208.76 259.262C209.713 259.262 210.71 258.969 211.752 258.382L212.456 259.856C211.4 260.795 210.08 261.264 208.496 261.264C206.794 261.264 205.467 260.78 204.514 259.812C203.604 258.903 203.15 257.649 203.15 256.05C203.15 254.481 203.663 253.183 204.69 252.156C205.614 251.217 206.787 250.748 208.21 250.748C209.794 250.748 211.026 251.283 211.906 252.354C212.668 253.263 213.05 254.444 213.05 255.896V256.908ZM206.032 254.862H210.278C210.204 253.425 209.508 252.706 208.188 252.706C206.912 252.706 206.193 253.425 206.032 254.862Z" fill="#3B3B3B"/>
<path d="M148.5 181.188L151.188 178.469L149.438 176.688L148.062 178.062L146.312 176.312L147.656 174.938L146.25 173.531L143.531 176.25L148.5 181.188ZM158.75 191.469L161.469 188.75L160.062 187.344L158.688 188.688L156.938 186.938L158.281 185.562L156.5 183.812L153.812 186.5L158.75 191.469ZM157.781 175.531L159.531 177.281L161.281 175.531L159.5 173.75L157.781 175.531ZM146.562 193.75H141.25V188.438L146.719 182.969L140 176.25L146.25 170L153 176.75L157.719 172C157.969 171.75 158.25 171.563 158.562 171.438C158.875 171.313 159.198 171.25 159.531 171.25C159.865 171.25 160.188 171.313 160.5 171.438C160.812 171.563 161.094 171.75 161.344 172L163 173.687C163.25 173.937 163.438 174.219 163.562 174.531C163.688 174.844 163.75 175.167 163.75 175.5C163.75 175.833 163.688 176.151 163.562 176.454C163.438 176.756 163.25 177.032 163 177.281L158.281 182.031L165 188.75L158.75 195L152.031 188.281L146.562 193.75Z" fill="#0F898C"/>
<defs>
<filter id="filter0_d_224_6307" x="0.727999" y="47.0812" width="302.319" height="37.4669" filterUnits="userSpaceOnUse" color-interpolation-filters="sRGB">
<feFlood flood-opacity="0" result="BackgroundImageFix"/>
<feColorMatrix in="SourceAlpha" type="matrix" values="0 0 0 0 0 0 0 0 0 0 0 0 0 0 0 0 0 0 127 0" result="hardAlpha"/>
<feOffset dy="-6.4598"/>
<feGaussianBlur stdDeviation="9.136"/>
<feComposite in2="hardAlpha" operator="out"/>
<feColorMatrix type="matrix" values="0 0 0 0 0 0 0 0 0 0 0 0 0 0 0 0 0 0 0.88 0"/>
<feBlend mode="normal" in2="BackgroundImageFix" result="effect1_dropShadow_224_6307"/>
<feBlend mode="normal" in="SourceGraphic" in2="effect1_dropShadow_224_6307" result="shape"/>
</filter>
<filter id="filter1_d_224_6307" x="96.6953" y="19.3862" width="163.563" height="158.958" filterUnits="userSpaceOnUse" color-interpolation-filters="sRGB">
<feFlood flood-opacity="0" result="BackgroundImageFix"/>
<feColorMatrix in="SourceAlpha" type="matrix" values="0 0 0 0 0 0 0 0 0 0 0 0 0 0 0 0 0 0 127 0" result="hardAlpha"/>
<feOffset dx="32.299" dy="27.6849"/>
<feGaussianBlur stdDeviation="11.5354"/>
<feComposite in2="hardAlpha" operator="out"/>
<feColorMatrix type="matrix" values="0 0 0 0 0 0 0 0 0 0 0 0 0 0 0 0 0 0 0.1 0"/>
<feBlend mode="normal" in2="BackgroundImageFix" result="effect1_dropShadow_224_6307"/>
<feBlend mode="normal" in="SourceGraphic" in2="effect1_dropShadow_224_6307" result="shape"/>
</filter>
<linearGradient id="paint0_linear_224_6307" x1="188.989" y1="111.691" x2="112.591" y2="35.289" gradientUnits="userSpaceOnUse">
<stop stop-color="#EBEAEA"/>
<stop offset="1" stop-color="white"/>
</linearGradient>
</defs>
</svg>
