<svg width="303" height="271" viewBox="0 0 303 271" fill="none" xmlns="http://www.w3.org/2000/svg">
<g filter="url(#filter0_d_224_6274)">
<line x1="18.7754" y1="72.2739" x2="284.55" y2="72.2739" stroke="white" stroke-width="0.922828"/>
</g>
<rect x="18.7754" y="72.7354" width="265.775" height="42.4501" fill="white"/>
<path d="M210.765 73.4914H207.817C207.817 41.9321 182.14 16.2583 150.584 16.2583C119.028 16.2583 93.3305 41.9286 93.3305 73.4914H90.3652C90.3652 40.2955 117.371 13.2861 150.571 13.2861C183.77 13.2861 210.765 40.2955 210.765 73.4914Z" fill="#2E4272"/>
<g filter="url(#filter1_d_224_6274)">
<path d="M96.4842 74.8544C96.8343 88.7322 102.506 101.944 112.326 111.757C122.146 121.57 135.362 127.232 149.24 127.572C179.931 128.309 205.262 103.085 204.65 72.3908C204.451 62.5413 201.567 52.9328 196.309 44.6021C191.05 36.2715 183.616 29.5349 174.81 25.1193C171.058 23.2285 167.097 21.7861 163.008 20.8219C159.289 19.9481 155.488 19.4703 151.669 19.3964C120.947 18.7909 95.7091 44.1393 96.4842 74.8544Z" fill="url(#paint0_linear_224_6274)"/>
</g>
<path d="M187.185 109.782C207.311 89.6565 207.377 57.0925 187.332 37.0482C167.288 17.0038 134.724 17.0696 114.598 37.195C94.4731 57.3204 94.4073 89.8844 114.452 109.929C134.496 129.973 167.06 129.907 187.185 109.782Z" fill="#F9F9F9"/>
<path d="M141.688 59.9856C144.399 59.9856 146.595 61.2824 148.277 63.8758C149.679 66.0252 150.38 68.5836 150.38 71.5508C150.38 75.1022 149.492 77.9526 147.716 80.1021C146.128 82.0413 144.118 83.0109 141.688 83.0109C138.861 83.0109 136.665 81.7726 135.1 79.296C133.768 77.2166 133.102 74.6349 133.102 71.5508C133.102 68.093 133.978 65.2542 135.731 63.0347C137.296 61.002 139.282 59.9856 141.688 59.9856ZM141.758 64.1912C139.399 64.1912 138.219 66.5743 138.219 71.3406C138.219 73.7471 138.558 75.6395 139.235 77.018C139.843 78.2563 140.649 78.8755 141.653 78.8755C142.775 78.8755 143.651 78.2096 144.282 76.8778C144.936 75.5461 145.263 73.7003 145.263 71.3406C145.263 66.5743 144.095 64.1912 141.758 64.1912ZM153.234 82.5903V78.4199L158.631 72.0765C160.22 70.2308 161.19 69.0158 161.54 68.4317C161.891 67.8476 162.066 67.1584 162.066 66.364C162.066 65.7098 161.832 65.1725 161.365 64.7519C160.898 64.3314 160.314 64.1211 159.613 64.1211C158.234 64.1211 156.704 64.6935 155.022 65.8383L152.954 62.8244C155.361 60.9085 157.884 59.9506 160.524 59.9506C162.557 59.9506 164.169 60.488 165.36 61.5627C166.552 62.6141 167.148 64.1094 167.148 66.0486C167.148 68.0579 166.26 70.2658 164.484 72.6723C163.807 73.5835 162.066 75.5811 159.262 78.6652H166.972V82.5903H153.234Z" fill="#2E4272"/>
<path d="M102.301 223.384H98.2753V221.074H109.539V223.384H105.205V235H102.301V223.384ZM113.719 225.012L113.983 225.892C114.13 225.584 114.408 225.32 114.819 225.1C115.244 224.865 115.677 224.748 116.117 224.748C117.437 224.748 118.42 225.371 119.065 226.618L116.733 227.894C116.249 227.337 115.736 227.058 115.193 227.058C114.694 227.058 114.328 227.315 114.093 227.828V235H111.365V225.012H113.719ZM128.161 235H125.939L125.719 234.054C124.751 234.861 123.769 235.264 122.771 235.264C120.557 235.264 119.449 234.186 119.449 232.03C119.449 230.959 119.911 230.123 120.835 229.522C121.774 228.906 123.16 228.598 124.993 228.598H125.455V228.554C125.455 227.923 125.323 227.491 125.059 227.256C124.795 227.021 124.319 226.904 123.629 226.904C122.661 226.904 121.774 227.212 120.967 227.828C120.703 227.344 120.454 226.867 120.219 226.398C121.055 225.753 121.781 225.32 122.397 225.1C123.028 224.865 123.776 224.748 124.641 224.748C126.988 224.748 128.161 226.215 128.161 229.148V235ZM125.367 230.292H125.037C124.201 230.292 123.527 230.439 123.013 230.732C122.5 231.025 122.243 231.414 122.243 231.898C122.243 232.807 122.639 233.262 123.431 233.262C123.915 233.262 124.341 233.123 124.707 232.844C125.074 232.565 125.294 232.213 125.367 231.788V230.292ZM133.836 225.98C134.13 225.643 134.57 225.357 135.156 225.122C135.743 224.873 136.3 224.748 136.828 224.748C138.09 224.748 138.999 225.093 139.556 225.782C140.128 226.471 140.414 227.586 140.414 229.126V235H137.62V229.236C137.62 227.799 136.982 227.08 135.706 227.08C135.384 227.08 135.039 227.153 134.672 227.3C134.306 227.432 134.056 227.586 133.924 227.762V235H131.152V225.012H133.506C133.58 225.393 133.653 225.716 133.726 225.98H133.836ZM149.121 227.432C148.402 226.963 147.581 226.728 146.657 226.728C145.953 226.728 145.601 227.029 145.601 227.63C145.601 228.187 146.078 228.583 147.031 228.818C148.219 229.111 149.026 229.441 149.451 229.808C150.067 230.336 150.375 231.128 150.375 232.184C150.375 233.123 150.038 233.871 149.363 234.428C148.703 234.985 147.808 235.264 146.679 235.264C145.08 235.264 143.731 234.809 142.631 233.9L143.643 232.36C144.406 232.961 145.322 233.262 146.393 233.262C146.818 233.262 147.163 233.159 147.427 232.954C147.691 232.749 147.823 232.477 147.823 232.14C147.823 231.524 147.302 231.121 146.261 230.93C144.032 230.505 142.917 229.419 142.917 227.674C142.917 226.838 143.254 226.141 143.929 225.584C144.618 225.027 145.476 224.748 146.503 224.748C147.896 224.748 149.106 225.151 150.133 225.958L149.121 227.432ZM155.473 220.81V235H152.701V222.262L155.473 220.81ZM166.511 235H164.289L164.069 234.054C163.101 234.861 162.118 235.264 161.121 235.264C158.906 235.264 157.799 234.186 157.799 232.03C157.799 230.959 158.261 230.123 159.185 229.522C160.124 228.906 161.51 228.598 163.343 228.598H163.805V228.554C163.805 227.923 163.673 227.491 163.409 227.256C163.145 227.021 162.668 226.904 161.979 226.904C161.011 226.904 160.124 227.212 159.317 227.828C159.053 227.344 158.804 226.867 158.569 226.398C159.405 225.753 160.131 225.32 160.747 225.1C161.378 224.865 162.126 224.748 162.991 224.748C165.338 224.748 166.511 226.215 166.511 229.148V235ZM163.717 230.292H163.387C162.551 230.292 161.876 230.439 161.363 230.732C160.85 231.025 160.593 231.414 160.593 231.898C160.593 232.807 160.989 233.262 161.781 233.262C162.265 233.262 162.69 233.123 163.057 232.844C163.424 232.565 163.644 232.213 163.717 231.788V230.292ZM175.75 227.234H172.89V232.184C172.89 232.917 173.132 233.284 173.616 233.284C174.056 233.284 174.606 233.093 175.266 232.712L176.19 234.12C175.149 234.941 173.997 235.352 172.736 235.352C170.976 235.352 170.096 234.384 170.096 232.448V227.234H168.71V225.012H170.118V223.23C170.851 222.834 171.783 222.343 172.912 221.756V225.012H175.75V227.234ZM180.93 225.012V235H178.136V225.012H180.93ZM177.806 222.46C177.806 221.991 177.967 221.587 178.29 221.25C178.627 220.898 179.023 220.722 179.478 220.722C179.962 220.722 180.373 220.891 180.71 221.228C181.062 221.565 181.238 221.976 181.238 222.46C181.238 222.973 181.069 223.391 180.732 223.714C180.409 224.037 179.991 224.198 179.478 224.198C178.994 224.198 178.591 224.037 178.268 223.714C177.96 223.377 177.806 222.959 177.806 222.46ZM188.101 224.748C189.744 224.748 191.02 225.327 191.929 226.486C192.692 227.454 193.073 228.635 193.073 230.028C193.073 231.656 192.508 232.976 191.379 233.988C190.44 234.839 189.348 235.264 188.101 235.264C186.649 235.264 185.432 234.721 184.449 233.636C183.569 232.653 183.129 231.451 183.129 230.028C183.129 228.415 183.62 227.109 184.603 226.112C185.498 225.203 186.664 224.748 188.101 224.748ZM188.101 233.196C189.524 233.196 190.235 232.14 190.235 230.028C190.235 227.828 189.524 226.728 188.101 226.728C186.678 226.728 185.967 227.828 185.967 230.028C185.967 232.14 186.678 233.196 188.101 233.196ZM198.096 225.98C198.389 225.643 198.829 225.357 199.416 225.122C200.003 224.873 200.56 224.748 201.088 224.748C202.349 224.748 203.259 225.093 203.816 225.782C204.388 226.471 204.674 227.586 204.674 229.126V235H201.88V229.236C201.88 227.799 201.242 227.08 199.966 227.08C199.643 227.08 199.299 227.153 198.932 227.3C198.565 227.432 198.316 227.586 198.184 227.762V235H195.412V225.012H197.766C197.839 225.393 197.913 225.716 197.986 225.98H198.096ZM91.5715 248.218C91.3075 248.614 90.8968 249.208 90.3395 250C89.1662 249.487 88.1175 249.23 87.1935 249.23C85.9762 249.23 85.3675 249.685 85.3675 250.594C85.3675 251.005 85.5068 251.327 85.7855 251.562C86.0642 251.797 86.6435 252.083 87.5235 252.42C89.1075 253.036 90.2442 253.703 90.9335 254.422C91.6375 255.141 91.9895 256.006 91.9895 257.018C91.9895 258.441 91.4542 259.541 90.3835 260.318C89.5035 260.949 88.4108 261.264 87.1055 261.264C85.5655 261.264 83.9228 260.707 82.1775 259.592L83.4535 257.81C84.3042 258.382 85.3968 258.668 86.7315 258.668C88.2422 258.668 88.9975 258.059 88.9975 256.842C88.9975 256.05 88.1835 255.375 86.5555 254.818C83.9302 253.938 82.6175 252.53 82.6175 250.594C82.6175 249.421 83.0575 248.489 83.9375 247.8C84.7588 247.14 85.8515 246.81 87.2155 246.81C88.7702 246.81 90.2222 247.279 91.5715 248.218ZM96.5684 251.012L96.8324 251.958C97.4484 251.151 98.3138 250.748 99.4284 250.748C100.998 250.748 102.222 251.276 103.102 252.332C103.85 253.241 104.224 254.4 104.224 255.808C104.224 257.656 103.667 259.079 102.552 260.076C101.672 260.868 100.594 261.264 99.3184 261.264C98.9371 261.264 98.5338 261.183 98.1084 261.022C97.6831 260.861 97.3824 260.677 97.2064 260.472V264.916H94.4784V251.012H96.5684ZM97.2064 254.906V257.458C97.2064 257.971 97.3824 258.411 97.7344 258.778C98.1011 259.145 98.5264 259.328 99.0104 259.328C99.6704 259.328 100.22 259.013 100.66 258.382C101.1 257.751 101.32 256.967 101.32 256.028C101.32 255.031 101.122 254.239 100.726 253.652C100.345 253.051 99.8244 252.75 99.1644 252.75C98.6511 252.75 98.1964 252.97 97.8004 253.41C97.4044 253.835 97.2064 254.334 97.2064 254.906ZM115.793 256.908H108.929C108.987 257.583 109.259 258.147 109.743 258.602C110.241 259.042 110.828 259.262 111.503 259.262C112.456 259.262 113.453 258.969 114.495 258.382L115.199 259.856C114.143 260.795 112.823 261.264 111.239 261.264C109.537 261.264 108.21 260.78 107.257 259.812C106.347 258.903 105.893 257.649 105.893 256.05C105.893 254.481 106.406 253.183 107.433 252.156C108.357 251.217 109.53 250.748 110.953 250.748C112.537 250.748 113.769 251.283 114.649 252.354C115.411 253.263 115.793 254.444 115.793 255.896V256.908ZM108.775 254.862H113.021C112.947 253.425 112.251 252.706 110.931 252.706C109.655 252.706 108.936 253.425 108.775 254.862ZM126.515 259.724C125.473 260.751 124.241 261.264 122.819 261.264C121.117 261.264 119.768 260.721 118.771 259.636C117.905 258.683 117.473 257.487 117.473 256.05C117.473 254.437 118.03 253.117 119.145 252.09C120.113 251.195 121.293 250.748 122.687 250.748C124.227 250.748 125.466 251.232 126.405 252.2L125.569 253.696C124.821 253.036 124.007 252.706 123.127 252.706C122.305 252.706 121.631 253.029 121.103 253.674C120.575 254.305 120.311 255.119 120.311 256.116C120.311 257.04 120.567 257.803 121.081 258.404C121.609 258.991 122.276 259.284 123.083 259.284C124.051 259.284 124.879 258.925 125.569 258.206L126.515 259.724ZM131.301 251.012V261H128.507V251.012H131.301ZM128.177 248.46C128.177 247.991 128.338 247.587 128.661 247.25C128.998 246.898 129.394 246.722 129.849 246.722C130.333 246.722 130.744 246.891 131.081 247.228C131.433 247.565 131.609 247.976 131.609 248.46C131.609 248.973 131.44 249.391 131.103 249.714C130.78 250.037 130.362 250.198 129.849 250.198C129.365 250.198 128.962 250.037 128.639 249.714C128.331 249.377 128.177 248.959 128.177 248.46ZM142.212 261H139.99L139.77 260.054C138.802 260.861 137.819 261.264 136.822 261.264C134.607 261.264 133.5 260.186 133.5 258.03C133.5 256.959 133.962 256.123 134.886 255.522C135.825 254.906 137.211 254.598 139.044 254.598H139.506V254.554C139.506 253.923 139.374 253.491 139.11 253.256C138.846 253.021 138.369 252.904 137.68 252.904C136.712 252.904 135.825 253.212 135.018 253.828C134.754 253.344 134.505 252.867 134.27 252.398C135.106 251.753 135.832 251.32 136.448 251.1C137.079 250.865 137.827 250.748 138.692 250.748C141.039 250.748 142.212 252.215 142.212 255.148V261ZM139.418 256.292H139.088C138.252 256.292 137.577 256.439 137.064 256.732C136.551 257.025 136.294 257.414 136.294 257.898C136.294 258.807 136.69 259.262 137.482 259.262C137.966 259.262 138.391 259.123 138.758 258.844C139.125 258.565 139.345 258.213 139.418 257.788V256.292ZM147.975 246.81V261H145.203V248.262L147.975 246.81ZM153.645 251.012V261H150.851V251.012H153.645ZM150.521 248.46C150.521 247.991 150.682 247.587 151.005 247.25C151.342 246.898 151.738 246.722 152.193 246.722C152.677 246.722 153.088 246.891 153.425 247.228C153.777 247.565 153.953 247.976 153.953 248.46C153.953 248.973 153.784 249.391 153.447 249.714C153.124 250.037 152.706 250.198 152.193 250.198C151.709 250.198 151.306 250.037 150.983 249.714C150.675 249.377 150.521 248.959 150.521 248.46ZM163.984 261H155.338V258.734L160.508 253.234H155.646V251.012H163.852V253.3L158.616 258.8H163.984V261ZM173.859 261H171.637L171.417 260.054C170.449 260.861 169.466 261.264 168.469 261.264C166.254 261.264 165.147 260.186 165.147 258.03C165.147 256.959 165.609 256.123 166.533 255.522C167.471 254.906 168.857 254.598 170.691 254.598H171.153V254.554C171.153 253.923 171.021 253.491 170.757 253.256C170.493 253.021 170.016 252.904 169.327 252.904C168.359 252.904 167.471 253.212 166.665 253.828C166.401 253.344 166.151 252.867 165.917 252.398C166.753 251.753 167.479 251.32 168.095 251.1C168.725 250.865 169.473 250.748 170.339 250.748C172.685 250.748 173.859 252.215 173.859 255.148V261ZM171.065 256.292H170.735C169.899 256.292 169.224 256.439 168.711 256.732C168.197 257.025 167.941 257.414 167.941 257.898C167.941 258.807 168.337 259.262 169.129 259.262C169.613 259.262 170.038 259.123 170.405 258.844C170.771 258.565 170.991 258.213 171.065 257.788V256.292ZM183.098 253.234H180.238V258.184C180.238 258.917 180.48 259.284 180.964 259.284C181.404 259.284 181.954 259.093 182.614 258.712L183.538 260.12C182.496 260.941 181.345 261.352 180.084 261.352C178.324 261.352 177.444 260.384 177.444 258.448V253.234H176.058V251.012H177.466V249.23C178.199 248.834 179.13 248.343 180.26 247.756V251.012H183.098V253.234ZM188.278 251.012V261H185.484V251.012H188.278ZM185.154 248.46C185.154 247.991 185.315 247.587 185.638 247.25C185.975 246.898 186.371 246.722 186.826 246.722C187.31 246.722 187.72 246.891 188.058 247.228C188.41 247.565 188.586 247.976 188.586 248.46C188.586 248.973 188.417 249.391 188.08 249.714C187.757 250.037 187.339 250.198 186.826 250.198C186.342 250.198 185.938 250.037 185.616 249.714C185.308 249.377 185.154 248.959 185.154 248.46ZM195.449 250.748C197.091 250.748 198.367 251.327 199.277 252.486C200.039 253.454 200.421 254.635 200.421 256.028C200.421 257.656 199.856 258.976 198.727 259.988C197.788 260.839 196.695 261.264 195.449 261.264C193.997 261.264 192.779 260.721 191.797 259.636C190.917 258.653 190.477 257.451 190.477 256.028C190.477 254.415 190.968 253.109 191.951 252.112C192.845 251.203 194.011 250.748 195.449 250.748ZM195.449 259.196C196.871 259.196 197.583 258.14 197.583 256.028C197.583 253.828 196.871 252.728 195.449 252.728C194.026 252.728 193.315 253.828 193.315 256.028C193.315 258.14 194.026 259.196 195.449 259.196ZM205.444 251.98C205.737 251.643 206.177 251.357 206.764 251.122C207.35 250.873 207.908 250.748 208.436 250.748C209.697 250.748 210.606 251.093 211.164 251.782C211.736 252.471 212.022 253.586 212.022 255.126V261H209.228V255.236C209.228 253.799 208.59 253.08 207.314 253.08C206.991 253.08 206.646 253.153 206.28 253.3C205.913 253.432 205.664 253.586 205.532 253.762V261H202.76V251.012H205.114C205.187 251.393 205.26 251.716 205.334 251.98H205.444ZM220.728 253.432C220.01 252.963 219.188 252.728 218.264 252.728C217.56 252.728 217.208 253.029 217.208 253.63C217.208 254.187 217.685 254.583 218.638 254.818C219.826 255.111 220.633 255.441 221.058 255.808C221.674 256.336 221.982 257.128 221.982 258.184C221.982 259.123 221.645 259.871 220.97 260.428C220.31 260.985 219.416 261.264 218.286 261.264C216.688 261.264 215.338 260.809 214.238 259.9L215.25 258.36C216.013 258.961 216.93 259.262 218 259.262C218.426 259.262 218.77 259.159 219.034 258.954C219.298 258.749 219.43 258.477 219.43 258.14C219.43 257.524 218.91 257.121 217.868 256.93C215.639 256.505 214.524 255.419 214.524 253.674C214.524 252.838 214.862 252.141 215.536 251.584C216.226 251.027 217.084 250.748 218.11 250.748C219.504 250.748 220.714 251.151 221.74 251.958L220.728 253.432Z" fill="#3B3B3B"/>
<path d="M139.775 182.5V171.904C139.794 171.835 139.814 171.766 139.832 171.696C139.99 171.083 140.331 170.6 140.887 170.297C141.133 170.163 141.414 170.097 141.68 170H152.276C152.288 170.01 152.302 170.018 152.317 170.024C153.587 170.348 154.18 171.108 154.18 172.426C154.18 175.638 154.18 178.85 154.18 182.061C154.18 183.469 153.248 184.399 151.841 184.4C150.588 184.4 149.335 184.4 148.083 184.4C147.921 184.4 147.826 184.436 147.74 184.591C146.903 186.102 145.613 186.988 143.926 187.309C143.417 187.405 143.024 187.082 143.009 186.563C143.002 186.32 143.009 186.076 143.009 185.832C143.009 185.362 143.009 184.894 143.009 184.399C142.624 184.399 142.268 184.408 141.913 184.399C141.463 184.385 141.029 184.233 140.668 183.965C140.307 183.696 140.037 183.323 139.895 182.897C139.844 182.766 139.813 182.632 139.775 182.5ZM149.151 176.164C149.298 176.164 149.427 176.164 149.556 176.164C149.686 176.164 149.817 176.168 149.947 176.164C150.098 176.16 150.245 176.108 150.364 176.015C150.484 175.922 150.572 175.794 150.614 175.649C150.761 175.158 150.411 174.712 149.861 174.705C149.235 174.697 148.608 174.705 147.981 174.702C147.896 174.702 147.811 174.693 147.706 174.688C147.706 174.533 147.711 174.403 147.706 174.274C147.686 173.845 147.386 173.537 146.99 173.529C146.593 173.521 146.27 173.839 146.248 174.277C146.242 174.412 146.248 174.547 146.248 174.692C146.149 174.697 146.085 174.702 146.021 174.703C145.386 174.703 144.752 174.703 144.117 174.703C143.643 174.706 143.309 175.014 143.306 175.434C143.303 175.855 143.632 176.16 144.111 176.165C144.337 176.165 144.567 176.165 144.806 176.165C144.921 177.182 145.221 178.113 145.848 178.932C145.276 179.215 144.654 179.379 144.017 179.416C143.594 179.448 143.29 179.775 143.308 180.167C143.313 180.267 143.337 180.365 143.381 180.455C143.424 180.546 143.486 180.626 143.561 180.692C143.636 180.758 143.724 180.808 143.82 180.839C143.915 180.87 144.016 180.881 144.115 180.872C145.071 180.816 145.975 180.572 146.799 180.076C146.852 180.036 146.916 180.014 146.983 180.014C147.049 180.014 147.114 180.036 147.167 180.076C147.992 180.571 148.895 180.815 149.851 180.87C149.949 180.879 150.047 180.868 150.141 180.838C150.234 180.808 150.321 180.76 150.396 180.697C150.471 180.633 150.532 180.556 150.577 180.468C150.622 180.381 150.648 180.286 150.656 180.188C150.689 179.789 150.38 179.451 149.947 179.413C149.809 179.401 149.671 179.392 149.535 179.371C149.046 179.294 148.571 179.171 148.119 178.925C148.742 178.102 149.033 177.173 149.151 176.164Z" fill="#2E4272"/>
<path d="M162.872 195H152.276C152.256 194.987 152.234 194.975 152.211 194.967C151.007 194.681 150.373 193.882 150.373 192.646C150.373 190.482 150.373 188.317 150.373 186.153V185.867C150.941 185.867 151.484 185.873 152.026 185.867C152.781 185.866 153.515 185.622 154.121 185.171C155.104 184.44 155.613 183.453 155.641 182.227C155.652 181.693 155.641 181.158 155.641 180.634C155.68 180.617 155.694 180.604 155.706 180.604C155.966 180.604 156.227 180.59 156.487 180.604C156.648 180.613 156.728 180.556 156.806 180.416C157.643 178.903 158.934 178.018 160.621 177.695C161.133 177.597 161.523 177.918 161.54 178.438C161.546 178.624 161.54 178.812 161.54 178.999C161.54 179.526 161.54 180.052 161.54 180.602C161.923 180.602 162.28 180.587 162.635 180.602C163.502 180.648 164.149 181.058 164.54 181.839C164.645 182.047 164.695 182.281 164.77 182.503V193.096C164.753 193.157 164.733 193.219 164.718 193.281C164.561 193.913 164.213 194.408 163.636 194.713C163.403 194.843 163.13 194.907 162.872 195ZM161.248 190.67C161.223 190.565 161.189 190.461 161.147 190.361C160.187 188.434 159.225 186.509 158.261 184.586C158.117 184.296 157.892 184.127 157.57 184.13C157.259 184.13 157.039 184.298 156.899 184.579C155.934 186.512 154.968 188.445 154.001 190.377C153.806 190.768 153.936 191.198 154.298 191.385C154.675 191.58 155.093 191.442 155.305 191.039C155.456 190.752 155.588 190.453 155.749 190.172C155.777 190.129 155.814 190.092 155.858 190.065C155.901 190.038 155.95 190.021 156.001 190.015C157.05 190.004 158.099 190.01 159.149 190.004C159.208 189.998 159.267 190.012 159.317 190.044C159.367 190.077 159.405 190.125 159.423 190.181C159.568 190.49 159.719 190.797 159.884 191.093C159.961 191.238 160.087 191.352 160.239 191.415C160.391 191.478 160.56 191.486 160.717 191.438C161.026 191.355 161.252 191.057 161.248 190.67Z" fill="#2E4272"/>
<path d="M139.775 186.7C139.799 186.669 139.82 186.638 139.84 186.605C140.021 186.269 140.337 186.109 140.666 186.191C141.022 186.279 141.234 186.55 141.241 186.939C141.261 188.144 141.64 189.222 142.406 190.153C143.275 191.212 144.4 191.824 145.756 192.012C145.836 192.023 145.917 192.022 146.054 192.03C145.966 191.933 145.907 191.874 145.853 191.81C145.725 191.67 145.656 191.486 145.66 191.296C145.664 191.106 145.741 190.926 145.874 190.791C146.005 190.659 146.182 190.582 146.368 190.578C146.554 190.574 146.734 190.642 146.871 190.769C147.394 191.268 147.906 191.78 148.406 192.305C148.531 192.437 148.599 192.614 148.596 192.796C148.593 192.979 148.518 193.153 148.388 193.281C147.897 193.791 147.393 194.289 146.886 194.779C146.785 194.876 146.639 194.924 146.514 194.996H146.27C146.252 194.98 146.233 194.967 146.212 194.956C145.611 194.732 145.476 194.149 145.918 193.682C145.964 193.633 146.003 193.579 146.062 193.509C145.993 193.499 145.962 193.491 145.932 193.489C143.206 193.285 140.919 191.495 140.091 188.896C139.945 188.436 139.879 187.95 139.776 187.476L139.775 186.7Z" fill="#2E4272"/>
<path d="M164.777 178.203C164.668 178.464 164.535 178.699 164.237 178.783C163.762 178.918 163.317 178.588 163.304 178.07C163.277 177.082 163.026 176.162 162.492 175.324C161.614 173.945 160.058 173.014 158.493 172.963C158.569 173.047 158.623 173.106 158.679 173.167C158.947 173.474 158.943 173.905 158.671 174.183C158.604 174.252 158.524 174.308 158.436 174.346C158.348 174.384 158.253 174.404 158.157 174.404C158.061 174.405 157.966 174.387 157.877 174.351C157.788 174.314 157.707 174.26 157.639 174.192C157.136 173.706 156.641 173.212 156.155 172.708C156.087 172.643 156.033 172.564 155.996 172.477C155.959 172.391 155.939 172.297 155.939 172.203C155.939 172.108 155.959 172.014 155.996 171.928C156.033 171.841 156.087 171.762 156.155 171.697C156.642 171.194 157.139 170.701 157.64 170.214C157.736 170.12 157.872 170.07 157.989 170H158.331C158.348 170.016 158.366 170.03 158.386 170.042C158.939 170.303 159.044 170.85 158.626 171.291C158.58 171.341 158.536 171.394 158.473 171.466C158.586 171.48 158.668 171.494 158.746 171.501C161.624 171.773 163.946 173.809 164.596 176.639C164.677 176.993 164.717 177.355 164.776 177.715L164.777 178.203Z" fill="#2E4272"/>
<path d="M146.287 176.177H147.63C147.664 176.664 147.344 177.537 146.967 177.976C146.569 177.444 146.374 176.849 146.287 176.177Z" fill="#2E4272"/>
<path d="M156.564 188.525L157.578 186.499C157.923 187.187 158.251 187.842 158.592 188.525H156.564Z" fill="#2E4272"/>
<defs>
<filter id="filter0_d_224_6274" x="0.503389" y="47.0807" width="302.319" height="37.4669" filterUnits="userSpaceOnUse" color-interpolation-filters="sRGB">
<feFlood flood-opacity="0" result="BackgroundImageFix"/>
<feColorMatrix in="SourceAlpha" type="matrix" values="0 0 0 0 0 0 0 0 0 0 0 0 0 0 0 0 0 0 127 0" result="hardAlpha"/>
<feOffset dy="-6.4598"/>
<feGaussianBlur stdDeviation="9.136"/>
<feComposite in2="hardAlpha" operator="out"/>
<feColorMatrix type="matrix" values="0 0 0 0 0 0 0 0 0 0 0 0 0 0 0 0 0 0 0.88 0"/>
<feBlend mode="normal" in2="BackgroundImageFix" result="effect1_dropShadow_224_6274"/>
<feBlend mode="normal" in="SourceGraphic" in2="effect1_dropShadow_224_6274" result="shape"/>
</filter>
<filter id="filter1_d_224_6274" x="96.4668" y="19.3857" width="163.563" height="158.958" filterUnits="userSpaceOnUse" color-interpolation-filters="sRGB">
<feFlood flood-opacity="0" result="BackgroundImageFix"/>
<feColorMatrix in="SourceAlpha" type="matrix" values="0 0 0 0 0 0 0 0 0 0 0 0 0 0 0 0 0 0 127 0" result="hardAlpha"/>
<feOffset dx="32.299" dy="27.6849"/>
<feGaussianBlur stdDeviation="11.5354"/>
<feComposite in2="hardAlpha" operator="out"/>
<feColorMatrix type="matrix" values="0 0 0 0 0 0 0 0 0 0 0 0 0 0 0 0 0 0 0.1 0"/>
<feBlend mode="normal" in2="BackgroundImageFix" result="effect1_dropShadow_224_6274"/>
<feBlend mode="normal" in="SourceGraphic" in2="effect1_dropShadow_224_6274" result="shape"/>
</filter>
<linearGradient id="paint0_linear_224_6274" x1="188.761" y1="111.69" x2="112.362" y2="35.2885" gradientUnits="userSpaceOnUse">
<stop stop-color="#EBEAEA"/>
<stop offset="1" stop-color="white"/>
</linearGradient>
</defs>
</svg>
