<svg width="303" height="271" viewBox="0 0 303 271" fill="none" xmlns="http://www.w3.org/2000/svg">
<g filter="url(#filter0_d_224_6293)">
<line x1="18.5488" y1="72.2739" x2="284.323" y2="72.2739" stroke="white" stroke-width="0.922828"/>
</g>
<rect x="18.5488" y="72.7354" width="265.775" height="42.4501" fill="white"/>
<path d="M210.543 73.4914H207.595C207.595 41.9321 181.918 16.2583 150.362 16.2583C118.806 16.2583 93.1079 41.9286 93.1079 73.4914H90.1426C90.1426 40.2955 117.148 13.2861 150.348 13.2861C183.547 13.2861 210.543 40.2955 210.543 73.4914Z" fill="#E2A52F"/>
<g filter="url(#filter1_d_224_6293)">
<path d="M96.2615 74.8544C96.6116 88.7322 102.283 101.944 112.103 111.757C121.923 121.57 135.139 127.232 149.017 127.572C179.708 128.309 205.039 103.085 204.427 72.3908C204.229 62.5413 201.345 52.9328 196.086 44.6021C190.827 36.2715 183.394 29.5349 174.587 25.1193C170.835 23.2285 166.874 21.7861 162.785 20.8219C159.066 19.9481 155.265 19.4703 151.446 19.3964C120.724 18.7909 95.4865 44.1393 96.2615 74.8544Z" fill="url(#paint0_linear_224_6293)"/>
</g>
<path d="M186.959 109.782C207.084 89.6565 207.15 57.0925 187.106 37.0482C167.061 17.0038 134.497 17.0696 114.372 37.195C94.2465 57.3204 94.1808 89.8844 114.225 109.929C134.269 129.973 166.833 129.907 186.959 109.782Z" fill="#F9F9F9"/>
<path d="M141.709 59.9856C144.419 59.9856 146.615 61.2824 148.298 63.8758C149.699 66.0252 150.4 68.5836 150.4 71.5508C150.4 75.1022 149.512 77.9526 147.737 80.1021C146.148 82.0413 144.139 83.0109 141.709 83.0109C138.882 83.0109 136.686 81.7726 135.12 79.296C133.788 77.2166 133.123 74.6349 133.123 71.5508C133.123 68.093 133.999 65.2542 135.751 63.0347C137.316 61.002 139.302 59.9856 141.709 59.9856ZM141.779 64.1912C139.419 64.1912 138.239 66.5743 138.239 71.3406C138.239 73.7471 138.578 75.6395 139.256 77.018C139.863 78.2563 140.669 78.8755 141.674 78.8755C142.795 78.8755 143.671 78.2096 144.302 76.8778C144.956 75.5461 145.284 73.7003 145.284 71.3406C145.284 66.5743 144.115 64.1912 141.779 64.1912ZM155.953 72.8125V68.8172H159.388H159.668C160.486 68.8172 161.047 68.6537 161.351 68.3266C161.678 67.9995 161.841 67.4037 161.841 66.5393C161.841 65.7916 161.631 65.1958 161.21 64.7519C160.79 64.308 160.229 64.086 159.528 64.086C158.08 64.086 156.596 64.7636 155.077 66.1187L153.29 62.9295C155.253 60.9669 157.484 59.9856 159.984 59.9856C162.04 59.9856 163.734 60.5698 165.065 61.738C166.35 62.8361 166.993 64.2963 166.993 66.1187C166.993 67.2869 166.806 68.1864 166.432 68.8172C166.058 69.4481 165.392 69.9854 164.435 70.4294C166.678 71.3639 167.799 73.0929 167.799 75.6162C167.799 78.4199 166.853 80.4408 164.96 81.6791C163.652 82.5436 162.005 82.9758 160.019 82.9758C158.944 82.9758 157.694 82.6721 156.269 82.0646C154.844 81.4572 153.71 80.7446 152.869 79.9268L154.867 76.9479C156.082 78.1161 157.694 78.7002 159.703 78.7002C160.615 78.7002 161.339 78.4315 161.876 77.8942C162.414 77.3568 162.682 76.6325 162.682 75.7213C162.682 73.7821 161.584 72.8125 159.388 72.8125H155.953Z" fill="#E2A52F"/>
<path d="M98.1526 235V221.096C98.3579 221.052 98.9372 220.993 99.8906 220.92C100.844 220.847 101.57 220.81 102.069 220.81C105.618 220.81 107.393 222.262 107.393 225.166C107.393 226.97 106.777 228.29 105.545 229.126C104.723 229.698 103.755 229.984 102.641 229.984C101.761 229.984 101.225 229.925 101.035 229.808V235H98.1526ZM101.035 223.274V227.476C101.416 227.623 101.893 227.696 102.465 227.696C103.051 227.696 103.513 227.491 103.851 227.08C104.188 226.655 104.357 226.075 104.357 225.342C104.357 223.861 103.704 223.12 102.399 223.12C101.651 223.12 101.196 223.171 101.035 223.274ZM112.123 225.012L112.387 225.892C112.534 225.584 112.813 225.32 113.223 225.1C113.649 224.865 114.081 224.748 114.521 224.748C115.841 224.748 116.824 225.371 117.469 226.618L115.137 227.894C114.653 227.337 114.14 227.058 113.597 227.058C113.099 227.058 112.732 227.315 112.497 227.828V235H109.769V225.012H112.123ZM121.412 225.012V235H118.618V225.012H121.412ZM118.288 222.46C118.288 221.991 118.45 221.587 118.772 221.25C119.11 220.898 119.506 220.722 119.96 220.722C120.444 220.722 120.855 220.891 121.192 221.228C121.544 221.565 121.72 221.976 121.72 222.46C121.72 222.973 121.552 223.391 121.214 223.714C120.892 224.037 120.474 224.198 119.96 224.198C119.476 224.198 119.073 224.037 118.75 223.714C118.442 223.377 118.288 222.959 118.288 222.46ZM132.653 233.724C131.612 234.751 130.38 235.264 128.957 235.264C127.256 235.264 125.907 234.721 124.909 233.636C124.044 232.683 123.611 231.487 123.611 230.05C123.611 228.437 124.169 227.117 125.283 226.09C126.251 225.195 127.432 224.748 128.825 224.748C130.365 224.748 131.605 225.232 132.543 226.2L131.707 227.696C130.959 227.036 130.145 226.706 129.265 226.706C128.444 226.706 127.769 227.029 127.241 227.674C126.713 228.305 126.449 229.119 126.449 230.116C126.449 231.04 126.706 231.803 127.219 232.404C127.747 232.991 128.415 233.284 129.221 233.284C130.189 233.284 131.018 232.925 131.707 232.206L132.653 233.724ZM137.44 225.012V235H134.646V225.012H137.44ZM134.316 222.46C134.316 221.991 134.477 221.587 134.8 221.25C135.137 220.898 135.533 220.722 135.988 220.722C136.472 220.722 136.882 220.891 137.22 221.228C137.572 221.565 137.748 221.976 137.748 222.46C137.748 222.973 137.579 223.391 137.242 223.714C136.919 224.037 136.501 224.198 135.988 224.198C135.504 224.198 135.1 224.037 134.778 223.714C134.47 223.377 134.316 222.959 134.316 222.46ZM142.983 225.98C143.276 225.643 143.716 225.357 144.303 225.122C144.889 224.873 145.447 224.748 145.975 224.748C147.236 224.748 148.145 225.093 148.703 225.782C149.275 226.471 149.561 227.586 149.561 229.126V235H146.767V229.236C146.767 227.799 146.129 227.08 144.853 227.08C144.53 227.08 144.185 227.153 143.819 227.3C143.452 227.432 143.203 227.586 143.071 227.762V235H140.299V225.012H142.653C142.726 225.393 142.799 225.716 142.873 225.98H142.983ZM158.773 233.79C158.113 234.773 157.182 235.264 155.979 235.264C154.513 235.264 153.376 234.743 152.569 233.702C151.88 232.822 151.535 231.707 151.535 230.358C151.535 228.437 152.093 226.955 153.207 225.914C154.058 225.137 155.063 224.748 156.221 224.748C157.145 224.748 157.93 224.975 158.575 225.43C159.001 225.723 159.213 225.943 159.213 226.09L159.433 225.012H161.567V233.966C161.567 235.653 161.149 236.951 160.313 237.86C159.492 238.755 158.319 239.202 156.793 239.202C155.209 239.202 153.838 238.674 152.679 237.618L153.383 236.21C154.278 236.797 155.283 237.09 156.397 237.09C157.981 237.09 158.773 235.99 158.773 233.79ZM158.773 228.4C158.715 227.945 158.487 227.557 158.091 227.234C157.71 226.897 157.285 226.728 156.815 226.728C156.082 226.728 155.495 227.021 155.055 227.608C154.615 228.195 154.395 228.987 154.395 229.984C154.395 232.169 155.114 233.262 156.551 233.262C157.153 233.262 157.673 233.035 158.113 232.58C158.553 232.111 158.773 231.561 158.773 230.93V228.4ZM173.58 221.074H176L181.126 235H178.2C177.95 234.267 177.642 233.299 177.276 232.096H172.282C172.076 232.756 171.761 233.724 171.336 235H168.454L173.58 221.074ZM174.812 224.836C174.401 225.995 173.836 227.623 173.118 229.72H176.462C175.772 227.696 175.222 226.068 174.812 224.836ZM185.414 225.98C185.708 225.643 186.148 225.357 186.734 225.122C187.321 224.873 187.878 224.748 188.406 224.748C189.668 224.748 190.577 225.093 191.134 225.782C191.706 226.471 191.992 227.586 191.992 229.126V235H189.198V229.236C189.198 227.799 188.56 227.08 187.284 227.08C186.962 227.08 186.617 227.153 186.25 227.3C185.884 227.432 185.634 227.586 185.502 227.762V235H182.73V225.012H185.084C185.158 225.393 185.231 225.716 185.304 225.98H185.414ZM201.997 235L201.601 233.944C201.366 234.325 200.985 234.641 200.457 234.89C199.929 235.139 199.386 235.264 198.829 235.264C197.26 235.264 196.064 234.743 195.243 233.702C194.554 232.837 194.209 231.722 194.209 230.358C194.209 228.437 194.766 226.955 195.881 225.914C196.717 225.137 197.722 224.748 198.895 224.748C199.907 224.748 200.758 225.027 201.447 225.584V222.394L204.219 220.854V235H201.997ZM201.447 231.194V228.4C201.344 227.916 201.11 227.52 200.743 227.212C200.391 226.889 199.973 226.728 199.489 226.728C198.741 226.728 198.147 227.021 197.707 227.608C197.267 228.195 197.047 228.987 197.047 229.984C197.047 232.169 197.758 233.262 199.181 233.262C199.709 233.262 200.2 233.057 200.655 232.646C201.11 232.221 201.374 231.737 201.447 231.194ZM110.205 261V247.096C110.411 247.052 110.99 246.993 111.943 246.92C112.897 246.847 113.623 246.81 114.121 246.81C117.671 246.81 119.445 248.262 119.445 251.166C119.445 252.97 118.829 254.29 117.597 255.126C116.776 255.698 115.808 255.984 114.693 255.984C113.813 255.984 113.278 255.925 113.087 255.808V261H110.205ZM113.087 249.274V253.476C113.469 253.623 113.945 253.696 114.517 253.696C115.104 253.696 115.566 253.491 115.903 253.08C116.241 252.655 116.409 252.075 116.409 251.342C116.409 249.861 115.757 249.12 114.451 249.12C113.703 249.12 113.249 249.171 113.087 249.274ZM129.444 261H127.222L127.002 260.054C126.034 260.861 125.052 261.264 124.054 261.264C121.84 261.264 120.732 260.186 120.732 258.03C120.732 256.959 121.194 256.123 122.118 255.522C123.057 254.906 124.443 254.598 126.276 254.598H126.738V254.554C126.738 253.923 126.606 253.491 126.342 253.256C126.078 253.021 125.602 252.904 124.912 252.904C123.944 252.904 123.057 253.212 122.25 253.828C121.986 253.344 121.737 252.867 121.502 252.398C122.338 251.753 123.064 251.32 123.68 251.1C124.311 250.865 125.059 250.748 125.924 250.748C128.271 250.748 129.444 252.215 129.444 255.148V261ZM126.65 256.292H126.32C125.484 256.292 124.81 256.439 124.296 256.732C123.783 257.025 123.526 257.414 123.526 257.898C123.526 258.807 123.922 259.262 124.714 259.262C125.198 259.262 125.624 259.123 125.99 258.844C126.357 258.565 126.577 258.213 126.65 257.788V256.292ZM141.587 251.012C141.001 252.655 140.194 254.862 139.167 257.634C138.419 259.702 137.833 261.308 137.407 262.452C136.718 264.285 135.75 265.202 134.503 265.202C133.535 265.202 132.538 264.784 131.511 263.948C131.805 263.449 132.054 263.009 132.259 262.628C132.802 262.98 133.279 263.156 133.689 263.156C134.291 263.156 134.826 262.437 135.295 261H134.767L131.269 251.012H134.019C134.181 251.496 134.43 252.251 134.767 253.278L134.899 253.63C135.53 255.537 135.985 256.937 136.263 257.832L138.815 251.012H141.587ZM146.076 251.98C146.897 251.159 147.924 250.748 149.156 250.748C150.007 250.748 150.755 250.931 151.4 251.298C152.06 251.65 152.515 252.127 152.764 252.728C153.087 252.141 153.585 251.665 154.26 251.298C154.949 250.931 155.697 250.748 156.504 250.748C158.851 250.748 160.024 252.171 160.024 255.016V261H157.23V255.764C157.23 254.781 157.083 254.092 156.79 253.696C156.511 253.285 156.035 253.08 155.36 253.08C154.392 253.08 153.607 253.461 153.006 254.224V261H150.234V255.456C150.234 254.591 150.08 253.982 149.772 253.63C149.464 253.263 148.936 253.08 148.188 253.08C147.748 253.08 147.33 253.146 146.934 253.278C146.553 253.41 146.303 253.571 146.186 253.762V261H143.414V251.012H145.768L145.966 251.98H146.076ZM172.14 256.908H165.276C165.335 257.583 165.606 258.147 166.09 258.602C166.589 259.042 167.176 259.262 167.85 259.262C168.804 259.262 169.801 258.969 170.842 258.382L171.546 259.856C170.49 260.795 169.17 261.264 167.586 261.264C165.885 261.264 164.558 260.78 163.604 259.812C162.695 258.903 162.24 257.649 162.24 256.05C162.24 254.481 162.754 253.183 163.78 252.156C164.704 251.217 165.878 250.748 167.3 250.748C168.884 250.748 170.116 251.283 170.996 252.354C171.759 253.263 172.14 254.444 172.14 255.896V256.908ZM165.122 254.862H169.368C169.295 253.425 168.598 252.706 167.278 252.706C166.002 252.706 165.284 253.425 165.122 254.862ZM177.164 251.98C177.458 251.643 177.898 251.357 178.484 251.122C179.071 250.873 179.628 250.748 180.156 250.748C181.418 250.748 182.327 251.093 182.884 251.782C183.456 252.471 183.742 253.586 183.742 255.126V261H180.948V255.236C180.948 253.799 180.31 253.08 179.034 253.08C178.712 253.08 178.367 253.153 178 253.3C177.634 253.432 177.384 253.586 177.252 253.762V261H174.48V251.012H176.834C176.908 251.393 176.981 251.716 177.054 251.98H177.164ZM192.652 253.234H189.792V258.184C189.792 258.917 190.034 259.284 190.518 259.284C190.958 259.284 191.508 259.093 192.168 258.712L193.092 260.12C192.051 260.941 190.9 261.352 189.638 261.352C187.878 261.352 186.998 260.384 186.998 258.448V253.234H185.612V251.012H187.02V249.23C187.754 248.834 188.685 248.343 189.814 247.756V251.012H192.652V253.234Z" fill="#3B3B3B"/>
<path d="M151.049 188.056C150.285 188.056 149.631 187.784 149.088 187.24C148.544 186.697 148.272 186.043 148.271 185.278C148.27 184.513 148.542 183.859 149.088 183.317C149.633 182.774 150.287 182.502 151.049 182.5C151.811 182.498 152.465 182.77 153.011 183.317C153.558 183.863 153.829 184.517 153.827 185.278C153.824 186.039 153.552 186.693 153.011 187.24C152.471 187.788 151.816 188.059 151.049 188.056ZM144.625 175.556H157.472L160.25 170H141.847L144.625 175.556ZM146.049 195H156.049C158.132 195 159.903 194.277 161.361 192.831C162.82 191.384 163.549 189.607 163.549 187.5C163.549 186.62 163.398 185.764 163.097 184.931C162.797 184.097 162.368 183.345 161.813 182.674L158.202 178.333H143.896L140.285 182.674C139.729 183.345 139.301 184.097 139 184.931C138.699 185.764 138.549 186.62 138.549 187.5C138.549 189.606 139.272 191.383 140.72 192.831C142.167 194.278 143.943 195.001 146.049 195Z" fill="#E2A52F"/>
<defs>
<filter id="filter0_d_224_6293" x="0.276827" y="47.0807" width="302.319" height="37.4669" filterUnits="userSpaceOnUse" color-interpolation-filters="sRGB">
<feFlood flood-opacity="0" result="BackgroundImageFix"/>
<feColorMatrix in="SourceAlpha" type="matrix" values="0 0 0 0 0 0 0 0 0 0 0 0 0 0 0 0 0 0 127 0" result="hardAlpha"/>
<feOffset dy="-6.4598"/>
<feGaussianBlur stdDeviation="9.136"/>
<feComposite in2="hardAlpha" operator="out"/>
<feColorMatrix type="matrix" values="0 0 0 0 0 0 0 0 0 0 0 0 0 0 0 0 0 0 0.88 0"/>
<feBlend mode="normal" in2="BackgroundImageFix" result="effect1_dropShadow_224_6293"/>
<feBlend mode="normal" in="SourceGraphic" in2="effect1_dropShadow_224_6293" result="shape"/>
</filter>
<filter id="filter1_d_224_6293" x="96.2441" y="19.3857" width="163.563" height="158.958" filterUnits="userSpaceOnUse" color-interpolation-filters="sRGB">
<feFlood flood-opacity="0" result="BackgroundImageFix"/>
<feColorMatrix in="SourceAlpha" type="matrix" values="0 0 0 0 0 0 0 0 0 0 0 0 0 0 0 0 0 0 127 0" result="hardAlpha"/>
<feOffset dx="32.299" dy="27.6849"/>
<feGaussianBlur stdDeviation="11.5354"/>
<feComposite in2="hardAlpha" operator="out"/>
<feColorMatrix type="matrix" values="0 0 0 0 0 0 0 0 0 0 0 0 0 0 0 0 0 0 0.1 0"/>
<feBlend mode="normal" in2="BackgroundImageFix" result="effect1_dropShadow_224_6293"/>
<feBlend mode="normal" in="SourceGraphic" in2="effect1_dropShadow_224_6293" result="shape"/>
</filter>
<linearGradient id="paint0_linear_224_6293" x1="188.538" y1="111.69" x2="112.14" y2="35.2885" gradientUnits="userSpaceOnUse">
<stop stop-color="#EBEAEA"/>
<stop offset="1" stop-color="white"/>
</linearGradient>
</defs>
</svg>
