<svg width="303" height="271" viewBox="0 0 303 271" fill="none" xmlns="http://www.w3.org/2000/svg">
<g filter="url(#filter0_d_224_6321)">
<line x1="18.3242" y1="72.2739" x2="284.099" y2="72.2739" stroke="white" stroke-width="0.922828"/>
</g>
<rect x="18.3242" y="72.7354" width="265.775" height="42.4501" fill="white"/>
<path d="M210.318 73.4914H207.37C207.37 41.9321 181.693 16.2583 150.137 16.2583C118.581 16.2583 92.8833 41.9286 92.8833 73.4914H89.918C89.918 40.2955 116.924 13.2861 150.123 13.2861C183.323 13.2861 210.318 40.2955 210.318 73.4914Z" fill="#75B2CB"/>
<g filter="url(#filter1_d_224_6321)">
<path d="M96.0369 74.8549C96.387 88.7327 102.059 101.945 111.879 111.758C121.698 121.57 134.915 127.232 148.793 127.573C179.484 128.31 204.815 103.086 204.202 72.3913C204.004 62.5418 201.12 52.9333 195.861 44.6026C190.603 36.272 183.169 29.5354 174.363 25.1198C170.611 23.229 166.649 21.7866 162.56 20.8224C158.842 19.9486 155.041 19.4708 151.222 19.3969C120.5 18.7913 95.2619 44.1398 96.0369 74.8549Z" fill="url(#paint0_linear_224_6321)"/>
</g>
<path d="M187.711 109.782C207.836 89.6565 207.902 57.0925 187.858 37.0482C167.813 17.0038 135.249 17.0696 115.124 37.195C94.9985 57.3204 94.9327 89.8844 114.977 109.929C135.021 129.973 167.585 129.907 187.711 109.782Z" fill="#F9F9F9"/>
<path d="M140.037 59.9856C142.747 59.9856 144.943 61.2824 146.626 63.8758C148.027 66.0252 148.728 68.5836 148.728 71.5508C148.728 75.1022 147.841 77.9526 146.065 80.1021C144.476 82.0413 142.467 83.0109 140.037 83.0109C137.21 83.0109 135.014 81.7726 133.448 79.296C132.117 77.2166 131.451 74.6349 131.451 71.5508C131.451 68.093 132.327 65.2542 134.079 63.0347C135.645 61.002 137.63 59.9856 140.037 59.9856ZM140.107 64.1912C137.747 64.1912 136.567 66.5743 136.567 71.3406C136.567 73.7471 136.906 75.6395 137.584 77.018C138.191 78.2563 138.997 78.8755 140.002 78.8755C141.123 78.8755 142 78.2096 142.63 76.8778C143.285 75.5461 143.612 73.7003 143.612 71.3406C143.612 66.5743 142.443 64.1912 140.107 64.1912ZM150.777 74.4246C153.721 69.9154 156.793 65.2426 159.994 60.4062H164.83V74.4246H168.405V78.3498H164.83V82.5903H159.924V78.3498H150.777V74.4246ZM154.982 74.4246H159.924V66.6794C159.363 67.5439 158.662 68.642 157.821 69.9738C156.583 71.913 155.637 73.3966 154.982 74.4246Z" fill="#75B2CB"/>
<path d="M117.484 235V221.096C117.689 221.052 118.268 220.993 119.222 220.92C120.175 220.847 120.901 220.81 121.4 220.81C124.949 220.81 126.724 222.262 126.724 225.166C126.724 226.735 126.086 228.07 124.81 229.17C125.338 230.387 126.24 232.331 127.516 235H124.612C123.893 233.431 123.116 231.744 122.28 229.94C122.118 229.969 121.898 229.984 121.62 229.984C120.974 229.984 120.556 229.925 120.366 229.808V235H117.484ZM120.366 223.274V227.476C120.806 227.608 121.282 227.674 121.796 227.674C123.057 227.674 123.688 226.838 123.688 225.166C123.688 223.802 123.035 223.12 121.73 223.12C120.982 223.12 120.527 223.171 120.366 223.274ZM137.696 230.908H130.832C130.891 231.583 131.162 232.147 131.646 232.602C132.145 233.042 132.731 233.262 133.406 233.262C134.359 233.262 135.357 232.969 136.398 232.382L137.102 233.856C136.046 234.795 134.726 235.264 133.142 235.264C131.441 235.264 130.113 234.78 129.16 233.812C128.251 232.903 127.796 231.649 127.796 230.05C127.796 228.481 128.309 227.183 129.336 226.156C130.26 225.217 131.433 224.748 132.856 224.748C134.44 224.748 135.672 225.283 136.552 226.354C137.315 227.263 137.696 228.444 137.696 229.896V230.908ZM130.678 228.862H134.924C134.851 227.425 134.154 226.706 132.834 226.706C131.558 226.706 130.839 227.425 130.678 228.862ZM148.418 233.724C147.377 234.751 146.145 235.264 144.722 235.264C143.021 235.264 141.671 234.721 140.674 233.636C139.809 232.683 139.376 231.487 139.376 230.05C139.376 228.437 139.933 227.117 141.048 226.09C142.016 225.195 143.197 224.748 144.59 224.748C146.13 224.748 147.369 225.232 148.308 226.2L147.472 227.696C146.724 227.036 145.91 226.706 145.03 226.706C144.209 226.706 143.534 227.029 143.006 227.674C142.478 228.305 142.214 229.119 142.214 230.116C142.214 231.04 142.471 231.803 142.984 232.404C143.512 232.991 144.179 233.284 144.986 233.284C145.954 233.284 146.783 232.925 147.472 232.206L148.418 233.724ZM159.76 230.908H152.896C152.955 231.583 153.226 232.147 153.71 232.602C154.209 233.042 154.796 233.262 155.47 233.262C156.424 233.262 157.421 232.969 158.462 232.382L159.166 233.856C158.11 234.795 156.79 235.264 155.206 235.264C153.505 235.264 152.178 234.78 151.224 233.812C150.315 232.903 149.86 231.649 149.86 230.05C149.86 228.481 150.374 227.183 151.4 226.156C152.324 225.217 153.498 224.748 154.92 224.748C156.504 224.748 157.736 225.283 158.616 226.354C159.379 227.263 159.76 228.444 159.76 229.896V230.908ZM152.742 228.862H156.988C156.915 227.425 156.218 226.706 154.898 226.706C153.622 226.706 152.904 227.425 152.742 228.862ZM164.784 225.012V235H161.99V225.012H164.784ZM161.66 222.46C161.66 221.991 161.822 221.587 162.144 221.25C162.482 220.898 162.878 220.722 163.332 220.722C163.816 220.722 164.227 220.891 164.564 221.228C164.916 221.565 165.092 221.976 165.092 222.46C165.092 222.973 164.924 223.391 164.586 223.714C164.264 224.037 163.846 224.198 163.332 224.198C162.848 224.198 162.445 224.037 162.122 223.714C161.814 223.377 161.66 222.959 161.66 222.46ZM172.527 235H170.371L166.477 225.012H169.271L171.405 231.612L173.671 225.012H176.575L176.157 226.046L175.673 227.234C174.309 230.607 173.261 233.196 172.527 235ZM187.432 230.908H180.568C180.627 231.583 180.898 232.147 181.382 232.602C181.881 233.042 182.468 233.262 183.142 233.262C184.096 233.262 185.093 232.969 186.134 232.382L186.838 233.856C185.782 234.795 184.462 235.264 182.878 235.264C181.177 235.264 179.85 234.78 178.896 233.812C177.987 232.903 177.532 231.649 177.532 230.05C177.532 228.481 178.046 227.183 179.072 226.156C179.996 225.217 181.17 224.748 182.592 224.748C184.176 224.748 185.408 225.283 186.288 226.354C187.051 227.263 187.432 228.444 187.432 229.896V230.908ZM180.414 228.862H184.66C184.587 227.425 183.89 226.706 182.57 226.706C181.294 226.706 180.576 227.425 180.414 228.862ZM110.699 247.074H113.801C114.828 249.157 115.869 251.239 116.925 253.322L119.983 247.074H123.085L118.355 255.5V261H115.473V255.5C113.801 252.567 112.21 249.758 110.699 247.074ZM127.569 250.748C129.211 250.748 130.487 251.327 131.397 252.486C132.159 253.454 132.541 254.635 132.541 256.028C132.541 257.656 131.976 258.976 130.847 259.988C129.908 260.839 128.815 261.264 127.569 261.264C126.117 261.264 124.899 260.721 123.917 259.636C123.037 258.653 122.597 257.451 122.597 256.028C122.597 254.415 123.088 253.109 124.071 252.112C124.965 251.203 126.131 250.748 127.569 250.748ZM127.569 259.196C128.991 259.196 129.703 258.14 129.703 256.028C129.703 253.828 128.991 252.728 127.569 252.728C126.146 252.728 125.435 253.828 125.435 256.028C125.435 258.14 126.146 259.196 127.569 259.196ZM141.392 259.856C140.658 260.795 139.654 261.264 138.378 261.264C137.116 261.264 136.214 260.941 135.672 260.296C135.144 259.636 134.88 258.536 134.88 256.996V251.012H137.608V256.27C137.608 257.267 137.74 257.971 138.004 258.382C138.268 258.778 138.722 258.976 139.368 258.976C139.646 258.976 139.962 258.903 140.314 258.756C140.666 258.609 140.878 258.455 140.952 258.294V251.012H143.724V261H141.656L141.414 259.856H141.392ZM149.072 251.012L149.336 251.892C149.482 251.584 149.761 251.32 150.172 251.1C150.597 250.865 151.03 250.748 151.47 250.748C152.79 250.748 153.772 251.371 154.418 252.618L152.086 253.894C151.602 253.337 151.088 253.058 150.546 253.058C150.047 253.058 149.68 253.315 149.446 253.828V261H146.718V251.012H149.072ZM161.089 261V247.074H170.197V249.384H163.971V252.684H169.163V254.994H163.971V261H161.089ZM174.71 251.012V261H171.916V251.012H174.71ZM171.586 248.46C171.586 247.991 171.748 247.587 172.07 247.25C172.408 246.898 172.804 246.722 173.258 246.722C173.742 246.722 174.153 246.891 174.49 247.228C174.842 247.565 175.018 247.976 175.018 248.46C175.018 248.973 174.85 249.391 174.512 249.714C174.19 250.037 173.772 250.198 173.258 250.198C172.774 250.198 172.371 250.037 172.048 249.714C171.74 249.377 171.586 248.959 171.586 248.46ZM180.341 246.81V261H177.569V248.262L180.341 246.81ZM192.567 256.908H185.703C185.762 257.583 186.033 258.147 186.517 258.602C187.016 259.042 187.602 259.262 188.277 259.262C189.23 259.262 190.228 258.969 191.269 258.382L191.973 259.856C190.917 260.795 189.597 261.264 188.013 261.264C186.312 261.264 184.984 260.78 184.031 259.812C183.122 258.903 182.667 257.649 182.667 256.05C182.667 254.481 183.18 253.183 184.207 252.156C185.131 251.217 186.304 250.748 187.727 250.748C189.311 250.748 190.543 251.283 191.423 252.354C192.186 253.263 192.567 254.444 192.567 255.896V256.908ZM185.549 254.862H189.795C189.722 253.425 189.025 252.706 187.705 252.706C186.429 252.706 185.71 253.425 185.549 254.862Z" fill="#3B3B3B"/>
<path fill-rule="evenodd" clip-rule="evenodd" d="M153.324 195H148.324C143.61 195 141.253 195 139.789 193.535C138.325 192.07 138.324 189.714 138.324 185V180C138.324 175.286 138.324 172.929 139.789 171.465C141.254 170.001 143.623 170 148.362 170C149.119 170 149.725 170 150.237 170.021C150.22 170.121 150.212 170.223 150.212 170.326L150.199 173.869C150.199 175.24 150.199 176.452 150.33 177.429C150.473 178.488 150.799 179.546 151.664 180.411C152.527 181.274 153.587 181.601 154.645 181.744C155.622 181.875 156.834 181.875 158.205 181.875H163.27C163.324 182.542 163.324 183.362 163.324 184.454V185C163.324 189.714 163.324 192.071 161.859 193.535C160.394 194.999 158.038 195 153.324 195Z" fill="#75B2CB"/>
<path d="M160.014 177.021L155.064 172.568C153.655 171.299 152.952 170.664 152.085 170.333L152.074 173.75C152.074 176.696 152.074 178.17 152.989 179.085C153.904 180 155.378 180 158.324 180H162.799C162.347 179.12 161.534 178.39 160.014 177.021Z" fill="#75B2CB"/>
<defs>
<filter id="filter0_d_224_6321" x="0.0522175" y="47.0807" width="302.319" height="37.4669" filterUnits="userSpaceOnUse" color-interpolation-filters="sRGB">
<feFlood flood-opacity="0" result="BackgroundImageFix"/>
<feColorMatrix in="SourceAlpha" type="matrix" values="0 0 0 0 0 0 0 0 0 0 0 0 0 0 0 0 0 0 127 0" result="hardAlpha"/>
<feOffset dy="-6.4598"/>
<feGaussianBlur stdDeviation="9.136"/>
<feComposite in2="hardAlpha" operator="out"/>
<feColorMatrix type="matrix" values="0 0 0 0 0 0 0 0 0 0 0 0 0 0 0 0 0 0 0.88 0"/>
<feBlend mode="normal" in2="BackgroundImageFix" result="effect1_dropShadow_224_6321"/>
<feBlend mode="normal" in="SourceGraphic" in2="effect1_dropShadow_224_6321" result="shape"/>
</filter>
<filter id="filter1_d_224_6321" x="96.0195" y="19.3862" width="163.563" height="158.958" filterUnits="userSpaceOnUse" color-interpolation-filters="sRGB">
<feFlood flood-opacity="0" result="BackgroundImageFix"/>
<feColorMatrix in="SourceAlpha" type="matrix" values="0 0 0 0 0 0 0 0 0 0 0 0 0 0 0 0 0 0 127 0" result="hardAlpha"/>
<feOffset dx="32.299" dy="27.6849"/>
<feGaussianBlur stdDeviation="11.5354"/>
<feComposite in2="hardAlpha" operator="out"/>
<feColorMatrix type="matrix" values="0 0 0 0 0 0 0 0 0 0 0 0 0 0 0 0 0 0 0.1 0"/>
<feBlend mode="normal" in2="BackgroundImageFix" result="effect1_dropShadow_224_6321"/>
<feBlend mode="normal" in="SourceGraphic" in2="effect1_dropShadow_224_6321" result="shape"/>
</filter>
<linearGradient id="paint0_linear_224_6321" x1="188.314" y1="111.691" x2="111.915" y2="35.289" gradientUnits="userSpaceOnUse">
<stop stop-color="#EBEAEA"/>
<stop offset="1" stop-color="white"/>
</linearGradient>
</defs>
</svg>
