<svg width="304" height="245" viewBox="0 0 304 245" fill="none" xmlns="http://www.w3.org/2000/svg">
<g filter="url(#filter0_d_224_2931)">
<line x1="19" y1="72.2742" x2="284.775" y2="72.2742" stroke="white" stroke-width="0.922828"/>
</g>
<rect x="19" y="72.7357" width="265.775" height="42.4501" fill="white"/>
<path d="M210.99 73.4913H208.042C208.042 41.9319 182.365 16.2582 150.809 16.2582C119.253 16.2582 93.5551 41.9285 93.5551 73.4913H90.5898C90.5898 40.2953 117.596 13.286 150.795 13.286C183.995 13.286 210.99 40.2953 210.99 73.4913Z" fill="#0F898C"/>
<g filter="url(#filter1_d_224_2931)">
<path d="M96.7127 74.8548C97.0628 88.7326 102.735 101.945 112.554 111.757C122.374 121.57 135.59 127.232 149.468 127.572C180.159 128.309 205.49 103.086 204.878 72.3912C204.68 62.5416 201.796 52.9332 196.537 44.6025C191.279 36.2719 183.845 29.5353 175.038 25.1197C171.287 23.2289 167.325 21.7865 163.236 20.8223C159.517 19.9485 155.717 19.4707 151.897 19.3967C121.175 18.7912 95.9376 44.1397 96.7127 74.8548Z" fill="url(#paint0_linear_224_2931)"/>
</g>
<path d="M187.086 109.782C207.211 89.6567 207.277 57.0927 187.233 37.0484C167.188 17.004 134.624 17.0698 114.499 37.1952C94.3735 57.3206 94.3077 89.8846 114.352 109.929C134.396 129.973 166.96 129.908 187.086 109.782Z" fill="#F9F9F9"/>
<path d="M142.651 59.9857C145.361 59.9857 147.557 61.2824 149.24 63.8758C150.641 66.0253 151.342 68.5837 151.342 71.5509C151.342 75.1022 150.455 77.9526 148.679 80.1021C147.09 82.0413 145.081 83.0109 142.651 83.0109C139.824 83.0109 137.628 81.7727 136.062 79.2961C134.731 77.2167 134.065 74.6349 134.065 71.5509C134.065 68.093 134.941 65.2543 136.693 63.0347C138.259 61.002 140.244 59.9857 142.651 59.9857ZM142.721 64.1912C140.361 64.1912 139.181 66.5744 139.181 71.3406C139.181 73.7471 139.52 75.6396 140.198 77.0181C140.805 78.2564 141.611 78.8755 142.616 78.8755C143.737 78.8755 144.614 78.2096 145.244 76.8779C145.899 75.5461 146.226 73.7004 146.226 71.3406C146.226 66.5744 145.057 64.1912 142.721 64.1912ZM163.659 60.4063V82.5904H158.718V66.0487C158.414 66.2589 157.959 66.5393 157.351 66.8898C156.51 67.3804 155.891 67.7776 155.494 68.0813C155.19 67.544 154.688 66.6912 153.987 65.523L153.846 65.3127C153.636 64.9622 153.426 64.6118 153.216 64.2613C154.01 63.6539 155.202 62.8128 156.79 61.738L157.176 61.4927C157.83 61.0254 158.344 60.6633 158.718 60.4063H163.659Z" fill="#0F898C"/>
<path d="M83.2546 222.57C82.8146 222.57 82.4626 222.438 82.1986 222.174C81.9346 221.91 81.8026 221.551 81.8026 221.096C81.8026 220.143 82.2866 219.666 83.2546 219.666C83.6946 219.666 84.0393 219.798 84.2886 220.062C84.5526 220.311 84.6846 220.656 84.6846 221.096C84.6846 222.079 84.208 222.57 83.2546 222.57ZM86.6426 222.57C86.2026 222.57 85.8506 222.438 85.5866 222.174C85.3226 221.91 85.1906 221.551 85.1906 221.096C85.1906 220.143 85.6746 219.666 86.6426 219.666C87.0826 219.666 87.4273 219.798 87.6766 220.062C87.9406 220.311 88.0726 220.656 88.0726 221.096C88.0726 222.079 87.596 222.57 86.6426 222.57ZM90.3606 232.338H92.3406V235H90.0966C88.7326 235 87.6766 234.545 86.9286 233.636C86.298 234.12 85.528 234.362 84.6186 234.362C83.2693 234.362 82.1913 233.856 81.3846 232.844C80.7246 232.008 80.3946 231.003 80.3946 229.83C80.3946 228.378 80.864 227.197 81.8026 226.288C82.5946 225.525 83.5113 225.144 84.5526 225.144C85.0953 225.144 85.594 225.247 86.0486 225.452V224.88L88.7986 223.428V230.754C88.7986 231.326 88.916 231.737 89.1506 231.986C89.4 232.221 89.8033 232.338 90.3606 232.338ZM86.0486 228.224C85.6673 227.901 85.2346 227.74 84.7506 227.74C84.2666 227.74 83.8706 227.938 83.5626 228.334C83.2693 228.73 83.1226 229.251 83.1226 229.896C83.1226 230.541 83.2693 231.055 83.5626 231.436C83.856 231.817 84.2593 232.008 84.7726 232.008C85.33 232.008 85.7626 231.817 86.0706 231.436C86.056 231.319 86.0486 231.135 86.0486 230.886V228.224ZM94.5399 228.928C94.5399 227.608 94.9506 226.574 95.7719 225.826C96.4906 225.181 97.4146 224.858 98.5439 224.858C99.9959 224.858 101.125 225.393 101.932 226.464C102.621 227.359 102.966 228.51 102.966 229.918C102.966 231.546 102.533 232.829 101.668 233.768C100.891 234.589 99.9006 235 98.6979 235C97.5246 235 96.5639 234.743 95.8159 234.23C95.1119 234.743 94.2613 235 93.2639 235H91.0199V232.338H92.9999C93.5573 232.338 93.9533 232.221 94.1879 231.986C94.4226 231.737 94.5399 231.326 94.5399 230.754V228.928ZM97.3119 231.106C97.3119 231.927 97.7446 232.338 98.6099 232.338C99.6953 232.338 100.238 231.502 100.238 229.83C100.238 228.231 99.6733 227.432 98.5439 227.432C97.7226 227.432 97.3119 227.916 97.3119 228.884V231.106ZM104.834 235L106.22 232.338H109.696C110.444 232.338 110.818 231.905 110.818 231.04C110.818 229.427 110.04 228.187 108.486 227.322L109.85 224.968C112.138 226.303 113.37 228.114 113.546 230.402C113.604 231.135 113.766 231.641 114.03 231.92C114.308 232.199 114.778 232.338 115.438 232.338H117.11V235H115.284C114.198 235 113.282 234.699 112.534 234.098C111.991 234.699 111.214 235 110.202 235H104.834ZM122.611 223.01C122.171 223.01 121.819 222.878 121.555 222.614C121.291 222.35 121.159 221.991 121.159 221.536C121.159 221.111 121.291 220.766 121.555 220.502C121.819 220.238 122.171 220.106 122.611 220.106C123.051 220.106 123.396 220.238 123.645 220.502C123.909 220.751 124.041 221.096 124.041 221.536C124.041 222.519 123.565 223.01 122.611 223.01ZM130.135 232.338H131.983V235H130.113C128.955 235 128.023 234.875 127.319 234.626C126.63 234.362 125.985 233.907 125.383 233.262C123.55 234.421 121.438 235 119.047 235H115.791V232.338H119.069C121.651 232.338 123.704 231.568 125.229 230.028C124.232 228.283 123.022 227.41 121.599 227.41C120.426 227.41 119.143 228.048 117.749 229.324V226.882C118.981 225.533 120.375 224.858 121.929 224.858C123.073 224.858 124.188 225.276 125.273 226.112C126.359 226.948 127.319 228.136 128.155 229.676V230.776C127.921 231.084 127.613 231.429 127.231 231.81C127.818 232.162 128.786 232.338 130.135 232.338ZM130.659 235V232.338H132.045C132.719 232.338 133.196 232.191 133.475 231.898C133.768 231.605 133.915 231.106 133.915 230.402V222.284L136.665 220.81V230.424C136.665 231.847 136.232 232.983 135.367 233.834C134.575 234.611 133.519 235 132.199 235H130.659ZM140.625 235V222.284L143.397 220.81V235H140.625ZM162.337 242.018C161.061 242.839 159.645 243.25 158.091 243.25C156.287 243.25 154.827 242.693 153.713 241.578C152.701 240.581 152.195 239.305 152.195 237.75C152.195 235.99 152.877 234.619 154.241 233.636C153.111 232.712 152.547 231.385 152.547 229.654C152.547 228.114 153.089 226.882 154.175 225.958C155.04 225.225 156.052 224.858 157.211 224.858C158.809 224.858 160.078 225.533 161.017 226.882V229.324C159.975 228.063 158.795 227.432 157.475 227.432C156.8 227.447 156.265 227.667 155.869 228.092C155.487 228.503 155.297 229.053 155.297 229.742C155.297 230.549 155.546 231.187 156.045 231.656C156.558 232.111 157.255 232.338 158.135 232.338H162.073V235H158.179C157.137 235 156.323 235.242 155.737 235.726C155.165 236.21 154.879 236.885 154.879 237.75C154.879 238.615 155.179 239.305 155.781 239.818C156.397 240.331 157.225 240.588 158.267 240.588C159.689 240.588 161.046 240.192 162.337 239.4V242.018ZM175.868 232.338V235H173.162C173.059 236.32 172.472 237.376 171.402 238.168C170.522 238.813 169.495 239.136 168.322 239.136C167.398 239.136 166.496 238.887 165.616 238.388V235.99C166.408 236.445 167.2 236.672 167.992 236.672C168.608 236.672 169.15 236.503 169.62 236.166C170.104 235.829 170.368 235.425 170.412 234.956C170.294 234.941 170.111 234.927 169.862 234.912C169.612 234.883 169.422 234.861 169.29 234.846C167.779 234.685 166.613 234.091 165.792 233.064C165.102 232.199 164.758 231.15 164.758 229.918C164.758 228.305 165.198 227.029 166.078 226.09C166.855 225.269 167.882 224.858 169.158 224.858C170.463 224.858 171.482 225.276 172.216 226.112C172.846 226.831 173.162 227.769 173.162 228.928V232.338H175.868ZM170.412 228.884C170.412 227.916 169.994 227.432 169.158 227.432C168.043 227.432 167.486 228.231 167.486 229.83C167.486 231.253 168.131 232.045 169.422 232.206C169.627 232.25 169.957 232.287 170.412 232.316V228.884ZM179.523 223.01C179.083 223.01 178.731 222.878 178.467 222.614C178.203 222.35 178.071 221.991 178.071 221.536C178.071 221.111 178.203 220.766 178.467 220.502C178.731 220.238 179.083 220.106 179.523 220.106C179.963 220.106 180.308 220.238 180.557 220.502C180.821 220.751 180.953 221.096 180.953 221.536C180.953 222.519 180.477 223.01 179.523 223.01ZM174.551 235V232.338H176.531C177.089 232.338 177.485 232.221 177.719 231.986C177.954 231.737 178.071 231.326 178.071 230.754V226.684L180.843 225.232V230.886C180.843 232.221 180.433 233.262 179.611 234.01C178.893 234.67 177.954 235 176.795 235H174.551ZM195.604 232.338H197.584V235H195.34C194.841 235 194.379 234.934 193.954 234.802C193.763 236.21 193.198 237.325 192.26 238.146C191.409 238.879 190.39 239.246 189.202 239.246C188.278 239.246 187.376 239.011 186.496 238.542V236.122C187.258 236.547 188.006 236.76 188.74 236.76C189.546 236.76 190.17 236.496 190.61 235.968C191.064 235.455 191.292 234.736 191.292 233.812V226.684L193.096 225.738L194.042 225.232V225.254L194.064 225.232V230.754C194.064 231.326 194.181 231.737 194.416 231.986C194.65 232.221 195.046 232.338 195.604 232.338ZM198.362 223.296C197.922 223.296 197.57 223.164 197.306 222.9C197.042 222.636 196.91 222.277 196.91 221.822C196.91 221.397 197.042 221.052 197.306 220.788C197.57 220.524 197.922 220.392 198.362 220.392C198.802 220.392 199.147 220.524 199.396 220.788C199.66 221.037 199.792 221.382 199.792 221.822C199.792 222.805 199.315 223.296 198.362 223.296ZM201.728 223.296C201.288 223.296 200.936 223.164 200.672 222.9C200.408 222.621 200.276 222.262 200.276 221.822C200.276 221.397 200.408 221.052 200.672 220.788C200.951 220.524 201.303 220.392 201.728 220.392C202.168 220.392 202.513 220.524 202.762 220.788C203.026 221.037 203.158 221.382 203.158 221.822C203.158 222.805 202.681 223.296 201.728 223.296ZM204.104 232.338H206.084V235H203.84C202.769 235 201.882 234.714 201.178 234.142C200.474 234.714 199.587 235 198.516 235H196.272V232.338H198.252C198.809 232.338 199.205 232.221 199.44 231.986C199.675 231.737 199.792 231.326 199.792 230.754V226.684L202.564 225.232V230.754C202.564 231.326 202.681 231.737 202.916 231.986C203.151 232.221 203.547 232.338 204.104 232.338ZM211.578 223.01C211.138 223.01 210.786 222.878 210.522 222.614C210.258 222.35 210.126 221.991 210.126 221.536C210.126 221.111 210.258 220.766 210.522 220.502C210.786 220.238 211.138 220.106 211.578 220.106C212.018 220.106 212.363 220.238 212.612 220.502C212.876 220.751 213.008 221.096 213.008 221.536C213.008 222.519 212.532 223.01 211.578 223.01ZM204.758 235V232.338H208.036C210.618 232.338 212.671 231.568 214.196 230.028C213.199 228.283 211.989 227.41 210.566 227.41C209.393 227.41 208.11 228.048 206.716 229.324V226.882C207.948 225.533 209.342 224.858 210.896 224.858C212.04 224.858 213.155 225.276 214.24 226.112C215.326 226.948 216.286 228.136 217.122 229.676V230.776C216.066 232.125 214.746 233.167 213.162 233.9C211.593 234.633 209.877 235 208.014 235H204.758ZM220.203 235V222.284L222.975 220.81V235H220.203Z" fill="#3B3B3B"/>
<path d="M148.5 181.188L151.188 178.469L149.438 176.688L148.062 178.062L146.312 176.312L147.656 174.938L146.25 173.531L143.531 176.25L148.5 181.188ZM158.75 191.469L161.469 188.75L160.062 187.344L158.688 188.688L156.938 186.938L158.281 185.562L156.5 183.812L153.812 186.5L158.75 191.469ZM157.781 175.531L159.531 177.281L161.281 175.531L159.5 173.75L157.781 175.531ZM146.562 193.75H141.25V188.438L146.719 182.969L140 176.25L146.25 170L153 176.75L157.719 172C157.969 171.75 158.25 171.563 158.562 171.438C158.875 171.313 159.198 171.25 159.531 171.25C159.865 171.25 160.188 171.313 160.5 171.438C160.812 171.563 161.094 171.75 161.344 172L163 173.687C163.25 173.937 163.438 174.219 163.562 174.531C163.688 174.844 163.75 175.167 163.75 175.5C163.75 175.833 163.688 176.151 163.562 176.454C163.438 176.756 163.25 177.032 163 177.281L158.281 182.031L165 188.75L158.75 195L152.031 188.281L146.562 193.75Z" fill="#0F898C"/>
<defs>
<filter id="filter0_d_224_2931" x="0.727999" y="47.081" width="302.319" height="37.4668" filterUnits="userSpaceOnUse" color-interpolation-filters="sRGB">
<feFlood flood-opacity="0" result="BackgroundImageFix"/>
<feColorMatrix in="SourceAlpha" type="matrix" values="0 0 0 0 0 0 0 0 0 0 0 0 0 0 0 0 0 0 127 0" result="hardAlpha"/>
<feOffset dy="-6.4598"/>
<feGaussianBlur stdDeviation="9.136"/>
<feComposite in2="hardAlpha" operator="out"/>
<feColorMatrix type="matrix" values="0 0 0 0 0 0 0 0 0 0 0 0 0 0 0 0 0 0 0.88 0"/>
<feBlend mode="normal" in2="BackgroundImageFix" result="effect1_dropShadow_224_2931"/>
<feBlend mode="normal" in="SourceGraphic" in2="effect1_dropShadow_224_2931" result="shape"/>
</filter>
<filter id="filter1_d_224_2931" x="96.6953" y="19.3861" width="163.563" height="158.958" filterUnits="userSpaceOnUse" color-interpolation-filters="sRGB">
<feFlood flood-opacity="0" result="BackgroundImageFix"/>
<feColorMatrix in="SourceAlpha" type="matrix" values="0 0 0 0 0 0 0 0 0 0 0 0 0 0 0 0 0 0 127 0" result="hardAlpha"/>
<feOffset dx="32.299" dy="27.6849"/>
<feGaussianBlur stdDeviation="11.5354"/>
<feComposite in2="hardAlpha" operator="out"/>
<feColorMatrix type="matrix" values="0 0 0 0 0 0 0 0 0 0 0 0 0 0 0 0 0 0 0.1 0"/>
<feBlend mode="normal" in2="BackgroundImageFix" result="effect1_dropShadow_224_2931"/>
<feBlend mode="normal" in="SourceGraphic" in2="effect1_dropShadow_224_2931" result="shape"/>
</filter>
<linearGradient id="paint0_linear_224_2931" x1="188.989" y1="111.691" x2="112.591" y2="35.2889" gradientUnits="userSpaceOnUse">
<stop stop-color="#EBEAEA"/>
<stop offset="1" stop-color="white"/>
</linearGradient>
</defs>
</svg>
