<svg width="304" height="245" viewBox="0 0 304 245" fill="none" xmlns="http://www.w3.org/2000/svg">
<g filter="url(#filter0_d_224_2945)">
<line x1="19" y1="72.2742" x2="284.775" y2="72.2742" stroke="white" stroke-width="0.922828"/>
</g>
<rect x="19" y="72.7357" width="265.775" height="42.4501" fill="white"/>
<path d="M210.994 73.4916H208.046C208.046 41.9323 182.369 16.2586 150.813 16.2586C119.257 16.2586 93.559 41.9289 93.559 73.4916H90.5938C90.5938 40.2957 117.6 13.2864 150.799 13.2864C183.998 13.2864 210.994 40.2957 210.994 73.4916Z" fill="#75B2CB"/>
<g filter="url(#filter1_d_224_2945)">
<path d="M96.7127 74.855C97.0628 88.7329 102.735 101.945 112.554 111.758C122.374 121.57 135.59 127.233 149.468 127.573C180.159 128.31 205.49 103.086 204.878 72.3914C204.68 62.5419 201.796 52.9334 196.537 44.6028C191.279 36.2721 183.845 29.5356 175.038 25.1199C171.287 23.2291 167.325 21.7867 163.236 20.8225C159.517 19.9487 155.717 19.4709 151.897 19.397C121.175 18.7915 95.9376 44.1399 96.7127 74.855Z" fill="url(#paint0_linear_224_2945)"/>
</g>
<path d="M188.387 109.782C208.512 89.6568 208.578 57.0927 188.533 37.0484C168.489 17.0041 135.925 17.0698 115.8 37.1952C95.6742 57.3206 95.6085 89.8846 115.653 109.929C135.697 129.973 168.261 129.908 188.387 109.782Z" fill="#F9F9F9"/>
<path d="M140.713 59.9858C143.423 59.9858 145.619 61.2825 147.301 63.8759C148.703 66.0254 149.404 68.5837 149.404 71.551C149.404 75.1023 148.516 77.9527 146.741 80.1022C145.152 82.0414 143.143 83.011 140.713 83.011C137.886 83.011 135.689 81.7727 134.124 79.2961C132.792 77.2167 132.126 74.635 132.126 71.551C132.126 68.0931 133.003 65.2544 134.755 63.0348C136.32 61.0021 138.306 59.9858 140.713 59.9858ZM140.783 64.1913C138.423 64.1913 137.243 66.5744 137.243 71.3407C137.243 73.7472 137.582 75.6397 138.26 77.0181C138.867 78.2564 139.673 78.8756 140.678 78.8756C141.799 78.8756 142.675 78.2097 143.306 76.878C143.96 75.5462 144.287 73.7004 144.287 71.3407C144.287 66.5744 143.119 64.1913 140.783 64.1913ZM151.453 74.4247C154.397 69.9155 157.469 65.2427 160.67 60.4063H165.506V74.4247H169.081V78.3499H165.506V82.5905H160.6V78.3499H151.453V74.4247ZM155.658 74.4247H160.6V66.6796C160.039 67.544 159.338 68.6421 158.497 69.9739C157.259 71.9131 156.312 73.3967 155.658 74.4247Z" fill="#75B2CB"/>
<path d="M101.916 223.296C101.476 223.296 101.124 223.164 100.86 222.9C100.596 222.636 100.464 222.277 100.464 221.822C100.464 221.397 100.596 221.052 100.86 220.788C101.124 220.524 101.476 220.392 101.916 220.392C102.356 220.392 102.7 220.524 102.95 220.788C103.214 221.037 103.346 221.382 103.346 221.822C103.346 222.805 102.869 223.296 101.916 223.296ZM105.282 232.338H108.692V235H103.522C102.803 235 102.216 234.949 101.762 234.846C101.336 234.949 100.75 235 100.002 235H91.9057C90.659 235 89.6837 234.582 88.9797 233.746C88.349 233.013 88.0337 232.067 88.0337 230.908V228.664L90.7837 227.212V230.732C90.7837 231.319 90.901 231.737 91.1357 231.986C91.385 232.221 91.7884 232.338 92.3457 232.338H98.2637C97.7064 231.443 97.4277 230.534 97.4277 229.61C97.4277 228.143 97.853 226.963 98.7037 226.068C99.4957 225.261 100.515 224.858 101.762 224.858C103.199 224.858 104.321 225.379 105.128 226.42C105.788 227.285 106.118 228.349 106.118 229.61C106.118 230.534 105.839 231.443 105.282 232.338ZM101.762 232.096C102.26 231.876 102.664 231.524 102.972 231.04C103.28 230.541 103.434 230.013 103.434 229.456C103.434 228.107 102.876 227.432 101.762 227.432C100.647 227.432 100.09 228.099 100.09 229.434C100.09 229.991 100.244 230.519 100.552 231.018C100.86 231.502 101.263 231.861 101.762 232.096ZM114.94 232.338H116.92V235H114.676C113.532 235 112.601 234.677 111.882 234.032C111.076 234.677 110.086 235 108.912 235H107.372V232.338H108.758C109.433 232.338 109.91 232.191 110.188 231.898C110.482 231.605 110.628 231.106 110.628 230.402V222.284L113.378 220.81V225.254L113.4 225.232V230.754C113.4 231.326 113.518 231.737 113.752 231.986C113.987 232.221 114.383 232.338 114.94 232.338ZM129.593 232.338H131.551V235H129.307C128.251 235 127.385 234.729 126.711 234.186C125.919 235.022 124.877 235.44 123.587 235.44C122.267 235.44 121.225 235.022 120.463 234.186C119.759 234.729 118.886 235 117.845 235H115.601V232.338H117.581C118.138 232.338 118.534 232.221 118.769 231.986C119.003 231.737 119.121 231.326 119.121 230.754V230.116C119.121 228.4 119.568 227.065 120.463 226.112C121.24 225.276 122.281 224.858 123.587 224.858C125.068 224.858 126.212 225.401 127.019 226.486C127.693 227.41 128.031 228.62 128.031 230.116V230.754C128.031 231.326 128.148 231.737 128.383 231.986C128.632 232.221 129.035 232.338 129.593 232.338ZM123.587 232.778C124.701 232.778 125.259 231.869 125.259 230.05C125.259 228.305 124.701 227.432 123.587 227.432C122.457 227.432 121.893 228.305 121.893 230.05C121.893 231.869 122.457 232.778 123.587 232.778ZM130.232 235V232.338H131.618C132.292 232.338 132.769 232.191 133.048 231.898C133.341 231.605 133.488 231.106 133.488 230.402V222.284L136.238 220.81V230.424C136.238 231.847 135.805 232.983 134.94 233.834C134.148 234.611 133.092 235 131.772 235H130.232ZM140.198 235V222.284L142.97 220.81V235H140.198ZM150.668 241.93V236.452C150.668 235.205 151.034 234.208 151.768 233.46C152.413 232.815 153.278 232.448 154.364 232.36C153.968 231.744 153.77 230.93 153.77 229.918C153.77 228.305 154.21 227.029 155.09 226.09C155.867 225.269 156.894 224.858 158.17 224.858C159.475 224.858 160.494 225.276 161.228 226.112C161.858 226.831 162.174 227.769 162.174 228.928V231.546C162.159 232.631 161.792 233.475 161.074 234.076C160.355 234.677 159.343 234.985 158.038 235H154.98C154.422 235 154.026 235.117 153.792 235.352C153.557 235.601 153.44 236.012 153.44 236.584V240.478L150.668 241.93ZM159.402 228.884C159.402 227.916 158.991 227.432 158.17 227.432C157.642 227.432 157.224 227.645 156.916 228.07C156.622 228.495 156.476 229.082 156.476 229.83C156.476 231.502 157.026 232.338 158.126 232.338C158.976 232.338 159.402 231.927 159.402 231.106V228.884ZM178.697 232.338H180.677V235H178.433C177.289 235 176.357 234.677 175.639 234.032C174.832 234.677 173.842 235 172.669 235H164.375L165.761 232.338H168.665V225.144L171.437 223.67V232.338H172.515C173.189 232.338 173.666 232.191 173.945 231.898C174.238 231.605 174.385 231.106 174.385 230.402V222.284L177.157 220.81V230.754C177.157 231.326 177.274 231.737 177.509 231.986C177.743 232.221 178.139 232.338 178.697 232.338ZM181.456 223.296C181.016 223.296 180.664 223.164 180.4 222.9C180.136 222.636 180.004 222.277 180.004 221.822C180.004 221.397 180.136 221.052 180.4 220.788C180.664 220.524 181.016 220.392 181.456 220.392C181.896 220.392 182.241 220.524 182.49 220.788C182.754 221.037 182.886 221.382 182.886 221.822C182.886 222.805 182.41 223.296 181.456 223.296ZM184.822 223.296C184.382 223.296 184.03 223.164 183.766 222.9C183.502 222.621 183.37 222.262 183.37 221.822C183.37 221.397 183.502 221.052 183.766 220.788C184.045 220.524 184.397 220.392 184.822 220.392C185.262 220.392 185.607 220.524 185.856 220.788C186.12 221.037 186.252 221.382 186.252 221.822C186.252 222.805 185.776 223.296 184.822 223.296ZM187.198 232.338H189.178V235H186.934C185.864 235 184.976 234.714 184.272 234.142C183.568 234.714 182.681 235 181.61 235H179.366V232.338H181.346C181.904 232.338 182.3 232.221 182.534 231.986C182.769 231.737 182.886 231.326 182.886 230.754V226.684L185.658 225.232V230.754C185.658 231.326 185.776 231.737 186.01 231.986C186.245 232.221 186.641 232.338 187.198 232.338ZM187.853 235V232.338H190.185C190.742 232.338 191.138 232.221 191.373 231.986C191.622 231.737 191.747 231.326 191.747 230.754V227.85L194.519 226.398V230.754C194.519 231.326 194.636 231.737 194.871 231.986C195.105 232.221 195.501 232.338 196.059 232.338H197.555C198.112 232.338 198.508 232.221 198.743 231.986C198.977 231.737 199.095 231.326 199.095 230.754V227.278L201.867 225.804V230.754C201.867 231.326 201.984 231.737 202.219 231.986C202.468 232.221 202.871 232.338 203.429 232.338H204.925C205.482 232.338 205.878 232.221 206.113 231.986C206.347 231.737 206.465 231.326 206.465 230.754V226.684L209.237 225.232V230.886C209.237 232.191 208.841 233.218 208.049 233.966C207.359 234.626 206.45 234.971 205.321 235H203.143C202.057 235 201.17 234.677 200.481 234.032C199.85 234.663 199.014 234.985 197.973 235H195.795C194.709 235 193.822 234.677 193.133 234.032C192.443 234.677 191.556 235 190.471 235H187.853ZM213.202 235V222.284L215.974 220.81V235H213.202Z" fill="#3B3B3B"/>
<path fill-rule="evenodd" clip-rule="evenodd" d="M154 195H149C144.286 195 141.929 195 140.465 193.535C139.001 192.07 139 189.714 139 185V180C139 175.286 139 172.929 140.465 171.465C141.93 170.001 144.299 170 149.037 170C149.795 170 150.401 170 150.912 170.021C150.896 170.121 150.888 170.223 150.888 170.326L150.875 173.869C150.875 175.24 150.875 176.452 151.006 177.429C151.149 178.488 151.475 179.546 152.34 180.411C153.203 181.274 154.262 181.601 155.321 181.744C156.298 181.875 157.51 181.875 158.881 181.875H163.946C164 182.542 164 183.362 164 184.454V185C164 189.714 164 192.071 162.535 193.535C161.07 194.999 158.714 195 154 195Z" fill="#75B2CB"/>
<path d="M160.69 177.021L155.74 172.568C154.331 171.299 153.627 170.664 152.761 170.333L152.75 173.75C152.75 176.696 152.75 178.17 153.665 179.085C154.58 180 156.054 180 159 180H163.475C163.023 179.12 162.21 178.39 160.69 177.021Z" fill="#75B2CB"/>
<defs>
<filter id="filter0_d_224_2945" x="0.727999" y="47.081" width="302.319" height="37.4668" filterUnits="userSpaceOnUse" color-interpolation-filters="sRGB">
<feFlood flood-opacity="0" result="BackgroundImageFix"/>
<feColorMatrix in="SourceAlpha" type="matrix" values="0 0 0 0 0 0 0 0 0 0 0 0 0 0 0 0 0 0 127 0" result="hardAlpha"/>
<feOffset dy="-6.4598"/>
<feGaussianBlur stdDeviation="9.136"/>
<feComposite in2="hardAlpha" operator="out"/>
<feColorMatrix type="matrix" values="0 0 0 0 0 0 0 0 0 0 0 0 0 0 0 0 0 0 0.88 0"/>
<feBlend mode="normal" in2="BackgroundImageFix" result="effect1_dropShadow_224_2945"/>
<feBlend mode="normal" in="SourceGraphic" in2="effect1_dropShadow_224_2945" result="shape"/>
</filter>
<filter id="filter1_d_224_2945" x="96.6953" y="19.3864" width="163.563" height="158.958" filterUnits="userSpaceOnUse" color-interpolation-filters="sRGB">
<feFlood flood-opacity="0" result="BackgroundImageFix"/>
<feColorMatrix in="SourceAlpha" type="matrix" values="0 0 0 0 0 0 0 0 0 0 0 0 0 0 0 0 0 0 127 0" result="hardAlpha"/>
<feOffset dx="32.299" dy="27.6849"/>
<feGaussianBlur stdDeviation="11.5354"/>
<feComposite in2="hardAlpha" operator="out"/>
<feColorMatrix type="matrix" values="0 0 0 0 0 0 0 0 0 0 0 0 0 0 0 0 0 0 0.1 0"/>
<feBlend mode="normal" in2="BackgroundImageFix" result="effect1_dropShadow_224_2945"/>
<feBlend mode="normal" in="SourceGraphic" in2="effect1_dropShadow_224_2945" result="shape"/>
</filter>
<linearGradient id="paint0_linear_224_2945" x1="188.989" y1="111.691" x2="112.591" y2="35.2891" gradientUnits="userSpaceOnUse">
<stop stop-color="#EBEAEA"/>
<stop offset="1" stop-color="white"/>
</linearGradient>
</defs>
</svg>
