<svg width="304" height="245" viewBox="0 0 304 245" fill="none" xmlns="http://www.w3.org/2000/svg">
<g filter="url(#filter0_d_224_2898)">
<line x1="19" y1="72.274" x2="284.775" y2="72.274" stroke="white" stroke-width="0.922828"/>
</g>
<rect x="19" y="72.7354" width="265.775" height="42.4501" fill="white"/>
<path d="M210.99 73.4914H208.042C208.042 41.9321 182.365 16.2583 150.809 16.2583C119.253 16.2583 93.5551 41.9286 93.5551 73.4914H90.5898C90.5898 40.2955 117.596 13.2861 150.795 13.2861C183.995 13.2861 210.99 40.2955 210.99 73.4914Z" fill="#2E4272"/>
<g filter="url(#filter1_d_224_2898)">
<path d="M96.7088 74.8546C97.0589 88.7324 102.731 101.945 112.55 111.757C122.37 121.57 135.586 127.232 149.465 127.572C180.155 128.309 205.487 103.085 204.874 72.391C204.676 62.5415 201.792 52.933 196.533 44.6023C191.275 36.2717 183.841 29.5351 175.034 25.1195C171.283 23.2287 167.321 21.7863 163.232 20.8221C159.513 19.9483 155.713 19.4705 151.893 19.3966C121.172 18.791 95.9337 44.1395 96.7088 74.8546Z" fill="url(#paint0_linear_224_2898)"/>
</g>
<path d="M187.41 109.782C207.535 89.6567 207.601 57.0927 187.557 37.0484C167.512 17.004 134.948 17.0698 114.823 37.1952C94.6977 57.3206 94.6319 89.8846 114.676 109.929C134.721 129.973 167.285 129.908 187.41 109.782Z" fill="#F9F9F9"/>
<path d="M141.913 59.9856C144.623 59.9856 146.819 61.2823 148.502 63.8757C149.903 66.0252 150.604 68.5835 150.604 71.5508C150.604 75.1021 149.717 77.9525 147.941 80.102C146.352 82.0412 144.343 83.0108 141.913 83.0108C139.086 83.0108 136.89 81.7725 135.324 79.2959C133.993 77.2165 133.327 74.6348 133.327 71.5508C133.327 68.0929 134.203 65.2542 135.955 63.0346C137.521 61.0019 139.506 59.9856 141.913 59.9856ZM141.983 64.1911C139.623 64.1911 138.443 66.5742 138.443 71.3405C138.443 73.747 138.782 75.6395 139.46 77.018C140.067 78.2562 140.873 78.8754 141.878 78.8754C142.999 78.8754 143.876 78.2095 144.506 76.8778C145.161 75.546 145.488 73.7003 145.488 71.3405C145.488 66.5742 144.319 64.1911 141.983 64.1911ZM153.459 82.5903V78.4198L158.856 72.0765C160.445 70.2307 161.414 69.0158 161.765 68.4317C162.115 67.8476 162.291 67.1583 162.291 66.364C162.291 65.7098 162.057 65.1724 161.59 64.7518C161.122 64.3313 160.538 64.121 159.837 64.121C158.459 64.121 156.929 64.6934 155.246 65.8383L153.179 62.8243C155.585 60.9085 158.108 59.9505 160.749 59.9505C162.781 59.9505 164.393 60.4879 165.585 61.5627C166.776 62.614 167.372 64.1093 167.372 66.0485C167.372 68.0579 166.484 70.2658 164.709 72.6722C164.031 73.5834 162.291 75.5811 159.487 78.6651H167.197V82.5903H153.459Z" fill="#2E4272"/>
<path d="M91.5993 222.57C91.1593 222.57 90.8073 222.438 90.5433 222.174C90.2793 221.91 90.1473 221.551 90.1473 221.096C90.1473 220.143 90.6313 219.666 91.5993 219.666C92.0393 219.666 92.384 219.798 92.6333 220.062C92.8973 220.311 93.0293 220.656 93.0293 221.096C93.0293 222.079 92.5527 222.57 91.5993 222.57ZM94.9873 222.57C94.5473 222.57 94.1953 222.438 93.9313 222.174C93.6673 221.91 93.5353 221.551 93.5353 221.096C93.5353 220.143 94.0193 219.666 94.9873 219.666C95.4273 219.666 95.772 219.798 96.0213 220.062C96.2853 220.311 96.4173 220.656 96.4173 221.096C96.4173 222.079 95.9407 222.57 94.9873 222.57ZM98.7053 232.338H100.685V235H98.4413C97.0773 235 96.0213 234.545 95.2733 233.636C94.6427 234.12 93.8727 234.362 92.9633 234.362C91.614 234.362 90.536 233.856 89.7293 232.844C89.0693 232.008 88.7393 231.003 88.7393 229.83C88.7393 228.378 89.2087 227.197 90.1473 226.288C90.9393 225.525 91.856 225.144 92.8973 225.144C93.44 225.144 93.9387 225.247 94.3933 225.452V224.88L97.1433 223.428V230.754C97.1433 231.326 97.2607 231.737 97.4953 231.986C97.7447 232.221 98.148 232.338 98.7053 232.338ZM94.3933 228.224C94.012 227.901 93.5793 227.74 93.0953 227.74C92.6113 227.74 92.2153 227.938 91.9073 228.334C91.614 228.73 91.4673 229.251 91.4673 229.896C91.4673 230.541 91.614 231.055 91.9073 231.436C92.2007 231.817 92.604 232.008 93.1173 232.008C93.6747 232.008 94.1073 231.817 94.4153 231.436C94.4007 231.319 94.3933 231.135 94.3933 230.886V228.224ZM113.357 232.338H115.315V235H113.071C112.015 235 111.149 234.729 110.475 234.186C109.683 235.022 108.641 235.44 107.351 235.44C106.031 235.44 104.989 235.022 104.227 234.186C103.523 234.729 102.65 235 101.609 235H99.3647V232.338H101.345C101.902 232.338 102.298 232.221 102.533 231.986C102.767 231.737 102.885 231.326 102.885 230.754V230.116C102.885 228.4 103.332 227.065 104.227 226.112C105.004 225.276 106.045 224.858 107.351 224.858C108.832 224.858 109.976 225.401 110.783 226.486C111.457 227.41 111.795 228.62 111.795 230.116V230.754C111.795 231.326 111.912 231.737 112.147 231.986C112.396 232.221 112.799 232.338 113.357 232.338ZM107.351 232.778C108.465 232.778 109.023 231.869 109.023 230.05C109.023 228.305 108.465 227.432 107.351 227.432C106.221 227.432 105.657 228.305 105.657 230.05C105.657 231.869 106.221 232.778 107.351 232.778ZM113.996 235V232.338H117.274C119.855 232.338 121.908 231.568 123.434 230.028C122.436 228.283 121.226 227.41 119.804 227.41C118.63 227.41 117.347 228.048 115.954 229.324V226.882C117.186 225.533 118.579 224.858 120.134 224.858C121.278 224.858 122.392 225.276 123.478 226.112C124.563 226.948 125.524 228.136 126.36 229.676V230.776C125.304 232.125 123.984 233.167 122.4 233.9C120.83 234.633 119.114 235 117.252 235H113.996ZM120.816 239.906C120.376 239.906 120.024 239.774 119.76 239.51C119.496 239.246 119.364 238.887 119.364 238.432C119.364 238.007 119.496 237.662 119.76 237.398C120.024 237.134 120.376 237.002 120.816 237.002C121.256 237.002 121.6 237.127 121.85 237.376C122.114 237.64 122.246 237.992 122.246 238.432C122.246 239.415 121.769 239.906 120.816 239.906ZM135.628 232.338H137.608V235H135.364C134.866 235 134.404 234.934 133.978 234.802C133.788 236.21 133.223 237.325 132.284 238.146C131.434 238.879 130.414 239.246 129.226 239.246C128.302 239.246 127.4 239.011 126.52 238.542V236.122C127.283 236.547 128.031 236.76 128.764 236.76C129.571 236.76 130.194 236.496 130.634 235.968C131.089 235.455 131.316 234.736 131.316 233.812V226.684L133.12 225.738L134.066 225.232V225.254L134.088 225.232V230.754C134.088 231.326 134.206 231.737 134.44 231.986C134.675 232.221 135.071 232.338 135.628 232.338ZM138.386 223.296C137.946 223.296 137.594 223.164 137.33 222.9C137.066 222.636 136.934 222.277 136.934 221.822C136.934 221.397 137.066 221.052 137.33 220.788C137.594 220.524 137.946 220.392 138.386 220.392C138.826 220.392 139.171 220.524 139.42 220.788C139.684 221.037 139.816 221.382 139.816 221.822C139.816 222.805 139.34 223.296 138.386 223.296ZM141.752 223.296C141.312 223.296 140.96 223.164 140.696 222.9C140.432 222.621 140.3 222.262 140.3 221.822C140.3 221.397 140.432 221.052 140.696 220.788C140.975 220.524 141.327 220.392 141.752 220.392C142.192 220.392 142.537 220.524 142.786 220.788C143.05 221.037 143.182 221.382 143.182 221.822C143.182 222.805 142.706 223.296 141.752 223.296ZM144.128 232.338H146.108V235H143.864C142.794 235 141.906 234.714 141.202 234.142C140.498 234.714 139.611 235 138.54 235H136.296V232.338H138.276C138.834 232.338 139.23 232.221 139.464 231.986C139.699 231.737 139.816 231.326 139.816 230.754V226.684L142.588 225.232V230.754C142.588 231.326 142.706 231.737 142.94 231.986C143.175 232.221 143.571 232.338 144.128 232.338ZM144.783 235V232.338H146.169C146.843 232.338 147.32 232.191 147.599 231.898C147.892 231.605 148.039 231.106 148.039 230.402V222.284L150.789 220.81V230.424C150.789 231.847 150.356 232.983 149.491 233.834C148.699 234.611 147.643 235 146.323 235H144.783ZM154.749 235V222.284L157.521 220.81V235H154.749ZM178.727 233.174C178.727 235.051 178.081 236.562 176.791 237.706C175.647 238.703 174.209 239.202 172.479 239.202C170.396 239.202 168.783 238.513 167.639 237.134C166.759 236.078 166.319 234.824 166.319 233.372C166.319 232.228 166.583 231.216 167.111 230.336L169.839 229.72C169.237 230.673 168.937 231.766 168.937 232.998C168.937 234.083 169.252 234.941 169.883 235.572C170.528 236.217 171.393 236.54 172.479 236.54C173.549 236.54 174.4 236.239 175.031 235.638C175.661 235.037 175.977 234.215 175.977 233.174V222.284L178.727 220.81V233.174ZM186.726 235C185.392 235 184.358 234.575 183.624 233.724C182.994 232.991 182.678 232.045 182.678 230.886V222.262L185.45 220.81V230.754C185.45 231.326 185.568 231.737 185.802 231.986C186.037 232.221 186.433 232.338 186.99 232.338H188.97V235H186.726ZM201.988 232.338H203.836V235H201.966C200.807 235 199.876 234.875 199.172 234.626C198.483 234.362 197.837 233.907 197.236 233.262C195.403 234.421 193.291 235 190.9 235H187.644V232.338H190.922C193.503 232.338 195.557 231.568 197.082 230.028C196.085 228.283 194.875 227.41 193.452 227.41C192.279 227.41 190.995 228.048 189.602 229.324V226.882C190.834 225.533 192.227 224.858 193.782 224.858C194.926 224.858 196.041 225.276 197.126 226.112C198.211 226.948 199.172 228.136 200.008 229.676V230.776C199.773 231.084 199.465 231.429 199.084 231.81C199.671 232.162 200.639 232.338 201.988 232.338ZM195.894 237.002C196.334 237.002 196.679 237.127 196.928 237.376C197.192 237.64 197.324 237.992 197.324 238.432C197.324 239.415 196.847 239.906 195.894 239.906C195.454 239.906 195.102 239.774 194.838 239.51C194.574 239.246 194.442 238.887 194.442 238.432C194.442 238.007 194.574 237.662 194.838 237.398C195.102 237.134 195.454 237.002 195.894 237.002ZM206.031 228.928C206.031 227.608 206.442 226.574 207.263 225.826C207.982 225.181 208.906 224.858 210.035 224.858C211.487 224.858 212.616 225.393 213.423 226.464C214.112 227.359 214.457 228.51 214.457 229.918C214.457 231.546 214.024 232.829 213.159 233.768C212.382 234.589 211.392 235 210.189 235C209.016 235 208.055 234.743 207.307 234.23C206.603 234.743 205.752 235 204.755 235H202.511V232.338H204.491C205.048 232.338 205.444 232.221 205.679 231.986C205.914 231.737 206.031 231.326 206.031 230.754V228.928ZM208.803 231.106C208.803 231.927 209.236 232.338 210.101 232.338C211.186 232.338 211.729 231.502 211.729 229.83C211.729 228.231 211.164 227.432 210.035 227.432C209.214 227.432 208.803 227.916 208.803 228.884V231.106Z" fill="#3B3B3B"/>
<path d="M140 182.5V171.904C140.019 171.835 140.038 171.766 140.057 171.696C140.215 171.083 140.555 170.6 141.112 170.297C141.357 170.163 141.639 170.097 141.904 170H152.5C152.513 170.01 152.527 170.018 152.542 170.024C153.811 170.348 154.405 171.108 154.405 172.426C154.405 175.638 154.405 178.85 154.405 182.061C154.405 183.469 153.473 184.399 152.065 184.4C150.813 184.4 149.56 184.4 148.307 184.4C148.145 184.4 148.05 184.436 147.965 184.591C147.128 186.102 145.838 186.988 144.15 187.309C143.641 187.405 143.248 187.082 143.234 186.563C143.227 186.32 143.234 186.076 143.234 185.832C143.234 185.362 143.234 184.894 143.234 184.399C142.849 184.399 142.493 184.408 142.137 184.399C141.688 184.385 141.253 184.233 140.893 183.965C140.532 183.696 140.262 183.323 140.119 182.897C140.069 182.766 140.037 182.632 140 182.5ZM149.375 176.164C149.522 176.164 149.651 176.164 149.781 176.164C149.91 176.164 150.041 176.168 150.171 176.164C150.323 176.16 150.469 176.108 150.589 176.015C150.709 175.922 150.796 175.794 150.839 175.649C150.985 175.158 150.636 174.712 150.085 174.705C149.459 174.697 148.832 174.705 148.206 174.702C148.121 174.702 148.035 174.693 147.931 174.688C147.931 174.533 147.936 174.403 147.931 174.274C147.91 173.845 147.611 173.537 147.214 173.529C146.818 173.521 146.494 173.839 146.473 174.277C146.466 174.412 146.473 174.547 146.473 174.692C146.373 174.697 146.309 174.702 146.246 174.703C145.611 174.703 144.977 174.703 144.342 174.703C143.868 174.706 143.533 175.014 143.531 175.434C143.528 175.855 143.856 176.16 144.335 176.165C144.562 176.165 144.791 176.165 145.031 176.165C145.145 177.182 145.446 178.113 146.072 178.932C145.501 179.215 144.878 179.379 144.242 179.416C143.818 179.448 143.515 179.775 143.533 180.167C143.537 180.267 143.562 180.365 143.605 180.455C143.649 180.546 143.71 180.626 143.786 180.692C143.861 180.758 143.949 180.808 144.044 180.839C144.14 180.87 144.24 180.881 144.34 180.872C145.296 180.816 146.199 180.572 147.024 180.076C147.076 180.036 147.141 180.014 147.208 180.014C147.274 180.014 147.339 180.036 147.391 180.076C148.216 180.571 149.12 180.815 150.076 180.87C150.173 180.879 150.272 180.868 150.366 180.838C150.459 180.808 150.546 180.76 150.621 180.697C150.695 180.633 150.757 180.556 150.802 180.468C150.846 180.381 150.873 180.286 150.88 180.188C150.914 179.789 150.604 179.451 150.172 179.413C150.034 179.401 149.895 179.392 149.759 179.371C149.27 179.294 148.796 179.171 148.343 178.925C148.967 178.102 149.257 177.173 149.375 176.164Z" fill="#2E4272"/>
<path d="M163.097 195H152.501C152.481 194.987 152.459 194.975 152.436 194.967C151.232 194.681 150.598 193.882 150.598 192.646C150.598 190.482 150.598 188.317 150.598 186.153V185.867C151.165 185.867 151.708 185.873 152.251 185.867C153.006 185.866 153.74 185.622 154.346 185.172C155.329 184.44 155.837 183.453 155.865 182.227C155.877 181.693 155.865 181.158 155.865 180.634C155.904 180.617 155.919 180.604 155.93 180.604C156.191 180.604 156.451 180.59 156.712 180.604C156.873 180.613 156.953 180.556 157.031 180.416C157.868 178.903 159.159 178.018 160.845 177.695C161.358 177.597 161.748 177.918 161.765 178.438C161.771 178.625 161.765 178.812 161.765 179C161.765 179.526 161.765 180.052 161.765 180.602C162.148 180.602 162.505 180.587 162.86 180.602C163.727 180.648 164.373 181.058 164.765 181.839C164.869 182.047 164.92 182.281 164.995 182.503V193.096C164.978 193.157 164.958 193.219 164.942 193.281C164.786 193.913 164.437 194.408 163.861 194.713C163.628 194.843 163.354 194.907 163.097 195ZM161.472 190.67C161.447 190.565 161.413 190.461 161.371 190.361C160.412 188.434 159.45 186.509 158.486 184.586C158.342 184.297 158.117 184.127 157.794 184.13C157.484 184.13 157.264 184.298 157.124 184.579C156.159 186.512 155.193 188.445 154.226 190.377C154.031 190.768 154.161 191.198 154.522 191.385C154.9 191.581 155.317 191.442 155.53 191.039C155.681 190.752 155.813 190.453 155.974 190.172C156.002 190.129 156.039 190.092 156.082 190.065C156.126 190.038 156.175 190.021 156.225 190.015C157.274 190.004 158.324 190.01 159.373 190.004C159.432 189.998 159.492 190.012 159.542 190.044C159.592 190.077 159.629 190.125 159.648 190.181C159.793 190.49 159.944 190.797 160.108 191.093C160.186 191.238 160.311 191.352 160.463 191.415C160.615 191.478 160.784 191.486 160.942 191.438C161.251 191.355 161.476 191.057 161.472 190.67Z" fill="#2E4272"/>
<path d="M140 186.7C140.023 186.669 140.045 186.638 140.065 186.605C140.245 186.269 140.562 186.109 140.891 186.191C141.246 186.279 141.459 186.55 141.466 186.939C141.486 188.144 141.865 189.222 142.63 190.153C143.5 191.212 144.624 191.824 145.981 192.012C146.061 192.023 146.142 192.022 146.279 192.03C146.191 191.933 146.132 191.873 146.078 191.81C145.95 191.669 145.881 191.486 145.885 191.296C145.889 191.106 145.966 190.925 146.099 190.791C146.23 190.659 146.407 190.582 146.593 190.578C146.779 190.574 146.959 190.642 147.095 190.769C147.619 191.268 148.131 191.78 148.63 192.304C148.756 192.437 148.824 192.614 148.821 192.796C148.817 192.979 148.743 193.153 148.613 193.281C148.121 193.791 147.618 194.289 147.11 194.778C147.01 194.876 146.863 194.924 146.738 194.996H146.494C146.477 194.98 146.457 194.967 146.436 194.956C145.835 194.732 145.701 194.149 146.143 193.682C146.188 193.633 146.228 193.579 146.287 193.509C146.218 193.499 146.187 193.491 146.156 193.489C143.43 193.285 141.143 191.495 140.315 188.896C140.169 188.436 140.104 187.95 140.001 187.476L140 186.7Z" fill="#2E4272"/>
<path d="M165.002 178.203C164.892 178.464 164.76 178.699 164.461 178.783C163.987 178.918 163.542 178.588 163.528 178.07C163.502 177.082 163.251 176.162 162.717 175.324C161.839 173.945 160.282 173.014 158.718 172.963C158.794 173.047 158.848 173.106 158.903 173.167C159.171 173.474 159.168 173.905 158.895 174.183C158.829 174.252 158.749 174.308 158.661 174.346C158.573 174.384 158.478 174.404 158.382 174.404C158.286 174.405 158.19 174.387 158.101 174.351C158.013 174.314 157.932 174.26 157.864 174.192C157.361 173.706 156.866 173.212 156.38 172.708C156.312 172.643 156.257 172.564 156.22 172.477C156.183 172.391 156.164 172.297 156.164 172.203C156.164 172.108 156.183 172.014 156.22 171.928C156.257 171.841 156.312 171.762 156.38 171.697C156.867 171.194 157.363 170.701 157.865 170.214C157.96 170.12 158.097 170.07 158.214 170H158.556C158.572 170.016 158.591 170.03 158.611 170.042C159.164 170.303 159.269 170.85 158.851 171.291C158.804 171.341 158.761 171.394 158.697 171.466C158.811 171.48 158.893 171.494 158.97 171.501C161.849 171.773 164.171 173.809 164.821 176.639C164.901 176.993 164.942 177.355 165.001 177.715L165.002 178.203Z" fill="#2E4272"/>
<path d="M146.512 176.177H147.855C147.889 176.664 147.569 177.537 147.191 177.976C146.794 177.444 146.599 176.849 146.512 176.177Z" fill="#2E4272"/>
<path d="M156.789 188.525L157.803 186.498C158.147 187.187 158.475 187.842 158.816 188.525H156.789Z" fill="#2E4272"/>
<defs>
<filter id="filter0_d_224_2898" x="0.727999" y="47.0808" width="302.319" height="37.4668" filterUnits="userSpaceOnUse" color-interpolation-filters="sRGB">
<feFlood flood-opacity="0" result="BackgroundImageFix"/>
<feColorMatrix in="SourceAlpha" type="matrix" values="0 0 0 0 0 0 0 0 0 0 0 0 0 0 0 0 0 0 127 0" result="hardAlpha"/>
<feOffset dy="-6.4598"/>
<feGaussianBlur stdDeviation="9.136"/>
<feComposite in2="hardAlpha" operator="out"/>
<feColorMatrix type="matrix" values="0 0 0 0 0 0 0 0 0 0 0 0 0 0 0 0 0 0 0.88 0"/>
<feBlend mode="normal" in2="BackgroundImageFix" result="effect1_dropShadow_224_2898"/>
<feBlend mode="normal" in="SourceGraphic" in2="effect1_dropShadow_224_2898" result="shape"/>
</filter>
<filter id="filter1_d_224_2898" x="96.6914" y="19.3859" width="163.563" height="158.958" filterUnits="userSpaceOnUse" color-interpolation-filters="sRGB">
<feFlood flood-opacity="0" result="BackgroundImageFix"/>
<feColorMatrix in="SourceAlpha" type="matrix" values="0 0 0 0 0 0 0 0 0 0 0 0 0 0 0 0 0 0 127 0" result="hardAlpha"/>
<feOffset dx="32.299" dy="27.6849"/>
<feGaussianBlur stdDeviation="11.5354"/>
<feComposite in2="hardAlpha" operator="out"/>
<feColorMatrix type="matrix" values="0 0 0 0 0 0 0 0 0 0 0 0 0 0 0 0 0 0 0.1 0"/>
<feBlend mode="normal" in2="BackgroundImageFix" result="effect1_dropShadow_224_2898"/>
<feBlend mode="normal" in="SourceGraphic" in2="effect1_dropShadow_224_2898" result="shape"/>
</filter>
<linearGradient id="paint0_linear_224_2898" x1="188.985" y1="111.691" x2="112.587" y2="35.2887" gradientUnits="userSpaceOnUse">
<stop stop-color="#EBEAEA"/>
<stop offset="1" stop-color="white"/>
</linearGradient>
</defs>
</svg>
