<svg width="304" height="245" viewBox="0 0 304 245" fill="none" xmlns="http://www.w3.org/2000/svg">
<g filter="url(#filter0_d_224_2917)">
<line x1="19" y1="72.2744" x2="284.775" y2="72.2744" stroke="white" stroke-width="0.922828"/>
</g>
<rect x="19" y="72.7358" width="265.775" height="42.4501" fill="white"/>
<path d="M210.994 73.4915H208.046C208.046 41.9322 182.369 16.2585 150.813 16.2585C119.257 16.2585 93.559 41.9287 93.559 73.4915H90.5938C90.5938 40.2956 117.6 13.2863 150.799 13.2863C183.998 13.2863 210.994 40.2956 210.994 73.4915Z" fill="#E2A52F"/>
<g filter="url(#filter1_d_224_2917)">
<path d="M96.7127 74.8549C97.0628 88.7327 102.735 101.945 112.554 111.758C122.374 121.57 135.59 127.232 149.468 127.573C180.159 128.31 205.49 103.086 204.878 72.3913C204.68 62.5418 201.796 52.9333 196.537 44.6026C191.279 36.272 183.845 29.5354 175.038 25.1198C171.287 23.229 167.325 21.7866 163.236 20.8224C159.517 19.9486 155.717 19.4708 151.897 19.3969C121.175 18.7913 95.9376 44.1398 96.7127 74.8549Z" fill="url(#paint0_linear_224_2917)"/>
</g>
<path d="M187.41 109.782C207.535 89.6569 207.601 57.0929 187.557 37.0486C167.512 17.0043 134.948 17.07 114.823 37.1954C94.6977 57.3208 94.6319 89.8848 114.676 109.929C134.721 129.973 167.285 129.908 187.41 109.782Z" fill="#F9F9F9"/>
<path d="M142.16 59.986C144.87 59.986 147.066 61.2827 148.749 63.8761C150.151 66.0256 150.851 68.5839 150.851 71.5511C150.851 75.1025 149.964 77.9529 148.188 80.1024C146.599 82.0416 144.59 83.0112 142.16 83.0112C139.333 83.0112 137.137 81.7729 135.571 79.2963C134.24 77.2169 133.574 74.6352 133.574 71.5511C133.574 68.0933 134.45 65.2545 136.202 63.035C137.768 61.0023 139.754 59.986 142.16 59.986ZM142.23 64.1915C139.87 64.1915 138.69 66.5746 138.69 71.3409C138.69 73.7474 139.029 75.6398 139.707 77.0183C140.314 78.2566 141.12 78.8758 142.125 78.8758C143.246 78.8758 144.123 78.2099 144.753 76.8781C145.408 75.5464 145.735 73.7006 145.735 71.3409C145.735 66.5746 144.567 64.1915 142.23 64.1915ZM156.405 72.8128V68.8176H159.839H160.119C160.937 68.8176 161.498 68.654 161.802 68.3269C162.129 67.9998 162.292 67.404 162.292 66.5396C162.292 65.7919 162.082 65.1961 161.661 64.7522C161.241 64.3083 160.68 64.0863 159.979 64.0863C158.531 64.0863 157.047 64.7639 155.528 66.119L153.741 62.9298C155.704 60.9672 157.935 59.986 160.435 59.986C162.491 59.986 164.185 60.5701 165.517 61.7383C166.802 62.8364 167.444 64.2966 167.444 66.119C167.444 67.2872 167.257 68.1867 166.883 68.8176C166.51 69.4484 165.844 69.9858 164.886 70.4297C167.129 71.3642 168.25 73.0932 168.25 75.6165C168.25 78.4202 167.304 80.4411 165.411 81.6794C164.103 82.5439 162.456 82.9761 160.47 82.9761C159.395 82.9761 158.145 82.6724 156.72 82.0649C155.295 81.4575 154.162 80.7449 153.321 79.9271L155.318 76.9482C156.533 78.1164 158.145 78.7005 160.155 78.7005C161.066 78.7005 161.79 78.4318 162.327 77.8945C162.865 77.3571 163.133 76.6328 163.133 75.7216C163.133 73.7824 162.035 72.8128 159.839 72.8128H156.405Z" fill="#E2A52F"/>
<path d="M88.2511 242.018C86.9898 242.839 85.5745 243.25 84.0051 243.25C82.2745 243.25 80.8738 242.707 79.8031 241.622C78.8205 240.625 78.3291 239.356 78.3291 237.816C78.3291 236.745 78.6005 235.814 79.1431 235.022C79.7005 234.23 80.6025 233.475 81.8491 232.756C80.9985 232.243 79.9645 231.26 78.7471 229.808C78.5858 229.617 78.4611 229.463 78.3731 229.346V228.092C79.0331 227.109 79.8691 226.325 80.8811 225.738C81.9078 225.151 82.9491 224.858 84.0051 224.858C85.0611 224.858 86.1025 225.159 87.1291 225.76C88.1558 226.347 89.0065 227.139 89.6811 228.136V229.346C88.7718 230.431 87.6498 231.392 86.3151 232.228C86.8138 232.301 87.2685 232.338 87.6791 232.338H92.4531L92.4751 235H86.1171C85.3105 235 84.5771 234.809 83.9171 234.428C82.8611 234.912 82.1058 235.418 81.6511 235.946C81.2111 236.474 80.9911 237.105 80.9911 237.838C80.9911 238.674 81.2771 239.341 81.8491 239.84C82.4358 240.339 83.2205 240.588 84.2031 240.588C85.6405 240.588 86.9898 240.192 88.2511 239.4V242.018ZM83.9831 231.282C85.0831 230.417 85.8971 229.544 86.4251 228.664C85.5451 227.843 84.7238 227.432 83.9611 227.432C83.2131 227.432 82.4285 227.843 81.6071 228.664C82.1938 229.676 82.9858 230.549 83.9831 231.282ZM98.4057 223.274C97.9657 223.274 97.6137 223.142 97.3497 222.878C97.0857 222.614 96.9537 222.255 96.9537 221.8C96.9537 221.375 97.0857 221.03 97.3497 220.766C97.6137 220.502 97.9657 220.37 98.4057 220.37C98.8457 220.37 99.1903 220.502 99.4397 220.766C99.7037 221.015 99.8357 221.36 99.8357 221.8C99.8357 222.783 99.359 223.274 98.4057 223.274ZM91.1457 235V232.338H94.6877C94.233 231.707 94.0057 230.901 94.0057 229.918C94.0057 228.305 94.4457 227.029 95.3257 226.09C96.1177 225.269 97.1517 224.858 98.4277 224.858C99.733 224.858 100.745 225.276 101.464 226.112C102.109 226.831 102.432 227.769 102.432 228.928V230.908C102.417 232.169 102.043 233.167 101.31 233.9C100.591 234.633 99.6157 235 98.3837 235H91.1457ZM99.6597 228.884C99.6597 227.916 99.249 227.432 98.4277 227.432C97.2983 227.432 96.7337 228.231 96.7337 229.83C96.7337 231.502 97.2763 232.338 98.3617 232.338C99.227 232.338 99.6597 231.869 99.6597 230.93V228.884ZM104.422 235L105.808 232.338H109.284C110.032 232.338 110.406 231.905 110.406 231.04C110.406 229.427 109.629 228.187 108.074 227.322L109.438 224.968C111.726 226.303 112.958 228.114 113.134 230.402C113.193 231.135 113.354 231.641 113.618 231.92C113.897 232.199 114.366 232.338 115.026 232.338H116.698V235H114.872C113.787 235 112.87 234.699 112.122 234.098C111.579 234.699 110.802 235 109.79 235H104.422ZM115.38 235V232.338H116.766C117.441 232.338 117.917 232.191 118.196 231.898C118.489 231.605 118.636 231.106 118.636 230.402V222.284L121.386 220.81V230.424C121.386 231.847 120.953 232.983 120.088 233.834C119.296 234.611 118.24 235 116.92 235H115.38ZM125.346 235V222.284L128.118 220.81V235H125.346ZM137.043 234.362C136.588 234.45 136.119 234.494 135.635 234.494C134.285 234.494 133.207 233.988 132.401 232.976C131.741 232.125 131.411 231.099 131.411 229.896C131.411 228.283 131.851 227.014 132.731 226.09C133.508 225.269 134.535 224.858 135.811 224.858C137.116 224.858 138.135 225.276 138.869 226.112C139.499 226.831 139.815 227.769 139.815 228.928V233.636C139.815 235.367 139.36 236.731 138.451 237.728C137.6 238.667 136.441 239.136 134.975 239.136C134.051 239.136 133.149 238.887 132.269 238.388V235.99C133.061 236.445 133.853 236.672 134.645 236.672C136.067 236.672 136.867 235.902 137.043 234.362ZM137.065 228.884C137.065 227.916 136.647 227.432 135.811 227.432C135.283 227.432 134.865 227.645 134.557 228.07C134.263 228.495 134.117 229.075 134.117 229.808C134.117 231.363 134.674 232.14 135.789 232.14C136.375 232.14 136.801 231.993 137.065 231.7V228.884ZM154.372 232.338H156.352V235H154.108C153.609 235 153.147 234.934 152.722 234.802C152.531 236.21 151.967 237.325 151.028 238.146C150.177 238.879 149.158 239.246 147.97 239.246C147.046 239.246 146.144 239.011 145.264 238.542V236.122C146.027 236.547 146.775 236.76 147.508 236.76C148.315 236.76 148.938 236.496 149.378 235.968C149.833 235.455 150.06 234.736 150.06 233.812V226.684L151.864 225.738L152.81 225.232V225.254L152.832 225.232V230.754C152.832 231.326 152.949 231.737 153.184 231.986C153.419 232.221 153.815 232.338 154.372 232.338ZM162.872 232.338H164.852V235H162.608C161.538 235 160.65 234.714 159.946 234.142C159.242 234.714 158.355 235 157.284 235H155.04V232.338H157.02C157.578 232.338 157.974 232.221 158.208 231.986C158.443 231.737 158.56 231.326 158.56 230.754V226.684L161.332 225.232V230.754C161.332 231.326 161.45 231.737 161.684 231.986C161.919 232.221 162.315 232.338 162.872 232.338ZM157.174 237.002C157.614 237.002 157.959 237.127 158.208 237.376C158.472 237.64 158.604 237.992 158.604 238.432C158.604 239.415 158.128 239.906 157.174 239.906C156.734 239.906 156.382 239.774 156.118 239.51C155.854 239.246 155.722 238.887 155.722 238.432C155.722 237.479 156.206 237.002 157.174 237.002ZM160.562 237.002C161.002 237.002 161.347 237.127 161.596 237.376C161.86 237.64 161.992 237.992 161.992 238.432C161.992 239.415 161.516 239.906 160.562 239.906C160.122 239.906 159.77 239.774 159.506 239.51C159.242 239.246 159.11 238.887 159.11 238.432C159.11 237.479 159.594 237.002 160.562 237.002ZM174.329 232.338H180.379L180.423 235H174.065C173.317 235 172.613 234.817 171.953 234.45C171.263 234.817 170.559 235 169.841 235H163.527V232.338H169.511C168.851 231.883 168.301 231.451 167.861 231.04C167.611 230.82 167.23 230.409 166.717 229.808C166.555 229.617 166.423 229.463 166.321 229.346V228.092C166.966 227.109 167.795 226.325 168.807 225.738C169.833 225.151 170.882 224.858 171.953 224.858C173.009 224.858 174.05 225.159 175.077 225.76C176.103 226.347 176.954 227.139 177.629 228.136V229.346C176.646 230.534 175.546 231.531 174.329 232.338ZM171.931 231.282C173.031 230.417 173.845 229.544 174.373 228.664C173.493 227.843 172.664 227.432 171.887 227.432C171.139 227.432 170.361 227.843 169.555 228.664C170.127 229.676 170.919 230.549 171.931 231.282ZM179.103 235V232.338H181.435C181.992 232.338 182.388 232.221 182.623 231.986C182.872 231.737 182.997 231.326 182.997 230.754V227.85L185.769 226.398V230.754C185.769 231.326 185.886 231.737 186.121 231.986C186.355 232.221 186.751 232.338 187.309 232.338H188.805C189.362 232.338 189.758 232.221 189.993 231.986C190.227 231.737 190.345 231.326 190.345 230.754V227.278L193.117 225.804V230.754C193.117 231.326 193.234 231.737 193.469 231.986C193.718 232.221 194.121 232.338 194.679 232.338H196.175C196.732 232.338 197.128 232.221 197.363 231.986C197.597 231.737 197.715 231.326 197.715 230.754V226.684L200.487 225.232V230.402C200.487 231.106 200.626 231.605 200.905 231.898C201.198 232.191 201.682 232.338 202.357 232.338H204.381V235H202.203C200.971 235 199.981 234.648 199.233 233.944C198.573 234.633 197.685 234.985 196.571 235H194.393C193.307 235 192.42 234.677 191.731 234.032C191.1 234.663 190.264 234.985 189.223 235H187.045C185.959 235 185.072 234.677 184.383 234.032C183.693 234.677 182.806 235 181.721 235H179.103ZM205.148 223.296C204.708 223.296 204.356 223.164 204.092 222.9C203.828 222.636 203.696 222.277 203.696 221.822C203.696 221.397 203.828 221.052 204.092 220.788C204.356 220.524 204.708 220.392 205.148 220.392C205.588 220.392 205.932 220.524 206.182 220.788C206.446 221.037 206.578 221.382 206.578 221.822C206.578 222.805 206.101 223.296 205.148 223.296ZM208.514 223.296C208.074 223.296 207.722 223.164 207.458 222.9C207.194 222.621 207.062 222.262 207.062 221.822C207.062 221.397 207.194 221.052 207.458 220.788C207.736 220.524 208.088 220.392 208.514 220.392C208.954 220.392 209.298 220.524 209.548 220.788C209.812 221.037 209.944 221.382 209.944 221.822C209.944 222.805 209.467 223.296 208.514 223.296ZM210.89 232.338H212.87V235H210.626C209.555 235 208.668 234.714 207.964 234.142C207.26 234.714 206.372 235 205.302 235H203.058V232.338H205.038C205.595 232.338 205.991 232.221 206.226 231.986C206.46 231.737 206.578 231.326 206.578 230.754V226.684L209.35 225.232V230.754C209.35 231.326 209.467 231.737 209.702 231.986C209.936 232.221 210.332 232.338 210.89 232.338ZM211.544 235V232.338H212.93C213.605 232.338 214.081 232.191 214.36 231.898C214.653 231.605 214.8 231.106 214.8 230.402V222.284L217.55 220.81V230.424C217.55 231.847 217.117 232.983 216.252 233.834C215.46 234.611 214.404 235 213.084 235H211.544ZM221.51 235V222.284L224.282 220.81V235H221.51Z" fill="#3B3B3B"/>
<path d="M151.5 188.056C150.736 188.056 150.082 187.784 149.539 187.24C148.995 186.697 148.723 186.043 148.722 185.278C148.721 184.513 148.994 183.859 149.539 183.317C150.084 182.774 150.738 182.502 151.5 182.5C152.262 182.498 152.916 182.77 153.462 183.317C154.009 183.863 154.281 184.517 154.278 185.278C154.275 186.039 154.003 186.693 153.462 187.24C152.922 187.788 152.268 188.059 151.5 188.056ZM145.076 175.556H157.924L160.701 170H142.299L145.076 175.556ZM146.5 195H156.5C158.583 195 160.354 194.277 161.812 192.831C163.271 191.384 164 189.607 164 187.5C164 186.62 163.85 185.764 163.549 184.931C163.248 184.097 162.819 183.345 162.264 182.674L158.653 178.333H144.347L140.736 182.674C140.181 183.345 139.752 184.097 139.451 184.931C139.15 185.764 139 186.62 139 187.5C139 189.606 139.724 191.383 141.171 192.831C142.618 194.278 144.394 195.001 146.5 195Z" fill="#E2A52F"/>
<defs>
<filter id="filter0_d_224_2917" x="0.727999" y="47.0812" width="302.319" height="37.4668" filterUnits="userSpaceOnUse" color-interpolation-filters="sRGB">
<feFlood flood-opacity="0" result="BackgroundImageFix"/>
<feColorMatrix in="SourceAlpha" type="matrix" values="0 0 0 0 0 0 0 0 0 0 0 0 0 0 0 0 0 0 127 0" result="hardAlpha"/>
<feOffset dy="-6.4598"/>
<feGaussianBlur stdDeviation="9.136"/>
<feComposite in2="hardAlpha" operator="out"/>
<feColorMatrix type="matrix" values="0 0 0 0 0 0 0 0 0 0 0 0 0 0 0 0 0 0 0.88 0"/>
<feBlend mode="normal" in2="BackgroundImageFix" result="effect1_dropShadow_224_2917"/>
<feBlend mode="normal" in="SourceGraphic" in2="effect1_dropShadow_224_2917" result="shape"/>
</filter>
<filter id="filter1_d_224_2917" x="96.6953" y="19.3862" width="163.563" height="158.958" filterUnits="userSpaceOnUse" color-interpolation-filters="sRGB">
<feFlood flood-opacity="0" result="BackgroundImageFix"/>
<feColorMatrix in="SourceAlpha" type="matrix" values="0 0 0 0 0 0 0 0 0 0 0 0 0 0 0 0 0 0 127 0" result="hardAlpha"/>
<feOffset dx="32.299" dy="27.6849"/>
<feGaussianBlur stdDeviation="11.5354"/>
<feComposite in2="hardAlpha" operator="out"/>
<feColorMatrix type="matrix" values="0 0 0 0 0 0 0 0 0 0 0 0 0 0 0 0 0 0 0.1 0"/>
<feBlend mode="normal" in2="BackgroundImageFix" result="effect1_dropShadow_224_2917"/>
<feBlend mode="normal" in="SourceGraphic" in2="effect1_dropShadow_224_2917" result="shape"/>
</filter>
<linearGradient id="paint0_linear_224_2917" x1="188.989" y1="111.691" x2="112.591" y2="35.289" gradientUnits="userSpaceOnUse">
<stop stop-color="#EBEAEA"/>
<stop offset="1" stop-color="white"/>
</linearGradient>
</defs>
</svg>
