<svg width="11" height="13" viewBox="0 0 11 13" fill="none" xmlns="http://www.w3.org/2000/svg">
<path d="M10.4289 3.7199C10.1936 3.13263 8.59301 1.87631 8.13991 1.40615C7.75112 1.05064 7.25778 0.830389 6.73354 0.77828C6.79827 0.713551 3.2029 0.77828 3.10874 0.77828C2.71911 0.761525 2.33004 0.822398 1.96414 0.957361C1.59825 1.09232 1.26284 1.29868 0.977413 1.56444C0.692602 1.83002 0.463348 2.1495 0.302942 2.50435C0.142536 2.8592 0.0541705 3.24237 0.0429688 3.63163V9.67903C0.0557362 10.0679 0.145825 10.4504 0.307979 10.8041C0.470132 11.1578 0.701103 11.4757 0.987416 11.7392C1.27386 12.0033 1.60992 12.208 1.9761 12.3412C2.34228 12.4745 2.73128 12.5336 3.12051 12.5153H7.56913C7.9589 12.5321 8.3481 12.4711 8.71411 12.3361C9.08011 12.201 9.4156 11.9945 9.70105 11.7286C9.98575 11.4629 10.2149 11.1434 10.3752 10.7886C10.5355 10.4337 10.6238 10.0506 10.6349 9.66138V4.63021C10.631 4.31567 10.5609 4.00547 10.4289 3.7199ZM7.58089 7.82957C6.99245 8.45214 6.31575 7.31291 5.92738 7.00751V9.72023C5.92745 9.79747 5.91228 9.87396 5.88272 9.94533C5.85316 10.0167 5.8098 10.0815 5.75513 10.1361C5.70045 10.1906 5.63555 10.2339 5.56412 10.2633C5.4927 10.2927 5.41618 10.3077 5.33894 10.3075C5.18307 10.3075 5.03358 10.2457 4.92326 10.1356C4.81294 10.0255 4.75081 9.87609 4.75049 9.72023V7.00751L3.92668 7.82957C3.39708 8.37564 2.54973 7.53005 3.09698 7.00163L4.66223 5.43991C4.84273 5.26238 5.08576 5.16289 5.33894 5.16289C5.59211 5.16289 5.83514 5.26238 6.01564 5.43991L7.58089 7.00163C7.63578 7.0563 7.67933 7.12127 7.70905 7.19282C7.73877 7.26436 7.75407 7.34107 7.75407 7.41854C7.75407 7.49601 7.73877 7.57272 7.70905 7.64426C7.67933 7.71581 7.63578 7.78078 7.58089 7.83545V7.82957ZM7.71035 3.94291C6.72766 3.94291 7.15722 2.32823 7.06895 1.76451C7.97767 2.39051 8.80921 3.12172 9.54629 3.94291H7.71035Z" fill="#0F898C"/>
</svg>
