<svg width="29" height="10" viewBox="0 0 29 10" fill="none" xmlns="http://www.w3.org/2000/svg">
<path d="M18.8278 0.0998535C16.7972 0.0998535 14.9811 1.2243 14.9811 3.30208C14.9811 5.68541 18.2001 5.84888 18.2001 7.04513C18.2001 7.5493 17.6595 8.00152 16.7372 8.00152C15.9366 7.99592 15.1497 7.77918 14.4463 7.37055L14.0273 9.46666C14.0273 9.46666 15.157 9.99985 16.6542 9.99985C18.8736 9.99985 20.621 8.82041 20.621 6.70749C20.621 4.18971 17.3892 4.0293 17.3892 2.9186C17.3892 2.52291 17.8326 2.09055 18.7535 2.09055C19.7931 2.09055 20.6411 2.54888 20.6411 2.54888L21.05 0.524576C21.05 0.524576 20.1277 0.0998535 18.8278 0.0998535ZM0.247839 0.25263L0.199219 0.558187C0.199219 0.558187 1.05293 0.726242 1.8237 1.05777C2.81326 1.43971 2.88476 1.66277 3.05064 2.35332L4.8696 9.84249H7.30632L11.0615 0.25263H8.6305L6.21666 6.77319L5.23282 1.24569C5.14273 0.613187 4.68513 0.25263 4.12457 0.25263H0.247839ZM12.0396 0.25263L10.132 9.84249H12.4515L14.3519 0.25263H12.0396ZM24.9725 0.25263C24.4148 0.25263 24.1174 0.573465 23.9 1.1311L20.5024 9.84249H22.9334L23.4053 8.3911H26.3668L26.6528 9.84249H28.7992L26.9273 0.25263H24.9725ZM25.2886 2.84374L26.0093 6.44166H24.0802L25.2886 2.84374Z" fill="#0F898C"/>
</svg>
