<svg width="8" height="9" viewBox="0 0 8 9" fill="none" xmlns="http://www.w3.org/2000/svg">
<path d="M7.48462 8.85231C7.41237 8.8547 7.3404 8.84207 7.27328 8.81523C7.20616 8.78838 7.14535 8.74788 7.09468 8.69632L0.266799 1.86844C0.176954 1.76734 0.129062 1.63572 0.133042 1.50053C0.137022 1.36534 0.192488 1.23679 0.288124 1.14115C0.38376 1.04552 0.51241 0.990049 0.647601 0.98607C0.782792 0.98209 0.914361 1.02989 1.01546 1.11973L7.84334 7.94761C7.9424 8.04702 7.99804 8.18166 7.99804 8.32199C7.99804 8.46232 7.9424 8.59692 7.84334 8.69632C7.74846 8.7928 7.61989 8.84873 7.48462 8.85231Z" fill="white"/>
<path d="M0.657924 8.85231C0.585615 8.85518 0.513484 8.84277 0.446293 8.81589C0.379102 8.78902 0.318362 8.74827 0.267982 8.69632C0.168924 8.59692 0.113281 8.46232 0.113281 8.32199C0.113281 8.18166 0.168924 8.04702 0.267982 7.94762L7.09587 1.11973C7.19696 1.02989 7.32853 0.98209 7.46372 0.98607C7.59891 0.990049 7.72747 1.04552 7.8231 1.14115C7.91874 1.23679 7.97421 1.36534 7.97818 1.50053C7.98216 1.63572 7.93437 1.76734 7.84452 1.86844L1.01664 8.69632C0.921304 8.79213 0.793013 8.84793 0.657924 8.85231Z" fill="white"/>
</svg>
